<?xml version="1.0" encoding="UTF-8"?>
<svg xmlns="http://www.w3.org/2000/svg" width="20" height="20" viewBox="0 0 20 20">
	<g fill="none" fill-rule="evenodd">
		<g stroke-linecap="square" stroke-width=".1">
			<path stroke="#000" stroke-opacity=".1" d="M0 0l20 20L0 0zm20 0L0 20 20 0z"/>
			<circle cx="10" cy="10" r="10" stroke="#36C" stroke-opacity=".5"/>
			<rect width="18" height="18" x="1" y="1" stroke="#00AF89" stroke-opacity=".5" rx="2"/>
			<rect width="20" height="16" y="2" stroke="#D33" stroke-opacity=".5" rx="2"/>
			<rect width="16" height="20" x="2" stroke="#FC3" stroke-opacity=".5" rx="2"/>
		</g>
		<path fill="#000" d="M2 16h16V8H2v8zM4 3.5a1.5 1.5 0 1 1-.001 3.001A1.5 1.5 0 0 1 4 3.5zM18 2H2a2 2 0 0 0-2 2v12a2 2 0 0 0 2 2h16a2 2 0 0 0 2-2V4a2 2 0 0 0-2-2z"/>
	</g>
</svg>
