<?xml version="1.0" encoding="UTF-8"?>
<svg xmlns="http://www.w3.org/2000/svg" width="20" height="20" viewBox="0 0 20 20">
	<g fill="none" fill-rule="evenodd">
		<g stroke-linecap="square" stroke-width=".1">
			<path stroke="#000" stroke-opacity=".1" d="m0 0 20 20L0 0zm20 0L0 20 20 0z"/>
			<circle cx="10" cy="10" r="10" stroke="#36C" stroke-opacity=".5"/>
			<rect width="18" height="18" x="1" y="1" stroke="#00AF89" stroke-opacity=".5" rx="2"/>
			<rect width="20" height="16" y="2" stroke="#D33" stroke-opacity=".5" rx="2"/>
			<rect width="16" height="20" x="2" stroke="#FC3" stroke-opacity=".5" rx="2"/>
		</g>
		<path fill="#000" d="M16 7v6l2 2v1H2v-1l2-2V7c0-.887.793-4.126 4.457-4.85C8.403 1.463 8.469 0 10 0s1.597 1.463 1.543 2.15C15.207 2.874 16 6.113 16 7zm-6 13a3 3 0 0 1-3-3h6a3 3 0 0 1-3 3z"/>
	</g>
</svg>
