<?xml version="1.0" encoding="UTF-8"?>
<svg xmlns="http://www.w3.org/2000/svg" width="20" height="20" viewBox="0 0 20 20">	<svg xmlns="http://www.w3.org/2000/svg" width="20" height="20" viewBox="0 0 20 20">
  <path fill-rule="evenodd" d="M10,20 C4.4771525,20 0,15.5228475 0,10 C0,4.4771525 4.4771525,0 10,0 C15.5228475,0 20,4.4771525 20,10 C20,15.5228475 15.5228475,20 10,20 Z M9,9 L9,15 L11,15 L11,9 L9,9 Z M10,7 C10.5522847,7 11,6.55228475 11,6 C11,5.44771525 10.5522847,5 10,5 C9.44771525,5 9,5.44771525 9,6 C9,6.55228475 9.44771525,7 10,7 Z"/>		<title>
		infoFilled
	</title>
	<path fill-rule="evenodd" d="M10 20C4.4771525 20 0 15.5228475 0 10S4.4771525 0 10 0s10 4.4771525 10 10-4.4771525 10-10 10zM9 9v6h2V9H9zm1-2c.5522847 0 1-.44771525 1-1s-.4477153-1-1-1c-.55228475 0-1 .44771525-1 1s.44771525 1 1 1z"/>
</svg>	</svg>
