<?xml version="1.0" encoding="UTF-8"?>
<svg xmlns="http://www.w3.org/2000/svg" xmlns:xlink="http://www.w3.org/1999/xlink" style="background:#eaecf0" width="817" height="424" viewBox="0 0 817 424">
    <defs>
        <path id="a" d="M31.664.656c2.035.057 3.079.12 4.342.12 1.265 0 2.64-.06 4.013-.12.329.356.329 1.614 0 1.973-2.859.479-4.052 2.755-5.404 5.56l-4.018 8.316 7.03 15.837h.253L48.32 7.77c1.302-3.236 1.209-4.844-2.363-5.14-.33-.36-.33-1.616 0-1.974 2.583.057 4.176.12 5.442.12 1.265 0 2.639-.06 4.837-.12.33.356.33 1.614 0 1.973-3.629.479-4.259 2.762-5.403 5.56L37.821 38.68c-.384.897-.715 1.375-1.317 1.375-.55 0-.974-.485-1.265-1.375l-7.395-17.356-8.107 17.356c-.328.897-.715 1.375-1.32 1.375-.547 0-.934-.478-1.263-1.375L5.197 8.07C3.52 3.825 3.41 2.931.277 2.631-.053 2.273-.108 1.017.222.658c2.583.057 3.518.12 5.716.12 2.144 0 3.518-.06 6.103-.12.33.356.33 1.615 0 1.973-3.464.417-3.611 1.362-2.23 4.782l10.063 24.931h.252l6.14-13.584-4.633-10.689c-1.842-4.246-2.28-5.08-4.646-5.44-.328-.358-.385-1.614-.054-1.973 1.758.057 2.693.12 4.891.12 2.144 0 3.024-.06 5.003-.12.33.356.33 1.615 0 1.973-2.309.36-2.09 1.374-.583 4.782l2.705 6.04.241.268 2.913-5.949c1.698-3.466 1.925-4.782-.439-5.14-.33-.364-.33-1.62 0-1.976z"/>
        <path id="c" d="M8.82 20.59c0 4.962.605 5.203 3.958 5.44.33.359.33 1.615 0 1.974-2.364-.058-3.738-.12-6.1-.12-2.42 0-3.85.06-6.158.12-.328-.36-.328-1.615 0-1.974 3.353-.299 3.96-.478 3.96-5.44V7.675c0-4.96-.605-5.2-3.96-5.44C.192 1.878.192.622.52.263c2.363.06 3.737.12 6.103.12 2.417 0 3.848-.058 6.157-.12.33.359.33 1.615 0 1.974-3.353.299-3.957.478-3.957 5.44V20.59h-.002z"/>
        <path id="e" d="M1.004 2.238C.676 1.879.676.623 1.004.264c2.31.06 3.738.12 6.158.12 2.035 0 2.913-.058 5.276-.12.328.36.328 1.615 0 1.974-2.64.299-3.133.478-3.133 5.44v5.32c1.813 0 3.424-.944 5.772-3.828 4.233-5.2 4.784-6.755 2.035-6.934-.33-.36-.33-1.615 0-1.974 2.364.06 4.453.12 6.047.12 1.428 0 2.363-.058 3.848-.12.328.359.328 1.615 0 1.974-2.198.12-4.216.423-5.883 2.511l-4.727 5.919c-.935 1.076-1.265 1.734-1.265 2.212 0 .359.22.658.496 1.017l8.135 10.403c.72.908 2.035 1.553 3.518 1.732.328.359.328 1.555 0 1.914 0 0-2.694-.06-4.233-.06-1.43 0-2.805.06-3.41.12v-.838c0-.777-.054-1.433-.823-2.39l-6.1-8.252c-.825-1.196-2.201-1.495-3.41-1.495v5.561c0 4.962.496 5.141 3.133 5.44.328.359.328 1.615 0 1.974-2.363-.058-3.244-.12-5.276-.12-2.42 0-3.849.06-6.158.12-.328-.36-.328-1.615 0-1.974 3.353-.299 3.957-.478 3.957-5.44V7.675c0-4.96-.604-5.14-3.957-5.437z"/>
        <path id="g" d="M9.228 20.59c0 4.962.604 5.203 3.957 5.44.33.359.33 1.615 0 1.974-2.363-.058-3.737-.12-6.1-.12-2.42 0-3.849.06-6.158.12-.328-.36-.328-1.615 0-1.974 3.353-.299 3.957-.478 3.957-5.44V7.675c0-4.96-.604-5.2-3.957-5.44C.6 1.878.6.622.927.263c2.363.06 3.738.12 6.103.12 2.418 0 3.848-.058 6.157-.12.33.359.33 1.615 0 1.974-3.352.299-3.957.478-3.957 5.44V20.59h-.002z"/>
        <path id="i" d="M12.735 26.03c.328.359.328 1.615 0 1.974-2.366-.058-3.74-.12-6.103-.12-2.418 0-3.848.06-6.157.12-.33-.36-.33-1.615 0-1.974 3.352-.299 3.957-.478 3.957-5.44V7.675c0-4.96-.605-5.2-3.957-5.44-.33-.358-.33-1.614 0-1.973 2.363.06 3.737.12 6.1.12 1.485 0 3.794-.12 5.827-.12 7.805 0 9.457 4.186 9.457 7.294 0 3.588-2.254 9.327-9.622 9.327-1.374 0-2.472-.237-3.461-.718v4.425c0 4.962.604 5.201 3.959 5.44zm-3.96-11.779c1.099.479 2.473.658 3.573.658 3.3 0 4.728-2.325 4.728-6.636 0-4.192-1.76-6.04-5.002-6.04-2.64 0-3.298.778-3.298 2.692v9.326z"/>
        <path id="k" d="M9.181 14.548v8.968c0 1.137.77 2.632 1.759 2.632h4.565c3.462 0 5.057-2.99 5.936-6.517.602-.179 1.043-.057 1.537.24-.385 2.511-.99 5.798-1.648 8.25 0 0-3.629-.12-5.827-.12H7.035s-3.848.06-6.157.12c-.328-.359-.328-1.615 0-1.973 3.355-.3 3.957-.479 3.957-5.44V7.793c0-4.962-.602-5.2-3.957-5.44C.55 1.994.55.738.878.38 3.244.44 6.981.5 6.981.5h11.38c1.1 0 1.482-.12 2.252-.238.11 0 .165.058.165.18.108.416.77 5.08.989 7.114-.44.237-.935.359-1.485.299-.99-3.407-1.705-5.382-5.114-5.382h-4.233c-1.043 0-1.758.657-1.758 1.674v8.49h3.133c3.848-.058 3.68-.658 3.791-3.35.276-.298 1.266-.298 1.54 0-.055 1.496-.11 2.572-.11 4.247 0 1.674.053 2.631.11 4.365-.274.3-1.264.3-1.54 0-.11-2.212.111-3.349-3.791-3.349H9.18v-.002z"/>
        <path id="m" d="M14.107.264c9.179 0 13.686 6.22 13.686 14.17 0 10.462-6.816 13.57-12.916 13.57-4.399 0-6.38-.12-8.025-.12-2.42 0-3.848.06-6.157.12-.33-.36-.33-1.615 0-1.974 3.355-.299 3.957-.478 3.957-5.44V7.675c0-4.96-.602-5.2-3.957-5.44-.33-.358-.33-1.614 0-1.973 2.363.06 3.737.12 6.103.12C7.84.384 12.676.264 14.107.264zm-.552 25.768c6.046 0 9.457-2.212 9.457-10.58 0-6.22-1.265-13.214-10.5-13.214-2.145 0-3.516.359-3.516 1.854v19.25c0 1.674.382 2.69 4.559 2.69z"/>
        <path id="o" d="M8.624 20.59c0 4.962.602 5.203 3.957 5.44.328.359.328 1.615 0 1.974-2.365-.058-3.74-.12-6.103-.12-2.42 0-3.848.06-6.157.12-.328-.36-.328-1.615 0-1.974 3.355-.299 3.957-.478 3.957-5.44V7.675c0-4.96-.602-5.2-3.957-5.44-.328-.358-.328-1.614 0-1.973 2.366.06 3.737.12 6.103.12 2.417 0 3.848-.058 6.157-.12.328.359.328 1.615 0 1.974-3.355.299-3.957.478-3.957 5.44V20.59z"/>
        <path id="q" d="M12.679 37.487c.33.359.33 1.615 0 1.973a269.15 269.15 0 0 0-7.036-.12c-2.141 0-2.856.06-4.891.12-.329-.358-.329-1.614 0-1.973 2.391-.18 4.046-.55 5.498-4.244L18.47 2.135C19.095.532 19.509 0 20.323 0c.77 0 1.083.64 1.483 1.796L33.076 34.2c1.018 3.079 2.816 3.079 4.946 3.287.33.359.33 1.615 0 1.973-2.035-.057-4.013-.12-6.268-.12-2.141 0-5.165.06-7.2.12-.328-.358-.328-1.614 0-1.973 2.617-.204 4.885.013 4.068-2.45l-3.353-10.104H13.833c-1.317 0-1.648.237-1.924 1.017l-3.024 8.666c-.854 2.457 1.729 2.714 3.794 2.871zm11.71-15.066L19.058 6.46h-.111L13.44 21.626c-.23.647.165.795 1.385.795h9.564z"/>
    </defs>
    <g fill="none" fill-rule="evenodd">
        <g transform="translate(279 116)">
            <mask id="b" fill="#fff">
                <use xlink:href="#a"/>
            </mask>
            <path fill="#000" d="M-4.692-4.152h65.868v49.016H-4.692z" mask="url(#b)"/>
        </g>
        <g transform="translate(333.43 127.54)">
            <mask id="d" fill="#fff">
                <use xlink:href="#c"/>
            </mask>
            <path fill="#000" d="M-4.418-4.546H17.72v37.358H-4.418z" mask="url(#d)"/>
        </g>
        <g transform="translate(350.322 127.54)">
            <mask id="f" fill="#fff">
                <use xlink:href="#e"/>
            </mask>
            <path fill="#000" d="M-3.934-4.546h36.153v37.358H-3.934z" mask="url(#f)"/>
        </g>
        <g transform="translate(381.291 127.54)">
            <mask id="h" fill="#fff">
                <use xlink:href="#g"/>
            </mask>
            <path fill="#000" d="M-4.011-4.546h22.138v37.358H-4.01z" mask="url(#h)"/>
        </g>
        <g transform="translate(399.122 127.54)">
            <mask id="j" fill="#fff">
                <use xlink:href="#i"/>
            </mask>
            <path fill="#000" d="M-4.465-4.546h31.017v37.358H-4.465z" mask="url(#j)"/>
        </g>
        <g transform="translate(424.46 127.54)">
            <mask id="l" fill="#fff">
                <use xlink:href="#k"/>
            </mask>
            <path fill="#000" d="M-4.06-4.546h31.73V32.93H-4.06z" mask="url(#l)"/>
        </g>
        <g transform="translate(451.675 127.54)">
            <mask id="n" fill="#fff">
                <use xlink:href="#m"/>
            </mask>
            <path fill="#000" d="M-4.245-4.546h36.73v37.358h-36.73z" mask="url(#n)"/>
        </g>
        <g transform="translate(483.582 127.54)">
            <mask id="p" fill="#fff">
                <use xlink:href="#o"/>
            </mask>
            <path fill="#000" d="M-4.617-4.546h22.136v37.358H-4.617z" mask="url(#p)"/>
        </g>
        <g transform="translate(498.598 116)">
            <mask id="r" fill="#fff">
                <use xlink:href="#q"/>
            </mask>
            <path fill="#000" d="M-4.187-4.808h47.15v49.077h-47.15z" mask="url(#r)"/>
        </g>
    </g>
</svg>
