<?xml version="1.0" encoding="UTF-8"?>
<svg xmlns="http://www.w3.org/2000/svg" width="788" height="300" viewBox="0 0 788 300">
	<g fill="none" fill-rule="evenodd">
		<path fill="#F8F9FA" d="M0 0h788v300H0z"/>
		<path fill="#000" d="M248.128 158v5.223H239.5v8.89h2.207v-6.777h15.417c-.255 3.638-1.245 6.72-2.999 9.213-1.98 2.817-4.922 5.018-8.882 6.544l1.216 1.907c4.413-1.76 7.666-4.284 9.788-7.512 1.952-2.993 3.027-6.807 3.253-11.414l-1.443-.851h-7.694V158h-2.235zm-44.917 8.534h4.122v-1.65h-19.161v1.65h13.126v8.059c0 2.729-1.814 4.823-4.617 4.823-2.54 0-4.156-1.745-4.156-3.998 0-2.983 2.837-4.41 5.87-3.68l-.197-1.81c-3.463-.634-7.717 1.08-7.717 5.553 0 3.459 2.803 5.68 5.87 5.68 2.572 0 4.122-1.174 4.815-2.063h.132V185h1.913v-18.466zm-13.72 0v-1.65h-4.122v-2.887c0-2.729 2.044-4.284 5.903-4.284 5.31 0 8.74 2.697 10.356 4.918l1.517-.952c-1.682-2.41-5.838-5.679-11.873-5.679-4.947 0-7.816 2.38-7.816 5.965v2.919h-4.123v1.65h4.123V185h1.913v-18.466h4.122zM308.454 181v-13.029c0-2.062-.31-3.44-.928-4.13-.62-.692-2.074-1.28-4.364-1.766L304.74 159c2.773.388 4.62 1.146 5.543 2.275s1.384 3.214 1.384 6.26V181h-3.213zm-9.545-8.971h-3.25c.656-2.681.984-4.762.984-6.242 0-1.019-.334-1.774-1.002-2.265-.669-.491-1.994-.961-3.974-1.41l1.597-3.112c2.451.352 4.2 1 5.246 1.947 1.046.946 1.569 2.354 1.569 4.222 0 1.358-.303 3.281-.91 5.768l-.26 1.092zm-169.1 6.932c-3.037 1.159-6.594 2.074-10.642 2.745l.276 2.196c3.864-.732 7.33-1.678 10.366-2.837v-2.104zM124.258 157c-1.135 3.6-2.454 6.802-3.987 9.608-.276.396-.583.67-.92.823l.552 2.013a199.87 199.87 0 0 0 4.876-.884c-1.533 2.928-2.852 5.033-3.926 6.253a3.307 3.307 0 0 1-1.012.61l.614 2.013c2.76-.458 5.643-1.312 8.648-2.532v-2.013a36.161 36.161 0 0 1-6.041 2.044c1.686-2.257 3.802-6.01 6.378-11.255l-1.932-.732c-.582 1.25-1.134 2.44-1.686 3.599a59.516 59.516 0 0 1-3.834.67c1.472-2.348 2.944-5.49 4.386-9.393l-2.116-.824zm9.844 13.573h5.428v4.148h-5.428v-4.148zm0 6.161h5.428v4.636h-5.428v-4.636zm0 6.68h13.065v-2.044h-5.49v-4.636h4.355v-2.013h-4.355v-4.148h4.355v-2.044h-4.355v-4.148h4.876v-2.074h-5.55l.827-.305c-.398-1.525-.95-3.172-1.625-5.002l-2.147.58a41.486 41.486 0 0 1 1.748 4.727h-5.581a38.744 38.744 0 0 0 1.533-4.727l-2.116-.427a35.55 35.55 0 0 1-5.152 11.773l.674 2.227a43.137 43.137 0 0 0 2.791-4.18V185h2.147v-1.586zm5.428-19.033v4.148h-5.428v-4.148h5.428zM405 169.458c0 2.959-.644 5.535-1.933 7.729-1.508 2.542-3.55 3.813-6.128 3.813-1.861 0-3.337-.472-4.429-1.417-.478-.417-.927-.98-1.348-1.688-.421-.709-.809-1.558-1.162-2.548.291.641 1.154 1.356 2.588 2.143 1.341.731 2.396 1.097 3.166 1.097.81 0 1.608-.152 2.393-.456a8.156 8.156 0 0 0 2.167-1.248A8.257 8.257 0 0 0 402.03 175a7.438 7.438 0 0 0 1.037-2.337 4.12 4.12 0 0 1-.234.026 4.419 4.419 0 0 1-2.027-.371 5.105 5.105 0 0 1-1.52-1.03 4.903 4.903 0 0 1-1.053-1.527 4.481 4.481 0 0 1-.39-1.84c0-1.034.437-2.26 1.31-3.678.946-1.496 1.86-2.244 2.744-2.244.26 0 .546.118.858.354 1.497 1.125 2.245 3.493 2.245 7.104zm-1.622-.506c0-.36-.06-.726-.179-1.097-.12-.371-.275-.703-.468-.995s-.423-.532-.694-.717a1.513 1.513 0 0 0-.873-.279.886.886 0 0 0-.499.169 1.898 1.898 0 0 0-.452.439c-.135.18-.242.376-.32.59a1.774 1.774 0 0 0-.116.608c0 .213.1.424.304.632.202.209.457.388.764.54a4.89 4.89 0 0 0 1.005.363c.364.09.712.135 1.045.135.322 0 .483-.13.483-.388zM343.833 183v-25h5.96c2.298 0 4.06.473 5.285 1.419 1.227.946 1.84 2.308 1.84 4.088 0 3.03-1.573 5.186-4.719 6.47 3.756 1.25 5.634 3.507 5.634 6.773 0 2.027-.62 3.575-1.862 4.645-1.242 1.07-3.032 1.605-5.37 1.605h-6.768zm3.229-2.652h.667c2.39 0 3.937-.163 4.64-.49 1.346-.62 2.019-1.768 2.019-3.446 0-1.486-.61-2.722-1.832-3.708-1.22-.985-2.747-1.478-4.579-1.478h-.915v9.122zm0-11.368h1.04c1.738 0 3.086-.406 4.043-1.216.957-.811 1.436-1.954 1.436-3.43 0-2.455-1.75-3.682-5.247-3.682h-1.272v8.328zm-283.64 13.659l-.298-1.341a9.542 9.542 0 0 0 2.162-1.453 11.772 11.772 0 0 0 1.807-2.003c.522-.734.935-1.502 1.237-2.304.303-.803.454-1.582.454-2.339 0-.94-.165-1.81-.495-2.613a6.617 6.617 0 0 0-1.345-2.09 6.095 6.095 0 0 0-2.005-1.383 6.218 6.218 0 0 0-2.491-.499 6.187 6.187 0 0 0-4.505 1.883 6.432 6.432 0 0 0-1.344 2.089 6.906 6.906 0 0 0-.487 2.613c0 1.055.148 2.015.445 2.88a10.02 10.02 0 0 0 1.114 2.304 8.54 8.54 0 0 0 1.46 1.703c.529.464 1.029.822 1.502 1.074L59.395 183a8.653 8.653 0 0 1-2.227-1.737 11.714 11.714 0 0 1-1.7-2.364A12.04 12.04 0 0 1 54 173.2a9.93 9.93 0 0 1 .586-3.43 8.195 8.195 0 0 1 1.683-2.794 7.926 7.926 0 0 1 2.656-1.874c1.04-.458 2.214-.688 3.523-.688 1.32 0 2.502.238 3.547.714a7.947 7.947 0 0 1 2.657 1.926 8.477 8.477 0 0 1 1.667 2.802 9.722 9.722 0 0 1 .577 3.344c0 .78-.113 1.542-.338 2.287s-.512 1.439-.858 2.08a9.61 9.61 0 0 1-1.164 1.712c-.429.498-.846.885-1.254 1.16h8.894v-16.025h2.112v18.226H63.422zm21.466-18.226c0-1.318-.256-2.352-.767-3.103-.512-.751-1.312-1.126-2.401-1.126-.484 0-.921.08-1.312.24-.39.16-.723.381-.998.662s-.487.616-.635 1.006c-.149.39-.223.814-.223 1.273H76.44c.044-.826.214-1.568.511-2.227a5.35 5.35 0 0 1 1.172-1.685 5.15 5.15 0 0 1 1.675-1.075 5.451 5.451 0 0 1 2.037-.378c.77 0 1.474.123 2.113.37a4.455 4.455 0 0 1 1.633 1.074c.451.47.8 1.046 1.048 1.728.247.682.371 1.453.371 2.313v19.154h-2.112v-18.226zM70.181 45c1.297.037 1.962.076 2.767.076.807 0 1.683-.038 2.558-.076.21.226.21 1.025 0 1.252-1.822.304-2.583 1.748-3.444 3.528L69.5 55.057l4.481 10.048h.16l6.655-15.591c.83-2.053.77-3.074-1.506-3.262-.211-.227-.211-1.024 0-1.252 1.646.037 2.661.076 3.468.076.806 0 1.682-.038 3.083-.076.21.226.21 1.025 0 1.252-2.313.304-2.714 1.753-3.443 3.528l-8.294 19.347c-.245.57-.455.873-.84.873-.35 0-.62-.308-.806-.873l-4.712-11.012-5.168 11.012c-.209.57-.455.873-.84.873-.35 0-.596-.304-.806-.873l-7.62-19.422c-1.07-2.694-1.14-3.262-3.137-3.451-.21-.228-.245-1.025-.034-1.253 1.646.037 2.242.076 3.643.076 1.366 0 2.242-.038 3.89-.076.21.227.21 1.025 0 1.253-2.208.264-2.302.864-1.422 3.034l6.414 15.819h.16l3.914-8.62-2.953-6.782c-1.174-2.694-1.454-3.224-2.961-3.451-.21-.228-.246-1.025-.035-1.253 1.121.037 1.717.076 3.118.076 1.366 0 1.927-.038 3.188-.076.21.227.21 1.025 0 1.253-1.471.227-1.332.87-.371 3.034l1.724 3.832.153.17 1.857-3.775c1.082-2.199 1.226-3.034-.28-3.261-.21-.23-.21-1.028 0-1.254zm21.18 19.457c0 3.04.38 3.188 2.482 3.334.207.22.207.99 0 1.209-1.482-.035-2.344-.073-3.826-.073-1.518 0-2.414.036-3.863.073-.205-.22-.205-.99 0-1.21 2.103-.183 2.484-.293 2.484-3.333v-7.914c0-3.04-.38-3.187-2.484-3.334-.205-.22-.205-.99 0-1.209 1.483.037 2.345.073 3.828.073 1.517 0 2.414-.035 3.863-.073.207.22.207.99 0 1.21-2.103.183-2.482.293-2.482 3.333v7.914h-.002zm4.795-11.246c-.208-.22-.208-.99 0-1.21 1.467.037 2.374.074 3.91.074 1.293 0 1.85-.036 3.352-.074.208.22.208.99 0 1.21-1.677.183-1.99.293-1.99 3.333v3.26c1.151 0 2.175-.578 3.666-2.345 2.688-3.187 3.037-4.14 1.292-4.25-.21-.22-.21-.99 0-1.209 1.5.037 2.828.073 3.84.073.907 0 1.5-.035 2.444-.073.208.22.208.99 0 1.21-1.396.073-2.678.259-3.737 1.539l-3.001 3.626c-.594.66-.804 1.063-.804 1.356 0 .22.14.403.315.623l5.167 6.375c.457.557 1.292.952 2.234 1.062.208.22.208.952 0 1.172 0 0-1.711-.036-2.689-.036-.908 0-1.78.036-2.165.073v-.513c0-.476-.034-.878-.523-1.465l-3.874-5.057c-.523-.733-1.397-.916-2.165-.916v3.408c0 3.04.315 3.15 1.99 3.334.208.22.208.99 0 1.209-1.501-.035-2.06-.073-3.351-.073-1.537 0-2.444.036-3.91.073-.21-.22-.21-.99 0-1.21 2.128-.183 2.512-.293 2.512-3.333v-7.914c0-3.04-.384-3.15-2.513-3.332zm26.205 11.246c0 3.04.38 3.188 2.482 3.334.207.22.207.99 0 1.209-1.482-.035-2.344-.073-3.826-.073-1.518 0-2.414.036-3.863.073-.205-.22-.205-.99 0-1.21 2.103-.183 2.482-.293 2.482-3.333v-7.914c0-3.04-.379-3.187-2.482-3.334-.205-.22-.205-.99 0-1.209 1.483.037 2.345.073 3.828.073 1.517 0 2.414-.035 3.863-.073.207.22.207.99 0 1.21-2.103.183-2.482.293-2.482 3.333v7.914h-.002zm14.312 3.334c.228.22.228.99 0 1.209-1.64-.035-2.593-.073-4.232-.073-1.676 0-2.668.036-4.27.073-.228-.22-.228-.99 0-1.21 2.325-.183 2.745-.293 2.745-3.333v-7.914c0-3.04-.42-3.187-2.744-3.334-.23-.22-.23-.99 0-1.209 1.639.037 2.591.073 4.23.073 1.03 0 2.63-.073 4.04-.073 5.412 0 6.558 2.565 6.558 4.47 0 2.198-1.563 5.715-6.672 5.715-.953 0-1.714-.145-2.4-.44v2.712c0 3.04.419 3.187 2.745 3.334zm-2.745-7.218c.76.293 1.714.403 2.477.403 2.288 0 3.278-1.425 3.278-4.067 0-2.569-1.22-3.701-3.468-3.701-1.83 0-2.287.476-2.287 1.65v5.715zm15.81.145v5.472c0 .693.517 1.606 1.181 1.606h3.065c2.323 0 3.395-1.825 3.984-3.977.404-.109.7-.035 1.032.146-.258 1.533-.664 3.539-1.106 5.035 0 0-2.436-.073-3.911-.073h-5.685s-2.583.037-4.133.073c-.22-.219-.22-.985 0-1.204 2.252-.183 2.656-.292 2.656-3.32v-7.88c0-3.028-.404-3.174-2.656-3.32-.22-.22-.22-.985 0-1.204 1.588.036 4.097.073 4.097.073h7.638c.739 0 .996-.073 1.512-.145.075 0 .111.035.111.11.073.254.517 3.1.664 4.34a1.821 1.821 0 0 1-.997.183c-.664-2.079-1.144-3.284-3.432-3.284h-2.842c-.7 0-1.18.401-1.18 1.022v5.18h2.103c2.583-.035 2.47-.401 2.545-2.043.185-.183.85-.183 1.033 0-.036.912-.073 1.569-.073 2.59 0 1.022.035 1.606.073 2.665-.184.182-.848.182-1.033 0-.074-1.35.074-2.044-2.545-2.044h-2.1v-.001zM169.493 52c5.706 0 8.508 3.812 8.508 8.683 0 6.412-4.237 8.316-8.03 8.316-2.734 0-3.965-.073-4.988-.073-1.505 0-2.393.036-3.828.073-.205-.22-.205-.99 0-1.21 2.086-.183 2.46-.293 2.46-3.333v-7.914c0-3.04-.374-3.187-2.46-3.334-.205-.22-.205-.99 0-1.209 1.47.037 2.323.073 3.794.073.649.002 3.655-.072 4.544-.072zm-.343 15.791c3.758 0 5.879-1.356 5.879-6.484 0-3.811-.787-8.097-6.528-8.097-1.333 0-2.186.22-2.186 1.136v11.796c0 1.026.238 1.649 2.835 1.649zm17.214-3.335c0 3.04.378 3.188 2.483 3.334.205.22.205.99 0 1.209-1.484-.035-2.346-.073-3.829-.073-1.518 0-2.414.036-3.863.073-.205-.22-.205-.99 0-1.21 2.105-.183 2.483-.293 2.483-3.333v-7.914c0-3.04-.378-3.187-2.483-3.334-.205-.22-.205-.99 0-1.209 1.484.037 2.345.073 3.829.073 1.517 0 2.414-.035 3.863-.073.205.22.205.99 0 1.21-2.105.183-2.483.293-2.483 3.333v7.914zm12.373 4.293c.21.227.21 1.023 0 1.25a171.572 171.572 0 0 0-4.47-.076c-1.362 0-1.816.038-3.11.076-.208-.227-.208-1.023 0-1.25 1.52-.114 2.572-.348 3.495-2.689l7.765-19.708c.398-1.016.662-1.353 1.178-1.353.49 0 .688.406.943 1.138l7.162 20.53c.647 1.95 1.79 1.95 3.143 2.082.21.227.21 1.023 0 1.25-1.293-.036-2.55-.076-3.983-.076-1.36 0-3.283.038-4.576.076-.209-.227-.209-1.023 0-1.25 1.664-.13 3.105.008 2.585-1.552l-2.13-6.402h-7.268c-.837 0-1.047.15-1.223.644l-1.922 5.491c-.543 1.556 1.099 1.72 2.411 1.819zm7.442-9.545l-3.388-10.113h-.07l-3.5 9.61c-.147.409.105.503.88.503h6.078zM59 112.385l2.364 2.363c5.873-5.873 15.399-5.873 21.272 0L85 112.385c-7.18-7.18-18.82-7.18-26 0zm9.455 9.454L72 125.385l3.545-3.546a5.018 5.018 0 0 0-7.09 0zm-4.728-4.727l2.364 2.364a8.36 8.36 0 0 1 11.818 0l2.364-2.364c-4.568-4.568-11.978-4.568-16.546 0z"/>
		<g transform="translate(488 29)">
			<circle cx="122" cy="116" r="106" fill="#36C" opacity=".1"/>
			<circle cx="122" cy="116" r="90" fill="#36C"/>
			<path stroke="#FF00AF" stroke-linecap="square" d="M122.5.479v244.464M244 123H0" opacity=".2"/>
			<path stroke="#FF00AF" stroke-dasharray="5 5" stroke-linecap="square" d="M208 36L35 209" opacity=".2"/>
			<path fill="#FFF" d="M122.02 67c5.837 0 10.564 4.703 10.564 10.509s-4.727 10.509-10.564 10.509-10.565-4.703-10.565-10.51c0-5.805 4.728-10.508 10.565-10.508zM171 104.45h-32.333V174h-10.778v-32.1H117.11V174h-10.778v-69.55H74v-10.7h97v10.7z"/>
		</g>
		<path fill="#000" d="M75 213.5a3.5 3.5 0 1 1-7 0 3.5 3.5 0 0 1 7 0zm8 14.489v-3.336c-2.53.033-5.076-1.251-6.686-3.052l-2.12-2.386a3.181 3.181 0 0 0-1.002-.75c-.016 0-.016-.017-.033-.017h-.016a3.24 3.24 0 0 0-1.955-.434c-1.725.15-2.974 1.702-2.974 3.453v9.858c0 1.834 1.479 3.335 3.286 3.335h8.214V243H83v-9.174c0-1.834-1.479-3.335-3.286-3.335h-4.928v-5.755c2.119 1.785 5.339 3.236 8.214 3.253zm-10.136 8.34c-.674 1.934-2.498 3.335-4.65 3.335-2.727 0-4.928-2.235-4.928-5.004 0-2.185 1.38-4.02 3.285-4.72v-3.452c-3.745.767-6.571 4.136-6.571 8.172 0 4.604 3.68 8.34 8.214 8.34 3.976 0 7.295-2.869 8.05-6.672h-3.4z"/>
		<path fill="#000" fill-rule="nonzero" d="M190.532 215.524a6.619 6.619 0 1 0 0 13.238 6.619 6.619 0 0 0 0-13.238zm6.132 17.02h-10.797c-2.556 0-4.628 2.54-4.628 5.674 0 2.089 1.381 3.782 3.085 3.782h13.883c1.704 0 3.085-1.693 3.085-3.782 0-3.134-2.072-5.674-4.628-5.674zm15.747-1.83a21.75 21.75 0 0 0 0-17.142.945.945 0 0 0-1.736.746 19.879 19.879 0 0 1 0 15.65.943.943 0 0 0 .868 1.319c.378 0 .72-.226.868-.573zm-5.408-1.832a15.945 15.945 0 0 0 0-13.478.946.946 0 0 0-1.717.794 14.043 14.043 0 0 1 0 11.89.946.946 0 1 0 1.717.794zm-5.466-1.816a10.06 10.06 0 0 0 0-9.847.945.945 0 1 0-1.662.902 8.174 8.174 0 0 1 0 8.044.945.945 0 1 0 1.662.902z"/>
		<path fill="#000" d="M141.533 237.015l1.873 4.985H146l-6.054-18h-3.604L130 242h2.594l1.73-4.985h7.209zm-3.605-10.939l3.026 8.588h-6.053l3.027-8.585v-.003zM126.801 215H128l-1.333-2H124l.667 1c.399.611 1.226 1 2.134 1zm1.995 10.682c1.088.84 2.31 1.54 3.808 1.96l-.681 2.096a14.11 14.11 0 0 1-4.761-2.519c-2.316 1.82-4.761 2.94-7.481 3.781l-.681-2.1c2.31-.84 4.623-1.68 6.528-3.222-1.769-1.958-2.993-4.059-3.808-6.582h-2.585V217H136l-.68 2.1h-2.72c-.48 2.127-1.952 4.73-3.81 6.582h.006zm1.632-6.583h-6.395c.544 1.962 1.769 3.781 3.129 5.181 1.44-1.6 2.513-3.131 3.264-5.18h.002z"/>
		<path fill="#000" fill-rule="nonzero" d="M258.55 228.486a2.46 2.46 0 0 1 2.45 2.469v12.318c0 .97-1.442.97-1.442 0v-12.318c0-.56-.452-1.015-1.008-1.015-.962 0-.962-1.454 0-1.454zm-6.682-14.972c0 1.388-1.118 2.513-2.496 2.513s-2.495-1.125-2.495-2.513 1.117-2.514 2.495-2.514 2.496 1.126 2.496 2.514zm-.604 13.32l.98 8.774s.075.59.075 1.205l-.002 5.755c0 1.898-2.827 1.896-2.826 0l.002-6.133-.504-4.5c-.017-.159-.207-.156-.218-.001l-.458 4.225a7.79 7.79 0 0 1-.212 1.171c-.064.28-1.35 5.559-1.35 5.559-.448 1.843-3.193 1.166-2.745-.677l1.46-6.008.933-9.362-.091-5.01-1.28 1.729-.964 5.082c-.3 1.542-2.32 1.024-2.037-.348.464-2.253.644-3.539.793-4.41.203-1.193.345-1.61 1.07-2.67.761-1.068 1.794-2.515 2.717-3.806.284-.399.715-.71 1.215-.71h1.997c.589 0 1.121.404 1.33.942l2.994 6.835 2.898 2.405c1.313 1.014-.142 2.662-1.263 1.765-1.903-1.519-2.599-1.914-3.068-2.509-.404-.512-.664-1.14-1.467-2.65 0 0 .015 3.293.02 3.347zM193.994 106c-6.63 0-11.994 5.37-11.994 12s5.364 12 11.994 12S206 124.63 206 118s-5.376-12-12.006-12zm8.31 7.2h-3.54c-.39-1.5-.936-2.94-1.656-4.272a9.61 9.61 0 0 1 5.196 4.272zM194 108.442a16.618 16.618 0 0 1 2.292 4.758h-4.584a16.618 16.618 0 0 1 2.292-4.758zm-9.288 11.958a9.604 9.604 0 0 1-.312-2.4c0-.828.114-1.632.312-2.4h4.05a19.738 19.738 0 0 0-.162 2.4c0 .816.066 1.614.168 2.4h-4.056zm.978 2.4h3.54c.39 1.5.936 2.94 1.656 4.278a9.62 9.62 0 0 1-5.196-4.278zm3.54-9.6h-3.54a9.62 9.62 0 0 1 5.196-4.278 19.222 19.222 0 0 0-1.656 4.278zm4.77 14.358a16.94 16.94 0 0 1-2.292-4.758h4.584a16.94 16.94 0 0 1-2.292 4.758zm2.808-7.158h-5.616A16.675 16.675 0 0 1 191 118c0-.816.078-1.614.192-2.4h5.616c.114.786.192 1.584.192 2.4 0 .816-.078 1.614-.192 2.4zm.306 6.672a19.174 19.174 0 0 0 1.656-4.272h3.54a9.652 9.652 0 0 1-5.196 4.272zm2.118-6.672c.096-.786.168-1.584.168-2.4 0-.816-.066-1.614-.168-2.4h4.05c.198.768.318 1.572.318 2.4 0 .828-.114 1.632-.318 2.4h-4.05z"/>
		<rect width="30" height="19" x="121" y="109" fill="#000" rx="2"/>
		<path fill="#000" d="M249.5 107c-6.325 0-11.5 5.175-11.5 11.5s5.175 11.5 11.5 11.5 11.5-5.175 11.5-11.5-5.175-11.5-11.5-11.5zm6.5 18h-12v-2h12v2zm-8.04-5l-3.96-3.667 1.68-1.555 2.28 2.11 6.36-5.888 1.68 1.556-8.04 7.444zm59.54-12h-10c-1.417 0-2.5.924-2.5 2.132v19.902c0 1.138 1.083 2.133 2.5 2.133h10c1.417 0 2.5-.995 2.5-2.133v-19.902c0-1.208-1.083-2.132-2.5-2.132zm-5 23.333a.836.836 0 0 1-.833-.833c0-.458.375-.833.833-.833s.833.375.833.833a.836.836 0 0 1-.833.833zm5.833-3.333h-11.666v-16.667h11.666V128z"/>
	</g>
</svg>
