<svg xmlns="http://www.w3.org/2000/svg" xmlns:xlink="http://www.w3.org/1999/xlink" width="348" height="156" viewBox="0 0 348 156">
	<defs>
		<filter id="this-is-for-everyone--mobile-a" width="137.5%" height="137.5%" x="-18.8%" y="-13.8%" filterUnits="objectBoundingBox">
			<feMorphology in="SourceAlpha" operator="dilate" radius=".5" result="shadowSpreadOuter1"/>
			<feOffset dy="2" in="shadowSpreadOuter1" result="shadowOffsetOuter1"/>
			<feGaussianBlur in="shadowOffsetOuter1" result="shadowBlurOuter1" stdDeviation="2"/>
			<feComposite in="shadowBlurOuter1" in2="SourceAlpha" operator="out" result="shadowBlurOuter1"/>
			<feColorMatrix in="shadowBlurOuter1" values="0 0 0 0 0.917647059 0 0 0 0 0.925490196 0 0 0 0 0.941176471 0 0 0 1 0"/>
		</filter>
		<filter id="this-is-for-everyone--mobile-c" width="137.5%" height="137.5%" x="-18.8%" y="-13.8%" filterUnits="objectBoundingBox">
			<feMorphology in="SourceAlpha" operator="dilate" radius=".5" result="shadowSpreadOuter1"/>
			<feOffset dy="2" in="shadowSpreadOuter1" result="shadowOffsetOuter1"/>
			<feGaussianBlur in="shadowOffsetOuter1" result="shadowBlurOuter1" stdDeviation="2"/>
			<feComposite in="shadowBlurOuter1" in2="SourceAlpha" operator="out" result="shadowBlurOuter1"/>
			<feColorMatrix in="shadowBlurOuter1" values="0 0 0 0 0.917647059 0 0 0 0 0.925490196 0 0 0 0 0.941176471 0 0 0 1 0"/>
		</filter>
		<filter id="this-is-for-everyone--mobile-e" width="137.5%" height="137.5%" x="-18.8%" y="-13.8%" filterUnits="objectBoundingBox">
			<feMorphology in="SourceAlpha" operator="dilate" radius=".5" result="shadowSpreadOuter1"/>
			<feOffset dy="2" in="shadowSpreadOuter1" result="shadowOffsetOuter1"/>
			<feGaussianBlur in="shadowOffsetOuter1" result="shadowBlurOuter1" stdDeviation="2"/>
			<feComposite in="shadowBlurOuter1" in2="SourceAlpha" operator="out" result="shadowBlurOuter1"/>
			<feColorMatrix in="shadowBlurOuter1" values="0 0 0 0 0.917647059 0 0 0 0 0.925490196 0 0 0 0 0.941176471 0 0 0 1 0"/>
		</filter>
		<filter id="this-is-for-everyone--mobile-g" width="137.5%" height="137.5%" x="-18.8%" y="-13.8%" filterUnits="objectBoundingBox">
			<feMorphology in="SourceAlpha" operator="dilate" radius=".5" result="shadowSpreadOuter1"/>
			<feOffset dy="2" in="shadowSpreadOuter1" result="shadowOffsetOuter1"/>
			<feGaussianBlur in="shadowOffsetOuter1" result="shadowBlurOuter1" stdDeviation="2"/>
			<feComposite in="shadowBlurOuter1" in2="SourceAlpha" operator="out" result="shadowBlurOuter1"/>
			<feColorMatrix in="shadowBlurOuter1" values="0 0 0 0 0.917647059 0 0 0 0 0.925490196 0 0 0 0 0.941176471 0 0 0 1 0"/>
		</filter>
		<filter id="this-is-for-everyone--mobile-i" width="127.5%" height="127.5%" x="-13.8%" y="-8.8%" filterUnits="objectBoundingBox">
			<feOffset dy="2" in="SourceAlpha" result="shadowOffsetOuter1"/>
			<feGaussianBlur in="shadowOffsetOuter1" result="shadowBlurOuter1" stdDeviation="1.5"/>
			<feComposite in="shadowBlurOuter1" in2="SourceAlpha" operator="out" result="shadowBlurOuter1"/>
			<feColorMatrix in="shadowBlurOuter1" values="0 0 0 0 0 0 0 0 0 0 0 0 0 0 0 0 0 0 0.05 0"/>
		</filter>
		<filter id="this-is-for-everyone--mobile-k" width="137.5%" height="137.5%" x="-18.8%" y="-13.8%" filterUnits="objectBoundingBox">
			<feMorphology in="SourceAlpha" operator="dilate" radius=".5" result="shadowSpreadOuter1"/>
			<feOffset dy="2" in="shadowSpreadOuter1" result="shadowOffsetOuter1"/>
			<feGaussianBlur in="shadowOffsetOuter1" result="shadowBlurOuter1" stdDeviation="2"/>
			<feComposite in="shadowBlurOuter1" in2="SourceAlpha" operator="out" result="shadowBlurOuter1"/>
			<feColorMatrix in="shadowBlurOuter1" values="0 0 0 0 0.917647059 0 0 0 0 0.925490196 0 0 0 0 0.941176471 0 0 0 1 0"/>
		</filter>
		<filter id="this-is-for-everyone--mobile-m" width="137.5%" height="137.5%" x="-18.8%" y="-13.8%" filterUnits="objectBoundingBox">
			<feMorphology in="SourceAlpha" operator="dilate" radius=".5" result="shadowSpreadOuter1"/>
			<feOffset dy="2" in="shadowSpreadOuter1" result="shadowOffsetOuter1"/>
			<feGaussianBlur in="shadowOffsetOuter1" result="shadowBlurOuter1" stdDeviation="2"/>
			<feComposite in="shadowBlurOuter1" in2="SourceAlpha" operator="out" result="shadowBlurOuter1"/>
			<feColorMatrix in="shadowBlurOuter1" values="0 0 0 0 0.917647059 0 0 0 0 0.925490196 0 0 0 0 0.941176471 0 0 0 1 0"/>
		</filter>
		<rect id="this-is-for-everyone--mobile-b" width="40" height="40" x="72" y="86" rx="1.333"/>
		<rect id="this-is-for-everyone--mobile-d" width="40" height="40" x="292" y="58" rx="1.333"/>
		<rect id="this-is-for-everyone--mobile-f" width="40" height="40" x="236" y="86" rx="1.333"/>
		<rect id="this-is-for-everyone--mobile-h" width="40" height="40" x="236" y="30" rx="1.333"/>
		<rect id="this-is-for-everyone--mobile-j" width="40" height="40" x="16" y="56" rx="1.333"/>
		<rect id="this-is-for-everyone--mobile-l" width="40" height="40" x="16" y="56" rx="1.333"/>
		<rect id="this-is-for-everyone--mobile-n" width="40" height="40" x="72" y="30" rx="1.333"/>
	</defs>
	<g fill="none" fill-rule="evenodd">
		<path fill="#F8F9FA" d="M0 0h348v156H0z"/>
		<path fill="#202122" fill-rule="nonzero" d="M93 105v-5h-2v5h-5v2h5v5h2v-5h5v-2z"/>
		<circle cx="174" cy="78" r="46" fill="#EAF3FF" fill-rule="nonzero"/>
		<circle cx="174" cy="78" r="28" fill="#36C" fill-rule="nonzero"/>
		<use xlink:href="#this-is-for-everyone--mobile-b" fill="#000" filter="url(#this-is-for-everyone--mobile-a)"/>
		<use xlink:href="#this-is-for-everyone--mobile-b" fill="#FFF" stroke="#EAECF0"/>
		<use xlink:href="#this-is-for-everyone--mobile-d" fill="#000" filter="url(#this-is-for-everyone--mobile-c)"/>
		<use xlink:href="#this-is-for-everyone--mobile-d" fill="#FFF" stroke="#EAECF0"/>
		<path fill="#202122" fill-rule="nonzero" d="M93 105h-7v2h12v-2z"/>
		<use xlink:href="#this-is-for-everyone--mobile-f" fill="#000" filter="url(#this-is-for-everyone--mobile-e)"/>
		<use xlink:href="#this-is-for-everyone--mobile-f" fill="#FFF" stroke="#EAECF0"/>
		<path fill="#202122" fill-rule="nonzero" d="M261 112h-1.313a.537.537 0 0 1-.365-.12.759.759 0 0 1-.209-.293l-.87-2.43h-4.495l-.87 2.43a.723.723 0 0 1-.2.284.521.521 0 0 1-.365.128H251L255.13 101h1.74l4.13 11zm-3.209-4.125-1.443-4.015c-.137-.39-.253-.788-.348-1.192-.052.239-.11.459-.174.66a24.84 24.84 0 0 1-.174.532l-1.435 4.015h3.574z"/>
		<use xlink:href="#this-is-for-everyone--mobile-h" fill="#000" filter="url(#this-is-for-everyone--mobile-g)"/>
		<use xlink:href="#this-is-for-everyone--mobile-h" fill="#FFF" stroke="#EAECF0"/>
		<path fill="#202122" fill-rule="nonzero" d="M264 57.999h-1.96a.821.821 0 0 1-.548-.17 1.108 1.108 0 0 1-.314-.43l-1.303-3.53h-6.76l-1.303 3.53c-.067.16-.171.3-.304.41a.803.803 0 0 1-.548.19H249L255.202 42h2.577L264 57.999zm-4.82-6-2.156-5.84a16.413 16.413 0 0 1-.529-1.73c-.078.347-.166.68-.264 1a9.73 9.73 0 0 1-.265.77l-2.155 5.8h5.369z"/>
		<use xlink:href="#this-is-for-everyone--mobile-j" fill="#000" filter="url(#this-is-for-everyone--mobile-i)"/>
		<rect width="39.333" height="39.333" x="16.333" y="56.333" fill="#FFF" stroke="#EAECF0" stroke-linejoin="square" stroke-width=".667" rx="1.333"/>
		<use xlink:href="#this-is-for-everyone--mobile-l" fill="#000" filter="url(#this-is-for-everyone--mobile-k)"/>
		<use xlink:href="#this-is-for-everyone--mobile-l" fill="#FFF" stroke="#EAECF0"/>
		<path fill="#202122" fill-rule="nonzero" d="M37.672 69.958h2.74a.661.661 0 0 1 0 .623c-.958.153-1.303.871-1.734 1.753l-1.341 2.634 2.25 4.991h.068l3.372-7.76c.422-1.024.383-1.523-.757-1.628a.651.651 0 0 1 0-.623h3.305a.651.651 0 0 1 0 .623c-1.159.153-1.36.872-1.734 1.753l-4.186 9.657c-.125.287-.23.43-.422.43-.191 0-.316-.153-.402-.43l-2.376-5.49-2.605 5.49c-.106.287-.23.43-.422.43-.192 0-.297-.153-.402-.43l-3.832-9.666c-.546-1.342-.575-1.629-1.58-1.725a.651.651 0 0 1-.02-.632h3.746a.651.651 0 0 1 0 .623c-1.112.124-1.16.43-.71 1.513l3.267 7.846h.048l1.964-4.234-1.456-3.401c-.584-1.341-.747-1.61-1.475-1.715a.661.661 0 0 1 0-.622h3.18a.651.651 0 0 1 0 .622c-.709.115-.67.431-.182 1.514l.834 1.916.076.086.958-1.916c.546-1.092.613-1.514-.143-1.628a.661.661 0 0 1-.03-.604z"/>
		<use xlink:href="#this-is-for-everyone--mobile-n" fill="#000" filter="url(#this-is-for-everyone--mobile-m)"/>
		<use xlink:href="#this-is-for-everyone--mobile-n" fill="#FFF" stroke="#EAECF0"/>
		<path fill="#202122" fill-rule="nonzero" d="M93 49v-5h-2v5h-5v2h5v5h2v-5h5v-2z"/>
		<path fill="#FFF" fill-rule="nonzero" d="M173.852 62c1.805 0 3.267 1.407 3.267 3.143 0 1.736-1.462 3.143-3.267 3.143-1.806 0-3.268-1.407-3.268-3.143 0-1.736 1.462-3.143 3.268-3.143zM189 73.2h-10V94h-3.333v-9.6h-3.334V94H169V73.2h-10V70h30v3.2z"/>
		<path d="M302 68h20v20h-20z"/>
		<path fill="#202122" fill-rule="nonzero" d="M322 85.5h-1.44a.61.61 0 0 1-.4-.12.81.81 0 0 1-.23-.31L319 82.5h-5l-1 2.54a.77.77 0 0 1-.22.3.59.59 0 0 1-.4.14H311l4.55-11.47h1.89L322 85.5zm-3.53-4.31L316.89 77a11.62 11.62 0 0 1-.39-1.24c-.06.247-.123.477-.19.69l-.19.56-1.58 4.19 3.93-.01zm-6.3-1.58a13.43 13.43 0 0 1-2.91-1.41 11.46 11.46 0 0 0 2.81-5.37H314V71.5h-4.69a4 4 0 0 0-.2-.56c-.24-.65-.51-1.44-.51-1.44l-1.47.5s.4.89.6 1.5H302v1.33h2.15A11.23 11.23 0 0 0 307 78.2a17.19 17.19 0 0 1-5 2.1c.373.547.663 1.007.87 1.38a23.28 23.28 0 0 0 5.22-2.51 15.64 15.64 0 0 0 3.56 1.77l.52-1.33zm-6.54-6.78h4.91a8.11 8.11 0 0 1-2.45 4.45 9.11 9.11 0 0 1-2.46-4.45z"/>
	</g>
</svg>
