<?xml version="1.0" encoding="UTF-8" standalone="no"?>
<svg width="817px" height="424px" viewBox="0 0 817 424" version="1.1" xmlns="http://www.w3.org/2000/svg" xmlns:xlink="http://www.w3.org/1999/xlink" style="background: #EAECF0;">
    <defs>
        <rect id="path-1" x="0" y="0" width="359" height="293" rx="12"></rect>
        <linearGradient x1="50%" y1="96.7609159%" x2="50%" y2="15.8241439%" id="linearGradient-3">
            <stop stop-color="#009DF2" stop-opacity="0.0873245018" offset="0%"></stop>
            <stop stop-color="#009CEE" stop-opacity="0.37035779" offset="100%"></stop>
        </linearGradient>
        <filter x="-4.3%" y="-12.5%" width="108.5%" height="124.9%" filterUnits="objectBoundingBox" id="filter-4">
            <feGaussianBlur stdDeviation="10" in="SourceGraphic"></feGaussianBlur>
        </filter>
        <path d="M0,1.09090909 L0,0 L1.09090909,0 L6.54545455,5.45454545 C6.61679345,5.77756145 6.59901273,6.15936 6.54545455,6.54545455 C6.21355527,6.49121891 6.05639018,6.54545455 5.45454545,6.54545455 C5.724852,6.54545455 0,1.09090909 0,1.09090909 L0,1.09090909 Z" id="path-5"></path>
        <path d="M0,6.63636364 L0,5.54545455 L5.45454545,0.0909090909 C5.666964,0.0398632727 6.07518982,0.0253476364 6.54545455,0.0909090909 C6.59996945,0.476942545 6.61547236,0.859184 6.54545455,1.18181818 L1.09090909,6.63636364 L0,6.63636364 L0,6.63636364 Z" id="path-7"></path>
        <path d="M0.0909090909,6.54545455 C0.0364323636,6.15927709 0.0209403636,5.77739782 0.0909090909,5.45454545 L5.54545455,0 L6.63636364,0 L6.63636364,1.09090909 L1.18181818,6.54545455 C0.579204364,6.54545455 0.421995636,6.49281818 0.0909090909,6.54545455 L0.0909090909,6.54545455 Z" id="path-9"></path>
        <path d="M0.0909090909,1.18181818 C0.01952,0.860603273 0.0373138182,0.478455636 0.0909090909,0.0909090909 C0.561948364,0.0248218182 0.970061818,0.0393341818 1.18181818,0.0909090909 L6.63636364,5.54545455 L6.63636364,6.63636364 L5.54545455,6.63636364 L0.0909090909,1.18181818 L0.0909090909,1.18181818 Z" id="path-11"></path>
        <rect id="path-13" x="0" y="0" width="25" height="25" rx="6"></rect>
        <linearGradient x1="0%" y1="100%" x2="100%" y2="0%" id="linearGradient-14">
            <stop stop-color="#74E5FE" offset="0%"></stop>
            <stop stop-color="#00BD44" offset="100%"></stop>
        </linearGradient>
        <rect id="path-15" x="0" y="0" width="359" height="293" rx="12"></rect>
        <rect id="path-17" x="0" y="0" width="25" height="25" rx="6"></rect>
        <filter x="-4.3%" y="-12.5%" width="108.5%" height="124.9%" filterUnits="objectBoundingBox" id="filter-18">
            <feGaussianBlur stdDeviation="10" in="SourceGraphic"></feGaussianBlur>
        </filter>
        <path d="M0,1.09090909 L0,0 L1.09090909,0 L6.54545455,5.45454545 C6.61679345,5.77756145 6.59901273,6.15936 6.54545455,6.54545455 C6.21355527,6.49121891 6.05639018,6.54545455 5.45454545,6.54545455 C5.724852,6.54545455 0,1.09090909 0,1.09090909 L0,1.09090909 Z" id="path-19"></path>
        <path d="M0,6.63636364 L0,5.54545455 L5.45454545,0.0909090909 C5.666964,0.0398632727 6.07518982,0.0253476364 6.54545455,0.0909090909 C6.59996945,0.476942545 6.61547236,0.859184 6.54545455,1.18181818 L1.09090909,6.63636364 L0,6.63636364 L0,6.63636364 Z" id="path-21"></path>
        <path d="M0.0909090909,6.54545455 C0.0364323636,6.15927709 0.0209403636,5.77739782 0.0909090909,5.45454545 L5.54545455,0 L6.63636364,0 L6.63636364,1.09090909 L1.18181818,6.54545455 C0.579204364,6.54545455 0.421995636,6.49281818 0.0909090909,6.54545455 L0.0909090909,6.54545455 Z" id="path-23"></path>
        <path d="M0.0909090909,1.18181818 C0.01952,0.860603273 0.0373138182,0.478455636 0.0909090909,0.0909090909 C0.561948364,0.0248218182 0.970061818,0.0393341818 1.18181818,0.0909090909 L6.63636364,5.54545455 L6.63636364,6.63636364 L5.54545455,6.63636364 L0.0909090909,1.18181818 L0.0909090909,1.18181818 Z" id="path-25"></path>
        <linearGradient x1="100%" y1="3.74939946e-31%" x2="1.11022302e-14%" y2="100%" id="linearGradient-27">
            <stop stop-color="#74E5FE" offset="0%"></stop>
            <stop stop-color="#00BD44" offset="100%"></stop>
        </linearGradient>
    </defs>
    <g id="Page-1" stroke="none" stroke-width="1" fill="none" fill-rule="evenodd">
        <g id="trustworthy-yet-joyful">
            <g id="Group-2" transform="translate(38.000000, 66.000000)">
                <g id="Group-7">
                    <g id="Bitmap">
                        <mask id="mask-2" fill="white">
                            <use xlink:href="#path-1"></use>
                        </mask>
                        <use id="Mask" fill="#FFFFFF" xlink:href="#path-1"></use>
                        <path d="M-60.1646091,351.847254 C-60.1646091,351.847254 -33.4097245,343.535441 -1.82905382,334.202554 C29.7516169,324.869666 33.2760706,306.30956 53.7286178,301.527183 C74.1811651,296.744806 75.5881626,319.141868 112.758644,307.40875 C149.929125,295.675632 139.123867,270.00062 163.455019,266.89129 C187.786172,263.78196 202.450813,292.306366 225.262929,293.031587 C248.075045,293.756808 314.461192,185.563201 330.822505,176.05376 C347.183818,166.544318 375.243978,211.918292 398.186182,210.689653 C421.128386,209.461013 442.104127,147.089309 478.050335,149.259956 C513.996543,151.430603 514.183858,161.515523 546.802954,161.023089 C579.42205,160.530655 595.219336,149.997396 607.916393,147.299433 C620.613449,144.601471 632.222874,161.023089 632.222874,161.023089 L645.417821,187.816893 L645.417821,387.858491 L-60.1646091,387.858488 L-60.1646091,351.847254 Z" id="Path-34" fill="url(#linearGradient-3)" opacity="0.1" filter="url(#filter-4)" mask="url(#mask-2)"></path>
                    </g>
                    <path d="M0.5,51.25 L358.5,51.25" id="Line" stroke="#CCCCCC" stroke-width="0.5" opacity="0.8" stroke-linecap="square"></path>
                    <g id="Page-1" opacity="0.6" transform="translate(331.000000, 20.000000)">
                        <g id="Group-3">
                            <mask id="mask-6" fill="white">
                                <use xlink:href="#path-5"></use>
                            </mask>
                            <g id="Clip-2"></g>
                            <polygon id="Fill-1" fill="#000000" mask="url(#mask-6)" points="-5.45454545 -5.45454545 12.0470727 -5.45454545 12.0470727 12 -5.45454545 12"></polygon>
                        </g>
                        <g id="Group-6" transform="translate(0.000000, 5.363636)">
                            <mask id="mask-8" fill="white">
                                <use xlink:href="#path-7"></use>
                            </mask>
                            <g id="Clip-5"></g>
                            <polygon id="Fill-4" fill="#000000" mask="url(#mask-8)" points="-5.45454545 -5.40753455 12.0468764 -5.40753455 12.0468764 12.0909091 -5.45454545 12.0909091"></polygon>
                        </g>
                        <g id="Group-9" transform="translate(5.363636, 0.000000)">
                            <mask id="mask-10" fill="white">
                                <use xlink:href="#path-9"></use>
                            </mask>
                            <g id="Clip-8"></g>
                            <polygon id="Fill-7" fill="#000000" mask="url(#mask-10)" points="-5.41048296 -5.45454545 12.0909091 -5.45454545 12.0909091 12 -5.41048296 12"></polygon>
                        </g>
                        <g id="Group-12" transform="translate(5.363636, 5.363636)">
                            <mask id="mask-12" fill="white">
                                <use xlink:href="#path-11"></use>
                            </mask>
                            <g id="Clip-11"></g>
                            <polygon id="Fill-10" fill="#000000" mask="url(#mask-12)" points="-5.41074083 -5.40792727 12.0909091 -5.40792727 12.0909091 12.0909091 -5.41074083 12.0909091"></polygon>
                        </g>
                    </g>
                    <text id="WIKIPEDIA" opacity="0.5" font-family=".AppleSystemUIFont" font-size="13" font-weight="normal" fill="#000000">
                        <tspan x="51" y="33">WIKIPEDIA</tspan>
                    </text>
                    <g id="Group" transform="translate(17.000000, 13.000000)">
                        <g id="Rectangle-6">
                            <use fill="#FFFFFF" fill-rule="evenodd" xlink:href="#path-13"></use>
                            <rect stroke="#EAECF0" stroke-width="1" x="0.5" y="0.5" width="24" height="24" rx="6"></rect>
                        </g>
                        <path d="M19.3116103,9.25115523 C19.3116103,9.29968166 19.296446,9.34416355 19.266117,9.38460224 C19.235788,9.42504093 19.2024266,9.44525997 19.1660318,9.44525997 C18.8667855,9.47356705 18.6221351,9.5696075 18.4320732,9.73338419 C18.2420114,9.89716088 18.0458867,10.2095451 17.8436932,10.6705461 L14.750149,17.6401194 C14.7299296,17.7048213 14.6733163,17.7371718 14.5803073,17.7371718 C14.5075177,17.7371718 14.4509044,17.7048213 14.4104657,17.6401194 L12.6756546,14.0127871 L10.6800152,17.6401194 C10.6395765,17.7048213 10.5829632,17.7371718 10.5101736,17.7371718 C10.4212084,17.7371718 10.3625732,17.7048213 10.3342661,17.6401194 L7.29531382,10.6705461 C7.10525198,10.2378522 6.90508347,9.93557749 6.69480229,9.76371305 C6.4845211,9.59184862 6.191345,9.48569866 5.81526519,9.44525997 C5.78291424,9.44525997 5.75258568,9.42807378 5.72427859,9.3937009 C5.69597151,9.35932801 5.68181818,9.31990088 5.68181818,9.27541832 C5.68181818,9.16218999 5.71416865,9.10557667 5.77887055,9.10557667 C6.04980977,9.10557667 6.33287635,9.1177081 6.62807878,9.14197131 C6.90306187,9.16623453 7.1618656,9.17836595 7.40449774,9.17836595 C7.65117375,9.17836595 7.94232794,9.16623453 8.27796907,9.14197131 C8.62978566,9.1177081 8.9411589,9.10557667 9.21209812,9.10557667 C9.27680002,9.10557667 9.30915049,9.16218999 9.30915049,9.27541832 C9.30915049,9.38864665 9.28893145,9.44525997 9.24849276,9.44525997 C8.97755354,9.46547931 8.76424265,9.53422405 8.6085537,9.65149625 C8.45286474,9.76876845 8.37502143,9.92243317 8.37502143,10.112495 C8.37502143,10.2095479 8.4073719,10.3308621 8.4720738,10.4764414 L10.9833039,16.1479392 L12.4087605,13.454736 L11.0803562,10.6705461 C10.841768,10.1731503 10.6456433,9.85267844 10.4919762,9.7091211 C10.3383092,9.56556375 10.1057902,9.47761092 9.79441234,9.44525997 C9.76610526,9.44525997 9.73880955,9.42807378 9.7125244,9.3937009 C9.68623925,9.35932801 9.67309688,9.31990088 9.67309688,9.27541832 C9.67309688,9.16218999 9.70140353,9.10557667 9.7580177,9.10557667 C10.0289569,9.10557667 10.2776511,9.1177081 10.5041078,9.14197131 C10.7224767,9.16623453 10.9549957,9.17836595 11.2016717,9.17836595 C11.4443038,9.17836595 11.7010857,9.16623453 11.9720249,9.14197131 C12.2510518,9.1177081 12.5260308,9.10557667 12.79697,9.10557667 C12.8616719,9.10557667 12.8940224,9.16218999 12.8940224,9.27541832 C12.8940224,9.38864665 12.8738033,9.44525997 12.8333647,9.44525997 C12.2914862,9.48165479 12.0205511,9.6353195 12.0205511,9.90625872 C12.0205511,10.0275748 12.0832301,10.2156119 12.20859,10.4703756 L13.0881271,12.2537129 L13.9615985,10.6220199 C14.0829145,10.3915194 14.1435716,10.1974166 14.1435716,10.0397057 C14.1435716,9.66766979 13.8726365,9.46952318 13.3307581,9.44525997 C13.2822316,9.44525997 13.2579688,9.38864665 13.2579688,9.27541832 C13.2579688,9.23497963 13.2701002,9.19656345 13.2943634,9.16016863 C13.3186266,9.12377381 13.3428895,9.10557667 13.3671527,9.10557667 C13.5612584,9.10557667 13.7998431,9.1177081 14.0829139,9.14197131 C14.3538531,9.16623453 14.5762626,9.17836595 14.750149,9.17836595 C14.8755089,9.17836595 15.0595022,9.16825643 15.3021343,9.14803709 C15.6094683,9.11973 15.8662502,9.10557667 16.0724875,9.10557667 C16.1210139,9.10557667 16.1452768,9.15410237 16.1452768,9.25115523 C16.1452768,9.38055903 16.1007949,9.44525997 16.0118298,9.44525997 C15.696408,9.47761092 15.442659,9.5645528 15.2505752,9.70608821 C15.0584915,9.84762362 14.8188958,10.1691064 14.5317811,10.6705461 L13.3671527,12.8238956 L14.9442537,16.0387553 L17.2735106,10.6220199 C17.3543879,10.4238704 17.394826,10.241899 17.394826,10.0761004 C17.394826,9.67980121 17.1238909,9.46952318 16.5820124,9.44525997 C16.533486,9.44525997 16.5092232,9.38864665 16.5092232,9.27541832 C16.5092232,9.16218999 16.5456174,9.10557667 16.6184071,9.10557667 C16.8165566,9.10557667 17.0510975,9.1177081 17.3220367,9.14197131 C17.5727566,9.16623453 17.7830347,9.17836595 17.9528771,9.17836595 C18.1308074,9.17836595 18.3370416,9.16623453 18.571586,9.14197131 C18.8142181,9.1177081 19.0325838,9.10557667 19.2266895,9.10557667 C19.2833037,9.10557667 19.3116103,9.15410237 19.3116103,9.25115523 L19.3116103,9.25115523 Z" id="W" fill="#000000"></path>
                    </g>
                    <path d="M21.5,200.5 L334.501587,200.5" id="Line" stroke="#EEEEEE" stroke-linecap="square"></path>
                    <text id="African-American-abo" font-family=".AppleSystemUIFont" font-size="14" font-weight="normal" fill="#9AA0A7">
                        <tspan x="24" y="181">African-American abolitionist and humanitarian</tspan>
                    </text>
                    <text id="Harriet-Tubman" font-family=".AppleSystemUIFont" font-size="15" font-weight="normal" letter-spacing="-0.0882352963" fill="#000000">
                        <tspan x="24" y="159">Harriet Tubman</tspan>
                    </text>
                    <path d="M23.5,132 L64.5121918,132" id="Line" stroke="#9AA0A7" stroke-linecap="square"></path>
                    <text id="Harriet-Tubman-to-re" font-family="HoeflerText-Regular, Hoefler Text" font-size="18" font-weight="normal" line-spacing="27" fill="#000000">
                        <tspan x="22" y="85.5">Harriet Tubman to replace President </tspan>
                        <tspan x="22" y="112.5">Andrew Jackson on the $20 bill</tspan>
                    </text>
                    <g id="Group-4" transform="translate(23.000000, 221.000000)" font-weight="normal">
                        <text id="67k-readers" font-family=".SFNSDisplay-Regular, .SF NS Display" font-size="30" fill="#00BD44">
                            <tspan x="1" y="48">67k readers</tspan>
                        </text>
                        <text id="Trending-topic" font-family=".AppleSystemUIFont" font-size="14" fill="#9AA0A7">
                            <tspan x="0" y="14">Trending topic</tspan>
                        </text>
                    </g>
                    <g id="graph" transform="translate(203.000000, 215.000000)">
                        <g id="Group-5" stroke="#EAEFF6" stroke-width="0.5" stroke-linecap="square">
                            <path d="M24.25,0.5 L24.25,65.5" id="Line"></path>
                            <path d="M65.25,1 L65.25,66" id="Line-Copy-4"></path>
                            <path d="M106.25,0.5 L106.25,65.5" id="Line-Copy-5"></path>
                            <path d="M0,7.25 L130,7.25" id="Line"></path>
                            <path d="M0,25.25 L130,25.25" id="Line-Copy-6"></path>
                            <path d="M0,41.25 L130,41.25" id="Line-Copy-7"></path>
                            <path d="M0,58.25 L130,58.25" id="Line-Copy-8"></path>
                        </g>
                        <path d="M9,47.6781693 C16.6700327,47.4807846 26.9252452,38.9069379 36.1463858,38.6432256 C45.2644388,38.9069379 50.2358155,47.4807846 63.7642572,47.4400291 C88.2697614,47.4807846 104.896611,13 119,13" id="path2" stroke="url(#linearGradient-14)" stroke-width="2" stroke-linecap="round"></path>
                    </g>
                </g>
                <g id="Group-7" transform="translate(383.000000, 0.000000)">
                    <g id="Bitmap">
                        <mask id="mask-16" fill="white">
                            <use xlink:href="#path-15"></use>
                        </mask>
                        <use id="Mask" fill="#FFFFFF" xlink:href="#path-15"></use>
                        <text id="WIKIPEDIA" opacity="0.5" mask="url(#mask-16)" font-family=".AppleSystemUIFont" font-size="13" font-weight="normal" fill="#000000">
                            <tspan x="52" y="35">WIKIPEDIA</tspan>
                        </text>
                        <g id="Group" mask="url(#mask-16)">
                            <g transform="translate(18.000000, 15.000000)">
                                <g id="Rectangle-6" fill="none">
                                    <use fill="#FFFFFF" fill-rule="evenodd" xlink:href="#path-17"></use>
                                    <rect stroke="#EAECF0" stroke-width="1" x="0.5" y="0.5" width="24" height="24" rx="6"></rect>
                                </g>
                                <path d="M19.3116103,9.25115523 C19.3116103,9.29968166 19.296446,9.34416355 19.266117,9.38460224 C19.235788,9.42504093 19.2024266,9.44525997 19.1660318,9.44525997 C18.8667855,9.47356705 18.6221351,9.5696075 18.4320732,9.73338419 C18.2420114,9.89716088 18.0458867,10.2095451 17.8436932,10.6705461 L14.750149,17.6401194 C14.7299296,17.7048213 14.6733163,17.7371718 14.5803073,17.7371718 C14.5075177,17.7371718 14.4509044,17.7048213 14.4104657,17.6401194 L12.6756546,14.0127871 L10.6800152,17.6401194 C10.6395765,17.7048213 10.5829632,17.7371718 10.5101736,17.7371718 C10.4212084,17.7371718 10.3625732,17.7048213 10.3342661,17.6401194 L7.29531382,10.6705461 C7.10525198,10.2378522 6.90508347,9.93557749 6.69480229,9.76371305 C6.4845211,9.59184862 6.191345,9.48569866 5.81526519,9.44525997 C5.78291424,9.44525997 5.75258568,9.42807378 5.72427859,9.3937009 C5.69597151,9.35932801 5.68181818,9.31990088 5.68181818,9.27541832 C5.68181818,9.16218999 5.71416865,9.10557667 5.77887055,9.10557667 C6.04980977,9.10557667 6.33287635,9.1177081 6.62807878,9.14197131 C6.90306187,9.16623453 7.1618656,9.17836595 7.40449774,9.17836595 C7.65117375,9.17836595 7.94232794,9.16623453 8.27796907,9.14197131 C8.62978566,9.1177081 8.9411589,9.10557667 9.21209812,9.10557667 C9.27680002,9.10557667 9.30915049,9.16218999 9.30915049,9.27541832 C9.30915049,9.38864665 9.28893145,9.44525997 9.24849276,9.44525997 C8.97755354,9.46547931 8.76424265,9.53422405 8.6085537,9.65149625 C8.45286474,9.76876845 8.37502143,9.92243317 8.37502143,10.112495 C8.37502143,10.2095479 8.4073719,10.3308621 8.4720738,10.4764414 L10.9833039,16.1479392 L12.4087605,13.454736 L11.0803562,10.6705461 C10.841768,10.1731503 10.6456433,9.85267844 10.4919762,9.7091211 C10.3383092,9.56556375 10.1057902,9.47761092 9.79441234,9.44525997 C9.76610526,9.44525997 9.73880955,9.42807378 9.7125244,9.3937009 C9.68623925,9.35932801 9.67309688,9.31990088 9.67309688,9.27541832 C9.67309688,9.16218999 9.70140353,9.10557667 9.7580177,9.10557667 C10.0289569,9.10557667 10.2776511,9.1177081 10.5041078,9.14197131 C10.7224767,9.16623453 10.9549957,9.17836595 11.2016717,9.17836595 C11.4443038,9.17836595 11.7010857,9.16623453 11.9720249,9.14197131 C12.2510518,9.1177081 12.5260308,9.10557667 12.79697,9.10557667 C12.8616719,9.10557667 12.8940224,9.16218999 12.8940224,9.27541832 C12.8940224,9.38864665 12.8738033,9.44525997 12.8333647,9.44525997 C12.2914862,9.48165479 12.0205511,9.6353195 12.0205511,9.90625872 C12.0205511,10.0275748 12.0832301,10.2156119 12.20859,10.4703756 L13.0881271,12.2537129 L13.9615985,10.6220199 C14.0829145,10.3915194 14.1435716,10.1974166 14.1435716,10.0397057 C14.1435716,9.66766979 13.8726365,9.46952318 13.3307581,9.44525997 C13.2822316,9.44525997 13.2579688,9.38864665 13.2579688,9.27541832 C13.2579688,9.23497963 13.2701002,9.19656345 13.2943634,9.16016863 C13.3186266,9.12377381 13.3428895,9.10557667 13.3671527,9.10557667 C13.5612584,9.10557667 13.7998431,9.1177081 14.0829139,9.14197131 C14.3538531,9.16623453 14.5762626,9.17836595 14.750149,9.17836595 C14.8755089,9.17836595 15.0595022,9.16825643 15.3021343,9.14803709 C15.6094683,9.11973 15.8662502,9.10557667 16.0724875,9.10557667 C16.1210139,9.10557667 16.1452768,9.15410237 16.1452768,9.25115523 C16.1452768,9.38055903 16.1007949,9.44525997 16.0118298,9.44525997 C15.696408,9.47761092 15.442659,9.5645528 15.2505752,9.70608821 C15.0584915,9.84762362 14.8188958,10.1691064 14.5317811,10.6705461 L13.3671527,12.8238956 L14.9442537,16.0387553 L17.2735106,10.6220199 C17.3543879,10.4238704 17.394826,10.241899 17.394826,10.0761004 C17.394826,9.67980121 17.1238909,9.46952318 16.5820124,9.44525997 C16.533486,9.44525997 16.5092232,9.38864665 16.5092232,9.27541832 C16.5092232,9.16218999 16.5456174,9.10557667 16.6184071,9.10557667 C16.8165566,9.10557667 17.0510975,9.1177081 17.3220367,9.14197131 C17.5727566,9.16623453 17.7830347,9.17836595 17.9528771,9.17836595 C18.1308074,9.17836595 18.3370416,9.16623453 18.571586,9.14197131 C18.8142181,9.1177081 19.0325838,9.10557667 19.2266895,9.10557667 C19.2833037,9.10557667 19.3116103,9.15410237 19.3116103,9.25115523 L19.3116103,9.25115523 Z" id="W" fill="#000000" fill-rule="evenodd"></path>
                            </g>
                        </g>
                        <path d="M-60.1646091,351.847254 C-60.1646091,351.847254 -33.4097245,343.535441 -1.82905382,334.202554 C29.7516169,324.869666 33.2760706,306.30956 53.7286178,301.527183 C74.1811651,296.744806 75.5881626,319.141868 112.758644,307.40875 C149.929125,295.675632 139.123867,270.00062 163.455019,266.89129 C187.786172,263.78196 202.450813,292.306366 225.262929,293.031587 C248.075045,293.756808 314.461192,185.563201 330.822505,176.05376 C347.183818,166.544318 375.243978,211.918292 398.186182,210.689653 C421.128386,209.461013 442.104127,147.089309 478.050335,149.259956 C513.996543,151.430603 514.183858,161.515523 546.802954,161.023089 C579.42205,160.530655 595.219336,149.997396 607.916393,147.299433 C620.613449,144.601471 632.222874,161.023089 632.222874,161.023089 L645.417821,187.816893 L645.417821,387.858491 L-60.1646091,387.858488 L-60.1646091,351.847254 Z" id="Path-34" fill="url(#linearGradient-3)" opacity="0.1" filter="url(#filter-18)" mask="url(#mask-16)"></path>
                    </g>
                    <path d="M0.5,51.25 L358.5,51.25" id="Line" stroke="#CCCCCC" stroke-width="0.5" opacity="0.8" stroke-linecap="square"></path>
                    <g id="Page-1" opacity="0.6" transform="translate(331.000000, 20.000000)">
                        <g id="Group-3">
                            <mask id="mask-20" fill="white">
                                <use xlink:href="#path-19"></use>
                            </mask>
                            <g id="Clip-2"></g>
                            <polygon id="Fill-1" fill="#000000" mask="url(#mask-20)" points="-5.45454545 -5.45454545 12.0470727 -5.45454545 12.0470727 12 -5.45454545 12"></polygon>
                        </g>
                        <g id="Group-6" transform="translate(0.000000, 5.363636)">
                            <mask id="mask-22" fill="white">
                                <use xlink:href="#path-21"></use>
                            </mask>
                            <g id="Clip-5"></g>
                            <polygon id="Fill-4" fill="#000000" mask="url(#mask-22)" points="-5.45454545 -5.40753455 12.0468764 -5.40753455 12.0468764 12.0909091 -5.45454545 12.0909091"></polygon>
                        </g>
                        <g id="Group-9" transform="translate(5.363636, 0.000000)">
                            <mask id="mask-24" fill="white">
                                <use xlink:href="#path-23"></use>
                            </mask>
                            <g id="Clip-8"></g>
                            <polygon id="Fill-7" fill="#000000" mask="url(#mask-24)" points="-5.41048296 -5.45454545 12.0909091 -5.45454545 12.0909091 12 -5.41048296 12"></polygon>
                        </g>
                        <g id="Group-12" transform="translate(5.363636, 5.363636)">
                            <mask id="mask-26" fill="white">
                                <use xlink:href="#path-25"></use>
                            </mask>
                            <g id="Clip-11"></g>
                            <polygon id="Fill-10" fill="#000000" mask="url(#mask-26)" points="-5.41074083 -5.40792727 12.0909091 -5.40792727 12.0909091 12.0909091 -5.41074083 12.0909091"></polygon>
                        </g>
                    </g>
                    <path d="M21.5,200.5 L334.501587,200.5" id="Line" stroke="#EEEEEE" stroke-linecap="square"></path>
                    <text id="Oribital-space-probe" font-family=".AppleSystemUIFont" font-size="14" font-weight="normal" fill="#9AA0A7">
                        <tspan x="24" y="181">Oribital space probe by NASA</tspan>
                    </text>
                    <text id="Mars-Reconnaissance-" font-family=".AppleSystemUIFont" font-size="15" font-weight="normal" letter-spacing="-0.0882352963" fill="#000000">
                        <tspan x="24" y="159">Mars Reconnaissance Orbiter</tspan>
                    </text>
                    <path d="M23.5,132 L64.5121918,132" id="Line" stroke="#9AA0A7" stroke-linecap="square"></path>
                    <text id="Flowing-liquid-water" font-family="HoeflerText-Regular, Hoefler Text" font-size="18" font-weight="normal" line-spacing="27" fill="#000000">
                        <tspan x="22" y="85.5">Flowing liquid water discovered on </tspan>
                        <tspan x="22" y="112.5">surface of Mars</tspan>
                    </text>
                    <g id="Group-4" transform="translate(23.000000, 221.000000)" font-weight="normal">
                        <text id="92k-readers" font-family=".SFNSDisplay-Regular, .SF NS Display" font-size="30" fill="#00BD44">
                            <tspan x="1" y="48">92k readers</tspan>
                        </text>
                        <text id="Trending-topic" font-family=".AppleSystemUIFont" font-size="14" fill="#9AA0A7">
                            <tspan x="0" y="14">Trending topic</tspan>
                        </text>
                    </g>
                    <g id="graph" transform="translate(203.000000, 215.000000)">
                        <g id="Group-5" stroke="#EAEFF6" stroke-width="0.5" stroke-linecap="square">
                            <path d="M24.25,0.5 L24.25,65.5" id="Line"></path>
                            <path d="M65.25,1 L65.25,66" id="Line-Copy-4"></path>
                            <path d="M106.25,0.5 L106.25,65.5" id="Line-Copy-5"></path>
                            <path d="M0,7.25 L130,7.25" id="Line"></path>
                            <path d="M0,25.25 L130,25.25" id="Line-Copy-6"></path>
                            <path d="M0,41.25 L130,41.25" id="Line-Copy-7"></path>
                            <path d="M0,58.25 L130,58.25" id="Line-Copy-8"></path>
                        </g>
                        <path d="M11.5718175,13.2726455 C13.5279993,15.3399976 11.5718175,37.6252703 53.0545408,37.6252708 C71.0749074,39.1457865 72.3136091,48.2984777 87.1948949,48.2536466 C114.15095,48.2984777 106.85797,48.9217239 122.371699,48.9217239" id="path3" stroke="url(#linearGradient-27)" stroke-width="2" stroke-linecap="round" transform="translate(66.971758, 31.097185) scale(-1, 1) translate(-66.971758, -31.097185) "></path>
                    </g>
                </g>
            </g>
        </g>
    </g>
</svg>