<svg xmlns="http://www.w3.org/2000/svg" xmlns:xlink="http://www.w3.org/1999/xlink" width="348" height="298" viewBox="0 0 348 298">
	<defs>
		<linearGradient id="trustworthy-yet-joyful--mobile-c" x1="50%" x2="50%" y1="96.761%" y2="15.824%">
			<stop offset="0%" stop-color="#009CF2" stop-opacity=".087"/>
			<stop offset="100%" stop-color="#009CEE" stop-opacity=".37"/>
		</linearGradient>
		<linearGradient id="trustworthy-yet-joyful--mobile-f" x1="0%" x2="100%" y1="55.809%" y2="44.191%">
			<stop offset="0%" stop-color="#74E5FD"/>
			<stop offset="100%" stop-color="#00BD44"/>
		</linearGradient>
		<linearGradient id="trustworthy-yet-joyful--mobile-h" x1="0%" x2="100%" y1="54.979%" y2="45.021%">
			<stop offset="0%" stop-color="#74E5FD"/>
			<stop offset="100%" stop-color="#00BD44"/>
		</linearGradient>
		<filter id="trustworthy-yet-joyful--mobile-a" width="135.4%" height="143%" x="-17.5%" y="-21.5%" filterUnits="objectBoundingBox">
			<feOffset dy="8" in="SourceAlpha" result="shadowOffsetOuter1"/>
			<feGaussianBlur in="shadowOffsetOuter1" result="shadowBlurOuter1" stdDeviation="10"/>
			<feColorMatrix in="shadowBlurOuter1" result="shadowMatrixOuter1" values="0 0 0 0 0 0 0 0 0 0 0 0 0 0 0 0 0 0 0.170629529 0"/>
			<feMerge>
				<feMergeNode in="shadowMatrixOuter1"/>
				<feMergeNode in="SourceGraphic"/>
			</feMerge>
		</filter>
		<filter id="trustworthy-yet-joyful--mobile-d" width="109.9%" height="129.1%" x="-5%" y="-14.5%" filterUnits="objectBoundingBox">
			<feGaussianBlur in="SourceGraphic" stdDeviation="10"/>
		</filter>
		<filter id="trustworthy-yet-joyful--mobile-g" width="109.9%" height="129.1%" x="-5%" y="-14.5%" filterUnits="objectBoundingBox">
			<feGaussianBlur in="SourceGraphic" stdDeviation="10"/>
		</filter>
		<rect id="trustworthy-yet-joyful--mobile-b" width="308" height="251" x="0" y="0" rx="12"/>
	</defs>
	<g fill="none" fill-rule="evenodd" filter="url(#trustworthy-yet-joyful--mobile-a)" transform="translate(20 16)">
		<mask id="trustworthy-yet-joyful--mobile-e" fill="#fff">
			<use xlink:href="#trustworthy-yet-joyful--mobile-b"/>
		</mask>
		<use fill="#FFF" xlink:href="#trustworthy-yet-joyful--mobile-b"/>
		<path fill="url(#trustworthy-yet-joyful--mobile-c)" d="M-51.618 301.412s22.955-7.12 50.049-15.116c27.094-7.995 30.118-23.894 47.665-27.991 17.547-4.097 18.754 15.09 50.644 5.038 31.89-10.05 22.62-32.046 43.494-34.71 20.875-2.663 33.456 21.773 53.028 22.394 19.571.621 76.526-92.063 90.563-100.21 14.037-8.146 38.111 30.724 57.794 29.671 19.683-1.052 37.68-54.483 68.519-52.624 30.84 1.86 31 10.5 58.985 10.077 27.986-.422 41.539-9.445 52.432-11.756s20.853 11.756 20.853 11.756l11.32 22.953v171.367H-51.617v-30.85z" filter="url(#trustworthy-yet-joyful--mobile-d)" mask="url(#trustworthy-yet-joyful--mobile-e)" opacity=".1"/>
		<path fill="url(#trustworthy-yet-joyful--mobile-f)" d="M444.912 369.944s-22.954-7.12-50.048-15.115c-27.095-7.995-30.118-23.895-47.665-27.992-17.547-4.097-18.755 15.09-50.645 5.039-31.89-10.051-22.62-32.046-43.494-34.71-20.875-2.663-33.456 21.772-53.027 22.393-19.572.622-76.527-92.063-90.564-100.21-14.037-8.146-38.11 30.724-57.794 29.672-19.683-1.053-37.679-54.484-68.518-52.624-30.84 1.86-31 10.499-58.986 10.077-27.985-.422-41.538-9.446-52.432-11.757-10.893-2.311-20.853 11.757-20.853 11.757l-11.32 22.953v171.366h605.346v-30.849" filter="url(#trustworthy-yet-joyful--mobile-g)" mask="url(#trustworthy-yet-joyful--mobile-e)" opacity=".1"/>
		<path stroke="#CCC" stroke-linecap="square" stroke-width=".5" d="M.994 43.652H308" opacity=".8"/>
		<path fill="#54595D" d="M50.45 21.15l-1.913 6.629h-.687l-2.147-7.937h.768l1.714 6.765h.049l1.876-6.765h.736l1.876 6.765h.049l1.714-6.765h.768l-2.147 7.937h-.687l-1.914-6.628h-.054zm7.057 6.629h-.74v-7.937h.74v7.937zm2.742 0h-.74v-7.937h.74v4.103h.065l3.693-4.103h.925l-3.126 3.427 3.445 4.51h-.957l-3.001-3.988-1.044 1.155v2.833zm7.089 0h-.74v-7.937h.74v7.937zm2-7.937h2.775c1.492 0 2.498 1.006 2.498 2.486 0 1.458-1.022 2.459-2.51 2.459H70.08v2.992h-.741v-7.937zm.742.67v3.604h1.854c1.2 0 1.925-.671 1.925-1.788 0-1.144-.708-1.815-1.925-1.815H70.08zm10.852 6.585v.682h-4.715v-7.937h4.715v.682h-3.974v2.855h3.774v.67h-3.774v3.048h3.974zm1.757-7.255h2.569c2.38 0 3.704 1.501 3.704 3.966 0 2.47-1.32 3.97-3.704 3.97h-2.569v-7.936zm.741.682v6.573h1.785c1.908 0 2.99-1.232 2.99-3.284 0-2.052-1.087-3.29-2.99-3.29H83.43zm7.954 7.255h-.74v-7.937h.74v7.937zm7.192 0l-.865-2.431h-3.277l-.865 2.43h-.784l2.92-7.936h.735l2.915 7.937h-.779zm-2.541-6.953l-1.38 3.873h2.834l-1.384-3.873h-.07z"/>
		<g transform="translate(13.91 10.913)">
			<rect width="20.858" height="20.826" x=".5" y=".5" fill="#FFF" stroke="#EAECF0" rx="6"/>
			<path fill="#000" d="M16.885 8.077a.19.19 0 01-.04.116c-.027.035-.056.053-.088.053a1.117 1.117 0 00-.641.252c-.167.143-.338.415-.515.818L12.896 15.4c-.017.056-.067.084-.148.084a.166.166 0 01-.149-.084l-1.516-3.167L9.338 15.4a.166.166 0 01-.149.084c-.078 0-.129-.028-.154-.084L6.378 9.316c-.166-.378-.34-.642-.525-.792-.183-.15-.44-.243-.769-.278-.028 0-.054-.015-.08-.045a.158.158 0 01-.036-.103c0-.099.028-.148.085-.148.236 0 .484.01.742.031.24.022.467.032.679.032.216 0 .47-.01.764-.032.307-.02.58-.031.816-.031.057 0 .085.049.085.148 0 .099-.017.148-.053.148-.237.018-.423.078-.56.18a.48.48 0 00-.204.403c0 .084.029.19.085.317l2.196 4.952 1.246-2.351-1.161-2.431c-.209-.434-.38-.714-.515-.84-.134-.125-.337-.202-.61-.23-.024 0-.048-.015-.071-.045a.165.165 0 01-.035-.103c0-.099.025-.148.075-.148.237 0 .454.01.652.031.19.022.394.032.61.032.212 0 .437-.01.673-.032.244-.02.485-.031.722-.031.056 0 .085.049.085.148 0 .099-.018.148-.053.148-.474.032-.711.166-.711.403 0 .106.055.27.164.492l.77 1.557.763-1.425c.106-.2.159-.37.159-.508 0-.325-.237-.498-.71-.519-.043 0-.064-.05-.064-.148a.17.17 0 01.032-.1c.02-.033.042-.048.063-.048.17 0 .379.01.626.031a6.8 6.8 0 00.583.032c.11 0 .27-.009.483-.026.269-.025.493-.037.674-.037.042 0 .063.042.063.127 0 .113-.039.17-.116.17-.276.027-.498.103-.666.227-.168.123-.378.404-.629.842l-1.018 1.88 1.38 2.807 2.036-4.73a1.27 1.27 0 00.106-.476c0-.346-.237-.53-.711-.55-.042 0-.064-.05-.064-.15 0-.098.032-.147.096-.147.173 0 .378.01.615.031.22.022.403.032.552.032.155 0 .335-.01.54-.032a5.82 5.82 0 01.573-.031c.05 0 .075.042.075.127z"/>
		</g>
		<path stroke="#EEE" stroke-linecap="square" d="M18.313 172.128h268.395" opacity=".9"/>
		<path fill="#9AA0A7" d="M26.038 157.634l-.849-2.37h-3.362l-.849 2.37h-1.107l3.116-8.28h1.043l3.115 8.28h-1.107zm-2.577-6.943l-1.323 3.695h2.74l-1.323-3.695h-.094zm5.46 6.943v-5.36h-1.05v-.826h1.05v-.602c0-1.269.673-1.796 1.891-1.796.2 0 .375.017.62.057v.826a3.07 3.07 0 00-.561-.051c-.604 0-.943.298-.943.992v.574h1.446v.826h-1.446v5.36H28.92zm3.918 0v-6.186h.96v.918h.094c.187-.602.914-1.027 1.751-1.027.164 0 .375.012.504.029v.987a4.126 4.126 0 00-.644-.058c-.961 0-1.658.632-1.658 1.504v3.833h-1.007zm4.592 0v-6.186h1.007v6.186h-1.007zm.503-7.443a.698.698 0 01-.703-.688c0-.379.317-.689.703-.689.387 0 .703.31.703.689a.698.698 0 01-.703.688zm7.65 3.15h-1.02c-.164-.613-.72-1.112-1.628-1.112-1.136 0-1.85.889-1.85 2.29 0 1.428.726 2.335 1.85 2.335.85 0 1.441-.385 1.628-1.085h1.02c-.182 1.136-1.125 1.974-2.642 1.974-1.769 0-2.9-1.257-2.9-3.225 0-1.928 1.125-3.179 2.894-3.179 1.535 0 2.472.901 2.648 2.003zm3.432 3.536c1.037 0 1.804-.666 1.804-1.55v-.568l-1.699.11c-.96.062-1.382.39-1.382 1.01 0 .63.545.998 1.277.998zm-.188.866c-1.224 0-2.132-.711-2.132-1.842 0-1.107.832-1.744 2.302-1.83l1.822-.11v-.562c0-.763-.486-1.182-1.43-1.182-.755 0-1.282.281-1.423.769h-1.019c.135-.993 1.13-1.647 2.478-1.647 1.54 0 2.401.775 2.401 2.06v4.235h-.96v-.912h-.094c-.41.66-1.101 1.021-1.945 1.021zm4.862-.109v-6.186h.96v.976h.094c.316-.683.931-1.085 1.898-1.085 1.417 0 2.208.82 2.208 2.29v4.005h-1.007v-3.764c0-1.114-.48-1.641-1.488-1.641s-1.658.66-1.658 1.744v3.661H53.69zm10.8-2.863h-3.842v-.936h3.842v.936zm7.48 2.863l-.85-2.37h-3.36l-.85 2.37h-1.107l3.116-8.28h1.043l3.116 8.28H71.97zm-2.577-6.943l-1.324 3.695h2.741l-1.324-3.695h-.093zm5.037 6.943v-6.186h.96v.976h.094c.287-.689.92-1.085 1.763-1.085.855 0 1.453.442 1.745 1.085h.094c.34-.655 1.06-1.085 1.933-1.085 1.289 0 2.009.723 2.009 2.02v4.275h-1.007v-4.045c0-.913-.44-1.36-1.33-1.36-.879 0-1.464.642-1.464 1.428v3.977h-1.008v-4.2c0-.735-.52-1.205-1.317-1.205-.826 0-1.465.7-1.465 1.572v3.833H74.43zm12.956-5.423c-1.008 0-1.71.723-1.787 1.82h3.48c-.024-1.097-.692-1.82-1.693-1.82zm1.663 3.822h1.008c-.305 1.062-1.277 1.71-2.66 1.71-1.75 0-2.846-1.24-2.846-3.196 0-1.945 1.113-3.208 2.846-3.208 1.705 0 2.742 1.188 2.742 3.11v.379h-4.54v.046c.053 1.222.75 1.997 1.822 1.997.814 0 1.365-.293 1.628-.838zm2.671 1.601v-6.186h.96v.918h.094c.188-.602.914-1.027 1.752-1.027.164 0 .374.012.503.029v.987a4.126 4.126 0 00-.644-.058c-.96 0-1.658.632-1.658 1.504v3.833H91.72zm4.592 0v-6.186h1.007v6.186h-1.007zm.504-7.443a.698.698 0 01-.703-.688c0-.379.316-.689.703-.689.386 0 .702.31.702.689a.698.698 0 01-.702.688zm7.649 3.15h-1.02c-.163-.613-.72-1.112-1.627-1.112-1.137 0-1.851.889-1.851 2.29 0 1.428.726 2.335 1.85 2.335.85 0 1.441-.385 1.629-1.085h1.019c-.182 1.136-1.125 1.974-2.642 1.974-1.768 0-2.899-1.257-2.899-3.225 0-1.928 1.125-3.179 2.894-3.179 1.534 0 2.471.901 2.647 2.003zm3.432 3.536c1.037 0 1.804-.666 1.804-1.55v-.568l-1.698.11c-.96.062-1.383.39-1.383 1.01 0 .63.545.998 1.277.998zm-.187.866c-1.224 0-2.132-.711-2.132-1.842 0-1.107.832-1.744 2.302-1.83l1.821-.11v-.562c0-.763-.486-1.182-1.429-1.182-.755 0-1.283.281-1.423.769h-1.02c.135-.993 1.131-1.647 2.478-1.647 1.54 0 2.402.775 2.402 2.06v4.235h-.96v-.912h-.095c-.41.66-1.1 1.021-1.944 1.021zm4.861-.109v-6.186h.96v.976h.094c.317-.683.932-1.085 1.898-1.085 1.418 0 2.208.82 2.208 2.29v4.005h-1.007v-3.764c0-1.114-.48-1.641-1.488-1.641-1.007 0-1.657.66-1.657 1.744v3.661h-1.008zm12.33-.757c1.036 0 1.803-.666 1.803-1.55v-.568l-1.698.11c-.96.062-1.382.39-1.382 1.01 0 .63.544.998 1.276.998zm-.188.866c-1.224 0-2.132-.711-2.132-1.842 0-1.107.832-1.744 2.302-1.83l1.821-.11v-.562c0-.763-.486-1.182-1.429-1.182-.755 0-1.282.281-1.423.769h-1.02c.136-.993 1.131-1.647 2.478-1.647 1.54 0 2.402.775 2.402 2.06v4.235h-.96v-.912h-.094c-.41.66-1.102 1.021-1.945 1.021zm8 0c-.878 0-1.627-.407-2.026-1.096h-.093v.987h-.961v-8.642h1.007v3.432h.094c.346-.666 1.113-1.085 1.98-1.085 1.605 0 2.647 1.257 2.647 3.202 0 1.934-1.048 3.202-2.647 3.202zm-.234-5.514c-1.148 0-1.862.883-1.862 2.312 0 1.429.714 2.313 1.862 2.313 1.154 0 1.84-.867 1.84-2.313 0-1.446-.686-2.312-1.84-2.312zm7.058 4.625c1.195 0 1.869-.85 1.869-2.313 0-1.469-.674-2.312-1.869-2.312-1.195 0-1.868.843-1.868 2.312 0 1.463.673 2.313 1.868 2.313zm0 .89c-1.798 0-2.91-1.217-2.91-3.203 0-1.991 1.112-3.202 2.91-3.202s2.911 1.21 2.911 3.202c0 1.986-1.113 3.202-2.91 3.202zm4.551-.11v-8.642h1.008v8.642h-1.008zm2.987 0v-6.186h1.008v6.186h-1.008zm.504-7.443a.698.698 0 01-.703-.688c0-.379.317-.689.703-.689.387 0 .703.31.703.689a.698.698 0 01-.703.688zm2.847-.344h1.007v1.601h1.406v.826h-1.406v3.5c0 .73.281 1.04.937 1.04.182 0 .281-.006.469-.023v.832a3.5 3.5 0 01-.592.057c-1.3 0-1.821-.47-1.821-1.653v-3.753h-1.02v-.826h1.02v-1.6zm3.959 7.787v-6.186h1.007v6.186h-1.007zm.504-7.443a.698.698 0 01-.703-.688c0-.379.316-.689.703-.689.386 0 .703.31.703.689a.698.698 0 01-.703.688zm5.02 6.663c1.194 0 1.868-.85 1.868-2.313 0-1.469-.674-2.312-1.869-2.312-1.195 0-1.868.843-1.868 2.312 0 1.463.673 2.313 1.868 2.313zm0 .89c-1.799 0-2.912-1.217-2.912-3.203 0-1.991 1.113-3.202 2.911-3.202s2.911 1.21 2.911 3.202c0 1.986-1.113 3.202-2.91 3.202zm4.492-.11v-6.186h.96v.976h.094c.316-.683.931-1.085 1.898-1.085 1.417 0 2.208.82 2.208 2.29v4.005h-1.008v-3.764c0-1.114-.48-1.641-1.487-1.641-1.008 0-1.658.66-1.658 1.744v3.661h-1.007zm7.022 0v-6.186h1.008v6.186h-1.008zm.504-7.443a.698.698 0 01-.703-.688c0-.379.316-.689.703-.689.387 0 .703.31.703.689a.698.698 0 01-.703.688zm2.278 2.95c0-1.027 1.014-1.802 2.355-1.802 1.324 0 2.243.643 2.378 1.658h-.996c-.134-.493-.626-.82-1.388-.82-.75 0-1.335.373-1.335.924 0 .424.351.688 1.095.866l.972.23c1.19.281 1.763.786 1.763 1.675 0 1.108-1.095 1.871-2.53 1.871-1.406 0-2.372-.66-2.483-1.687h1.036c.17.522.674.855 1.482.855.85 0 1.459-.396 1.459-.964 0-.425-.328-.712-1.002-.872l-1.084-.258c-1.183-.282-1.722-.78-1.722-1.676zm6.847-3.294h1.008v1.601h1.406v.826h-1.406v3.5c0 .73.28 1.04.937 1.04.182 0 .281-.006.469-.023v.832a3.5 3.5 0 01-.592.057c-1.3 0-1.822-.47-1.822-1.653v-3.753h-1.019v-.826h1.02v-1.6zm9.266 7.03c1.037 0 1.804-.666 1.804-1.55v-.568l-1.698.11c-.96.062-1.383.39-1.383 1.01 0 .63.545.998 1.277.998zm-.187.866c-1.224 0-2.132-.711-2.132-1.842 0-1.107.832-1.744 2.302-1.83l1.821-.11v-.562c0-.763-.486-1.182-1.429-1.182-.755 0-1.283.281-1.423.769h-1.02c.135-.993 1.131-1.647 2.478-1.647 1.54 0 2.402.775 2.402 2.06v4.235h-.96v-.912h-.095c-.41.66-1.1 1.021-1.944 1.021zm4.861-.109v-6.186h.96v.976h.095c.316-.683.93-1.085 1.897-1.085 1.418 0 2.208.82 2.208 2.29v4.005h-1.007v-3.764c0-1.114-.48-1.641-1.488-1.641-1.007 0-1.657.66-1.657 1.744v3.661h-1.008zm9.336.11c-1.616 0-2.653-1.258-2.653-3.203 0-1.94 1.049-3.202 2.653-3.202.879 0 1.623.408 1.98 1.085h.088v-3.432h1.007v8.642h-.96v-.987h-.094c-.398.689-1.148 1.096-2.02 1.096zm.235-5.515c-1.148 0-1.845.872-1.845 2.312 0 1.446.69 2.313 1.845 2.313 1.148 0 1.856-.884 1.856-2.313 0-1.417-.714-2.312-1.856-2.312zm8.24 5.405v-8.642h1.008v3.432h.094c.316-.683.978-1.085 1.944-1.085 1.336 0 2.18.838 2.18 2.29v4.005h-1.008v-3.764c0-1.096-.504-1.641-1.459-1.641-1.13 0-1.75.7-1.75 1.744v3.661h-1.008zm12.172-6.186v6.186h-.96v-.97h-.095c-.316.689-.99 1.08-1.956 1.08-1.417 0-2.155-.827-2.155-2.29v-4.006h1.007v3.764c0 1.114.422 1.63 1.43 1.63 1.112 0 1.721-.648 1.721-1.733v-3.66h1.008zm1.897 6.186v-6.186h.961v.976h.094c.287-.689.92-1.085 1.763-1.085.855 0 1.452.442 1.745 1.085h.094c.34-.655 1.06-1.085 1.933-1.085 1.288 0 2.009.723 2.009 2.02v4.275h-1.008v-4.045c0-.913-.439-1.36-1.33-1.36-.878 0-1.464.642-1.464 1.428v3.977h-1.007v-4.2c0-.735-.521-1.205-1.318-1.205-.826 0-1.464.7-1.464 1.572v3.833h-1.008zm12.382-.757c1.037 0 1.804-.666 1.804-1.55v-.568l-1.698.11c-.96.062-1.383.39-1.383 1.01 0 .63.545.998 1.277.998zm-.187.866c-1.224 0-2.132-.711-2.132-1.842 0-1.107.832-1.744 2.302-1.83l1.821-.11v-.562c0-.763-.486-1.182-1.429-1.182-.755 0-1.283.281-1.423.769h-1.02c.136-.993 1.131-1.647 2.478-1.647 1.54 0 2.402.775 2.402 2.06v4.235h-.96v-.912h-.095c-.41.66-1.1 1.021-1.944 1.021zm4.861-.109v-6.186h.96v.976h.095c.316-.683.93-1.085 1.897-1.085 1.418 0 2.208.82 2.208 2.29v4.005h-1.007v-3.764c0-1.114-.48-1.641-1.488-1.641-1.007 0-1.657.66-1.657 1.744v3.661h-1.008zm7.023 0v-6.186h1.007v6.186h-1.007zm.504-7.443a.698.698 0 01-.703-.688c0-.379.316-.689.703-.689.386 0 .703.31.703.689a.698.698 0 01-.703.688zm2.846-.344h1.008v1.601h1.405v.826h-1.405v3.5c0 .73.28 1.04.937 1.04.181 0 .28-.006.468-.023v.832a3.479 3.479 0 01-.591.057c-1.3 0-1.822-.47-1.822-1.653v-3.753h-1.019v-.826h1.02v-1.6zm5.88 7.03c1.037 0 1.805-.666 1.805-1.55v-.568l-1.699.11c-.96.062-1.382.39-1.382 1.01 0 .63.545.998 1.277.998zm-.187.866c-1.224 0-2.132-.711-2.132-1.842 0-1.107.832-1.744 2.302-1.83l1.822-.11v-.562c0-.763-.486-1.182-1.43-1.182-.755 0-1.282.281-1.423.769h-1.019c.135-.993 1.13-1.647 2.478-1.647 1.54 0 2.401.775 2.401 2.06v4.235h-.96v-.912h-.094c-.41.66-1.101 1.021-1.945 1.021zm4.862-.109v-6.186h.96v.918h.094c.187-.602.914-1.027 1.751-1.027.164 0 .375.012.504.029v.987a4.126 4.126 0 00-.644-.058c-.96 0-1.658.632-1.658 1.504v3.833h-1.007zm4.592 0v-6.186h1.007v6.186h-1.007zm.503-7.443a.698.698 0 01-.702-.688c0-.379.316-.689.702-.689.387 0 .703.31.703.689a.698.698 0 01-.703.688zm4.37 6.686c1.036 0 1.804-.666 1.804-1.55v-.568l-1.699.11c-.96.062-1.382.39-1.382 1.01 0 .63.545.998 1.277.998zm-.188.866c-1.224 0-2.132-.711-2.132-1.842 0-1.107.832-1.744 2.302-1.83l1.822-.11v-.562c0-.763-.486-1.182-1.43-1.182-.755 0-1.282.281-1.423.769h-1.019c.135-.993 1.13-1.647 2.478-1.647 1.54 0 2.401.775 2.401 2.06v4.235h-.96v-.912h-.094c-.41.66-1.101 1.021-1.945 1.021zm4.862-.109v-6.186h.96v.976h.094c.316-.683.931-1.085 1.898-1.085 1.417 0 2.208.82 2.208 2.29v4.005h-1.008v-3.764c0-1.114-.48-1.641-1.487-1.641-1.008 0-1.658.66-1.658 1.744v3.661h-1.007z"/>
		<path fill="#000" d="M28.51 140.738h-1.615v-3.942h-4.41v3.942h-1.62v-9.13h1.62v3.778h4.41v-3.778h1.614v9.13zm4.346-1.12c.942 0 1.645-.613 1.645-1.417v-.55l-1.551.1c-.873.058-1.282.374-1.282.937 0 .582.497.93 1.188.93zm-.459 1.234c-1.325 0-2.274-.81-2.274-2.075 0-1.253.936-1.974 2.607-2.075l1.771-.108v-.582c0-.677-.452-1.057-1.294-1.057-.716 0-1.206.253-1.35.722h-1.47c.126-1.222 1.263-2 2.896-2 1.765 0 2.757.867 2.757 2.335v4.726h-1.5v-.949h-.107c-.383.67-1.137 1.063-2.035 1.063zm5.44-.114v-6.922h1.5v1.076h.108c.188-.683.93-1.19 1.815-1.19.226 0 .502.026.647.07v1.455c-.12-.044-.534-.088-.798-.088-1.011 0-1.715.632-1.715 1.6v4h-1.557zm5.357 0v-6.922h1.502v1.076h.106c.189-.683.93-1.19 1.816-1.19.226 0 .502.026.647.07v1.455c-.12-.044-.534-.088-.798-.088-1.011 0-1.715.632-1.715 1.6v4h-1.558zm5.377 0v-6.922h1.552v6.922H48.57zm.773-8.048c-.566 0-.961-.367-.961-.867s.395-.866.96-.866c.572 0 .962.366.962.866s-.39.867-.961.867zm5.514 2.234c-.93 0-1.582.67-1.652 1.683h3.235c-.031-1.025-.647-1.683-1.583-1.683zm1.596 3.91h1.476c-.295 1.259-1.432 2.043-3.053 2.043-2.022 0-3.24-1.347-3.24-3.574 0-2.228 1.237-3.626 3.228-3.626 1.96 0 3.134 1.31 3.134 3.493v.506H53.2v.082c.038 1.152.697 1.873 1.721 1.873.773 0 1.307-.285 1.533-.797zm3.53-6.713h1.551v1.74h1.47v1.252h-1.47v3.398c0 .683.29.987.943.987.22 0 .339-.012.527-.031v1.227a4.38 4.38 0 01-.816.076c-1.577 0-2.205-.538-2.205-1.88v-3.777h-1.087v-1.252h1.087v-1.74zm11.896 8.617h-1.62v-7.719h-2.79v-1.41h7.206v1.41H71.88v7.72zm9.473-6.922v6.922H79.85v-1.1h-.106c-.333.79-1.005 1.24-2.054 1.24-1.502 0-2.381-.943-2.381-2.563v-4.499h1.558v4.107c0 1.056.433 1.575 1.363 1.575 1.011 0 1.564-.626 1.564-1.651v-4.03h1.558zm5.653 7.036c-.961 0-1.76-.45-2.149-1.208h-.106v1.094h-1.502v-9.598h1.558v3.777h.107c.358-.753 1.15-1.215 2.092-1.215 1.74 0 2.82 1.36 2.82 3.575 0 2.202-1.087 3.575-2.82 3.575zm-.49-5.814c-1.062 0-1.734.86-1.734 2.24 0 1.379.666 2.24 1.734 2.24s1.708-.849 1.708-2.24c0-1.393-.647-2.24-1.708-2.24zm4.799 5.7v-6.922h1.5v1.12h.108c.295-.79.998-1.259 1.91-1.259.948 0 1.607.481 1.896 1.26h.107c.34-.76 1.13-1.26 2.085-1.26 1.376 0 2.205.867 2.205 2.303v4.758h-1.551v-4.36c0-.891-.421-1.334-1.257-1.334-.81 0-1.344.595-1.344 1.385v4.31H95.46v-4.474c0-.76-.477-1.221-1.243-1.221-.773 0-1.345.639-1.345 1.487v4.207h-1.557zm13.932-1.12c.942 0 1.645-.613 1.645-1.417v-.55l-1.551.1c-.873.058-1.282.374-1.282.937 0 .582.497.93 1.188.93zm-.459 1.234c-1.325 0-2.274-.81-2.274-2.075 0-1.253.936-1.974 2.607-2.075l1.771-.108v-.582c0-.677-.452-1.057-1.294-1.057-.716 0-1.206.253-1.35.722h-1.47c.126-1.222 1.263-2 2.896-2 1.765 0 2.757.867 2.757 2.335v4.726h-1.501v-.949h-.107c-.383.67-1.137 1.063-2.035 1.063zm5.44-.114v-6.922h1.5v1.108h.108c.326-.772 1.017-1.247 2.041-1.247 1.533 0 2.368.93 2.368 2.582v4.48h-1.558v-4.107c0-1.057-.44-1.588-1.388-1.588-.93 0-1.514.645-1.514 1.664v4.03h-1.558z"/>
		<path stroke="#9AA0A7" stroke-linecap="square" d="M19.871 113.099h34.774"/>
		<path fill="#000" d="M32.849 74.47c0 .142-.041.214-.124.214-.35 0-.765-.015-1.245-.046a17.57 17.57 0 00-1.152-.046c-.315 0-.678.015-1.09.046-.434.03-.823.046-1.169.046-.082 0-.123-.072-.123-.214 0-.128.043-.197.131-.207.433-.05.755-.12.967-.21.211-.09.347-.207.406-.352.06-.145.089-.389.089-.73v-3.412h-5.901v3.412c0 .341.03.585.088.73.06.145.195.263.407.352.21.09.536.16.974.21.083.01.124.08.124.207 0 .142-.041.214-.124.214-.345 0-.735-.015-1.168-.046a14.95 14.95 0 00-1.09-.046 17.6 17.6 0 00-1.16.046c-.48.03-.893.046-1.238.046-.082 0-.124-.072-.124-.214 0-.128.042-.197.124-.207.624-.071 1.048-.186 1.272-.344.225-.158.337-.474.337-.948v-7.198c0-.357-.045-.608-.136-.753-.09-.145-.248-.26-.475-.344-.227-.084-.56-.152-.998-.203-.082 0-.124-.071-.124-.214 0-.143.042-.214.124-.214.345 0 .758.015 1.238.046.458.03.845.046 1.16.046.314 0 .678-.016 1.09-.046.433-.03.823-.046 1.168-.046.083 0 .124.071.124.214 0 .143-.041.214-.124.214-.402.046-.706.107-.913.184-.206.076-.35.18-.433.31-.082.13-.123.398-.123.806v3.297h5.9v-3.297c0-.341-.029-.586-.088-.734-.06-.148-.194-.266-.402-.356-.21-.089-.535-.159-.979-.21-.082 0-.123-.071-.123-.214 0-.143.04-.214.123-.214.346 0 .735.015 1.168.046.413.03.776.046 1.09.046.315 0 .7-.016 1.153-.046.48-.03.895-.046 1.245-.046.083 0 .124.071.124.214 0 .143-.041.214-.124.214-.438.051-.77.119-.997.203-.227.084-.386.199-.476.344-.09.145-.135.396-.135.753v7.198c0 .474.112.79.336.948.224.158.648.273 1.272.344.083.01.124.08.124.207zm5.963.382c-.289 0-.54-.07-.754-.21a1.05 1.05 0 01-.437-.57c-.552.56-1.274.841-2.166.841-.464 0-.843-.141-1.136-.424a1.41 1.41 0 01-.441-1.06c0-1.045 1.253-1.891 3.758-2.539l.047-1.193v-.038c0-.367-.092-.66-.275-.876a.909.909 0 00-.73-.325c-.305 0-.563.073-.774.218-.211.145-.32.328-.325.547-.005.326-.091.581-.259.765-.167.183-.39.275-.669.275a.564.564 0 01-.402-.145.51.51 0 01-.155-.39c0-.393.361-.805 1.083-1.236.722-.43 1.392-.646 2.01-.646.558 0 1.009.163 1.354.49.346.326.519.764.519 1.315v.092l-.11 3.457v.054c0 .535.176.803.526.803.17 0 .369-.102.596-.306l.054-.016c.041 0 .08.027.116.08a.307.307 0 01.054.173c0 .148-.156.329-.468.543a1.76 1.76 0 01-1.017.321zm-1.191-3.442c-1.506.337-2.258.893-2.258 1.668 0 .724.283 1.086.85 1.086.274 0 .543-.068.809-.203.265-.135.444-.302.537-.5l.062-2.05zm8.322-2.8a.757.757 0 01-.19.521.592.592 0 01-.46.214c-.226 0-.45-.074-.673-.222-.175-.117-.327-.176-.456-.176-.335 0-.68.194-1.036.582v3.442c0 .443.077.753.232.929.155.176.484.297.99.363.082.01.124.08.124.207 0 .142-.042.214-.124.214-.212 0-.51-.015-.897-.046a15.53 15.53 0 00-1.021-.046c-.258 0-.57.015-.936.046-.33.03-.6.046-.812.046-.083 0-.124-.072-.124-.214 0-.128.041-.197.124-.207.448-.056.736-.16.862-.313s.19-.48.19-.98v-2.83c0-.407-.053-.675-.159-.802-.106-.128-.342-.212-.708-.253-.082 0-.123-.066-.123-.199 0-.122.04-.183.123-.183a7.2 7.2 0 001.265-.425c.333-.155.55-.29.653-.401.062-.062.124-.092.186-.092.144 0 .217.04.217.122l-.062.964c.412-.377.767-.642 1.063-.795.297-.153.592-.23.886-.23a.88.88 0 01.61.23.7.7 0 01.256.535zm5.754 0a.757.757 0 01-.19.521.592.592 0 01-.46.214c-.226 0-.45-.074-.672-.222-.176-.117-.328-.176-.457-.176-.335 0-.68.194-1.036.582v3.442c0 .443.077.753.232.929.155.176.485.297.99.363.083.01.124.08.124.207 0 .142-.041.214-.124.214-.211 0-.51-.015-.897-.046a15.5 15.5 0 00-1.021-.046c-.258 0-.57.015-.936.046-.33.03-.6.046-.812.046-.082 0-.124-.072-.124-.214 0-.128.042-.197.124-.207.449-.056.736-.16.862-.313.127-.153.19-.48.19-.98v-2.83c0-.407-.053-.675-.159-.802-.105-.128-.341-.212-.707-.253-.083 0-.124-.066-.124-.199 0-.122.041-.183.124-.183.51-.128.932-.27 1.264-.425.333-.155.55-.29.654-.401.062-.062.123-.092.185-.092.145 0 .217.04.217.122l-.062.964c.413-.377.767-.642 1.064-.795.296-.153.591-.23.885-.23.237 0 .44.077.611.23a.7.7 0 01.255.535zm3.032-3.387c0 .214-.078.4-.236.558a.773.773 0 01-.568.237.773.773 0 01-.569-.237.766.766 0 01-.236-.558c0-.225.078-.413.232-.566a.782.782 0 01.573-.23c.221 0 .411.077.568.23a.758.758 0 01.236.566zm1.083 9.247c0 .142-.041.214-.124.214-.211 0-.482-.015-.812-.046a11.72 11.72 0 00-.936-.046c-.258 0-.567.015-.928.046a9.12 9.12 0 01-.804.046c-.083 0-.124-.072-.124-.214 0-.128.041-.197.124-.207.438-.056.72-.16.847-.313.126-.153.19-.48.19-.98v-2.83c0-.407-.054-.675-.16-.802-.105-.128-.336-.212-.692-.253-.082 0-.123-.066-.123-.199 0-.122.04-.183.123-.183a8.279 8.279 0 001.33-.44c.346-.156.563-.284.65-.386.052-.062.109-.092.17-.092.145 0 .217.04.217.122-.082 1.142-.124 2.03-.124 2.662v2.402c0 .5.063.826.19.979.126.153.414.257.862.313.083.01.124.08.124.207zm6.883-4.13c0 .142-.092.214-.278.214h-4.238c-.031.275-.047.56-.047.856 0 .821.197 1.452.592 1.893.394.441.955.662 1.682.662.366 0 .735-.097 1.106-.29a2.62 2.62 0 00.897-.743l.039-.015c.046 0 .091.028.135.084a.313.313 0 01.066.2c0 .106-.165.33-.495.668-.33.34-.688.598-1.075.777a2.865 2.865 0 01-1.214.267c-.928 0-1.71-.336-2.344-1.01-.634-.672-.951-1.498-.951-2.477 0-1 .31-1.846.932-2.54.621-.693 1.409-1.04 2.363-1.04.799 0 1.47.259 2.014.776.544.518.816 1.09.816 1.718zm-1.407-.674c0-.382-.133-.7-.399-.952-.265-.252-.607-.378-1.024-.378-.397 0-.742.164-1.033.493-.291.329-.488.76-.592 1.296l2.15-.06c.325-.006.556-.037.693-.093a.305.305 0 00.205-.306zm7.316-1.07c0 .275-.067.413-.2.413l-2.306-.062v3.672c0 .958.346 1.438 1.037 1.438.428 0 .817-.1 1.168-.299.041 0 .078.027.112.08.033.054.05.112.05.173 0 .127-.192.3-.576.516a2.59 2.59 0 01-1.296.325c-.587 0-1.057-.177-1.407-.531-.35-.355-.526-.823-.526-1.404v-.069l.03-3.717c0-.143-.061-.214-.185-.214h-.588c-.113 0-.17-.066-.17-.199 0-.102.047-.178.14-.23.716-.418 1.34-1.006 1.871-1.766.057-.082.129-.123.217-.123.144 0 .216.041.216.123l-.062 1.46h2.274c.134 0 .201.138.201.414zm15.229-2.035c0 .097-.093.145-.278.145-.083 0-.134-.035-.155-.107-.222-.719-.539-1.227-.951-1.526-.413-.298-1.024-.447-1.833-.447h-.727c-.253 0-.426.04-.519.122-.092.082-.139.235-.139.46v7.763c0 .351.045.6.136.745.09.146.25.26.479.345.23.084.558.151.986.202.083.01.124.08.124.207 0 .142-.041.214-.124.214-.345 0-.758-.015-1.237-.046-.454-.03-.833-.046-1.137-.046-.315 0-.701.015-1.16.046-.48.03-.892.046-1.238.046-.082 0-.124-.072-.124-.214 0-.128.042-.197.124-.207.624-.071 1.048-.186 1.272-.344.225-.158.337-.474.337-.948v-7.764c0-.224-.047-.377-.14-.459-.092-.081-.267-.122-.525-.122H76.4c-.727 0-1.387.182-1.98.547-.592.365-.98.837-1.16 1.419-.025.076-.082.114-.17.114-.175 0-.263-.056-.263-.168.289-.77.562-1.642.82-2.616.701.143 2.305.215 4.81.215 2.574 0 4.21-.072 4.912-.215.072.663.227 1.543.464 2.64zm7.92 7.618c0 .107-.041.166-.124.176-.938.102-1.58.28-1.926.535a.353.353 0 01-.216.085c-.103 0-.155-.041-.155-.123l.062-.964c-.763.684-1.454 1.025-2.073 1.025-.706 0-1.257-.197-1.651-.592-.395-.396-.592-.932-.592-1.61V69.85c0-.454-.06-.755-.178-.903-.118-.147-.353-.221-.703-.221-.067 0-.142.002-.225.007-.077 0-.116-.066-.116-.199 0-.163.041-.244.124-.244.598 0 1.382-.115 2.351-.344.093 0 .14.063.14.19v4.207c0 .577.11.996.332 1.259.222.262.57.394 1.044.394.304 0 .572-.057.804-.169.232-.112.48-.31.743-.596V69.85c0-.449-.06-.748-.182-.899-.121-.15-.362-.225-.723-.225-.062 0-.134.002-.217.007-.077 0-.116-.066-.116-.199 0-.163.042-.244.124-.244.598 0 1.382-.115 2.351-.344.093 0 .14.063.14.19v4.88c0 .352.05.588.15.708.101.12.337.205.708.256.083 0 .124.066.124.2zm8.028-2.83c0 .938-.335 1.767-1.005 2.486-.67.719-1.447 1.078-2.328 1.078-.49 0-.965-.102-1.424-.306-.314-.142-.592-.214-.835-.214-.387 0-.642.163-.766.49-.025.06-.09.092-.193.092-.134 0-.201-.041-.201-.123.041-.428.062-.943.062-1.545V65.85c0-.413-.053-.683-.159-.81-.105-.128-.336-.21-.692-.246-.082 0-.124-.06-.124-.183 0-.143.042-.214.124-.214.918-.235 1.57-.505 1.957-.811.077-.061.142-.092.193-.092.145 0 .217.04.217.122a37.933 37.933 0 00-.124 2.677v2.287c.485-.479 1.078-.719 1.779-.719 1.047 0 1.895.314 2.544.941.65.627.975 1.476.975 2.547zm-1.555.061c0-.938-.188-1.672-.564-2.202-.377-.53-.905-.796-1.586-.796-.366 0-.723.136-1.07.41-.349.272-.523.544-.523.814v3.533c0 .27.208.545.623.823.415.278.8.417 1.156.417.619 0 1.1-.273 1.446-.819.346-.545.518-1.272.518-2.18zm14.889 3.06c0 .142-.041.214-.124.214-.206 0-.459-.015-.758-.046a9.662 9.662 0 00-.882-.046c-.252 0-.544.015-.874.046a7.7 7.7 0 01-.765.046c-.083 0-.124-.072-.124-.214 0-.128.041-.197.124-.207.35-.04.58-.14.688-.298.108-.158.163-.49.163-.994v-2.555c0-.576-.111-.996-.333-1.258-.222-.263-.57-.394-1.044-.394-.624 0-1.14.209-1.547.627v3.58c0 .504.057.836.17.994.114.158.346.257.696.298.083.01.124.08.124.207 0 .142-.041.214-.124.214-.206 0-.446-.015-.72-.046a8.11 8.11 0 00-.819-.046c-.258 0-.539.015-.843.046-.273.03-.513.046-.72.046-.082 0-.123-.072-.123-.214 0-.128.041-.197.124-.207.356-.04.589-.14.7-.298.11-.158.166-.49.166-.994v-2.555c0-.571-.113-.99-.34-1.254-.227-.266-.578-.398-1.052-.398-.3 0-.563.056-.793.168-.23.112-.476.311-.739.597v3.442c0 .504.056.836.167.994.11.158.344.257.7.298.082.01.123.08.123.207 0 .142-.04.214-.123.214-.212 0-.47-.015-.774-.046a9.848 9.848 0 00-.881-.046c-.258 0-.552.015-.882.046-.294.03-.547.046-.758.046-.083 0-.124-.072-.124-.214 0-.128.041-.197.124-.207.438-.056.72-.16.847-.313.126-.153.19-.48.19-.98v-2.83c0-.407-.054-.675-.16-.802-.105-.128-.336-.212-.691-.253-.083 0-.124-.066-.124-.199 0-.122.041-.183.124-.183.51-.128.935-.272 1.276-.432.34-.161.554-.292.642-.394.051-.062.108-.092.17-.092.144 0 .216.04.216.122l-.062.964c.743-.683 1.434-1.025 2.073-1.025.98 0 1.645.372 1.996 1.117.783-.745 1.55-1.117 2.297-1.117.706 0 1.257.199 1.651.597.394.397.592.933.592 1.606v2.922c0 .5.063.826.19.979.126.153.408.257.846.313.083.01.124.08.124.207zm5.607.382c-.289 0-.54-.07-.754-.21a1.05 1.05 0 01-.437-.57c-.552.56-1.274.841-2.166.841-.464 0-.843-.141-1.136-.424a1.41 1.41 0 01-.441-1.06c0-1.045 1.253-1.891 3.759-2.539l.046-1.193v-.038c0-.367-.092-.66-.275-.876a.909.909 0 00-.73-.325c-.305 0-.563.073-.774.218-.211.145-.32.328-.325.547-.005.326-.091.581-.259.765-.167.183-.39.275-.669.275a.564.564 0 01-.402-.145.51.51 0 01-.155-.39c0-.393.361-.805 1.083-1.236.722-.43 1.392-.646 2.01-.646.558 0 1.009.163 1.354.49.346.326.519.764.519 1.315v.092l-.109 3.457v.054c0 .535.176.803.526.803.17 0 .369-.102.596-.306l.054-.016c.041 0 .08.027.116.08a.307.307 0 01.054.173c0 .148-.156.329-.468.543a1.76 1.76 0 01-1.017.321zm-1.19-3.442c-1.507.337-2.26.893-2.26 1.668 0 .724.284 1.086.851 1.086.274 0 .543-.068.809-.203.265-.135.444-.302.537-.5l.062-2.05zm10.958 3.06c0 .142-.04.214-.123.214a7.5 7.5 0 01-.758-.046 9.597 9.597 0 00-.874-.046 9.79 9.79 0 00-.89.046c-.304.03-.56.046-.765.046-.083 0-.124-.072-.124-.214 0-.128.041-.197.124-.207.355-.04.589-.14.7-.298.11-.158.166-.49.166-.994v-2.555c0-.571-.114-.99-.34-1.254-.227-.266-.578-.398-1.052-.398-.3 0-.564.056-.793.168-.23.112-.476.311-.739.597v3.442c0 .504.056.836.167.994.11.158.344.257.7.298.082.01.123.08.123.207 0 .142-.04.214-.123.214-.212 0-.47-.015-.774-.046a9.848 9.848 0 00-.882-.046c-.247 0-.536.015-.866.046a8.12 8.12 0 01-.773.046c-.083 0-.124-.072-.124-.214 0-.128.041-.197.124-.207.443-.056.73-.162.858-.317.13-.156.194-.48.194-.975v-2.83c0-.408-.053-.676-.159-.803-.106-.128-.341-.212-.708-.253-.082 0-.123-.066-.123-.199 0-.122.04-.183.123-.183.51-.128.936-.272 1.277-.432.34-.161.554-.292.642-.394.051-.062.108-.092.17-.092.144 0 .216.04.216.122l-.062.964c.743-.683 1.434-1.025 2.073-1.025.701 0 1.25.199 1.644.597.394.397.591.933.591 1.606v2.922c0 .5.063.826.19.979.126.153.408.257.847.313.082.01.123.08.123.207zm9.29-5.874c0 .275-.068.413-.202.413l-2.305-.062v3.672c0 .958.346 1.438 1.037 1.438.428 0 .817-.1 1.168-.299.04 0 .078.027.112.08.033.054.05.112.05.173 0 .127-.192.3-.576.516a2.59 2.59 0 01-1.296.325c-.587 0-1.057-.177-1.407-.531-.35-.355-.526-.823-.526-1.404v-.069l.03-3.717c0-.143-.061-.214-.185-.214h-.588c-.113 0-.17-.066-.17-.199 0-.102.047-.178.14-.23.716-.418 1.34-1.006 1.871-1.766.057-.082.129-.123.217-.123.144 0 .216.041.216.123l-.062 1.46h2.274c.134 0 .201.138.201.414zm8.112 2.83c0 1.014-.333 1.85-1.001 2.504-.668.656-1.533.983-2.595.983-1.062 0-1.928-.329-2.599-.986-.67-.658-1.005-1.492-1.005-2.501 0-1.025.338-1.878 1.013-2.559.676-.68 1.54-1.02 2.591-1.02 1.057 0 1.92.338 2.591 1.016.67.679 1.005 1.533 1.005 2.563zm-1.554-.016c0-.933-.182-1.679-.545-2.237-.364-.558-.863-.837-1.497-.837-.629 0-1.127.28-1.493.84-.366.562-.549 1.306-.549 2.234 0 .923.18 1.656.542 2.2.36.542.86.814 1.5.814s1.14-.27 1.5-.807c.361-.538.542-1.274.542-2.207zm11.725-2.8a.757.757 0 01-.19.521.592.592 0 01-.46.214c-.227 0-.45-.074-.673-.222-.175-.117-.327-.176-.456-.176-.335 0-.68.194-1.036.582v3.442c0 .443.077.753.232.929.154.176.484.297.99.363.082.01.123.08.123.207 0 .142-.04.214-.123.214-.212 0-.51-.015-.897-.046a15.53 15.53 0 00-1.021-.046c-.258 0-.57.015-.936.046-.33.03-.6.046-.812.046-.083 0-.124-.072-.124-.214 0-.128.041-.197.124-.207.448-.056.736-.16.862-.313s.19-.48.19-.98v-2.83c0-.407-.053-.675-.159-.802-.106-.128-.342-.212-.708-.253-.082 0-.123-.066-.123-.199 0-.122.04-.183.123-.183a7.2 7.2 0 001.265-.425c.332-.155.55-.29.653-.401.062-.062.124-.092.186-.092.144 0 .217.04.217.122l-.062.964c.412-.377.767-.642 1.063-.795.297-.153.592-.23.886-.23a.88.88 0 01.61.23.7.7 0 01.256.535zm6.667 1.73c0 .142-.093.214-.279.214h-4.238c-.03.275-.046.56-.046.856 0 .821.197 1.452.591 1.893.395.441.956.662 1.683.662.366 0 .734-.097 1.106-.29a2.62 2.62 0 00.897-.743l.038-.015c.047 0 .092.028.136.084a.313.313 0 01.065.2c0 .106-.165.33-.495.668-.33.34-.688.598-1.075.777a2.865 2.865 0 01-1.214.267c-.928 0-1.71-.336-2.343-1.01-.635-.672-.952-1.498-.952-2.477 0-1 .311-1.846.932-2.54.622-.693 1.41-1.04 2.363-1.04.8 0 1.471.259 2.015.776.544.518.816 1.09.816 1.718zm-1.408-.674c0-.382-.133-.7-.398-.952-.266-.252-.607-.378-1.025-.378-.397 0-.741.164-1.032.493-.292.329-.489.76-.592 1.296l2.15-.06c.325-.006.556-.037.692-.093a.305.305 0 00.205-.306zm9.83 1.76c0 1.004-.342 1.837-1.028 2.497-.686.66-1.562.99-2.63.99-.613 0-1.14-.117-1.578-.352v2.356c0 .495.065.821.194.98.129.157.415.264.858.32.083 0 .124.072.124.215 0 .142-.041.214-.124.214a9.39 9.39 0 01-.82-.046c-.36-.03-.665-.046-.912-.046-.258 0-.57.015-.936.046-.33.03-.6.046-.812.046-.083 0-.124-.072-.124-.214 0-.143.041-.215.124-.215.438-.056.723-.163.854-.32.132-.159.198-.485.198-.98v-6.776c0-.408-.053-.676-.159-.803-.106-.128-.341-.212-.708-.253-.082 0-.123-.066-.123-.199 0-.122.041-.183.123-.183.5-.123.92-.263 1.257-.42.338-.159.561-.294.67-.406.056-.062.11-.092.162-.092.144 0 .216.04.216.122l-.062.964a3.93 3.93 0 01.983-.73c.37-.197.688-.295.951-.295 1.016 0 1.82.328 2.413.983.593.655.89 1.52.89 2.597zm-1.554-.016c0-.851-.187-1.515-.56-1.992-.375-.477-.9-.715-1.575-.715-.283 0-.54.058-.77.176-.229.117-.488.334-.777.65v3.748c0 .326.147.599.441.818.294.22.652.329 1.075.329.702 0 1.238-.262 1.609-.784.371-.523.557-1.266.557-2.23zm6.125 3.044c0 .143-.04.215-.123.215-.212 0-.482-.013-.812-.039a14.047 14.047 0 00-.936-.038 13.9 13.9 0 00-.92.038c-.33.026-.601.039-.813.039-.082 0-.124-.072-.124-.215 0-.127.042-.196.124-.206.439-.051.723-.154.855-.31.131-.155.197-.483.197-.983V65.85c0-.413-.051-.683-.155-.81-.103-.128-.34-.213-.711-.253-.083-.01-.124-.074-.124-.192 0-.122.041-.183.124-.183a8.279 8.279 0 001.33-.44c.346-.155.562-.287.65-.394a.228.228 0 01.17-.084c.144 0 .217.04.217.122-.083 1.143-.124 2.03-.124 2.662v6.677c0 .5.064.828.193.983.13.156.415.259.859.31.082.01.123.079.123.206zm5.585.398c-.29 0-.54-.07-.755-.21a1.05 1.05 0 01-.437-.57c-.551.56-1.273.841-2.165.841-.464 0-.843-.141-1.137-.424a1.41 1.41 0 01-.44-1.06c0-1.045 1.252-1.891 3.758-2.539l.046-1.193v-.038c0-.367-.091-.66-.274-.876a.909.909 0 00-.731-.325c-.304 0-.562.073-.774.218-.211.145-.32.328-.324.547-.006.326-.092.581-.26.765-.167.183-.39.275-.669.275a.564.564 0 01-.402-.145.51.51 0 01-.154-.39c0-.393.36-.805 1.082-1.236.722-.43 1.393-.646 2.011-.646.557 0 1.008.163 1.354.49.345.326.518.764.518 1.315v.092l-.108 3.457v.054c0 .535.175.803.526.803.17 0 .368-.102.595-.306l.054-.016c.042 0 .08.027.116.08a.307.307 0 01.054.173c0 .148-.155.329-.467.543a1.76 1.76 0 01-1.017.321zm-1.192-3.442c-1.505.337-2.258.893-2.258 1.668 0 .724.284 1.086.85 1.086.274 0 .543-.068.809-.203s.445-.302.538-.5l.061-2.05zm9.08-2.355c0 .418-.211.627-.634.627a.793.793 0 01-.445-.115c-.116-.076-.233-.242-.351-.497-.14-.301-.288-.499-.445-.593-.157-.094-.362-.141-.615-.141-.624 0-1.1.256-1.427.768-.327.513-.491 1.261-.491 2.245 0 .821.206 1.483.619 1.985.412.502.964.753 1.655.753.784 0 1.405-.242 1.864-.726l.038-.016c.047 0 .092.03.136.088a.318.318 0 01.065.195c0 .102-.15.278-.452.528a3.25 3.25 0 01-2.13.757c-.924 0-1.714-.335-2.371-1.005-.658-.671-.986-1.519-.986-2.544 0-1.014.344-1.854 1.032-2.52.688-.665 1.504-.998 2.448-.998.696 0 1.285.119 1.767.356s.723.521.723.853zm7.302 1.285c0 .142-.093.214-.279.214h-4.238c-.031.275-.047.56-.047.856 0 .821.198 1.452.592 1.893.394.441.955.662 1.682.662.366 0 .735-.097 1.106-.29a2.62 2.62 0 00.897-.743l.039-.015c.046 0 .092.028.135.084a.313.313 0 01.066.2c0 .106-.165.33-.495.668-.33.34-.688.598-1.075.777a2.865 2.865 0 01-1.214.267c-.928 0-1.71-.336-2.344-1.01-.634-.672-.951-1.498-.951-2.477 0-1 .31-1.846.932-2.54.621-.693 1.409-1.04 2.363-1.04.799 0 1.47.259 2.015.776.544.518.816 1.09.816 1.718zm-1.408-.674c0-.382-.133-.7-.398-.952-.266-.252-.608-.378-1.025-.378-.397 0-.741.164-1.033.493-.291.329-.488.76-.591 1.296l2.15-.06c.325-.006.555-.037.692-.093a.305.305 0 00.205-.306zm15.058-2.5c0 .897-.349 1.65-1.048 2.26-.698.609-1.563.914-2.594.914-.62 0-1.228-.026-1.826-.077v2.708c0 .357.045.606.136.75.09.142.247.255.471.34.225.084.553.151.987.202.082.01.123.08.123.207 0 .142-.04.214-.123.214-.346 0-.756-.015-1.23-.046a17.57 17.57 0 00-1.153-.046c-.314 0-.7.015-1.16.046-.48.03-.892.046-1.237.046-.083 0-.124-.072-.124-.214 0-.128.041-.197.124-.207.624-.071 1.048-.186 1.272-.344.224-.158.337-.474.337-.948v-7.198c0-.357-.046-.608-.136-.753-.09-.145-.249-.26-.475-.344-.227-.084-.56-.152-.998-.203-.083 0-.124-.071-.124-.214 0-.143.041-.214.124-.214.345 0 .758.015 1.237.046.46.03.846.046 1.16.046.315 0 .7-.016 1.153-.046.474-.03.884-.046 1.23-.046 1.268 0 2.23.265 2.888.795.658.53.986 1.306.986 2.325zm-1.717 0c0-.816-.202-1.454-.607-1.913-.404-.459-.942-.688-1.612-.688-.402 0-.713.03-.932.092-.22.06-.374.16-.464.298-.09.138-.136.41-.136.818v3.511c0 .22.07.366.21.44.138.074.44.11.904.11.84 0 1.49-.236 1.95-.71.458-.475.687-1.127.687-1.959zm7.943 1.445a.757.757 0 01-.189.52.592.592 0 01-.46.214c-.227 0-.451-.074-.673-.222-.175-.117-.327-.176-.456-.176-.336 0-.681.194-1.037.582v3.442c0 .443.078.753.232.929.155.176.485.297.99.363.083.01.124.08.124.207 0 .142-.041.214-.124.214-.211 0-.51-.015-.897-.046-.428-.03-.768-.046-1.02-.046-.259 0-.57.015-.937.046-.33.03-.6.046-.812.046-.082 0-.124-.072-.124-.214 0-.128.042-.197.124-.207.449-.056.736-.16.863-.313.126-.153.19-.48.19-.98v-2.83c0-.407-.054-.675-.16-.802-.105-.128-.341-.212-.707-.253-.083 0-.124-.066-.124-.199 0-.122.041-.183.124-.183.51-.128.932-.27 1.264-.425.333-.155.55-.29.654-.401.062-.062.124-.092.186-.092.144 0 .216.04.216.122l-.062.964c.413-.377.767-.642 1.064-.795.296-.153.591-.23.885-.23.237 0 .441.077.611.23a.7.7 0 01.255.535zm6.667 1.729c0 .142-.092.214-.278.214h-4.238c-.031.275-.047.56-.047.856 0 .821.197 1.452.592 1.893.394.441.955.662 1.682.662.366 0 .735-.097 1.106-.29a2.62 2.62 0 00.897-.743l.039-.015c.046 0 .091.028.135.084a.313.313 0 01.066.2c0 .106-.165.33-.495.668-.33.34-.688.598-1.075.777a2.865 2.865 0 01-1.214.267c-.928 0-1.71-.336-2.344-1.01-.634-.672-.951-1.498-.951-2.477 0-1 .31-1.846.932-2.54.621-.693 1.409-1.04 2.363-1.04.799 0 1.47.259 2.014.776.544.518.816 1.09.816 1.718zm-1.407-.674c0-.382-.133-.7-.399-.952-.265-.252-.607-.378-1.024-.378-.397 0-.742.164-1.033.493-.291.329-.488.76-.592 1.296l2.15-.06c.325-.006.556-.037.693-.093a.305.305 0 00.205-.306zm7.394 3.045c0 .622-.248 1.144-.743 1.567-.495.424-1.093.635-1.794.635-.248 0-.63-.053-1.145-.16-.387-.077-.65-.115-.789-.115-.04-.357-.136-.9-.286-1.63 0-.076.075-.114.224-.114.124 0 .199.04.225.122.118.378.353.707.704.987.35.28.711.42 1.082.42.387 0 .687-.104.901-.313.214-.209.321-.502.321-.88a.886.886 0 00-.266-.634c-.178-.184-.564-.41-1.157-.68-.778-.353-1.293-.684-1.543-.995a1.727 1.727 0 01-.375-1.117c0-.535.235-.995.704-1.38.47-.385 1.023-.578 1.663-.578.268 0 .644.046 1.129.138.268.05.443.076.526.076.015.602.049 1.114.1 1.538 0 .076-.074.114-.224.114-.129 0-.2-.04-.216-.122-.057-.372-.199-.674-.426-.906a1.097 1.097 0 00-.812-.348c-.804 0-1.206.346-1.206 1.04 0 .234.095.451.286.65.19.199.606.456 1.245.772.763.378 1.266.704 1.508.98.243.275.364.586.364.933zm3.527-7.488c0 .214-.08.4-.236.558a.773.773 0 01-.569.237.773.773 0 01-.568-.237.766.766 0 01-.236-.558c0-.225.077-.413.232-.566a.782.782 0 01.572-.23c.222 0 .411.077.569.23a.758.758 0 01.236.566zm1.082 9.247c0 .142-.041.214-.123.214-.212 0-.483-.015-.813-.046a11.72 11.72 0 00-.935-.046c-.258 0-.568.015-.928.046a9.12 9.12 0 01-.805.046c-.082 0-.124-.072-.124-.214 0-.128.042-.197.124-.207.438-.056.72-.16.847-.313.126-.153.19-.48.19-.98v-2.83c0-.407-.053-.675-.159-.802-.106-.128-.336-.212-.692-.253-.083 0-.124-.066-.124-.199 0-.122.041-.183.124-.183a8.279 8.279 0 001.33-.44c.346-.156.562-.284.65-.386.051-.062.108-.092.17-.092.144 0 .216.04.216.122-.082 1.142-.123 2.03-.123 2.662v2.402c0 .5.063.826.19.979.126.153.413.257.862.313.082.01.123.08.123.207zm8.5-.29c0 .106-.041.165-.124.175a7.107 7.107 0 00-1.02.214 5.326 5.326 0 00-.905.321.66.66 0 01-.248.085c-.082 0-.124-.041-.124-.123l.062-.826c-.546.592-1.242.887-2.088.887-.892 0-1.651-.339-2.278-1.017-.626-.678-.94-1.491-.94-2.44 0-1.076.347-1.946 1.04-2.612.694-.665 1.564-.998 2.611-.998.598 0 1.15.184 1.655.55V65.85c0-.413-.051-.683-.154-.81-.104-.128-.34-.213-.712-.253-.082-.01-.124-.074-.124-.192 0-.132.042-.198.124-.198a7.02 7.02 0 001.26-.406c.356-.158.596-.298.72-.42a.23.23 0 01.162-.077c.145 0 .217.04.217.122a37.827 37.827 0 00-.124 2.662v6.738c0 .352.052.588.155.708.103.12.34.205.711.256.083 0 .124.066.124.2zm-2.359-.827v-3.916c0-.265-.156-.515-.468-.75a1.657 1.657 0 00-1.017-.351c-1.505 0-2.258 1.045-2.258 3.135 0 .827.18 1.512.541 2.058.361.546.836.818 1.423.818.336 0 .64-.075.913-.225.273-.15.562-.407.866-.769zm9.127-3.013c0 .142-.093.214-.279.214h-4.238c-.031.275-.047.56-.047.856 0 .821.198 1.452.592 1.893.395.441.955.662 1.682.662.366 0 .735-.097 1.106-.29a2.62 2.62 0 00.897-.743l.04-.015c.046 0 .09.028.135.084a.313.313 0 01.065.2c0 .106-.165.33-.495.668-.33.34-.688.598-1.075.777a2.865 2.865 0 01-1.214.267c-.928 0-1.71-.336-2.344-1.01-.634-.672-.95-1.498-.95-2.477 0-1 .31-1.846.931-2.54.621-.693 1.409-1.04 2.363-1.04.8 0 1.47.259 2.015.776.544.518.816 1.09.816 1.718zm-1.408-.674c0-.382-.133-.7-.398-.952-.266-.252-.607-.378-1.025-.378-.397 0-.741.164-1.033.493-.29.329-.488.76-.591 1.296l2.15-.06c.325-.006.555-.037.692-.093a.305.305 0 00.205-.306zm10.372 4.804c0 .142-.042.214-.124.214-.206 0-.459-.015-.758-.046a9.597 9.597 0 00-.874-.046 9.79 9.79 0 00-.89.046c-.304.03-.559.046-.765.046-.083 0-.124-.072-.124-.214 0-.128.041-.197.124-.207.356-.04.589-.14.7-.298.11-.158.166-.49.166-.994v-2.555c0-.571-.113-.99-.34-1.254-.227-.266-.578-.398-1.052-.398-.3 0-.563.056-.793.168-.23.112-.476.311-.738.597v3.442c0 .504.055.836.166.994.11.158.344.257.7.298.082.01.124.08.124.207 0 .142-.042.214-.124.214-.212 0-.47-.015-.774-.046a9.848 9.848 0 00-.881-.046c-.248 0-.537.015-.867.046a8.12 8.12 0 01-.773.046c-.083 0-.124-.072-.124-.214 0-.128.041-.197.124-.207.443-.056.73-.162.858-.317.13-.156.194-.48.194-.975v-2.83c0-.408-.053-.676-.159-.803-.105-.128-.341-.212-.707-.253-.083 0-.124-.066-.124-.199 0-.122.041-.183.124-.183.51-.128.935-.272 1.276-.432.34-.161.554-.292.642-.394.051-.062.108-.092.17-.092.144 0 .216.04.216.122l-.061.964c.742-.683 1.433-1.025 2.072-1.025.702 0 1.25.199 1.644.597.394.397.591.933.591 1.606v2.922c0 .5.064.826.19.979.126.153.409.257.847.313.082.01.124.08.124.207zm5.421-5.874c0 .275-.067.413-.2.413l-2.306-.062v3.672c0 .958.346 1.438 1.037 1.438.428 0 .817-.1 1.168-.299.04 0 .078.027.112.08.033.054.05.112.05.173 0 .127-.192.3-.576.516a2.59 2.59 0 01-1.296.325c-.587 0-1.057-.177-1.407-.531-.35-.355-.526-.823-.526-1.404v-.069l.03-3.717c0-.143-.061-.214-.185-.214h-.588c-.113 0-.17-.066-.17-.199 0-.102.047-.178.14-.23.716-.418 1.34-1.006 1.871-1.766.057-.082.129-.123.217-.123.144 0 .216.041.216.123l-.062 1.46h2.274c.134 0 .201.138.201.414zM31.225 97.416c0 .142-.041.213-.124.213-.356 0-.758-.015-1.206-.045a12.66 12.66 0 00-.99-.046c-.315 0-.704.015-1.168.046-.49.03-.908.045-1.253.045-.083 0-.124-.07-.124-.214 0-.142.03-.214.093-.214.459-.02.789-.08.99-.18.2-.099.301-.253.301-.462 0-.133-.051-.345-.154-.635l-.874-2.562h-3.187l-.881 2.37c-.114.317-.17.562-.17.735 0 .449.417.693 1.252.734.062 0 .093.072.093.214 0 .143-.041.214-.124.214-.309 0-.652-.015-1.028-.045a11.23 11.23 0 00-.952-.046c-.221 0-.5.015-.835.046-.35.03-.65.045-.897.045-.077 0-.116-.063-.116-.19 0-.144.06-.22.178-.23.428-.041.767-.158 1.017-.352.25-.194.51-.589.777-1.186l3.62-8.788c.03-.081.103-.122.216-.122.124 0 .201.038.232.115l3.195 8.795c.18.495.424.86.73 1.094.307.235.719.383 1.234.444.103.01.155.079.155.206zm-4.68-4.544l-1.36-3.908-1.47 3.908h2.83zm13.095 4.543c0 .143-.042.214-.124.214-.206 0-.459-.015-.758-.045a9.597 9.597 0 00-.874-.046 9.79 9.79 0 00-.89.046c-.304.03-.559.045-.765.045-.083 0-.124-.07-.124-.214 0-.127.041-.196.124-.206.356-.041.589-.14.7-.299.11-.158.166-.489.166-.994v-2.554c0-.572-.113-.99-.34-1.255-.227-.265-.578-.398-1.052-.398-.3 0-.563.057-.793.169-.23.112-.475.31-.738.596v3.442c0 .505.055.836.166.994.11.159.344.258.7.299.082.01.124.079.124.206 0 .143-.042.214-.124.214a8.08 8.08 0 01-.774-.045 9.848 9.848 0 00-.881-.046c-.248 0-.537.015-.867.046-.304.03-.562.045-.773.045-.082 0-.124-.07-.124-.214 0-.127.042-.196.124-.206.443-.056.73-.162.859-.318.128-.155.193-.48.193-.975v-2.83c0-.408-.053-.675-.159-.803-.105-.127-.341-.211-.707-.252-.083 0-.124-.067-.124-.2 0-.122.041-.183.124-.183a6.97 6.97 0 001.276-.432c.34-.16.554-.292.642-.394.051-.06.108-.092.17-.092.144 0 .216.041.216.123l-.061.964c.742-.684 1.433-1.025 2.072-1.025.702 0 1.25.199 1.644.596.394.398.592.933.592 1.606v2.922c0 .5.063.826.189.98.126.152.409.257.847.313.082.01.124.079.124.206zm8.368-.29c0 .107-.041.165-.124.176a7.107 7.107 0 00-1.02.214 5.326 5.326 0 00-.905.321.66.66 0 01-.248.084c-.082 0-.124-.04-.124-.122l.062-.826c-.546.591-1.242.887-2.088.887-.892 0-1.651-.34-2.278-1.017-.626-.679-.94-1.492-.94-2.44 0-1.076.347-1.947 1.04-2.612.694-.666 1.564-.998 2.611-.998.598 0 1.15.183 1.655.55v-2.547c0-.413-.051-.683-.155-.81-.103-.128-.34-.212-.711-.253-.083-.01-.124-.074-.124-.191 0-.133.041-.199.124-.199a7.02 7.02 0 001.26-.405c.356-.158.596-.298.72-.42a.23.23 0 01.162-.077c.145 0 .217.04.217.122a37.827 37.827 0 00-.124 2.662v6.738c0 .352.052.588.155.708.103.12.34.205.711.256.083 0 .124.066.124.199zm-2.359-.826v-3.916c0-.266-.156-.515-.468-.75a1.657 1.657 0 00-1.017-.352c-1.505 0-2.258 1.045-2.258 3.136 0 .826.18 1.512.541 2.058.361.545.835.818 1.423.818.335 0 .64-.075.913-.226.273-.15.562-.406.866-.768zm8.214-4.742a.757.757 0 01-.19.52.592.592 0 01-.46.214c-.227 0-.45-.074-.673-.222-.175-.117-.327-.176-.456-.176-.335 0-.68.194-1.036.581v3.442c0 .444.077.754.232.93.154.175.484.297.99.363.082.01.123.079.123.206 0 .143-.04.214-.123.214-.212 0-.51-.015-.898-.045a14.806 14.806 0 00-1.02-.046c-.258 0-.57.015-.936.046-.33.03-.601.045-.812.045-.083 0-.124-.07-.124-.214 0-.127.041-.196.124-.206.448-.056.736-.16.862-.314.126-.153.19-.48.19-.979v-2.83c0-.408-.053-.675-.16-.803-.105-.127-.34-.211-.707-.252-.082 0-.124-.067-.124-.2 0-.122.042-.183.124-.183.51-.127.932-.269 1.265-.424.332-.156.55-.29.653-.402.062-.06.124-.092.186-.092.144 0 .217.041.217.123l-.062.964c.412-.378.767-.643 1.063-.796.297-.153.592-.23.886-.23a.88.88 0 01.61.23.7.7 0 01.256.536zm6.667 1.728c0 .143-.093.214-.279.214h-4.238c-.03.276-.046.561-.046.857 0 .82.197 1.452.591 1.893.395.441.955.661 1.682.661.367 0 .735-.096 1.106-.29a2.62 2.62 0 00.898-.742l.038-.015c.047 0 .092.028.136.084a.313.313 0 01.065.199c0 .107-.165.33-.495.669-.33.339-.688.598-1.075.776a2.865 2.865 0 01-1.214.268c-.928 0-1.71-.337-2.343-1.01-.635-.673-.952-1.499-.952-2.478 0-1 .311-1.846.932-2.54.622-.693 1.41-1.04 2.363-1.04.8 0 1.47.26 2.015.777.544.518.816 1.09.816 1.717zm-1.408-.673c0-.382-.133-.7-.398-.952-.266-.253-.607-.379-1.025-.379-.397 0-.741.165-1.032.494-.292.328-.489.76-.592 1.296l2.15-.061c.325-.005.556-.036.692-.092a.305.305 0 00.205-.306zm13.172-1.361c0 .127-.042.196-.124.206-.423.061-.713.17-.87.329-.158.158-.344.48-.561.964l-2.22 5.002a.22.22 0 01-.2.122c-.083 0-.14-.04-.171-.122l-1.585-4.008-1.81 4.008c-.052.081-.119.122-.201.122-.093 0-.158-.04-.194-.122l-2.08-5.002c-.18-.439-.377-.754-.588-.945-.211-.191-.495-.305-.85-.34-.083-.01-.125-.082-.125-.214 0-.143.042-.215.124-.215.212 0 .472.016.781.046.346.03.647.046.905.046.253 0 .55-.015.89-.046.309-.03.57-.046.78-.046.083 0 .125.072.125.215 0 .132-.042.204-.124.214-.258.03-.438.083-.542.157-.103.073-.154.19-.154.348 0 .158.072.42.216.787l1.253 3.144 1.315-2.937-.108-.398a2.978 2.978 0 01-.093-.237c-.129-.342-.24-.565-.333-.67-.092-.104-.26-.169-.502-.194-.083-.01-.124-.082-.124-.214 0-.143.041-.215.124-.215.185 0 .41.016.673.046.283.03.533.046.75.046.252 0 .549-.015.89-.046.314-.03.577-.046.788-.046.083 0 .124.072.124.215 0 .127-.041.196-.124.206-.541.071-.812.329-.812.773 0 .204.028.377.085.52l1.16 3.044 1.238-2.876c.144-.337.216-.617.216-.841 0-.352-.23-.559-.688-.62-.088-.01-.132-.079-.132-.206 0-.143.042-.215.124-.215.222 0 .464.016.727.046.253.03.48.046.68.046.11 0 .272-.013.488-.038.294-.036.539-.054.735-.054.082 0 .124.072.124.215zm9.04-4.046c0 .142-.04.214-.123.214-.438.05-.77.118-.998.202-.226.084-.385.2-.475.345-.09.145-.136.396-.136.753v6.769a6.39 6.39 0 01-.63 2.757c-.42.89-.977 1.604-1.67 2.142-.694.538-1.412.807-2.155.807-.433 0-.776-.09-1.028-.272a.847.847 0 01-.38-.723c0-.285.107-.522.318-.71.211-.19.482-.284.812-.284a.95.95 0 01.44.1c.13.066.285.203.465.413.242.29.472.435.688.435.475 0 .854-.368 1.137-1.105.284-.737.426-1.78.426-3.132V88.72c0-.352-.043-.6-.128-.746-.085-.145-.241-.261-.468-.348-.227-.087-.56-.155-.998-.206-.082 0-.123-.072-.123-.214 0-.143.04-.215.123-.215.346 0 .756.016 1.23.046.454.03.838.046 1.153.046.314 0 .7-.015 1.16-.046.48-.03.892-.046 1.237-.046.083 0 .124.072.124.215zm5.802 10.593c-.29 0-.54-.07-.755-.21a1.05 1.05 0 01-.437-.57c-.551.56-1.273.84-2.165.84-.464 0-.843-.14-1.137-.424a1.41 1.41 0 01-.44-1.059c0-1.045 1.252-1.892 3.758-2.54l.046-1.192v-.039c0-.367-.091-.659-.274-.875a.909.909 0 00-.731-.325c-.304 0-.562.072-.774.218-.21.145-.32.327-.324.546-.006.327-.092.582-.26.765-.167.184-.39.276-.668.276a.564.564 0 01-.403-.146.51.51 0 01-.154-.39c0-.392.36-.804 1.082-1.235.722-.43 1.393-.646 2.011-.646.557 0 1.008.163 1.354.49.345.326.518.764.518 1.315v.092l-.108 3.457v.053c0 .536.175.803.526.803.17 0 .368-.102.595-.306l.054-.015c.042 0 .08.027.116.08a.305.305 0 01.055.172c0 .148-.156.33-.468.543a1.76 1.76 0 01-1.017.322zm-1.192-3.442c-1.505.336-2.258.892-2.258 1.667 0 .724.284 1.086.85 1.086.274 0 .544-.067.81-.202.265-.135.444-.302.537-.501l.061-2.05zM95.024 92c0 .418-.21.627-.634.627a.793.793 0 01-.444-.114c-.116-.077-.234-.243-.352-.498-.14-.3-.288-.498-.445-.592-.157-.095-.362-.142-.615-.142-.624 0-1.1.256-1.427.769-.327.512-.491 1.26-.491 2.245 0 .82.206 1.482.619 1.984.412.503.964.754 1.655.754.784 0 1.405-.242 1.864-.727l.038-.015c.047 0 .092.03.136.088a.318.318 0 01.066.195c0 .102-.151.278-.453.528a3.25 3.25 0 01-2.13.757c-.924 0-1.714-.335-2.371-1.006-.658-.67-.986-1.518-.986-2.543 0-1.015.344-1.855 1.032-2.52.689-.666 1.504-.998 2.448-.998.696 0 1.285.118 1.767.355s.723.522.723.853zm9.073 5.415c0 .143-.042.214-.124.214-.206 0-.472-.015-.797-.045a10.71 10.71 0 00-.912-.046c-.253 0-.57.015-.952.046-.355.03-.636.045-.843.045-.082 0-.123-.07-.123-.214 0-.127.04-.196.123-.206a.722.722 0 00.287-.077c.056-.035.085-.104.085-.206 0-.153-.248-.49-.743-1.01l-1.237-1.361a.568.568 0 00-.418-.153v1.514c0 .449.055.768.166.956.111.189.319.301.623.337.082.01.124.079.124.206 0 .143-.042.214-.124.214-.222 0-.51-.015-.866-.045a9.519 9.519 0 00-.805-.046c-.221 0-.49.015-.804.046-.3.03-.547.045-.743.045-.082 0-.123-.07-.123-.214 0-.127.04-.196.123-.206.434-.046.715-.147.843-.302.13-.156.194-.486.194-.99V88.81c0-.413-.05-.684-.151-.811-.1-.128-.334-.212-.7-.252-.082-.01-.124-.074-.124-.192 0-.132.042-.199.124-.199.882-.203 1.534-.474 1.957-.81.077-.061.142-.092.193-.092.145 0 .217.04.217.122a27.153 27.153 0 00-.124 2.662v4.734c.186 0 .333-.048.44-.145l1.153-1.078c.036-.036.096-.09.178-.16.428-.383.642-.666.642-.85 0-.132-.206-.224-.619-.275-.082-.01-.123-.082-.123-.214 0-.143.04-.215.123-.215.217 0 .49.016.82.046.304.03.557.046.758.046.15 0 .343-.013.58-.038.289-.036.547-.054.774-.054.082 0 .123.072.123.215 0 .132-.04.204-.123.214a3.08 3.08 0 00-.987.26c-.28.132-.66.408-1.14.826l-1.33 1.162 2.026 2.203c.428.464.789.783 1.083.956.293.174.678.286 1.152.337.082.01.124.079.124.206zm5.421-1.759c0 .622-.247 1.145-.742 1.568-.495.423-1.093.635-1.794.635-.248 0-.63-.054-1.145-.16-.387-.077-.65-.115-.789-.115-.041-.357-.137-.9-.286-1.63 0-.076.075-.114.224-.114.124 0 .199.04.224.122.119.377.354.706.704.987.35.28.712.42 1.083.42.387 0 .687-.104.901-.313.214-.21.321-.502.321-.88a.886.886 0 00-.267-.635c-.178-.183-.563-.41-1.156-.68-.779-.352-1.293-.684-1.543-.995a1.727 1.727 0 01-.375-1.116c0-.536.234-.996.704-1.38.469-.386 1.023-.578 1.663-.578.268 0 .644.046 1.129.137.268.051.443.077.526.077.015.602.049 1.114.1 1.537 0 .077-.075.115-.224.115-.129 0-.201-.04-.217-.122-.056-.373-.198-.675-.425-.907a1.097 1.097 0 00-.812-.348c-.804 0-1.207.347-1.207 1.04 0 .235.096.452.287.65.19.2.605.457 1.245.773.763.377 1.266.704 1.508.979s.363.586.363.933zm8.237-1.285c0 1.015-.334 1.85-1.001 2.505-.668.655-1.533.983-2.595.983-1.062 0-1.928-.329-2.599-.987-.67-.658-1.005-1.491-1.005-2.5 0-1.026.338-1.879 1.013-2.56.675-.68 1.54-1.02 2.59-1.02 1.058 0 1.922.339 2.592 1.017.67.678 1.005 1.532 1.005 2.562zm-1.554-.015c0-.933-.182-1.679-.545-2.237-.364-.559-.863-.838-1.497-.838-.63 0-1.127.28-1.493.842-.366.56-.549 1.305-.549 2.233 0 .923.18 1.656.541 2.199.361.543.862.814 1.5.814.64 0 1.14-.269 1.501-.807.361-.537.542-1.273.542-2.206zm10.495 3.06c0 .142-.041.213-.124.213-.206 0-.459-.015-.758-.045a9.597 9.597 0 00-.874-.046 9.77 9.77 0 00-.889.046c-.304.03-.56.045-.766.045-.082 0-.123-.07-.123-.214 0-.127.04-.196.123-.206.356-.041.59-.14.7-.299.111-.158.167-.489.167-.994v-2.554c0-.572-.114-.99-.34-1.255-.228-.265-.578-.398-1.053-.398-.299 0-.563.057-.792.169-.23.112-.476.31-.739.596v3.442c0 .505.055.836.166.994.111.159.344.258.7.299.083.01.124.079.124.206 0 .143-.041.214-.124.214-.211 0-.469-.015-.773-.045a9.848 9.848 0 00-.882-.046c-.247 0-.536.015-.866.046a8.08 8.08 0 01-.774.045c-.082 0-.123-.07-.123-.214 0-.127.041-.196.123-.206.444-.056.73-.162.859-.318.129-.155.193-.48.193-.975v-2.83c0-.408-.053-.675-.158-.803-.106-.127-.342-.211-.708-.252-.082 0-.124-.067-.124-.2 0-.122.042-.183.124-.183.51-.127.936-.271 1.276-.432.34-.16.555-.292.642-.394.052-.06.108-.092.17-.092.145 0 .217.041.217.123l-.062.964c.743-.684 1.433-1.025 2.073-1.025.701 0 1.249.199 1.643.596.395.398.592.933.592 1.606v2.922c0 .5.063.826.19.98.126.152.408.257.846.313.083.01.124.079.124.206zm11.694-3.045c0 1.015-.334 1.85-1.001 2.505-.668.655-1.533.983-2.595.983-1.062 0-1.929-.329-2.599-.987-.67-.658-1.005-1.491-1.005-2.5 0-1.026.337-1.879 1.013-2.56.675-.68 1.539-1.02 2.59-1.02 1.058 0 1.922.339 2.592 1.017.67.678 1.005 1.532 1.005 2.562zm-1.554-.015c0-.933-.182-1.679-.546-2.237-.363-.559-.862-.838-1.496-.838-.63 0-1.127.28-1.493.842-.366.56-.549 1.305-.549 2.233 0 .923.18 1.656.541 2.199.361.543.861.814 1.5.814.64 0 1.14-.269 1.501-.807.361-.537.542-1.273.542-2.206zm10.495 3.06c0 .142-.041.213-.124.213-.206 0-.459-.015-.758-.045a9.597 9.597 0 00-.874-.046c-.257 0-.554.015-.89.046a8 8 0 01-.765.045c-.082 0-.123-.07-.123-.214 0-.127.04-.196.123-.206.356-.041.59-.14.7-.299.111-.158.166-.489.166-.994v-2.554c0-.572-.113-.99-.34-1.255-.227-.265-.577-.398-1.052-.398-.299 0-.563.057-.792.169-.23.112-.476.31-.74.596v3.442c0 .505.056.836.167.994.111.159.344.258.7.299.083.01.124.079.124.206 0 .143-.041.214-.124.214-.211 0-.469-.015-.773-.045a9.848 9.848 0 00-.882-.046c-.247 0-.536.015-.866.046a8.08 8.08 0 01-.774.045c-.082 0-.123-.07-.123-.214 0-.127.04-.196.123-.206.444-.056.73-.162.859-.318.129-.155.193-.48.193-.975v-2.83c0-.408-.053-.675-.158-.803-.106-.127-.342-.211-.708-.252-.082 0-.124-.067-.124-.2 0-.122.042-.183.124-.183.51-.127.936-.271 1.276-.432.34-.16.554-.292.642-.394.052-.06.108-.092.17-.092.145 0 .217.041.217.123l-.062.964c.742-.684 1.433-1.025 2.073-1.025.701 0 1.249.199 1.643.596.395.398.592.933.592 1.606v2.922c0 .5.063.826.19.98.126.152.408.257.846.313.083.01.124.079.124.206zm9.289-5.875c0 .276-.067.413-.201.413l-2.305-.06v3.67c0 .959.345 1.438 1.036 1.438.428 0 .818-.1 1.168-.298.041 0 .079.027.112.08.034.054.05.111.05.172 0 .128-.191.3-.576.517a2.59 2.59 0 01-1.295.325c-.588 0-1.057-.177-1.408-.532-.35-.354-.526-.822-.526-1.403v-.07l.031-3.716c0-.143-.062-.215-.185-.215h-.588c-.114 0-.17-.066-.17-.198 0-.102.046-.179.139-.23.717-.418 1.34-1.007 1.872-1.767a.255.255 0 01.216-.122c.145 0 .217.04.217.122l-.062 1.461h2.274c.134 0 .2.138.2.413zm8.871 5.874c0 .143-.041.214-.124.214-.206 0-.461-.015-.765-.045a9.533 9.533 0 00-.867-.046c-.257 0-.554.015-.89.046a8 8 0 01-.765.045c-.082 0-.124-.07-.124-.214 0-.127.042-.196.124-.206.356-.041.59-.14.7-.299.111-.158.166-.489.166-.994v-2.554c0-1.102-.505-1.653-1.515-1.653-.64 0-1.192.255-1.656.765v3.442c0 .46.067.778.202.956.134.179.397.29.788.337.083.01.124.079.124.206 0 .143-.041.214-.124.214a9.65 9.65 0 01-.827-.045 12.116 12.116 0 00-.951-.046c-.258 0-.552.015-.882.046a7.63 7.63 0 01-.758.045c-.083 0-.124-.07-.124-.214 0-.127.041-.196.124-.206.433-.046.714-.147.843-.302.129-.156.193-.486.193-.99V88.81c0-.413-.05-.684-.15-.811-.101-.128-.334-.212-.7-.252-.083-.01-.124-.074-.124-.192 0-.132.041-.199.123-.199.882-.203 1.534-.474 1.957-.81.078-.061.142-.092.194-.092.144 0 .216.04.216.122a27.153 27.153 0 00-.124 2.662v2.593c.738-.694 1.465-1.04 2.181-1.04.733 0 1.309.199 1.73.596.42.398.63.933.63 1.606v2.922c0 .5.065.828.197.983.131.156.416.259.854.31.083.01.124.079.124.206zm6.737-4.13c0 .143-.093.214-.279.214h-4.238a7.666 7.666 0 00-.047.857c0 .82.198 1.452.592 1.893.394.441.955.661 1.682.661a2.37 2.37 0 001.106-.29 2.62 2.62 0 00.897-.742l.039-.015c.046 0 .092.028.135.084a.313.313 0 01.066.199c0 .107-.165.33-.495.669-.33.339-.688.598-1.075.776a2.865 2.865 0 01-1.214.268c-.928 0-1.71-.337-2.344-1.01-.634-.673-.951-1.499-.951-2.478 0-1 .31-1.846.932-2.54.621-.693 1.409-1.04 2.363-1.04.799 0 1.47.26 2.015.777.544.518.816 1.09.816 1.717zm-1.408-.673c0-.382-.133-.7-.398-.952-.266-.253-.608-.379-1.025-.379-.397 0-.741.165-1.033.494-.291.328-.488.76-.591 1.296l2.15-.061c.325-.005.555-.036.692-.092a.305.305 0 00.205-.306zm13.133 1.943c0 1.014-.303 1.821-.91 2.42-.605.6-1.431.9-2.478.9l-.062.657c0 .102-.082.153-.247.153-.165 0-.248-.051-.248-.153l.047-.688c-.124-.01-.648-.118-1.57-.322a4.7 4.7 0 00-.998-.122c0-.525-.062-1.392-.186-2.6 0-.082.078-.123.232-.123.134 0 .201.04.201.123.248.836.55 1.45.91 1.843.357.392.838.63 1.441.711l.294-4.436c-.928-.53-1.558-.943-1.89-1.24-.333-.295-.578-.603-.735-.925a2.317 2.317 0 01-.236-1.032c0-.831.308-1.534.924-2.107.616-.574 1.401-.86 2.355-.86l.062-.827c0-.102.082-.153.247-.153.165 0 .248.051.248.153l-.062.857c.052.005.43.064 1.137.176.289.046.544.069.766.069 0 .219.005.423.015.611.01.19.088.776.232 1.76 0 .081-.067.122-.2.122-.156 0-.233-.04-.233-.122-.155-.673-.369-1.176-.642-1.507-.273-.332-.642-.533-1.106-.604l-.278 4.053c.99.577 1.654 1.013 1.991 1.308.338.296.585.6.743.91.157.311.236.643.236.995zm-3.202-7.312c-.562 0-1.01.172-1.342.516-.333.344-.5.794-.5 1.35 0 .331.12.649.36.952.24.304.651.639 1.234 1.006l.248-3.824zm1.84 8.107c0-.372-.122-.721-.367-1.048-.245-.326-.7-.696-1.365-1.109l-.279 4.192h.047c.644 0 1.133-.183 1.466-.547.332-.365.498-.86.498-1.488zm8.4.474a12.722 12.722 0 00-.758 1.805c-.356-.06-1.15-.091-2.382-.091-1.485 0-2.38.03-2.684.091-.098 0-.147-.056-.147-.168 0-.025.227-.25.68-.673 1.181-1.101 1.977-1.931 2.387-2.49.41-.558.614-1.028.614-1.41 0-.776-.433-1.163-1.299-1.163-.619 0-1.199.288-1.74.864-.026.026-.065.038-.116.038a.275.275 0 01-.19-.072c-.054-.049-.08-.098-.08-.15 0-.06.172-.29.517-.688.346-.398.691-.69 1.037-.88a2.229 2.229 0 011.083-.282c.639 0 1.162.183 1.57.55.407.367.61.84.61 1.415 0 .372-.173.79-.521 1.255-.349.464-1.113 1.208-2.294 2.233l-.448.398h2.46c.293 0 .516-.042.668-.127.152-.084.357-.286.615-.608a.199.199 0 01.163-.076c.061 0 .12.022.177.065a.18.18 0 01.078.164zm8.716-1.606c0 1.04-.357 1.907-1.071 2.6-.714.694-1.582 1.04-2.603 1.04-1.026 0-1.896-.346-2.61-1.04-.714-.693-1.071-1.56-1.071-2.6 0-1.045.357-1.914 1.071-2.608.714-.693 1.584-1.04 2.61-1.04 1.021 0 1.889.347 2.603 1.04.714.694 1.071 1.563 1.071 2.608zm-1.083 0c0-.882-.244-1.6-.734-2.153-.49-.553-1.109-.83-1.857-.83-.752 0-1.374.277-1.863.83-.49.553-.735 1.271-.735 2.153 0 .882.245 1.597.735 2.146.49.548 1.11.822 1.863.822.753 0 1.373-.274 1.86-.822.488-.549.731-1.264.731-2.146zm13.736.077c0 .938-.335 1.767-1.005 2.485-.67.72-1.446 1.079-2.328 1.079-.49 0-.964-.102-1.423-.306-.315-.143-.593-.214-.835-.214-.387 0-.642.163-.766.49-.026.06-.09.091-.193.091-.135 0-.202-.04-.202-.122.042-.429.062-.944.062-1.545v-7.458c0-.413-.053-.683-.158-.81-.106-.128-.337-.21-.692-.245-.083 0-.124-.061-.124-.184 0-.142.041-.214.124-.214.917-.234 1.57-.505 1.956-.81.078-.062.142-.092.194-.092.144 0 .216.04.216.122a37.934 37.934 0 00-.124 2.677v2.287c.485-.48 1.078-.719 1.78-.719 1.046 0 1.894.314 2.544.94.65.628.974 1.477.974 2.548zm-1.554.06c0-.937-.188-1.672-.565-2.202-.376-.53-.905-.795-1.585-.795-.366 0-.723.136-1.071.409-.348.273-.523.544-.523.814v3.534c0 .27.208.544.623.822.415.278.8.417 1.156.417.62 0 1.101-.273 1.447-.818.345-.546.518-1.272.518-2.18zm5.213-6.187a.77.77 0 01-.236.559.773.773 0 01-.569.237.773.773 0 01-.568-.237.766.766 0 01-.236-.559c0-.224.077-.413.232-.566a.782.782 0 01.572-.23c.222 0 .412.077.569.23a.758.758 0 01.236.566zm1.083 9.247c0 .143-.042.214-.124.214-.212 0-.482-.015-.812-.045a11.72 11.72 0 00-.936-.046c-.258 0-.567.015-.928.046-.325.03-.593.045-.805.045-.082 0-.123-.07-.123-.214 0-.127.04-.196.123-.206.439-.056.72-.16.847-.314.127-.153.19-.48.19-.979v-2.83c0-.408-.053-.675-.159-.803-.106-.127-.336-.211-.692-.252-.083 0-.124-.067-.124-.2 0-.122.041-.183.124-.183a8.279 8.279 0 001.33-.44c.346-.155.562-.284.65-.386.052-.06.108-.092.17-.092.144 0 .217.041.217.123a39.177 39.177 0 00-.124 2.662v2.401c0 .5.063.826.19.98.126.152.413.257.862.313.082.01.124.079.124.206zm4.16-.015c0 .143-.04.214-.123.214-.212 0-.482-.013-.812-.038a14.047 14.047 0 00-.936-.038c-.248 0-.554.012-.92.038-.33.025-.601.038-.813.038-.082 0-.123-.071-.123-.214 0-.127.04-.196.123-.207.439-.05.724-.154.855-.31.131-.155.197-.482.197-.982v-7.106c0-.413-.051-.683-.154-.81-.104-.128-.34-.212-.712-.253-.082-.01-.124-.074-.124-.191 0-.122.042-.184.124-.184a8.279 8.279 0 001.33-.44c.346-.155.562-.286.65-.393a.228.228 0 01.17-.084c.144 0 .217.04.217.122a39.177 39.177 0 00-.124 2.662V95.9c0 .5.064.827.193.983.13.155.415.259.859.31.082.01.124.079.124.206zm4.007 0c0 .143-.041.214-.124.214-.211 0-.482-.013-.812-.038a14.047 14.047 0 00-.936-.038c-.247 0-.554.012-.92.038-.33.025-.6.038-.812.038-.083 0-.124-.071-.124-.214 0-.127.041-.196.124-.207.438-.05.723-.154.854-.31.132-.155.198-.482.198-.982v-7.106c0-.413-.052-.683-.155-.81-.103-.128-.34-.212-.712-.253-.082-.01-.123-.074-.123-.191 0-.122.04-.184.123-.184a8.279 8.279 0 001.33-.44c.346-.155.563-.286.65-.393a.228.228 0 01.17-.084c.145 0 .217.04.217.122-.082 1.142-.124 2.03-.124 2.662V95.9c0 .5.065.827.194.983.129.155.415.259.858.31.083.01.124.079.124.206z"/>
		<path fill="#00BD44" d="M29.483 231.576c-2.436 0-4.42-1.242-5.537-3.46-.816-1.433-1.218-3.297-1.218-5.592 0-6.136 2.587-9.825 6.88-9.825 3.014 0 5.325 1.839 5.84 4.64h-1.733c-.452-1.863-2.097-3.106-4.119-3.106-3.315 0-5.21 3.119-5.21 8.545h.037c.74-2.054 2.888-3.474 5.337-3.474 3.44 0 6.014 2.586 6.014 6.047 0 3.588-2.662 6.225-6.29 6.225zm-.012-1.547c2.549 0 4.558-2.04 4.558-4.627 0-2.624-1.921-4.564-4.546-4.564-2.586 0-4.608 1.953-4.608 4.437 0 2.663 1.997 4.754 4.596 4.754zm9.932 1.255l8.4-16.696v-.05H37.72v-1.547h11.803v1.623l-8.3 16.67h-1.82zm14.49-7.162l6.743-6.491h2.059l-6.103 5.895 6.228 7.758h-1.958l-5.45-6.731-1.532 1.407v5.324h-1.657v-19.092h1.657v11.93h.013zm16.31 7.162v-13.653h1.557v2.421h.05c.465-1.622 1.746-2.573 3.429-2.573.439 0 .84.076 1.054.14v1.66c-.226-.101-.703-.19-1.28-.19-1.922 0-3.152 1.521-3.152 3.727v8.468h-1.658zm13.285-12.322c-2.423 0-4.131 1.826-4.282 4.539h8.413c-.025-2.713-1.682-4.539-4.13-4.539zm4.043 8.456h1.645c-.402 2.332-2.624 4.019-5.562 4.019-3.742 0-6.128-2.65-6.128-6.948 0-4.234 2.386-7.01 6.027-7.01 3.554 0 5.839 2.599 5.839 6.655v.736H79.206v.088c0 3.094 1.758 4.995 4.445 4.995 2.034 0 3.478-1.04 3.88-2.535zm8.45 2.548c2.424 0 4.27-1.66 4.27-3.816v-1.509l-3.955.28c-2.273.152-3.479 1.039-3.479 2.573 0 1.47 1.281 2.472 3.165 2.472zm-.326 1.47c-2.7 0-4.533-1.597-4.533-3.955 0-2.332 1.733-3.689 4.973-3.917l4.156-.279v-1.166c0-1.99-1.243-3.144-3.428-3.144-1.884 0-3.202.976-3.503 2.599h-1.595c.138-2.396 2.273-4.095 5.11-4.095 3.102 0 5.073 1.75 5.073 4.5v9.305h-1.582v-2.611h-.038c-.728 1.66-2.561 2.764-4.633 2.764zm14.277 0c-3.39 0-5.789-2.814-5.789-6.985 0-4.17 2.386-6.972 5.751-6.972 2.185 0 3.918 1.191 4.646 2.954h.038v-8.24h1.67v19.091h-1.583v-2.903h-.037c-.779 1.851-2.499 3.056-4.696 3.056zm.263-12.461c-2.586 0-4.357 2.193-4.357 5.476 0 3.296 1.77 5.477 4.357 5.477 2.6 0 4.395-2.219 4.395-5.477 0-3.232-1.795-5.476-4.395-5.476zm14.478-.013c-2.424 0-4.131 1.826-4.282 4.539h8.413c-.025-2.713-1.683-4.539-4.131-4.539zm4.043 8.456h1.645c-.402 2.332-2.624 4.019-5.563 4.019-3.741 0-6.127-2.65-6.127-6.948 0-4.234 2.386-7.01 6.027-7.01 3.553 0 5.839 2.599 5.839 6.655v.736H120.39v.088c0 3.094 1.758 4.995 4.445 4.995 2.034 0 3.478-1.04 3.88-2.535zm4.131 3.866v-13.653h1.557v2.421h.05c.465-1.622 1.746-2.573 3.428-2.573.44 0 .841.076 1.055.14v1.66c-.226-.101-.703-.19-1.28-.19-1.922 0-3.153 1.521-3.153 3.727v8.468h-1.657zm7.685-9.977c0-2.256 2.071-3.828 4.859-3.828 2.737 0 4.721 1.648 4.86 3.993h-1.596c-.163-1.547-1.406-2.573-3.314-2.573-1.809 0-3.165.938-3.165 2.32 0 1.115.804 1.762 2.524 2.193l2.072.507c2.712.684 3.742 1.673 3.742 3.613 0 2.307-2.172 3.905-5.211 3.905-2.9 0-4.985-1.674-5.173-3.994h1.682c.201 1.56 1.545 2.586 3.591 2.586 2.022 0 3.428-.938 3.428-2.383 0-1.154-.69-1.787-2.524-2.244l-2.285-.583c-2.335-.596-3.49-1.711-3.49-3.512z"/>
		<path fill="#9AA0A7" d="M24.201 200.994h-1.054v-7.579h-2.725v-.958h6.504v.958h-2.725v7.579zm4.225 0v-6.378h.961v.947h.094c.187-.621.914-1.06 1.752-1.06.164 0 .375.013.504.03v1.018a4.01 4.01 0 00-.645-.06c-.96 0-1.658.652-1.658 1.55v3.953h-1.008zm7.09-5.59c-1.008 0-1.71.745-1.787 1.875h3.48c-.023-1.13-.69-1.876-1.693-1.876zm1.664 3.94h1.008c-.305 1.094-1.277 1.762-2.66 1.762-1.752 0-2.848-1.278-2.848-3.295 0-2.006 1.113-3.307 2.848-3.307 1.705 0 2.742 1.225 2.742 3.206v.39h-4.54v.048c.053 1.26.75 2.059 1.822 2.059.815 0 1.366-.302 1.63-.864zm2.672 1.65v-6.378h.961v1.006h.094c.316-.704.932-1.118 1.899-1.118 1.418 0 2.209.846 2.209 2.36v4.13h-1.008v-3.881c0-1.148-.48-1.692-1.489-1.692-1.007 0-1.658.68-1.658 1.798v3.775h-1.008zm9.34.112c-1.617 0-2.654-1.295-2.654-3.3 0-2 1.049-3.302 2.655-3.302.878 0 1.623.42 1.98 1.118h.088v-3.538h1.008v8.91h-.961v-1.018h-.094c-.398.71-1.148 1.13-2.021 1.13zm.235-5.685c-1.149 0-1.846.9-1.846 2.384 0 1.491.692 2.384 1.846 2.384 1.148 0 1.857-.91 1.857-2.384 0-1.461-.714-2.384-1.857-2.384zm4.822 5.573v-6.378h1.008v6.378H54.25zm.504-7.673a.709.709 0 01-.703-.71c0-.39.317-.71.703-.71.387 0 .703.32.703.71 0 .39-.316.71-.703.71zm2.426 7.673v-6.378h.961v1.006h.094c.316-.704.932-1.118 1.898-1.118 1.418 0 2.21.846 2.21 2.36v4.13h-1.008v-3.881c0-1.148-.48-1.692-1.489-1.692-1.008 0-1.658.68-1.658 1.798v3.775H57.18zm11.432-3.284c0-1.39-.709-2.29-1.875-2.29-1.172 0-1.828.9-1.828 2.29 0 1.39.656 2.29 1.828 2.29 1.172 0 1.875-.9 1.875-2.29zm-1.828 5.733c-1.523 0-2.496-.692-2.648-1.745H65.2c.111.52.674.858 1.582.858 1.131 0 1.805-.562 1.805-1.503V199.8h-.094c-.398.704-1.113 1.1-1.98 1.1-1.635 0-2.649-1.278-2.649-3.189 0-1.91 1.025-3.206 2.649-3.206.884 0 1.664.438 2.027 1.124h.094v-1.012h.96v6.49c0 1.426-1.09 2.337-2.812 2.337zm8.52-10.477h1.008v1.65h1.406v.852h-1.406v3.61c0 .75.281 1.07.937 1.07.182 0 .282-.006.47-.024v.858c-.2.036-.393.06-.593.06-1.3 0-1.822-.486-1.822-1.705v-3.869h-1.02v-.852h1.02v-1.65zm6.534 7.223c1.195 0 1.869-.875 1.869-2.384 0-1.514-.674-2.384-1.87-2.384-1.195 0-1.869.87-1.869 2.384 0 1.509.674 2.384 1.87 2.384zm0 .917c-1.8 0-2.913-1.254-2.913-3.3 0-2.054 1.114-3.302 2.913-3.302 1.798 0 2.912 1.248 2.912 3.301 0 2.047-1.114 3.301-2.912 3.301zm7.57-6.602c1.612 0 2.655 1.296 2.655 3.301 0 1.994-1.05 3.301-2.655 3.301-.902 0-1.629-.396-1.975-1.07h-.093v3.088H86.33v-8.508h.96v1.065h.095a2.273 2.273 0 012.021-1.177zm-.24 5.685c1.16 0 1.852-.893 1.852-2.384 0-1.49-.692-2.384-1.846-2.384-1.143 0-1.864.917-1.864 2.384 0 1.461.721 2.384 1.858 2.384zm4.5.805v-6.378h1.008v6.378h-1.008zm.504-7.673a.709.709 0 01-.703-.71c0-.39.316-.71.703-.71.387 0 .703.32.703.71 0 .39-.316.71-.703.71zm7.653 3.248h-1.02c-.164-.633-.72-1.148-1.629-1.148-1.137 0-1.852.917-1.852 2.36 0 1.474.727 2.408 1.852 2.408.85 0 1.442-.396 1.63-1.118h1.019c-.182 1.172-1.125 2.035-2.643 2.035-1.77 0-2.9-1.295-2.9-3.325 0-1.987 1.125-3.277 2.894-3.277 1.535 0 2.473.929 2.649 2.065z"/>
		<path stroke="#EAEFF6" stroke-linecap="square" stroke-width=".5" d="M194.629 184.958v55.693m35.095-55.264v55.692m35.095-56.121v55.693m-90.948-49.909h111.277m-111.277 15.422h111.277m-111.277 13.709h111.277m-111.277 14.566h111.277"/>
		<path stroke="url(#trustworthy-yet-joyful--mobile-h)" stroke-linecap="round" stroke-width="2" d="M7.704 40.851c6.565-.169 15.343-7.515 23.237-7.741 7.804.226 12.06 7.572 23.64 7.537 20.976.035 35.208-29.508 47.28-29.508" transform="translate(173.871 184.53)"/>
	</g>
</svg>
