<?xml version="1.0" encoding="UTF-8"?>
<svg xmlns="http://www.w3.org/2000/svg" xmlns:xlink="http://www.w3.org/1999/xlink" style="background:#eaecf0" width="817" height="424" viewBox="0 0 817 424">
	<style>
		.ss{font-family:system-ui,-apple-system,BlinkMacSystemFont,&apos;Segoe UI&apos;,Roboto,&apos;Oxygen-Sans&apos;,Ubuntu,Cantarell,Lato,&apos;Helvetica Neue&apos;,Helvetica,Arial,sans-serif;letter-spacing:1px}.s{font-family:&apos;Charter&apos;,Georgia,serif}
	</style>
	<defs>
		<rect id="a" width="359" height="293" rx="12"/>
		<linearGradient id="b" x1="50%" x2="50%" y1="96.761%" y2="15.824%">
			<stop offset="0%" stop-color="#009DF2" stop-opacity=".087"/>
			<stop offset="100%" stop-color="#009CEE" stop-opacity=".37"/>
		</linearGradient>
		<filter id="c" width="108.5%" height="124.9%" x="-4.3%" y="-12.5%" filterUnits="objectBoundingBox">
			<feGaussianBlur in="SourceGraphic" stdDeviation="10"/>
		</filter>
		<path id="e" d="M0 1.09V0h1.09l5.455 5.455c.072.323.054.704 0 1.09-.331-.054-.489 0-1.09 0C5.725 6.545 0 1.091 0 1.091z"/>
		<path id="g" d="M0 6.636v-1.09L5.455.09c.212-.051.62-.066 1.09 0 .055.386.07.768 0 1.09L1.091 6.637H0z"/>
		<path id="i" d="M.09 6.545c-.054-.386-.07-.768 0-1.09L5.546 0h1.091v1.09L1.182 6.546c-.603 0-.76-.052-1.091 0z"/>
		<path id="k" d="M.09 1.182C.02.86.038.478.09.09.563.025.97.039 1.183.09l5.454 5.454v1.091h-1.09L.09 1.182z"/>
		<rect id="m" width="25" height="25" rx="6"/>
		<linearGradient id="n" x1="0%" y1="100%" y2="0%">
			<stop offset="0%" stop-color="#74E5FE"/>
			<stop offset="100%" stop-color="#00bd44"/>
		</linearGradient>
		<rect id="o" width="359" height="293" rx="12"/>
		<rect id="q" width="25" height="25" rx="6"/>
		<filter id="r" width="108.5%" height="124.9%" x="-4.3%" y="-12.5%" filterUnits="objectBoundingBox">
			<feGaussianBlur in="SourceGraphic" stdDeviation="10"/>
		</filter>
		<path id="s" d="M0 1.09V0h1.09l5.455 5.455c.072.323.054.704 0 1.09-.331-.054-.489 0-1.09 0C5.725 6.545 0 1.091 0 1.091z"/>
		<path id="u" d="M0 6.636v-1.09L5.455.09c.212-.051.62-.066 1.09 0 .055.386.07.768 0 1.09L1.091 6.637H0z"/>
		<path id="w" d="M.09 6.545c-.054-.386-.07-.768 0-1.09L5.546 0h1.091v1.09L1.182 6.546c-.603 0-.76-.052-1.091 0z"/>
		<path id="y" d="M.09 1.182C.02.86.038.478.09.09.563.025.97.039 1.183.09l5.454 5.454v1.091h-1.09L.09 1.182z"/>
		<linearGradient id="A" x1="100%" x2="0%" y1="0%" y2="100%">
			<stop offset="0%" stop-color="#74E5FE"/>
			<stop offset="100%" stop-color="#00bd44"/>
		</linearGradient>
	</defs>
	<g fill="none" fill-rule="evenodd">
		<g transform="translate(38 66)">
			<mask id="d" fill="#fff">
				<use xlink:href="#a"/>
			</mask>
			<use fill="#fff" xlink:href="#a"/>
			<path fill="url(#b)" d="M-60.165 351.847s26.755-8.312 58.336-17.644c31.58-9.333 35.105-27.893 55.558-32.676 20.452-4.782 21.86 17.615 59.03 5.882 37.17-11.733 26.365-37.408 50.696-40.518 24.331-3.109 38.996 25.415 61.808 26.14 22.812.726 89.198-107.468 105.56-116.977 16.36-9.51 44.421 35.864 67.363 34.636 22.942-1.229 43.918-63.6 79.864-61.43 35.947 2.17 36.134 12.256 68.753 11.763 32.62-.492 48.416-11.026 61.113-13.724 12.697-2.698 24.307 13.724 24.307 13.724l13.195 26.794v200.041H-60.165v-36.01z" filter="url(#c)" mask="url(#d)" opacity=".1"/>
		</g>
		<path stroke="#ccc" stroke-linecap="square" stroke-width=".5" d="M38.5 117.25h358" opacity=".8"/>
		<g opacity=".6">
			<g transform="translate(369 86)">
				<mask id="f" fill="#fff">
					<use xlink:href="#e"/>
				</mask>
				<path fill="#000" d="M-5.455-5.455h17.502V12H-5.455z" mask="url(#f)"/>
			</g>
			<g transform="translate(369 91.364)">
				<mask id="h" fill="#fff">
					<use xlink:href="#g"/>
				</mask>
				<path fill="#000" d="M-5.455-5.408h17.502v17.499H-5.455z" mask="url(#h)"/>
			</g>
			<g transform="translate(374.364 86)">
				<mask id="j" fill="#fff">
					<use xlink:href="#i"/>
				</mask>
				<path fill="#000" d="M-5.41-5.455h17.5V12h-17.5z" mask="url(#j)"/>
			</g>
			<g transform="translate(374.364 91.364)">
				<mask id="l" fill="#fff">
					<use xlink:href="#k"/>
				</mask>
				<path fill="#000" d="M-5.41-5.408h17.5v17.499h-17.5z" mask="url(#l)"/>
			</g>
		</g>
		<text fill="#000" class="ss" font-size="13" opacity=".5" transform="translate(38 66)">
			<tspan x="51" y="33">WIKIPEDIA</tspan>
		</text>
		<g transform="translate(55 79)">
			<use fill="#fff" xlink:href="#m"/>
			<rect width="24" height="24" x=".5" y=".5" stroke="#eaecf0" rx="6"/>
		</g>
		<path fill="#000" d="M74.312 88.251a.217.217 0 0 1-.046.134c-.03.04-.064.06-.1.06-.3.029-.544.125-.734.288-.19.164-.386.477-.588.938l-3.094 6.97c-.02.064-.077.096-.17.096a.19.19 0 0 1-.17-.097l-1.734-3.627-1.996 3.627a.19.19 0 0 1-.17.097c-.089 0-.147-.032-.176-.097l-3.039-6.97c-.19-.432-.39-.734-.6-.906-.21-.172-.504-.278-.88-.319-.032 0-.062-.017-.09-.051a.18.18 0 0 1-.043-.119c0-.113.032-.17.097-.17.27 0 .554.013.85.037.274.024.533.036.775.036.247 0 .538-.012.874-.036.352-.024.663-.036.934-.036.065 0 .097.056.097.17 0 .113-.02.17-.06.17-.271.02-.485.088-.64.205a.55.55 0 0 0-.234.461.94.94 0 0 0 .097.364l2.511 5.672 1.426-2.693-1.329-2.784c-.238-.498-.434-.818-.588-.962-.154-.143-.386-.231-.698-.264-.028 0-.055-.017-.081-.051a.19.19 0 0 1-.04-.119c0-.113.028-.17.085-.17.271 0 .52.013.746.037.218.024.451.036.698.036.242 0 .5-.012.77-.036a9.52 9.52 0 0 1 .825-.036c.065 0 .097.056.097.17 0 .113-.02.17-.06.17-.543.036-.813.19-.813.46 0 .122.062.31.188.564l.88 1.784.873-1.632c.12-.23.182-.425.182-.582 0-.372-.271-.57-.813-.595-.049 0-.073-.056-.073-.17 0-.04.012-.078.036-.115.025-.036.049-.054.073-.054.194 0 .433.012.716.036.27.024.493.036.667.036.126 0 .31-.01.552-.03.307-.028.564-.042.77-.042.049 0 .073.048.073.145 0 .13-.044.194-.133.194-.316.033-.57.12-.761.261-.193.142-.432.463-.72.965l-1.164 2.153 1.577 3.215 2.33-5.417c.08-.198.12-.38.12-.546 0-.396-.27-.606-.812-.63-.049 0-.073-.057-.073-.17 0-.114.037-.17.11-.17.198 0 .432.012.703.036.25.024.461.036.63.036.179 0 .385-.012.62-.036.242-.024.46-.036.655-.036.056 0 .085.048.085.145z"/>
		<path stroke="#eee" stroke-linecap="square" d="M59.5 266.5h313.002"/>
		<text fill="#9aa0a7" class="ss" font-size="14" transform="translate(38 66)">
			<tspan x="24" y="181">African-American abolitionist and humanitarian</tspan>
		</text>
		<text fill="#000" class="ss" font-size="15" transform="translate(38 66)">
			<tspan x="24" y="159">Harriet Tubman</tspan>
		</text>
		<path stroke="#9aa0a7" stroke-linecap="square" d="M61.5 198h41.012"/>
		<text fill="#000" class="s" font-size="18" transform="translate(38 66)">
			<tspan x="22" y="85.5">Harriet Tubman to replace President </tspan> <tspan x="22" y="112.5">Andrew Jackson on the $20 bill</tspan>
		</text>
		<text fill="#00bd44" class="ss" font-size="30" transform="translate(61 287)">
			<tspan x="1" y="48">67k readers</tspan>
		</text>
		<text fill="#9aa0a7" class="ss" font-size="14" transform="translate(61 287)">
			<tspan x="0" y="14">Trending topic</tspan>
		</text>
		<path stroke="#eaeff6" stroke-linecap="square" stroke-width=".5" d="M265.25 281.5v65m41-64.5v65m41-65.5v65M241 288.25h130m-130 18h130m-130 16h130m-130 17h130"/>
		<path stroke="url(#n)" stroke-linecap="round" stroke-width="2" d="M9 47.678c7.67-.197 17.925-8.771 27.146-9.035 9.118.264 14.09 8.838 27.618 8.797C88.27 47.48 104.897 13 119 13" transform="translate(241 281)"/>
		<g transform="translate(421 66)">
			<mask id="p" fill="#fff">
				<use xlink:href="#o"/>
			</mask>
			<use fill="#fff" xlink:href="#o"/>
			<text fill="#000" class="ss" font-size="13" mask="url(#p)" opacity=".5">
				<tspan x="52" y="35">WIKIPEDIA</tspan>
			</text>
			<g mask="url(#p)">
				<g transform="translate(18 15)">
					<use fill="#fff" xlink:href="#q"/>
					<rect width="24" height="24" x=".5" y=".5" stroke="#eaecf0" rx="6"/>
				</g>
				<path fill="#000" d="M37.312 24.251a.217.217 0 0 1-.046.134c-.03.04-.064.06-.1.06-.3.029-.544.125-.734.288-.19.164-.386.477-.588.938l-3.094 6.97c-.02.064-.077.096-.17.096a.19.19 0 0 1-.17-.097l-1.734-3.627-1.996 3.627a.19.19 0 0 1-.17.097c-.089 0-.147-.032-.176-.097l-3.039-6.97c-.19-.432-.39-.734-.6-.906-.21-.172-.504-.278-.88-.319-.032 0-.062-.017-.09-.051a.18.18 0 0 1-.043-.119c0-.113.032-.17.097-.17.27 0 .554.013.85.037.274.024.533.036.775.036.247 0 .538-.012.874-.036.352-.024.663-.036.934-.036.065 0 .097.056.097.17 0 .113-.02.17-.06.17-.271.02-.485.088-.64.205a.55.55 0 0 0-.234.461.94.94 0 0 0 .097.364l2.511 5.672 1.426-2.693-1.329-2.784c-.238-.498-.434-.818-.588-.962-.154-.143-.386-.231-.698-.264-.028 0-.055-.017-.081-.051a.19.19 0 0 1-.04-.119c0-.113.028-.17.085-.17.271 0 .52.013.746.037.218.024.451.036.698.036.242 0 .5-.012.77-.036a9.52 9.52 0 0 1 .825-.036c.065 0 .097.056.097.17 0 .113-.02.17-.06.17-.543.036-.813.19-.813.46 0 .122.062.31.188.564l.88 1.784.873-1.632c.12-.23.182-.425.182-.582 0-.372-.271-.57-.813-.595-.049 0-.073-.056-.073-.17 0-.04.012-.078.036-.115.025-.036.049-.054.073-.054.194 0 .433.012.716.036.27.024.493.036.667.036.126 0 .31-.01.552-.03.307-.028.564-.042.77-.042.049 0 .073.048.073.145 0 .13-.044.194-.133.194-.316.033-.57.12-.761.261-.193.142-.432.463-.72.965l-1.164 2.153 1.577 3.215 2.33-5.417c.08-.198.12-.38.12-.546 0-.396-.27-.606-.812-.63-.049 0-.073-.057-.073-.17 0-.114.037-.17.11-.17.198 0 .432.012.703.036.25.024.461.036.63.036.179 0 .385-.012.62-.036.242-.024.46-.036.655-.036.056 0 .085.048.085.145z"/>
			</g>
			<path fill="url(#b)" d="M-60.165 351.847s26.755-8.312 58.336-17.644c31.58-9.333 35.105-27.893 55.558-32.676 20.452-4.782 21.86 17.615 59.03 5.882 37.17-11.733 26.365-37.408 50.696-40.518 24.331-3.109 38.996 25.415 61.808 26.14 22.812.726 89.198-107.468 105.56-116.977 16.36-9.51 44.421 35.864 67.363 34.636 22.942-1.229 43.918-63.6 79.864-61.43 35.947 2.17 36.134 12.256 68.753 11.763 32.62-.492 48.416-11.026 61.113-13.724 12.697-2.698 24.307 13.724 24.307 13.724l13.195 26.794v200.041H-60.165v-36.01z" filter="url(#r)" mask="url(#p)" opacity=".1"/>
		</g>
		<path stroke="#ccc" stroke-linecap="square" stroke-width=".5" d="M421.5 117.25h358" opacity=".8"/>
		<g opacity=".6">
			<g transform="translate(752 86)">
				<mask id="t" fill="#fff">
					<use xlink:href="#s"/>
				</mask>
				<path fill="#000" d="M-5.455-5.455h17.502V12H-5.455z" mask="url(#t)"/>
			</g>
			<g transform="translate(752 91.364)">
				<mask id="v" fill="#fff">
					<use xlink:href="#u"/>
				</mask>
				<path fill="#000" d="M-5.455-5.408h17.502v17.499H-5.455z" mask="url(#v)"/>
			</g>
			<g transform="translate(757.364 86)">
				<mask id="x" fill="#fff">
					<use xlink:href="#w"/>
				</mask>
				<path fill="#000" d="M-5.41-5.455h17.5V12h-17.5z" mask="url(#x)"/>
			</g>
			<g transform="translate(757.364 91.364)">
				<mask id="z" fill="#fff">
					<use xlink:href="#y"/>
				</mask>
				<path fill="#000" d="M-5.41-5.408h17.5v17.499h-17.5z" mask="url(#z)"/>
			</g>
		</g>
		<path stroke="#eee" stroke-linecap="square" d="M442.5 266.5h313.002"/>
		<text fill="#9aa0a7" class="ss" font-size="14" transform="translate(421 66)">
			<tspan x="24" y="181">Orbital space probe by NASA</tspan>
		</text>
		<text fill="#000" class="ss" font-size="15" transform="translate(421 66)">
			<tspan x="24" y="159">Mars Reconnaissance Orbiter</tspan>
		</text>
		<path stroke="#9aa0a7" stroke-linecap="square" d="M444.5 198h41.012"/>
		<text fill="#000" class="s" font-size="18" transform="translate(421 66)">
			<tspan x="22" y="85.5">Flowing liquid water discovered on </tspan> <tspan x="22" y="112.5">surface of Mars</tspan>
		</text>
		<text fill="#00bd44" class="ss" font-size="30" transform="translate(444 287)">
			<tspan x="1" y="48">92k readers</tspan>
		</text>
		<text fill="#9aa0a7" class="ss" font-size="14" transform="translate(444 287)">
			<tspan x="0" y="14">Trending topic</tspan>
		</text>
		<path stroke="#eaeff6" stroke-linecap="square" stroke-width=".5" d="M648.25 281.5v65m41-64.5v65m41-65.5v65M624 288.25h130m-130 18h130m-130 16h130m-130 17h130"/>
		<path stroke="url(#A)" stroke-linecap="round" stroke-width="2" d="M11.572 13.273c1.956 2.067 0 24.352 41.483 24.352 18.02 1.52 19.259 10.673 34.14 10.629 26.956.044 19.663.668 35.177.668" transform="matrix(-1 0 0 1 757.944 281)"/>
	</g>
</svg>
