<?xml version="1.0" encoding="UTF-8"?>
<svg width="242px" height="242px" viewBox="0 0 242 242" version="1.1" xmlns="http://www.w3.org/2000/svg" xmlns:xlink="http://www.w3.org/1999/xlink">
    <!-- Generator: Sketch 41.2 (35397) - http://www.bohemiancoding.com/sketch -->
    <title>Group</title>
    <desc>Created with Sketch.</desc>
    <defs></defs>
    <g id="Page-1" stroke="none" stroke-width="1" fill="none" fill-rule="evenodd">
        <g id="Group" fill="#72777d">
            <path d="M131.3,195 C167.2,189.9 194.8,159.1 194.8,121.7 C194.8,99 184.6,78.7 168.5,65.2 L131.2,102.5 L131.2,195 L131.3,195 Z" id="Shape"></path>
            <path d="M110.4,195 L110.4,102.5 L73.1,65.2 C57,78.8 46.8,99.1 46.8,121.7 C46.9,159 74.5,189.9 110.4,195 Z" id="Shape"></path>
            <path d="M185.2,57.4 C202.4,74.6 211.8,97.4 211.8,121.7 C211.8,146 202.3,168.8 185.2,186 C168,203.2 145.2,212.6 120.9,212.6 C96.6,212.6 73.8,203.1 56.6,186 C39.4,168.9 30,146 30,121.7 C30,97.4 39.5,74.6 56.6,57.4 C58.1,55.9 59.6,54.5 61.1,53.2 L40.3,32.4 C38.8,33.8 37.3,35.2 35.8,36.7 C24.8,47.7 16.1,60.6 10,74.9 C3.7,89.7 0.5,105.5 0.5,121.7 C0.5,137.9 3.7,153.7 10,168.5 C16.1,182.8 24.7,195.7 35.8,206.7 C46.8,217.7 59.7,226.4 74,232.5 C88.8,238.8 104.6,242 120.8,242 C137,242 152.8,238.8 167.6,232.5 C181.9,226.4 194.8,217.8 205.8,206.7 C216.8,195.7 225.5,182.8 231.6,168.5 C237.9,153.7 241.1,137.9 241.1,121.7 C241.1,105.5 237.9,89.7 231.6,74.9 C225.5,60.6 216.9,47.7 205.8,36.7 C204.3,35.2 202.8,33.8 201.3,32.4 L180.5,53.2 C182.2,54.5 183.7,55.9 185.2,57.4 Z" id="Shape"></path>
            <circle id="red_circle_46_" cx="120.9" cy="38.3" r="37.5"></circle>
        </g>
    </g>
</svg>
