<?xml version="1.0" encoding="UTF-8"?>
<svg xmlns="http://www.w3.org/2000/svg" width="20" height="20" viewBox="0 0 20 20">
    <g fill="none" fill-rule="evenodd">
        <g stroke-linecap="square" stroke-width=".1">
            <path stroke="#000" stroke-opacity=".1" d="M0 0l20 20L0 0zM20 0L0 20 20 0z"/>
            <circle cx="10" cy="10" r="10" stroke="#36C" stroke-opacity=".5"/>
            <rect width="18" height="18" x="1" y="1" stroke="#00AF89" stroke-opacity=".5" rx="2"/>
            <rect width="20" height="16" y="2" stroke="#D33" stroke-opacity=".5" rx="2"/>
            <rect width="16" height="20" x="2" stroke="#FC3" stroke-opacity=".5" rx="2"/>
        </g>
        <path fill="#000" d="M5 5V1h10.001v4H5zm12 1a2 2 0 0 1 2 2v7h-4v4H5v-4H1V8a2 2 0 0 1 2-2h14zm-1 4a1 1 0 1 0 0-2 1 1 0 0 0 0 2zM6 18h8v-6H6v6z"/>
    </g>
</svg>
