<?xml version="1.0" encoding="UTF-8"?>
<svg xmlns="http://www.w3.org/2000/svg" width="20" height="20" viewBox="0 0 20 20">
    <g fill="none" fill-rule="evenodd">
        <g stroke-linecap="square" stroke-width=".1">
            <path stroke="#000" stroke-opacity=".1" d="M0 0l20 20L0 0zM20 0L0 20 20 0z"/>
            <circle cx="10" cy="10" r="10" stroke="#36C" stroke-opacity=".5"/>
            <rect width="18" height="18" x="1" y="1" stroke="#00AF89" stroke-opacity=".5" rx="2"/>
            <rect width="20" height="16" y="2" stroke="#D33" stroke-opacity=".5" rx="2"/>
            <rect width="16" height="20" x="2" stroke="#FC3" stroke-opacity=".5" rx="2"/>
        </g>
        <path fill="#000" d="M13.5 1C10.5 1 8 3.5 8 6.5c0 1 .3 1.9.7 2.8L1 17v2h4v-2h2v-2h2l3.2-3.2c.4.1.9.2 1.3.2 3 0 5.5-2.5 5.5-5.5S16.5 1 13.5 1M15 6c-.8 0-1.5-.7-1.5-1.5S14.2 3 15 3s1.5.7 1.5 1.5S15.8 6 15 6"/>
    </g>
</svg>
