<?xml version="1.0" encoding="UTF-8"?>
<svg xmlns="http://www.w3.org/2000/svg" width="817" height="213" viewBox="0 0 817 213">
	<title>
		icons-optical-adjustment
	</title>
	<g fill="none" fill-rule="evenodd">
		<path fill="#EAECF0" d="M0 0h817v213H0z"/>
		<g transform="translate(9.75 35.098)">
			<path stroke="#F0F" stroke-opacity=".5" stroke-width=".975" d="M105.294 0h5.85v116.993h-5.85V0zm-11.7 0h5.85v116.993h-5.85V0zM81.895 0h5.85v116.993h-5.85V0zm-11.7 0h5.85v116.993h-5.85V0zM58.497 0h5.85v116.993h-5.85V0zm-11.7 0h5.85v116.993h-5.85V0zm-11.7 0h5.85v116.993h-5.85V0zM23.4 0h5.85v116.993H23.4V0zM11.7 0h5.85v116.993H11.7V0zM0 0h5.85v116.993H0V0z"/>
			<path stroke="#F0F" stroke-opacity=".5" stroke-width=".975" d="M116.993 111.143v5.85H0v-5.85h116.993zm0-11.7v5.85H0v-5.85h116.993zm0-11.698v5.85H0v-5.85h116.993zm0-11.7v5.85H0v-5.85h116.993zm0-11.699v5.85H0v-5.85h116.993zm0-11.7v5.85H0v-5.85h116.993zm0-11.699v5.85H0v-5.85h116.993zm0-11.699v5.85H0v-5.85h116.993zm0-11.7v5.85H0v-5.85h116.993zm0-11.698v5.85H0V5.85h116.993z"/>
			<path stroke="#C70070" stroke-linecap="square" stroke-width=".975" d="M0 0h116.993v116.993H0z"/>
			<rect width="104.319" height="104.319" x="6.337" y="6.337" fill="#14866D" fill-opacity=".5" stroke="#14866D" stroke-width=".975" rx="11.699"/>
			<path fill="#FC3" fill-opacity=".5" stroke="#FC3" stroke-width=".975" d="M23.399.487c-6.193 0-11.212 5.02-11.212 11.212v93.595c0 6.192 5.02 11.211 11.212 11.211h70.195c6.192 0 11.212-5.02 11.212-11.211V11.699c0-6.192-5.02-11.212-11.212-11.212H23.4z"/>
			<path fill="#D33" fill-opacity=".5" stroke="#D33" stroke-width=".975" d="M11.7 12.187c-6.193 0-11.213 5.02-11.213 11.212v70.195c0 6.192 5.02 11.212 11.212 11.212h93.595c6.192 0 11.211-5.02 11.211-11.212V23.4c0-6.193-5.02-11.212-11.211-11.212H11.699z"/>
			<path fill="#36C" fill-opacity=".5" stroke="#36C" stroke-opacity=".5" stroke-width=".812" d="M58.496.406C26.414.406.406 26.414.406 58.496c0 32.083 26.008 58.09 58.09 58.09 32.083 0 58.09-26.007 58.09-58.09 0-32.082-26.007-58.09-58.09-58.09z"/>
		</g>
		<text fill="#C70070" font-family="Lato-Regular, Lato, sans-serif" font-size="13.649">
			<tspan x="9.749" y="182.64">No margin for a circle</tspan> <tspan x="9.749" y="206.038">1 dp margin for a square</tspan>
		</text>
		<text fill="#54595D" font-family="Lato-Regular, Lato, sans-serif" font-size="16">
			<tspan x="0" y="15">Template 20 x 20 dp</tspan>
		</text>
		<text fill="#54595D" font-family="Lato-Regular, Lato, sans-serif" font-size="16">
			<tspan x="244.71" y="15">Resulting shapes</tspan>
		</text>
		<path fill="#FC3" d="M733.155 35.098h74.096c5.384 0 9.749 4.365 9.749 9.75v97.493a9.75 9.75 0 01-9.75 9.75h-74.095c-5.384 0-9.75-4.365-9.75-9.75V44.847c0-5.384 4.366-9.75 9.75-9.75z"/>
		<path fill="#D33" d="M565.465 46.797h97.494a9.75 9.75 0 019.75 9.75v74.095c0 5.384-4.365 9.75-9.75 9.75h-97.494c-5.384 0-9.749-4.366-9.749-9.75V56.547a9.75 9.75 0 019.75-9.75z"/>
		<path fill="#36C" d="M458.222 35.098c32.307 0 58.496 26.19 58.496 58.496 0 32.307-26.19 58.497-58.496 58.497s-58.496-26.19-58.496-58.497c0-32.306 26.19-58.496 58.496-58.496z"/>
		<rect width="105.294" height="105.294" x="249.585" y="40.947" fill="#14866D" rx="9.572"/>
	</g>
</svg>
