<?xml version="1.0" encoding="UTF-8"?>
<svg xmlns="http://www.w3.org/2000/svg" xmlns:xlink="http://www.w3.org/1999/xlink" style="background:#eaecf0" width="817" height="213" viewBox="0 0 817 213">
	<title>
		Optical adjustment of forms in icon design
	</title>
	<style>
		.ss{font-family:system-ui,-apple-system,BlinkMacSystemFont,&apos;Segoe UI&apos;,Roboto,&apos;Oxygen-Sans&apos;,Ubuntu,Cantarell,Lato,&apos;Helvetica Neue&apos;,Helvetica,Arial,sans-serif}
	</style>
	<defs>
		<rect id="a" width="105.294" height="105.294" x="5.85" y="5.85" rx="11.699"/>
		<rect id="b" width="93.594" height="116.993" x="11.699" rx="11.699"/>
		<rect id="c" width="116.993" height="93.594" y="11.699" rx="11.699"/>
		<rect id="d" width="116.993" height="116.993" rx="58.496"/>
	</defs>
	<g fill="none" fill-rule="evenodd">
		<path stroke="#f0f" stroke-opacity=".5" stroke-width=".975" d="M115.043 35.098h5.85V152.09h-5.85V35.098zm-11.7 0h5.85V152.09h-5.85V35.098zm-11.699 0h5.85V152.09h-5.85V35.098zm-11.699 0h5.85V152.09h-5.85V35.098zm-11.7 0h5.85V152.09h-5.85V35.098zm-11.698 0h5.85V152.09h-5.85V35.098zm-11.7 0h5.85V152.09h-5.85V35.098zm-11.699 0h5.85V152.09h-5.85V35.098zm-11.7 0h5.85V152.09h-5.85V35.098zm-11.699 0h5.85V152.09h-5.85V35.098z"/>
		<path stroke="#f0f" stroke-opacity=".5" stroke-width=".975" d="M126.742 146.241v5.85H9.75v-5.85h116.993zm0-11.7v5.85H9.75v-5.85h116.993zm0-11.699v5.85H9.75v-5.85h116.993zm0-11.699v5.85H9.75v-5.85h116.993zm0-11.7v5.85H9.75v-5.85h116.993zm0-11.698v5.85H9.75v-5.85h116.993zm0-11.7v5.85H9.75v-5.85h116.993zm0-11.699v5.85H9.75v-5.85h116.993zm0-11.7v5.85H9.75v-5.85h116.993zm0-11.699v5.85H9.75v-5.85h116.993z"/>
		<path stroke="#f0f" stroke-linecap="square" stroke-opacity=".5" stroke-width=".975" d="M9.75 35.098h116.992V152.09H9.75z"/>
		<g transform="translate(9.75 35.098)">
			<use fill="#14866D" fill-opacity=".5" xlink:href="#a"/>
			<rect width="104.319" height="104.319" x="6.337" y="6.337" stroke="#14866D" stroke-width=".975" rx="11.699"/>
		</g>
		<g transform="translate(9.75 35.098)">
			<use fill="#fc3" fill-opacity=".5" xlink:href="#b"/>
			<rect width="92.619" height="116.018" x="12.187" y=".487" stroke="#fc3" stroke-width=".975" rx="11.699"/>
		</g>
		<g transform="translate(9.75 35.098)">
			<use fill="#d33" fill-opacity=".5" xlink:href="#c"/>
			<rect width="116.018" height="92.619" x=".487" y="12.187" stroke="#d33" stroke-width=".975" rx="11.699"/>
		</g>
		<g transform="translate(9.75 35.098)">
			<use fill="#36c" fill-opacity=".5" xlink:href="#d"/>
			<rect width="116.18" height="116.18" x=".406" y=".406" stroke="#36c" stroke-opacity=".5" stroke-width=".812" rx="58.09"/>
		</g>
		<text fill="#f0f" class="ss" font-size="13">
			<tspan x="9.749" y="182.64">No margin for a circle</tspan> <tspan x="9.749" y="206.038">1 dp margin for a square</tspan>
		</text>
		<text fill="#222" class="ss" font-size="16">
			<tspan x="0" y="13">Template 20 x 20 dp</tspan>
		</text>
		<text fill="#222" class="ss" font-size="16">
			<tspan x="244.71" y="13">Resulting shapes</tspan>
		</text>
		<rect width="93.594" height="116.993" x="723.406" y="35.098" fill="#fc3" rx="9.749"/>
		<rect width="116.993" height="93.594" x="555.716" y="46.797" fill="#d33" rx="9.749"/>
		<rect width="116.993" height="116.993" x="399.726" y="35.098" fill="#36c" rx="58.496"/>
		<rect width="105.294" height="105.294" x="249.585" y="40.947" fill="#14866d" rx="9.572"/>
	</g>
</svg>
