<?xml version="1.0" encoding="UTF-8"?>
<svg xmlns="http://www.w3.org/2000/svg" width="817" height="146" viewBox="0 0 817 146">
	<g fill="none" fill-rule="evenodd">
		<path d="M0 110h82V28H0z"/>
		<g fill="#000" fill-rule="nonzero">
			<path d="M19.803 89.5h11.931a20.008 20.008 0 0 1-6.355-8.2H20.5a12.3 12.3 0 1 1 0-24.6h12.3a12.3 12.3 0 0 1 11.562 16.4h8.61a19.762 19.762 0 0 0 .328-3.403v-1.394c0-10.937-8.866-19.803-19.803-19.803H19.803C8.866 48.5 0 57.366 0 68.303v1.394C0 80.634 8.866 89.5 19.803 89.5z"/>
			<path d="M62.197 48.5H50.266a20.008 20.008 0 0 1 6.355 8.2H61.5a12.3 12.3 0 1 1 0 24.6H49.2a12.3 12.3 0 0 1-11.562-16.4h-8.61a19.762 19.762 0 0 0-.328 3.403v1.394c0 10.937 8.866 19.803 19.803 19.803h13.694A19.803 19.803 0 0 0 82 69.697v-1.394A19.803 19.803 0 0 0 62.197 48.5z"/>
		</g>
		<path d="M246 28h82v82h-82z"/>
		<path fill="#000" d="M307.5 56.7a8.203 8.203 0 0 1-8.2-8.2c0-4.526 3.674-8.2 8.2-8.2s8.2 3.674 8.2 8.2-3.674 8.2-8.2 8.2m0 41a8.203 8.203 0 0 1-8.2-8.2c0-4.526 3.674-8.2 8.2-8.2s8.2 3.674 8.2 8.2-3.674 8.2-8.2 8.2M287 77.2a8.203 8.203 0 0 1-8.2-8.2c0-4.526 3.674-8.2 8.2-8.2s8.2 3.674 8.2 8.2-3.674 8.2-8.2 8.2m-20.5-20.5a8.203 8.203 0 0 1-8.2-8.2c0-4.526 3.674-8.2 8.2-8.2s8.2 3.674 8.2 8.2-3.674 8.2-8.2 8.2m0 41a8.203 8.203 0 0 1-8.2-8.2c0-4.526 3.674-8.2 8.2-8.2s8.2 3.674 8.2 8.2-3.674 8.2-8.2 8.2m49.2-65.6h-57.4a8.203 8.203 0 0 0-8.2 8.2v57.4c0 4.526 3.674 8.2 8.2 8.2h57.4c4.526 0 8.2-3.674 8.2-8.2V40.3c0-4.526-3.674-8.2-8.2-8.2"/>
		<path d="M123 110h82V28h-82z"/>
		<path fill="#000" d="M159.9 77.2h8.2V44.4h-8.2v32.8zm0 16.4h8.2v-8.2h-8.2v8.2zM164 28c-22.644 0-41 18.356-41 41s18.356 41 41 41 41-18.356 41-41-18.356-41-41-41z"/>
		<path fill="#000" fill-rule="nonzero" d="M530.631 58.688l10.578 10.006c-.133-5.572-4.659-10.026-10.209-10.047l-.369.041z"/>
		<path fill="#000" fill-rule="nonzero" d="M523.62 52.059a17.893 17.893 0 0 1 7.38-1.647c10.19 0 18.45 8.296 18.45 18.53a17.939 17.939 0 0 1-1.189 6.382L559.7 85.988A57.638 57.638 0 0 0 572 68.941s-12.3-28.823-41-28.823a39.34 39.34 0 0 0-16.4 3.5l9.02 8.44zm31.447 37.676L543.3 78.66l-4.1-3.747-14.596-13.96-5.904-5.64-9.389-8.812L498.2 36l-4.1 4.118L504.555 50A57.164 57.164 0 0 0 490 68.941s12.3 28.824 41 28.824a39.52 39.52 0 0 0 19.024-4.777L563.8 106l4.1-4.118-12.833-12.147zM531 87.471c-10.19 0-18.45-8.296-18.45-18.53.023-3.183.87-6.305 2.46-9.059l6.273 5.93a10.21 10.21 0 0 0-.533 3.13 10.265 10.265 0 0 0 4.466 8.502 10.172 10.172 0 0 0 9.515 1.05l6.314 5.97A18.27 18.27 0 0 1 531 87.472z"/>
		<path d="M490 118.353h82V36h-82z"/>
		<path fill="#000" d="M621.2 93.6h65.6V60.8h-65.6v32.8zm8.2-51.25a6.15 6.15 0 1 1 0 12.3 6.15 6.15 0 1 1 0-12.3zm57.4-6.15h-65.6a8.203 8.203 0 0 0-8.2 8.2v49.2c0 4.526 3.674 8.2 8.2 8.2h65.6c4.526 0 8.2-3.674 8.2-8.2V44.4c0-4.526-3.674-8.2-8.2-8.2zM434.6 56.7v24.6l8.2 8.2v4.1h-65.6v-4.1l8.2-8.2V56.7c0-3.637 3.251-16.917 18.274-19.89-.222-2.812.045-8.81 6.326-8.81s6.548 5.998 6.326 8.81C431.35 39.784 434.6 53.064 434.6 56.7zM410 110c-6.794 0-12.3-5.506-12.3-12.3h24.6c0 6.794-5.506 12.3-12.3 12.3z"/>
		<path d="M736 110h82V28h-82z"/>
		<path fill="#000" d="M791.35 32.1c-12.3 0-22.55 10.25-22.55 22.55 0 4.1 1.23 7.79 2.87 11.48L740.1 97.7v8.2h16.4v-8.2h8.2v-8.2h8.2l13.12-13.12c1.64.41 3.69.82 5.33.82 12.3 0 22.55-10.25 22.55-22.55S803.65 32.1 791.35 32.1m6.15 20.5c-3.28 0-6.15-2.87-6.15-6.15 0-3.28 2.87-6.15 6.15-6.15 3.28 0 6.15 2.87 6.15 6.15 0 3.28-2.87 6.15-6.15 6.15"/>
	</g>
</svg>
