<?xml version="1.0" encoding="UTF-8"?>
<svg xmlns="http://www.w3.org/2000/svg" width="817" height="213" viewBox="0 0 817 213">
  <title>
    icons-optical-adjustment
  </title>
  <g fill="none" fill-rule="evenodd">
    <path fill="#EAECF0" d="M0 0h817v213H0z"/>
    <g transform="translate(9.749403 35.097852)">
      <path stroke="#F0F" stroke-opacity=".5" stroke-width=".97494033" d="M105.293556 0h5.849642v116.99284h-5.849642V0zM93.5942721 0h5.849642v116.99284h-5.849642V0zm-11.699284 0h5.849642v116.99284h-5.849642V0zm-11.699284 0h5.849642v116.99284h-5.849642V0zM58.49642 0h5.8496421v116.99284H58.49642V0zM46.797136 0h5.849642v116.99284h-5.849642V0zM35.097852 0h5.849642v116.99284h-5.849642V0zM23.398568 0h5.849642v116.99284h-5.849642V0zM11.699284 0h5.849642v116.99284h-5.849642V0zM0 0h5.849642v116.99284H0V0z"/>
      <path stroke="#F0F" stroke-opacity=".5" stroke-width=".97494033" d="M116.99284 111.143198v5.849642H0v-5.849642h116.99284zm0-11.6992839v5.8496419H0v-5.8496419h116.99284zm0-11.699284v5.849642H0v-5.849642h116.99284zm0-11.699284v5.849642H0v-5.849642h116.99284zm0-11.699284v5.849642H0v-5.849642h116.99284zm0-11.6992841v5.849642H0v-5.849642h116.99284zm0-11.699284v5.849642H0v-5.849642h116.99284zm0-11.699284v5.849642H0V29.24821h116.99284zm0-11.699284v5.849642H0v-5.849642h116.99284zm0-11.699284v5.84964201H0V5.849642h116.99284z"/>
      <path stroke="#C70070" stroke-linecap="square" stroke-width=".97494033" d="M0 0h116.99284v116.99284H0z"/>
      <rect width="104.318616" height="104.318616" x="6.33711217" y="6.33711217" fill="#14866D" fill-opacity=".5" stroke="#14866D" stroke-width=".97494033" rx="11.699284"/>
      <path fill="#FC3" fill-opacity=".5" stroke="#FC3" stroke-width=".97494033" d="M23.398568.48747017c-6.1921138 0-11.2118138 5.01970004-11.2118138 11.21181383v93.594272c0 6.192114 5.0197 11.211814 11.2118138 11.211814h70.1957041c6.1921138 0 11.2118139-5.0197 11.2118139-11.211814V11.699284c0-6.19211379-5.0197001-11.21181383-11.2118139-11.21181383H23.398568z"/>
      <path fill="#D33" fill-opacity=".5" stroke="#D33" stroke-width=".97494033" d="M11.699284 12.1867542c-6.19211379 0-11.21181383 5.0197-11.21181383 11.2118138v70.1957041c0 6.1921138 5.01970004 11.2118139 11.21181383 11.2118139h93.594272c6.192114 0 11.211814-5.0197001 11.211814-11.2118139V23.398568c0-6.1921138-5.0197-11.2118138-11.211814-11.2118138H11.699284z"/>
      <path fill="#36C" fill-opacity=".5" stroke="#36C" stroke-opacity=".5" stroke-width=".81245028" d="M58.49642.40622514C26.4140913.40622514.40622514 26.4140913.40622514 58.49642c0 32.0823288 26.00786616 58.090195 58.09019486 58.090195 32.0823288 0 58.090195-26.0078662 58.090195-58.090195 0-32.0823287-26.0078662-58.09019486-58.090195-58.09019486z"/>
    </g>
    <text fill="#C70070" font-family="Lato-Regular, Lato, sans-serif" font-size="13.6491647">
      <tspan x="9.74940334" y="182.639618">No margin for a circle</tspan> <tspan x="9.74940334" y="206.038186">1 dp margin for a square</tspan>
    </text>
    <text fill="#54595D" font-family="Lato-Regular, Lato, sans-serif" font-size="16">
      <tspan x="0" y="15">Template 20 x 20 dp</tspan>
    </text>
    <text fill="#54595D" font-family="Lato-Regular, Lato, sans-serif" font-size="16">
      <tspan x="244.710024" y="15">Resulting shapes</tspan>
    </text>
    <path fill="#FC3" d="M733.155131 35.097852h74.095466c5.384446 0 9.749403 4.3649566 9.749403 9.7494034v97.4940336c0 5.384447-4.364957 9.749403-9.749403 9.749403h-74.095466c-5.384447 0-9.749403-4.364956-9.749403-9.749403V44.8472554c0-5.3844468 4.364956-9.7494034 9.749403-9.7494034z"/>
    <path fill="#D33" d="M565.465394 46.797136h97.494033c5.384447 0 9.749404 4.3649566 9.749404 9.7494034v74.0954656c0 5.384447-4.364957 9.749403-9.749404 9.749403h-97.494033c-5.384447 0-9.749404-4.364956-9.749404-9.749403V56.5465394c0-5.3844468 4.364957-9.7494034 9.749404-9.7494034z"/>
    <path fill="#36C" d="M458.221957 35.097852c32.306681 0 58.49642 26.1897394 58.49642 58.4964201 0 32.3066809-26.189739 58.4964199-58.49642 58.4964199s-58.49642-26.189739-58.49642-58.4964199c0-32.3066807 26.189739-58.4964201 58.49642-58.4964201z"/>
    <rect width="105.293556" height="105.293556" x="249.584726" y="40.947494" fill="#14866D" rx="9.57214146"/>
  </g>
</svg>
