<?xml version="1.0" encoding="UTF-8"?>
<svg xmlns="http://www.w3.org/2000/svg" width="817" height="146" viewBox="0 0 817 146">
  <g fill="none" fill-rule="evenodd">
    <path d="M0 110h82V28H0z"/>
    <g fill="#000" fill-rule="nonzero">
		<path d="M19.803 89.5h11.931c-2.8024415-2.1270557-4.994462-4.9554691-6.355-8.2H20.5c-4.3943668 1e-7-8.4549293-2.3443666-10.65211277-6.1499999-2.19718346-3.8056333-2.19718346-8.4943669 0-12.3000002C12.0450707 59.0443666 16.1056332 56.69999987 20.5 56.7h12.3c3.9869049.01119387 7.7210772 1.9541296 10.0183479 5.2126697C45.1156187 65.1712098 45.6909893 69.3411007 44.362 73.1h8.61a19.76200292 19.76200292 0 0 0 .328-3.403v-1.394c0-10.9368949-8.8661051-19.803-19.803-19.803H19.803C8.8661051 48.5 0 57.3661051 0 68.303v1.394C0 80.6338949 8.8661051 89.5 19.803 89.5z"/>
		<path d="M62.197 48.5H50.266c2.8024415 2.12705567 4.994462 4.95546914 6.355 8.2H61.5c4.3943668-9e-8 8.4549292 2.3443666 10.6521127 6.1499999 2.1971834 3.8056333 2.1971834 8.4943669 0 12.3000002C69.9549292 78.9556334 65.8943668 81.3000001 61.5 81.3H49.2c-3.9869049-.0111939-7.7210772-1.9541296-10.0183479-5.2126697C36.8843813 72.8287902 36.3090107 68.6588993 37.638 64.9h-8.61a19.76200292 19.76200292 0 0 0-.328 3.403v1.394c0 10.9368949 8.8661051 19.803 19.803 19.803h13.694c5.2520821 0 10.2890527-2.0863815 14.0028356-5.8001644S82 74.9490821 82 69.697v-1.394c0-5.2520821-2.0863815-10.28905269-5.8001644-14.00283559S67.4490821 48.5 62.197 48.5z"/>
    </g>
    <path d="M246 28h82v82h-82z"/>
    <path fill="#000" d="M307.5 56.7c-4.5264 0-8.2-3.6736-8.2-8.2 0-4.5264 3.6736-8.2 8.2-8.2 4.5264 0 8.2 3.6736 8.2 8.2 0 4.5264-3.6736 8.2-8.2 8.2m0 41c-4.5264 0-8.2-3.6736-8.2-8.2 0-4.5264 3.6736-8.2 8.2-8.2 4.5264 0 8.2 3.6736 8.2 8.2 0 4.5264-3.6736 8.2-8.2 8.2M287 77.2c-4.5264 0-8.2-3.6736-8.2-8.2 0-4.5264 3.6736-8.2 8.2-8.2 4.5264 0 8.2 3.6736 8.2 8.2 0 4.5264-3.6736 8.2-8.2 8.2m-20.5-20.5c-4.5264 0-8.2-3.6736-8.2-8.2 0-4.5264 3.6736-8.2 8.2-8.2 4.5264 0 8.2 3.6736 8.2 8.2 0 4.5264-3.6736 8.2-8.2 8.2m0 41c-4.5264 0-8.2-3.6736-8.2-8.2 0-4.5264 3.6736-8.2 8.2-8.2 4.5264 0 8.2 3.6736 8.2 8.2 0 4.5264-3.6736 8.2-8.2 8.2m49.2-65.6h-57.4c-4.5264 0-8.2 3.6736-8.2 8.2v57.4c0 4.5264 3.6736 8.2 8.2 8.2h57.4c4.5264 0 8.2-3.6736 8.2-8.2V40.3c0-4.5264-3.6736-8.2-8.2-8.2"/>
    <path d="M123 110h82V28h-82z"/>
    <path fill="#000" d="M159.9 77.2h8.2V44.4h-8.2v32.8zm0 16.4h8.2v-8.2h-8.2v8.2zM164 28c-22.6443 0-41 18.3557-41 41s18.3557 41 41 41 41-18.3557 41-41-18.3557-41-41-41z"/>
    <path fill="#000" fill-rule="nonzero" d="M530.631 58.6882353l10.578 10.0058823c-.1331695-5.5726092-4.6587138-10.0263666-10.209-10.0470588l-.369.0411765z"/>
    <path fill="#000" fill-rule="nonzero" d="M523.62 52.0588235c2.3157579-1.06873 4.8314971-1.6301894 7.38-1.6470588 10.1896536 0 18.45 8.2959002 18.45 18.5294118-.0049416 2.1825201-.4079255 4.3456698-1.189 6.3823529L559.7 85.9882353c5.1071299-4.8759423 9.2766434-10.6546367 12.3-17.0470588 0 0-12.3-28.82352944-41-28.82352944-5.6531188-.02591658-11.2458637 1.16765703-16.4 3.5l9.02 8.44117644zm31.447 37.6764706L543.3 78.6588235l-4.1-3.7470588-14.596-13.9588235-5.904-5.6411765L509.311 46.5 498.2 36l-4.1 4.11764706L504.555 50c-6.12705303 5.2125622-11.08723497 11.6675043-14.555 18.9411765 0 0 12.3 28.8235294 41 28.8235294 6.6395341.0327749 13.1809449-1.6096166 19.024-4.7764706L563.8 106l4.1-4.1176471-12.833-12.1470588zM531 87.4705882c-10.1896536 0-18.45-8.2959002-18.45-18.5294117.0226395-3.1829388.8704768-6.305056 2.46-9.0588236l6.273 5.9294118c-.3396865 1.0086843-.519544 2.0646847-.533 3.1294118-.0084324 3.4029447 1.664839 6.5883643 4.4663144 8.5025571 2.8014754 1.9141929 6.3660814 2.3077114 9.5146856 1.050384l6.314 5.9705883c-2.9855625 1.9626957-6.476694 3.0073877-10.045 3.0058823z"/>
    <path d="M490 118.353h82V36h-82z"/>
    <g>
		<path fill="#000" d="M621.2 93.6h65.6V60.8h-65.6v32.8zm8.2-51.25c3.3989 0 6.15 2.7552 6.15 6.15 0 3.3948-2.7511 6.15-6.15 6.15-3.3989 0-6.15-2.7552-6.15-6.15 0-3.3948 2.7511-6.15 6.15-6.15zm57.4-6.15h-65.6c-4.5264 0-8.2 3.6736-8.2 8.2v49.2c0 4.5264 3.6736 8.2 8.2 8.2h65.6c4.5264 0 8.2-3.6736 8.2-8.2V44.4c0-4.5264-3.6736-8.2-8.2-8.2z"/>
    </g>
    <g>
		<path fill="#000" d="M434.6 56.7v24.6l8.2 8.2v4.1h-65.6v-4.1l8.2-8.2V56.7c0-3.6367 3.2513-16.9166 18.2737-19.8891C403.4523 33.9983 403.7188 28 410 28s6.5477 5.9983 6.3263 8.8109C431.3487 39.7834 434.6 53.0633 434.6 56.7zM410 110c-6.7937 0-12.3-5.5063-12.3-12.3h24.6c0 6.7937-5.5063 12.3-12.3 12.3z"/>
    </g>
    <g>
		<path d="M736 110h82V28h-82z"/>
		<path fill="#000" d="M791.35 32.1c-12.3 0-22.55 10.25-22.55 22.55 0 4.1 1.23 7.79 2.87 11.48L740.1 97.7v8.2h16.4v-8.2h8.2v-8.2h8.2l13.12-13.12c1.64.41 3.69.82 5.33.82 12.3 0 22.55-10.25 22.55-22.55S803.65 32.1 791.35 32.1m6.15 20.5c-3.28 0-6.15-2.87-6.15-6.15 0-3.28 2.87-6.15 6.15-6.15 3.28 0 6.15 2.87 6.15 6.15 0 3.28-2.87 6.15-6.15 6.15"/>
    </g>
  </g>
</svg>
