<?xml version="1.0" encoding="UTF-8"?>
<svg xmlns="http://www.w3.org/2000/svg" xmlns:xlink="http://www.w3.org/1999/xlink" style="background:#f2f2f2" width="900" height="253" viewBox="0 0 900 253">
    <title>
        Header imagesvgqq
    </title>
    <desc>
        Created with Sketch.
    </desc>
    <defs>
        <path id="path-1" d="M.072 90.803L.405 3.002A2.007 2.007 0 0 1 2.415 1h110.647v16.505c0 1.103.895 1.997 1.993 1.997h16.304V178.98c0 1.104-.542 1.293-1.271.468 0 0-1.523-2.517-4.466-2.517-2.943 0-2.675 2.316-5.275 3.04-2.6.724-2.605-3.04-5.39-3.04-2.787 0-2.938 3.04-5.59 3.04-2.65 0-2.477-3.04-5.375-3.04-2.9 0-3.18 3.04-5.725 3.04-2.545 0-2.467-3.04-5.447-3.04s-2.967 3.04-5.602 3.04c-2.636 0-2.451-3.04-5.238-3.04-2.786 0-2.68 2.318-5.373 3.04-2.692.722-3.172-3.04-5.863-3.04-2.692 0-2.893 3.04-5.487 3.04-2.594 0-2.176-3.04-5.055-3.04-2.878 0-3.199 3.04-5.889 3.04-2.69 0-2.922-3.04-5.722-3.04-2.801 0-2.497 3.04-5.259 3.04-2.761 0-2.862-3.04-5.61-3.04-2.747 0-2.704 3.04-5.407 3.04-2.704 0-2.58-3.04-5.48-3.04-2.9 0-3.009 3.04-5.726 3.04-2.718 0-2.479-3.04-4.855-3.04-2.375 0-3.368 3.852-5.96 3.04-2.593-.811-2.294-3.04-5.19-3.04-2.895 0-3.92 2.4-3.92 2.4-.614.91-1.112.747-1.112-.348v-88.18z"/>
        <filter id="filter-2" width="110.7%" height="107.8%" x="-5.3%" y="-3.9%" filterUnits="objectBoundingBox">
            <feMorphology in="SourceAlpha" operator="dilate" radius="1" result="shadowSpreadOuter1"/>
            <feOffset in="shadowSpreadOuter1" result="shadowOffsetOuter1"/>
            <feGaussianBlur in="shadowOffsetOuter1" result="shadowBlurOuter1" stdDeviation="2"/>
            <feComposite in="shadowBlurOuter1" in2="SourceAlpha" operator="out" result="shadowBlurOuter1"/>
            <feColorMatrix in="shadowBlurOuter1" values="0 0 0 0 0.961 0 0 0 0 0.961 0 0 0 0 0.961 0 0 0 1 0"/>
        </filter>
        <path id="path-3" d="M114.128 21a2.063 2.063 0 0 1-2.056-2.074V2.074c0-.837.502-1.597 1.269-1.916a2.042 2.042 0 0 1 2.24.45l16.481 16.626c.527.375.866.993.866 1.692A2.063 2.063 0 0 1 130.872 21c-.01-.002-16.744 0-16.744 0z"/>
        <pattern id="pattern-4" width="126.276%" height="100%" x="-26.276%">
            <use transform="scale(.00754)" xlink:href="#image-5"/>
        </pattern>
        <pattern id="pattern-6" width="100%" height="135.752%" y="-35.752%">
            <use transform="scale(.01236)" xlink:href="#image-7"/>
        </pattern>
        <pattern id="pattern-8" width="100%" height="138.269%" y="-38.269%">
            <use transform="scale(.0148)" xlink:href="#image-9"/>
        </pattern>
        <pattern id="pattern-10" width="100%" height="191.217%" y="-91.217%">
            <use transform="scale(.03443)" xlink:href="#image-11"/>
        </pattern>
        <filter id="filter-12" width="109.2%" height="110.4%" x="-4.6%" y="-4.5%" filterUnits="objectBoundingBox">
            <feOffset in="SourceAlpha" result="shadowOffsetOuter1"/>
            <feGaussianBlur in="shadowOffsetOuter1" result="shadowBlurOuter1" stdDeviation="2"/>
            <feColorMatrix in="shadowBlurOuter1" result="shadowMatrixOuter1" values="0 0 0 0 0.961 0 0 0 0 0.961 0 0 0 0 0.961 0 0 0 1 0"/>
            <feMerge>
                <feMergeNode in="shadowMatrixOuter1"/>
                <feMergeNode in="SourceGraphic"/>
            </feMerge>
        </filter>
        <rect id="path-13" width="100.28" height="79" rx="2"/>
        <path id="path-14" d="M27.182 64.64L11.89 74.963V64.64H2.003A1.999 1.999 0 0 1 0 62.635V2.005C0 .898.898 0 2.003 0h96.274c1.106 0 2.003.89 2.003 2.005v60.63a2.005 2.005 0 0 1-2.003 2.005H27.182z"/>
        <filter id="filter-15" width="111.5%" height="110.8%" x="-4.8%" y="-4.2%" filterUnits="objectBoundingBox">
            <feOffset in="SourceAlpha" result="shadowOffsetOuter1"/>
            <feGaussianBlur in="shadowOffsetOuter1" result="shadowBlurOuter1" stdDeviation="2"/>
            <feColorMatrix in="shadowBlurOuter1" result="shadowMatrixOuter1" values="0 0 0 0 0.961 0 0 0 0 0.961 0 0 0 0 0.961 0 0 0 1 0"/>
            <feMerge>
                <feMergeNode in="shadowMatrixOuter1"/>
                <feMergeNode in="SourceGraphic"/>
            </feMerge>
        </filter>
        <path id="path-16" d="M0 2.007C0 .899.902 0 2.003 0h33.994C37.103 0 38 .905 38 2.007v171.986A2.008 2.008 0 0 1 35.997 176H2.003A2.009 2.009 0 0 1 0 173.993V2.007zM19 24a8 8 0 1 0 0-16 8 8 0 0 0 0 16z"/>
        <path id="path-17" d="M0 20.007C0 15.585 3.58 12 7.992 12h8.016A7.989 7.989 0 0 1 24 19.996v157.505L11.95 208 0 177.431V20.007z"/>
        <path id="path-18" d="M0 0h45.596a2 2 0 0 1 2 2v72.095a2 2 0 0 1-2 2H2a2 2 0 0 1-2-2V0z"/>
        <path id="path-19" d="M0 0h45.596a2 2 0 0 1 2 2v72.095a2 2 0 0 1-2 2H2a2 2 0 0 1-2-2V0z"/>
        <path id="path-20" d="M74.967.018C82.177 1.829 93.62 3 106.5 3c12.923 0 24.396-1.178 31.603-3h.062l35.419 12.825a2 2 0 0 1 1.319 1.88V179a2 2 0 0 1-2 2H39a2 2 0 0 1-2-2V10.934a2 2 0 0 1 1.522-1.942L74.967.018z"/>
        <path id="path-21" d="M75.004.015C75 .176 75 .338 75 .5 75 17.897 89.103 32 106.5 32S138 17.897 138 .5c0-.167-.001-.334-.004-.5h.052l35.234 6.813a2 2 0 0 1 1.62 1.964V179a2 2 0 0 1-2 2H38.996a2 2 0 0 1-2-1.995l-.456-170.21a2 2 0 0 1 1.637-1.972L75.004.015z"/>
    </defs>
    <g id="Page-1" fill="none" fill-rule="evenodd">
        <g id="Header-image">
            <g id="Gray-" transform="translate(40 36)">
                <g id="Path-8" stroke-linecap="round">
                    <use fill="#000" filter="url(#filter-2)" xlink:href="#path-1"/>
                    <use fill="#F5F5F5" stroke="#A2A9B1" stroke-width="2" xlink:href="#path-1"/>
                </g>
                <g id="Corner">
                    <use fill="#C8CCD1" xlink:href="#path-3"/>
                    <path stroke="#A2A9B1" stroke-width="2" d="M114.128 20h4.339a127243.699 127243.699 0 0 1 12.216 0c.08-.002.109-.003.189.003V20c.583 0 1.056-.477 1.056-1.074 0-.358-.168-.68-.446-.878l-.13-.11-16.48-16.626a1.042 1.042 0 0 0-1.147-.23 1.076 1.076 0 0 0-.653.992v16.852c0 .597.473 1.074 1.056 1.074z"/>
                </g>
                <g id="Illustration" transform="translate(1.072 15)">
                    <ellipse id="Oval" cx="18.169" cy="9" fill="#A2A9B1" rx="9.084" ry="9"/>
                    <ellipse id="Oval" cx="18.169" cy="9" fill="url(#pattern-4)" rx="9.084" ry="9"/>
                    <path id="Path-3" fill="#A2A9B1" d="M86.154 21s21.896 14.749 26.823 9.323c4.926-5.427 0 7.877 0 7.877H69.744"/>
                    <path id="Path-3" fill="url(#pattern-6)" d="M86.154 21s21.896 14.749 26.823 9.323c4.926-5.427 0 7.877 0 7.877H69.744"/>
                    <path id="Path-4" fill="#A2A9B1" d="M0 29s17.45 12.188 41.768 12.188S47.718 49 47.718 49H.052"/>
                    <path id="Path-4" fill="url(#pattern-8)" d="M0 29s17.45 12.188 41.768 12.188S47.718 49 47.718 49H.052"/>
                    <path id="Path-2" fill="#C8CCD1" d="M2.772 49.118S98.352 3.55 86.375 26.484c-11.976 22.934 42.897-5.386 42.897-5.386v28.02"/>
                    <path id="Path-2" fill="url(#pattern-10)" d="M2.772 49.118S98.352 3.55 86.375 26.484c-11.976 22.934 42.897-5.386 42.897-5.386v28.02"/>
                </g>
                <path id="Rectangle-33" fill="#F5F5F5" d="M1.072 63h129.1v2H1.072z"/>
                <g id="Body-Text" transform="translate(12.072 75)">
                    <rect id="Rectangle-4" width="73" height="2" y="7" fill="#C8CCD1" rx="1"/>
                    <rect id="Rectangle-4" width="81" height="2" y="31" fill="#A2A9B1" rx="1"/>
                    <rect id="Rectangle-4" width="32" height="2" y="85" fill="#A2A9B1" rx="1"/>
                    <rect id="Rectangle-4" width="73" height="2" x="35" y="85" fill="#A2A9B1" rx="1"/>
                    <rect id="Rectangle-4" width="17" height="2" y="45" fill="#A2A9B1" rx="1"/>
                    <rect id="Rectangle-4" width="17" height="2" x="91" y="45" fill="#A2A9B1" rx="1"/>
                    <rect id="Rectangle-4" width="68" height="2" x="20" y="45" fill="#A2A9B1" rx="1"/>
                    <rect id="Rectangle-4" width="17" height="2" y="78" fill="#A2A9B1" rx="1"/>
                    <rect id="Rectangle-4" width="37" height="2" x="72" y="78" fill="#A2A9B1" rx="1"/>
                    <rect id="Rectangle-4" width="49" height="2" x="20" y="78" fill="#A2A9B1" rx="1"/>
                    <rect id="Rectangle-4" width="24" height="2" x="84" y="31" fill="#A2A9B1" rx="1" transform="matrix(-1 0 0 1 192 0)"/>
                    <rect id="Rectangle-4" width="81" height="2" y="66" fill="#A2A9B1" rx="1"/>
                    <rect id="Rectangle-4" width="14" height="2" x="54" y="24" fill="#A2A9B1" rx="1"/>
                    <rect id="Rectangle-4" width="37" height="2" x="71" y="24" fill="#A2A9B1" rx="1"/>
                    <rect id="Rectangle-4" width="51" height="2" y="24" fill="#A2A9B1" rx="1"/>
                    <rect id="Rectangle-4" width="108" height="2" y="59" fill="#A2A9B1" rx="1"/>
                    <rect id="Rectangle-4" width="108" height="2" y="52" fill="#A2A9B1" rx="1"/>
                    <rect id="Rectangle-4" width="108" height="2" y="92" fill="#A2A9B1" rx="1"/>
                    <rect id="Rectangle-4" width="108" height="2" y="38" fill="#A2A9B1" rx="1"/>
                    <rect id="Rectangle-4" width="51" height="2" fill="#A2A9B1" rx="1"/>
                </g>
            </g>
            <g id="Group" filter="url(#filter-12)" transform="translate(233 60)">
                <g id="Group-56" transform="translate(29)">
                    <g id="Rectangle-20">
                        <use fill="#C8CCD1" xlink:href="#path-13"/>
                        <rect width="98.28" height="77" x="1" y="1" stroke="#A2A9B1" stroke-width="2" rx="2"/>
                    </g>
                </g>
                <g id="Group-10" fill="#FFF" transform="translate(39 14)">
                    <rect id="Rectangle-4" width="60" height="2" y="14" rx="1"/>
                    <rect id="Rectangle-4" width="17" height="2" x="63" y="14" rx="1"/>
                    <rect id="Rectangle-4" width="21" height="2" y="7" rx="1"/>
                    <rect id="Rectangle-4" width="56" height="2" x="24" y="7" rx="1"/>
                    <rect id="Rectangle-4" width="21" height="2" y="49" rx="1"/>
                    <rect id="Rectangle-4" width="32" height="2" x="48" y="49" rx="1"/>
                    <rect id="Rectangle-4" width="21" height="2" x="24" y="49" rx="1"/>
                    <rect id="Rectangle-4" width="40.14" height="2" x="40" y="21" rx="1"/>
                    <rect id="Rectangle-4" width="37" height="2" y="21" rx="1"/>
                    <rect id="Rectangle-4" width="40.14" height="2" x="40" rx="1"/>
                    <rect id="Rectangle-4" width="37" height="2" rx="1"/>
                    <rect id="Rectangle-4" width="30.28" height="2" x="50" y="28" rx="1"/>
                    <rect id="Rectangle-4" width="36" height="2" x="11" y="28" rx="1"/>
                    <rect id="Rectangle-4" width="8" height="2" y="28" rx="1"/>
                    <rect id="Rectangle-4" width="80.28" height="2" y="35" rx="1"/>
                    <rect id="Rectangle-4" width="47.28" height="2" x="33.28" y="42" rx="1"/>
                    <rect id="Rectangle-4" width="30.28" height="2" y="42" rx="1"/>
                </g>
                <g id="Group-36" transform="translate(0 41)">
                    <g id="Combined-Shape">
                        <use fill="#A2A9B1" xlink:href="#path-14"/>
                        <path stroke="#A2A9B1" stroke-width="2" d="M12.89 73.081l13.986-9.441h71.4c.554 0 1.004-.45 1.004-1.005V2.005A.999.999 0 0 0 98.277 1H2.003C1.45 1 1 1.45 1 2.005v60.63a.999.999 0 0 0 1.003 1.005H12.89v9.441z"/>
                    </g>
                    <g id="Group-10" fill="#FFF" transform="translate(10 14)">
                        <rect id="Rectangle-4" width="60" height="2" y="7" rx="1"/>
                        <rect id="Rectangle-4" width="17" height="2" x="63" y="7" rx="1"/>
                        <rect id="Rectangle-4" width="21" height="2" rx="1"/>
                        <rect id="Rectangle-4" width="32" height="2" x="48" rx="1"/>
                        <rect id="Rectangle-4" width="21" height="2" x="24" rx="1"/>
                        <rect id="Rectangle-4" width="40.14" height="2" x="40" y="14" rx="1"/>
                        <rect id="Rectangle-4" width="37" height="2" y="14" rx="1"/>
                        <rect id="Rectangle-4" width="30.28" height="2" x="50" y="21" rx="1"/>
                        <rect id="Rectangle-4" width="36" height="2" x="11" y="21" rx="1"/>
                        <rect id="Rectangle-4" width="8" height="2" y="21" rx="1"/>
                        <rect id="Rectangle-4" width="80.28" height="2" y="28" rx="1"/>
                        <rect id="Rectangle-4" width="47.28" height="2" x="33.28" y="35" rx="1"/>
                        <rect id="Rectangle-4" width="30.28" height="2" y="35" rx="1"/>
                    </g>
                </g>
                <g id="Group-35" transform="translate(63 70)">
                    <path id="Combined-Shape" fill="#C8CCD1" stroke="#A2A9B1" stroke-width="2" d="M58.623 49.76v13.793l-8.09-5.463A31.854 31.854 0 0 1 32 64C14.327 64 0 49.673 0 32 0 14.327 14.327 0 32 0c17.673 0 32 14.327 32 32 0 6.57-1.98 12.68-5.377 17.76z"/>
                    <circle id="Oval-5" cx="20" cy="32" r="3" fill="#FFF"/>
                    <circle id="Oval-5" cx="32" cy="32" r="3" fill="#FFF"/>
                    <circle id="Oval-5" cx="44" cy="32" r="3" fill="#FFF"/>
                </g>
            </g>
            <g id="Group-5" filter="url(#filter-15)" transform="translate(423 44)">
                <g id="Group-42" transform="rotate(45 56.805 160.956)">
                    <g id="Group-38">
                        <g id="Combined-Shape">
                            <use fill="#C8CCD1" xlink:href="#path-16"/>
                            <path stroke="#A2A9B1" stroke-width="2" d="M-1 2.007A3.008 3.008 0 0 1 2.003-1h33.994A3.009 3.009 0 0 1 39 2.007v171.986A3.008 3.008 0 0 1 35.997 177H2.003A3.009 3.009 0 0 1-1 173.993V2.007zM19 23a7 7 0 1 0 0-14 7 7 0 0 0 0 14z"/>
                        </g>
                        <path id="Rectangle-29" fill="#A2A9B1" d="M23 38.556c0-.553.449-1 1.007-1H38v2H24.007a1.001 1.001 0 0 1-1.007-1z"/>
                        <path id="Rectangle-29" fill="#2A4B8D" d="M23 78.111c0-.552.449-1 1.007-1H38v2H24.007a1.001 1.001 0 0 1-1.007-1z"/>
                        <path id="Rectangle-29" fill="#A2A9B1" d="M17 58.333c0-.552.439-1 .999-1H38v2H17.999a.997.997 0 0 1-.999-1zM23 117.667c0-.553.449-1 1.007-1H38v2H24.007a1.001 1.001 0 0 1-1.007-1z"/>
                        <path id="Rectangle-29" fill="#2A4B8D" d="M17 97.889c0-.552.439-1 .999-1H38v2H17.999a.997.997 0 0 1-.999-1z"/>
                        <path id="Rectangle-29" fill="#A2A9B1" d="M23 157.222c0-.552.449-1 1.007-1H38v2H24.007a1.001 1.001 0 0 1-1.007-1zM17 137.444c0-.552.439-1 .999-1H38v2H17.999a.997.997 0 0 1-.999-1z"/>
                    </g>
                </g>
                <g id="Group-4" transform="rotate(-45 21.663 8.973)">
                    <g id="Rectangle-34">
                        <use fill="#A2A9B1" fill-opacity=".472" xlink:href="#path-17"/>
                        <path stroke="#A2A9B1" stroke-width="2" d="M-1 20.007C-1 15.034 3.027 11 7.992 11h8.016A8.989 8.989 0 0 1 25 19.996v157.696l-13.054 33.042L-1 177.62V20.007z"/>
                    </g>
                    <g id="Group-3" transform="translate(0 12)">
                        <path id="Rectangle-34" fill="#72777D" d="M0 7.99C0 3.579 3.58 0 7.992 0h8.016A7.99 7.99 0 0 1 24 7.99V20H0V7.99z"/>
                        <path id="Rectangle-35" fill="#C8CCD1" d="M0 20h24v12.045H0z"/>
                        <path id="Rectangle-37" fill="#FFF" d="M0 165.34v-4.864h24v4.865L11.967 196z"/>
                        <path id="Rectangle-37" fill="#72777D" d="M5.977 180.67h12.02L11.967 196z"/>
                        <path id="Rectangle-36" fill="#EAECF0" d="M0 32h24s-.34 82.58 0 133.296c-3.756-5.222-7.349 0-7.349 0s-4.646-5.247-9.367 0c-4.194-5.247-7.284 0-7.284 0V32z"/>
                    </g>
                </g>
            </g>
            <g id="Group-2" transform="translate(648 36)">
                <g id="Group" transform="rotate(-28 124.07 -251.798)">
                    <g id="Rectangle-41">
                        <use fill="#FFF" xlink:href="#path-18"/>
                        <path stroke="#A2A9B1" stroke-width="2" d="M-1-1h46.596a3 3 0 0 1 3 3v72.095a3 3 0 0 1-3 3H2a3 3 0 0 1-3-3V-1z"/>
                    </g>
                    <path id="Rectangle-41" fill="#EAECF0" d="M0 60.428h47.596v13.667a2 2 0 0 1-2 2H2a2 2 0 0 1-2-2V60.428z"/>
                </g>
                <g id="Group" transform="scale(-1 1) rotate(-28 18.07 173.345)">
                    <g id="Rectangle-41">
                        <use fill="#FFF" xlink:href="#path-19"/>
                        <path stroke="#A2A9B1" stroke-width="2" d="M-1-1h46.596a3 3 0 0 1 3 3v72.095a3 3 0 0 1-3 3H2a3 3 0 0 1-3-3V-1z"/>
                    </g>
                    <path id="Rectangle-41" fill="#EAECF0" d="M0 60.428h47.596v13.667a2 2 0 0 1-2 2H2a2 2 0 0 1-2-2V60.428z"/>
                </g>
                <g id="Combined-Shape">
                    <use fill="#EAECF0" xlink:href="#path-20"/>
                    <path stroke="#A2A9B1" stroke-width="2" d="M75.21-.952C82.543.89 94.03 2 106.5 2c12.51 0 24.032-1.118 31.358-2.97l.12-.03h.363l35.583 12.885a3 3 0 0 1 1.979 2.82V179a3 3 0 0 1-3 3H39a3 3 0 0 1-3-3V10.934a3 3 0 0 1 2.283-2.913L74.97-1.013l.24.06z"/>
                </g>
                <g id="Combined-Shape">
                    <use fill="#FFF" xlink:href="#path-21"/>
                    <path stroke="#A2A9B1" stroke-width="2" d="M76.004.03C76 .187 76 .343 76 .5 76 17.345 89.655 31 106.5 31S137 17.345 137 .5c0-.162-.001-.323-.004-.484L136.98-1h1.068l.19.018 35.234 6.813a3 3 0 0 1 2.43 2.946V179a3 3 0 0 1-3 3H38.996a3 3 0 0 1-3-2.992l-.456-170.21a3 3 0 0 1 2.455-2.958l38.028-7.03-.018 1.22z"/>
                </g>
                <g id="logo-wikipedia" fill="#54595D" fill-rule="nonzero" transform="translate(77 52)">
                    <path id="path3898" d="M22.326 7.876s-.78-1.629-1.045-2.17C19.511 2.1 19.55 1.908 17.76 1.663c-.501-.067-.76-.133-.76-.388V.133l.15-.111C20.385.017 27.578.017 27.578.017l.276.094V1.25c0 .26-.18.393-.547.393l-.756.11c-1.91.154-1.598.957-.329 3.557l12.05 25.354.412.116L49.382 4.67c.371-1.052.314-1.798-.164-2.237-.48-.426-.817-.681-2.057-.734l-1.004-.05a.569.569 0 0 1-.352-.133.379.379 0 0 1-.168-.317V.111L45.79 0h12.087L58 .111v1.087c0 .295-.163.444-.486.444-1.584.072-2.757.425-3.517 1.056-.762.635-1.357 1.508-1.783 2.648 0 0-9.84 23.156-13.206 30.855-1.288 2.524-2.556 2.292-3.67-.072-2.354-4.985-8.983-20.11-8.983-20.11l-4.03-8.143z"/>
                    <path id="path3900" d="M42.877.01s-6.92-.022-10.002 0l-.153.11v1.082c0 .133.056.238.168.318a.587.587 0 0 0 .357.129l.494.054c1.26.05 1.84.386 2.012.593.3.37.45.772-.279 2.374l-12.92 25.999-.34-.09S12.96 10.895 10.281 4.308c-.28-.68-.404-1.188-.404-1.5 0-.669.598-1.03 1.795-1.08l1.396-.06c.37 0 .557-.143.557-.442V.145L13.5.034S2.416.02.125.034L0 .144V1.28c0 .205.257.332.774.388 1.406.077 2.33.303 2.776.68.443.382.912 1.345 1.534 2.847 3.364 8.152 10.512 22.699 13.993 30.984 1.002 2.262 2.262 2.613 3.792-.07 2.649-4.954 9.831-20.092 9.831-20.092l5.657-10.672a47.595 47.595 0 0 1 1.616-2.6c.59-.856.92-1.018 2.532-1.094.329 0 .495-.148.495-.447V.123L42.877.01z"/>
                </g>
            </g>
        </g>
    </g>
</svg>
