<svg xmlns="http://www.w3.org/2000/svg" xmlns:xlink="http://www.w3.org/1999/xlink" width="743" height="432" viewBox="0 0 743 432">
	<defs>
		<pattern id="illustrations-using-p" width="126.276%" height="100%" x="-26.276%" patternUnits="objectBoundingBox">
			<use xlink:href="#illustrations-using-a" transform="scale(.00754)"/>
		</pattern>
		<pattern id="illustrations-using-q" width="100%" height="135.752%" y="-35.752%" patternUnits="objectBoundingBox">
			<use xlink:href="#illustrations-using-b" transform="scale(.01236)"/>
		</pattern>
		<pattern id="illustrations-using-r" width="100%" height="138.269%" y="-38.269%" patternUnits="objectBoundingBox">
			<use xlink:href="#illustrations-using-c" transform="scale(.0148)"/>
		</pattern>
		<pattern id="illustrations-using-s" width="100%" height="191.106%" y="-91.106%" patternUnits="objectBoundingBox">
			<use xlink:href="#illustrations-using-d" transform="scale(.0344)"/>
		</pattern>
		<pattern id="illustrations-using-v" width="126.276%" height="100%" x="-26.276%" patternUnits="objectBoundingBox">
			<use xlink:href="#illustrations-using-e" transform="scale(.00754)"/>
		</pattern>
		<pattern id="illustrations-using-w" width="100%" height="135.752%" y="-35.752%" patternUnits="objectBoundingBox">
			<use xlink:href="#illustrations-using-f" transform="scale(.01236)"/>
		</pattern>
		<pattern id="illustrations-using-x" width="100%" height="138.269%" y="-38.269%" patternUnits="objectBoundingBox">
			<use xlink:href="#illustrations-using-g" transform="scale(.0148)"/>
		</pattern>
		<pattern id="illustrations-using-y" width="100%" height="191.217%" y="-91.217%" patternUnits="objectBoundingBox">
			<use xlink:href="#illustrations-using-h" transform="scale(.03443)"/>
		</pattern>
		<pattern id="illustrations-using-B" width="125.063%" height="100%" x="-25.063%" patternUnits="objectBoundingBox">
			<use xlink:href="#illustrations-using-i" transform="scale(.00754)"/>
		</pattern>
		<pattern id="illustrations-using-C" width="100%" height="137.138%" y="-37.138%" patternUnits="objectBoundingBox">
			<use xlink:href="#illustrations-using-j" transform="scale(.01256)"/>
		</pattern>
		<pattern id="illustrations-using-D" width="100%" height="139.695%" y="-39.695%" patternUnits="objectBoundingBox">
			<use xlink:href="#illustrations-using-k" transform="scale(.01504)"/>
		</pattern>
		<pattern id="illustrations-using-E" width="100%" height="193.385%" y="-93.385%" patternUnits="objectBoundingBox">
			<use xlink:href="#illustrations-using-l" transform="scale(.03496)"/>
		</pattern>
		<filter id="illustrations-using-n" width="110.9%" height="107.9%" x="-5.3%" y="-3.9%" filterUnits="objectBoundingBox">
			<feMorphology in="SourceAlpha" operator="dilate" radius="1" result="shadowSpreadOuter1"/>
			<feOffset in="shadowSpreadOuter1" result="shadowOffsetOuter1"/>
			<feMorphology in="SourceAlpha" radius="1" result="shadowInner"/>
			<feOffset in="shadowInner" result="shadowInner"/>
			<feComposite in="shadowOffsetOuter1" in2="shadowInner" operator="out" result="shadowOffsetOuter1"/>
			<feGaussianBlur in="shadowOffsetOuter1" result="shadowBlurOuter1" stdDeviation="2"/>
			<feColorMatrix in="shadowBlurOuter1" values="0 0 0 0 0.961 0 0 0 0 0.961 0 0 0 0 0.961 0 0 0 1 0"/>
		</filter>
		<filter id="illustrations-using-t" width="110.9%" height="107.9%" x="-5.3%" y="-3.9%" filterUnits="objectBoundingBox">
			<feMorphology in="SourceAlpha" operator="dilate" radius="1" result="shadowSpreadOuter1"/>
			<feOffset in="shadowSpreadOuter1" result="shadowOffsetOuter1"/>
			<feGaussianBlur in="shadowOffsetOuter1" result="shadowBlurOuter1" stdDeviation="2"/>
			<feComposite in="shadowBlurOuter1" in2="SourceAlpha" operator="out" result="shadowBlurOuter1"/>
			<feColorMatrix in="shadowBlurOuter1" values="0 0 0 0 0.961 0 0 0 0 0.961 0 0 0 0 0.961 0 0 0 1 0"/>
		</filter>
		<filter id="illustrations-using-z" width="109.4%" height="106.8%" x="-4.6%" y="-3.4%" filterUnits="objectBoundingBox">
			<feOffset in="SourceAlpha" result="shadowOffsetOuter1"/>
			<feGaussianBlur in="shadowOffsetOuter1" result="shadowBlurOuter1" stdDeviation="2"/>
			<feColorMatrix in="shadowBlurOuter1" values="0 0 0 0 0.2 0 0 0 0 0.4 0 0 0 0 0.8 0 0 0 0.15 0"/>
		</filter>
		<path id="illustrations-using-o" d="M0 90.803.333 3.002A2.007 2.007 0 0 1 2.343 1H112.99v16.505c0 1.103.895 1.997 1.993 1.997h16.304V178.98c0 1.104-.542 1.293-1.271.468 0 0-1.523-2.517-4.466-2.517-2.943 0-2.675 2.316-5.275 3.04-2.6.724-2.605-3.04-5.391-3.04s-2.937 3.04-5.588 3.04c-2.652 0-2.478-3.04-5.377-3.04-2.899 0-3.179 3.04-5.724 3.04-2.545 0-2.468-3.04-5.447-3.04-2.98 0-2.967 3.04-5.603 3.04-2.635 0-2.45-3.04-5.237-3.04-2.786 0-2.68 2.318-5.373 3.04-2.692.722-3.172-3.04-5.864-3.04-2.691 0-2.892 3.04-5.486 3.04s-2.177-3.04-5.055-3.04c-2.878 0-3.199 3.04-5.889 3.04-2.69 0-2.922-3.04-5.722-3.04-2.801 0-2.497 3.04-5.259 3.04-2.761 0-2.862-3.04-5.61-3.04-2.747 0-2.704 3.04-5.407 3.04-2.704 0-2.58-3.04-5.48-3.04-2.9 0-3.009 3.04-5.727 3.04-2.717 0-2.478-3.04-4.854-3.04s-3.368 3.852-5.96 3.04c-2.593-.811-2.294-3.04-5.19-3.04-2.895 0-3.92 2.4-3.92 2.4-.614.91-1.112.747-1.112-.348v-88.18z"/>
		<path id="illustrations-using-u" d="M0 90.803.333 3.002A2.007 2.007 0 0 1 2.343 1H112.99v16.505c0 1.103.895 1.997 1.993 1.997h16.304V178.98c0 1.104-.542 1.293-1.271.468 0 0-1.523-2.517-4.466-2.517-2.943 0-2.675 2.316-5.275 3.04-2.6.724-2.605-3.04-5.391-3.04s-2.937 3.04-5.588 3.04c-2.652 0-2.478-3.04-5.377-3.04-2.899 0-3.179 3.04-5.724 3.04-2.545 0-2.468-3.04-5.447-3.04-2.98 0-2.967 3.04-5.603 3.04-2.635 0-2.45-3.04-5.237-3.04-2.786 0-2.68 2.318-5.373 3.04-2.692.722-3.172-3.04-5.864-3.04-2.691 0-2.892 3.04-5.486 3.04s-2.177-3.04-5.055-3.04c-2.878 0-3.199 3.04-5.889 3.04-2.69 0-2.922-3.04-5.722-3.04-2.801 0-2.497 3.04-5.259 3.04-2.761 0-2.862-3.04-5.61-3.04-2.747 0-2.704 3.04-5.407 3.04-2.704 0-2.58-3.04-5.48-3.04-2.9 0-3.009 3.04-5.727 3.04-2.717 0-2.478-3.04-4.854-3.04s-3.368 3.852-5.96 3.04c-2.593-.811-2.294-3.04-5.19-3.04-2.895 0-3.92 2.4-3.92 2.4-.614.91-1.112.747-1.112-.348v-88.18z"/>
		<path id="illustrations-using-A" d="M.016 89.803C.15 44.901.348 2.002.348 2.002A2.01 2.01 0 0 1 2.36 0h110.646v16.505c0 1.103.895 1.997 1.993 1.997h16.304v159.5c0 1.103-.554 1.29-1.284.471 0 0-1.589-2.542-4.453-2.542-2.943 0-2.675 2.316-5.275 3.04-2.6.724-2.605-3.04-5.39-3.04-2.786 0-2.938 3.04-5.59 3.04-2.65 0-2.476-3.04-5.375-3.04-2.9 0-3.18 3.04-5.725 3.04-2.545 0-2.467-3.04-5.447-3.04s-2.967 3.04-5.602 3.04c-2.636 0-2.451-3.04-5.237-3.04-2.787 0-2.681 2.318-5.373 3.04-2.693.722-3.173-3.04-5.864-3.04-2.692 0-2.893 3.04-5.486 3.04-2.594 0-2.177-3.04-5.055-3.04-2.878 0-3.2 3.04-5.89 3.04-2.69 0-2.921-3.04-5.722-3.04-2.8 0-2.497 3.04-5.258 3.04-2.762 0-2.863-3.04-5.61-3.04-2.747 0-2.704 3.04-5.408 3.04s-2.58-3.04-5.48-3.04c-2.899 0-3.008 3.04-5.726 3.04s-2.479-3.04-4.854-3.04c-2.376 0-3.368 3.852-5.961 3.04-2.593-.811-2.294-3.04-5.19-3.04-2.353 0-3.807 2.47-3.807 2.47-.676.871-1.225.677-1.225-.418v-63.468s-.036-12.356 0-24.712z"/>
		<linearGradient id="illustrations-using-m" x1="68.532%" x2="46.869%" y1="195.213%" y2="23.396%">
			<stop offset="0%" stop-color="#0BD564"/>
			<stop offset="100%" stop-color="#36C"/>
		</linearGradient>
	</defs>
	<g fill="none" fill-rule="evenodd">
		<path fill="#C8CCD1" d="M0 0h743v432H0z"/>
		<path fill="url(#illustrations-using-m)" d="M0 0h244v433.778H0z"/>
		<path fill="#FFF" d="M250 1h244v433.778H250z"/>
		<path fill="#F8F9FA" d="M499 0h244v433.778H499z"/>
		<g stroke-linecap="round" transform="translate(306 127)">
			<use xlink:href="#illustrations-using-o" fill="#000" filter="url(#illustrations-using-n)"/>
			<use xlink:href="#illustrations-using-o" stroke="#72777D" stroke-width="2"/>
		</g>
		<path fill="#C8CCD1" stroke="#72777D" stroke-width="2" d="M419.927 147h8.189a47404.073 47404.073 0 0 1 7.484 0h.52c.078-.002.106-.003.185.003V147c.553 0 1.012-.473 1.012-1.074 0-.363-.166-.687-.436-.884l-.13-.112-16.12-16.626a.966.966 0 0 0-1.082-.226c-.377.16-.632.555-.632.996v16.852c0 .601.458 1.074 1.01 1.074z"/>
		<g transform="translate(307 142)">
			<ellipse cx="18.169" cy="9" fill="#FC3" rx="9.084" ry="9"/>
			<ellipse cx="18.169" cy="9" fill="url(#illustrations-using-p)" rx="9.084" ry="9"/>
			<path fill="#36C" d="M86.154 21s21.896 14.749 26.823 9.323c4.926-5.427 0 7.877 0 7.877H69.744"/>
			<path fill="url(#illustrations-using-q)" d="M86.154 21s21.896 14.749 26.823 9.323c4.926-5.427 0 7.877 0 7.877H69.744"/>
			<path fill="#36C" d="M0 29s17.45 12.188 41.768 12.188S47.718 49 47.718 49H.052"/>
			<path fill="url(#illustrations-using-r)" d="M0 29s17.45 12.188 41.768 12.188S47.718 49 47.718 49H.052"/>
			<path fill="#FC3" d="M2.772 49.118S98.276 3.55 86.309 26.484c-11.967 22.934 42.863-5.386 42.863-5.386v28.02"/>
			<path fill="url(#illustrations-using-s)" d="M2.772 49.118S98.276 3.55 86.309 26.484c-11.967 22.934 42.863-5.386 42.863-5.386v28.02"/>
		</g>
		<path fill="#F5F5F5" d="M307 190h129.1v2H307z"/>
		<g transform="translate(318 202)">
			<rect width="73" height="2" y="7" fill="#C8CCD1" rx="1"/>
			<rect width="81" height="2" y="31" fill="#72777D" rx="1"/>
			<rect width="32" height="2" y="85" fill="#72777D" rx="1"/>
			<rect width="73" height="2" x="35" y="85" fill="#72777D" rx="1"/>
			<rect width="17" height="2" y="45" fill="#72777D" rx="1"/>
			<rect width="17" height="2" x="91" y="45" fill="#72777D" rx="1"/>
			<rect width="68" height="2" x="20" y="45" fill="#72777D" rx="1"/>
			<rect width="17" height="2" y="78" fill="#72777D" rx="1"/>
			<rect width="37" height="2" x="72" y="78" fill="#72777D" rx="1"/>
			<rect width="49" height="2" x="20" y="78" fill="#72777D" rx="1"/>
			<rect width="24" height="2" x="84" y="31" fill="#72777D" rx="1" transform="matrix(-1 0 0 1 192 0)"/>
			<rect width="81" height="2" y="66" fill="#72777D" rx="1"/>
			<rect width="14" height="2" x="54" y="24" fill="#72777D" rx="1"/>
			<rect width="37" height="2" x="71" y="24" fill="#72777D" rx="1"/>
			<rect width="51" height="2" y="24" fill="#72777D" rx="1"/>
			<rect width="108" height="2" y="59" fill="#72777D" rx="1"/>
			<rect width="108" height="2" y="52" fill="#72777D" rx="1"/>
			<rect width="108" height="2" y="92" fill="#72777D" rx="1"/>
			<rect width="108" height="2" y="38" fill="#72777D" rx="1"/>
			<rect width="51" height="2" fill="#72777D" rx="1"/>
		</g>
		<g stroke-linecap="round" transform="translate(555 127)">
			<use xlink:href="#illustrations-using-u" fill="#000" filter="url(#illustrations-using-t)"/>
			<use xlink:href="#illustrations-using-u" fill="#FFF" stroke="#A2A9B1" stroke-width="2"/>
		</g>
		<path fill="#C8CCD1" stroke="#A2A9B1" stroke-width="2" d="M669.001 147h8.149a46940.488 46940.488 0 0 1 7.965 0c.076-.002.104-.003.184.003V147c.546 0 1.001-.472 1.001-1.074 0-.364-.165-.69-.434-.886l-.128-.112-16.042-16.626a.95.95 0 0 0-1.068-.225c-.374.16-.628.555-.628.997v16.852c0 .602.455 1.074 1.001 1.074z"/>
		<g transform="translate(556.072 142)">
			<ellipse cx="18.169" cy="9" fill="#A2A9B1" rx="9.084" ry="9"/>
			<ellipse cx="18.169" cy="9" fill="url(#illustrations-using-v)" rx="9.084" ry="9"/>
			<path fill="#A2A9B1" d="M86.154 21s21.896 14.749 26.823 9.323c4.926-5.427 0 7.877 0 7.877H69.744"/>
			<path fill="url(#illustrations-using-w)" d="M86.154 21s21.896 14.749 26.823 9.323c4.926-5.427 0 7.877 0 7.877H69.744"/>
			<path fill="#A2A9B1" d="M0 29s17.45 12.188 41.768 12.188S47.718 49 47.718 49H.052"/>
			<path fill="url(#illustrations-using-x)" d="M0 29s17.45 12.188 41.768 12.188S47.718 49 47.718 49H.052"/>
			<path fill="#C8CCD1" d="M2.772 49.118S98.352 3.55 86.375 26.484c-11.976 22.934 42.897-5.386 42.897-5.386v28.02"/>
			<path fill="url(#illustrations-using-y)" d="M2.772 49.118S98.352 3.55 86.375 26.484c-11.976 22.934 42.897-5.386 42.897-5.386v28.02"/>
		</g>
		<path fill="#F5F5F5" d="M556.072 190h129.1v2h-129.1z"/>
		<g transform="translate(567.072 202)">
			<rect width="73" height="2" y="7" fill="#C8CCD1" rx="1"/>
			<rect width="81" height="2" y="31" fill="#A2A9B1" rx="1"/>
			<rect width="32" height="2" y="85" fill="#A2A9B1" rx="1"/>
			<rect width="73" height="2" x="35" y="85" fill="#A2A9B1" rx="1"/>
			<rect width="17" height="2" y="45" fill="#A2A9B1" rx="1"/>
			<rect width="17" height="2" x="91" y="45" fill="#A2A9B1" rx="1"/>
			<rect width="68" height="2" x="20" y="45" fill="#A2A9B1" rx="1"/>
			<rect width="17" height="2" y="78" fill="#A2A9B1" rx="1"/>
			<rect width="37" height="2" x="72" y="78" fill="#A2A9B1" rx="1"/>
			<rect width="49" height="2" x="20" y="78" fill="#A2A9B1" rx="1"/>
			<rect width="24" height="2" x="84" y="31" fill="#A2A9B1" rx="1" transform="matrix(-1 0 0 1 192 0)"/>
			<rect width="81" height="2" y="66" fill="#A2A9B1" rx="1"/>
			<rect width="14" height="2" x="54" y="24" fill="#A2A9B1" rx="1"/>
			<rect width="37" height="2" x="71" y="24" fill="#A2A9B1" rx="1"/>
			<rect width="51" height="2" y="24" fill="#A2A9B1" rx="1"/>
			<rect width="108" height="2" y="59" fill="#A2A9B1" rx="1"/>
			<rect width="108" height="2" y="52" fill="#A2A9B1" rx="1"/>
			<rect width="108" height="2" y="92" fill="#A2A9B1" rx="1"/>
			<rect width="108" height="2" y="38" fill="#A2A9B1" rx="1"/>
			<rect width="51" height="2" fill="#A2A9B1" rx="1"/>
		</g>
		<g transform="translate(56 127)">
			<use xlink:href="#illustrations-using-A" fill="#000" filter="url(#illustrations-using-z)"/>
			<use xlink:href="#illustrations-using-A" fill="#FFF"/>
			<path fill="#C8CCD1" d="M113.914 20.036c-1.059 0-1.914-.883-1.914-1.975V2.01c0-.797.085-1.568.799-1.872.718-.306 1.92-.089 2.468.476l15.341 15.834c.49.358.714 1.284.714 1.95 0 1.092-.764 1.637-1.822 1.637-.01-.002-15.586 0-15.586 0z"/>
			<g transform="translate(0 14)">
				<ellipse cx="18.462" cy="9" fill="#FC3" rx="9.231" ry="9"/>
				<ellipse cx="18.462" cy="9" fill="url(#illustrations-using-B)" rx="9.231" ry="9"/>
				<path fill="#36C" d="M87.546 21s22.25 14.749 27.256 9.323c5.006-5.427 0 7.877 0 7.877H70.87"/>
				<path fill="url(#illustrations-using-C)" d="M87.546 21s22.25 14.749 27.256 9.323c5.006-5.427 0 7.877 0 7.877H70.87"/>
				<path fill="#36C" d="M0 29s17.732 12.188 42.442 12.188c24.711 0 6.046 7.812 6.046 7.812H.054"/>
				<path fill="url(#illustrations-using-D)" d="M0 29s17.732 12.188 42.442 12.188c24.711 0 6.046 7.812 6.046 7.812H.054"/>
				<path fill="#FC3" d="M2.817 49.118S99.864 3.55 87.703 26.484c-12.16 22.934 43.556-5.386 43.556-5.386v28.02"/>
				<path fill="url(#illustrations-using-E)" d="M2.817 49.118S99.864 3.55 87.703 26.484c-12.16 22.934 43.556-5.386 43.556-5.386v28.02"/>
			</g>
			<path fill="#F5F5F5" d="M.087 62.14h131.2v2H.087z"/>
			<g transform="translate(12 74)">
				<rect width="73" height="2" y="7" fill="#C8CCD1" rx="1"/>
				<rect width="81" height="2" y="31" fill="#72777D" rx="1"/>
				<rect width="32" height="2" y="85" fill="#72777D" rx="1"/>
				<rect width="73" height="2" x="35" y="85" fill="#72777D" rx="1"/>
				<rect width="17" height="2" y="45" fill="#72777D" rx="1"/>
				<rect width="17" height="2" x="91" y="45" fill="#72777D" rx="1"/>
				<rect width="68" height="2" x="20" y="45" fill="#72777D" rx="1"/>
				<rect width="17" height="2" y="78" fill="#72777D" rx="1"/>
				<rect width="37" height="2" x="72" y="78" fill="#72777D" rx="1"/>
				<rect width="49" height="2" x="20" y="78" fill="#72777D" rx="1"/>
				<rect width="24" height="2" x="84" y="31" fill="#72777D" rx="1" transform="matrix(-1 0 0 1 192 0)"/>
				<rect width="81" height="2" y="66" fill="#72777D" rx="1"/>
				<rect width="14" height="2" x="54" y="24" fill="#72777D" rx="1"/>
				<rect width="37" height="2" x="71" y="24" fill="#72777D" rx="1"/>
				<rect width="51" height="2" y="24" fill="#72777D" rx="1"/>
				<rect width="108" height="2" y="59" fill="#72777D" rx="1"/>
				<rect width="108" height="2" y="52" fill="#72777D" rx="1"/>
				<rect width="108" height="2" y="92" fill="#72777D" rx="1"/>
				<rect width="108" height="2" y="38" fill="#72777D" rx="1"/>
				<rect width="51" height="2" fill="#72777D" rx="1"/>
			</g>
		</g>
	</g>
</svg>
