<svg xmlns="http://www.w3.org/2000/svg" xmlns:xlink="http://www.w3.org/1999/xlink" width="399" height="253" viewBox="0 0 399 253">
	<defs>
		<pattern id="illustrations-header--start-b" width="126.276%" height="100%" x="-26.276%" patternUnits="objectBoundingBox">
			<use xlink:href="#illustrations-header--start-a" transform="scale(.00754)"/>
		</pattern>
	</defs>
	<g fill="none" fill-rule="evenodd">
		<path fill="#F8F9FA" d="M0 0h900v253H0z"/>
		<path fill="#FFF" stroke="#A2A9B1" stroke-linecap="round" stroke-width="2" d="m40 126.803.333-87.801A2.007 2.007 0 0 1 42.343 37H152.99v16.505c0 1.103.895 1.997 1.993 1.997h16.304V214.98c0 1.104-.542 1.293-1.271.468 0 0-1.523-2.517-4.466-2.517-2.943 0-2.675 2.316-5.275 3.04-2.6.724-2.605-3.04-5.391-3.04s-2.937 3.04-5.588 3.04c-2.652 0-2.478-3.04-5.377-3.04-2.899 0-3.179 3.04-5.724 3.04-2.545 0-2.468-3.04-5.447-3.04-2.98 0-2.967 3.04-5.603 3.04-2.635 0-2.45-3.04-5.237-3.04-2.786 0-2.68 2.318-5.373 3.04-2.692.722-3.172-3.04-5.864-3.04-2.691 0-2.892 3.04-5.486 3.04s-2.177-3.04-5.055-3.04c-2.878 0-3.199 3.04-5.889 3.04-2.69 0-2.922-3.04-5.722-3.04-2.801 0-2.497 3.04-5.259 3.04-2.761 0-2.862-3.04-5.61-3.04-2.747 0-2.704 3.04-5.407 3.04-2.704 0-2.58-3.04-5.48-3.04-2.9 0-3.009 3.04-5.727 3.04-2.717 0-2.478-3.04-4.854-3.04s-3.368 3.852-5.96 3.04c-2.593-.811-2.294-3.04-5.19-3.04-2.895 0-3.92 2.4-3.92 2.4-.614.91-1.112.747-1.112-.348v-88.18z"/>
		<path fill="#C8CCD1" stroke="#A2A9B1" stroke-width="2" d="M154.001 56h8.149a46940.488 46940.488 0 0 1 7.965 0c.076-.002.104-.003.184.003V56c.546 0 1.001-.472 1.001-1.074 0-.364-.165-.69-.434-.886l-.128-.112-16.042-16.626a.95.95 0 0 0-1.068-.225c-.374.16-.628.555-.628.997v16.852c0 .602.455 1.074 1.001 1.074z"/>
		<g transform="translate(41.072 51)">
			<ellipse cx="18.169" cy="9" fill="#A2A9B1" rx="9.084" ry="9"/>
			<ellipse cx="18.169" cy="9" fill="url(#illustrations-header--start-b)" rx="9.084" ry="9"/>
			<path fill="#A2A9B1" d="M86.154 21s21.896 14.749 26.823 9.323c4.926-5.427 0 7.877 0 7.877H69.744M0 29s17.45 12.188 41.768 12.188S47.718 49 47.718 49H.052"/>
			<path fill="#C8CCD1" d="M2.772 49.118S98.352 3.55 86.375 26.484c-11.976 22.934 42.897-5.386 42.897-5.386v28.02"/>
		</g>
		<path fill="#F5F5F5" d="M41.206 99.001h129.15v2H41.206z"/>
		<g fill="#A2A9B1" transform="translate(52.072 111)">
			<rect width="73" height="2" y="7" rx="1"/>
			<rect width="81" height="2" y="31" rx="1"/>
			<rect width="32" height="2" y="85" rx="1"/>
			<rect width="73" height="2" x="35" y="85" rx="1"/>
			<rect width="17" height="2" y="45" rx="1"/>
			<rect width="17" height="2" x="91" y="45" rx="1"/>
			<rect width="68" height="2" x="20" y="45" rx="1"/>
			<rect width="17" height="2" y="78" rx="1"/>
			<rect width="37" height="2" x="72" y="78" rx="1"/>
			<rect width="49" height="2" x="20" y="78" rx="1"/>
			<rect width="24" height="2" x="84" y="31" rx="1" transform="matrix(-1 0 0 1 192 0)"/>
			<rect width="81" height="2" y="66" rx="1"/>
			<rect width="14" height="2" x="54" y="24" rx="1"/>
			<rect width="37" height="2" x="71" y="24" rx="1"/>
			<rect width="51" height="2" y="24" rx="1"/>
			<rect width="108" height="2" y="59" rx="1"/>
			<rect width="108" height="2" y="52" rx="1"/>
			<rect width="108" height="2" y="92" rx="1"/>
			<rect width="108" height="2" y="38" rx="1"/>
			<rect width="51" height="2" rx="1"/>
		</g>
		<path fill="#C8CCD1" stroke="#A2A9B1" stroke-width="2" d="M263 61.992v75.016c0 .55.446.992 1.003.992h96.274a.998.998 0 0 0 1.003-.992V61.992a.995.995 0 0 0-1.003-.992h-96.274a.998.998 0 0 0-1.003.992z"/>
		<g fill="#FFF" transform="translate(272 74)">
			<rect width="60" height="2" y="14" rx="1"/>
			<rect width="17" height="2" x="63" y="14" rx="1"/>
			<rect width="21" height="2" y="7" rx="1"/>
			<path d="M24 8a1 1 0 0 1 .996-1h54.008a1.001 1.001 0 0 1 0 2H24.996A.995.995 0 0 1 24 8z"/>
			<rect width="21" height="2" y="49" rx="1"/>
			<rect width="32" height="2" x="48" y="49" rx="1"/>
			<rect width="21" height="2" x="24" y="49" rx="1"/>
			<rect width="40.14" height="2" x="40" y="21" rx="1"/>
			<rect width="37" height="2" y="21" rx="1"/>
			<rect width="40.14" height="2" x="40" rx="1"/>
			<rect width="37" height="2" rx="1"/>
			<path d="M50 29c0-.552.452-1 1.007-1h28.266c.556 0 1.007.444 1.007 1 0 .552-.452 1-1.007 1H51.007A1.001 1.001 0 0 1 50 29z"/>
			<rect width="36" height="2" x="11" y="28" rx="1"/>
			<rect width="8" height="2" y="28" rx="1"/>
			<rect width="80.28" height="2" y="35" rx="1"/>
			<rect width="47.28" height="2" x="33.28" y="42" rx="1"/>
			<rect width="30.28" height="2" y="42" rx="1"/>
		</g>
		<path fill="#A2A9B1" stroke="#A2A9B1" stroke-width="2" d="m245.89 174.081 13.985-9.442 71.402.001c.553 0 1.003-.45 1.003-1.005v-60.63a.999.999 0 0 0-1.003-1.005h-96.274c-.553 0-1.003.45-1.003 1.005v60.63a.999.999 0 0 0 1.003 1.005l10.886-.001v9.442z"/>
		<g fill="#FFF" transform="translate(243 115)">
			<rect width="60" height="2" y="7" rx="1"/>
			<rect width="17" height="2" x="63" y="7" rx="1"/>
			<rect width="21" height="2" rx="1"/>
			<rect width="32" height="2" x="48" rx="1"/>
			<rect width="21" height="2" x="24" rx="1"/>
			<rect width="40.14" height="2" x="40" y="14" rx="1"/>
			<rect width="37" height="2" y="14" rx="1"/>
			<path d="M50 22c0-.552.452-1 1.007-1h28.266c.556 0 1.007.444 1.007 1 0 .552-.452 1-1.007 1H51.007A1.001 1.001 0 0 1 50 22z"/>
			<rect width="36" height="2" x="11" y="21" rx="1"/>
			<rect width="8" height="2" y="21" rx="1"/>
			<rect width="80.28" height="2" y="28" rx="1"/>
			<rect width="47.28" height="2" x="33.28" y="35" rx="1"/>
			<rect width="30.28" height="2" y="35" rx="1"/>
		</g>
		<g transform="translate(296 130)">
			<path fill="#C8CCD1" stroke="#A2A9B1" stroke-width="2" d="M32 0c17.673 0 32 14.327 32 32 0 6.571-1.98 12.68-5.377 17.76v13.793l-8.09-5.463A31.854 31.854 0 0 1 32 64C14.327 64 0 49.673 0 32 0 14.327 14.327 0 32 0z"/>
			<circle cx="20" cy="32" r="3" fill="#FFF"/>
			<circle cx="32" cy="32" r="3" fill="#FFF"/>
			<circle cx="44" cy="32" r="3" fill="#FFF"/>
		</g>
	</g>
</svg>
