<svg xmlns="http://www.w3.org/2000/svg" width="501" height="253" viewBox="0 0 501 253">
	<g fill="none" fill-rule="evenodd">
		<path fill="#F8F9FA" d="M-399 0h900v253h-900z"/>
		<path fill="#C8CCD1" stroke="#A2A9B1" stroke-width="2" d="M180.612 75.722a3.009 3.009 0 01-.003 4.25L58.996 201.585a3.008 3.008 0 01-4.25.002L30.71 177.55a3.009 3.009 0 01.003-4.25L152.325 51.688a3.008 3.008 0 014.25-.003l24.037 24.037zm-19.09-4.947a7 7 0 10-9.9 9.9 7 7 0 009.9-9.9z"/>
		<path fill="#A2A9B1" d="M143.451 94.502a1.003 1.003 0 011.42.005l9.894 9.895-1.414 1.414-9.894-9.894a1.001 1.001 0 01-.006-1.42z"/>
		<path fill="#2A4B8D" d="M115.481 122.472a1.003 1.003 0 011.42.005l9.894 9.895-1.414 1.414-9.894-9.894a1.001 1.001 0 01-.006-1.42z"/>
		<path fill="#A2A9B1" d="M125.224 104.244a.994.994 0 011.413 0l14.143 14.143-1.414 1.414-14.143-14.143a.997.997 0 010-1.414zM87.51 150.442a1.003 1.003 0 011.42.005l9.894 9.895-1.414 1.414-9.894-9.894a1.001 1.001 0 01-.006-1.42z"/>
		<path fill="#2A4B8D" d="M97.254 132.214a.994.994 0 011.413 0l14.143 14.143-1.414 1.414-14.143-14.143a.997.997 0 010-1.414z"/>
		<path fill="#A2A9B1" d="M59.541 178.412a1.003 1.003 0 011.42.005l9.894 9.895-1.414 1.414-9.894-9.894a1.001 1.001 0 01-.006-1.42zm9.743-18.228a.994.994 0 011.413 0l14.143 14.143-1.414 1.414-14.143-14.143a.997.997 0 010-1.414z"/>
		<path fill="#A2A9B1" fill-opacity=".472" stroke="#A2A9B1" stroke-width="2" d="M37.44 76.8c-3.517-3.516-3.522-9.216-.01-12.727l5.668-5.668a8.989 8.989 0 0112.72.003l111.507 111.507 14.133 32.596-32.57-14.262L37.44 76.8z"/>
		<path fill="#72777D" d="M38.136 76.082a7.993 7.993 0 010-11.301l5.669-5.67a7.99 7.99 0 0111.301 0l8.492 8.492-16.97 16.97-8.492-8.491z"/>
		<path fill="#C8CCD1" d="M46.627 84.574l16.971-16.971 8.517 8.517-16.97 16.97z"/>
		<path fill="#FFF" d="M149.4 187.345l-3.441-3.44 16.97-16.97 3.44 3.44 13.171 30.187z"/>
		<path fill="#72777D" d="M164.465 193.958l8.5-8.5 6.575 15.104z"/>
		<path fill="#EAECF0" d="M55.113 93.059l16.97-16.97s58.153 58.634 94.255 94.254c-6.349-1.037-5.196 5.196-5.196 5.196s-6.997-.425-6.624 6.624c-6.676-.745-5.15 5.15-5.15 5.15L55.112 93.06z"/>
		<g>
			<path fill="#FFF" stroke="#A2A9B1" stroke-width="2" d="M380.382 64.36l41.142-21.875a3 3 0 014.057 1.24l33.846 63.656a3 3 0 01-1.24 4.057l-38.493 20.467a3 3 0 01-4.057-1.24L380.382 64.36z"/>
			<path fill="#EAECF0" d="M410.104 118.129l42.024-22.345 6.416 12.067a2 2 0 01-.827 2.704l-38.492 20.467a2 2 0 01-2.705-.827l-6.416-12.066z"/>
			<path fill="#FFF" stroke="#A2A9B1" stroke-width="2" d="M329.618 64.36l-41.142-21.875a3 3 0 00-4.057 1.24l-33.846 63.656a3 3 0 001.24 4.057l38.493 20.467a3 3 0 004.057-1.24l35.255-66.305z"/>
			<path fill="#EAECF0" d="M299.896 118.129l-42.024-22.345-6.416 12.067a2 2 0 00.827 2.704l38.492 20.467a2 2 0 002.705-.827l6.416-12.066z"/>
			<path fill="#EAECF0" stroke="#A2A9B1" stroke-width="2" d="M387.336 34.998l35.588 12.887a3 3 0 011.979 2.82V215a3 3 0 01-3 3H288a3 3 0 01-3-3V46.934a3 3 0 012.283-2.913l36.688-9.034.24.061C331.544 36.89 343.032 38 355.5 38c12.508 0 24.03-1.117 31.355-2.969l.116-.03.365-.003z"/>
			<path fill="#FFF" stroke="#A2A9B1" stroke-width="2" d="M387.238 35.018l35.234 6.813a3 3 0 012.43 2.946V215a3 3 0 01-3 3H287.996a3 3 0 01-3-2.992l-.456-170.21a3 3 0 012.455-2.958l38.028-7.031-.018 1.22c-.003.157-.004.314-.004.471 0 16.845 13.655 30.5 30.5 30.5S386 53.345 386 36.51l-.014-1.51h1.062l.19.018z"/>
			<g fill="#54595D" fill-rule="nonzero">
				<path d="M348.326 95.876s-.78-1.629-1.045-2.17c-1.77-3.606-1.732-3.798-3.521-4.043-.501-.067-.76-.133-.76-.388v-1.142l.15-.111c3.234-.005 10.427-.005 10.427-.005l.276.094v1.138c0 .26-.18.393-.547.393l-.756.11c-1.91.154-1.598.957-.329 3.557l12.05 25.354.412.116 10.699-26.11c.371-1.052.314-1.798-.164-2.237-.48-.426-.817-.681-2.057-.734l-1.004-.05a.569.569 0 01-.352-.133.379.379 0 01-.168-.317v-1.087l.153-.111h12.087l.123.111v1.087c0 .295-.163.444-.486.444-1.584.072-2.757.425-3.517 1.056-.762.635-1.357 1.508-1.783 2.648 0 0-9.84 23.156-13.206 30.855-1.288 2.524-2.556 2.292-3.67-.072-2.354-4.985-8.983-20.11-8.983-20.11l-4.03-8.143z"/>
				<path d="M368.877 88.01s-6.92-.022-10.002 0l-.153.11v1.082c0 .133.056.238.168.318a.587.587 0 00.357.129l.494.054c1.26.05 1.84.386 2.012.593.3.37.45.772-.279 2.374l-12.92 25.999-.34-.09s-9.254-19.684-11.933-26.271c-.28-.68-.404-1.188-.404-1.5 0-.669.598-1.03 1.795-1.08l1.396-.06c.37 0 .557-.143.557-.442v-1.081l-.125-.111s-11.084-.013-13.375 0l-.125.11v1.136c0 .205.257.332.774.388 1.406.077 2.33.303 2.776.68.443.382.912 1.345 1.534 2.847 3.364 8.152 10.512 22.699 13.993 30.984 1.002 2.262 2.262 2.613 3.792-.07 2.649-4.954 9.831-20.092 9.831-20.092l5.657-10.672a47.595 47.595 0 011.616-2.6c.59-.856.92-1.018 2.532-1.094.329 0 .495-.148.495-.447v-1.081l-.123-.113z"/>
			</g>
		</g>
	</g>
</svg>
