<?xml version="1.0" encoding="UTF-8"?>
<svg xmlns="http://www.w3.org/2000/svg" xmlns:xlink="http://www.w3.org/1999/xlink" width="375" height="667" style="background:#c8ccd1" viewBox="0 0 375 667">
	<defs>
		<path id="illustrations-grey-background-b" d="M102.873 19.053A1.876 1.876 0 0 1 101 17.17V1.882c0-.76.457-1.449 1.156-1.739a1.866 1.866 0 0 1 2.041.409l15.014 15.083c.48.341.789.902.789 1.536 0 1.04-.837 1.882-1.873 1.882-.01-.002-15.254 0-15.254 0z"/>
	</defs>
	<g fill="none" fill-rule="evenodd">
		<g transform="translate(125 181)">
			<path fill="#fff" stroke="#a2a9b1" stroke-linecap="round" stroke-width="2" d="M.065 82.383.367 2.9A2.008 2.008 0 0 1 2.37.907h100.207v14.795c0 1.1.893 1.992 2.003 1.992h14.598v144.5c0 1.106-.548 1.294-1.286.476 0 0-1.25-2.146-3.92-2.146s-2.426 2.102-4.785 2.758c-2.36.657-2.363-2.758-4.89-2.758-2.528 0-2.666 2.758-5.071 2.758-2.406 0-2.248-2.758-4.878-2.758s-2.884 2.758-5.194 2.758c-2.309 0-2.238-2.758-4.941-2.758-2.704 0-2.692 2.758-5.083 2.758-2.392 0-2.224-2.758-4.752-2.758-2.528 0-2.432 2.103-4.875 2.758-2.442.655-2.878-2.758-5.32-2.758s-2.624 2.758-4.977 2.758-1.975-2.758-4.586-2.758-2.903 2.758-5.343 2.758-2.651-2.758-5.192-2.758c-2.541 0-2.266 2.758-4.771 2.758s-2.597-2.758-5.09-2.758c-2.492 0-2.453 2.758-4.906 2.758s-2.341-2.758-4.971-2.758-2.73 2.758-5.196 2.758c-2.466 0-2.248-2.758-4.404-2.758-2.155 0-3.056 3.494-5.408 2.758-2.352-.736-2.081-2.758-4.708-2.758-2.626 0-3.434 2.029-3.434 2.029-.625.907-1.132.757-1.132-.35v-79.82z"/>
			<use xlink:href="#illustrations-grey-background-b" fill="#c8ccd1"/>
			<path stroke="#a2a9b1" stroke-width="2" d="M102.873 18.053h3.953l3.674-.001a45327.375 45327.375 0 0 1 7.455 0c.07-.002.096-.002.172.003v-.002a.876.876 0 0 0 .873-.882.876.876 0 0 0-.368-.72l-.13-.11L103.49 1.257a.866.866 0 0 0-.95-.19.883.883 0 0 0-.539.815v15.289c0 .49.39.882.873.882z"/>
			<g transform="translate(1.28 13.625)">
				<ellipse cx="16.484" cy="8.165" fill="#a2a9b1" rx="8.242" ry="8.165"/>
				<ellipse cx="16.484" cy="8.165" fill="url(#illustrations-grey-background-c)" rx="8.242" ry="8.165"/>
				<path fill="#a2a9b1" d="M78.165 19.053s19.866 13.38 24.335 8.458c4.47-4.924 0 7.146 0 7.146H63.277M0 26.311s15.832 11.057 37.894 11.057c22.063 0 5.399 7.088 5.399 7.088H.048"/>
				<path fill="#c8ccd1" d="M2.515 44.563S88.933 3.22 78.105 24.028C67.276 44.836 116.89 19.14 116.89 19.14v25.422"/>
			</g>
			<path fill="#f8f9fa" d="M1.16 57.12h117v1.815h-117z"/>
			<g fill="#a2a9b1" transform="translate(10.953 68.045)">
				<rect width="66.231" height="1.815" y="6.351" rx=".907"/>
				<rect width="73.489" height="1.815" y="28.125" rx=".907"/>
				<rect width="29.033" height="1.815" y="77.118" rx=".907"/>
				<rect width="66.231" height="1.815" x="31.754" y="77.118" rx=".907"/>
				<rect width="15.424" height="1.815" y="40.827" rx=".907"/>
				<rect width="15.424" height="1.815" x="82.561" y="40.827" rx=".907"/>
				<rect width="61.694" height="1.815" x="18.145" y="40.827" rx=".907"/>
				<rect width="15.424" height="1.815" y="70.767" rx=".907"/>
				<rect width="33.569" height="1.815" x="65.323" y="70.767" rx=".907"/>
				<rect width="44.456" height="1.815" x="18.145" y="70.767" rx=".907"/>
				<rect width="21.774" height="1.815" x="76.211" y="28.125" rx=".907" transform="matrix(-1 0 0 1 174.195 0)"/>
				<rect width="73.489" height="1.815" y="59.88" rx=".907"/>
				<rect width="12.702" height="1.815" x="48.992" y="21.774" rx=".907"/>
				<rect width="33.569" height="1.815" x="64.416" y="21.774" rx=".907"/>
				<rect width="46.271" height="1.815" y="21.774" rx=".907"/>
				<rect width="97.985" height="1.815" y="53.529" rx=".907"/>
				<rect width="97.985" height="1.815" y="47.178" rx=".907"/>
				<rect width="97.985" height="1.815" y="83.469" rx=".907"/>
				<rect width="97.985" height="1.815" y="34.476" rx=".907"/>
				<rect width="46.271" height="1.815" rx=".907"/>
			</g>
			<g transform="translate(70.826 119.355)">
				<circle cx="30.822" cy="30.822" r="30.822" fill="#c8ccd1" stroke="#a2a9b1" stroke-width="2"/>
				<path fill="#fff" fill-rule="nonzero" d="M19.674 46.063v1.264c5.982-5.172 11.148-10.108 11.148-10.108l11.149 10.108V15.739H19.674v30.324z"/>
			</g>
		</g>
		<text fill="#000" font-family="sans-serif" font-size="18" transform="translate(15 181)">
			<tspan x="55.437" y="268">Save pages to view them later, </tspan> <tspan x="126.546" y="293">even offline</tspan>
		</text>
		<text fill="#202122" font-family="sans-serif" font-size="22" transform="translate(15 181)">
			<tspan x="73.624" y="226.367">No saved pages yet</tspan>
		</text>
	</g>
</svg>
