<?xml version="1.0" encoding="UTF-8"?>
<svg xmlns="http://www.w3.org/2000/svg" xmlns:xlink="http://www.w3.org/1999/xlink" style="background:#f8f9fa" width="900" height="253" viewBox="0 0 900 253">
    <defs>
        <path id="illustrations-header-b" d="M114.001 21c-1.106 0-2.001-.927-2.001-2.074V2.074c0-.837.488-1.597 1.235-1.916a1.95 1.95 0 0 1 2.181.45l16.042 16.626c.512.375.842.993.842 1.692 0 1.147-.895 2.074-2.001 2.074-.01-.002-16.298 0-16.298 0z"/>
        <rect id="illustrations-header-d" width="100.28" height="79" rx="2"/>
        <path id="illustrations-header-e" d="M27.182 64.64L11.89 74.963V64.64H2.003A1.999 1.999 0 0 1 0 62.635V2.005C0 .898.898 0 2.003 0h96.274c1.106 0 2.003.89 2.003 2.005v60.63a2.005 2.005 0 0 1-2.003 2.005H27.182z"/>
        <path id="illustrations-header-f" d="M0 2.007C0 .899.902 0 2.003 0h33.994C37.103 0 38 .905 38 2.007v171.986A2.008 2.008 0 0 1 35.997 176H2.003A2.009 2.009 0 0 1 0 173.993V2.007zM19 24a8 8 0 1 0 0-16 8 8 0 0 0 0 16z"/>
        <path id="illustrations-header-g" d="M0 20.007C0 15.585 3.58 12 7.992 12h8.016A7.989 7.989 0 0 1 24 19.996v157.505L11.95 208 0 177.431V20.007z"/>
        <path id="illustrations-header-h" d="M0 0h45.596a2 2 0 0 1 2 2v72.095a2 2 0 0 1-2 2H2a2 2 0 0 1-2-2V0z"/>
        <path id="illustrations-header-i" d="M0 0h45.596a2 2 0 0 1 2 2v72.095a2 2 0 0 1-2 2H2a2 2 0 0 1-2-2V0z"/>
        <path id="illustrations-header-j" d="M74.967.018C82.177 1.829 93.62 3 106.5 3c12.923 0 24.396-1.178 31.603-3h.062l35.419 12.825a2 2 0 0 1 1.319 1.88V179a2 2 0 0 1-2 2H39a2 2 0 0 1-2-2V10.934a2 2 0 0 1 1.522-1.942L74.967.018z"/>
        <path id="illustrations-header-k" d="M75.004.015C75 .176 75 .338 75 .5 75 17.897 89.103 32 106.5 32S138 17.897 138 .5c0-.167-.001-.334-.004-.5h.052l35.234 6.813a2 2 0 0 1 1.62 1.964V179a2 2 0 0 1-2 2H38.996a2 2 0 0 1-2-1.995l-.456-170.21a2 2 0 0 1 1.637-1.972L75.004.015z"/>
    </defs>
    <g fill="none" fill-rule="evenodd">
        <g transform="translate(40 36)">
            <path fill="#FFF" stroke="#A2A9B1" stroke-linecap="round" stroke-width="2" d="M0 90.803L.333 3.002A2.007 2.007 0 0 1 2.343 1H112.99v16.505c0 1.103.895 1.997 1.993 1.997h16.304V178.98c0 1.104-.542 1.293-1.271.468 0 0-1.523-2.517-4.466-2.517-2.943 0-2.675 2.316-5.275 3.04-2.6.724-2.605-3.04-5.391-3.04s-2.937 3.04-5.588 3.04c-2.652 0-2.478-3.04-5.377-3.04-2.899 0-3.179 3.04-5.724 3.04-2.545 0-2.468-3.04-5.447-3.04-2.98 0-2.967 3.04-5.603 3.04-2.635 0-2.45-3.04-5.237-3.04-2.786 0-2.68 2.318-5.373 3.04-2.692.722-3.172-3.04-5.864-3.04-2.691 0-2.892 3.04-5.486 3.04s-2.177-3.04-5.055-3.04c-2.878 0-3.199 3.04-5.889 3.04-2.69 0-2.922-3.04-5.722-3.04-2.801 0-2.497 3.04-5.259 3.04-2.761 0-2.862-3.04-5.61-3.04-2.747 0-2.704 3.04-5.407 3.04-2.704 0-2.58-3.04-5.48-3.04-2.9 0-3.009 3.04-5.727 3.04-2.717 0-2.478-3.04-4.854-3.04s-3.368 3.852-5.96 3.04c-2.593-.811-2.294-3.04-5.19-3.04-2.895 0-3.92 2.4-3.92 2.4-.614.91-1.112.747-1.112-.348v-88.18z"/>
            <use fill="#C8CCD1" xlink:href="#illustrations-header-b"/>
            <path stroke="#A2A9B1" stroke-width="2" d="M114.001 20H122.15a46940.488 46940.488 0 0 1 7.965 0c.076-.002.104-.003.184.003V20c.546 0 1.001-.472 1.001-1.074 0-.364-.165-.69-.434-.886l-.128-.112-16.042-16.626a.95.95 0 0 0-1.068-.225c-.374.16-.628.555-.628.997v16.852c0 .602.455 1.074 1.001 1.074z"/>
            <g transform="translate(1.072 15)">
                <ellipse cx="18.169" cy="9" fill="#A2A9B1" rx="9.084" ry="9"/>
                <ellipse cx="18.169" cy="9" fill="url(#illustrations-header-c)" rx="9.084" ry="9"/>
                <path fill="#A2A9B1" d="M86.154 21s21.896 14.749 26.823 9.323c4.926-5.427 0 7.877 0 7.877H69.744M0 29s17.45 12.188 41.768 12.188S47.718 49 47.718 49H.052"/>
                <path fill="#C8CCD1" d="M2.772 49.118S98.352 3.55 86.375 26.484c-11.976 22.934 42.897-5.386 42.897-5.386v28.02"/>
            </g>
            <path fill="#F5F5F5" d="M1.206 63.001h129.15v2H1.206z"/>
            <g fill="#A2A9B1" transform="translate(12.072 75)">
                <rect width="73" height="2" y="7" rx="1"/>
                <rect width="81" height="2" y="31" rx="1"/>
                <rect width="32" height="2" y="85" rx="1"/>
                <rect width="73" height="2" x="35" y="85" rx="1"/>
                <rect width="17" height="2" y="45" rx="1"/>
                <rect width="17" height="2" x="91" y="45" rx="1"/>
                <rect width="68" height="2" x="20" y="45" rx="1"/>
                <rect width="17" height="2" y="78" rx="1"/>
                <rect width="37" height="2" x="72" y="78" rx="1"/>
                <rect width="49" height="2" x="20" y="78" rx="1"/>
                <rect width="24" height="2" x="84" y="31" rx="1" transform="matrix(-1 0 0 1 192 0)"/>
                <rect width="81" height="2" y="66" rx="1"/>
                <rect width="14" height="2" x="54" y="24" rx="1"/>
                <rect width="37" height="2" x="71" y="24" rx="1"/>
                <rect width="51" height="2" y="24" rx="1"/>
                <rect width="108" height="2" y="59" rx="1"/>
                <rect width="108" height="2" y="52" rx="1"/>
                <rect width="108" height="2" y="92" rx="1"/>
                <rect width="108" height="2" y="38" rx="1"/>
                <rect width="51" height="2" rx="1"/>
            </g>
        </g>
        <g transform="translate(262 60)">
            <use fill="#C8CCD1" xlink:href="#illustrations-header-d"/>
            <rect width="98.28" height="77" x="1" y="1" stroke="#A2A9B1" stroke-width="2" rx="2"/>
        </g>
        <g fill="#FFF" transform="translate(272 74)">
            <rect width="60" height="2" y="14" rx="1"/>
            <rect width="17" height="2" x="63" y="14" rx="1"/>
            <rect width="21" height="2" y="7" rx="1"/>
            <rect width="56" height="2" x="24" y="7" rx="1"/>
            <rect width="21" height="2" y="49" rx="1"/>
            <rect width="32" height="2" x="48" y="49" rx="1"/>
            <rect width="21" height="2" x="24" y="49" rx="1"/>
            <rect width="40.14" height="2" x="40" y="21" rx="1"/>
            <rect width="37" height="2" y="21" rx="1"/>
            <rect width="40.14" height="2" x="40" rx="1"/>
            <rect width="37" height="2" rx="1"/>
            <rect width="30.28" height="2" x="50" y="28" rx="1"/>
            <rect width="36" height="2" x="11" y="28" rx="1"/>
            <rect width="8" height="2" y="28" rx="1"/>
            <rect width="80.28" height="2" y="35" rx="1"/>
            <rect width="47.28" height="2" x="33.28" y="42" rx="1"/>
            <rect width="30.28" height="2" y="42" rx="1"/>
        </g>
        <g transform="translate(233 101)">
            <use fill="#A2A9B1" xlink:href="#illustrations-header-e"/>
            <path stroke="#A2A9B1" stroke-width="2" d="M12.89 73.081l13.986-9.441h71.4c.554 0 1.004-.45 1.004-1.005V2.005A.999.999 0 0 0 98.277 1H2.003C1.45 1 1 1.45 1 2.005v60.63a.999.999 0 0 0 1.003 1.005H12.89v9.441z"/>
            <g fill="#FFF" transform="translate(10 14)">
                <rect width="60" height="2" y="7" rx="1"/>
                <rect width="17" height="2" x="63" y="7" rx="1"/>
                <rect width="21" height="2" rx="1"/>
                <rect width="32" height="2" x="48" rx="1"/>
                <rect width="21" height="2" x="24" rx="1"/>
                <rect width="40.14" height="2" x="40" y="14" rx="1"/>
                <rect width="37" height="2" y="14" rx="1"/>
                <rect width="30.28" height="2" x="50" y="21" rx="1"/>
                <rect width="36" height="2" x="11" y="21" rx="1"/>
                <rect width="8" height="2" y="21" rx="1"/>
                <rect width="80.28" height="2" y="28" rx="1"/>
                <rect width="47.28" height="2" x="33.28" y="35" rx="1"/>
                <rect width="30.28" height="2" y="35" rx="1"/>
            </g>
        </g>
        <g transform="translate(296 130)">
            <path fill="#C8CCD1" stroke="#A2A9B1" stroke-width="2" d="M58.623 49.76v13.793l-8.09-5.463A31.854 31.854 0 0 1 32 64C14.327 64 0 49.673 0 32 0 14.327 14.327 0 32 0c17.673 0 32 14.327 32 32 0 6.57-1.98 12.68-5.377 17.76z"/>
            <circle cx="20" cy="32" r="3" fill="#FFF"/>
            <circle cx="32" cy="32" r="3" fill="#FFF"/>
            <circle cx="44" cy="32" r="3" fill="#FFF"/>
        </g>
        <g>
            <g transform="rotate(45 215.192 693.562)">
                <use fill="#C8CCD1" xlink:href="#illustrations-header-f"/>
                <path stroke="#A2A9B1" stroke-width="2" d="M-1 2.007A3.008 3.008 0 0 1 2.003-1h33.994A3.009 3.009 0 0 1 39 2.007v171.986A3.008 3.008 0 0 1 35.997 177H2.003A3.009 3.009 0 0 1-1 173.993V2.007zM19 23a7 7 0 1 0 0-14 7 7 0 0 0 0 14z"/>
                <path fill="#A2A9B1" d="M23 38.556c0-.553.449-1 1.007-1H38v2H24.007a1.001 1.001 0 0 1-1.007-1z"/>
                <path fill="#2A4B8D" d="M23 78.111c0-.552.449-1 1.007-1H38v2H24.007a1.001 1.001 0 0 1-1.007-1z"/>
                <path fill="#A2A9B1" d="M17 58.333c0-.552.439-1 .999-1H38v2H17.999a.997.997 0 0 1-.999-1zm6 59.334c0-.553.449-1 1.007-1H38v2H24.007a1.001 1.001 0 0 1-1.007-1z"/>
                <path fill="#2A4B8D" d="M17 97.889c0-.552.439-1 .999-1H38v2H17.999a.997.997 0 0 1-.999-1z"/>
                <path fill="#A2A9B1" d="M23 157.222c0-.552.449-1 1.007-1H38v2H24.007a1.001 1.001 0 0 1-1.007-1zm-6-19.778c0-.552.439-1 .999-1H38v2H17.999a.997.997 0 0 1-.999-1z"/>
            </g>
            <g transform="rotate(-45 286.276 -479.633)">
                <use fill="#A2A9B1" fill-opacity=".472" xlink:href="#illustrations-header-g"/>
                <path stroke="#A2A9B1" stroke-width="2" d="M-1 20.007C-1 15.034 3.027 11 7.992 11h8.016A8.989 8.989 0 0 1 25 19.996v157.696l-13.054 33.042L-1 177.62V20.007z"/>
                <path fill="#72777D" d="M0 19.99C0 15.579 3.58 12 7.992 12h8.016A7.99 7.99 0 0 1 24 19.99V32H0V19.99z"/>
                <path fill="#C8CCD1" d="M0 32h24v12.045H0z"/>
                <path fill="#FFF" d="M0 177.341v-4.865h24v4.865L11.967 208z"/>
                <path fill="#72777D" d="M5.977 192.67h12.02L11.967 208z"/>
                <path fill="#EAECF0" d="M0 44h24s-.34 82.58 0 133.296c-3.756-5.222-7.349 0-7.349 0s-4.646-5.247-9.367 0c-4.194-5.247-7.284 0-7.284 0V44z"/>
            </g>
        </g>
        <g transform="translate(648 36)">
            <g transform="rotate(-28 124.07 -251.798)">
                <use fill="#FFF" xlink:href="#illustrations-header-h"/>
                <path stroke="#A2A9B1" stroke-width="2" d="M-1-1h46.596a3 3 0 0 1 3 3v72.095a3 3 0 0 1-3 3H2a3 3 0 0 1-3-3V-1z"/>
                <path fill="#EAECF0" d="M0 60.428h47.596v13.667a2 2 0 0 1-2 2H2a2 2 0 0 1-2-2V60.428z"/>
            </g>
            <g transform="scale(-1 1) rotate(-28 18.07 173.345)">
                <use fill="#FFF" xlink:href="#illustrations-header-i"/>
                <path stroke="#A2A9B1" stroke-width="2" d="M-1-1h46.596a3 3 0 0 1 3 3v72.095a3 3 0 0 1-3 3H2a3 3 0 0 1-3-3V-1z"/>
                <path fill="#EAECF0" d="M0 60.428h47.596v13.667a2 2 0 0 1-2 2H2a2 2 0 0 1-2-2V60.428z"/>
            </g>
            <use fill="#EAECF0" xlink:href="#illustrations-header-j"/>
            <path stroke="#A2A9B1" stroke-width="2" d="M75.21-.952C82.543.89 94.03 2 106.5 2c12.51 0 24.032-1.118 31.358-2.97l.12-.03h.363l35.583 12.885a3 3 0 0 1 1.979 2.82V179a3 3 0 0 1-3 3H39a3 3 0 0 1-3-3V10.934a3 3 0 0 1 2.283-2.913L74.97-1.013l.24.06z"/>
            <use fill="#FFF" xlink:href="#illustrations-header-k"/>
            <path stroke="#A2A9B1" stroke-width="2" d="M76.004.03C76 .187 76 .343 76 .5 76 17.345 89.655 31 106.5 31S137 17.345 137 .5c0-.162-.001-.323-.004-.484L136.98-1h1.068l.19.018 35.234 6.813a3 3 0 0 1 2.43 2.946V179a3 3 0 0 1-3 3H38.996a3 3 0 0 1-3-2.992l-.456-170.21a3 3 0 0 1 2.455-2.958l38.028-7.03-.018 1.22z"/>
            <g fill="#54595D" fill-rule="nonzero">
                <path d="M99.326 59.876s-.78-1.629-1.045-2.17c-1.77-3.606-1.732-3.798-3.521-4.043-.501-.067-.76-.133-.76-.388v-1.142l.15-.111c3.234-.005 10.427-.005 10.427-.005l.276.094v1.138c0 .26-.18.393-.547.393l-.756.11c-1.91.154-1.598.957-.329 3.557l12.05 25.354.412.116 10.699-26.11c.371-1.052.314-1.798-.164-2.237-.48-.426-.817-.681-2.057-.734l-1.004-.05a.569.569 0 0 1-.352-.133.379.379 0 0 1-.168-.317v-1.087l.153-.111h12.087l.123.111v1.087c0 .295-.163.444-.486.444-1.584.072-2.757.425-3.517 1.056-.762.635-1.357 1.508-1.783 2.648 0 0-9.84 23.156-13.206 30.855-1.288 2.524-2.556 2.292-3.67-.072-2.354-4.985-8.983-20.11-8.983-20.11l-4.03-8.143z"/>
                <path d="M119.877 52.01s-6.92-.022-10.002 0l-.153.11v1.082c0 .133.056.238.168.318a.587.587 0 0 0 .357.129l.494.054c1.26.05 1.84.386 2.012.593.3.37.45.772-.279 2.374l-12.92 25.999-.34-.09S89.96 62.895 87.281 56.308c-.28-.68-.404-1.188-.404-1.5 0-.669.598-1.03 1.795-1.08l1.396-.06c.37 0 .557-.143.557-.442v-1.081l-.125-.111s-11.084-.013-13.375 0l-.125.11v1.136c0 .205.257.332.774.388 1.406.077 2.33.303 2.776.68.443.382.912 1.345 1.534 2.847 3.364 8.152 10.512 22.699 13.993 30.984 1.002 2.262 2.262 2.613 3.792-.07 2.649-4.954 9.831-20.092 9.831-20.092l5.657-10.672a47.595 47.595 0 0 1 1.616-2.6c.59-.856.92-1.018 2.532-1.094.329 0 .495-.148.495-.447v-1.081l-.123-.113z"/>
            </g>
        </g>
    </g>
</svg>
