<svg xmlns="http://www.w3.org/2000/svg" xmlns:xlink="http://www.w3.org/1999/xlink" width="244" height="432" viewBox="0 0 244 432">
	<defs>
		<pattern id="illustrations-using--mobile-h" width="125.063%" height="100%" x="-25.063%" patternUnits="objectBoundingBox">
			<use xlink:href="#illustrations-using--mobile-a" transform="scale(.00754)"/>
		</pattern>
		<pattern id="illustrations-using--mobile-i" width="100%" height="137.138%" y="-37.138%" patternUnits="objectBoundingBox">
			<use xlink:href="#illustrations-using--mobile-b" transform="scale(.01256)"/>
		</pattern>
		<pattern id="illustrations-using--mobile-j" width="100%" height="139.695%" y="-39.695%" patternUnits="objectBoundingBox">
			<use xlink:href="#illustrations-using--mobile-c" transform="scale(.01504)"/>
		</pattern>
		<pattern id="illustrations-using--mobile-k" width="100%" height="193.385%" y="-93.385%" patternUnits="objectBoundingBox">
			<use xlink:href="#illustrations-using--mobile-d" transform="scale(.03496)"/>
		</pattern>
		<linearGradient id="illustrations-using--mobile-e" x1="68.513%" x2="46.873%" y1="195.213%" y2="23.396%">
			<stop offset="0%" stop-color="#0BD564"/>
			<stop offset="100%" stop-color="#36C"/>
		</linearGradient>
		<filter id="illustrations-using--mobile-f" width="109.4%" height="106.8%" x="-4.6%" y="-3.4%" filterUnits="objectBoundingBox">
			<feOffset in="SourceAlpha" result="shadowOffsetOuter1"/>
			<feGaussianBlur in="shadowOffsetOuter1" result="shadowBlurOuter1" stdDeviation="2"/>
			<feColorMatrix in="shadowBlurOuter1" values="0 0 0 0 0.2 0 0 0 0 0.4 0 0 0 0 0.8 0 0 0 0.15 0"/>
		</filter>
		<path id="illustrations-using--mobile-g" d="M.016 89.803C.15 44.901.348 2.002.348 2.002A2.01 2.01 0 0 1 2.36 0h110.646v16.505c0 1.103.895 1.997 1.993 1.997h16.304v159.5c0 1.103-.554 1.29-1.284.471 0 0-1.589-2.542-4.453-2.542-2.943 0-2.675 2.316-5.275 3.04-2.6.724-2.605-3.04-5.39-3.04-2.786 0-2.938 3.04-5.59 3.04-2.65 0-2.476-3.04-5.375-3.04-2.9 0-3.18 3.04-5.725 3.04-2.545 0-2.467-3.04-5.447-3.04s-2.967 3.04-5.602 3.04c-2.636 0-2.451-3.04-5.237-3.04-2.787 0-2.681 2.318-5.373 3.04-2.693.722-3.173-3.04-5.864-3.04-2.692 0-2.893 3.04-5.486 3.04-2.594 0-2.177-3.04-5.055-3.04-2.878 0-3.2 3.04-5.89 3.04-2.69 0-2.921-3.04-5.722-3.04-2.8 0-2.497 3.04-5.258 3.04-2.762 0-2.863-3.04-5.61-3.04-2.747 0-2.704 3.04-5.408 3.04s-2.58-3.04-5.48-3.04c-2.899 0-3.008 3.04-5.726 3.04s-2.479-3.04-4.854-3.04c-2.376 0-3.368 3.852-5.961 3.04-2.593-.811-2.294-3.04-5.19-3.04-2.353 0-3.807 2.47-3.807 2.47-.676.871-1.225.677-1.225-.418v-63.468s-.036-12.356 0-24.712z"/>
	</defs>
	<g fill="none" fill-rule="evenodd">
		<path fill="#C8CCD1" d="M0 0h244v432H0z"/>
		<path fill="url(#illustrations-using--mobile-e)" d="M0 0h244v434H0z"/>
		<g transform="translate(56 127)">
			<use xlink:href="#illustrations-using--mobile-g" fill="#000" filter="url(#illustrations-using--mobile-f)"/>
			<use xlink:href="#illustrations-using--mobile-g" fill="#FFF"/>
			<path fill="#C8CCD1" d="M113.914 20.036c-1.059 0-1.914-.883-1.914-1.975V2.01c0-.797.085-1.568.799-1.872.718-.306 1.92-.089 2.468.476l15.341 15.834c.49.358.714 1.284.714 1.95 0 1.092-.764 1.637-1.822 1.637-.01-.002-15.586 0-15.586 0z"/>
			<g transform="translate(0 14)">
				<ellipse cx="18.462" cy="9" fill="#FC3" rx="9.231" ry="9"/>
				<ellipse cx="18.462" cy="9" fill="url(#illustrations-using--mobile-h)" rx="9.231" ry="9"/>
				<path fill="#36C" d="M87.546 21s22.25 14.749 27.256 9.323c5.006-5.427 0 7.877 0 7.877H70.87"/>
				<path fill="url(#illustrations-using--mobile-i)" d="M87.546 21s22.25 14.749 27.256 9.323c5.006-5.427 0 7.877 0 7.877H70.87"/>
				<path fill="#36C" d="M0 29s17.732 12.188 42.442 12.188c24.711 0 6.046 7.812 6.046 7.812H.054"/>
				<path fill="url(#illustrations-using--mobile-j)" d="M0 29s17.732 12.188 42.442 12.188c24.711 0 6.046 7.812 6.046 7.812H.054"/>
				<path fill="#FC3" d="M2.817 49.118S99.864 3.55 87.703 26.484c-12.16 22.934 43.556-5.386 43.556-5.386v28.02"/>
				<path fill="url(#illustrations-using--mobile-k)" d="M2.817 49.118S99.864 3.55 87.703 26.484c-12.16 22.934 43.556-5.386 43.556-5.386v28.02"/>
			</g>
			<path fill="#F5F5F5" d="M.087 62.14h131.2v2H.087z"/>
			<g transform="translate(12 74)">
				<rect width="73" height="2" y="7" fill="#C8CCD1" rx="1"/>
				<rect width="81" height="2" y="31" fill="#72777D" rx="1"/>
				<rect width="32" height="2" y="85" fill="#72777D" rx="1"/>
				<rect width="73" height="2" x="35" y="85" fill="#72777D" rx="1"/>
				<rect width="17" height="2" y="45" fill="#72777D" rx="1"/>
				<rect width="17" height="2" x="91" y="45" fill="#72777D" rx="1"/>
				<rect width="68" height="2" x="20" y="45" fill="#72777D" rx="1"/>
				<rect width="17" height="2" y="78" fill="#72777D" rx="1"/>
				<rect width="37" height="2" x="72" y="78" fill="#72777D" rx="1"/>
				<rect width="49" height="2" x="20" y="78" fill="#72777D" rx="1"/>
				<rect width="24" height="2" x="84" y="31" fill="#72777D" rx="1" transform="matrix(-1 0 0 1 192 0)"/>
				<rect width="81" height="2" y="66" fill="#72777D" rx="1"/>
				<rect width="14" height="2" x="54" y="24" fill="#72777D" rx="1"/>
				<rect width="37" height="2" x="71" y="24" fill="#72777D" rx="1"/>
				<rect width="51" height="2" y="24" fill="#72777D" rx="1"/>
				<rect width="108" height="2" y="59" fill="#72777D" rx="1"/>
				<rect width="108" height="2" y="52" fill="#72777D" rx="1"/>
				<rect width="108" height="2" y="92" fill="#72777D" rx="1"/>
				<rect width="108" height="2" y="38" fill="#72777D" rx="1"/>
				<rect width="51" height="2" fill="#72777D" rx="1"/>
			</g>
		</g>
	</g>
</svg>
