<svg xmlns="http://www.w3.org/2000/svg" width="501" height="253" viewBox="0 0 501 253">
  <g fill="none" fill-rule="evenodd" transform="translate(-399)">
    <rect width="900" height="253" fill="#F8F9FA"/>
    <g transform="translate(423 44)">
      <g transform="rotate(45 56.805 160.956)">
        <path fill="#C8CCD1" stroke="#A2A9B1" stroke-width="2" d="M35.9971408,-1 C37.6542992,-1 39,0.351407553 39,2.00688501 L39,173.993115 C39,175.651943 37.6522623,177 35.9971408,177 L2.00285922,177 C0.345700805,177 -1,175.648592 -1,173.993115 L-1,2.00688501 C-1,0.348056977 0.347737745,-1 2.00285922,-1 L35.9971408,-1 Z M19,9 C15.1340068,9 12,12.1340068 12,16 C12,19.8659932 15.1340068,23 19,23 C22.8659932,23 26,19.8659932 26,16 C26,12.1340068 22.8659932,9 19,9 Z"/>
        <path fill="#A2A9B1" d="M23,38.5555556 C23,38.0032708 23.4489202,37.5555556 24.007484,37.5555556 L38,37.5555556 L38,39.5555556 L24.007484,39.5555556 C23.4510659,39.5555556 23,39.1116907 23,38.5555556 L23,38.5555556 Z"/>
        <path fill="#2A4B8D" d="M23,78.1111111 C23,77.5588264 23.4489202,77.1111111 24.007484,77.1111111 L38,77.1111111 L38,79.1111111 L24.007484,79.1111111 C23.4510659,79.1111111 23,78.6672463 23,78.1111111 L23,78.1111111 Z"/>
        <path fill="#A2A9B1" d="M17 58.3333333C17 57.7810486 17.4386148 57.3333333 17.9987461 57.3333333L38 57.3333333 38 59.3333333 17.9987461 59.3333333C17.4471539 59.3333333 17 58.8894685 17 58.3333333L17 58.3333333zM23 117.666667C23 117.114382 23.4489202 116.666667 24.007484 116.666667L38 116.666667 38 118.666667 24.007484 118.666667C23.4510659 118.666667 23 118.222802 23 117.666667L23 117.666667z"/>
        <path fill="#2A4B8D" d="M17,97.8888889 C17,97.3366041 17.4386148,96.8888889 17.9987461,96.8888889 L38,96.8888889 L38,98.8888889 L17.9987461,98.8888889 C17.4471539,98.8888889 17,98.4450241 17,97.8888889 L17,97.8888889 Z"/>
        <path fill="#A2A9B1" d="M23 157.222222C23 156.669937 23.4489202 156.222222 24.007484 156.222222L38 156.222222 38 158.222222 24.007484 158.222222C23.4510659 158.222222 23 157.778357 23 157.222222L23 157.222222zM17 137.444444C17 136.89216 17.4386148 136.444444 17.9987461 136.444444L38 136.444444 38 138.444444 17.9987461 138.444444C17.4471539 138.444444 17 138.00058 17 137.444444L17 137.444444z"/>
      </g>
      <g transform="rotate(-45 21.663 8.973)">
        <path fill="#A2A9B1" fill-opacity=".472" stroke="#A2A9B1" stroke-width="2" d="M-1,20.0070132 C-1,15.0336898 3.02667926,11 7.99165249,11 L16.0083475,11 C20.9771254,11 25,15.022413 25,19.9964369 L25,177.691654 L11.945794,210.733929 L-1,177.619533 L-1,20.0070132 Z"/>
        <g transform="translate(0 12)">
          <path fill="#72777D" d="M0,7.99075354 C0,3.57758222 3.5800761,1.77635684e-15 7.99165249,1.77635684e-15 L16.0083475,1.77635684e-15 C20.4220153,1.77635684e-15 24,3.57559919 24,7.99075354 L24,20 L0,20 L0,7.99075354 Z"/>
          <rect width="24" height="12.045" y="20" fill="#C8CCD1"/>
          <polygon fill="#FFF" points="0 165.341 0 160.476 24 160.476 24 165.341 11.967 196"/>
          <polygon fill="#72777D" points="5.977 180.67 17.997 180.67 11.967 196"/>
          <path fill="#EAECF0" d="M1.66977543e-13,32 L24,32 C24,32 23.6590566,114.580894 24,165.296089 C20.2440057,160.073559 16.6514893,165.296089 16.6514893,165.296089 C16.6514893,165.296089 12.0047468,160.048514 7.28369141,165.296089 C3.09014886,160.048514 1.66977543e-13,165.296089 1.66977543e-13,165.296089 L1.66977543e-13,32 Z"/>
        </g>
      </g>
    </g>
    <g transform="translate(648 36)">
      <g transform="rotate(-28 124.07 -251.798)">
        <path fill="#FFF" stroke="#A2A9B1" stroke-width="2" d="M-1,-1 L45.5955262,-1 C47.2523804,-1 48.5955262,0.343145751 48.5955262,2 L48.5955262,74.0945411 C48.5955262,75.7513954 47.2523804,77.0945411 45.5955262,77.0945411 L2,77.0945411 C0.343145751,77.0945411 -1,75.7513954 -1,74.0945411 L-1,-1 Z"/>
        <path fill="#EAECF0" d="M0,60.4280179 L47.5955262,60.4280179 L47.5955262,74.0945411 C47.5955262,75.1991106 46.7000957,76.0945411 45.5955262,76.0945411 L2,76.0945411 C0.8954305,76.0945411 1.3527075e-16,75.1991106 0,74.0945411 L0,60.4280179 L0,60.4280179 Z"/>
      </g>
      <g transform="scale(-1 1) rotate(-28 18.07 173.345)">
        <path fill="#FFF" stroke="#A2A9B1" stroke-width="2" d="M-1,-1 L45.5955262,-1 C47.2523804,-1 48.5955262,0.343145751 48.5955262,2 L48.5955262,74.0945411 C48.5955262,75.7513954 47.2523804,77.0945411 45.5955262,77.0945411 L2,77.0945411 C0.343145751,77.0945411 -1,75.7513954 -1,74.0945411 L-1,-1 Z"/>
        <path fill="#EAECF0" d="M0,60.4280179 L47.5955262,60.4280179 L47.5955262,74.0945411 C47.5955262,75.1991106 46.7000957,76.0945411 45.5955262,76.0945411 L2,76.0945411 C0.8954305,76.0945411 1.3527075e-16,75.1991106 0,74.0945411 L0,60.4280179 L0,60.4280179 Z"/>
      </g>
      <path fill="#EAECF0" stroke="#A2A9B1" stroke-width="2" d="M138.336212,-1.00169461 L173.924028,11.8849267 C175.111574,12.314946 175.902608,13.4426847 175.902608,14.7056893 L175.902608,179 C175.902608,180.656854 174.559463,182 172.902608,182 L39,182 C37.3431458,182 36,180.656854 36,179 L36,10.9342898 C36,9.55373494 36.9421689,8.35141096 38.2826907,8.02130722 L74.9705121,-1.01257764 L75.211745,-0.951974113 C82.5428197,0.889769087 94.0315109,2 106.5,2 C119.00822,2 130.529322,0.882620462 137.855386,-0.968889521 L137.971256,-0.998173103 L138.336212,-1.00169461 Z"/>
      <path fill="#FFF" stroke="#A2A9B1" stroke-width="2" d="M138.23756,-0.981813476 L173.472153,5.83131399 C174.883266,6.10417351 175.902608,7.33950261 175.902608,8.77675442 L175.902608,179 C175.902608,180.656854 174.559463,182 172.902608,182 L38.9946569,182 C37.3409359,182 35.9990915,180.66174 35.9946676,179.008025 L35.5393315,8.79779682 C35.5354538,7.34825178 36.5685684,6.10326235 37.9939456,5.83976026 L76.0220116,-1.19113808 L76.0035574,0.0292081911 C76.0011866,0.185990747 76,0.342924135 76,0.5 C76,17.3446849 89.6553151,31 106.5,31 C123.344685,31 137,17.3446849 137.000044,0.509358232 L136.985918,-1 L138.047711,-1 L138.23756,-0.981813476 Z"/>
      <g fill="#54595D" fill-rule="nonzero" transform="translate(77 52)">
        <path d="M22.3258607,7.87594946 C22.3258607,7.87594946 21.5468289,6.2474965 21.2814911,5.70613412 C19.5111571,2.09996213 19.5493658,1.90786581 17.7599275,1.66337957 C17.2589697,1.59570927 17,1.53022189 17,1.27482109 L17,0.133157682 L17.1507119,0.0218291282 C20.3835879,0.0174633026 27.5774269,0.0174633026 27.5774269,0.0174633026 L27.8533782,0.111328554 L27.8533782,1.24862613 C27.8533782,1.50839276 27.6729485,1.64155044 27.3057209,1.64155044 L26.5500388,1.752879 C24.6396065,1.90568289 24.9516438,2.70899481 26.2210199,5.30884398 L38.2716024,30.6633764 L38.6834067,30.7790708 L49.3818276,4.66925053 C49.7533005,3.61708655 49.6959876,2.87053036 49.2183795,2.43176488 C48.7386487,2.00609688 48.401139,1.75069608 47.1614807,1.69830618 L46.1574424,1.64809918 C46.0343257,1.64809918 45.917577,1.60225801 45.8050738,1.5149415 C45.6946932,1.43417372 45.6373803,1.327211 45.6373803,1.19841914 L45.6373803,0.111328554 L45.7902149,0 C48.8044525,0 57.8768833,0 57.8768833,0 L58,0.111328554 L58,1.19841914 C58,1.49311237 57.8365519,1.64155044 57.5139011,1.64155044 C55.930365,1.71358656 54.7565105,2.06721844 53.996583,2.69808025 C53.2345327,3.33330788 52.640176,4.20647301 52.2135128,5.3459535 C52.2135128,5.3459535 42.3747864,28.5022927 39.0081802,36.2014262 C37.7196997,38.7248735 36.4524463,38.4934847 35.3380274,36.1293901 C32.9839503,31.1436172 26.3547502,16.0182143 26.3547502,16.0182143 L22.3258607,7.87594946 Z"/>
        <path d="M42.8768404,0.00968732564 C42.8768404,0.00968732564 35.9561329,-0.012109157 32.8749812,0.00968732564 L32.7215718,0.120849387 L32.7215718,1.20195493 C32.7215718,1.33491347 32.7777499,1.43953659 32.890106,1.52018358 C33.0046229,1.60518986 33.1213004,1.64878282 33.2466208,1.64878282 L33.74142,1.70327403 C35.0011055,1.75340594 35.5801719,2.08907177 35.7530275,2.29613836 C36.0533642,2.66667857 36.2024521,3.06773385 35.4742978,4.66977532 L22.553339,30.6686199 L22.2141098,30.5792543 C22.2141098,30.5792543 12.9598513,10.8948508 10.2805889,4.30795371 C10.0018592,3.62790345 9.87653887,3.12004541 9.87653887,2.8083557 C9.87653887,2.13920368 10.4750515,1.77738207 11.6720768,1.72725016 L13.067886,1.66839966 C13.437365,1.66839966 13.6253455,1.52454287 13.6253455,1.22593106 L13.6253455,0.144825518 L13.5000251,0.0336634566 C13.5000251,0.0336634566 2.4156575,0.020585567 0.125320336,0.0336634566 L0,0.144825518 L0,1.28042227 C0,1.4853092 0.257122758,1.6117288 0.773528968,1.66839966 C2.1801417,1.74468735 3.10491935,1.97137077 3.55002261,2.34844992 C3.99296518,2.72988837 4.46183609,3.6932929 5.08411638,5.19507056 C8.44831918,13.3469551 15.5958997,27.8939276 19.0767801,36.1787707 C20.0793427,38.4412456 21.3390282,38.792169 22.8688006,36.109022 C25.5178132,31.1546814 32.6999648,16.0170242 32.6999648,16.0170242 L38.3566655,5.34546629 C39.0156776,4.21640848 39.6509221,3.21159063 39.9728657,2.7451459 C40.5627355,1.88854413 40.8933219,1.72725016 42.5052007,1.65096247 C42.8336265,1.65096247 43,1.50274639 43,1.20413458 L43,0.123029036 L42.8768404,0.00968732564 Z"/>
      </g>
    </g>
  </g>
</svg>
