<?xml version="1.0" encoding="UTF-8"?>
<svg xmlns="http://www.w3.org/2000/svg" xmlns:xlink="http://www.w3.org/1999/xlink" width="375" height="667" font-family="system-ui,-apple-system,BlinkMacSystemFont,'Segoe UI',Roboto,'Oxygen-Sans',Ubuntu,Cantarell,Lato,'Helvetica Neue',Helvetica,Arial,sans-serif" style="background:#fff" viewBox="0 0 375 667">
  <defs>
    <linearGradient id="a" x1="108.571%" x2="40.106%" y1="195.213%" y2="23.396%">
      <stop offset="0%" stop-color="#0bd564"/>
      <stop offset="100%" stop-color="#36c"/>
    </linearGradient>
    <circle id="b" cx="97" cy="97" r="97"/>
    <path id="d" d="M300.504 61.746l3.718 1.208 1.09-3.353a17.62 17.62 0 0 1-3.089-1.407c-.663 1.047-1.245 2.255-1.719 3.552zm-.268.824c-.402 1.32-.641 2.639-.698 3.884 1.091.112 2.2.338 3.325.677l1.09-3.353-3.717-1.208zm3.45-6.236c-.328.35-.664.724-.96 1.138.86.496 1.841.948 2.878 1.312l1.311-4.034c-.988-.105-2.107.443-3.228 1.584zM299.63 68.82c.239 1.582.82 2.684 1.656 3.171l1.31-4.032a17.554 17.554 0 0 0-3.1-.631c.02.515.073 1.017.134 1.492zm2.35-11.778c.343-.479.728-.919 1.096-1.308a7.208 7.208 0 0 1 1.727-1.346 8.99 8.99 0 0 0-4.7 1.157c.015.032.065.048.08.08.513.49 1.106.977 1.797 1.417zm-.495.698c-.732-.48-1.374-.983-1.918-1.536-.082-.08-.138-.153-.22-.233a9.171 9.171 0 0 0-3.377 4.274l3.718 1.208c.49-1.344 1.085-2.601 1.797-3.713zm-2.051 4.57l-3.717-1.207a8.962 8.962 0 0 0 .195 5.435c.113-.016.201-.042.314-.059a13.414 13.414 0 0 1 2.455-.116c.071-1.291.328-2.658.753-4.052zm-.77 4.935a11.826 11.826 0 0 0-2.285.09c-.032.016-.081 0-.113.016a9.118 9.118 0 0 0 3.153 3.684 7.031 7.031 0 0 1-.606-2.104c-.124-.522-.152-1.097-.148-1.686zm10.902-2.554l3.717 1.208a8.81 8.81 0 0 0-.22-5.443c-.112.017-.2.042-.313.059-.758.103-1.582.158-2.455.116-.047 1.299-.304 2.666-.729 4.06zm-.268.825a17.418 17.418 0 0 1-1.805 3.737c.731.48 1.373.984 1.918 1.537.082.08.163.16.22.232a8.964 8.964 0 0 0 3.352-4.282l-3.685-1.224zm-2.278 4.444c-.343.479-.728.919-1.096 1.308a7.208 7.208 0 0 1-1.727 1.346c1.673.06 3.285-.357 4.716-1.127-.016-.032-.065-.048-.081-.08a10.96 10.96 0 0 0-1.812-1.447zm-.737-.455c-.86-.495-1.84-.948-2.878-1.311l-1.31 4.032c.961.097 2.08-.452 3.203-1.592.344-.316.682-.69.985-1.13zm4.052-9.748c.817.05 1.584.004 2.286-.09.032-.016.081 0 .113-.016a9.118 9.118 0 0 0-3.153-3.684 7.03 7.03 0 0 1 .606 2.104c.124.522.152 1.097.148 1.686zm-2.283-7.188a11.479 11.479 0 0 0-14.484 7.38 11.479 11.479 0 0 0 7.38 14.484 11.479 11.479 0 0 0 14.484-7.38 11.479 11.479 0 0 0-7.38-14.484zm2.172 19.103c-.24.164-.483.328-.74.458-.16.082-.297.172-.458.254a9.89 9.89 0 0 1-7.604.591 9.89 9.89 0 0 1-5.805-4.948c-.082-.16-.164-.322-.222-.475a6.807 6.807 0 0 1-.329-.805c-.711-2.03-.719-4.235-.04-6.324a10.024 10.024 0 0 1 3.75-5.093c.24-.164.483-.328.715-.466.161-.082.298-.172.459-.254a9.99 9.99 0 0 1 7.628-.583c2.527.82 4.583 2.59 5.805 4.948.082.16.164.322.222.475.132.258.23.53.305.797.735 2.038.743 4.243.064 6.332-.679 2.09-1.981 3.87-3.75 5.093zm-.753-11.98a9.72 9.72 0 0 0-.108-1.486c-.238-1.581-.82-2.684-1.655-3.17l-1.31 4.032c1.06.291 2.087.517 3.073.624zm-2.693 9.115c.662-1.047 1.244-2.255 1.718-3.552l-3.718-1.208-1.09 3.353c1.112.388 2.14.856 3.09 1.407zm2.684-8.26a17.86 17.86 0 0 1-3.325-.677l-1.09 3.353 3.717 1.208c.378-1.328.618-2.648.698-3.884z"/>
  </defs>
  <g fill="none" fill-rule="evenodd">
    <path fill="url(#a)" d="M0 0h375v667H0z"/>
    <text fill="#fff" font-size="35" font-weight="bold">
      <tspan x="34" y="326">New ways to </tspan> <tspan x="34" y="366">explore</tspan>
    </text>
    <circle cx="188" cy="122" r="97" fill="#36c" fill-opacity=".083"/>
    <g transform="translate(91 66)">
      <mask id="c" fill="#fff">
        <use xlink:href="#b"/>
      </mask>
      <use fill="#2a4b8d" xlink:href="#b"/>
      <g mask="url(#c)">
        <g transform="translate(68 111)">
          <path fill="#506c9a" d="M30.992 8.566l1.432-.395c1.582-.436 3.169.468 3.544 2.018L62.83 121.111c.375 1.551.109 2.966-.596 3.16l-.637.176c-.705.194-1.623-.894-2.051-2.43L28.904 12.137c-.428-1.536.506-3.135 2.088-3.571z"/>
          <path fill="#36c" d="M30.576 10.701l1.432.395c1.582.436 2.516 2.035 2.088 3.572L3.454 124.548c-.428 1.536-1.346 2.624-2.05 2.43l-.638-.176c-.705-.194-.971-1.61-.596-3.16L27.032 12.72c.375-1.55 1.962-2.455 3.544-2.019z"/>
          <rect width="52.2" height="1.819" x="5.4" y="69.705" fill="#36c" rx=".909"/>
          <path fill="#72777d" d="M30.826.553l9.457 5.46-1.109 1.92a2 2 0 0 1-2.732.732l-5.993-3.46a2 2 0 0 1-.732-2.732l1.109-1.92z"/>
          <ellipse cx="31.561" cy="11.845" fill="#2a4b8d" rx="6.361" ry="6.315"/>
        </g>
      </g>
      <g mask="url(#c)">
        <g transform="translate(68 116)">
          <g transform="translate(0 3)">
            <path fill="#72777d" d="M30.992.566L32.424.17c1.582-.436 3.169.468 3.544 2.018L62.83 113.111c.375 1.551.109 2.966-.596 3.16l-.637.176c-.705.194-1.623-.894-2.051-2.43L28.904 4.137c-.428-1.536.506-3.135 2.088-3.571z"/>
            <path fill="#36c" d="M30.576 2.701l1.432.395c1.582.436 2.516 2.035 2.088 3.572L3.454 116.548c-.428 1.536-1.346 2.624-2.05 2.43l-.638-.176c-.705-.194-.971-1.61-.596-3.16L27.032 4.72c.375-1.55 1.962-2.455 3.544-2.019z"/>
            <rect width="52.2" height="1.819" x="5.4" y="61.705" fill="#36c" rx=".909"/>
          </g>
          <ellipse cx="31.561" cy="6.845" fill="#fc3" rx="6.361" ry="6.315"/>
          <ellipse cx="31.286" cy="6.611" fill="#eaf3ff" rx="2.726" ry="2.706"/>
        </g>
      </g>
      <g mask="url(#c)">
        <g transform="rotate(30 -79.765 105.373)">
          <path fill="#c8ccd1" d="M135.446 10.54H150a2 2 0 0 1 2 2v2.832a2 2 0 0 1-2 2h-14.554v-6.833z"/>
          <path fill="#fc3" d="M25.584 1.429h7.03a2 2 0 0 1 2 2v21.053a2 2 0 0 1-2 2h-7.03V1.429z"/>
          <path fill="#36c" d="M34.614 4.466h87.544a2 2 0 0 1 2 2v14.22a2 2 0 0 1-2 2H34.614V4.466z"/>
          <rect width="29.347" height="28" fill="#36c" rx="2"/>
          <path fill="#fc3" d="M34.614 4.466h5.267v18.22h-5.267zm89.544 3.036h14.555a2 2 0 0 1 2 2v8.147a2 2 0 0 1-2 2h-14.555V7.502z"/>
          <path fill="#EAECF0" d="M39.881 9.78h84.277v3.796H39.881zM0 6.743h29.347v6.833H0z" opacity=".441"/>
          <rect width="6.772" height="25.053" x="62.455" y="1.429" fill="#fc3" rx="3.386"/>
          <rect width="6.772" height="25.053" x="93.307" y="1.429" fill="#fc3" rx="3.386"/>
        </g>
        <path fill="#fc3" d="M43.732 55l3.359 1.939-14 24.249-3.359-1.94A2 2 0 0 1 29 76.517l12-20.784A2 2 0 0 1 43.732 55z"/>
      </g>
    </g>
    <text fill="#fff" font-size="14">
      <tspan x="34" y="480">Places tab </tspan> <tspan x="34" y="500">Discover landmarks near you or search for places </tspan> <tspan x="34" y="520">across the world</tspan>
    </text>
    <text fill="#fff" font-size="14">
      <tspan x="34" y="555">On this day </tspan> <tspan x="34" y="575">Travel back in time to learn what happened today </tspan> <tspan x="34" y="595">in history </tspan>
    </text>
    <text fill="#fff" font-size="14" font-weight="bold">
      <tspan x="34" y="405">Explore feed</tspan> <tspan x="34" y="425" font-weight="normal">Dive down the Wikipedia rabbit hole with a </tspan> <tspan x="34" y="445" font-weight="normal">constantly updating feed</tspan>
    </text>
    <mask id="e" fill="#fff">
      <use xlink:href="#d"/>
    </mask>
    <use fill="#36c" opacity=".418" xlink:href="#d"/>
    <g mask="url(#e)">
      <g transform="translate(29 15)">
        <g fill="#eaf3ff" opacity=".41" transform="translate(42 14)">
          <path d="M17 3h1.01C19.108 3 20 3.894 20 5.005v15.06a2.002 2.002 0 0 1-1.99 2.004H1.99c-1.099 0-1.99-.894-1.99-2.005V5.004C0 3.899.898 3 1.99 3H3v1.002C3 5.102 3.895 6 5 6c1.112 0 2-.894 2-1.998V3h6v1.002C13 5.102 13.895 6 15 6c1.112 0 2-.894 2-1.998V3zM2 10v9.005c0 .54.448.995 1 .995h14c.555 0 1-.446 1-.995V10H2z"/>
          <rect width="2" height="4.355" x="4" y=".645" rx="1"/>
          <rect width="2" height="4.355" x="14" y=".645" rx="1"/>
        </g>
        <path fill="#eaf3ff" d="M247.801 184.326a9.564 9.564 0 1 1 13.525 0c-1.874 1.874-6.762 6.674-6.762 6.674s-4.902-4.813-6.763-6.674zm4.264-4.264a3.533 3.533 0 1 0 4.997-4.997 3.533 3.533 0 0 0-4.997 4.997z" opacity=".411"/>
        <circle cx="50.5" cy="184.5" r="5.5" stroke="#eaf3ff" stroke-width="2" opacity=".41"/>
        <circle cx="292.5" cy="90.5" r="5.5" stroke="#eaf3ff" stroke-width="2" opacity=".41"/>
        <circle cx="5.5" cy="79.5" r="5.5" stroke="#eaf3ff" stroke-width="2" opacity=".41"/>
        <g fill="#000" fill-rule="nonzero" opacity=".17">
          <path d="M38.441 121.789v6.761c0 .75.605 1.357 1.352 1.357.747 0 1.352-.608 1.352-1.357v-6.761c0-.75-.605-1.357-1.352-1.357-.747 0-1.352.608-1.352 1.357z"/>
          <path d="M43.182 123.809h-6.785c-.747 0-1.352.607-1.352 1.357 0 .749.605 1.356 1.352 1.356h6.785c.747 0 1.352-.607 1.352-1.356 0-.75-.605-1.357-1.352-1.357z"/>
        </g>
        <g fill="#000" fill-rule="nonzero" opacity=".17">
          <path d="M274.441 131.789v6.761c0 .75.605 1.357 1.352 1.357.747 0 1.352-.608 1.352-1.357v-6.761c0-.75-.605-1.357-1.352-1.357-.747 0-1.352.608-1.352 1.357z"/>
          <path d="M279.182 133.809h-6.785c-.747 0-1.352.607-1.352 1.357 0 .749.605 1.356 1.352 1.356h6.785c.747 0 1.352-.607 1.352-1.356 0-.75-.605-1.357-1.352-1.357z"/>
        </g>
        <g fill="#000" fill-rule="nonzero" opacity=".17">
          <path d="M241.441 1.789V8.55c0 .75.605 1.357 1.352 1.357.747 0 1.352-.608 1.352-1.357V1.789c0-.75-.605-1.357-1.352-1.357-.747 0-1.352.608-1.352 1.357z"/>
          <path d="M246.182 3.809h-6.785c-.747 0-1.352.607-1.352 1.357 0 .749.605 1.356 1.352 1.356h6.785c.747 0 1.352-.607 1.352-1.356 0-.75-.605-1.357-1.352-1.357z"/>
        </g>
      </g>
    </g>
    <path fill="#fff" d="M231.399 123.742l.264.894a2 2 0 0 0 1.385 1.362l1.045.289a.546.546 0 0 1-.022 1.058l-.926.215a2 2 0 0 0-1.48 1.427l-.266.989a.626.626 0 0 1-1.206.013l-.309-1.05a2 2 0 0 0-1.448-1.38l-.884-.214a.547.547 0 0 1-.023-1.058l1.006-.29a2 2 0 0 0 1.35-1.309l.31-.961a.63.63 0 0 1 1.204.015zm-26.714-44.499l.546 1.85a2 2 0 0 0 1.385 1.362l2.077.575a.813.813 0 0 1-.033 1.574l-1.947.452a2 2 0 0 0-1.48 1.428l-.548 2.035a.932.932 0 0 1-1.794.02l-.62-2.104a2 2 0 0 0-1.448-1.38l-1.863-.45a.814.814 0 0 1-.034-1.574l1.997-.577a2 2 0 0 0 1.35-1.308l.62-1.925a.938.938 0 0 1 1.792.022zm-33 17l.546 1.85a2 2 0 0 0 1.385 1.362l2.077.575a.813.813 0 0 1-.033 1.574l-1.947.452a2 2 0 0 0-1.48 1.428l-.548 2.035a.932.932 0 0 1-1.794.02l-.62-2.104a2 2 0 0 0-1.448-1.38l-1.863-.45a.814.814 0 0 1-.034-1.574l1.997-.577a2 2 0 0 0 1.35-1.308l.62-1.925a.938.938 0 0 1 1.792.022z"/>
  </g>
</svg>
