<?xml version="1.0" encoding="UTF-8"?>
<svg xmlns="http://www.w3.org/2000/svg" xmlns:xlink="http://www.w3.org/1999/xlink" style="background:#c8ccd1" width="743" height="432" viewBox="0 0 743 432">
	<defs>
		<path id="illustrations-article-o" d="M0 90.803L.333 3.002A2.007 2.007 0 012.343 1H112.99v16.505c0 1.103.895 1.997 1.993 1.997h16.304V178.98c0 1.104-.542 1.293-1.271.468 0 0-1.523-2.517-4.466-2.517-2.943 0-2.675 2.316-5.275 3.04-2.6.724-2.605-3.04-5.391-3.04s-2.937 3.04-5.588 3.04c-2.652 0-2.478-3.04-5.377-3.04-2.899 0-3.179 3.04-5.724 3.04-2.545 0-2.468-3.04-5.447-3.04-2.98 0-2.967 3.04-5.603 3.04-2.635 0-2.45-3.04-5.237-3.04-2.786 0-2.68 2.318-5.373 3.04-2.692.722-3.172-3.04-5.864-3.04-2.691 0-2.892 3.04-5.486 3.04s-2.177-3.04-5.055-3.04c-2.878 0-3.199 3.04-5.889 3.04-2.69 0-2.922-3.04-5.722-3.04-2.801 0-2.497 3.04-5.259 3.04-2.761 0-2.862-3.04-5.61-3.04-2.747 0-2.704 3.04-5.407 3.04-2.704 0-2.58-3.04-5.48-3.04-2.9 0-3.009 3.04-5.727 3.04-2.717 0-2.478-3.04-4.854-3.04s-3.368 3.852-5.96 3.04c-2.593-.811-2.294-3.04-5.19-3.04-2.895 0-3.92 2.4-3.92 2.4-.614.91-1.112.747-1.112-.348v-88.18z"/>
		<path id="illustrations-article-p" d="M113.928 21c-1.113 0-2.011-.927-2.011-2.074V2.074c0-.837.49-1.597 1.24-1.916a1.966 1.966 0 012.192.45l16.12 16.626c.516.375.848.993.848 1.692 0 1.147-.9 2.074-2.012 2.074-.01-.002-16.377 0-16.377 0z"/>
		<path id="illustrations-article-v" d="M0 90.803L.333 3.002A2.007 2.007 0 012.343 1H112.99v16.505c0 1.103.895 1.997 1.993 1.997h16.304V178.98c0 1.104-.542 1.293-1.271.468 0 0-1.523-2.517-4.466-2.517-2.943 0-2.675 2.316-5.275 3.04-2.6.724-2.605-3.04-5.391-3.04s-2.937 3.04-5.588 3.04c-2.652 0-2.478-3.04-5.377-3.04-2.899 0-3.179 3.04-5.724 3.04-2.545 0-2.468-3.04-5.447-3.04-2.98 0-2.967 3.04-5.603 3.04-2.635 0-2.45-3.04-5.237-3.04-2.786 0-2.68 2.318-5.373 3.04-2.692.722-3.172-3.04-5.864-3.04-2.691 0-2.892 3.04-5.486 3.04s-2.177-3.04-5.055-3.04c-2.878 0-3.199 3.04-5.889 3.04-2.69 0-2.922-3.04-5.722-3.04-2.801 0-2.497 3.04-5.259 3.04-2.761 0-2.862-3.04-5.61-3.04-2.747 0-2.704 3.04-5.407 3.04-2.704 0-2.58-3.04-5.48-3.04-2.9 0-3.009 3.04-5.727 3.04-2.717 0-2.478-3.04-4.854-3.04s-3.368 3.852-5.96 3.04c-2.593-.811-2.294-3.04-5.19-3.04-2.895 0-3.92 2.4-3.92 2.4-.614.91-1.112.747-1.112-.348v-88.18z"/>
		<path id="illustrations-article-w" d="M114.001 21c-1.106 0-2.001-.927-2.001-2.074V2.074c0-.837.488-1.597 1.235-1.916a1.95 1.95 0 012.181.45l16.042 16.626c.512.375.842.993.842 1.692 0 1.147-.895 2.074-2.001 2.074-.01-.002-16.298 0-16.298 0z"/>
		<path id="illustrations-article-C" d="M.016 89.803C.15 44.901.348 2.002.348 2.002A2.01 2.01 0 012.36 0h110.646v16.505c0 1.103.895 1.997 1.993 1.997h16.304v159.5c0 1.103-.554 1.29-1.284.471 0 0-1.589-2.542-4.453-2.542-2.943 0-2.675 2.316-5.275 3.04-2.6.724-2.605-3.04-5.39-3.04-2.786 0-2.938 3.04-5.59 3.04-2.65 0-2.476-3.04-5.375-3.04-2.9 0-3.18 3.04-5.725 3.04-2.545 0-2.467-3.04-5.447-3.04s-2.967 3.04-5.602 3.04c-2.636 0-2.451-3.04-5.237-3.04-2.787 0-2.681 2.318-5.373 3.04-2.693.722-3.173-3.04-5.864-3.04-2.692 0-2.893 3.04-5.486 3.04-2.594 0-2.177-3.04-5.055-3.04-2.878 0-3.2 3.04-5.89 3.04-2.69 0-2.921-3.04-5.722-3.04-2.8 0-2.497 3.04-5.258 3.04-2.762 0-2.863-3.04-5.61-3.04-2.747 0-2.704 3.04-5.408 3.04s-2.58-3.04-5.48-3.04c-2.899 0-3.008 3.04-5.726 3.04s-2.479-3.04-4.854-3.04c-2.376 0-3.368 3.852-5.961 3.04-2.593-.811-2.294-3.04-5.19-3.04-2.353 0-3.807 2.47-3.807 2.47-.676.871-1.225.677-1.225-.418v-63.468s-.036-12.356 0-24.712z"/>
		<filter id="illustrations-article-n" width="110.7%" height="107.8%" x="-5.3%" y="-3.9%" filterUnits="objectBoundingBox">
			<feMorphology in="SourceAlpha" operator="dilate" radius="1" result="shadowSpreadOuter1"/>
			<feOffset in="shadowSpreadOuter1" result="shadowOffsetOuter1"/>
			<feMorphology in="SourceAlpha" radius="1" result="shadowInner"/>
			<feOffset in="shadowInner" result="shadowInner"/>
			<feComposite in="shadowOffsetOuter1" in2="shadowInner" operator="out" result="shadowOffsetOuter1"/>
			<feGaussianBlur in="shadowOffsetOuter1" result="shadowBlurOuter1" stdDeviation="2"/>
			<feColorMatrix in="shadowBlurOuter1" values="0 0 0 0 0.961 0 0 0 0 0.961 0 0 0 0 0.961 0 0 0 1 0"/>
		</filter>
		<filter id="illustrations-article-u" width="110.7%" height="107.8%" x="-5.3%" y="-3.9%" filterUnits="objectBoundingBox">
			<feMorphology in="SourceAlpha" operator="dilate" radius="1" result="shadowSpreadOuter1"/>
			<feOffset in="shadowSpreadOuter1" result="shadowOffsetOuter1"/>
			<feGaussianBlur in="shadowOffsetOuter1" result="shadowBlurOuter1" stdDeviation="2"/>
			<feComposite in="shadowBlurOuter1" in2="SourceAlpha" operator="out" result="shadowBlurOuter1"/>
			<feColorMatrix in="shadowBlurOuter1" values="0 0 0 0 0.961 0 0 0 0 0.961 0 0 0 0 0.961 0 0 0 1 0"/>
		</filter>
		<filter id="illustrations-article-B" width="109.2%" height="106.7%" x="-4.6%" y="-3.4%" filterUnits="objectBoundingBox">
			<feOffset in="SourceAlpha" result="shadowOffsetOuter1"/>
			<feGaussianBlur in="shadowOffsetOuter1" result="shadowBlurOuter1" stdDeviation="2"/>
			<feColorMatrix in="shadowBlurOuter1" values="0 0 0 0 0.2 0 0 0 0 0.4 0 0 0 0 0.8 0 0 0 0.15 0"/>
		</filter>
		<linearGradient id="illustrations-article-m" x1="108.571%" x2="40.106%" y1="195.213%" y2="23.396%">
			<stop offset="0%" stop-color="#0BD564"/>
			<stop offset="100%" stop-color="#36C"/>
		</linearGradient>
	</defs>
	<g fill="none" fill-rule="evenodd">
		<path fill="url(#illustrations-article-m)" d="M0 0h244v433.778H0z"/>
		<path fill="#FFF" d="M250 1h244v433.778H250z"/>
		<path fill="#F8F9FA" d="M499 0h244v433.778H499z"/>
		<g transform="translate(306 127)">
			<g stroke-linecap="round">
				<use fill="#000" filter="url(#illustrations-article-n)" xlink:href="#illustrations-article-o"/>
				<use stroke="#72777D" stroke-width="2" xlink:href="#illustrations-article-o"/>
			</g>
			<use fill="#C8CCD1" xlink:href="#illustrations-article-p"/>
			<path stroke="#72777D" stroke-width="2" d="M113.927 20h8.189a47404.073 47404.073 0 017.484 0h.52c.078-.002.106-.003.185.003V20c.553 0 1.012-.473 1.012-1.074 0-.363-.166-.687-.436-.884l-.13-.112-16.12-16.626a.966.966 0 00-1.082-.226c-.377.16-.632.555-.632.996v16.852c0 .601.458 1.074 1.01 1.074z"/>
			<g transform="translate(1 15)">
				<ellipse cx="18.169" cy="9" fill="#FC3" rx="9.084" ry="9"/>
				<ellipse cx="18.169" cy="9" fill="url(#illustrations-article-q)" rx="9.084" ry="9"/>
				<path fill="#36C" d="M86.154 21s21.896 14.749 26.823 9.323c4.926-5.427 0 7.877 0 7.877H69.744"/>
				<path fill="url(#illustrations-article-r)" d="M86.154 21s21.896 14.749 26.823 9.323c4.926-5.427 0 7.877 0 7.877H69.744"/>
				<path fill="#36C" d="M0 29s17.45 12.188 41.768 12.188S47.718 49 47.718 49H.052"/>
				<path fill="url(#illustrations-article-s)" d="M0 29s17.45 12.188 41.768 12.188S47.718 49 47.718 49H.052"/>
				<path fill="#FC3" d="M2.772 49.118S98.276 3.55 86.309 26.484c-11.967 22.934 42.863-5.386 42.863-5.386v28.02"/>
				<path fill="url(#illustrations-article-t)" d="M2.772 49.118S98.276 3.55 86.309 26.484c-11.967 22.934 42.863-5.386 42.863-5.386v28.02"/>
			</g>
			<path fill="#F5F5F5" d="M1 63h129.1v2H1z"/>
			<g transform="translate(12 75)">
				<rect width="73" height="2" y="7" fill="#C8CCD1" rx="1"/>
				<rect width="81" height="2" y="31" fill="#72777D" rx="1"/>
				<rect width="32" height="2" y="85" fill="#72777D" rx="1"/>
				<rect width="73" height="2" x="35" y="85" fill="#72777D" rx="1"/>
				<rect width="17" height="2" y="45" fill="#72777D" rx="1"/>
				<rect width="17" height="2" x="91" y="45" fill="#72777D" rx="1"/>
				<rect width="68" height="2" x="20" y="45" fill="#72777D" rx="1"/>
				<rect width="17" height="2" y="78" fill="#72777D" rx="1"/>
				<rect width="37" height="2" x="72" y="78" fill="#72777D" rx="1"/>
				<rect width="49" height="2" x="20" y="78" fill="#72777D" rx="1"/>
				<rect width="24" height="2" x="84" y="31" fill="#72777D" rx="1" transform="matrix(-1 0 0 1 192 0)"/>
				<rect width="81" height="2" y="66" fill="#72777D" rx="1"/>
				<rect width="14" height="2" x="54" y="24" fill="#72777D" rx="1"/>
				<rect width="37" height="2" x="71" y="24" fill="#72777D" rx="1"/>
				<rect width="51" height="2" y="24" fill="#72777D" rx="1"/>
				<rect width="108" height="2" y="59" fill="#72777D" rx="1"/>
				<rect width="108" height="2" y="52" fill="#72777D" rx="1"/>
				<rect width="108" height="2" y="92" fill="#72777D" rx="1"/>
				<rect width="108" height="2" y="38" fill="#72777D" rx="1"/>
				<rect width="51" height="2" fill="#72777D" rx="1"/>
			</g>
		</g>
		<g transform="translate(555 127)">
			<g stroke-linecap="round">
				<use fill="#000" filter="url(#illustrations-article-u)" xlink:href="#illustrations-article-v"/>
				<use fill="#FFF" stroke="#A2A9B1" stroke-width="2" xlink:href="#illustrations-article-v"/>
			</g>
			<use fill="#C8CCD1" xlink:href="#illustrations-article-w"/>
			<path stroke="#A2A9B1" stroke-width="2" d="M114.001 20h8.149a46940.488 46940.488 0 017.965 0c.076-.002.104-.003.184.003V20c.546 0 1.001-.472 1.001-1.074 0-.364-.165-.69-.434-.886l-.128-.112-16.042-16.626a.95.95 0 00-1.068-.225c-.374.16-.628.555-.628.997v16.852c0 .602.455 1.074 1.001 1.074z"/>
			<g transform="translate(1.072 15)">
				<ellipse cx="18.169" cy="9" fill="#A2A9B1" rx="9.084" ry="9"/>
				<ellipse cx="18.169" cy="9" fill="url(#illustrations-article-x)" rx="9.084" ry="9"/>
				<path fill="#A2A9B1" d="M86.154 21s21.896 14.749 26.823 9.323c4.926-5.427 0 7.877 0 7.877H69.744"/>
				<path fill="url(#illustrations-article-y)" d="M86.154 21s21.896 14.749 26.823 9.323c4.926-5.427 0 7.877 0 7.877H69.744"/>
				<path fill="#A2A9B1" d="M0 29s17.45 12.188 41.768 12.188S47.718 49 47.718 49H.052"/>
				<path fill="url(#illustrations-article-z)" d="M0 29s17.45 12.188 41.768 12.188S47.718 49 47.718 49H.052"/>
				<path fill="#C8CCD1" d="M2.772 49.118S98.352 3.55 86.375 26.484c-11.976 22.934 42.897-5.386 42.897-5.386v28.02"/>
				<path fill="url(#illustrations-article-A)" d="M2.772 49.118S98.352 3.55 86.375 26.484c-11.976 22.934 42.897-5.386 42.897-5.386v28.02"/>
			</g>
			<path fill="#F5F5F5" d="M1.072 63h129.1v2H1.072z"/>
			<g transform="translate(12.072 75)">
				<rect width="73" height="2" y="7" fill="#C8CCD1" rx="1"/>
				<rect width="81" height="2" y="31" fill="#A2A9B1" rx="1"/>
				<rect width="32" height="2" y="85" fill="#A2A9B1" rx="1"/>
				<rect width="73" height="2" x="35" y="85" fill="#A2A9B1" rx="1"/>
				<rect width="17" height="2" y="45" fill="#A2A9B1" rx="1"/>
				<rect width="17" height="2" x="91" y="45" fill="#A2A9B1" rx="1"/>
				<rect width="68" height="2" x="20" y="45" fill="#A2A9B1" rx="1"/>
				<rect width="17" height="2" y="78" fill="#A2A9B1" rx="1"/>
				<rect width="37" height="2" x="72" y="78" fill="#A2A9B1" rx="1"/>
				<rect width="49" height="2" x="20" y="78" fill="#A2A9B1" rx="1"/>
				<rect width="24" height="2" x="84" y="31" fill="#A2A9B1" rx="1" transform="matrix(-1 0 0 1 192 0)"/>
				<rect width="81" height="2" y="66" fill="#A2A9B1" rx="1"/>
				<rect width="14" height="2" x="54" y="24" fill="#A2A9B1" rx="1"/>
				<rect width="37" height="2" x="71" y="24" fill="#A2A9B1" rx="1"/>
				<rect width="51" height="2" y="24" fill="#A2A9B1" rx="1"/>
				<rect width="108" height="2" y="59" fill="#A2A9B1" rx="1"/>
				<rect width="108" height="2" y="52" fill="#A2A9B1" rx="1"/>
				<rect width="108" height="2" y="92" fill="#A2A9B1" rx="1"/>
				<rect width="108" height="2" y="38" fill="#A2A9B1" rx="1"/>
				<rect width="51" height="2" fill="#A2A9B1" rx="1"/>
			</g>
		</g>
		<g transform="translate(56 127)">
			<use fill="#000" filter="url(#illustrations-article-B)" xlink:href="#illustrations-article-C"/>
			<use fill="#FFF" xlink:href="#illustrations-article-C"/>
			<path fill="#C8CCD1" d="M113.914 20.036c-1.059 0-1.914-.883-1.914-1.975V2.01c0-.797.085-1.568.799-1.872.718-.306 1.92-.089 2.468.476l15.341 15.834c.49.358.714 1.284.714 1.95 0 1.092-.764 1.637-1.822 1.637-.01-.002-15.586 0-15.586 0z"/>
			<g transform="translate(0 14)">
				<ellipse cx="18.462" cy="9" fill="#FC3" rx="9.231" ry="9"/>
				<ellipse cx="18.462" cy="9" fill="url(#illustrations-article-D)" rx="9.231" ry="9"/>
				<path fill="#36C" d="M87.546 21s22.25 14.749 27.256 9.323c5.006-5.427 0 7.877 0 7.877H70.87"/>
				<path fill="url(#illustrations-article-E)" d="M87.546 21s22.25 14.749 27.256 9.323c5.006-5.427 0 7.877 0 7.877H70.87"/>
				<path fill="#36C" d="M0 29s17.732 12.188 42.442 12.188c24.711 0 6.046 7.812 6.046 7.812H.054"/>
				<path fill="url(#illustrations-article-F)" d="M0 29s17.732 12.188 42.442 12.188c24.711 0 6.046 7.812 6.046 7.812H.054"/>
				<path fill="#FC3" d="M2.817 49.118S99.864 3.55 87.703 26.484c-12.16 22.934 43.556-5.386 43.556-5.386v28.02"/>
				<path fill="url(#illustrations-article-G)" d="M2.817 49.118S99.864 3.55 87.703 26.484c-12.16 22.934 43.556-5.386 43.556-5.386v28.02"/>
			</g>
			<path fill="#F5F5F5" d="M.087 62.14h131.2v2H.087z"/>
			<g transform="translate(12 74)">
				<rect width="73" height="2" y="7" fill="#C8CCD1" rx="1"/>
				<rect width="81" height="2" y="31" fill="#72777D" rx="1"/>
				<rect width="32" height="2" y="85" fill="#72777D" rx="1"/>
				<rect width="73" height="2" x="35" y="85" fill="#72777D" rx="1"/>
				<rect width="17" height="2" y="45" fill="#72777D" rx="1"/>
				<rect width="17" height="2" x="91" y="45" fill="#72777D" rx="1"/>
				<rect width="68" height="2" x="20" y="45" fill="#72777D" rx="1"/>
				<rect width="17" height="2" y="78" fill="#72777D" rx="1"/>
				<rect width="37" height="2" x="72" y="78" fill="#72777D" rx="1"/>
				<rect width="49" height="2" x="20" y="78" fill="#72777D" rx="1"/>
				<rect width="24" height="2" x="84" y="31" fill="#72777D" rx="1" transform="matrix(-1 0 0 1 192 0)"/>
				<rect width="81" height="2" y="66" fill="#72777D" rx="1"/>
				<rect width="14" height="2" x="54" y="24" fill="#72777D" rx="1"/>
				<rect width="37" height="2" x="71" y="24" fill="#72777D" rx="1"/>
				<rect width="51" height="2" y="24" fill="#72777D" rx="1"/>
				<rect width="108" height="2" y="59" fill="#72777D" rx="1"/>
				<rect width="108" height="2" y="52" fill="#72777D" rx="1"/>
				<rect width="108" height="2" y="92" fill="#72777D" rx="1"/>
				<rect width="108" height="2" y="38" fill="#72777D" rx="1"/>
				<rect width="51" height="2" fill="#72777D" rx="1"/>
			</g>
		</g>
	</g>
</svg>
