<?xml version="1.0" encoding="UTF-8" standalone="no"?>
<svg width="817px" height="424px" viewBox="0 0 817 424" version="1.1" xmlns="http://www.w3.org/2000/svg" xmlns:xlink="http://www.w3.org/1999/xlink" style="background: #EAECF0;">
    <defs>
        <rect id="path-1" x="205" y="135" width="408" height="529" rx="2"></rect>
        <filter x="-0.9%" y="-0.5%" width="101.7%" height="101.3%" filterUnits="objectBoundingBox" id="filter-2">
            <feOffset dx="0" dy="1" in="SourceAlpha" result="shadowOffsetOuter1"></feOffset>
            <feGaussianBlur stdDeviation="1" in="shadowOffsetOuter1" result="shadowBlurOuter1"></feGaussianBlur>
            <feColorMatrix values="0 0 0 0 0   0 0 0 0 0   0 0 0 0 0  0 0 0 0.0939764493 0" type="matrix" in="shadowBlurOuter1"></feColorMatrix>
        </filter>
        <path d="M12.5439342,0.255864222 C13.3500937,0.278327676 13.7635068,0.302536119 14.2639107,0.302536119 C14.765177,0.302536119 15.3095056,0.279202047 15.8538378,0.255864222 C15.9838908,0.395024307 15.9838908,0.885974243 15.8538378,1.02599744 C14.7212522,1.21269254 14.2484078,2.10124111 13.7126932,3.19550328 L12.1210447,6.44112716 L14.9064277,12.6212039 L15.0063374,12.6212039 L19.1422085,3.03214601 C19.6581152,1.76933288 19.6210831,1.14181595 18.2059961,1.02599744 C18.0750806,0.885974243 18.0750806,0.39588742 18.2059961,0.255864222 C19.2291992,0.278327676 19.8605185,0.302536119 20.3617848,0.302536119 C20.8630512,0.302536119 21.4073797,0.279202047 22.2781344,0.255864222 C22.4090499,0.395024307 22.4090499,0.885974243 22.2781344,1.02599744 C20.8406557,1.21269254 20.590885,2.1038342 20.1378522,3.19550328 L14.9830831,15.0949609 C14.8306347,15.4450207 14.6997193,15.6317196 14.4611463,15.6317196 C14.2432402,15.6317196 14.0752926,15.4424276 13.95988,15.0949609 L11.0306625,8.32194422 L7.8189436,15.0949609 C7.68889066,15.4450207 7.53557971,15.6317196 7.29614429,15.6317196 C7.07910064,15.6317196 6.92579341,15.4450207 6.79574046,15.0949609 L2.05869294,3.1496945 C1.39464516,1.49274269 1.35071967,1.14354593 0.10961316,1.02686055 C-0.0213016146,0.886833603 -0.042833638,0.396750533 0.088081111,0.256727335 C1.1112835,0.279190789 1.48163438,0.303402985 2.35238983,0.303402985 C3.20161304,0.303402985 3.74594273,0.280068913 4.77000838,0.256727335 C4.90092011,0.39588742 4.90092011,0.886833603 4.77000838,1.02686055 C3.39798548,1.18935471 3.33941816,1.55843309 3.88633091,2.89298217 L7.87320359,12.6220633 L7.97311334,12.6220633 L10.4053696,7.32102959 L8.56998059,3.1496945 C7.84047658,1.49274269 7.66649517,1.16688375 6.72942023,1.02686055 C6.59936728,0.886833603 6.57697551,0.396750533 6.70789097,0.256727335 C7.40466797,0.279190789 7.77501885,0.303402985 8.64577356,0.303402985 C9.494999,0.303402985 9.8438169,0.280068913 10.6275846,0.256727335 C10.7584964,0.39588742 10.7584964,0.886833603 10.6275846,1.02686055 C9.71290144,1.16688375 9.79989215,1.56275616 10.3967594,2.89298217 L11.4681924,5.25005373 L11.563797,5.35464051 L12.7179119,3.03300537 C13.3905721,1.68030465 13.4801467,1.16688375 12.5439342,1.02686055 C12.4130188,0.885107377 12.4130188,0.395024307 12.5439342,0.255864222 Z" id="path-3"></path>
        <path d="M3.49438385,8.03529689 C3.49438385,9.97143574 3.73381928,10.0656464 5.06191557,10.1581308 C5.19283102,10.2981578 5.19283102,10.7882409 5.06191557,10.9282641 C4.12570313,10.9058006 3.58137456,10.8815922 2.64516213,10.8815922 C1.68655421,10.8815922 1.12069266,10.9049262 0.206013206,10.9282641 C0.0759602597,10.7882409 0.0759602597,10.2981578 0.206013206,10.1581308 C1.53410949,10.0414455 1.77440371,9.97143574 1.77440371,8.03529689 L1.77440371,2.99529484 C1.77440371,1.05915599 1.53496829,0.965808443 0.206013206,0.872460896 C0.0759602597,0.732437697 0.0759602597,0.242350874 0.206013206,0.102327676 C1.14222564,0.125661748 1.68655421,0.148999574 2.62362915,0.148999574 C3.58137456,0.148999574 4.14809862,0.126536119 5.06277807,0.102327676 C5.19369353,0.242350874 5.19369353,0.732437697 5.06277807,0.872460896 C3.73468179,0.989146269 3.49524636,1.05915599 3.49524636,2.99529484 L3.49524636,8.03529689 L3.49438385,8.03529689 Z" id="path-5"></path>
        <path d="M0.397921419,0.873324009 C0.26787219,0.73330081 0.26787219,0.24321774 0.397921419,0.103190789 C1.31260459,0.126524861 1.87846614,0.149866439 2.83707034,0.149866439 C3.64323354,0.149866439 3.99118894,0.127399232 4.92740137,0.103190789 C5.05745803,0.24321774 5.05745803,0.73330081 4.92740137,0.873324009 C3.88180646,0.990009382 3.68629578,1.06002286 3.68629578,2.99615795 L3.68629578,5.07232 C4.40460577,5.07232 5.04281397,4.70410849 5.97299627,3.57872921 C7.64991046,1.54924281 7.86781662,0.942470618 6.77915576,0.872460896 C6.6482403,0.732437697 6.6482403,0.242350874 6.77915576,0.102327676 C7.71536819,0.125661748 8.54306065,0.149003326 9.17437993,0.149003326 C9.74025264,0.149003326 10.110611,0.126539872 10.6988643,0.102327676 C10.8289098,0.242350874 10.8289098,0.732437697 10.6988643,0.872460896 C9.82810214,0.919132793 9.02883157,1.03754814 8.36822045,1.85262704 L6.49579559,4.16216358 C6.12544471,4.58223693 5.99452925,4.8389455 5.99452925,5.02564435 C5.99452925,5.16566755 6.08151996,5.28235292 6.19090244,5.42237612 L9.41380048,9.48221578 C9.6989117,9.83659872 10.219986,10.0881211 10.8073842,10.1581308 C10.9374298,10.2981578 10.9374298,10.764903 10.8073842,10.9049262 C10.8073842,10.9049262 9.74025264,10.8815922 9.1304366,10.8815922 C8.56373112,10.8815922 8.01940255,10.9049262 7.77996341,10.9282678 L7.77996341,10.601542 C7.77996341,10.2981615 7.7584453,10.0423123 7.453541,9.66891463 L5.03678384,6.4483623 C4.71036143,5.9816133 4.16517035,5.86492793 3.68629578,5.86492793 L3.68629578,8.03530064 C3.68629578,9.97143574 3.88266897,10.0414492 4.92740137,10.1581346 C5.05745803,10.2981615 5.05745803,10.7882446 4.92740137,10.9282678 C3.99118894,10.9058043 3.64237104,10.8815922 2.83707034,10.8815922 C1.87846614,10.8815922 1.31260459,10.9049262 0.397921419,10.9282678 C0.26787219,10.7882446 0.26787219,10.2981615 0.397921419,10.1581346 C1.72602142,10.0414492 1.96545685,9.97143574 1.96545685,8.03530064 L1.96545685,2.99529859 C1.96545685,1.0591635 1.72602142,0.989150021 0.397921419,0.873327761 L0.397921419,0.873324009 Z" id="path-7"></path>
        <path d="M3.65569903,8.03529689 C3.65569903,9.97143574 3.89511958,10.0656464 5.22323446,10.1581308 C5.35413504,10.2981578 5.35413504,10.7882409 5.22323446,10.9282641 C4.28700344,10.9058006 3.74269345,10.8815922 2.80646243,10.8815922 C1.84788797,10.8815922 1.28201527,10.9049262 0.367346968,10.9282641 C0.23726428,10.7882409 0.23726428,10.2981578 0.367346968,10.1581308 C1.69542467,10.0414455 1.93484522,9.97143574 1.93484522,8.03529689 L1.93484522,2.99529484 C1.93484522,1.05915599 1.69542467,0.965808443 0.367346968,0.872460896 C0.23726428,0.732437697 0.23726428,0.242350874 0.367346968,0.102327676 C1.30354081,0.125661748 1.84788797,0.148999574 2.78493689,0.148999574 C3.74269345,0.148999574 4.30942123,0.126536119 5.22408953,0.102327676 C5.35502729,0.242350874 5.35502729,0.732437697 5.22408953,0.872460896 C3.89601183,0.989146269 3.6565541,1.05915599 3.6565541,2.99529484 L3.6565541,8.03529689 L3.65569903,8.03529689 Z" id="path-9"></path>
        <path d="M5.04489589,10.1581308 C5.1749414,10.2981578 5.1749414,10.7882409 5.04489589,10.9282641 C4.10780979,10.9058006 3.56346263,10.8815922 2.62726879,10.8815922 C1.66951223,10.8815922 1.10278445,10.9049262 0.188116148,10.9282641 C0.0572155636,10.7882409 0.0572155636,10.2981578 0.188116148,10.1581308 C1.51619385,10.0414455 1.75565158,9.97143574 1.75565158,8.03529689 L1.75565158,2.99529484 C1.75565158,1.05915599 1.51619385,0.965808443 0.188116148,0.872460896 C0.0572155636,0.732437697 0.0572155636,0.242350874 0.188116148,0.102327676 C1.12434717,0.125661748 1.66865715,0.148999574 2.60488817,0.148999574 C3.19314149,0.148999574 4.10780979,0.102327676 4.91310305,0.102327676 C8.00512282,0.102327676 8.65966292,1.73594166 8.65966292,2.94861919 C8.65966292,4.34886243 7.76652017,6.58838175 4.84763417,6.58838175 C4.30332419,6.58838175 3.86838924,6.49589731 3.47650538,6.3083316 L3.47650538,8.03529689 C3.47650538,9.97143574 3.71592594,10.0647833 5.04489589,10.1581308 Z M3.47650538,5.56153996 C3.91144033,5.74823505 4.45575031,5.81824853 4.89157751,5.81824853 C6.19898474,5.81824853 6.76485744,4.9106852 6.76485744,3.22866559 C6.76485744,1.59245851 6.06722908,0.87159403 4.78305754,0.87159403 C3.73745148,0.87159403 3.47650538,1.174982 3.47650538,1.92177365 L3.47650538,5.56153996 Z" id="path-11"></path>
        <path d="M3.63711048,5.67735846 L3.63711048,9.17709783 C3.63711048,9.620509 3.94199991,10.2039396 4.33388377,10.2039396 L6.14254989,10.2039396 C7.51371586,10.2039396 8.14591252,9.03707463 8.49385304,7.66103232 C8.73241852,7.5910226 8.90726244,7.63856887 9.10277683,7.75438362 C8.9503507,8.73455352 8.71089297,10.0172445 8.44994688,10.9740728 C8.44994688,10.9740728 7.01245696,10.9274009 6.14169482,10.9274009 L2.78701881,10.9274009 C2.78701881,10.9274009 1.26253446,10.950735 0.347866166,10.9740728 C0.217820655,10.8340496 0.217820655,10.3439666 0.347866166,10.2039396 C1.67679894,10.0872542 1.91540159,10.0172445 1.91540159,8.08110567 L1.91540159,3.04110362 C1.91540159,1.10496853 1.67679894,1.01161723 0.347866166,0.91826968 C0.217820655,0.778246482 0.217820655,0.288163412 0.347866166,0.148136461 C1.28495226,0.171470533 2.76549326,0.194812111 2.76549326,0.194812111 L7.27344023,0.194812111 C7.70923025,0.194812111 7.8608013,0.148136461 8.16572791,0.102327676 C8.20963407,0.102327676 8.23115962,0.12479113 8.23115962,0.172337399 C8.27424788,0.334835309 8.53604905,2.15514814 8.62304347,2.94861919 C8.4490918,3.04110362 8.25268516,3.08864239 8.03479015,3.06530456 C7.64290629,1.73594166 7.35954241,0.96494533 6.00904691,0.96494533 L4.33213644,0.96494533 C3.91872704,0.96494533 3.63536315,1.2216539 3.63536315,1.61838942 L3.63536315,4.93142994 L4.8764836,4.93142994 C6.40093077,4.90896273 6.33464399,4.67472136 6.37855015,3.624538 C6.48792519,3.50785262 6.87980905,3.50785262 6.98832902,3.624538 C6.96680347,4.20796861 6.94527793,4.62804196 6.94527793,5.28148981 C6.94527793,5.9349339 6.9659484,6.3083316 6.98832902,6.98511727 C6.87980905,7.10180264 6.48792519,7.10180264 6.37855015,6.98511727 C6.33464399,6.1216365 6.42249349,5.67822533 4.8764836,5.67822533 L3.63711048,5.67822533 L3.63711048,5.67735846 Z" id="path-13"></path>
        <path d="M5.58849951,0.103190789 C9.22482926,0.103190789 11.0102597,2.53027582 11.0102597,5.63241655 C11.0102597,9.71558652 8.31016096,10.9282641 5.89338894,10.9282641 C4.15104677,10.9282641 3.3663868,10.8815922 2.71441192,10.8815922 C1.75580029,10.8815922 1.18992758,10.9049262 0.275259281,10.9282641 C0.144358696,10.7882409 0.144358696,10.2981578 0.275259281,10.1581308 C1.60422923,10.0414455 1.84279471,9.97143574 1.84279471,8.03530064 L1.84279471,2.99529484 C1.84279471,1.05915974 1.60422923,0.965808443 0.275259281,0.872460896 C0.144358696,0.732437697 0.144358696,0.242350874 0.275259281,0.102327676 C1.2114903,0.125661748 1.75580029,0.149003326 2.69288638,0.149003326 C3.10629578,0.149772623 5.02177173,0.103190789 5.58849951,0.103190789 Z M5.36974942,10.1589977 C7.76495873,10.1589977 9.1163093,9.29551318 9.1163093,6.03001518 C9.1163093,3.60293015 8.6150504,0.873324009 4.95634002,0.873324009 C4.10710343,0.873324009 3.56364852,1.01334721 3.56364852,1.59678158 L3.56364852,9.10881808 C3.56364852,9.76226217 3.71521957,10.1589977 5.36974942,10.1589977 Z" id="path-15"></path>
        <path d="M3.41642718,8.03529689 C3.41642718,9.97143574 3.65502984,10.0656464 4.98396261,10.1581308 C5.1140453,10.2981578 5.1140453,10.7882409 4.98396261,10.9282641 C4.0469137,10.9058006 3.50256653,10.8815922 2.56637269,10.8815922 C1.60776106,10.8815922 1.04188835,10.9049262 0.127220051,10.9282641 C-0.00286263704,10.7882409 -0.00286263704,10.2981578 0.127220051,10.1581308 C1.45615282,10.0414455 1.69475548,9.97143574 1.69475548,8.03529689 L1.69475548,2.99529484 C1.69475548,1.05915599 1.45615282,0.965808443 0.127220051,0.872460896 C-0.00286263704,0.732437697 -0.00286263704,0.242350874 0.127220051,0.102327676 C1.06426897,0.125661748 1.60776106,0.148999574 2.54480997,0.148999574 C3.50256653,0.148999574 4.06929431,0.126536119 4.98396261,0.102327676 C5.1140453,0.242350874 5.1140453,0.732437697 4.98396261,0.872460896 C3.65502984,0.989146269 3.41642718,1.05915599 3.41642718,2.99529484 L3.41642718,8.03529689 Z" id="path-17"></path>
        <path d="M5.02277551,14.62906 C5.15371327,14.7690869 5.15371327,15.25917 5.02277551,15.3991932 C4.21662718,15.3767297 3.1288251,15.3525175 2.23568235,15.3525175 C1.38730083,15.3525175 1.10397411,15.3758554 0.297788606,15.3991932 C0.167743095,15.25917 0.167743095,14.7690869 0.297788606,14.62906 C1.24520993,14.5590502 1.90064228,14.414704 2.47599515,12.9729713 L7.31637979,0.833230533 C7.56442543,0.207443582 7.72893411,0 8.05103655,0 C8.35596316,0 8.47998598,0.249796162 8.6384348,0.700982857 L13.1033307,13.346369 C13.5064048,14.5478148 14.218681,14.5478148 15.06275,14.62906 C15.1936505,14.7690869 15.1936505,15.25917 15.06275,15.3991932 C14.2565645,15.3767297 13.4728339,15.3525175 12.579654,15.3525175 C11.7313096,15.3525175 10.5332775,15.3758554 9.72709194,15.3991932 C9.59704643,15.25917 9.59704643,14.7690869 9.72709194,14.62906 C10.7640729,14.549541 11.6624205,14.6342536 11.3385707,13.6730948 L10.0104558,9.72994797 L5.48012825,9.72994797 C4.95819888,9.72994797 4.82726112,9.82242866 4.71788608,10.1266797 L3.51985389,13.5088706 C3.18135635,14.4674289 4.2045818,14.5676926 5.02277551,14.62906 Z M9.66166024,8.74977808 L7.54977765,2.52043258 L7.50587149,2.52043258 L5.32424465,8.4394777 C5.23293768,8.69186695 5.38967635,8.74977808 5.87286718,8.74977808 L9.66166024,8.74977808 Z" id="path-19"></path>
    </defs>
    <g id="Page-1" stroke="none" stroke-width="1" fill="none" fill-rule="evenodd">
        <g id="principles-content-chrome">
            <g id="Rectangle-2">
                <use fill="black" fill-opacity="1" filter="url(#filter-2)" xlink:href="#path-1"></use>
                <use fill="#FFFFFF" fill-rule="evenodd" xlink:href="#path-1"></use>
            </g>
            <g id="Page-1" opacity="0.5" transform="translate(205.000000, 104.000000)">
                <g id="Group-3">
                    <mask id="mask-4" fill="white">
                        <use xlink:href="#path-3"></use>
                    </mask>
                    <g id="Clip-2"></g>
                    <polygon id="Fill-1" fill="#000000" mask="url(#mask-4)" points="-1.85885522 -1.6204684 24.2351744 -1.6204684 24.2351744 17.5080522 -1.85885522 17.5080522"></polygon>
                </g>
                <g id="Group-6" transform="translate(21.562721, 4.503198)">
                    <mask id="mask-6" fill="white">
                        <use xlink:href="#path-5"></use>
                    </mask>
                    <g id="Clip-5"></g>
                    <polygon id="Fill-4" fill="#000000" mask="url(#mask-6)" points="-1.75038358 -1.77400495 7.01981803 -1.77400495 7.01981803 12.8045967 -1.75038358 12.8045967"></polygon>
                </g>
                <g id="Group-9" transform="translate(28.254599, 4.503198)">
                    <mask id="mask-8" fill="white">
                        <use xlink:href="#path-7"></use>
                    </mask>
                    <g id="Clip-8"></g>
                    <polygon id="Fill-7" fill="#000000" mask="url(#mask-8)" points="-1.55847165 -1.77400495 12.763755 -1.77400495 12.763755 12.8046004 -1.55847165 12.8046004"></polygon>
                </g>
                <g id="Group-12" transform="translate(40.523044, 4.503198)">
                    <mask id="mask-10" fill="white">
                        <use xlink:href="#path-9"></use>
                    </mask>
                    <g id="Clip-11"></g>
                    <polygon id="Fill-10" fill="#000000" mask="url(#mask-10)" points="-1.58906097 -1.77400495 7.18112948 -1.77400495 7.18112948 12.8045967 -1.58906097 12.8045967"></polygon>
                </g>
                <g id="Group-15" transform="translate(47.586694, 4.503198)">
                    <mask id="mask-12" fill="white">
                        <use xlink:href="#path-11"></use>
                    </mask>
                    <g id="Clip-14"></g>
                    <polygon id="Fill-13" fill="#000000" mask="url(#mask-12)" points="-1.7689238 -1.77400495 10.5185181 -1.77400495 10.5185181 12.8045967 -1.7689238 12.8045967"></polygon>
                </g>
                <g id="Group-18" transform="translate(57.624512, 4.503198)">
                    <mask id="mask-14" fill="white">
                        <use xlink:href="#path-13"></use>
                    </mask>
                    <g id="Clip-17"></g>
                    <polygon id="Fill-16" fill="#000000" mask="url(#mask-14)" points="-1.60854178 -1.77400495 10.961632 -1.77400495 10.961632 12.8504055 -1.60854178 12.8504055"></polygon>
                </g>
                <g id="Group-21" transform="translate(68.405872, 4.503198)">
                    <mask id="mask-16" fill="white">
                        <use xlink:href="#path-15"></use>
                    </mask>
                    <g id="Clip-20"></g>
                    <polygon id="Fill-19" fill="#000000" mask="url(#mask-16)" points="-1.68178067 -1.77400495 12.8691149 -1.77400495 12.8691149 12.8045967 -1.68178067 12.8045967"></polygon>
                </g>
                <g id="Group-24" transform="translate(81.046088, 4.503198)">
                    <mask id="mask-18" fill="white">
                        <use xlink:href="#path-17"></use>
                    </mask>
                    <g id="Clip-23"></g>
                    <polygon id="Fill-22" fill="#000000" mask="url(#mask-18)" points="-1.82918789 -1.77400495 6.94037055 -1.77400495 6.94037055 12.8045967 -1.82918789 12.8045967"></polygon>
                </g>
                <g id="Group-27" transform="translate(86.994424, 0.000000)">
                    <mask id="mask-20" fill="white">
                        <use xlink:href="#path-19"></use>
                    </mask>
                    <g id="Clip-26"></g>
                    <polygon id="Fill-25" fill="#000000" mask="url(#mask-20)" points="-1.65858216 -1.87633262 17.0197899 -1.87633262 17.0197899 17.2755258 -1.65858216 17.2755258"></polygon>
                </g>
            </g>
            <text id="Dieter-Rams" font-family="Charter-Bold, Charter" font-size="26" font-weight="bold" letter-spacing="-0.00063176488" fill="#222222">
                <tspan x="242" y="202">Dieter Rams</tspan>
            </text>
            <text id="German-professor-eme" font-family="Lato-Regular, Lato" font-size="13" font-weight="normal" letter-spacing="-0.00031588244" fill="#222222">
                <tspan x="241" y="226">German professor emeritus and industrial designer</tspan>
            </text>
            <text id="H.C.-Dieter-Rams-(bo" font-family="Lato-Regular, Lato" font-size="13" font-weight="normal" line-spacing="21" letter-spacing="-0.00031588244">
                <tspan x="242" y="284" fill="#222222">H.C. Dieter Rams (born 20 May 1932 in Wiesbaden, </tspan>
                <tspan x="242" y="305" fill="#222222">Hessen) is a </tspan>
                <tspan x="310.947894" y="305" fill="#3366CC">German</tspan>
                <tspan x="357.030998" y="305" fill="#222222"> professor emeritus </tspan>
                <tspan x="469.721681" y="305" fill="#3366CC">[1]</tspan>
                <tspan x="485.060733" y="305" fill="#222222"> and industrial </tspan>
                <tspan x="242" y="326" fill="#222222">designer closely associated with the consumer products </tspan>
                <tspan x="242" y="347" fill="#222222">company </tspan>
                <tspan x="295.921473" y="347" fill="#3366CC">Braun</tspan>
                <tspan x="330.369894" y="347" fill="#222222"> and the Functionalist school of </tspan>
                <tspan x="507.588469" y="347" fill="#37393D">industrial </tspan>
                <tspan x="242" y="368" fill="#37393D">design.</tspan>
                <tspan x="281.673789" y="368" fill="#222222"> His unobtrusive approach and belief in “less but </tspan>
                <tspan x="242" y="389" fill="#222222">better” design generated a timeless quality in his products </tspan>
                <tspan x="242" y="410" fill="#222222">and have influenced the design of many products, which </tspan>
                <tspan x="242" y="431" fill="#222222">also secured Rams worldwide recognition and appreciation.</tspan>
            </text>
            <path d="M245.5,250 L263.61077,250" id="Line" stroke="#000000" stroke-width="2" stroke-linecap="square"></path>
            <path d="M596.801632,118.662153 C594.175977,120.604019 590.461574,120.499729 587.940432,118.229686 C585.060943,115.63698 584.828455,111.200883 587.421161,108.321393 C590.013867,105.441894 594.449963,105.209404 597.329454,107.802115 C600.03805,110.240939 600.404512,114.310827 598.280565,117.181956 L603.619049,122.520433 L602.139484,124 L596.801632,118.662153 Z M597.04494,116.986677 L597.04494,116.986677 C599.237945,114.551105 599.041298,110.798904 596.605722,108.605907 C594.170147,106.41291 590.417957,106.609549 588.224952,109.045125 C586.031954,111.4807 586.228602,115.232901 588.66417,117.425896 C591.099746,119.618894 594.851943,119.422249 597.04494,116.986677 Z" id="Page-1" fill="#000000" opacity="0.5"></path>
        </g>
    </g>
</svg>