<?xml version="1.0" encoding="UTF-8"?>
<svg xmlns="http://www.w3.org/2000/svg" xmlns:xlink="http://www.w3.org/1999/xlink" width="817" height="424" viewBox="0 0 817 424" style="background:#eaecf0">
	<defs>
		<rect id="b" width="408" height="529" x="205" y="135" rx="2"/>
		<filter id="a" width="101.7%" height="101.3%" x="-.9%" y="-.5%" filterUnits="objectBoundingBox">
			<feOffset dy="1" in="SourceAlpha" result="shadowOffsetOuter1"/>
			<feGaussianBlur in="shadowOffsetOuter1" result="shadowBlurOuter1" stdDeviation="1"/>
			<feColorMatrix in="shadowBlurOuter1" values="0 0 0 0 0 0 0 0 0 0 0 0 0 0 0 0 0 0 0.0939764493 0"/>
		</filter>
		<path id="c" d="M12.544.256c.806.022 1.22.047 1.72.047.501 0 1.046-.024 1.59-.047.13.139.13.63 0 .77-1.133.187-1.606 1.075-2.141 2.17L12.12 6.44l2.785 6.18h.1l4.136-9.589c.516-1.263.48-1.89-.936-2.006-.13-.14-.13-.63 0-.77 1.023.022 1.655.047 2.156.047.501 0 1.045-.024 1.916-.047.131.139.131.63 0 .77-1.437.187-1.687 1.078-2.14 2.17l-5.155 11.899c-.152.35-.283.537-.522.537-.218 0-.386-.19-.501-.537l-2.93-6.773-3.211 6.773c-.13.35-.283.537-.523.537-.217 0-.37-.187-.5-.537L2.059 3.15C1.395 1.493 1.35 1.144.109 1.027-.02.887-.042.397.09.257c1.02.022 1.391.046 2.261.046.85 0 1.394-.023 2.418-.046.13.139.13.63 0 .77-1.372.162-1.43.531-.884 1.866l3.987 9.73h.1l2.432-5.302L8.57 3.15c-.73-1.657-.904-1.983-1.84-2.123-.13-.14-.153-.63-.022-.77.697.022 1.067.046 1.938.046.849 0 1.198-.023 1.982-.046.13.139.13.63 0 .77-.915.14-.828.536-.231 1.866l1.071 2.357.096.105 1.154-2.322c.673-1.353.762-1.866-.174-2.006-.131-.142-.131-.632 0-.771z"/>
		<path id="e" d="M3.494 8.035c0 1.936.24 2.03 1.568 2.123.13.14.13.63 0 .77-.936-.022-1.48-.046-2.417-.046-.958 0-1.524.023-2.439.046-.13-.14-.13-.63 0-.77 1.328-.117 1.568-.187 1.568-2.123v-5.04C1.774 1.06 1.535.965.206.872c-.13-.14-.13-.63 0-.77.936.024 1.48.047 2.418.047.957 0 1.524-.022 2.439-.047.13.14.13.63 0 .77-1.328.117-1.568.187-1.568 2.123v5.04z"/>
		<path id="g" d="M.398.873c-.13-.14-.13-.63 0-.77.915.024 1.48.047 2.44.047.805 0 1.153-.023 2.09-.047.13.14.13.63 0 .77-1.046.117-1.242.187-1.242 2.123v2.076c.719 0 1.357-.368 2.287-1.493C7.65 1.549 7.868.942 6.779.872c-.13-.14-.13-.63 0-.77.936.024 1.764.047 2.395.047.566 0 .937-.022 1.525-.047.13.14.13.63 0 .77-.87.047-1.67.166-2.33.98l-1.873 2.31c-.37.42-.501.677-.501.864 0 .14.087.256.196.396l3.223 4.06c.285.355.806.606 1.393.676.13.14.13.607 0 .747 0 0-1.067-.023-1.677-.023-.566 0-1.11.023-1.35.046v-.326c0-.304-.022-.56-.326-.933l-2.417-3.22c-.327-.467-.872-.584-1.35-.584v2.17c0 1.936.196 2.006 1.24 2.123.13.14.13.63 0 .77-.936-.022-1.285-.046-2.09-.046-.959 0-1.524.023-2.44.046-.13-.14-.13-.63 0-.77 1.329-.117 1.568-.187 1.568-2.123v-5.04C1.965 1.06 1.726.99.398.873z"/>
		<path id="i" d="M3.656 8.035c0 1.936.24 2.03 1.567 2.123.131.14.131.63 0 .77-.936-.022-1.48-.046-2.417-.046-.958 0-1.524.023-2.439.046-.13-.14-.13-.63 0-.77 1.328-.117 1.568-.187 1.568-2.123v-5.04c0-1.936-.24-2.03-1.568-2.123-.13-.14-.13-.63 0-.77.937.024 1.48.047 2.418.047.958 0 1.524-.022 2.44-.047.13.14.13.63 0 .77-1.329.117-1.568.187-1.568 2.123v5.04h-.001z"/>
		<path id="k" d="M5.045 10.158c.13.14.13.63 0 .77-.937-.022-1.482-.046-2.418-.046-.957 0-1.524.023-2.439.046-.13-.14-.13-.63 0-.77 1.328-.117 1.568-.187 1.568-2.123v-5.04c0-1.936-.24-2.03-1.568-2.123-.13-.14-.13-.63 0-.77.936.024 1.48.047 2.417.047.588 0 1.503-.047 2.308-.047C8.005.102 8.66 1.736 8.66 2.95c0 1.4-.893 3.64-3.812 3.64-.545 0-.98-.093-1.371-.28v1.726c0 1.936.239 2.03 1.568 2.123zM3.477 5.562c.434.186.979.256 1.415.256 1.307 0 1.873-.907 1.873-2.59 0-1.636-.698-2.356-1.982-2.356-1.046 0-1.306.303-1.306 1.05v3.64z"/>
		<path id="m" d="M3.637 5.677v3.5c0 .444.305 1.027.697 1.027h1.809c1.37 0 2.003-1.167 2.35-2.543.24-.07.414-.022.61.093-.153.98-.392 2.263-.653 3.22 0 0-1.438-.047-2.308-.047H2.787s-1.524.024-2.44.047c-.13-.14-.13-.63 0-.77 1.33-.117 1.568-.187 1.568-2.123v-5.04c0-1.936-.238-2.03-1.567-2.123-.13-.14-.13-.63 0-.77.937.023 2.417.047 2.417.047h4.508c.436 0 .588-.047.893-.093.044 0 .065.023.065.07.043.163.305 1.983.392 2.777-.174.092-.37.14-.588.116-.392-1.33-.675-2.1-2.026-2.1H4.332c-.413 0-.697.257-.697.653v3.313h1.241c1.525-.022 1.459-.256 1.503-1.306.109-.117.5-.117.61 0-.022.583-.044 1.003-.044 1.656 0 .654.02 1.027.043 1.704-.108.117-.5.117-.61 0-.043-.863.044-1.307-1.502-1.307H3.637z"/>
		<path id="o" d="M5.588.103c3.637 0 5.422 2.427 5.422 5.53 0 4.083-2.7 5.295-5.117 5.295-1.742 0-2.527-.046-3.179-.046-.958 0-1.524.023-2.439.046-.13-.14-.13-.63 0-.77 1.33-.117 1.568-.187 1.568-2.123v-5.04C1.843 1.06 1.604.965.275.872c-.13-.14-.13-.63 0-.77.936.024 1.48.047 2.418.047.413 0 2.329-.046 2.895-.046zM5.37 10.16c2.395 0 3.746-.863 3.746-4.129 0-2.427-.5-5.157-4.16-5.157-.849 0-1.392.14-1.392.724V9.11c0 .653.151 1.05 1.806 1.05z"/>
		<path id="q" d="M3.416 8.035c0 1.936.239 2.03 1.568 2.123.13.14.13.63 0 .77-.937-.022-1.481-.046-2.418-.046-.958 0-1.524.023-2.439.046-.13-.14-.13-.63 0-.77 1.33-.117 1.568-.187 1.568-2.123v-5.04C1.695 1.06 1.456.965.127.872c-.13-.14-.13-.63 0-.77.937.024 1.48.047 2.418.047.958 0 1.524-.022 2.439-.047.13.14.13.63 0 .77-1.329.117-1.568.187-1.568 2.123v5.04z"/>
		<path id="s" d="M5.023 14.63c.13.14.13.63 0 .77-.806-.023-1.894-.047-2.787-.047-.849 0-1.132.023-1.938.046-.13-.14-.13-.63 0-.77.947-.07 1.603-.214 2.178-1.656L7.316.833C7.564.207 7.73 0 8.051 0c.305 0 .429.25.587.701l4.465 12.645c.403 1.202 1.116 1.202 1.96 1.283.13.14.13.63 0 .77-.806-.022-1.59-.046-2.483-.046-.849 0-2.047.023-2.853.046-.13-.14-.13-.63 0-.77 1.037-.08 1.935.005 1.612-.956L10.01 9.73H5.48c-.522 0-.653.092-.762.397L3.52 13.509c-.339.958.685 1.059 1.503 1.12zm4.639-5.88L7.55 2.52h-.044L5.324 8.44c-.091.252.066.31.549.31h3.789z"/>
	</defs>
	<g fill="none" fill-rule="evenodd">
		<use fill="#000" filter="url(#a)" xlink:href="#b"/>
		<use fill="#FFF" xlink:href="#b"/>
		<g opacity=".5">
			<g transform="translate(205 104)">
				<mask id="d" fill="#fff">
					<use xlink:href="#c"/>
				</mask>
				<path fill="#000" d="M-1.859-1.62h26.094v19.128H-1.859z" mask="url(#d)"/>
			</g>
			<g transform="translate(226.563 108.503)">
				<mask id="f" fill="#fff">
					<use xlink:href="#e"/>
				</mask>
				<path fill="#000" d="M-1.75-1.774h8.77v14.579h-8.77z" mask="url(#f)"/>
			</g>
			<g transform="translate(233.255 108.503)">
				<mask id="h" fill="#fff">
					<use xlink:href="#g"/>
				</mask>
				<path fill="#000" d="M-1.558-1.774h14.322v14.579H-1.558z" mask="url(#h)"/>
			</g>
			<g transform="translate(245.523 108.503)">
				<mask id="j" fill="#fff">
					<use xlink:href="#i"/>
				</mask>
				<path fill="#000" d="M-1.59-1.774h8.771v14.579h-8.77z" mask="url(#j)"/>
			</g>
			<g transform="translate(252.587 108.503)">
				<mask id="l" fill="#fff">
					<use xlink:href="#k"/>
				</mask>
				<path fill="#000" d="M-1.769-1.774H10.52v14.579H-1.77z" mask="url(#l)"/>
			</g>
			<g transform="translate(262.625 108.503)">
				<mask id="n" fill="#fff">
					<use xlink:href="#m"/>
				</mask>
				<path fill="#000" d="M-1.609-1.774h12.57V12.85h-12.57z" mask="url(#n)"/>
			</g>
			<g transform="translate(273.406 108.503)">
				<mask id="p" fill="#fff">
					<use xlink:href="#o"/>
				</mask>
				<path fill="#000" d="M-1.682-1.774H12.87v14.579H-1.68z" mask="url(#p)"/>
			</g>
			<g transform="translate(286.046 108.503)">
				<mask id="r" fill="#fff">
					<use xlink:href="#q"/>
				</mask>
				<path fill="#000" d="M-1.83-1.774h8.77v14.579h-8.77z" mask="url(#r)"/>
			</g>
			<g transform="translate(291.994 104)">
				<mask id="t" fill="#fff">
					<use xlink:href="#s"/>
				</mask>
				<path fill="#000" d="M-1.659-1.876H17.02v19.152H-1.66z" mask="url(#t)"/>
			</g>
		</g>
		<text fill="#222" font-family="Charter-Bold, Charter" font-size="26" font-weight="bold" letter-spacing="-.001">
			<tspan x="242" y="202">Dieter Rams</tspan>
		</text>
		<text fill="#222" font-family="Lato-Regular, Lato, sans-serif" font-size="13" letter-spacing="0">
			<tspan x="241" y="226">German professor emeritus and industrial designer</tspan>
		</text>
		<text font-family="Lato-Regular, Lato, sans-serif" font-size="13" letter-spacing="0">
			<tspan x="242" y="284" fill="#222">H.C. Dieter Rams (born 20 May 1932 in Wiesbaden, </tspan> <tspan x="242" y="305" fill="#222">Hessen) is a </tspan> <tspan x="310.948" y="305" fill="#36C">German</tspan> <tspan x="357.031" y="305" fill="#222"> professor emeritus </tspan> <tspan x="469.722" y="305" fill="#36C">[1]</tspan> <tspan x="485.061" y="305" fill="#222"> and industrial </tspan> <tspan x="242" y="326" fill="#222">designer closely associated with the consumer products </tspan> <tspan x="242" y="347" fill="#222">company </tspan> <tspan x="295.921" y="347" fill="#36C">Braun</tspan> <tspan x="330.37" y="347" fill="#222"> and the Functionalist school of </tspan> <tspan x="507.588" y="347" fill="#37393D">industrial </tspan> <tspan x="242" y="368" fill="#37393D">design.</tspan> <tspan x="281.674" y="368" fill="#222"> His unobtrusive approach and belief in “less but </tspan> <tspan x="242" y="389" fill="#222">better” design generated a timeless quality in his products </tspan> <tspan x="242" y="410" fill="#222">and have influenced the design of many products, which </tspan> <tspan x="242" y="431" fill="#222">also secured Rams worldwide recognition and appreciation.</tspan>
		</text>
		<path stroke="#000" stroke-linecap="square" stroke-width="2" d="M245.5 250h18.11"/>
		<path fill="#000" d="M596.802 118.662a7.016 7.016 0 1 1 1.479-1.48l5.338 5.338-1.48 1.48-5.337-5.338zm.243-1.675a5.934 5.934 0 1 0-8.82-7.942 5.934 5.934 0 0 0 8.82 7.942z" opacity=".5"/>
	</g>
</svg>
