<?xml version="1.0" encoding="UTF-8"?>
<svg xmlns="http://www.w3.org/2000/svg" xmlns:xlink="http://www.w3.org/1999/xlink" style="background:#eaecf0" width="817" height="424" viewBox="0 0 817 424">
	<title>
		principles-paper-ink
	</title>
	<defs>
		<filter id="a" width="116.2%" height="112.5%" x="-8.1%" y="-4.3%" filterUnits="objectBoundingBox">
			<feOffset dy="6" in="SourceAlpha" result="shadowOffsetOuter1"/>
			<feGaussianBlur in="shadowOffsetOuter1" result="shadowBlurOuter1" stdDeviation="5.5"/>
			<feColorMatrix in="shadowBlurOuter1" values="0 0 0 0 0 0 0 0 0 0 0 0 0 0 0 0 0 0 0.209578804 0"/>
		</filter>
		<path id="b" d="M88 57h240v311H88z"/>
	</defs>
	<g fill="none" fill-rule="evenodd">
		<use fill="#000" filter="url(#a)" xlink:href="#b"/>
		<use fill="#FFF" xlink:href="#b"/>
		<path fill="#000" d="M518.102 239.742a.94.94 0 01-.196.577c-.131.174-.275.262-.432.262-1.292.122-2.348.537-3.168 1.246-.82.708-1.667 2.058-2.54 4.052l-13.353 30.134c-.087.28-.332.42-.733.42-.314 0-.559-.14-.733-.42l-7.488-15.683-8.614 15.683c-.175.28-.42.42-.734.42-.384 0-.637-.14-.759-.42l-13.117-30.134c-.82-1.871-1.685-3.178-2.592-3.921-.908-.743-2.173-1.202-3.797-1.377-.14 0-.27-.074-.392-.223a.782.782 0 01-.184-.512c0-.49.14-.734.42-.734 1.169 0 2.39.053 3.665.157a38.17 38.17 0 003.351.158 53.15 53.15 0 003.77-.158 59.264 59.264 0 014.032-.157c.28 0 .42.245.42.734s-.088.735-.262.735c-1.17.087-2.09.384-2.763.892s-1.008 1.171-1.008 1.993c0 .42.14.944.42 1.573l10.839 24.523 6.153-11.645-5.734-12.038c-1.03-2.15-1.877-3.537-2.54-4.157-.663-.621-1.667-1.001-3.011-1.141-.122 0-.24-.074-.354-.223a.82.82 0 01-.17-.512c0-.49.122-.734.367-.734 1.17 0 2.243.053 3.22.157a27.25 27.25 0 003.011.158c1.048 0 2.156-.053 3.325-.158a41.025 41.025 0 013.561-.157c.28 0 .42.245.42.734s-.088.735-.263.735c-2.339.157-3.508.822-3.508 1.993 0 .525.27 1.338.812 2.44l3.796 7.71 3.77-7.055c.524-.997.786-1.836.786-2.518 0-1.609-1.17-2.465-3.509-2.57-.21 0-.314-.245-.314-.735 0-.174.052-.34.157-.498.105-.157.21-.236.314-.236.838 0 1.868.053 3.09.157 1.17.105 2.13.158 2.88.158.541 0 1.335-.044 2.383-.131 1.326-.123 2.435-.184 3.325-.184.21 0 .314.21.314.63 0 .56-.192.839-.576.839-1.362.14-2.457.516-3.286 1.128-.83.612-1.863 2.002-3.103 4.17l-5.027 9.31 6.808 13.9 10.054-23.42c.349-.857.524-1.644.524-2.36 0-1.714-1.17-2.623-3.509-2.728-.21 0-.314-.245-.314-.735s.157-.734.471-.734c.855 0 1.868.053 3.037.157 1.083.105 1.99.158 2.723.158.768 0 1.659-.053 2.67-.158a28.639 28.639 0 012.829-.157c.244 0 .366.21.366.63z"/>
	</g>
</svg>
