<?xml version="1.0" encoding="UTF-8"?>
<svg xmlns="http://www.w3.org/2000/svg" xmlns:xlink="http://www.w3.org/1999/xlink" width="817" height="424" viewBox="0 0 817 424" style="background:#eaecf0">
	<title>
		principles-content-chrome
	</title>
	<defs>
		<path id="path-3" d="M12.544.256c.806.022 1.22.047 1.72.047.501 0 1.046-.024 1.59-.047.13.139.13.63 0 .77-1.133.187-1.606 1.075-2.141 2.17L12.12 6.44l2.785 6.18h.1l4.136-9.589c.516-1.263.48-1.89-.936-2.006-.13-.14-.13-.63 0-.77 1.023.022 1.655.047 2.156.047.501 0 1.045-.024 1.916-.047.131.139.131.63 0 .77-1.437.187-1.687 1.078-2.14 2.17l-5.155 11.899c-.152.35-.283.537-.522.537-.218 0-.386-.19-.501-.537l-2.93-6.773-3.211 6.773c-.13.35-.283.537-.523.537-.217 0-.37-.187-.5-.537L2.059 3.15C1.395 1.493 1.35 1.144.109 1.027-.02.887-.042.397.09.257c1.02.022 1.391.046 2.261.046.85 0 1.394-.023 2.418-.046.13.139.13.63 0 .77-1.372.162-1.43.531-.884 1.866l3.987 9.73h.1l2.432-5.302L8.57 3.15c-.73-1.657-.904-1.983-1.84-2.123-.13-.14-.153-.63-.022-.77.697.022 1.067.046 1.938.046.849 0 1.198-.023 1.982-.046.13.139.13.63 0 .77-.915.14-.828.536-.231 1.866l1.071 2.357.096.105 1.154-2.322c.673-1.353.762-1.866-.174-2.006-.131-.142-.131-.632 0-.771z"/>
		<path id="path-5" d="M3.494 8.035c0 1.936.24 2.03 1.568 2.123.13.14.13.63 0 .77-.936-.022-1.48-.046-2.417-.046-.958 0-1.524.023-2.439.046-.13-.14-.13-.63 0-.77 1.328-.117 1.568-.187 1.568-2.123v-5.04C1.774 1.06 1.535.965.206.872c-.13-.14-.13-.63 0-.77.936.024 1.48.047 2.418.047.957 0 1.524-.022 2.439-.047.13.14.13.63 0 .77-1.328.117-1.568.187-1.568 2.123v5.04z"/>
		<path id="path-7" d="M.398.873c-.13-.14-.13-.63 0-.77.915.024 1.48.047 2.44.047.805 0 1.153-.023 2.09-.047.13.14.13.63 0 .77-1.046.117-1.242.187-1.242 2.123v2.076c.719 0 1.357-.368 2.287-1.493C7.65 1.549 7.868.942 6.779.872c-.13-.14-.13-.63 0-.77.936.024 1.764.047 2.395.047.566 0 .937-.022 1.525-.047.13.14.13.63 0 .77-.87.047-1.67.166-2.33.98l-1.873 2.31c-.37.42-.501.677-.501.864 0 .14.087.256.196.396l3.223 4.06c.285.355.806.606 1.393.676.13.14.13.607 0 .747 0 0-1.067-.023-1.677-.023-.566 0-1.11.023-1.35.046v-.326c0-.304-.022-.56-.326-.933l-2.417-3.22c-.327-.467-.872-.584-1.35-.584v2.17c0 1.936.196 2.006 1.24 2.123.13.14.13.63 0 .77-.936-.022-1.285-.046-2.09-.046-.959 0-1.524.023-2.44.046-.13-.14-.13-.63 0-.77 1.329-.117 1.568-.187 1.568-2.123v-5.04C1.965 1.06 1.726.99.398.873z"/>
		<path id="path-9" d="M3.656 8.035c0 1.936.24 2.03 1.567 2.123.131.14.131.63 0 .77-.936-.022-1.48-.046-2.417-.046-.958 0-1.524.023-2.439.046-.13-.14-.13-.63 0-.77 1.328-.117 1.568-.187 1.568-2.123v-5.04c0-1.936-.24-2.03-1.568-2.123-.13-.14-.13-.63 0-.77.937.024 1.48.047 2.418.047.958 0 1.524-.022 2.44-.047.13.14.13.63 0 .77-1.329.117-1.568.187-1.568 2.123v5.04h-.001z"/>
		<path id="path-11" d="M5.045 10.158c.13.14.13.63 0 .77-.937-.022-1.482-.046-2.418-.046-.957 0-1.524.023-2.439.046-.13-.14-.13-.63 0-.77 1.328-.117 1.568-.187 1.568-2.123v-5.04c0-1.936-.24-2.03-1.568-2.123-.13-.14-.13-.63 0-.77.936.024 1.48.047 2.417.047.588 0 1.503-.047 2.308-.047C8.005.102 8.66 1.736 8.66 2.95c0 1.4-.893 3.64-3.812 3.64-.545 0-.98-.093-1.371-.28v1.726c0 1.936.239 2.03 1.568 2.123zM3.477 5.562c.434.186.979.256 1.415.256 1.307 0 1.873-.907 1.873-2.59 0-1.636-.698-2.356-1.982-2.356-1.046 0-1.306.303-1.306 1.05v3.64z"/>
		<path id="path-13" d="M3.637 5.677v3.5c0 .444.305 1.027.697 1.027h1.809c1.37 0 2.003-1.167 2.35-2.543.24-.07.414-.022.61.093-.153.98-.392 2.263-.653 3.22 0 0-1.438-.047-2.308-.047H2.787s-1.524.024-2.44.047c-.13-.14-.13-.63 0-.77 1.33-.117 1.568-.187 1.568-2.123v-5.04c0-1.936-.238-2.03-1.567-2.123-.13-.14-.13-.63 0-.77.937.023 2.417.047 2.417.047h4.508c.436 0 .588-.047.893-.093.044 0 .065.023.065.07.043.163.305 1.983.392 2.777-.174.092-.37.14-.588.116-.392-1.33-.675-2.1-2.026-2.1H4.332c-.413 0-.697.257-.697.653v3.313h1.241c1.525-.022 1.459-.256 1.503-1.306.109-.117.5-.117.61 0-.022.583-.044 1.003-.044 1.656 0 .654.02 1.027.043 1.704-.108.117-.5.117-.61 0-.043-.863.044-1.307-1.502-1.307H3.637z"/>
		<path id="path-15" d="M5.588.103c3.637 0 5.422 2.427 5.422 5.53 0 4.083-2.7 5.295-5.117 5.295-1.742 0-2.527-.046-3.179-.046-.958 0-1.524.023-2.439.046-.13-.14-.13-.63 0-.77 1.33-.117 1.568-.187 1.568-2.123v-5.04C1.843 1.06 1.604.965.275.872c-.13-.14-.13-.63 0-.77.936.024 1.48.047 2.418.047.413 0 2.329-.046 2.895-.046zM5.37 10.16c2.395 0 3.746-.863 3.746-4.129 0-2.427-.5-5.157-4.16-5.157-.849 0-1.392.14-1.392.724V9.11c0 .653.151 1.05 1.806 1.05z"/>
		<path id="path-17" d="M3.416 8.035c0 1.936.239 2.03 1.568 2.123.13.14.13.63 0 .77-.937-.022-1.481-.046-2.418-.046-.958 0-1.524.023-2.439.046-.13-.14-.13-.63 0-.77 1.33-.117 1.568-.187 1.568-2.123v-5.04C1.695 1.06 1.456.965.127.872c-.13-.14-.13-.63 0-.77.937.024 1.48.047 2.418.047.958 0 1.524-.022 2.439-.047.13.14.13.63 0 .77-1.329.117-1.568.187-1.568 2.123v5.04z"/>
		<path id="path-19" d="M5.023 14.63c.13.14.13.63 0 .77-.806-.023-1.894-.047-2.787-.047-.849 0-1.132.023-1.938.046-.13-.14-.13-.63 0-.77.947-.07 1.603-.214 2.178-1.656L7.316.833C7.564.207 7.73 0 8.051 0c.305 0 .429.25.587.701l4.465 12.645c.403 1.202 1.116 1.202 1.96 1.283.13.14.13.63 0 .77-.806-.022-1.59-.046-2.483-.046-.849 0-2.047.023-2.853.046-.13-.14-.13-.63 0-.77 1.037-.08 1.935.005 1.612-.956L10.01 9.73H5.48c-.522 0-.653.092-.762.397L3.52 13.509c-.339.958.685 1.059 1.503 1.12zm4.639-5.88L7.55 2.52h-.044L5.324 8.44c-.091.252.066.31.549.31h3.789z"/>
		<filter id="filter-2" width="101.7%" height="101.3%" x="-.9%" y="-.5%" filterUnits="objectBoundingBox">
			<feOffset dy="1" in="SourceAlpha" result="shadowOffsetOuter1"/>
			<feGaussianBlur in="shadowOffsetOuter1" result="shadowBlurOuter1" stdDeviation="1"/>
			<feColorMatrix in="shadowBlurOuter1" values="0 0 0 0 0 0 0 0 0 0 0 0 0 0 0 0 0 0 0.0939764493 0"/>
		</filter>
		<rect id="path-1" width="408" height="529" x="205" y="135" rx="2"/>
	</defs>
	<g id="principles-content-chrome" fill="none" fill-rule="evenodd" stroke="none" stroke-width="1">
		<path fill="#EAECF0" d="M0 0h817v424H0z"/>
		<g id="Rectangle-2">
			<use fill="#000" filter="url(#filter-2)" xlink:href="#path-1"/>
			<use fill="#FFF" xlink:href="#path-1"/>
		</g>
		<g id="Page-1" opacity=".72" transform="translate(205 104)">
			<g id="Group-3">
				<mask id="mask-4" fill="#fff">
					<use xlink:href="#path-3"/>
				</mask>
				<path id="Fill-1" fill="#000" d="M-1.859-1.62h26.094v19.128H-1.859z" mask="url(#mask-4)"/>
			</g>
			<g id="Group-6" transform="translate(21.563 4.503)">
				<mask id="mask-6" fill="#fff">
					<use xlink:href="#path-5"/>
				</mask>
				<path id="Fill-4" fill="#000" d="M-1.75-1.774h8.77v14.579h-8.77z" mask="url(#mask-6)"/>
			</g>
			<g id="Group-9" transform="translate(28.255 4.503)">
				<mask id="mask-8" fill="#fff">
					<use xlink:href="#path-7"/>
				</mask>
				<path id="Fill-7" fill="#000" d="M-1.558-1.774h14.322v14.579H-1.558z" mask="url(#mask-8)"/>
			</g>
			<g id="Group-12" transform="translate(40.523 4.503)">
				<mask id="mask-10" fill="#fff">
					<use xlink:href="#path-9"/>
				</mask>
				<path id="Fill-10" fill="#000" d="M-1.589-1.774h8.77v14.579h-8.77z" mask="url(#mask-10)"/>
			</g>
			<g id="Group-15" transform="translate(47.587 4.503)">
				<mask id="mask-12" fill="#fff">
					<use xlink:href="#path-11"/>
				</mask>
				<path id="Fill-13" fill="#000" d="M-1.769-1.774h12.288v14.579H-1.769z" mask="url(#mask-12)"/>
			</g>
			<g id="Group-18" transform="translate(57.625 4.503)">
				<mask id="mask-14" fill="#fff">
					<use xlink:href="#path-13"/>
				</mask>
				<path id="Fill-16" fill="#000" d="M-1.609-1.774h12.571V12.85H-1.609z" mask="url(#mask-14)"/>
			</g>
			<g id="Group-21" transform="translate(68.406 4.503)">
				<mask id="mask-16" fill="#fff">
					<use xlink:href="#path-15"/>
				</mask>
				<path id="Fill-19" fill="#000" d="M-1.682-1.774h14.551v14.579H-1.682z" mask="url(#mask-16)"/>
			</g>
			<g id="Group-24" transform="translate(81.046 4.503)">
				<mask id="mask-18" fill="#fff">
					<use xlink:href="#path-17"/>
				</mask>
				<path id="Fill-22" fill="#000" d="M-1.829-1.774H6.94v14.579h-8.769z" mask="url(#mask-18)"/>
			</g>
			<g id="Group-27" transform="translate(86.994)">
				<mask id="mask-20" fill="#fff">
					<use xlink:href="#path-19"/>
				</mask>
				<path id="Fill-25" fill="#000" d="M-1.659-1.876H17.02v19.152H-1.659z" mask="url(#mask-20)"/>
			</g>
		</g>
		<text id="Dieter-Rams" fill="#202122" font-family="Charter-Bold, Charter" font-size="26" font-weight="bold" letter-spacing="-.001">
			<tspan x="242" y="202">Dieter Rams</tspan>
		</text>
		<text id="German-professor-eme" fill="#202122" font-family="Lato-Regular, Lato" font-size="13" font-weight="normal" letter-spacing="0">
			<tspan x="241" y="226">German professor emeritus and industrial designer</tspan>
		</text>
		<text id="H.C.-Dieter-Rams-(bo" font-family="Lato-Regular, Lato" font-size="13" font-weight="normal" letter-spacing="0">
			<tspan x="242" y="284" fill="#202122">H.C. Dieter Rams (born 20 May 1932 in Wiesbaden, </tspan> <tspan x="242" y="305" fill="#202122">Hessen) is a </tspan> <tspan x="312.397" y="305" fill="#36C">German</tspan> <tspan x="357.817" y="305" fill="#202122"> professor emeritus </tspan> <tspan x="470.879" y="305" fill="#36C">[1]</tspan> <tspan x="486.374" y="305" fill="#202122"> and industrial </tspan> <tspan x="242" y="326" fill="#202122">designer closely associated with the consumer products </tspan> <tspan x="242" y="347" fill="#202122">company </tspan> <tspan x="296.701" y="347" fill="#36C">Braun</tspan> <tspan x="330.552" y="347" fill="#202122"> and the Functionalist school of </tspan> <tspan x="511.872" y="347" fill="#202122">industrial </tspan> <tspan x="242" y="368" fill="#202122">design.</tspan> <tspan x="281.973" y="368" fill="#202122"> His unobtrusive approach and belief in “less but </tspan> <tspan x="242" y="389" fill="#202122">better” design generated a timeless quality in his products </tspan> <tspan x="242" y="410" fill="#202122">and have influenced the design of many products, which </tspan> <tspan x="242" y="431" fill="#202122">also secured Rams worldwide recognition and </tspan> <tspan x="242" y="452" fill="#202122">appreciation.</tspan>
		</text>
		<path id="Line" stroke="#000" stroke-linecap="square" stroke-width="2" d="M245.5 250h18.111"/>
		<g id="Icon-/-Search-/-!default" fill="#202122" fill-rule="nonzero" opacity=".72" transform="translate(585.619 106)">
			<path id="Shape" d="M6.75 11.7a4.947 4.947 0 004.95-4.95A4.947 4.947 0 006.75 1.8 4.947 4.947 0 001.8 6.75a4.947 4.947 0 004.95 4.95zm4.095.414A6.689 6.689 0 016.75 13.5 6.752 6.752 0 010 6.75 6.752 6.752 0 016.75 0a6.752 6.752 0 016.75 6.75 6.689 6.689 0 01-1.386 4.095l5.841 5.841-1.269 1.269-5.841-5.841z"/>
		</g>
	</g>
</svg>
