<?xml version="1.0" encoding="UTF-8"?>
<svg xmlns="http://www.w3.org/2000/svg" xmlns:xlink="http://www.w3.org/1999/xlink" width="449" height="336" viewBox="0 0 449 336">
	<title>
		button_groups_states
	</title>
	<defs>
		<path id="path-1" d="M321 168h56v32h-56z"/>
		<path id="path-2" d="M17.595 12.379a1.19 1.19 0 00-1.197-1.183 1.19 1.19 0 00-1.196 1.179v-.826c0-.857-.719-1.551-1.606-1.551-.886 0-1.592.694-1.592 1.55V10.35c0-.856-.728-1.55-1.611-1.55s-1.586.694-1.586 1.55V1.425C8.807.638 8.168 0 7.397 0c-.772 0-1.398.638-1.398 1.425v15.038l-3.603-4.659c-.346-.586-1.126-.779-1.742-.431-.617.348-.836 1.105-.49 1.691 0 0 2.817 4.369 3.967 6.093C5.281 20.882 7.17 23.01 7.17 24h7.989c0-1.672 2.443-4.283 2.443-6.798v-3.24l-.006-1.583z"/>
		<path id="path-4" d="M17.595 12.379a1.19 1.19 0 00-1.197-1.183 1.19 1.19 0 00-1.196 1.179v-.826c0-.857-.719-1.551-1.606-1.551-.886 0-1.592.694-1.592 1.55V10.35c0-.856-.728-1.55-1.611-1.55s-1.586.694-1.586 1.55V1.425C8.807.638 8.168 0 7.397 0c-.772 0-1.398.638-1.398 1.425v15.038l-3.603-4.659c-.346-.586-1.126-.779-1.742-.431-.617.348-.836 1.105-.49 1.691 0 0 2.817 4.369 3.967 6.093C5.281 20.882 7.17 23.01 7.17 24h7.989c0-1.672 2.443-4.283 2.443-6.798v-3.24l-.006-1.583z"/>
		<path id="path-6" d="M6.132 11.269l4.71.26c.72-.08.899-.568.397-1.085L.592.3C.09-.216.027-.049.026.671L0 14.984c-.001.72.467.947 1.04.505l2.742-3.272c.095-.074.208-.146.327-.218l2.97 7.517c.165.41.664.595 1.113.413.449-.18.68-.66.514-1.07l-2.972-7.518.398-.073z"/>
		<filter id="filter-3" width="173.6%" height="154.2%" x="-36.7%" y="-18.8%" filterUnits="objectBoundingBox">
			<feMorphology in="SourceAlpha" operator="dilate" radius="1" result="shadowSpreadOuter1"/>
			<feOffset dy="1" in="shadowSpreadOuter1" result="shadowOffsetOuter1"/>
			<feGaussianBlur in="shadowOffsetOuter1" result="shadowBlurOuter1" stdDeviation=".5"/>
			<feComposite in="shadowBlurOuter1" in2="SourceAlpha" operator="out" result="shadowBlurOuter1"/>
			<feColorMatrix in="shadowBlurOuter1" result="shadowMatrixOuter1" values="0 0 0 0 0 0 0 0 0 0 0 0 0 0 0 0 0 0 0.582908741 0"/>
			<feMorphology in="SourceAlpha" operator="dilate" radius="1" result="shadowSpreadOuter2"/>
			<feOffset dy="2" in="shadowSpreadOuter2" result="shadowOffsetOuter2"/>
			<feGaussianBlur in="shadowOffsetOuter2" result="shadowBlurOuter2" stdDeviation="1.5"/>
			<feComposite in="shadowBlurOuter2" in2="SourceAlpha" operator="out" result="shadowBlurOuter2"/>
			<feColorMatrix in="shadowBlurOuter2" result="shadowMatrixOuter2" values="0 0 0 0 0 0 0 0 0 0 0 0 0 0 0 0 0 0 0.25 0"/>
			<feMerge>
				<feMergeNode in="shadowMatrixOuter1"/>
				<feMergeNode in="shadowMatrixOuter2"/>
			</feMerge>
		</filter>
		<filter id="filter-5" width="173.6%" height="154.2%" x="-36.7%" y="-18.8%" filterUnits="objectBoundingBox">
			<feMorphology in="SourceAlpha" operator="dilate" radius="1" result="shadowSpreadOuter1"/>
			<feOffset dy="1" in="shadowSpreadOuter1" result="shadowOffsetOuter1"/>
			<feGaussianBlur in="shadowOffsetOuter1" result="shadowBlurOuter1" stdDeviation=".5"/>
			<feComposite in="shadowBlurOuter1" in2="SourceAlpha" operator="out" result="shadowBlurOuter1"/>
			<feColorMatrix in="shadowBlurOuter1" result="shadowMatrixOuter1" values="0 0 0 0 0 0 0 0 0 0 0 0 0 0 0 0 0 0 0.582908741 0"/>
			<feMorphology in="SourceAlpha" operator="dilate" radius="1" result="shadowSpreadOuter2"/>
			<feOffset dy="2" in="shadowSpreadOuter2" result="shadowOffsetOuter2"/>
			<feGaussianBlur in="shadowOffsetOuter2" result="shadowBlurOuter2" stdDeviation="1.5"/>
			<feComposite in="shadowBlurOuter2" in2="SourceAlpha" operator="out" result="shadowBlurOuter2"/>
			<feColorMatrix in="shadowBlurOuter2" result="shadowMatrixOuter2" values="0 0 0 0 0 0 0 0 0 0 0 0 0 0 0 0 0 0 0.25 0"/>
			<feMerge>
				<feMergeNode in="shadowMatrixOuter1"/>
				<feMergeNode in="shadowMatrixOuter2"/>
			</feMerge>
		</filter>
		<filter id="filter-7" width="212.6%" height="165%" x="-56.2%" y="-22.5%" filterUnits="objectBoundingBox">
			<feMorphology in="SourceAlpha" operator="dilate" radius="1" result="shadowSpreadOuter1"/>
			<feOffset dy="1" in="shadowSpreadOuter1" result="shadowOffsetOuter1"/>
			<feGaussianBlur in="shadowOffsetOuter1" result="shadowBlurOuter1" stdDeviation=".5"/>
			<feComposite in="shadowBlurOuter1" in2="SourceAlpha" operator="out" result="shadowBlurOuter1"/>
			<feColorMatrix in="shadowBlurOuter1" result="shadowMatrixOuter1" values="0 0 0 0 0 0 0 0 0 0 0 0 0 0 0 0 0 0 0.582908741 0"/>
			<feMorphology in="SourceAlpha" operator="dilate" radius="1" result="shadowSpreadOuter2"/>
			<feOffset dy="2" in="shadowSpreadOuter2" result="shadowOffsetOuter2"/>
			<feGaussianBlur in="shadowOffsetOuter2" result="shadowBlurOuter2" stdDeviation="1.5"/>
			<feComposite in="shadowBlurOuter2" in2="SourceAlpha" operator="out" result="shadowBlurOuter2"/>
			<feColorMatrix in="shadowBlurOuter2" result="shadowMatrixOuter2" values="0 0 0 0 0 0 0 0 0 0 0 0 0 0 0 0 0 0 0.25 0"/>
			<feMerge>
				<feMergeNode in="shadowMatrixOuter1"/>
				<feMergeNode in="shadowMatrixOuter2"/>
			</feMerge>
		</filter>
	</defs>
	<g id="Artboard-page" fill="none" fill-rule="evenodd" stroke="none" stroke-width="1">
		<g id="WikimediaUI-components_overview" transform="translate(-2547 -255)">
			<path fill="#FFF" d="M0 0h14100v3264H0z"/>
			<g id="BUTTON-GROUP" transform="translate(2547 143)">
				<g id="Button-Group-X" transform="translate(0 113)">
					<g id=":disabled" transform="translate(192 279.5)">
						<g id="Button-/-:disabled" transform="translate(0 1.5)">
							<rect id="bg" width="255" height="31" x=".5" y=".5" fill="#C8CCD1" stroke="#C8CCD1" rx="2"/>
						</g>
						<text id="Other" fill="#FFF" font-family="HelveticaNeue-Bold, Helvetica Neue" font-size="16" font-weight="bold">
							<tspan x="75" y="24.5">Other</tspan>
						</text>
						<text id="Pages" fill="#FFF" font-family="HelveticaNeue-Bold, Helvetica Neue" font-size="16" font-weight="bold">
							<tspan x="196" y="24.5">Pages</tspan>
						</text>
						<text id="More" fill="#FFF" font-family="HelveticaNeue-Bold, Helvetica Neue" font-size="16" font-weight="bold">
							<tspan x="13" y="24.5">More</tspan>
						</text>
						<path id="Path-114" stroke="#FFF" stroke-linecap="square" d="M63.5 1v33M129.5.5v33"/>
						<path id="Path-115" stroke="#FFF" stroke-linecap="square" d="M184.5 1.115v33"/>
					</g>
					<rect id="button-frame" width="255" height="31" x="192.5" y=".5" fill="#F8F9FA" stroke="#A2A9B1" rx="2"/>
					<text id="Talk" fill="#FFF" font-family="HelveticaNeue-Bold, Helvetica Neue" font-size="16" font-weight="bold">
						<tspan x="333" y="304">Talk</tspan>
					</text>
					<text id="More" fill="#202122" font-family="HelveticaNeue-Bold, Helvetica Neue" font-size="16" font-weight="bold">
						<tspan x="204.296" y="21">More</tspan>
					</text>
					<rect id="Combined-Shape" width="255" height="31" x="192.5" y="112.5" fill="#F8F9FA" stroke="#A2A9B1" rx="2"/>
					<rect id="button-frame" width="255" height="31" x="192.5" y="224.5" fill="#F8F9FA" stroke="#A2A9B1" rx="2"/>
					<path id="Separator" stroke="#C8CCD1" stroke-linecap="square" d="M268 56v32"/>
					<text id="Pages-3-Copy" fill="#202122" font-family="HelveticaNeue-Bold, Helvetica Neue" font-size="16" font-weight="bold">
						<tspan x="388.296" y="21">Pages</tspan>
					</text>
					<text id="Other" fill="#202122" font-family="HelveticaNeue-Bold, Helvetica Neue" font-size="16" font-weight="bold">
						<tspan x="267.012" y="21">Other</tspan>
					</text>
					<text id="Talk-Copy" fill="#202122" font-family="HelveticaNeue-Bold, Helvetica Neue" font-size="16" font-weight="bold">
						<tspan x="333.252" y="21">Talk</tspan>
					</text>
					<rect id="Mediawiki.Neutral.Normal-copy-14" width="255" height="31" x="192.5" y="56.5" fill="#F8F9FA" stroke="#A2A9B1" rx="2"/>
					<text id="More" fill="#202122" font-family="HelveticaNeue-Bold, Helvetica Neue" font-size="16" font-weight="bold">
						<tspan x="204.796" y="77">More</tspan>
					</text>
					<text id="Pages-7" fill="#202122" font-family="HelveticaNeue-Bold, Helvetica Neue" font-size="16" font-weight="bold">
						<tspan x="388.296" y="77">Pages</tspan>
					</text>
					<text id="Other-7" fill="#202122" font-family="HelveticaNeue-Bold, Helvetica Neue" font-size="16" font-weight="bold">
						<tspan x="267.012" y="77">Other</tspan>
					</text>
					<text id="More" fill="#202122" font-family="HelveticaNeue-Bold, Helvetica Neue" font-size="16" font-weight="bold">
						<tspan x="204.296" y="133">More</tspan>
					</text>
					<text id="More" fill="#202122" font-family="HelveticaNeue-Bold, Helvetica Neue" font-size="16" font-weight="bold">
						<tspan x="204.296" y="245">More</tspan>
					</text>
					<text id="Pages-8" fill="#202122" font-family="HelveticaNeue-Bold, Helvetica Neue" font-size="16" font-weight="bold">
						<tspan x="388.296" y="133">Pages</tspan>
					</text>
					<text id="Pages-8-Copy" fill="#202122" font-family="HelveticaNeue-Bold, Helvetica Neue" font-size="16" font-weight="bold">
						<tspan x="388.296" y="245">Pages</tspan>
					</text>
					<text id="Other-8" fill="#202122" font-family="HelveticaNeue-Bold, Helvetica Neue" font-size="16" font-weight="bold">
						<tspan x="267.012" y="133">Other</tspan>
					</text>
					<text id="Other-8-Copy" fill="#202122" font-family="HelveticaNeue-Bold, Helvetica Neue" font-size="16" font-weight="bold">
						<tspan x="267.012" y="245">Other</tspan>
					</text>
					<path id="Mediawiki.Progressive.Hover-7" fill="#FFF" stroke="#A2A9B1" d="M321.5 56.5h55v31h-55z"/>
					<path id="Mediawiki.Progressive.Hover-8" fill="#EAECF0" stroke="#72777D" d="M321.5 112.5h55v31h-55z"/>
					<path id="Mediawiki.Progressive.Hover-8-Copy" fill="#2A4B8D" stroke="#2A4B8D" d="M321.5 224.5h55v31h-55z"/>
					<text id="Talk" fill="#404244" font-family="HelveticaNeue-Bold, Helvetica Neue" font-size="16" font-weight="bold">
						<tspan x="333.252" y="77">Talk</tspan>
					</text>
					<text id="Talk-6" fill="#000" font-family="HelveticaNeue-Bold, Helvetica Neue" font-size="16" font-weight="bold">
						<tspan x="333" y="134">Talk</tspan>
					</text>
					<text id="Talk-6-Copy" fill="#FFF" font-family="HelveticaNeue-Bold, Helvetica Neue" font-size="16" font-weight="bold">
						<tspan x="333" y="246">Talk</tspan>
					</text>
					<rect id="Mediawiki.Neutral.Normal-copy-16" width="255" height="31" x="192.5" y="168.5" fill="#F8F9FA" stroke="#A2A9B1" rx="2"/>
					<g id="Mediawiki.Progressive.Hover-8" stroke="#36C" stroke-linejoin="square">
						<path stroke-width="2" d="M322 169h54v30h-54z"/>
						<path d="M321.5 168.5h55v31h-55z"/>
					</g>
					<text id="More" fill="#202122" font-family="HelveticaNeue-Bold, Helvetica Neue" font-size="16" font-weight="bold">
						<tspan x="204.296" y="190">More</tspan>
					</text>
					<text id="Pages-9" fill="#202122" font-family="HelveticaNeue-Bold, Helvetica Neue" font-size="16" font-weight="bold">
						<tspan x="388.296" y="190">Pages</tspan>
					</text>
					<text id="Other-9" fill="#202122" font-family="HelveticaNeue-Bold, Helvetica Neue" font-size="16" font-weight="bold">
						<tspan x="267.012" y="190">Other</tspan>
					</text>
					<text id="Talk-7" fill="#202122" font-family="HelveticaNeue-Bold, Helvetica Neue" font-size="16" font-weight="bold">
						<tspan x="333.252" y="190">Talk</tspan>
					</text>
					<g id="Cursor-Pointer" transform="translate(363 132)">
						<use fill="#000" filter="url(#filter-3)" xlink:href="#path-2"/>
						<path fill="#FFF" stroke="#000" d="M7.396-.5a1.925 1.925 0 011.91 1.925h0v7.173l.035-.02a2.1 2.1 0 01.862-.27l.19-.009c.577 0 1.103.229 1.485.596.258.249.45.56.55.909l.009.042.137-.084c.252-.142.535-.23.838-.257l.184-.007c.58 0 1.104.228 1.483.594.214.207.383.459.49.738l.022.068a1.7 1.7 0 01.634-.193l.173-.009a1.7 1.7 0 011.198.49c.309.306.5.727.5 1.19h0l.005 1.587v3.239c0 1.46-.76 2.96-1.464 4.302-.625 1.193-1.227 2.241-.875 2.996h0-9.221c.081-.188.128-.356.128-.5 0-.642-.925-1.779-1.793-2.948-.406-.548-.816-1.1-1.162-1.619A729.053 729.053 0 01-.072 13.62c-.337-.553-.425-1.061-.359-1.49.08-.514.38-.934.839-1.193a1.83 1.83 0 011.338-.184c.433.107.819.372 1.063.768h0l2.69 3.478V1.425c0-.53.211-1.01.552-1.358.344-.35.82-.567 1.345-.567z"/>
					</g>
					<g id="Cursor-Pointer" transform="translate(363 76)">
						<use fill="#000" filter="url(#filter-5)" xlink:href="#path-4"/>
						<path fill="#FFF" stroke="#000" d="M7.396-.5a1.925 1.925 0 011.91 1.925h0v7.173l.035-.02a2.1 2.1 0 01.862-.27l.19-.009c.577 0 1.103.229 1.485.596.258.249.45.56.55.909l.009.042.137-.084c.252-.142.535-.23.838-.257l.184-.007c.58 0 1.104.228 1.483.594.214.207.383.459.49.738l.022.068a1.7 1.7 0 01.634-.193l.173-.009a1.7 1.7 0 011.198.49c.309.306.5.727.5 1.19h0l.005 1.587v3.239c0 1.46-.76 2.96-1.464 4.302-.625 1.193-1.227 2.241-.875 2.996h0-9.221c.081-.188.128-.356.128-.5 0-.642-.925-1.779-1.793-2.948-.406-.548-.816-1.1-1.162-1.619A729.053 729.053 0 01-.072 13.62c-.337-.553-.425-1.061-.359-1.49.08-.514.38-.934.839-1.193a1.83 1.83 0 011.338-.184c.433.107.819.372 1.063.768h0l2.69 3.478V1.425c0-.53.211-1.01.552-1.358.344-.35.82-.567 1.345-.567z"/>
					</g>
					<g id="Cursor" fill="#000" transform="translate(368 306)">
						<use filter="url(#filter-7)" xlink:href="#path-6"/>
						<path stroke="#FFF" d="M-.142-.405c.803.085.93.19 1.086.35h0L11.59 10.089c.184.19.301.379.366.553a.97.97 0 01.011.681.977.977 0 01-.446.514c-.168.097-.39.17-.669.195h0l-4.405-.244 2.721 6.886c.12.295.118.613.012.902l-.051.122a1.416 1.416 0 01-.75.696c-.348.141-.714.137-1.025.021a1.261 1.261 0 01-.741-.713h0l-2.679-6.778-2.544 2.927c-.177.144-.35.24-.51.297l-.117.036a.977.977 0 01-.678-.06c-.22-.107-.404-.303-.507-.607h0L-.474.67c0-.725.19-.98.332-1.074z"/>
					</g>
					<g id="State-labels" fill="#72777D" font-family="Lato-Regular, Lato, sans-serif" font-size="14" font-weight="normal" transform="translate(0 8)">
						<text id="Disabled">
							<tspan x="0" y="295">Disabled</tspan>
						</text>
						<text id="Focus">
							<tspan x="0" y="182">Focus</tspan>
						</text>
						<text id="Selected">
							<tspan x="0" y="238">Selected</tspan>
						</text>
						<text id="Active">
							<tspan x="0" y="126">Active</tspan>
						</text>
						<text id="Hover">
							<tspan x="0" y="70">Hover</tspan>
						</text>
						<text id="Normal">
							<tspan x="0" y="14">Normal</tspan>
						</text>
					</g>
					<path id="Line" stroke="#A2A9B1" stroke-linecap="square" d="M255.5.5v31"/>
					<path id="Line-Copy-16" stroke="#A2A9B1" d="M255.5 56.5v30"/>
					<path id="Separator" stroke="#A2A9B1" stroke-linecap="square" d="M255.5 112.5v31.015"/>
					<path id="Line" stroke="#A2A9B1" stroke-linecap="square" d="M255.5 225.5v30"/>
					<path id="Line-Copy-21" stroke="#A2A9B1" stroke-linecap="square" d="M255.5 168.5v30"/>
					<path id="Line-Copy" stroke="#A2A9B1" stroke-linecap="square" d="M321.5.5v31"/>
					<path id="Line-Copy-13" stroke="#A2A9B1" stroke-linecap="square" d="M376.5.5v31"/>
				</g>
			</g>
		</g>
	</g>
</svg>
