<?xml version="1.0" encoding="UTF-8"?>
<svg xmlns="http://www.w3.org/2000/svg" xmlns:xlink="http://www.w3.org/1999/xlink" width="579" height="478" viewBox="0 0 579 478">
	<defs>
		<path id="button_group-b" d="M17.595 12.379a1.19 1.19 0 0 0-1.197-1.183 1.19 1.19 0 0 0-1.196 1.179v-.826c0-.857-.719-1.551-1.606-1.551-.886 0-1.592.694-1.592 1.55V10.35c0-.856-.728-1.55-1.611-1.55s-1.586.694-1.586 1.55V1.425C8.807.638 8.168 0 7.397 0c-.772 0-1.398.638-1.398 1.425v15.038l-3.603-4.659c-.346-.586-1.126-.779-1.742-.431-.617.348-.836 1.105-.49 1.691 0 0 2.817 4.369 3.967 6.093C5.281 20.882 7.17 23.01 7.17 24h7.989c0-1.672 2.443-4.283 2.443-6.798v-3.24l-.006-1.583z"/>
		<filter id="button_group-a" width="173.9%" height="154.2%" x="-36.9%" y="-18.8%" filterUnits="objectBoundingBox">
			<feMorphology in="SourceAlpha" operator="dilate" radius="1" result="shadowSpreadOuter1"/>
			<feOffset dy="1" in="shadowSpreadOuter1" result="shadowOffsetOuter1"/>
			<feGaussianBlur in="shadowOffsetOuter1" result="shadowBlurOuter1" stdDeviation=".5"/>
			<feComposite in="shadowBlurOuter1" in2="SourceAlpha" operator="out" result="shadowBlurOuter1"/>
			<feColorMatrix in="shadowBlurOuter1" result="shadowMatrixOuter1" values="0 0 0 0 0 0 0 0 0 0 0 0 0 0 0 0 0 0 0.582908741 0"/>
			<feMorphology in="SourceAlpha" operator="dilate" radius="1" result="shadowSpreadOuter2"/>
			<feOffset dy="2" in="shadowSpreadOuter2" result="shadowOffsetOuter2"/>
			<feGaussianBlur in="shadowOffsetOuter2" result="shadowBlurOuter2" stdDeviation="1.5"/>
			<feComposite in="shadowBlurOuter2" in2="SourceAlpha" operator="out" result="shadowBlurOuter2"/>
			<feColorMatrix in="shadowBlurOuter2" result="shadowMatrixOuter2" values="0 0 0 0 0 0 0 0 0 0 0 0 0 0 0 0 0 0 0.179347826 0"/>
			<feMerge>
				<feMergeNode in="shadowMatrixOuter1"/>
				<feMergeNode in="shadowMatrixOuter2"/>
			</feMerge>
		</filter>
		<path id="button_group-d" d="M17.595 12.379a1.19 1.19 0 0 0-1.197-1.183 1.19 1.19 0 0 0-1.196 1.179v-.826c0-.857-.719-1.551-1.606-1.551-.886 0-1.592.694-1.592 1.55V10.35c0-.856-.728-1.55-1.611-1.55s-1.586.694-1.586 1.55V1.425C8.807.638 8.168 0 7.397 0c-.772 0-1.398.638-1.398 1.425v15.038l-3.603-4.659c-.346-.586-1.126-.779-1.742-.431-.617.348-.836 1.105-.49 1.691 0 0 2.817 4.369 3.967 6.093C5.281 20.882 7.17 23.01 7.17 24h7.989c0-1.672 2.443-4.283 2.443-6.798v-3.24l-.006-1.583z"/>
		<filter id="button_group-c" width="173.9%" height="154.2%" x="-36.9%" y="-18.8%" filterUnits="objectBoundingBox">
			<feMorphology in="SourceAlpha" operator="dilate" radius="1" result="shadowSpreadOuter1"/>
			<feOffset dy="1" in="shadowSpreadOuter1" result="shadowOffsetOuter1"/>
			<feGaussianBlur in="shadowOffsetOuter1" result="shadowBlurOuter1" stdDeviation=".5"/>
			<feComposite in="shadowBlurOuter1" in2="SourceAlpha" operator="out" result="shadowBlurOuter1"/>
			<feColorMatrix in="shadowBlurOuter1" result="shadowMatrixOuter1" values="0 0 0 0 0 0 0 0 0 0 0 0 0 0 0 0 0 0 0.582908741 0"/>
			<feMorphology in="SourceAlpha" operator="dilate" radius="1" result="shadowSpreadOuter2"/>
			<feOffset dy="2" in="shadowSpreadOuter2" result="shadowOffsetOuter2"/>
			<feGaussianBlur in="shadowOffsetOuter2" result="shadowBlurOuter2" stdDeviation="1.5"/>
			<feComposite in="shadowBlurOuter2" in2="SourceAlpha" operator="out" result="shadowBlurOuter2"/>
			<feColorMatrix in="shadowBlurOuter2" result="shadowMatrixOuter2" values="0 0 0 0 0 0 0 0 0 0 0 0 0 0 0 0 0 0 0.179347826 0"/>
			<feMerge>
				<feMergeNode in="shadowMatrixOuter1"/>
				<feMergeNode in="shadowMatrixOuter2"/>
			</feMerge>
		</filter>
		<path id="button_group-f" d="M17.595 12.379a1.19 1.19 0 0 0-1.197-1.183 1.19 1.19 0 0 0-1.196 1.179v-.826c0-.857-.719-1.551-1.606-1.551-.886 0-1.592.694-1.592 1.55V10.35c0-.856-.728-1.55-1.611-1.55s-1.586.694-1.586 1.55V1.425C8.807.638 8.168 0 7.397 0c-.772 0-1.398.638-1.398 1.425v15.038l-3.603-4.659c-.346-.586-1.126-.779-1.742-.431-.617.348-.836 1.105-.49 1.691 0 0 2.817 4.369 3.967 6.093C5.281 20.882 7.17 23.01 7.17 24h7.989c0-1.672 2.443-4.283 2.443-6.798v-3.24l-.006-1.583z"/>
		<filter id="button_group-e" width="173.9%" height="154.2%" x="-36.9%" y="-18.8%" filterUnits="objectBoundingBox">
			<feMorphology in="SourceAlpha" operator="dilate" radius="1" result="shadowSpreadOuter1"/>
			<feOffset dy="1" in="shadowSpreadOuter1" result="shadowOffsetOuter1"/>
			<feGaussianBlur in="shadowOffsetOuter1" result="shadowBlurOuter1" stdDeviation=".5"/>
			<feComposite in="shadowBlurOuter1" in2="SourceAlpha" operator="out" result="shadowBlurOuter1"/>
			<feColorMatrix in="shadowBlurOuter1" result="shadowMatrixOuter1" values="0 0 0 0 0 0 0 0 0 0 0 0 0 0 0 0 0 0 0.582908741 0"/>
			<feMorphology in="SourceAlpha" operator="dilate" radius="1" result="shadowSpreadOuter2"/>
			<feOffset dy="2" in="shadowSpreadOuter2" result="shadowOffsetOuter2"/>
			<feGaussianBlur in="shadowOffsetOuter2" result="shadowBlurOuter2" stdDeviation="1.5"/>
			<feComposite in="shadowBlurOuter2" in2="SourceAlpha" operator="out" result="shadowBlurOuter2"/>
			<feColorMatrix in="shadowBlurOuter2" result="shadowMatrixOuter2" values="0 0 0 0 0 0 0 0 0 0 0 0 0 0 0 0 0 0 0.179347826 0"/>
			<feMerge>
				<feMergeNode in="shadowMatrixOuter1"/>
				<feMergeNode in="shadowMatrixOuter2"/>
			</feMerge>
		</filter>
		<path id="button_group-h" d="M6.132 11.269l4.71.26c.72-.08.899-.568.397-1.085L.592.3C.09-.216.027-.049.026.671L0 14.984c-.001.72.467.947 1.04.505l2.742-3.272c.095-.074.208-.146.327-.218l2.97 7.517c.165.41.664.595 1.113.413.449-.18.68-.66.514-1.07l-2.972-7.518.398-.073z"/>
		<filter id="button_group-g" width="220.2%" height="165%" x="-56.2%" y="-22.5%" filterUnits="objectBoundingBox">
			<feMorphology in="SourceAlpha" operator="dilate" radius="1" result="shadowSpreadOuter1"/>
			<feOffset dy="1" in="shadowSpreadOuter1" result="shadowOffsetOuter1"/>
			<feGaussianBlur in="shadowOffsetOuter1" result="shadowBlurOuter1" stdDeviation=".5"/>
			<feComposite in="shadowBlurOuter1" in2="SourceAlpha" operator="out" result="shadowBlurOuter1"/>
			<feColorMatrix in="shadowBlurOuter1" result="shadowMatrixOuter1" values="0 0 0 0 0 0 0 0 0 0 0 0 0 0 0 0 0 0 0.582908741 0"/>
			<feMorphology in="SourceAlpha" operator="dilate" radius="1" result="shadowSpreadOuter2"/>
			<feOffset dy="2" in="shadowSpreadOuter2" result="shadowOffsetOuter2"/>
			<feGaussianBlur in="shadowOffsetOuter2" result="shadowBlurOuter2" stdDeviation="1.5"/>
			<feComposite in="shadowBlurOuter2" in2="SourceAlpha" operator="out" result="shadowBlurOuter2"/>
			<feColorMatrix in="shadowBlurOuter2" result="shadowMatrixOuter2" values="0 0 0 0 0 0 0 0 0 0 0 0 0 0 0 0 0 0 0.179347826 0"/>
			<feMerge>
				<feMergeNode in="shadowMatrixOuter1"/>
				<feMergeNode in="shadowMatrixOuter2"/>
			</feMerge>
		</filter>
	</defs>
	<g fill="none" fill-rule="evenodd">
		<path fill="#FFF" d="M-3360-255h14720v3264H-3360z"/>
		<g transform="translate(-2)">
			<path fill="#C8CCD1" stroke="#C8CCD1" d="M270.5.5h262.508a2.505 2.505 0 0 1 2.492 2.502v27.996a2.492 2.492 0 0 1-2.492 2.502H270.5V.5zm-74.506 0H270.5v33h-74.506a2.498 2.498 0 0 1-2.494-2.502V3.002A2.493 2.493 0 0 1 195.994.5z"/>
			<text fill="#FFF" font-family="HelveticaNeue-Bold, Helvetica Neue" font-size="16" font-weight="bold">
				<tspan x="221" y="23">All</tspan>
			</text>
			<text fill="#FFF" font-family="HelveticaNeue-Bold, Helvetica Neue" font-size="16" font-weight="bold">
				<tspan x="290" y="23">Pages</tspan>
			</text>
			<text fill="#FFF" font-family="HelveticaNeue-Bold, Helvetica Neue" font-size="16" font-weight="bold">
				<tspan x="464" y="23">Other</tspan>
			</text>
			<rect width="342" height="33" x="193.5" y="56.5" fill="#F8F9FA" stroke="#A2A9B1" rx="2"/>
			<path stroke="#A2A9B1" stroke-linecap="square" d="M270.5 56.5v33.015m90-33.015v33.015"/>
			<path stroke="#767676" stroke-linecap="square" d="M440.5 56.5v32.015"/>
			<path stroke="#A2A9B1" stroke-linecap="square" d="M440.5 56.5v32.015"/>
			<path stroke="#FFF" stroke-linecap="square" d="M440.5.615v33M360.5.5v33m-90-33v33"/>
			<text fill="#FFF" font-family="HelveticaNeue-Bold, Helvetica Neue" font-size="16" font-weight="bold">
				<tspan x="383" y="23">Talk</tspan>
			</text>
			<text fill="#222" font-family="HelveticaNeue-Bold, Helvetica Neue" font-size="16" font-weight="bold">
				<tspan x="222.392" y="79">All</tspan>
			</text>
			<rect width="342" height="33" x="193.5" y="168.5" fill="#F8F9FA" stroke="#A2A9B1" rx="2"/>
			<rect width="342" height="33" x="193.5" y="280.5" fill="#F8F9FA" stroke="#A2A9B1" rx="2"/>
			<path stroke="#CCC" stroke-linecap="square" d="M270 113v32"/>
			<path fill="#FFF" stroke="#72777D" d="M270 225h1v33h-1v-33zm1 0v33h-1v-33h1z"/>
			<text fill="#222" font-family="HelveticaNeue-Bold, Helvetica Neue" font-size="16" font-weight="bold">
				<tspan x="292.296" y="79">Pages</tspan>
			</text>
			<text fill="#222" font-family="HelveticaNeue-Bold, Helvetica Neue" font-size="16" font-weight="bold">
				<tspan x="465.512" y="79">Other</tspan>
			</text>
			<text fill="#222" font-family="HelveticaNeue-Bold, Helvetica Neue" font-size="16" font-weight="bold">
				<tspan x="384.752" y="79">Talk</tspan>
			</text>
			<rect width="342" height="33" x="193.5" y="112.5" fill="#F8F9FA" stroke="#A2A9B1" rx="2"/>
			<text fill="#222" font-family="HelveticaNeue-Bold, Helvetica Neue" font-size="16" font-weight="bold">
				<tspan x="222.892" y="135">All</tspan>
			</text>
			<text fill="#222" font-family="HelveticaNeue-Bold, Helvetica Neue" font-size="16" font-weight="bold">
				<tspan x="292.296" y="135">Pages</tspan>
			</text>
			<text fill="#222" font-family="HelveticaNeue-Bold, Helvetica Neue" font-size="16" font-weight="bold">
				<tspan x="465.512" y="135">Other</tspan>
			</text>
			<path stroke="#A2A9B1" stroke-linecap="square" d="M440.5 113.5v32.015m-80-32.015v32.015m-90-32.015v32.015m0 22.985v32.015m0 79.985v32"/>
			<text fill="#222" font-family="HelveticaNeue-Bold, Helvetica Neue" font-size="16" font-weight="bold">
				<tspan x="222.392" y="191">All</tspan>
			</text>
			<text fill="#222" font-family="HelveticaNeue-Bold, Helvetica Neue" font-size="16" font-weight="bold">
				<tspan x="222.392" y="303">All</tspan>
			</text>
			<text fill="#222" font-family="HelveticaNeue-Bold, Helvetica Neue" font-size="16" font-weight="bold">
				<tspan x="292.296" y="191">Pages</tspan>
			</text>
			<text fill="#222" font-family="HelveticaNeue-Bold, Helvetica Neue" font-size="16" font-weight="bold">
				<tspan x="292.296" y="303">Pages</tspan>
			</text>
			<text fill="#222" font-family="HelveticaNeue-Bold, Helvetica Neue" font-size="16" font-weight="bold">
				<tspan x="465.512" y="191">Other</tspan>
			</text>
			<text fill="#222" font-family="HelveticaNeue-Bold, Helvetica Neue" font-size="16" font-weight="bold">
				<tspan x="465.512" y="303">Other</tspan>
			</text>
			<path fill="#FFF" stroke="#A2A9B1" d="M360.5 112.5h80v33h-80z"/>
			<path fill="#EAECF0" stroke="#72777D" d="M360.5 168.5h80v33h-80z"/>
			<path fill="#1F4999" stroke="#1F4999" d="M360.5 280.5h80v33h-80z"/>
			<text fill="#222" font-family="HelveticaNeue-Bold, Helvetica Neue" font-size="16" font-weight="bold">
				<tspan x="385.752" y="135">Talk</tspan>
			</text>
			<text fill="#000" font-family="HelveticaNeue-Bold, Helvetica Neue" font-size="16" font-weight="bold">
				<tspan x="385.752" y="191">Talk</tspan>
			</text>
			<text fill="#FFF" font-family="HelveticaNeue-Bold, Helvetica Neue" font-size="16" font-weight="bold">
				<tspan x="384.864" y="303">Talk</tspan>
			</text>
			<rect width="342" height="33" x="193.5" y="224.5" fill="#F8F9FA" stroke="#A2A9B1" rx="2"/>
			<g stroke="#36C">
				<path d="M361.5 224.5h80v33h-80z"/>
				<path stroke-linejoin="square" d="M362.5 225.5h78v31h-78z"/>
			</g>
			<text fill="#222" font-family="HelveticaNeue-Bold, Helvetica Neue" font-size="16" font-weight="bold">
				<tspan x="222.392" y="247">All</tspan>
			</text>
			<path stroke="#A2A9B1" stroke-linecap="square" d="M270.5 224.5v32.015"/>
			<text fill="#222" font-family="HelveticaNeue-Bold, Helvetica Neue" font-size="16" font-weight="bold">
				<tspan x="292.296" y="247">Pages</tspan>
			</text>
			<text fill="#222" font-family="HelveticaNeue-Bold, Helvetica Neue" font-size="16" font-weight="bold">
				<tspan x="465.512" y="247">Other</tspan>
			</text>
			<text fill="#222" font-family="HelveticaNeue-Bold, Helvetica Neue" font-size="16" font-weight="bold">
				<tspan x="385.752" y="247">Talk</tspan>
			</text>
			<rect width="387" height="33" x="193.5" y="424.5" fill="#F8F9FA" stroke="#A2A9B1" rx="2"/>
			<path fill="#FFF" stroke="#A2A9B1" d="M385.5 424.5h91v33h-91v-33z"/>
			<path stroke="#A2A9B1" stroke-linecap="square" d="M278.5 425v32"/>
			<text fill="#222" font-family="Lato-Bold, Lato, sans-serif" font-size="14" font-weight="bold" transform="translate(2 385)">
				<tspan x="0" y="13">ICON + TEXT</tspan>
			</text>
			<path stroke="#222" stroke-linecap="square" d="M191.484 408.5H2.516"/>
			<g stroke-linecap="square">
				<path stroke="#D0021B" d="M180.5 24.5v-15m1 15v-15m1 15v-15m1 15v-15"/>
				<path stroke="#50E3C2" d="M181.5 32.5v-7m-1 7v-7m3 7v-7m-1 7v-7m-1-17v-7m-1 7v-7m3 7v-7m-1 7v-7"/>
			</g>
			<text fill="#222" font-family="HelveticaNeue-Bold, Helvetica Neue" font-size="16" font-weight="bold">
				<tspan x="238.392" y="448">All</tspan>
			</text>
			<circle cx="220" cy="442" r="10" fill="#222"/>
			<path stroke="#50E3C2" stroke-width="4" d="M230 442h8"/>
			<path stroke="#D0021B" stroke-width="4" d="M194 442h16m52 0h16"/>
			<text fill="#222" font-family="HelveticaNeue-Bold, Helvetica Neue" font-size="16" font-weight="bold">
				<tspan x="322.296" y="448">Pages</tspan>
			</text>
			<circle cx="305" cy="442" r="10" fill="#222"/>
			<path stroke="#50E3C2" stroke-width="4" d="M315 442h8"/>
			<path stroke="#D0021B" stroke-width="4" d="M279 442h16m74 0h16"/>
			<text fill="#222" font-family="HelveticaNeue-Bold, Helvetica Neue" font-size="16" font-weight="bold">
				<tspan x="429.752" y="448">Talk</tspan>
			</text>
			<circle cx="412" cy="442" r="10" fill="#222"/>
			<path stroke="#50E3C2" stroke-width="4" d="M422 442h8"/>
			<path stroke="#D0021B" stroke-width="4" d="M386 442h16m58 0h16"/>
			<text fill="#222" font-family="HelveticaNeue-Bold, Helvetica Neue" font-size="16" font-weight="bold">
				<tspan x="520.512" y="448">Other</tspan>
			</text>
			<circle cx="503" cy="442" r="10" fill="#222"/>
			<path stroke="#50E3C2" stroke-width="4" d="M513 442h8"/>
			<path stroke="#D0021B" stroke-width="4" d="M477 442h16m71 0h16"/>
			<g transform="translate(416 189)">
				<use fill="#000" filter="url(#button_group-a)" xlink:href="#button_group-b"/>
				<path fill="#FFF" stroke="#000" d="M18.095 12.378l.006 1.585v3.239c0 .257-.022.519-.066.787-.155.942-.512 1.811-1.212 3.158-1.01 1.946-1.165 2.297-1.165 2.853v.5h-8.99V24c0-.421-.472-1.169-1.853-3.03l-.079-.106a34.473 34.473 0 0 1-1.02-1.43c-.39-.583-.991-1.5-1.748-2.664l-.027-.043a1115.225 1115.225 0 0 1-2.009-3.1l-.199-.309c-.49-.83-.181-1.897.675-2.38.85-.48 1.932-.212 2.383.56L5.5 15V1.425C5.499.365 6.346-.5 7.396-.5c1.052 0 1.91.865 1.91 1.925v7.172a2.116 2.116 0 0 1 1.087-.298c.977 0 1.809.653 2.044 1.54.332-.216.73-.341 1.16-.341.926 0 1.716.584 1.996 1.399a1.7 1.7 0 0 1 .805-.201 1.69 1.69 0 0 1 1.697 1.682z"/>
			</g>
			<g transform="translate(416 133)">
				<use fill="#000" filter="url(#button_group-c)" xlink:href="#button_group-d"/>
				<path fill="#FFF" stroke="#000" d="M18.095 12.378l.006 1.585v3.239c0 .257-.022.519-.066.787-.155.942-.512 1.811-1.212 3.158-1.01 1.946-1.165 2.297-1.165 2.853v.5h-8.99V24c0-.421-.472-1.169-1.853-3.03l-.079-.106a34.473 34.473 0 0 1-1.02-1.43c-.39-.583-.991-1.5-1.748-2.664l-.027-.043a1115.225 1115.225 0 0 1-2.009-3.1l-.199-.309c-.49-.83-.181-1.897.675-2.38.85-.48 1.932-.212 2.383.56L5.5 15V1.425C5.499.365 6.346-.5 7.396-.5c1.052 0 1.91.865 1.91 1.925v7.172a2.116 2.116 0 0 1 1.087-.298c.977 0 1.809.653 2.044 1.54.332-.216.73-.341 1.16-.341.926 0 1.716.584 1.996 1.399a1.7 1.7 0 0 1 .805-.201 1.69 1.69 0 0 1 1.697 1.682z"/>
			</g>
			<g transform="translate(456 448)">
				<use fill="#000" filter="url(#button_group-e)" xlink:href="#button_group-f"/>
				<path fill="#FFF" stroke="#000" d="M18.095 12.378l.006 1.585v3.239c0 .257-.022.519-.066.787-.155.942-.512 1.811-1.212 3.158-1.01 1.946-1.165 2.297-1.165 2.853v.5h-8.99V24c0-.421-.472-1.169-1.853-3.03l-.079-.106a34.473 34.473 0 0 1-1.02-1.43c-.39-.583-.991-1.5-1.748-2.664l-.027-.043a1115.225 1115.225 0 0 1-2.009-3.1l-.199-.309c-.49-.83-.181-1.897.675-2.38.85-.48 1.932-.212 2.383.56L5.5 15V1.425C5.499.365 6.346-.5 7.396-.5c1.052 0 1.91.865 1.91 1.925v7.172a2.116 2.116 0 0 1 1.087-.298c.977 0 1.809.653 2.044 1.54.332-.216.73-.341 1.16-.341.926 0 1.716.584 1.996 1.399a1.7 1.7 0 0 1 .805-.201 1.69 1.69 0 0 1 1.697 1.682z"/>
			</g>
			<g fill="#000" transform="translate(423 24)">
				<use filter="url(#button_group-g)" xlink:href="#button_group-h"/>
				<path stroke="#FFF" d="M6.448 11.787l2.721 6.886c.273.675-.094 1.44-.79 1.72-.696.283-1.491-.013-1.765-.692l-2.708-6.853-2.483 2.963-.077.075c-.901.695-1.848.236-1.846-.902L-.474.669c0-.618.027-.82.271-1.028.4-.34.694-.163 1.14.298l10.66 10.157c.793.817.432 1.805-.782 1.933l-4.367-.242z"/>
			</g>
			<g fill="#72777D" font-family="Lato-Regular, Lato, sans-serif" font-size="14">
				<text transform="translate(0 10)">
					<tspan x="0" y="237">:FOCUS</tspan>
				</text>
				<text transform="translate(0 10)">
					<tspan x="0" y="293"> SELECTED</tspan>
				</text>
				<text transform="translate(0 10)">
					<tspan x="0" y="181">:ACTIVE</tspan>
				</text>
				<text transform="translate(0 10)">
					<tspan x="0" y="125">:HOVER</tspan>
				</text>
				<text transform="translate(0 10)">
					<tspan x="0" y="69"> NORMAL</tspan>
				</text>
				<text transform="translate(0 10)">
					<tspan x="0" y="14"> DISABLED</tspan>
				</text>
			</g>
		</g>
	</g>
</svg>
