<svg xmlns="http://www.w3.org/2000/svg" viewBox="0 0 117 34"><rect x="1.5" y="1.5" width="114" height="31" rx="2" fill="#36c" stroke="#36c"/><g style="isolation:isolate"><path d="M19.71 10.58a4.71 4.71 0 0 1 1.82.31 3.54 3.54 0 0 1 1.23.82 3.13 3.13 0 0 1 .68 1.17 4.28 4.28 0 0 1 0 2.71 3.1 3.1 0 0 1-.68 1.18 3.54 3.54 0 0 1-1.23.82 4.71 4.71 0 0 1-1.82.31h-2.64V22h-2.51V10.58zM19 16a5.49 5.49 0 0 0 .83-.06 2 2 0 0 0 .71-.25 1.34 1.34 0 0 0 .48-.52 1.74 1.74 0 0 0 .19-.88 1.74 1.74 0 0 0-.19-.88 1.34 1.34 0 0 0-.48-.52 2 2 0 0 0-.71-.25 5.49 5.49 0 0 0-.83-.06h-1.93V16zm8.15-2.27v1.53a3.06 3.06 0 0 1 .43-.71 2.81 2.81 0 0 1 .63-.56 3.24 3.24 0 0 1 .75-.36 2.83 2.83 0 0 1 .83-.13 2 2 0 0 1 .5.08v2.12a3.24 3.24 0 0 0-.39-.06 3.17 3.17 0 0 0-.43 0 2.57 2.57 0 0 0-1.06.2 1.84 1.84 0 0 0-.69.57 2.31 2.31 0 0 0-.38.84 4.88 4.88 0 0 0-.11 1V22H25v-8.27zM31 16.07a3.83 3.83 0 0 1 2.21-2.25 4.68 4.68 0 0 1 1.76-.32 4.77 4.77 0 0 1 1.77.32 3.68 3.68 0 0 1 1.35.88 3.85 3.85 0 0 1 .86 1.37 4.93 4.93 0 0 1 .31 1.8 4.84 4.84 0 0 1-.31 1.79 3.85 3.85 0 0 1-.89 1.34 3.66 3.66 0 0 1-1.35.87 4.77 4.77 0 0 1-1.77.31 4.68 4.68 0 0 1-1.76-.31A3.78 3.78 0 0 1 31 19.66a5.05 5.05 0 0 1-.3-1.79 5.15 5.15 0 0 1 .3-1.8zm2 2.77a2.63 2.63 0 0 0 .32.85 1.78 1.78 0 0 0 .62.6 1.89 1.89 0 0 0 1 .22 1.93 1.93 0 0 0 1-.22 1.7 1.7 0 0 0 .62-.6 2.43 2.43 0 0 0 .33-.85 5.15 5.15 0 0 0 .1-1 5.23 5.23 0 0 0-.1-1 2.29 2.29 0 0 0-.33-.85 1.7 1.7 0 0 0-.62-.6 1.83 1.83 0 0 0-1-.23 1.75 1.75 0 0 0-1.58.83 2.46 2.46 0 0 0-.32.85 4.5 4.5 0 0 0-.1 1 4.43 4.43 0 0 0 .06 1zm15.52 3.77a2.83 2.83 0 0 1-.59 1.19 3.54 3.54 0 0 1-1.29.94 5.75 5.75 0 0 1-2.28.38 5.45 5.45 0 0 1-1.24-.12 4 4 0 0 1-1.12-.5 2.84 2.84 0 0 1-.86-.83 2.35 2.35 0 0 1-.39-1.21H43a1.3 1.3 0 0 0 .63.89 2.17 2.17 0 0 0 1.07.25 1.64 1.64 0 0 0 1.4-.58 2.27 2.27 0 0 0 .42-1.45v-1.09a2.25 2.25 0 0 1-1.05 1 3.35 3.35 0 0 1-1.43.31 3.6 3.6 0 0 1-1.6-.33 2.93 2.93 0 0 1-1.1-.89 3.82 3.82 0 0 1-.64-1.33 6.46 6.46 0 0 1-.2-1.61 5 5 0 0 1 .24-1.54 3.94 3.94 0 0 1 .68-1.32 3.27 3.27 0 0 1 1.11-.9A3.38 3.38 0 0 1 44 13.5a3.24 3.24 0 0 1 1.43.31 2.46 2.46 0 0 1 1 1v-1.1h2.16v7.74a5.61 5.61 0 0 1-.07 1.16zm-3.12-2.75a1.71 1.71 0 0 0 .61-.52 2.21 2.21 0 0 0 .36-.72 3.08 3.08 0 0 0 .12-.86 5.07 5.07 0 0 0-.09-1 2.64 2.64 0 0 0-.32-.81 1.7 1.7 0 0 0-.6-.56 1.93 1.93 0 0 0-.92-.2 1.59 1.59 0 0 0-1.4.71 2.14 2.14 0 0 0-.34.75 3.68 3.68 0 0 0-.1.89 5.35 5.35 0 0 0 .08.89 2.37 2.37 0 0 0 .31.79 1.73 1.73 0 0 0 .57.57 1.57 1.57 0 0 0 .88.23 1.86 1.86 0 0 0 .84-.16zm7.24-6.13v1.53a2.75 2.75 0 0 1 .43-.71 3 3 0 0 1 .62-.56 3.53 3.53 0 0 1 .76-.36 2.83 2.83 0 0 1 .83-.13 1.85 1.85 0 0 1 .49.08v2.12a2.77 2.77 0 0 0-.38-.06 3.17 3.17 0 0 0-.43 0 2.57 2.57 0 0 0-1.06.2 1.77 1.77 0 0 0-.69.57 2.15 2.15 0 0 0-.38.84 4.88 4.88 0 0 0-.11 1V22h-2.24v-8.27zm6.2 6.27a2.05 2.05 0 0 0 1.48.49 2 2 0 0 0 1.18-.34 1.45 1.45 0 0 0 .61-.73h2a3.82 3.82 0 0 1-1.47 2.13 4.35 4.35 0 0 1-2.4.64 4.84 4.84 0 0 1-1.76-.31 3.66 3.66 0 0 1-1.33-.88 3.94 3.94 0 0 1-.84-1.38 5 5 0 0 1-.3-1.76 4.7 4.7 0 0 1 .31-1.73 4.08 4.08 0 0 1 .86-1.38 4 4 0 0 1 1.34-.92 4.33 4.33 0 0 1 1.72-.34 4 4 0 0 1 1.84.41 3.59 3.59 0 0 1 1.28 1.1 4.44 4.44 0 0 1 .73 1.57 5.88 5.88 0 0 1 .16 1.84h-6a2.35 2.35 0 0 0 .59 1.59zm2.57-4.36a1.61 1.61 0 0 0-1.24-.44 2 2 0 0 0-.9.18 1.67 1.67 0 0 0-.58.46 1.74 1.74 0 0 0-.3.57 2.54 2.54 0 0 0-.11.55H62a2.69 2.69 0 0 0-.59-1.3zm6.1 4.3a1.38 1.38 0 0 0 .39.44 1.61 1.61 0 0 0 .55.24 2.36 2.36 0 0 0 .65.08 2.18 2.18 0 0 0 .5-.05 1.71 1.71 0 0 0 .48-.18.93.93 0 0 0 .36-.32.8.8 0 0 0 .15-.5c0-.34-.23-.6-.68-.77a14 14 0 0 0-1.9-.51c-.33-.08-.65-.16-1-.27a3.26 3.26 0 0 1-.84-.4 1.94 1.94 0 0 1-.59-.62 1.77 1.77 0 0 1-.22-.92 2.47 2.47 0 0 1 .31-1.31 2.35 2.35 0 0 1 .82-.81 3.59 3.59 0 0 1 1.15-.42A7.2 7.2 0 0 1 69 13.5a6.9 6.9 0 0 1 1.3.13 3.64 3.64 0 0 1 1.13.43 2.75 2.75 0 0 1 .82.81 2.68 2.68 0 0 1 .39 1.27h-2.16a1 1 0 0 0-.5-.88 2.21 2.21 0 0 0-1.06-.26h-.41a1.3 1.3 0 0 0-.41.1.9.9 0 0 0-.31.23.61.61 0 0 0-.13.41.62.62 0 0 0 .22.5 1.73 1.73 0 0 0 .59.31c.24.08.51.15.82.22l.95.2a9.7 9.7 0 0 1 1 .28 2.76 2.76 0 0 1 .84.42 2 2 0 0 1 .59.66 1.89 1.89 0 0 1 .23 1 2.62 2.62 0 0 1-.33 1.37 2.53 2.53 0 0 1-.86.89 3.54 3.54 0 0 1-1.2.47 7.2 7.2 0 0 1-1.39.14 6.62 6.62 0 0 1-1.41-.15 3.54 3.54 0 0 1-1.22-.48 2.74 2.74 0 0 1-.88-.88 2.77 2.77 0 0 1-.37-1.39h2.16a1.22 1.22 0 0 0 .11.64zm8.59 0a1.38 1.38 0 0 0 .39.44 1.61 1.61 0 0 0 .55.24 2.36 2.36 0 0 0 .65.08 2.32 2.32 0 0 0 .51-.05 1.76 1.76 0 0 0 .47-.18 1 1 0 0 0 .37-.32.87.87 0 0 0 .14-.5c0-.34-.23-.6-.68-.77a13.6 13.6 0 0 0-1.9-.51c-.33-.08-.65-.16-1-.27a3.26 3.26 0 0 1-.84-.4 1.94 1.94 0 0 1-.59-.62 1.77 1.77 0 0 1-.22-.92 2.47 2.47 0 0 1 .31-1.31 2.3 2.3 0 0 1 .83-.81 3.5 3.5 0 0 1 1.15-.42 7 7 0 0 1 1.31-.12 6.9 6.9 0 0 1 1.3.13 3.64 3.64 0 0 1 1.13.43 2.64 2.64 0 0 1 .82.81 2.8 2.8 0 0 1 .4 1.27h-2.13a1 1 0 0 0-.5-.88 2.21 2.21 0 0 0-1.06-.26h-.41a1.3 1.3 0 0 0-.41.1.9.9 0 0 0-.31.23.61.61 0 0 0-.13.41.65.65 0 0 0 .22.5 1.73 1.73 0 0 0 .59.31c.24.08.51.15.82.22l1 .2a9.7 9.7 0 0 1 1 .28 2.76 2.76 0 0 1 .84.42 2.1 2.1 0 0 1 .6.66 1.89 1.89 0 0 1 .22 1 2.62 2.62 0 0 1-.33 1.37 2.59 2.59 0 0 1-.85.89 3.6 3.6 0 0 1-1.21.47 7.12 7.12 0 0 1-1.39.14 6.59 6.59 0 0 1-1.4-.15 3.51 3.51 0 0 1-1.36-.47 2.84 2.84 0 0 1-.88-.88 2.77 2.77 0 0 1-.37-1.39H76a1.22 1.22 0 0 0 .1.63zm6.74-7.49v-1.87h2.28v1.87zm2.28 1.28V22h-2.28v-8.27zM89 22l-2.84-8.27h2.39l1.74 5.65L92 13.73h2.25L91.48 22zm8.66-2a2 2 0 0 0 1.47.49 2.05 2.05 0 0 0 1.19-.34 1.38 1.38 0 0 0 .6-.73h2a3.82 3.82 0 0 1-1.47 2.13 4.3 4.3 0 0 1-2.4.64 4.88 4.88 0 0 1-1.76-.31A3.84 3.84 0 0 1 96 21a4.09 4.09 0 0 1-.84-1.38 5.2 5.2 0 0 1-.29-1.76 4.91 4.91 0 0 1 .3-1.73 4.06 4.06 0 0 1 2.2-2.3 4.36 4.36 0 0 1 1.72-.34 4 4 0 0 1 1.84.41 3.71 3.71 0 0 1 1.29 1.1 4.62 4.62 0 0 1 .73 1.57 5.88 5.88 0 0 1 .16 1.84h-6a2.3 2.3 0 0 0 .55 1.59zm2.57-4.36a1.63 1.63 0 0 0-1.23-.42 2 2 0 0 0-.91.18 1.55 1.55 0 0 0-.57.46 1.6 1.6 0 0 0-.31.57 2.48 2.48 0 0 0-.1.55h3.69a2.6 2.6 0 0 0-.57-1.32z" fill="#fff"/></g></svg>