<?xml version="1.0" encoding="UTF-8"?>
<svg xmlns="http://www.w3.org/2000/svg" xmlns:xlink="http://www.w3.org/1999/xlink" width="664" height="536" viewBox="0 0 664 536">
	<title>
		Primary_Buttons
	</title>
	<desc>
		Created with Sketch.
	</desc>
	<defs>
		<filter id="filter-5" width="173.9%" height="154.2%" x="-36.9%" y="-18.8%" filterUnits="objectBoundingBox">
			<feMorphology in="SourceAlpha" operator="dilate" radius="1" result="shadowSpreadOuter1"/>
			<feOffset dy="1" in="shadowSpreadOuter1" result="shadowOffsetOuter1"/>
			<feGaussianBlur in="shadowOffsetOuter1" result="shadowBlurOuter1" stdDeviation=".5"/>
			<feComposite in="shadowBlurOuter1" in2="SourceAlpha" operator="out" result="shadowBlurOuter1"/>
			<feColorMatrix in="shadowBlurOuter1" result="shadowMatrixOuter1" values="0 0 0 0 0 0 0 0 0 0 0 0 0 0 0 0 0 0 0.582908741 0"/>
			<feMorphology in="SourceAlpha" operator="dilate" radius="1" result="shadowSpreadOuter2"/>
			<feOffset dy="2" in="shadowSpreadOuter2" result="shadowOffsetOuter2"/>
			<feGaussianBlur in="shadowOffsetOuter2" result="shadowBlurOuter2" stdDeviation="1.5"/>
			<feComposite in="shadowBlurOuter2" in2="SourceAlpha" operator="out" result="shadowBlurOuter2"/>
			<feColorMatrix in="shadowBlurOuter2" result="shadowMatrixOuter2" values="0 0 0 0 0 0 0 0 0 0 0 0 0 0 0 0 0 0 0.179347826 0"/>
			<feMerge>
				<feMergeNode in="shadowMatrixOuter1"/>
				<feMergeNode in="shadowMatrixOuter2"/>
			</feMerge>
		</filter>
		<filter id="filter-7" width="173.9%" height="154.2%" x="-36.9%" y="-18.8%" filterUnits="objectBoundingBox">
			<feMorphology in="SourceAlpha" operator="dilate" radius="1" result="shadowSpreadOuter1"/>
			<feOffset dy="1" in="shadowSpreadOuter1" result="shadowOffsetOuter1"/>
			<feGaussianBlur in="shadowOffsetOuter1" result="shadowBlurOuter1" stdDeviation=".5"/>
			<feComposite in="shadowBlurOuter1" in2="SourceAlpha" operator="out" result="shadowBlurOuter1"/>
			<feColorMatrix in="shadowBlurOuter1" result="shadowMatrixOuter1" values="0 0 0 0 0 0 0 0 0 0 0 0 0 0 0 0 0 0 0.582908741 0"/>
			<feMorphology in="SourceAlpha" operator="dilate" radius="1" result="shadowSpreadOuter2"/>
			<feOffset dy="2" in="shadowSpreadOuter2" result="shadowOffsetOuter2"/>
			<feGaussianBlur in="shadowOffsetOuter2" result="shadowBlurOuter2" stdDeviation="1.5"/>
			<feComposite in="shadowBlurOuter2" in2="SourceAlpha" operator="out" result="shadowBlurOuter2"/>
			<feColorMatrix in="shadowBlurOuter2" result="shadowMatrixOuter2" values="0 0 0 0 0 0 0 0 0 0 0 0 0 0 0 0 0 0 0.179347826 0"/>
			<feMerge>
				<feMergeNode in="shadowMatrixOuter1"/>
				<feMergeNode in="shadowMatrixOuter2"/>
			</feMerge>
		</filter>
		<filter id="filter-9" width="220.2%" height="165%" x="-56.2%" y="-22.5%" filterUnits="objectBoundingBox">
			<feMorphology in="SourceAlpha" operator="dilate" radius="1" result="shadowSpreadOuter1"/>
			<feOffset dy="1" in="shadowSpreadOuter1" result="shadowOffsetOuter1"/>
			<feGaussianBlur in="shadowOffsetOuter1" result="shadowBlurOuter1" stdDeviation=".5"/>
			<feComposite in="shadowBlurOuter1" in2="SourceAlpha" operator="out" result="shadowBlurOuter1"/>
			<feColorMatrix in="shadowBlurOuter1" result="shadowMatrixOuter1" values="0 0 0 0 0 0 0 0 0 0 0 0 0 0 0 0 0 0 0.582908741 0"/>
			<feMorphology in="SourceAlpha" operator="dilate" radius="1" result="shadowSpreadOuter2"/>
			<feOffset dy="2" in="shadowSpreadOuter2" result="shadowOffsetOuter2"/>
			<feGaussianBlur in="shadowOffsetOuter2" result="shadowBlurOuter2" stdDeviation="1.5"/>
			<feComposite in="shadowBlurOuter2" in2="SourceAlpha" operator="out" result="shadowBlurOuter2"/>
			<feColorMatrix in="shadowBlurOuter2" result="shadowMatrixOuter2" values="0 0 0 0 0 0 0 0 0 0 0 0 0 0 0 0 0 0 0.179347826 0"/>
			<feMerge>
				<feMergeNode in="shadowMatrixOuter1"/>
				<feMergeNode in="shadowMatrixOuter2"/>
			</feMerge>
		</filter>
		<rect id="path-1" width="123" height="32" x="380" y="168" rx="2"/>
		<rect id="path-2" width="120" height="32" x="543" y="168" rx="2"/>
		<rect id="path-3" width="88" height="32" x="192" y="168" rx="2"/>
		<path id="path-4" d="M17.595 12.379a1.19 1.19 0 00-1.197-1.183 1.19 1.19 0 00-1.196 1.179v-.826c0-.857-.719-1.551-1.606-1.551-.886 0-1.592.694-1.592 1.55V10.35c0-.856-.728-1.55-1.611-1.55s-1.586.694-1.586 1.55V1.425C8.807.638 8.168 0 7.397 0c-.772 0-1.398.638-1.398 1.425v15.038l-3.603-4.659c-.346-.586-1.126-.779-1.742-.431-.617.348-.836 1.105-.49 1.691 0 0 2.817 4.369 3.967 6.093C5.281 20.882 7.17 23.01 7.17 24h7.989c0-1.672 2.443-4.283 2.443-6.798v-3.24l-.006-1.583z"/>
		<path id="path-6" d="M17.595 12.379a1.19 1.19 0 00-1.197-1.183 1.19 1.19 0 00-1.196 1.179v-.826c0-.857-.719-1.551-1.606-1.551-.886 0-1.592.694-1.592 1.55V10.35c0-.856-.728-1.55-1.611-1.55s-1.586.694-1.586 1.55V1.425C8.807.638 8.168 0 7.397 0c-.772 0-1.398.638-1.398 1.425v15.038l-3.603-4.659c-.346-.586-1.126-.779-1.742-.431-.617.348-.836 1.105-.49 1.691 0 0 2.817 4.369 3.967 6.093C5.281 20.882 7.17 23.01 7.17 24h7.989c0-1.672 2.443-4.283 2.443-6.798v-3.24l-.006-1.583z"/>
		<path id="path-8" d="M6.132 11.269l4.71.26c.72-.08.899-.568.397-1.085L.592.3C.09-.216.027-.049.026.671L0 14.984c-.001.72.467.947 1.04.505l2.742-3.272c.095-.074.208-.146.327-.218l2.97 7.517c.165.41.664.595 1.113.413.449-.18.68-.66.514-1.07l-2.972-7.518.398-.073z"/>
	</defs>
	<g id="Artboard-page" fill="none" fill-rule="evenodd" stroke="none" stroke-width="1">
		<g id="WikimediaUI-components_overview" transform="translate(-1759 -255)">
			<path fill="#FFF" d="M0 0h14720v3264H0z"/>
			<g id="PRIMARY-BUTTONS" transform="translate(1759 143)">
				<g id="Primary-Buttons-X" transform="translate(1 113)">
					<g id="101-/-Headline--Sub" transform="translate(0 304)">
						<text id="SUBHEADLINE" fill="#222" font-family="Lato-Bold, Lato" font-size="14" font-weight="bold">
							<tspan x="0" y="13">ICON + TEXT</tspan>
						</text>
						<g id="101-/-Headline__line" stroke="#EAECF0" stroke-linecap="square" stroke-width="3" transform="translate(0 22)">
							<path id="Line" d="M189.484 1.5H.516"/>
						</g>
					</g>
					<rect id="Mediawiki.Neutral.Normal-copy-2" width="114" height="33" x="191.5" y="343.5" fill="#F8F9FA" stroke="#A2A9B1" rx="2"/>
					<text id="Normal-Hover-Active" fill="#72777D" font-family="Lato-Regular, Lato" font-size="14" font-weight="normal">
						<tspan x="0" y="21">Normal</tspan>   <tspan x="0" y="77.1">Hover</tspan>   <tspan x="0" y="133.2">Active</tspan>   <tspan x="0" y="189.3">Focus</tspan>   <tspan x="0" y="245.4">Disabled</tspan>
					</text>
					<path id="Oval-59" fill="#222" d="M218 370c5.523 0 10-4.477 10-10s-4.477-10-10-10-10 4.477-10 10 4.477 10 10 10z"/>
					<text id="Button" fill="#222" font-family="HelveticaNeue-Bold, Helvetica Neue" font-size="16" font-weight="bold">
						<tspan x="237" y="367">Button</tspan>
					</text>
					<g id="-101-/-16-sp-(1-em)-+-2-*-8-sp-(0.5-em)" stroke-width="4" transform="rotate(90 -21 203)">
						<g id="101-/-16-sp-(1-em)" stroke="#D0021B" transform="translate(8)">
							<path id="16-sp-(1-em)" d="M0 2h16"/>
						</g>
						<g id="101-/-8-sp-(0.5-em)" stroke="#50E3C2" transform="translate(0 1)">
							<path id="8-sp-(0.5-em)" d="M0 1h8"/>
						</g>
						<g id="101-/-8-sp-(0.5-em)" stroke="#50E3C2" transform="translate(24)">
							<path id="8-sp-(0.5-em)" d="M0 2h8"/>
						</g>
					</g>
					<g id="101-/-8-sp-(0.5-em)" stroke="#50E3C2" stroke-width="4" transform="translate(228 359)">
						<path id="8-sp-(0.5-em)" d="M0 2h8"/>
					</g>
					<g id="BG">
						<rect width="121" height="30" x="381" y="169" fill="#36C" stroke="#FFF" stroke-linejoin="square" stroke-width="2" rx="2"/>
						<rect width="124" height="33" x="379.5" y="167.5" stroke="#36C" rx="2"/>
						<rect width="122" height="31" x="380.5" y="168.5" stroke="#36C" stroke-linejoin="square" rx="2"/>
					</g>
					<text id="8:16:8:16" fill="#FFF" font-family="HelveticaNeue-Bold, Helvetica Neue" font-size="16" font-weight="bold">
						<tspan x="396.452" y="190">Progressive</tspan>
					</text>
					<g id="BG">
						<rect width="118" height="30" x="544" y="169" fill="#D11D13" stroke="#FFF" stroke-linejoin="square" stroke-width="2" rx="2"/>
						<rect width="119" height="31" x="543.5" y="168.5" stroke="#D11D13" stroke-linejoin="square" rx="2"/>
						<rect width="121" height="33" x="542.5" y="167.5" stroke="#D11D13" rx="2"/>
					</g>
					<text id="8:16:8:16" fill="#FFF" font-family="HelveticaNeue-Bold, Helvetica Neue" font-size="16" font-weight="bold">
						<tspan x="559.288" y="191">Destructive</tspan>
					</text>
					<rect id="BG" width="124" height="33" x="379.5" y="111.5" fill="#2A4B8D" stroke="#2A4B8D" rx="2"/>
					<text id="8:16:8:16" fill="#FFF" font-family="HelveticaNeue-Bold, Helvetica Neue" font-size="16" font-weight="bold">
						<tspan x="396.452" y="135">Progressive</tspan>
					</text>
					<rect id="BG" width="121" height="33" x="542.5" y="111.5" fill="#951B19" stroke="#951B19" rx="2"/>
					<text id="8:16:8:16" fill="#FFF" font-family="HelveticaNeue-Bold, Helvetica Neue" font-size="16" font-weight="bold">
						<tspan x="559.288" y="135">Destructive</tspan>
					</text>
					<rect id="BG" width="124" height="33" x="379.5" y="55.5" fill="#447FF5" stroke="#447FF5" rx="2"/>
					<text id="8:16:8:16" fill="#FFF" font-family="HelveticaNeue-Bold, Helvetica Neue" font-size="16" font-weight="bold">
						<tspan x="396.452" y="79">Progressive</tspan>
					</text>
					<rect id="BG" width="121" height="33" x="542.5" y="55.5" fill="#B8211F" stroke="#B8211F" rx="2"/>
					<text id="8:16:8:16" fill="#FFF" font-family="HelveticaNeue-Bold, Helvetica Neue" font-size="16" font-weight="bold">
						<tspan x="559.288" y="79">Destructive</tspan>
					</text>
					<rect id="BG" width="124" height="33" x="379.5" y="-.5" fill="#36C" stroke="#36C" rx="2"/>
					<text id="8:16:8:16" fill="#FFF" font-family="HelveticaNeue-Bold, Helvetica Neue" font-size="16" font-weight="bold">
						<tspan x="396.452" y="23">Progressive</tspan>
					</text>
					<rect id="BG" width="120" height="32" x="543" y="0" fill="#D33" rx="2"/>
					<text id="8:16:8:16" fill="#FFF" font-family="HelveticaNeue-Bold, Helvetica Neue" font-size="16" font-weight="bold">
						<tspan x="559.288" y="23">Destructive</tspan>
					</text>
					<rect id="BG" width="124" height="33" x="379.5" y="223.5" fill="#C8CCD1" stroke="#C8CCD1" rx="2"/>
					<text id="8:16:8:16" fill="#FFF" font-family="HelveticaNeue-Bold, Helvetica Neue" font-size="16" font-weight="bold">
						<tspan x="396" y="247">Progressive</tspan>
					</text>
					<rect id="BG" width="121" height="33" x="542.5" y="223.5" fill="#C8CCD1" stroke="#C8CCD1" rx="2"/>
					<text id="8:16:8:16" fill="#FFF" font-family="HelveticaNeue-Bold, Helvetica Neue" font-size="16" font-weight="bold">
						<tspan x="559" y="247">Destructive</tspan>
					</text>
					<rect id="BG" width="89" height="33" x="191.5" y="223.5" fill="#C8CCD1" stroke="#C8CCD1" rx="2"/>
					<g id="101-/-16-sp-(1-em)" stroke="#D0021B" stroke-width="4" transform="translate(192 238)">
						<path id="16-sp-(1-em)" d="M0 2h16"/>
					</g>
					<path id="Line-235" stroke="#D0021B" stroke-width="4" d="M192 360h16"/>
					<path id="Line-234" stroke="#D0021B" stroke-width="4" d="M289 360h16"/>
					<rect id="Mediawiki.Neutral.Normal-copy-3" width="114" height="33" x="380.5" y="343.5" fill="#36C" stroke="#36C" rx="2"/>
					<circle id="Oval-77" cx="408" cy="360" r="10" fill="#FFF"/>
					<text id="Button-6" fill="#FFF" font-family="HelveticaNeue-Bold, Helvetica Neue" font-size="16" font-weight="bold">
						<tspan x="426.36" y="367">Button</tspan>
					</text>
					<rect id="Mediawiki.Neutral.Normal-copy-6" width="114" height="33" x="542.5" y="343.5" fill="#D11D13" stroke="#D11D13" rx="2"/>
					<circle id="Oval-82" cx="570" cy="360" r="10" fill="#FFF"/>
					<text id="Button-8" fill="#FFF" font-family="HelveticaNeue-Bold, Helvetica Neue" font-size="16" font-weight="bold">
						<tspan x="588.36" y="367">Button</tspan>
					</text>
					<text id="8:16:8:16" fill="#FFF" font-family="HelveticaNeue-Bold, Helvetica Neue" font-size="16" font-weight="bold">
						<tspan x="208" y="247">Neutral</tspan>
					</text>
					<rect id="BG" width="89" height="33" x="191.5" y="-.5" fill="#F8F9FA" stroke="#A2A9B1" rx="2"/>
					<text id="8:16:8:16" fill="#222" font-family="HelveticaNeue-Bold, Helvetica Neue" font-size="16" font-weight="bold">
						<tspan x="208" y="23">Neutral</tspan>
					</text>
					<rect id="BG" width="89" height="33" x="191.5" y="55.5" fill="#FFF" stroke="#A2A9B1" rx="2"/>
					<text id="8:16:8:16" fill="#222" font-family="HelveticaNeue-Bold, Helvetica Neue" font-size="16" font-weight="bold">
						<tspan x="208" y="79">Neutral</tspan>
					</text>
					<rect id="BG" width="89" height="33" x="191.5" y="111.5" fill="#EAECF0" stroke="#9AA0A7" rx="2"/>
					<text id="8:16:8:16" fill="#000" font-family="HelveticaNeue-Bold, Helvetica Neue" font-size="16" font-weight="bold">
						<tspan x="208" y="135">Neutral</tspan>
					</text>
					<g id="BG" stroke="#36C">
						<rect width="89" height="33" x="191.5" y="167.5" rx="2"/>
						<rect width="87" height="31" x="192.5" y="168.5" stroke-linejoin="square" rx="2"/>
					</g>
					<text id="8:16:8:16" fill="#222" font-family="HelveticaNeue-Bold, Helvetica Neue" font-size="16" font-weight="bold">
						<tspan x="208" y="191">Neutral</tspan>
					</text>
					<g id="Cursor-/-Pointer" transform="translate(259 130)">
						<g id="Cursor-Pointer">
							<use fill="#000" filter="url(#filter-5)" xlink:href="#path-4"/>
							<path fill="#FFF" stroke="#000" d="M5.499 15V1.424C5.499.365 6.346-.5 7.396-.5c1.052 0 1.91.865 1.91 1.925v7.172c.317-.189.689-.298 1.087-.298.977 0 1.809.653 2.044 1.54.332-.216.73-.341 1.16-.341.926 0 1.716.584 1.996 1.399a1.7 1.7 0 01.805-.201 1.69 1.69 0 011.697 1.683v-.002l.006 1.586v3.239c0 .257-.022.519-.066.787-.155.942-.512 1.811-1.212 3.158-1.01 1.946-1.165 2.297-1.165 2.853v.5h-8.99V24c0-.421-.472-1.169-1.853-3.03l-.079-.106a34.473 34.473 0 01-1.02-1.43c-.39-.583-.991-1.5-1.748-2.664l-.027-.043a1115.225 1115.225 0 01-2.009-3.1l-.199-.309c-.49-.83-.181-1.897.675-2.38.85-.48 1.932-.212 2.383.56L5.5 15z"/>
						</g>
					</g>
					<g id="Cursor-/-Pointer" transform="translate(260 74)">
						<g id="Cursor-Pointer">
							<use fill="#000" filter="url(#filter-7)" xlink:href="#path-6"/>
							<path fill="#FFF" stroke="#000" d="M5.499 15V1.424C5.499.365 6.346-.5 7.396-.5c1.052 0 1.91.865 1.91 1.925v7.172c.317-.189.689-.298 1.087-.298.977 0 1.809.653 2.044 1.54.332-.216.73-.341 1.16-.341.926 0 1.716.584 1.996 1.399a1.7 1.7 0 01.805-.201 1.69 1.69 0 011.697 1.683v-.002l.006 1.586v3.239c0 .257-.022.519-.066.787-.155.942-.512 1.811-1.212 3.158-1.01 1.946-1.165 2.297-1.165 2.853v.5h-8.99V24c0-.421-.472-1.169-1.853-3.03l-.079-.106a34.473 34.473 0 01-1.02-1.43c-.39-.583-.991-1.5-1.748-2.664l-.027-.043a1115.225 1115.225 0 01-2.009-3.1l-.199-.309c-.49-.83-.181-1.897.675-2.38.85-.48 1.932-.212 2.383.56L5.5 15z"/>
						</g>
					</g>
					<g id="Cursor-/-!default" transform="translate(266 249)">
						<g id="cursor" fill="#000">
							<use filter="url(#filter-9)" xlink:href="#path-8"/>
							<path stroke="#FFF" d="M6.448 11.787l2.721 6.886c.273.675-.094 1.44-.79 1.72-.696.283-1.491-.013-1.765-.692l-2.708-6.853-2.483 2.963-.077.075c-.901.695-1.848.236-1.846-.902L-.474.669c0-.618.027-.82.271-1.028.4-.34.694-.163 1.14.298l10.66 10.157c.793.817.432 1.805-.782 1.933l-4.367-.242z"/>
						</g>
					</g>
				</g>
			</g>
			<g id="101-/-16-sp-(1-em)" stroke="#D0021B" stroke-width="4" transform="translate(2024 494)">
				<path id="16-sp-(1-em)" d="M0 2h16"/>
			</g>
		</g>
	</g>
</svg>
