<svg xmlns="http://www.w3.org/2000/svg" viewBox="0 0 114 34"><rect x="1.5" y="1.5" width="111" height="31" rx="2" fill="#d33" stroke="#d33"/><g style="isolation:isolate"><path d="M19.32 11.58a5.79 5.79 0 0 1 2.06.35A4.36 4.36 0 0 1 23 13a4.82 4.82 0 0 1 1.09 1.76 7.17 7.17 0 0 1 .39 2.48 7.73 7.73 0 0 1-.32 2.31 5 5 0 0 1-1 1.82 4.57 4.57 0 0 1-1.62 1.21 5.55 5.55 0 0 1-2.28.44h-4.87V11.58zm-.18 9.31a3.15 3.15 0 0 0 1.06-.18 2.32 2.32 0 0 0 .91-.58 2.88 2.88 0 0 0 .64-1.07 4.65 4.65 0 0 0 .24-1.6 6.32 6.32 0 0 0-.17-1.56 3 3 0 0 0-.55-1.19 2.44 2.44 0 0 0-1-.76 4.24 4.24 0 0 0-1.56-.26H16.9v7.2zm9.3.11a2.36 2.36 0 0 0 2.66.15 1.38 1.38 0 0 0 .6-.73h2a3.82 3.82 0 0 1-1.47 2.13 4.3 4.3 0 0 1-2.4.64 4.88 4.88 0 0 1-1.76-.31 3.84 3.84 0 0 1-1.33-.88 4.09 4.09 0 0 1-.84-1.38 5.2 5.2 0 0 1-.29-1.76 4.91 4.91 0 0 1 .3-1.73 4.06 4.06 0 0 1 2.2-2.3 4.36 4.36 0 0 1 1.72-.34 3.93 3.93 0 0 1 1.84.41A3.71 3.71 0 0 1 33 16a4.44 4.44 0 0 1 .73 1.57 5.88 5.88 0 0 1 .16 1.84h-6a2.3 2.3 0 0 0 .55 1.59zM31 16.66a1.63 1.63 0 0 0-1.24-.44 2 2 0 0 0-.91.18 1.55 1.55 0 0 0-.57.46 1.6 1.6 0 0 0-.31.57 3.23 3.23 0 0 0-.1.55h3.7a2.69 2.69 0 0 0-.57-1.32zm6.1 4.28a1.54 1.54 0 0 0 .4.44 1.61 1.61 0 0 0 .55.24 2.32 2.32 0 0 0 .65.08 2.23 2.23 0 0 0 .5-.05 1.71 1.71 0 0 0 .48-.18 1.1 1.1 0 0 0 .36-.32.8.8 0 0 0 .14-.5c0-.34-.22-.6-.68-.77a13.4 13.4 0 0 0-1.89-.51 9.87 9.87 0 0 1-1-.27 3.26 3.26 0 0 1-.84-.4 1.84 1.84 0 0 1-.59-.62 1.77 1.77 0 0 1-.23-.92 2.47 2.47 0 0 1 .32-1.31 2.27 2.27 0 0 1 .82-.81 3.59 3.59 0 0 1 1.15-.42 7.17 7.17 0 0 1 1.31-.12 7 7 0 0 1 1.31.13 3.64 3.64 0 0 1 1.13.43 2.75 2.75 0 0 1 .82.81 2.68 2.68 0 0 1 .39 1.27h-2.13a1 1 0 0 0-.49-.88 2.21 2.21 0 0 0-1.06-.26h-.42a1.24 1.24 0 0 0-.4.1.94.94 0 0 0-.32.23.66.66 0 0 0-.12.41.62.62 0 0 0 .22.5 1.68 1.68 0 0 0 .58.31c.24.08.52.15.83.22l.94.2a9.89 9.89 0 0 1 1 .28 3 3 0 0 1 .84.42 2.07 2.07 0 0 1 .59.66 1.89 1.89 0 0 1 .23 1 2.52 2.52 0 0 1-1.19 2.26 3.52 3.52 0 0 1-1.21.47 7 7 0 0 1-1.38.14 6.62 6.62 0 0 1-1.41-.15 3.46 3.46 0 0 1-1.22-.48 2.74 2.74 0 0 1-.88-.88 2.78 2.78 0 0 1-.38-1.39H37a1.22 1.22 0 0 0 .1.64zm11.23-6.21v1.52h-1.67v4.09a1.1 1.1 0 0 0 .2.77 1.07 1.07 0 0 0 .76.19H48l.34-.05V23a5.82 5.82 0 0 1-.64.06h-.69A6.36 6.36 0 0 1 46 23a2.39 2.39 0 0 1-.83-.28 1.54 1.54 0 0 1-.57-.59 2.13 2.13 0 0 1-.21-1v-4.88H43v-1.52h1.37v-2.48h2.27v2.48zm3.25 0v1.53a2.75 2.75 0 0 1 .43-.71 3 3 0 0 1 .62-.56 3.53 3.53 0 0 1 .76-.36 2.83 2.83 0 0 1 .83-.13 1.85 1.85 0 0 1 .49.08v2.12a2.77 2.77 0 0 0-.38-.06 3.17 3.17 0 0 0-.43 0 2.57 2.57 0 0 0-1.06.2 1.77 1.77 0 0 0-.69.57 2.15 2.15 0 0 0-.38.84 4.88 4.88 0 0 0-.11 1V23h-2.24v-8.27zM61.24 23v-1.15h-.05a2.6 2.6 0 0 1-1.12 1 3.37 3.37 0 0 1-1.41.32 3.94 3.94 0 0 1-1.49-.17 2.16 2.16 0 0 1-.92-.68 2.55 2.55 0 0 1-.47-1.07 6.09 6.09 0 0 1-.14-1.4v-5.12h2.27v4.67a3 3 0 0 0 .32 1.53 1.25 1.25 0 0 0 1.14.5 1.56 1.56 0 0 0 1.34-.55 3 3 0 0 0 .42-1.82v-4.33h2.27V23zm7.84-6.78a1.62 1.62 0 0 0-.91.24 1.93 1.93 0 0 0-.6.64 2.62 2.62 0 0 0-.33.87 4.33 4.33 0 0 0 0 1.85 2.81 2.81 0 0 0 .31.84 1.88 1.88 0 0 0 .58.61 1.63 1.63 0 0 0 .9.24 1.69 1.69 0 0 0 1.26-.45 2.26 2.26 0 0 0 .55-1.23H73a3.71 3.71 0 0 1-1.28 2.51 4.09 4.09 0 0 1-2.7.87 4.73 4.73 0 0 1-1.71-.31A3.87 3.87 0 0 1 66 22a4 4 0 0 1-.85-1.33 4.73 4.73 0 0 1-.3-1.71 5.4 5.4 0 0 1 .28-1.78 4.07 4.07 0 0 1 .87-1.4 3.83 3.83 0 0 1 1.33-.94 4.61 4.61 0 0 1 1.79-.34 5.13 5.13 0 0 1 1.42.2 3.72 3.72 0 0 1 1.22.58A3 3 0 0 1 73 17.64h-2.24a1.52 1.52 0 0 0-1.68-1.42zm9.78-1.49v1.52h-1.67v4.09a1.1 1.1 0 0 0 .19.77 1.12 1.12 0 0 0 .77.19h.37l.34-.05V23a6 6 0 0 1-.65.06h-.68a6.28 6.28 0 0 1-1-.07 2.26 2.26 0 0 1-.83-.28 1.54 1.54 0 0 1-.57-.59 2.13 2.13 0 0 1-.21-1v-4.87h-1.38v-1.52h1.38v-2.48h2.27v2.48zM80 13.45v-1.87h2.27v1.87zm2.27 1.28V23H80v-8.27zM86.12 23l-2.83-8.27h2.38l1.75 5.65 1.74-5.65h2.26L88.65 23zm8.7-2a2.36 2.36 0 0 0 2.66.15 1.45 1.45 0 0 0 .61-.73h2a3.79 3.79 0 0 1-1.48 2.13 4.3 4.3 0 0 1-2.4.64 4.92 4.92 0 0 1-1.76-.31 3.71 3.71 0 0 1-1.32-.88 3.8 3.8 0 0 1-.84-1.38 5.22 5.22 0 0 1 0-3.49 4.1 4.1 0 0 1 .87-1.38 4 4 0 0 1 1.33-.92 4.36 4.36 0 0 1 1.72-.34 3.93 3.93 0 0 1 1.84.41 3.54 3.54 0 0 1 1.29 1.1 4.44 4.44 0 0 1 .73 1.57 5.88 5.88 0 0 1 .16 1.84h-6a2.3 2.3 0 0 0 .59 1.59zm2.57-4.36a1.61 1.61 0 0 0-1.24-.44 2 2 0 0 0-.9.18 1.68 1.68 0 0 0-.88 1 2.54 2.54 0 0 0-.11.55H98a2.69 2.69 0 0 0-.61-1.27z" fill="#fff"/></g></svg>