<?xml version="1.0" encoding="UTF-8"?>
<svg xmlns="http://www.w3.org/2000/svg" xmlns:xlink="http://www.w3.org/1999/xlink" width="657" height="276" viewBox="0 0 657 276">
	<title>
		buttons_normal_and_primary_states
	</title>
	<defs>
		<filter id="filter-5" width="173.9%" height="154.2%" x="-36.9%" y="-18.8%" filterUnits="objectBoundingBox">
			<feMorphology in="SourceAlpha" operator="dilate" radius="1" result="shadowSpreadOuter1"/>
			<feOffset dy="1" in="shadowSpreadOuter1" result="shadowOffsetOuter1"/>
			<feGaussianBlur in="shadowOffsetOuter1" result="shadowBlurOuter1" stdDeviation=".5"/>
			<feComposite in="shadowBlurOuter1" in2="SourceAlpha" operator="out" result="shadowBlurOuter1"/>
			<feColorMatrix in="shadowBlurOuter1" result="shadowMatrixOuter1" values="0 0 0 0 0 0 0 0 0 0 0 0 0 0 0 0 0 0 0.582908741 0"/>
			<feMorphology in="SourceAlpha" operator="dilate" radius="1" result="shadowSpreadOuter2"/>
			<feOffset dy="2" in="shadowSpreadOuter2" result="shadowOffsetOuter2"/>
			<feGaussianBlur in="shadowOffsetOuter2" result="shadowBlurOuter2" stdDeviation="1.5"/>
			<feComposite in="shadowBlurOuter2" in2="SourceAlpha" operator="out" result="shadowBlurOuter2"/>
			<feColorMatrix in="shadowBlurOuter2" result="shadowMatrixOuter2" values="0 0 0 0 0 0 0 0 0 0 0 0 0 0 0 0 0 0 0.25 0"/>
			<feMerge>
				<feMergeNode in="shadowMatrixOuter1"/>
				<feMergeNode in="shadowMatrixOuter2"/>
			</feMerge>
		</filter>
		<filter id="filter-7" width="173.9%" height="154.2%" x="-36.9%" y="-18.8%" filterUnits="objectBoundingBox">
			<feMorphology in="SourceAlpha" operator="dilate" radius="1" result="shadowSpreadOuter1"/>
			<feOffset dy="1" in="shadowSpreadOuter1" result="shadowOffsetOuter1"/>
			<feGaussianBlur in="shadowOffsetOuter1" result="shadowBlurOuter1" stdDeviation=".5"/>
			<feComposite in="shadowBlurOuter1" in2="SourceAlpha" operator="out" result="shadowBlurOuter1"/>
			<feColorMatrix in="shadowBlurOuter1" result="shadowMatrixOuter1" values="0 0 0 0 0 0 0 0 0 0 0 0 0 0 0 0 0 0 0.582908741 0"/>
			<feMorphology in="SourceAlpha" operator="dilate" radius="1" result="shadowSpreadOuter2"/>
			<feOffset dy="2" in="shadowSpreadOuter2" result="shadowOffsetOuter2"/>
			<feGaussianBlur in="shadowOffsetOuter2" result="shadowBlurOuter2" stdDeviation="1.5"/>
			<feComposite in="shadowBlurOuter2" in2="SourceAlpha" operator="out" result="shadowBlurOuter2"/>
			<feColorMatrix in="shadowBlurOuter2" result="shadowMatrixOuter2" values="0 0 0 0 0 0 0 0 0 0 0 0 0 0 0 0 0 0 0.25 0"/>
			<feMerge>
				<feMergeNode in="shadowMatrixOuter1"/>
				<feMergeNode in="shadowMatrixOuter2"/>
			</feMerge>
		</filter>
		<filter id="filter-9" width="212.4%" height="164.2%" x="-56%" y="-21.7%" filterUnits="objectBoundingBox">
			<feMorphology in="SourceAlpha" operator="dilate" radius="1" result="shadowSpreadOuter1"/>
			<feOffset dy="1" in="shadowSpreadOuter1" result="shadowOffsetOuter1"/>
			<feGaussianBlur in="shadowOffsetOuter1" result="shadowBlurOuter1" stdDeviation=".5"/>
			<feComposite in="shadowBlurOuter1" in2="SourceAlpha" operator="out" result="shadowBlurOuter1"/>
			<feColorMatrix in="shadowBlurOuter1" result="shadowMatrixOuter1" values="0 0 0 0 0 0 0 0 0 0 0 0 0 0 0 0 0 0 0.582908741 0"/>
			<feMorphology in="SourceAlpha" operator="dilate" radius="1" result="shadowSpreadOuter2"/>
			<feOffset dy="2" in="shadowSpreadOuter2" result="shadowOffsetOuter2"/>
			<feGaussianBlur in="shadowOffsetOuter2" result="shadowBlurOuter2" stdDeviation="1.5"/>
			<feComposite in="shadowBlurOuter2" in2="SourceAlpha" operator="out" result="shadowBlurOuter2"/>
			<feColorMatrix in="shadowBlurOuter2" result="shadowMatrixOuter2" values="0 0 0 0 0 0 0 0 0 0 0 0 0 0 0 0 0 0 0.25 0"/>
			<feMerge>
				<feMergeNode in="shadowMatrixOuter1"/>
				<feMergeNode in="shadowMatrixOuter2"/>
			</feMerge>
		</filter>
		<rect id="path-1" width="115" height="32" x="380" y="195" rx="2"/>
		<rect id="path-2" width="112" height="32" x="543" y="195" rx="2"/>
		<rect id="path-3" width="80" height="32" x="192" y="195" rx="2"/>
		<path id="path-4" d="M17.595 12.379a1.19 1.19 0 00-1.197-1.183 1.19 1.19 0 00-1.196 1.179v-.826c0-.857-.719-1.551-1.606-1.551-.886 0-1.592.694-1.592 1.55V10.35c0-.856-.728-1.55-1.611-1.55s-1.586.694-1.586 1.55V1.425C8.807.638 8.168 0 7.397 0c-.772 0-1.398.638-1.398 1.425v15.038l-3.603-4.659c-.346-.586-1.126-.779-1.742-.431-.617.348-.836 1.105-.49 1.691 0 0 2.817 4.369 3.967 6.093C5.281 20.882 7.17 23.01 7.17 24h7.989c0-1.672 2.443-4.283 2.443-6.798v-3.24l-.006-1.583z"/>
		<path id="path-6" d="M17.595 12.379a1.19 1.19 0 00-1.197-1.183 1.19 1.19 0 00-1.196 1.179v-.826c0-.857-.719-1.551-1.606-1.551-.886 0-1.592.694-1.592 1.55V10.35c0-.856-.728-1.55-1.611-1.55s-1.586.694-1.586 1.55V1.425C8.807.638 8.168 0 7.397 0c-.772 0-1.398.638-1.398 1.425v15.038l-3.603-4.659c-.346-.586-1.126-.779-1.742-.431-.617.348-.836 1.105-.49 1.691 0 0 2.817 4.369 3.967 6.093C5.281 20.882 7.17 23.01 7.17 24h7.989c0-1.672 2.443-4.283 2.443-6.798v-3.24l-.006-1.583z"/>
		<path id="path-8" d="M6.132 11.269l4.71.26c.72-.08.899-.568.397-1.085L.592.3C.09-.216.027-.049.026.671L0 14.984c-.001.72.467.947 1.04.505l2.742-3.272c.095-.074.208-.146.327-.218l2.97 7.517c.165.41.664.595 1.113.413.449-.18.68-.66.514-1.07l-2.972-7.518.398-.073z"/>
	</defs>
	<g id="Artboard-page" fill="none" fill-rule="evenodd" stroke="none" stroke-width="1">
		<g id="WikimediaUI-components_overview" transform="translate(-946 -255)">
			<path fill="#FFF" d="M0 0h14100v3264H0z"/>
			<g id="BUTTONS-NORMAL-&amp;-PRIMARY" transform="translate(946 143)">
				<g id="Normal-&amp;-Primary-Buttons-X" transform="translate(1 86)">
					<text id="Normal-Hover-Active" fill="#72777D" font-family="Lato-Regular, Lato, sans-serif" font-size="14" font-weight="normal">
						<tspan x="0" y="48">Normal</tspan> <tspan x="0" y="104.1">Hover</tspan> <tspan x="0" y="160.2">Active</tspan> <tspan x="0" y="216.3">Focus</tspan> <tspan x="0" y="272.4">Disabled</tspan>
					</text>
					<g id="BG">
						<rect width="113" height="30" x="381" y="196" fill="#36C" stroke="#FFF" stroke-linejoin="square" stroke-width="2" rx="2"/>
						<rect width="116" height="33" x="379.5" y="194.5" stroke="#36C" rx="2"/>
						<rect width="114" height="31" x="380.5" y="195.5" stroke="#36C" stroke-linejoin="square" rx="2"/>
					</g>
					<text id="Label" fill="#FFF" font-family="HelveticaNeue-Bold, Helvetica Neue, sans-serif" font-size="16" font-weight="bold">
						<tspan x="392.452" y="217">Progressive</tspan>
					</text>
					<g id="BG">
						<rect width="110" height="30" x="544" y="196" fill="#D11D13" stroke="#FFF" stroke-linejoin="square" stroke-width="2" rx="2"/>
						<rect width="111" height="31" x="543.5" y="195.5" stroke="#D11D13" stroke-linejoin="square" rx="2"/>
						<rect width="113" height="33" x="542.5" y="194.5" stroke="#D11D13" rx="2"/>
					</g>
					<text id="Label" fill="#FFF" font-family="HelveticaNeue-Bold, Helvetica Neue, sans-serif" font-size="16" font-weight="bold">
						<tspan x="555.288" y="217">Destructive</tspan>
					</text>
					<rect id="BG" width="114" height="31" x="380.5" y="139.5" fill="#2A4B8D" stroke="#2A4B8D" rx="2"/>
					<text id="Label" fill="#FFF" font-family="HelveticaNeue-Bold, Helvetica Neue, sans-serif" font-size="16" font-weight="bold">
						<tspan x="392.452" y="161">Progressive</tspan>
					</text>
					<rect id="BG" width="111" height="31" x="543.5" y="139.5" fill="#B32424" stroke="#B32424" rx="2"/>
					<text id="Label" fill="#FFF" font-family="HelveticaNeue-Bold, Helvetica Neue, sans-serif" font-size="16" font-weight="bold">
						<tspan x="555.288" y="161">Destructive</tspan>
					</text>
					<g id="Button-/---progressive-/-!default" transform="translate(380 83)">
						<rect id="bg" width="114" height="31" x=".5" y=".5" fill="#447FF5" fill-rule="evenodd" stroke="#447FF5" stroke-width="1" rx="2"/>
						<text id="label" fill="#FFF" font-family="HelveticaNeue-Bold, Helvetica Neue, sans-serif" font-size="16" font-weight="bold">
							<tspan x="12.452" y="22">Progressive</tspan>
						</text>
					</g>
					<rect id="BG" width="111" height="31" x="543.5" y="83.5" fill="#FF4242" stroke="#FF4242" rx="2"/>
					<text id="Label" fill="#FFF" font-family="HelveticaNeue-Bold, Helvetica Neue, sans-serif" font-size="16" font-weight="bold">
						<tspan x="555.288" y="105">Destructive</tspan>
					</text>
					<g id="Button-/---progressive-/-!default" transform="translate(380 27)">
						<rect id="bg" width="114" height="31" x=".5" y=".5" fill="#36C" fill-rule="evenodd" stroke="#36C" stroke-width="1" rx="2"/>
						<text id="label" fill="#FFF" font-family="HelveticaNeue-Bold, Helvetica Neue, sans-serif" font-size="16" font-weight="bold">
							<tspan x="12.452" y="22">Progressive</tspan>
						</text>
					</g>
					<g id="Button-/---destructive-/-!default" transform="translate(543 27)">
						<rect id="bg" width="111" height="31" x=".5" y=".5" fill="#D33" fill-rule="evenodd" stroke="#D33" stroke-width="1" rx="2"/>
						<text id="label" fill="#FFF" font-family="HelveticaNeue-Bold, Helvetica Neue, sans-serif" font-size="16" font-weight="bold">
							<tspan x="12.288" y="22">Destructive</tspan>
						</text>
					</g>
					<rect id="BG" width="114" height="31" x="380.5" y="251.5" fill="#C8CCD1" stroke="#C8CCD1" rx="2"/>
					<text id="Label" fill="#FFF" font-family="HelveticaNeue-Bold, Helvetica Neue, sans-serif" font-size="16" font-weight="bold">
						<tspan x="392" y="274">Progressive</tspan>
					</text>
					<rect id="BG" width="111" height="31" x="543.5" y="251.5" fill="#C8CCD1" stroke="#C8CCD1" rx="2"/>
					<text id="Label" fill="#FFF" font-family="HelveticaNeue-Bold, Helvetica Neue, sans-serif" font-size="16" font-weight="bold">
						<tspan x="555" y="273">Destructive</tspan>
					</text>
					<rect id="BG" width="79" height="31" x="192.5" y="251.5" fill="#C8CCD1" stroke="#C8CCD1" rx="2"/>
					<text id="Label" fill="#FFF" font-family="HelveticaNeue-Bold, Helvetica Neue, sans-serif" font-size="16" font-weight="bold">
						<tspan x="204" y="273">Normal</tspan>
					</text>
					<g id="Button-/-!default-(--neutral)" transform="translate(192 27)">
						<rect id="bg" width="79" height="31" x=".5" y=".5" fill="#F8F9FA" fill-rule="evenodd" stroke="#A2A9B1" stroke-width="1" rx="2"/>
						<text id="Label" fill="#202122" font-family="HelveticaNeue-Bold, Helvetica Neue, sans-serif" font-size="16" font-weight="bold">
							<tspan x="12.168" y="22">Normal</tspan>
						</text>
					</g>
					<rect id="BG" width="79" height="31" x="192.5" y="83.5" fill="#FFF" stroke="#A2A9B1" rx="2"/>
					<text id="Label" fill="#404244" font-family="HelveticaNeue-Bold, Helvetica Neue, sans-serif" font-size="16" font-weight="bold">
						<tspan x="204" y="105">Normal</tspan>
					</text>
					<rect id="BG" width="79" height="31" x="192.5" y="139.5" fill="#EAECF0" stroke="#72777D" rx="2"/>
					<text id="Label" fill="#000" font-family="HelveticaNeue-Bold, Helvetica Neue, sans-serif" font-size="16" font-weight="bold">
						<tspan x="204" y="161">Normal</tspan>
					</text>
					<g id="BG" stroke="#36C" stroke-linejoin="square">
						<rect width="78" height="30" x="193" y="196" stroke-width="2" rx="2"/>
						<rect width="79" height="31" x="192.5" y="195.5" rx="2"/>
					</g>
					<text id="Label" fill="#202122" font-family="HelveticaNeue-Bold, Helvetica Neue, sans-serif" font-size="16" font-weight="bold">
						<tspan x="204.168" y="217">Normal</tspan>
					</text>
					<g id="Cursor-/-Pointer" transform="translate(256 157)">
						<g id="Cursor-Pointer">
							<use fill="#000" filter="url(#filter-5)" xlink:href="#path-4"/>
							<path fill="#FFF" stroke="#000" d="M12.439 9.845a2.038 2.038 0 00-.561-.95 2.138 2.138 0 00-2.571-.298V1.425A1.925 1.925 0 007.397-.5c-.526 0-1.002.216-1.346.567-.34.348-.552.828-.552 1.358V15l-2.69-3.478a1.729 1.729 0 00-1.063-.768 1.83 1.83 0 00-1.338.184 1.778 1.778 0 00-.84 1.053c-.126.435-.08.912.176 1.345 0 0 2.82 4.373 3.971 6.1.345.517.755 1.07 1.161 1.617.868 1.17 1.793 2.306 1.793 2.948 0 .144-.047.312-.128.5h9.221c-.352-.755.25-1.803.875-2.996.704-1.343 1.464-2.841 1.464-4.302v-3.24l-.006-1.585c0-.464-.19-.885-.499-1.19a1.7 1.7 0 00-1.198-.491 1.7 1.7 0 00-.805.201 2.043 2.043 0 00-.514-.805 2.127 2.127 0 00-1.483-.594c-.43 0-.826.124-1.157.347z"/>
						</g>
					</g>
					<g id="Cursor-/-Pointer" transform="translate(256 101)">
						<g id="Cursor-Pointer">
							<use fill="#000" filter="url(#filter-7)" xlink:href="#path-6"/>
							<path fill="#FFF" stroke="#000" d="M12.439 9.845a2.038 2.038 0 00-.561-.95 2.138 2.138 0 00-2.571-.298V1.425A1.925 1.925 0 007.397-.5c-.526 0-1.002.216-1.346.567-.34.348-.552.828-.552 1.358V15l-2.69-3.478a1.729 1.729 0 00-1.063-.768 1.83 1.83 0 00-1.338.184 1.778 1.778 0 00-.84 1.053c-.126.435-.08.912.176 1.345 0 0 2.82 4.373 3.971 6.1.345.517.755 1.07 1.161 1.617.868 1.17 1.793 2.306 1.793 2.948 0 .144-.047.312-.128.5h9.221c-.352-.755.25-1.803.875-2.996.704-1.343 1.464-2.841 1.464-4.302v-3.24l-.006-1.585c0-.464-.19-.885-.499-1.19a1.7 1.7 0 00-1.198-.491 1.7 1.7 0 00-.805.201 2.043 2.043 0 00-.514-.805 2.127 2.127 0 00-1.483-.594c-.43 0-.826.124-1.157.347z"/>
						</g>
					</g>
					<g id="Cursor-/-!default" transform="translate(262 276)">
						<g id="Cursor" fill="#000">
							<use filter="url(#filter-9)" xlink:href="#path-8"/>
							<path stroke="#FFF" d="M3.936 12.924L6.614 19.7c.137.34.408.59.741.713.31.116.677.12 1.025-.02.346-.14.606-.398.75-.697a1.26 1.26 0 00.039-1.024l-2.72-6.886 4.404.244a1.63 1.63 0 00.67-.195.977.977 0 00.445-.514.97.97 0 00-.011-.68 1.584 1.584 0 00-.366-.554L.943-.055C.7-.303.478-.353-.217.204c-.07.246-.131.76-.17 1.734-.078 1.911-.1 5.713.008 13.687a.971.971 0 00.465.498.98.98 0 00.678.06c.191-.048.405-.153.627-.333l2.545-2.926z"/>
						</g>
					</g>
				</g>
			</g>
		</g>
	</g>
</svg>
