<?xml version="1.0" encoding="UTF-8"?>
<svg xmlns="http://www.w3.org/2000/svg" xmlns:xlink="http://www.w3.org/1999/xlink" width="295" height="90" viewBox="0 0 295 90">
	<title>
		buttons_toggle_intro
	</title>
	<defs>
		<path id="path-1" d="M14 8h-1V2a2 2 0 002-2H5a2 2 0 002 2v6H6a2 2 0 00-2 2v1h5v5l1 4 1-4v-5h5v-1a2 2 0 00-2-2z"/>
		<path id="path-3" d="M14 8h-1V2a2 2 0 002-2H5a2 2 0 002 2v6H6a2 2 0 00-2 2v1h5v5l1 4 1-4v-5h5v-1a2 2 0 00-2-2z"/>
	</defs>
	<g id="Artboard-page" fill="none" fill-rule="evenodd" stroke="none" stroke-width="1">
		<g id="WikimediaUI-components_overview" transform="translate(-1759 -719)">
			<path fill="#FFF" d="M0 0h14720v3264H0z"/>
			<g id="BUTTONS-NORMAL-&amp;-PRIMARY" transform="translate(1759 143)">
				<g id="Normal-&amp;-Primary-Buttons-X" transform="translate(1 86)">
					<g id="Toggle-Buttons" transform="translate(0 491)">
						<g id="Button-toggle-/-!default" transform="translate(192)">
							<rect id="bg" width="100" height="31" x=".5" y=".5" fill="#F8F9FA" fill-rule="evenodd" stroke="#A2A9B1" stroke-width="1" rx="2"/>
							<g id="🔣-Icon/Moderation/pushPin" transform="translate(12 6)">
								<mask id="mask-2" fill="#fff">
									<use xlink:href="#path-1"/>
								</mask>
								<use id="Mask" fill="#000" fill-rule="evenodd" xlink:href="#path-1"/>
								<g id="🎨-Color/Base/B10-(#222)" fill="#222" fill-rule="evenodd" mask="url(#mask-2)">
									<path id="Rectangle-1" d="M0 0h20v20H0z"/>
								</g>
							</g>
							<text id="Label" fill="#222" font-family="HelveticaNeue-Bold, Helvetica Neue, sans-serif" font-size="16" font-weight="bold">
								<tspan x="38" y="22">Toggle</tspan>
							</text>
						</g>
						<g id="Button-toggle-/-:selected" transform="translate(192 56)">
							<rect id="bg" width="100" height="31" x=".5" y=".5" fill="#2A4B8D" fill-rule="evenodd" stroke="#2A4B8D" stroke-width="1" rx="2"/>
							<text id="Label" fill="#FFF" font-family="HelveticaNeue-Bold, Helvetica Neue, sans-serif" font-size="16" font-weight="bold">
								<tspan x="38" y="22">Toggle</tspan>
							</text>
							<g id="🔣-Icon/Moderation/pushPin" transform="translate(12 6)">
								<mask id="mask-4" fill="#fff">
									<use xlink:href="#path-3"/>
								</mask>
								<use id="Mask" fill="#000" fill-rule="evenodd" xlink:href="#path-3"/>
								<g id="🎨-Color/Base100-#fff" fill="#FFF" fill-rule="evenodd" mask="url(#mask-4)">
									<path id="Rectangle-1" d="M0 0h20v20H0z"/>
								</g>
							</g>
						</g>
						<text id="Normal-Selected" fill="#72777D" font-family="Lato-Regular, Lato, sans-serif" font-size="14" font-weight="normal">
							<tspan x="0" y="21">Normal</tspan> <tspan x="0" y="77.1">Selected</tspan>
						</text>
					</g>
				</g>
			</g>
		</g>
	</g>
</svg>
