<?xml version="1.0" encoding="UTF-8"?>
<svg xmlns="http://www.w3.org/2000/svg" width="140" height="34" viewBox="0 0 140 34">
	<title>
		buttons_designing
	</title>
	<g id="Artboard-page" fill="none" fill-rule="evenodd" stroke="none" stroke-width="1">
		<g id="WikimediaUI-components_overview" transform="translate(-1937 -599)">
			<path fill="#FFF" d="M0 0h14720v3264H0z"/>
			<g id="BUTTONS-NORMAL-&amp;-PRIMARY" transform="translate(1759 143)">
				<g id="Normal-&amp;-Primary-Buttons-X" transform="translate(1 86)">
					<rect id="Mediawiki.Neutral.Normal-copy-2" width="123" height="31" x="192.5" y="371.5" fill="#F8F9FA" stroke="#A2A9B1" rx="2"/>
					<g id="Icon-/-Dropdown-indicator-/-!default" fill="#202122" transform="translate(292 385)">
						<path id="Shape" d="M12 1.264L10.842 0 6 4.632 1.264 0 0 1.264l6 6 6-6"/>
					</g>
					<path id="Oval-59" fill="#202122" d="M214 397c5.523 0 10-4.477 10-10s-4.477-10-10-10-10 4.477-10 10 4.477 10 10 10z"/>
					<text id="Button" fill="#202122" font-family="HelveticaNeue-Bold, Helvetica Neue, sans-serif" font-size="16" font-weight="bold">
						<tspan x="232" y="393">Button</tspan>
					</text>
					<g id="_Spec-/-16-sp-(1-em)-+-2-*-8-sp-(0.5-em)" stroke-width="4" transform="rotate(90 -94.5 276.5)">
						<g id="_Spec-/-16-sp-(1-em)" stroke="#D0021B" transform="translate(8)">
							<path id="16-sp-(1-em)" d="M0 2h16"/>
						</g>
						<g id="_Spec-/-8-sp-(0.5-em)" stroke="#50E3C2" transform="translate(0 1)">
							<path id="8-sp-(0.5-em)" d="M0 1h8"/>
						</g>
						<g id="_Spec-/-8-sp-(0.5-em)" stroke="#50E3C2" transform="translate(24)">
							<path id="8-sp-(0.5-em)" d="M0 2h8"/>
						</g>
					</g>
					<g id="_Spec-/-8-sp-(0.5-em)" stroke="#50E3C2" stroke-width="4" transform="translate(224 385)">
						<path id="8-sp-(0.5-em)" d="M0 2h8"/>
					</g>
					<g id="_Spec-/-8-sp-(0.5-em)" stroke="#50E3C2" stroke-width="4" transform="translate(284 385)">
						<path id="8-sp-(0.5-em)" d="M0 2h8"/>
					</g>
					<g id="_Spec-/-12-sp-(0.75-em)" stroke="#0082FF" stroke-width="4" transform="translate(192 386.5)">
						<path id=".75em" d="M0 .5h12"/>
					</g>
					<g id="_Spec-/-12-sp-(0.75-em)" stroke="#0082FF" stroke-width="4" transform="translate(304 386.5)">
						<path id=".75em" d="M0 .5h12"/>
					</g>
				</g>
			</g>
		</g>
	</g>
</svg>
