<svg xmlns="http://www.w3.org/2000/svg" viewBox="0 0 657 276"><g style="isolation:isolate" font-size="14px" fill="#72777d" font-family="Lato-Regular, Lato"><text transform="translate(1 22)" style="isolation:isolate" letter-spacing="-0.015485491071428572em">N<tspan x="10.47" y="0" letter-spacing="-0.00003487723214285714em">ormal</tspan></text><text transform="translate(46.28 22)"></text><text transform="translate(1 78.1)" style="isolation:isolate"><tspan letter-spacing="-0.015485491071428572em">H</tspan><tspan x="10.47" y="0" letter-spacing="-0.014020647321428572em">ov</tspan><tspan x="25.24" y="0">e</tspan><tspan x="32.63" y="0" letter-spacing="-0.02099609375em">r</tspan></text><text transform="translate(38.73 78.1)"></text><text transform="translate(1 134.2)" style="isolation:isolate" letter-spacing="-0.013497488839285714em">A<tspan x="9.29" y="0" letter-spacing="-0.00003487723214285714em">cti</tspan><tspan x="24.6" y="0" letter-spacing="-0.013950892857142858em">v</tspan><tspan x="31.63" y="0" letter-spacing="-0.00003487723214285714em">e</tspan></text><text transform="translate(39.77 134.2)"></text><text transform="translate(1 190.3)" style="isolation:isolate"><tspan letter-spacing="-0.043491908482142856em">F</tspan><tspan x="7.31" y="0">ocus</tspan></text><text transform="translate(36.8 190.3)"></text><text transform="translate(1 246.4)" style="isolation:isolate"><tspan letter-spacing="-0.010009765625em">D</tspan><tspan x="10.51" y="0">isabled</tspan></text></g><rect x="382" y="170" width="113" height="30" rx="2" fill="#36c" stroke="#fff" stroke-width="2px"/><rect x="380.5" y="168.5" width="116" height="33" rx="2" fill="none" stroke="#36c"/><rect x="381.5" y="169.5" width="114" height="31" rx="2" fill="none" stroke="#36c"/><g style="isolation:isolate"><path d="M399.71 179.58a4.71 4.71 0 0 1 1.82.31 3.54 3.54 0 0 1 1.23.82 3.13 3.13 0 0 1 .68 1.17 4.28 4.28 0 0 1 0 2.71 3.1 3.1 0 0 1-.68 1.18 3.54 3.54 0 0 1-1.23.82 4.71 4.71 0 0 1-1.82.31h-2.64v4.1h-2.51v-11.42zM399 185a5.59 5.59 0 0 0 .83-.06 2 2 0 0 0 .71-.25 1.34 1.34 0 0 0 .48-.52 2.13 2.13 0 0 0 0-1.76 1.34 1.34 0 0 0-.48-.52 2 2 0 0 0-.71-.25 5.59 5.59 0 0 0-.83-.06h-1.95V185zm8.15-2.27v1.53a3.06 3.06 0 0 1 .43-.71 2.81 2.81 0 0 1 .63-.56 3.24 3.24 0 0 1 .75-.36 2.83 2.83 0 0 1 .83-.13 2 2 0 0 1 .5.08v2.12a3.24 3.24 0 0 0-.39-.06 3.17 3.17 0 0 0-.43 0 2.57 2.57 0 0 0-1.06.2 1.84 1.84 0 0 0-.69.57 2.31 2.31 0 0 0-.38.84 4.88 4.88 0 0 0-.11 1V191H405v-8.27zm3.85 2.34a3.83 3.83 0 0 1 2.21-2.25 4.68 4.68 0 0 1 1.76-.32 4.77 4.77 0 0 1 1.77.32 3.68 3.68 0 0 1 1.35.88 3.85 3.85 0 0 1 .86 1.37 4.93 4.93 0 0 1 .31 1.8 4.84 4.84 0 0 1-.31 1.79 3.85 3.85 0 0 1-.86 1.37 3.66 3.66 0 0 1-1.35.87 4.77 4.77 0 0 1-1.77.31 4.68 4.68 0 0 1-1.76-.31 3.78 3.78 0 0 1-2.21-2.24 5.05 5.05 0 0 1-.3-1.79 5.15 5.15 0 0 1 .3-1.8zm2.07 2.77a2.63 2.63 0 0 0 .32.85 1.78 1.78 0 0 0 .62.6 1.89 1.89 0 0 0 1 .22 1.93 1.93 0 0 0 1-.22 1.7 1.7 0 0 0 .62-.6 2.43 2.43 0 0 0 .33-.85 5.15 5.15 0 0 0 .1-1 5.23 5.23 0 0 0-.1-1 2.29 2.29 0 0 0-.33-.85 1.7 1.7 0 0 0-.62-.6 1.83 1.83 0 0 0-1-.23 1.75 1.75 0 0 0-1.58.83 2.46 2.46 0 0 0-.32.85 4.5 4.5 0 0 0-.1 1 4.43 4.43 0 0 0-.01 1zm15.45 3.77a3 3 0 0 1-.59 1.19 3.54 3.54 0 0 1-1.29.94 5.75 5.75 0 0 1-2.28.38 5.38 5.38 0 0 1-1.24-.15 4 4 0 0 1-1.15-.47 2.84 2.84 0 0 1-.86-.83 2.35 2.35 0 0 1-.39-1.21H423a1.3 1.3 0 0 0 .63.89 2.17 2.17 0 0 0 1.07.25 1.64 1.64 0 0 0 1.4-.58 2.27 2.27 0 0 0 .42-1.45v-1.09a2.25 2.25 0 0 1-1 1 3.35 3.35 0 0 1-1.43.31 3.6 3.6 0 0 1-1.6-.33 2.93 2.93 0 0 1-1.1-.89 3.82 3.82 0 0 1-.64-1.33 6.46 6.46 0 0 1-.2-1.61 5 5 0 0 1 .24-1.54 3.94 3.94 0 0 1 .68-1.32 3.27 3.27 0 0 1 1.11-.9 3.38 3.38 0 0 1 1.53-.34 3.24 3.24 0 0 1 1.43.31 2.46 2.46 0 0 1 1 1v-1.1h2.16v7.74a5.61 5.61 0 0 1-.18 1.13zm-3.12-2.75a1.71 1.71 0 0 0 .61-.52 2.21 2.21 0 0 0 .36-.72 3.08 3.08 0 0 0 .12-.86 5.07 5.07 0 0 0-.09-1 2.92 2.92 0 0 0-.32-.81 1.7 1.7 0 0 0-.6-.56 1.93 1.93 0 0 0-.92-.2 1.59 1.59 0 0 0-1.4.71 2.14 2.14 0 0 0-.34.75 3.68 3.68 0 0 0-.1.89 5.35 5.35 0 0 0 .08.89 2.37 2.37 0 0 0 .31.79 1.73 1.73 0 0 0 .57.57 1.57 1.57 0 0 0 .88.23 1.86 1.86 0 0 0 .84-.16zm7.24-6.13v1.53a2.75 2.75 0 0 1 .43-.71 3 3 0 0 1 .62-.56 3.53 3.53 0 0 1 .76-.36 2.83 2.83 0 0 1 .83-.13 1.85 1.85 0 0 1 .49.08v2.12a2.77 2.77 0 0 0-.38-.06 3.17 3.17 0 0 0-.43 0 2.57 2.57 0 0 0-1.06.2 1.77 1.77 0 0 0-.69.57 2.15 2.15 0 0 0-.38.84 4.88 4.88 0 0 0-.11 1V191h-2.27v-8.27zm6.2 6.27a2.05 2.05 0 0 0 1.48.49 2 2 0 0 0 1.18-.34 1.45 1.45 0 0 0 .61-.73h2a3.82 3.82 0 0 1-1.47 2.13 4.35 4.35 0 0 1-2.4.64 4.84 4.84 0 0 1-1.76-.31 3.66 3.66 0 0 1-1.33-.89 3.94 3.94 0 0 1-.84-1.38 5 5 0 0 1-.3-1.76 4.7 4.7 0 0 1 .31-1.73 4.08 4.08 0 0 1 .86-1.38 4 4 0 0 1 1.34-.92 4.33 4.33 0 0 1 1.72-.34 4 4 0 0 1 1.84.41 3.59 3.59 0 0 1 1.28 1.1 4.44 4.44 0 0 1 .73 1.57 5.88 5.88 0 0 1 .16 1.84h-6a2.35 2.35 0 0 0 .59 1.6zm2.57-4.36a1.61 1.61 0 0 0-1.24-.44 2 2 0 0 0-.9.18 1.67 1.67 0 0 0-.58.46 1.74 1.74 0 0 0-.3.57 2.54 2.54 0 0 0-.11.55H442a2.69 2.69 0 0 0-.59-1.3zm6.1 4.3a1.38 1.38 0 0 0 .39.44 1.61 1.61 0 0 0 .55.24 2.36 2.36 0 0 0 .65.08 2.18 2.18 0 0 0 .5 0 1.71 1.71 0 0 0 .48-.18.93.93 0 0 0 .36-.32.8.8 0 0 0 .15-.5c0-.34-.23-.6-.68-.77a14 14 0 0 0-1.9-.51c-.33-.08-.65-.16-1-.27a3.26 3.26 0 0 1-.84-.4 1.94 1.94 0 0 1-.59-.62 1.77 1.77 0 0 1-.22-.92 2.47 2.47 0 0 1 .31-1.31 2.35 2.35 0 0 1 .82-.81 3.59 3.59 0 0 1 1.15-.42 7.2 7.2 0 0 1 1.32-.12 6.9 6.9 0 0 1 1.3.13 3.64 3.64 0 0 1 1.13.43 2.75 2.75 0 0 1 .82.81 2.68 2.68 0 0 1 .39 1.27h-2.15a1 1 0 0 0-.5-.88 2.21 2.21 0 0 0-1.06-.24h-.41a1.3 1.3 0 0 0-.41.1.9.9 0 0 0-.31.23.61.61 0 0 0-.13.41.62.62 0 0 0 .22.5 1.73 1.73 0 0 0 .59.31c.24.08.51.15.82.22l.95.2a9.7 9.7 0 0 1 1 .28 2.76 2.76 0 0 1 .84.42 2 2 0 0 1 .59.66 1.89 1.89 0 0 1 .23 1 2.62 2.62 0 0 1-.33 1.37 2.53 2.53 0 0 1-.86.89 3.54 3.54 0 0 1-1.2.47 7.2 7.2 0 0 1-1.39.14 6.62 6.62 0 0 1-1.41-.15 3.54 3.54 0 0 1-1.22-.48 2.74 2.74 0 0 1-.88-.88 2.77 2.77 0 0 1-.37-1.39h2.16a1.22 1.22 0 0 0 .14.57zm8.59 0a1.38 1.38 0 0 0 .39.44 1.61 1.61 0 0 0 .55.24 2.36 2.36 0 0 0 .65.08 2.32 2.32 0 0 0 .51 0 1.76 1.76 0 0 0 .47-.18 1 1 0 0 0 .37-.32.87.87 0 0 0 .14-.5c0-.34-.23-.6-.68-.77a13.6 13.6 0 0 0-1.9-.51c-.33-.08-.65-.16-1-.27a3.26 3.26 0 0 1-.84-.4 1.94 1.94 0 0 1-.59-.62 1.77 1.77 0 0 1-.22-.92 2.47 2.47 0 0 1 .31-1.31 2.3 2.3 0 0 1 .83-.81 3.5 3.5 0 0 1 1.15-.42 7 7 0 0 1 1.31-.12 6.9 6.9 0 0 1 1.3.13 3.64 3.64 0 0 1 1.13.43 2.64 2.64 0 0 1 .82.81 2.8 2.8 0 0 1 .4 1.27h-2.16a1 1 0 0 0-.5-.88 2.21 2.21 0 0 0-1.06-.24h-.41a1.3 1.3 0 0 0-.41.1.9.9 0 0 0-.31.23.61.61 0 0 0-.13.41.65.65 0 0 0 .22.5 1.73 1.73 0 0 0 .59.31c.24.08.51.15.82.22l.95.2a9.7 9.7 0 0 1 1 .28 2.76 2.76 0 0 1 .84.42 2.1 2.1 0 0 1 .6.66 1.89 1.89 0 0 1 .22 1 2.62 2.62 0 0 1-.33 1.37 2.59 2.59 0 0 1-.85.89 3.6 3.6 0 0 1-1.21.47 7.12 7.12 0 0 1-1.39.14 6.59 6.59 0 0 1-1.4-.15 3.51 3.51 0 0 1-1.23-.48 2.84 2.84 0 0 1-.88-.88 2.77 2.77 0 0 1-.37-1.39h2.2a1.22 1.22 0 0 0 .1.57zm6.74-7.49v-1.87h2.28v1.87zm2.28 1.28V191h-2.28v-8.27zM469 191l-2.84-8.27h2.39l1.74 5.65 1.75-5.65h2.25l-2.8 8.27zm8.66-2a2 2 0 0 0 1.47.49 2.05 2.05 0 0 0 1.19-.34 1.38 1.38 0 0 0 .6-.73h2a3.82 3.82 0 0 1-1.47 2.13 4.3 4.3 0 0 1-2.4.64 4.88 4.88 0 0 1-1.76-.31A3.84 3.84 0 0 1 476 190a4.09 4.09 0 0 1-.84-1.38 5.2 5.2 0 0 1-.29-1.76 4.91 4.91 0 0 1 .3-1.73 4.06 4.06 0 0 1 2.2-2.3 4.36 4.36 0 0 1 1.72-.34 4 4 0 0 1 1.84.41 3.71 3.71 0 0 1 1.29 1.1 4.62 4.62 0 0 1 .73 1.57 5.88 5.88 0 0 1 .16 1.84h-6a2.3 2.3 0 0 0 .55 1.59zm2.57-4.36a1.63 1.63 0 0 0-1.24-.44 2 2 0 0 0-.91.18 1.55 1.55 0 0 0-.57.46 1.6 1.6 0 0 0-.31.57 2.48 2.48 0 0 0-.1.55h3.69a2.6 2.6 0 0 0-.56-1.3z" fill="#fff"/></g><rect x="545" y="170" width="110" height="30" rx="2" fill="#d11d13" stroke="#fff" stroke-width="2px"/><rect x="544.5" y="169.5" width="111" height="31" rx="2" fill="none" stroke="#d11d13"/><rect x="543.5" y="168.5" width="113" height="33" rx="2" fill="none" stroke="#d11d13"/><g style="isolation:isolate"><path d="M562.32 179.58a5.79 5.79 0 0 1 2.06.35 4.36 4.36 0 0 1 1.64 1 4.82 4.82 0 0 1 1.09 1.76 7.17 7.17 0 0 1 .39 2.48 7.73 7.73 0 0 1-.32 2.31 5 5 0 0 1-1 1.82 4.57 4.57 0 0 1-1.62 1.21 5.55 5.55 0 0 1-2.28.44h-4.93v-11.37zm-.18 9.31a3.15 3.15 0 0 0 1.06-.18 2.4 2.4 0 0 0 .91-.58 2.88 2.88 0 0 0 .64-1.07 4.65 4.65 0 0 0 .24-1.6 6.32 6.32 0 0 0-.17-1.56 3 3 0 0 0-.55-1.19 2.44 2.44 0 0 0-1-.76 4.24 4.24 0 0 0-1.56-.26h-1.8v7.2zm9.3.11a2 2 0 0 0 1.47.49 2.05 2.05 0 0 0 1.19-.34 1.38 1.38 0 0 0 .6-.73h2a3.82 3.82 0 0 1-1.47 2.13 4.3 4.3 0 0 1-2.4.64 4.88 4.88 0 0 1-1.76-.31 3.84 3.84 0 0 1-1.33-.89 4.09 4.09 0 0 1-.84-1.38 5.2 5.2 0 0 1-.29-1.76 4.91 4.91 0 0 1 .3-1.73 4.06 4.06 0 0 1 2.2-2.3 4.36 4.36 0 0 1 1.72-.34 3.93 3.93 0 0 1 1.84.41A3.71 3.71 0 0 1 576 184a4.44 4.44 0 0 1 .73 1.57 5.88 5.88 0 0 1 .16 1.84h-6a2.3 2.3 0 0 0 .55 1.59zm2.57-4.36a1.63 1.63 0 0 0-1.24-.44 2 2 0 0 0-.91.18 1.55 1.55 0 0 0-.57.46 1.6 1.6 0 0 0-.31.57 2.48 2.48 0 0 0-.1.55h3.7a2.69 2.69 0 0 0-.58-1.3zm6.09 4.3a1.54 1.54 0 0 0 .4.44 1.61 1.61 0 0 0 .55.24 2.32 2.32 0 0 0 .65.08 2.23 2.23 0 0 0 .5 0 1.71 1.71 0 0 0 .48-.18 1.1 1.1 0 0 0 .36-.32.8.8 0 0 0 .14-.5c0-.34-.22-.6-.68-.77a13.4 13.4 0 0 0-1.89-.51 9.87 9.87 0 0 1-1-.27 3.11 3.11 0 0 1-.84-.4 1.84 1.84 0 0 1-.59-.62 1.77 1.77 0 0 1-.23-.92 2.47 2.47 0 0 1 .32-1.31 2.27 2.27 0 0 1 .82-.81 3.5 3.5 0 0 1 1.15-.42 7.17 7.17 0 0 1 1.31-.12 7 7 0 0 1 1.31.13 3.64 3.64 0 0 1 1.13.43 2.75 2.75 0 0 1 .82.81 2.68 2.68 0 0 1 .39 1.27h-2.16a1 1 0 0 0-.49-.88 2.24 2.24 0 0 0-1.06-.24h-.42a1.24 1.24 0 0 0-.4.1.94.94 0 0 0-.32.23.66.66 0 0 0-.12.41.62.62 0 0 0 .22.5 1.68 1.68 0 0 0 .58.31c.24.08.52.15.83.22l.94.2a9.89 9.89 0 0 1 1 .28 3 3 0 0 1 .84.42 2.19 2.19 0 0 1 .59.66 1.89 1.89 0 0 1 .23 1 2.52 2.52 0 0 1-1.19 2.26 3.52 3.52 0 0 1-1.21.47 7 7 0 0 1-1.38.14 6.62 6.62 0 0 1-1.41-.15 3.46 3.46 0 0 1-1.22-.48 2.74 2.74 0 0 1-.88-.88 2.78 2.78 0 0 1-.38-1.39H580a1.22 1.22 0 0 0 .1.57zm11.23-6.21v1.52h-1.67v4.09a1.1 1.1 0 0 0 .2.77 1.07 1.07 0 0 0 .76.19h.72v1.7a5.82 5.82 0 0 1-.64.06h-.69a6.36 6.36 0 0 1-1-.07 2.32 2.32 0 0 1-.83-.28 1.54 1.54 0 0 1-.57-.59 2.13 2.13 0 0 1-.21-1v-4.88H586v-1.52h1.37v-2.48h2.27v2.48zm3.25 0v1.53a2.75 2.75 0 0 1 .43-.71 3 3 0 0 1 .62-.56 3.53 3.53 0 0 1 .76-.36 2.83 2.83 0 0 1 .83-.13 1.85 1.85 0 0 1 .49.08v2.12a2.77 2.77 0 0 0-.38-.06 3.17 3.17 0 0 0-.43 0 2.57 2.57 0 0 0-1.06.2 1.77 1.77 0 0 0-.69.57 2.15 2.15 0 0 0-.38.84 4.31 4.31 0 0 0-.11 1V191h-2.27v-8.27zm9.66 8.27v-1.15a2.6 2.6 0 0 1-1.12 1 3.37 3.37 0 0 1-1.41.32 3.94 3.94 0 0 1-1.49-.24 2.16 2.16 0 0 1-.92-.68 2.55 2.55 0 0 1-.47-1.07 6.09 6.09 0 0 1-.14-1.4v-5.09h2.27v4.67a3 3 0 0 0 .32 1.53 1.25 1.25 0 0 0 1.14.5 1.56 1.56 0 0 0 1.34-.55 3 3 0 0 0 .42-1.82v-4.33h2.27V191zm7.84-6.78a1.62 1.62 0 0 0-.91.24 1.93 1.93 0 0 0-.6.64 2.62 2.62 0 0 0-.33.87 4.33 4.33 0 0 0 0 1.85 2.81 2.81 0 0 0 .31.84 1.88 1.88 0 0 0 .58.61 1.63 1.63 0 0 0 .9.24 1.69 1.69 0 0 0 1.26-.45 2.26 2.26 0 0 0 .55-1.23H616a3.71 3.71 0 0 1-1.28 2.51 4.09 4.09 0 0 1-2.7.87 4.73 4.73 0 0 1-1.71-.31 3.87 3.87 0 0 1-1.31-.9 4 4 0 0 1-.85-1.33 4.73 4.73 0 0 1-.3-1.71 5.4 5.4 0 0 1 .28-1.78 4.07 4.07 0 0 1 .82-1.42 3.83 3.83 0 0 1 1.33-.94 4.61 4.61 0 0 1 1.79-.34 5.13 5.13 0 0 1 1.42.2 3.72 3.72 0 0 1 1.22.58 3 3 0 0 1 1.25 2.36h-2.22a1.52 1.52 0 0 0-1.66-1.4zm9.78-1.49v1.52h-1.67v4.09a1.1 1.1 0 0 0 .19.77 1.12 1.12 0 0 0 .77.19h.71v1.7a6 6 0 0 1-.65.06h-.68a6.28 6.28 0 0 1-1-.07 2.26 2.26 0 0 1-.83-.28 1.54 1.54 0 0 1-.57-.59 2.13 2.13 0 0 1-.21-1v-4.88h-1.38v-1.52h1.38v-2.48h2.27v2.48zm1.14-1.28v-1.87h2.27v1.87zm2.27 1.28V191H623v-8.27zm3.85 8.27l-2.83-8.27h2.38l1.75 5.65 1.74-5.65h2.26l-2.8 8.27zm8.7-2a2.36 2.36 0 0 0 2.66.15 1.45 1.45 0 0 0 .61-.73h2a3.79 3.79 0 0 1-1.48 2.13 4.3 4.3 0 0 1-2.4.64 4.92 4.92 0 0 1-1.76-.31 3.71 3.71 0 0 1-1.32-.89 3.8 3.8 0 0 1-.84-1.38 5.22 5.22 0 0 1 0-3.49 4.1 4.1 0 0 1 .87-1.38 4 4 0 0 1 1.33-.92 4.36 4.36 0 0 1 1.72-.34 3.93 3.93 0 0 1 1.84.41 3.54 3.54 0 0 1 1.29 1.1 4.44 4.44 0 0 1 .73 1.57 5.88 5.88 0 0 1 .16 1.84h-6a2.3 2.3 0 0 0 .59 1.6zm2.57-4.36a1.61 1.61 0 0 0-1.24-.44 2 2 0 0 0-.9.18 1.68 1.68 0 0 0-.88 1 2.54 2.54 0 0 0-.11.55H641a2.69 2.69 0 0 0-.61-1.27z" fill="#fff"/></g><rect x="381.5" y="113.5" width="114" height="31" rx="2" fill="#2a4b8d" stroke="#2a4b8d"/><g style="isolation:isolate"><path d="M399.71 123.58a4.71 4.71 0 0 1 1.82.31 3.54 3.54 0 0 1 1.23.82 3.13 3.13 0 0 1 .68 1.17 4.28 4.28 0 0 1 0 2.71 3.1 3.1 0 0 1-.68 1.18 3.54 3.54 0 0 1-1.23.82 4.71 4.71 0 0 1-1.82.31h-2.64v4.1h-2.51v-11.42zM399 129a5.59 5.59 0 0 0 .83-.06 2 2 0 0 0 .71-.25 1.34 1.34 0 0 0 .48-.52 2.13 2.13 0 0 0 0-1.76 1.34 1.34 0 0 0-.48-.52 2 2 0 0 0-.71-.25 5.59 5.59 0 0 0-.83-.06h-1.95V129zm8.15-2.27v1.53a3.06 3.06 0 0 1 .43-.71 2.81 2.81 0 0 1 .63-.56 3.24 3.24 0 0 1 .75-.36 2.83 2.83 0 0 1 .83-.13 2 2 0 0 1 .5.08v2.12a3.24 3.24 0 0 0-.39-.06 3.17 3.17 0 0 0-.43 0 2.57 2.57 0 0 0-1.06.2 1.84 1.84 0 0 0-.69.57 2.31 2.31 0 0 0-.38.84 4.88 4.88 0 0 0-.11 1V135H405v-8.27zm3.85 2.34a3.83 3.83 0 0 1 2.21-2.25 4.68 4.68 0 0 1 1.76-.32 4.77 4.77 0 0 1 1.77.32 3.68 3.68 0 0 1 1.35.88 3.85 3.85 0 0 1 .86 1.37 4.93 4.93 0 0 1 .31 1.8 4.84 4.84 0 0 1-.31 1.79 3.85 3.85 0 0 1-.86 1.37 3.66 3.66 0 0 1-1.35.87 4.77 4.77 0 0 1-1.77.31 4.68 4.68 0 0 1-1.76-.31 3.78 3.78 0 0 1-2.21-2.24 5.05 5.05 0 0 1-.3-1.79 5.15 5.15 0 0 1 .3-1.8zm2.07 2.77a2.63 2.63 0 0 0 .32.85 1.78 1.78 0 0 0 .62.6 1.89 1.89 0 0 0 1 .22 1.93 1.93 0 0 0 1-.22 1.7 1.7 0 0 0 .62-.6 2.43 2.43 0 0 0 .33-.85 5.15 5.15 0 0 0 .1-1 5.23 5.23 0 0 0-.1-1 2.29 2.29 0 0 0-.33-.85 1.7 1.7 0 0 0-.62-.6 1.83 1.83 0 0 0-1-.23 1.75 1.75 0 0 0-1.58.83 2.46 2.46 0 0 0-.32.85 4.5 4.5 0 0 0-.1 1 4.43 4.43 0 0 0-.01 1zm15.45 3.77a3 3 0 0 1-.59 1.19 3.54 3.54 0 0 1-1.29.94 5.75 5.75 0 0 1-2.28.38 5.38 5.38 0 0 1-1.24-.15 4 4 0 0 1-1.15-.47 2.84 2.84 0 0 1-.86-.83 2.35 2.35 0 0 1-.39-1.21H423a1.3 1.3 0 0 0 .63.89 2.17 2.17 0 0 0 1.07.25 1.64 1.64 0 0 0 1.4-.58 2.27 2.27 0 0 0 .42-1.45v-1.09a2.25 2.25 0 0 1-1 1 3.35 3.35 0 0 1-1.43.31 3.6 3.6 0 0 1-1.6-.33 2.93 2.93 0 0 1-1.1-.89 3.82 3.82 0 0 1-.64-1.33 6.46 6.46 0 0 1-.2-1.61 5 5 0 0 1 .24-1.54 3.94 3.94 0 0 1 .68-1.32 3.27 3.27 0 0 1 1.11-.9 3.38 3.38 0 0 1 1.53-.34 3.24 3.24 0 0 1 1.43.31 2.46 2.46 0 0 1 1 1v-1.1h2.16v7.74a5.61 5.61 0 0 1-.18 1.13zm-3.12-2.75a1.71 1.71 0 0 0 .61-.52 2.21 2.21 0 0 0 .36-.72 3.08 3.08 0 0 0 .12-.86 5.07 5.07 0 0 0-.09-1 2.92 2.92 0 0 0-.32-.81 1.7 1.7 0 0 0-.6-.56 1.93 1.93 0 0 0-.92-.2 1.59 1.59 0 0 0-1.4.71 2.14 2.14 0 0 0-.34.75 3.68 3.68 0 0 0-.1.89 5.35 5.35 0 0 0 .08.89 2.37 2.37 0 0 0 .31.79 1.73 1.73 0 0 0 .57.57 1.57 1.57 0 0 0 .88.23 1.86 1.86 0 0 0 .84-.16zm7.24-6.13v1.53a2.75 2.75 0 0 1 .43-.71 3 3 0 0 1 .62-.56 3.53 3.53 0 0 1 .76-.36 2.83 2.83 0 0 1 .83-.13 1.85 1.85 0 0 1 .49.08v2.12a2.77 2.77 0 0 0-.38-.06 3.17 3.17 0 0 0-.43 0 2.57 2.57 0 0 0-1.06.2 1.77 1.77 0 0 0-.69.57 2.15 2.15 0 0 0-.38.84 4.88 4.88 0 0 0-.11 1V135h-2.27v-8.27zm6.2 6.27a2.05 2.05 0 0 0 1.48.49 2 2 0 0 0 1.18-.34 1.45 1.45 0 0 0 .61-.73h2a3.82 3.82 0 0 1-1.47 2.13 4.35 4.35 0 0 1-2.4.64 4.84 4.84 0 0 1-1.76-.31 3.66 3.66 0 0 1-1.33-.89 3.94 3.94 0 0 1-.84-1.38 5 5 0 0 1-.3-1.76 4.7 4.7 0 0 1 .31-1.73 4.08 4.08 0 0 1 .86-1.38 4 4 0 0 1 1.34-.92 4.33 4.33 0 0 1 1.72-.34 4 4 0 0 1 1.84.41 3.59 3.59 0 0 1 1.28 1.1 4.44 4.44 0 0 1 .73 1.57 5.88 5.88 0 0 1 .16 1.84h-6a2.35 2.35 0 0 0 .59 1.6zm2.57-4.36a1.61 1.61 0 0 0-1.24-.44 2 2 0 0 0-.9.18 1.67 1.67 0 0 0-.58.46 1.74 1.74 0 0 0-.3.57 2.54 2.54 0 0 0-.11.55H442a2.69 2.69 0 0 0-.59-1.3zm6.1 4.3a1.38 1.38 0 0 0 .39.44 1.61 1.61 0 0 0 .55.24 2.36 2.36 0 0 0 .65.08 2.18 2.18 0 0 0 .5 0 1.71 1.71 0 0 0 .48-.18.93.93 0 0 0 .36-.32.8.8 0 0 0 .15-.5c0-.34-.23-.6-.68-.77a14 14 0 0 0-1.9-.51c-.33-.08-.65-.16-1-.27a3.26 3.26 0 0 1-.84-.4 1.94 1.94 0 0 1-.59-.62 1.77 1.77 0 0 1-.22-.92 2.47 2.47 0 0 1 .31-1.31 2.35 2.35 0 0 1 .82-.81 3.59 3.59 0 0 1 1.15-.42 7.2 7.2 0 0 1 1.32-.12 6.9 6.9 0 0 1 1.3.13 3.64 3.64 0 0 1 1.13.43 2.75 2.75 0 0 1 .82.81 2.68 2.68 0 0 1 .39 1.27h-2.15a1 1 0 0 0-.5-.88 2.21 2.21 0 0 0-1.06-.24h-.41a1.3 1.3 0 0 0-.41.1.9.9 0 0 0-.31.23.61.61 0 0 0-.13.41.62.62 0 0 0 .22.5 1.73 1.73 0 0 0 .59.31c.24.08.51.15.82.22l.95.2a9.7 9.7 0 0 1 1 .28 2.76 2.76 0 0 1 .84.42 2 2 0 0 1 .59.66 1.89 1.89 0 0 1 .23 1 2.62 2.62 0 0 1-.33 1.37 2.53 2.53 0 0 1-.86.89 3.54 3.54 0 0 1-1.2.47 7.2 7.2 0 0 1-1.39.14 6.62 6.62 0 0 1-1.41-.15 3.54 3.54 0 0 1-1.22-.48 2.74 2.74 0 0 1-.88-.88 2.77 2.77 0 0 1-.37-1.39h2.16a1.22 1.22 0 0 0 .14.57zm8.59 0a1.38 1.38 0 0 0 .39.44 1.61 1.61 0 0 0 .55.24 2.36 2.36 0 0 0 .65.08 2.32 2.32 0 0 0 .51 0 1.76 1.76 0 0 0 .47-.18 1 1 0 0 0 .37-.32.87.87 0 0 0 .14-.5c0-.34-.23-.6-.68-.77a13.6 13.6 0 0 0-1.9-.51c-.33-.08-.65-.16-1-.27a3.26 3.26 0 0 1-.84-.4 1.94 1.94 0 0 1-.59-.62 1.77 1.77 0 0 1-.22-.92 2.47 2.47 0 0 1 .31-1.31 2.3 2.3 0 0 1 .83-.81 3.5 3.5 0 0 1 1.15-.42 7 7 0 0 1 1.31-.12 6.9 6.9 0 0 1 1.3.13 3.64 3.64 0 0 1 1.13.43 2.64 2.64 0 0 1 .82.81 2.8 2.8 0 0 1 .4 1.27h-2.16a1 1 0 0 0-.5-.88 2.21 2.21 0 0 0-1.06-.24h-.41a1.3 1.3 0 0 0-.41.1.9.9 0 0 0-.31.23.61.61 0 0 0-.13.41.65.65 0 0 0 .22.5 1.73 1.73 0 0 0 .59.31c.24.08.51.15.82.22l.95.2a9.7 9.7 0 0 1 1 .28 2.76 2.76 0 0 1 .84.42 2.1 2.1 0 0 1 .6.66 1.89 1.89 0 0 1 .22 1 2.62 2.62 0 0 1-.33 1.37 2.59 2.59 0 0 1-.85.89 3.6 3.6 0 0 1-1.21.47 7.12 7.12 0 0 1-1.39.14 6.59 6.59 0 0 1-1.4-.15 3.51 3.51 0 0 1-1.23-.48 2.84 2.84 0 0 1-.88-.88 2.77 2.77 0 0 1-.37-1.39h2.2a1.22 1.22 0 0 0 .1.57zm6.74-7.49v-1.87h2.28v1.87zm2.28 1.28V135h-2.28v-8.27zM469 135l-2.84-8.27h2.39l1.74 5.65 1.75-5.65h2.25l-2.8 8.27zm8.66-2a2 2 0 0 0 1.47.49 2.05 2.05 0 0 0 1.19-.34 1.38 1.38 0 0 0 .6-.73h2a3.82 3.82 0 0 1-1.47 2.13 4.3 4.3 0 0 1-2.4.64 4.88 4.88 0 0 1-1.76-.31A3.84 3.84 0 0 1 476 134a4.09 4.09 0 0 1-.84-1.38 5.2 5.2 0 0 1-.29-1.76 4.91 4.91 0 0 1 .3-1.73 4.06 4.06 0 0 1 2.2-2.3 4.36 4.36 0 0 1 1.72-.34 4 4 0 0 1 1.84.41 3.71 3.71 0 0 1 1.29 1.1 4.62 4.62 0 0 1 .73 1.57 5.88 5.88 0 0 1 .16 1.84h-6a2.3 2.3 0 0 0 .55 1.59zm2.57-4.36a1.63 1.63 0 0 0-1.24-.44 2 2 0 0 0-.91.18 1.55 1.55 0 0 0-.57.46 1.6 1.6 0 0 0-.31.57 2.48 2.48 0 0 0-.1.55h3.69a2.6 2.6 0 0 0-.56-1.3z" fill="#fff"/></g><rect x="544.5" y="113.5" width="111" height="31" rx="2" fill="#b32424" stroke="#b32424"/><g style="isolation:isolate"><path d="M562.32 123.58a5.79 5.79 0 0 1 2.06.35 4.36 4.36 0 0 1 1.64 1 4.82 4.82 0 0 1 1.09 1.76 7.17 7.17 0 0 1 .39 2.48 7.73 7.73 0 0 1-.32 2.31 5 5 0 0 1-1 1.82 4.57 4.57 0 0 1-1.62 1.21 5.55 5.55 0 0 1-2.28.44h-4.93v-11.37zm-.18 9.31a3.15 3.15 0 0 0 1.06-.18 2.4 2.4 0 0 0 .91-.58 2.88 2.88 0 0 0 .64-1.07 4.65 4.65 0 0 0 .24-1.6 6.32 6.32 0 0 0-.17-1.56 3 3 0 0 0-.55-1.19 2.44 2.44 0 0 0-1-.76 4.24 4.24 0 0 0-1.56-.26h-1.8v7.2zm9.3.11a2 2 0 0 0 1.47.49 2.05 2.05 0 0 0 1.19-.34 1.38 1.38 0 0 0 .6-.73h2a3.82 3.82 0 0 1-1.47 2.13 4.3 4.3 0 0 1-2.4.64 4.88 4.88 0 0 1-1.76-.31 3.84 3.84 0 0 1-1.33-.89 4.09 4.09 0 0 1-.84-1.38 5.2 5.2 0 0 1-.29-1.76 4.91 4.91 0 0 1 .3-1.73 4.06 4.06 0 0 1 2.2-2.3 4.36 4.36 0 0 1 1.72-.34 3.93 3.93 0 0 1 1.84.41A3.71 3.71 0 0 1 576 128a4.44 4.44 0 0 1 .73 1.57 5.88 5.88 0 0 1 .16 1.84h-6a2.3 2.3 0 0 0 .55 1.59zm2.57-4.36a1.63 1.63 0 0 0-1.24-.44 2 2 0 0 0-.91.18 1.55 1.55 0 0 0-.57.46 1.6 1.6 0 0 0-.31.57 2.48 2.48 0 0 0-.1.55h3.7a2.69 2.69 0 0 0-.58-1.3zm6.09 4.3a1.54 1.54 0 0 0 .4.44 1.61 1.61 0 0 0 .55.24 2.32 2.32 0 0 0 .65.08 2.23 2.23 0 0 0 .5 0 1.71 1.71 0 0 0 .48-.18 1.1 1.1 0 0 0 .36-.32.8.8 0 0 0 .14-.5c0-.34-.22-.6-.68-.77a13.4 13.4 0 0 0-1.89-.51 9.87 9.87 0 0 1-1-.27 3.11 3.11 0 0 1-.84-.4 1.84 1.84 0 0 1-.59-.62 1.77 1.77 0 0 1-.23-.92 2.47 2.47 0 0 1 .32-1.31 2.27 2.27 0 0 1 .82-.81 3.5 3.5 0 0 1 1.15-.42 7.17 7.17 0 0 1 1.31-.12 7 7 0 0 1 1.31.13 3.64 3.64 0 0 1 1.13.43 2.75 2.75 0 0 1 .82.81 2.68 2.68 0 0 1 .39 1.27h-2.16a1 1 0 0 0-.49-.88 2.24 2.24 0 0 0-1.06-.24h-.42a1.24 1.24 0 0 0-.4.1.94.94 0 0 0-.32.23.66.66 0 0 0-.12.41.62.62 0 0 0 .22.5 1.68 1.68 0 0 0 .58.31c.24.08.52.15.83.22l.94.2a9.89 9.89 0 0 1 1 .28 3 3 0 0 1 .84.42 2.19 2.19 0 0 1 .59.66 1.89 1.89 0 0 1 .23 1 2.52 2.52 0 0 1-1.19 2.26 3.52 3.52 0 0 1-1.21.47 7 7 0 0 1-1.38.14 6.62 6.62 0 0 1-1.41-.15 3.46 3.46 0 0 1-1.22-.48 2.74 2.74 0 0 1-.88-.88 2.78 2.78 0 0 1-.38-1.39H580a1.22 1.22 0 0 0 .1.57zm11.23-6.21v1.52h-1.67v4.09a1.1 1.1 0 0 0 .2.77 1.07 1.07 0 0 0 .76.19h.72v1.7a5.82 5.82 0 0 1-.64.06h-.69a6.36 6.36 0 0 1-1-.07 2.32 2.32 0 0 1-.83-.28 1.54 1.54 0 0 1-.57-.59 2.13 2.13 0 0 1-.21-1v-4.88H586v-1.52h1.37v-2.48h2.27v2.48zm3.25 0v1.53a2.75 2.75 0 0 1 .43-.71 3 3 0 0 1 .62-.56 3.53 3.53 0 0 1 .76-.36 2.83 2.83 0 0 1 .83-.13 1.85 1.85 0 0 1 .49.08v2.12a2.77 2.77 0 0 0-.38-.06 3.17 3.17 0 0 0-.43 0 2.57 2.57 0 0 0-1.06.2 1.77 1.77 0 0 0-.69.57 2.15 2.15 0 0 0-.38.84 4.31 4.31 0 0 0-.11 1V135h-2.27v-8.27zm9.66 8.27v-1.15a2.6 2.6 0 0 1-1.12 1 3.37 3.37 0 0 1-1.41.32 3.94 3.94 0 0 1-1.49-.24 2.16 2.16 0 0 1-.92-.68 2.55 2.55 0 0 1-.47-1.07 6.09 6.09 0 0 1-.14-1.4v-5.09h2.27v4.67a3 3 0 0 0 .32 1.53 1.25 1.25 0 0 0 1.14.5 1.56 1.56 0 0 0 1.34-.55 3 3 0 0 0 .42-1.82v-4.33h2.27V135zm7.84-6.78a1.62 1.62 0 0 0-.91.24 1.93 1.93 0 0 0-.6.64 2.62 2.62 0 0 0-.33.87 4.33 4.33 0 0 0 0 1.85 2.81 2.81 0 0 0 .31.84 1.88 1.88 0 0 0 .58.61 1.63 1.63 0 0 0 .9.24 1.69 1.69 0 0 0 1.26-.45 2.26 2.26 0 0 0 .55-1.23H616a3.71 3.71 0 0 1-1.28 2.51 4.09 4.09 0 0 1-2.7.87 4.73 4.73 0 0 1-1.71-.31 3.87 3.87 0 0 1-1.31-.9 4 4 0 0 1-.85-1.33 4.73 4.73 0 0 1-.3-1.71 5.4 5.4 0 0 1 .28-1.78 4.07 4.07 0 0 1 .82-1.42 3.83 3.83 0 0 1 1.33-.94 4.61 4.61 0 0 1 1.79-.34 5.13 5.13 0 0 1 1.42.2 3.72 3.72 0 0 1 1.22.58 3 3 0 0 1 1.25 2.36h-2.22a1.52 1.52 0 0 0-1.66-1.4zm9.78-1.49v1.52h-1.67v4.09a1.1 1.1 0 0 0 .19.77 1.12 1.12 0 0 0 .77.19h.71v1.7a6 6 0 0 1-.65.06h-.68a6.28 6.28 0 0 1-1-.07 2.26 2.26 0 0 1-.83-.28 1.54 1.54 0 0 1-.57-.59 2.13 2.13 0 0 1-.21-1v-4.88h-1.38v-1.52h1.38v-2.48h2.27v2.48zm1.14-1.28v-1.87h2.27v1.87zm2.27 1.28V135H623v-8.27zm3.85 8.27l-2.83-8.27h2.38l1.75 5.65 1.74-5.65h2.26l-2.8 8.27zm8.7-2a2.36 2.36 0 0 0 2.66.15 1.45 1.45 0 0 0 .61-.73h2a3.79 3.79 0 0 1-1.48 2.13 4.3 4.3 0 0 1-2.4.64 4.92 4.92 0 0 1-1.76-.31 3.71 3.71 0 0 1-1.32-.89 3.8 3.8 0 0 1-.84-1.38 5.22 5.22 0 0 1 0-3.49 4.1 4.1 0 0 1 .87-1.38 4 4 0 0 1 1.33-.92 4.36 4.36 0 0 1 1.72-.34 3.93 3.93 0 0 1 1.84.41 3.54 3.54 0 0 1 1.29 1.1 4.44 4.44 0 0 1 .73 1.57 5.88 5.88 0 0 1 .16 1.84h-6a2.3 2.3 0 0 0 .59 1.6zm2.57-4.36a1.61 1.61 0 0 0-1.24-.44 2 2 0 0 0-.9.18 1.68 1.68 0 0 0-.88 1 2.54 2.54 0 0 0-.11.55H641a2.69 2.69 0 0 0-.61-1.27z" fill="#fff"/></g><rect x="381.5" y="57.5" width="114" height="31" rx="2" fill="#447ff5" stroke="#447ff5"/><g style="isolation:isolate"><path d="M399.71 67.58a4.71 4.71 0 0 1 1.82.31 3.54 3.54 0 0 1 1.23.82 3.13 3.13 0 0 1 .68 1.17 4.28 4.28 0 0 1 0 2.71 3.1 3.1 0 0 1-.68 1.18 3.54 3.54 0 0 1-1.23.82 4.71 4.71 0 0 1-1.82.31h-2.64V79h-2.51V67.58zM399 73a5.59 5.59 0 0 0 .83-.06 2 2 0 0 0 .71-.25 1.34 1.34 0 0 0 .48-.52 2.13 2.13 0 0 0 0-1.76 1.34 1.34 0 0 0-.48-.52 2 2 0 0 0-.71-.25 5.59 5.59 0 0 0-.83-.06h-1.95V73zm8.15-2.27v1.53a3.06 3.06 0 0 1 .43-.71 2.81 2.81 0 0 1 .63-.56 3.24 3.24 0 0 1 .75-.36 2.83 2.83 0 0 1 .83-.13 2 2 0 0 1 .5.08v2.12a3.24 3.24 0 0 0-.39-.06 3.17 3.17 0 0 0-.43 0 2.57 2.57 0 0 0-1.06.2 1.84 1.84 0 0 0-.69.57 2.31 2.31 0 0 0-.38.84 4.88 4.88 0 0 0-.11 1V79H405v-8.27zm3.85 2.34a3.83 3.83 0 0 1 2.21-2.25 4.68 4.68 0 0 1 1.76-.32 4.77 4.77 0 0 1 1.77.32 3.68 3.68 0 0 1 1.35.88 3.85 3.85 0 0 1 .86 1.37 4.93 4.93 0 0 1 .31 1.8 4.84 4.84 0 0 1-.31 1.79 3.85 3.85 0 0 1-.86 1.37 3.66 3.66 0 0 1-1.35.87 4.77 4.77 0 0 1-1.77.31 4.68 4.68 0 0 1-1.76-.31 3.78 3.78 0 0 1-2.21-2.24 5.05 5.05 0 0 1-.3-1.79 5.15 5.15 0 0 1 .3-1.8zm2 2.77a2.63 2.63 0 0 0 .32.85 1.78 1.78 0 0 0 .62.6 1.89 1.89 0 0 0 1 .22 1.93 1.93 0 0 0 1-.22 1.7 1.7 0 0 0 .62-.6 2.43 2.43 0 0 0 .33-.85 5.15 5.15 0 0 0 .1-1 5.23 5.23 0 0 0-.1-1 2.29 2.29 0 0 0-.33-.85 1.7 1.7 0 0 0-.62-.6 1.83 1.83 0 0 0-1-.23 1.75 1.75 0 0 0-1.58.83 2.46 2.46 0 0 0-.32.85 4.5 4.5 0 0 0-.1 1 4.43 4.43 0 0 0 .06 1zm15.52 3.77a3 3 0 0 1-.59 1.19 3.54 3.54 0 0 1-1.29.94 5.75 5.75 0 0 1-2.28.38 5.38 5.38 0 0 1-1.24-.15 4 4 0 0 1-1.12-.47 2.84 2.84 0 0 1-.86-.83 2.35 2.35 0 0 1-.39-1.21H423a1.3 1.3 0 0 0 .63.89 2.17 2.17 0 0 0 1.07.25 1.64 1.64 0 0 0 1.4-.58 2.27 2.27 0 0 0 .42-1.45v-1.09a2.25 2.25 0 0 1-1 1 3.35 3.35 0 0 1-1.43.31 3.6 3.6 0 0 1-1.6-.33 2.93 2.93 0 0 1-1.1-.89 3.82 3.82 0 0 1-.64-1.33 6.46 6.46 0 0 1-.2-1.61 5 5 0 0 1 .24-1.54 3.94 3.94 0 0 1 .68-1.32 3.27 3.27 0 0 1 1.11-.9 3.38 3.38 0 0 1 1.42-.37 3.24 3.24 0 0 1 1.43.31 2.46 2.46 0 0 1 1 1v-1.1h2.16v7.74a5.61 5.61 0 0 1-.07 1.16zm-3.12-2.75a1.71 1.71 0 0 0 .61-.52 2.21 2.21 0 0 0 .36-.72 3.08 3.08 0 0 0 .12-.86 5.07 5.07 0 0 0-.09-1 2.92 2.92 0 0 0-.32-.81 1.7 1.7 0 0 0-.6-.56 1.93 1.93 0 0 0-.92-.2 1.59 1.59 0 0 0-1.4.71 2.14 2.14 0 0 0-.34.75 3.68 3.68 0 0 0-.1.89 5.35 5.35 0 0 0 .08.89 2.37 2.37 0 0 0 .31.79 1.73 1.73 0 0 0 .57.57 1.57 1.57 0 0 0 .88.23 1.86 1.86 0 0 0 .84-.16zm7.24-6.13v1.53a2.75 2.75 0 0 1 .43-.71 3 3 0 0 1 .62-.56 3.53 3.53 0 0 1 .76-.36 2.83 2.83 0 0 1 .83-.13 1.85 1.85 0 0 1 .49.08v2.12a2.77 2.77 0 0 0-.38-.06 3.17 3.17 0 0 0-.43 0 2.57 2.57 0 0 0-1.06.2 1.77 1.77 0 0 0-.69.57 2.15 2.15 0 0 0-.38.84 4.88 4.88 0 0 0-.11 1V79h-2.27v-8.27zm6.2 6.27a2.05 2.05 0 0 0 1.48.49 2 2 0 0 0 1.18-.34 1.45 1.45 0 0 0 .61-.73h2a3.82 3.82 0 0 1-1.47 2.13 4.35 4.35 0 0 1-2.4.64 4.84 4.84 0 0 1-1.76-.31 3.66 3.66 0 0 1-1.33-.89 3.94 3.94 0 0 1-.84-1.38 5 5 0 0 1-.3-1.76 4.7 4.7 0 0 1 .31-1.73 4.08 4.08 0 0 1 .86-1.38 4 4 0 0 1 1.34-.92 4.33 4.33 0 0 1 1.72-.34 4 4 0 0 1 1.84.41 3.59 3.59 0 0 1 1.28 1.1 4.44 4.44 0 0 1 .73 1.57 5.88 5.88 0 0 1 .16 1.84h-6a2.35 2.35 0 0 0 .59 1.6zm2.57-4.36a1.61 1.61 0 0 0-1.24-.44 2 2 0 0 0-.9.18 1.67 1.67 0 0 0-.58.46 1.74 1.74 0 0 0-.3.57 2.54 2.54 0 0 0-.11.55H442a2.69 2.69 0 0 0-.59-1.3zm6.1 4.3a1.38 1.38 0 0 0 .39.44 1.61 1.61 0 0 0 .55.24 2.36 2.36 0 0 0 .65.08 2.18 2.18 0 0 0 .5 0 1.71 1.71 0 0 0 .48-.18.93.93 0 0 0 .36-.32.8.8 0 0 0 .15-.5c0-.34-.23-.6-.68-.77a14 14 0 0 0-1.9-.51c-.33-.08-.65-.16-1-.27a3.26 3.26 0 0 1-.84-.4 1.94 1.94 0 0 1-.59-.62 1.77 1.77 0 0 1-.22-.92 2.47 2.47 0 0 1 .31-1.31 2.35 2.35 0 0 1 .82-.81 3.59 3.59 0 0 1 1.15-.42 7.2 7.2 0 0 1 1.36-.17 6.9 6.9 0 0 1 1.3.13 3.64 3.64 0 0 1 1.13.43 2.75 2.75 0 0 1 .82.81 2.68 2.68 0 0 1 .39 1.27h-2.15a1 1 0 0 0-.5-.88 2.21 2.21 0 0 0-1.06-.24h-.41a1.3 1.3 0 0 0-.41.1.9.9 0 0 0-.31.23.61.61 0 0 0-.13.41.62.62 0 0 0 .22.5 1.73 1.73 0 0 0 .59.31c.24.08.51.15.82.22l.95.2a9.7 9.7 0 0 1 1 .28 2.76 2.76 0 0 1 .84.42 2 2 0 0 1 .59.66 1.89 1.89 0 0 1 .23 1 2.62 2.62 0 0 1-.33 1.37 2.53 2.53 0 0 1-.86.89 3.54 3.54 0 0 1-1.2.47 7.2 7.2 0 0 1-1.39.14 6.62 6.62 0 0 1-1.41-.15 3.54 3.54 0 0 1-1.22-.48 2.74 2.74 0 0 1-.88-.88 2.77 2.77 0 0 1-.37-1.39h2.16a1.22 1.22 0 0 0 .1.62zm8.59 0a1.38 1.38 0 0 0 .39.44 1.61 1.61 0 0 0 .55.24 2.36 2.36 0 0 0 .65.08 2.32 2.32 0 0 0 .51 0 1.76 1.76 0 0 0 .47-.18 1 1 0 0 0 .37-.32.87.87 0 0 0 .14-.5c0-.34-.23-.6-.68-.77a13.6 13.6 0 0 0-1.9-.51c-.33-.08-.65-.16-1-.27a3.26 3.26 0 0 1-.84-.4 1.94 1.94 0 0 1-.59-.62 1.77 1.77 0 0 1-.22-.92 2.47 2.47 0 0 1 .31-1.31 2.3 2.3 0 0 1 .83-.81 3.5 3.5 0 0 1 1.15-.42 7 7 0 0 1 1.31-.12 6.9 6.9 0 0 1 1.3.13 3.64 3.64 0 0 1 1.13.43 2.64 2.64 0 0 1 .82.81 2.8 2.8 0 0 1 .4 1.27h-2.16a1 1 0 0 0-.5-.88 2.21 2.21 0 0 0-1.06-.24h-.41a1.3 1.3 0 0 0-.41.1.9.9 0 0 0-.31.23.61.61 0 0 0-.13.41.65.65 0 0 0 .22.5 1.73 1.73 0 0 0 .59.31c.24.08.51.15.82.22l.95.2a9.7 9.7 0 0 1 1 .28 2.76 2.76 0 0 1 .84.42 2.1 2.1 0 0 1 .6.66 1.89 1.89 0 0 1 .22 1 2.62 2.62 0 0 1-.33 1.37 2.59 2.59 0 0 1-.85.89 3.6 3.6 0 0 1-1.21.47 7.12 7.12 0 0 1-1.39.14 6.59 6.59 0 0 1-1.4-.15 3.51 3.51 0 0 1-1.23-.48 2.84 2.84 0 0 1-.88-.88 2.77 2.77 0 0 1-.37-1.39h2.2a1.22 1.22 0 0 0 .1.57zm6.74-7.49v-1.87h2.28v1.87zm2.28 1.28V79h-2.28v-8.27zM469 79l-2.84-8.27h2.39l1.74 5.65 1.71-5.65h2.25L471.48 79zm8.66-2a2 2 0 0 0 1.47.49 2.05 2.05 0 0 0 1.19-.34 1.38 1.38 0 0 0 .6-.73h2a3.82 3.82 0 0 1-1.47 2.13 4.3 4.3 0 0 1-2.4.64 4.88 4.88 0 0 1-1.76-.31A3.84 3.84 0 0 1 476 78a4.09 4.09 0 0 1-.84-1.38 5.2 5.2 0 0 1-.29-1.76 4.91 4.91 0 0 1 .3-1.73 4.06 4.06 0 0 1 2.2-2.3 4.36 4.36 0 0 1 1.72-.34 4 4 0 0 1 1.84.41 3.71 3.71 0 0 1 1.29 1.1 4.62 4.62 0 0 1 .73 1.57 5.88 5.88 0 0 1 .16 1.84h-6a2.3 2.3 0 0 0 .55 1.59zm2.57-4.36a1.63 1.63 0 0 0-1.24-.44 2 2 0 0 0-.91.18 1.55 1.55 0 0 0-.57.46 1.6 1.6 0 0 0-.31.57 2.48 2.48 0 0 0-.1.55h3.69a2.6 2.6 0 0 0-.56-1.3z" fill="#fff"/></g><rect x="544.5" y="57.5" width="111" height="31" rx="2" fill="#ff4242" stroke="#ff4242"/><g style="isolation:isolate"><path d="M562.32 67.58a5.79 5.79 0 0 1 2.06.35A4.36 4.36 0 0 1 566 69a4.82 4.82 0 0 1 1.09 1.76 7.17 7.17 0 0 1 .39 2.48 7.73 7.73 0 0 1-.32 2.31 5 5 0 0 1-1 1.82 4.57 4.57 0 0 1-1.62 1.21 5.55 5.55 0 0 1-2.28.44h-4.93V67.58zm-.18 9.31a3.15 3.15 0 0 0 1.06-.18 2.4 2.4 0 0 0 .91-.58 2.88 2.88 0 0 0 .64-1.07 4.65 4.65 0 0 0 .24-1.6 6.32 6.32 0 0 0-.17-1.56 3 3 0 0 0-.55-1.19 2.44 2.44 0 0 0-1-.76 4.24 4.24 0 0 0-1.56-.26h-1.8v7.2zm9.3.11a2 2 0 0 0 1.47.49 2.05 2.05 0 0 0 1.19-.34 1.38 1.38 0 0 0 .6-.73h2a3.82 3.82 0 0 1-1.47 2.13 4.3 4.3 0 0 1-2.4.64 4.88 4.88 0 0 1-1.76-.31 3.84 3.84 0 0 1-1.33-.89 4.09 4.09 0 0 1-.84-1.38 5.2 5.2 0 0 1-.29-1.76 4.91 4.91 0 0 1 .3-1.73 4.06 4.06 0 0 1 2.2-2.3 4.36 4.36 0 0 1 1.72-.34 3.93 3.93 0 0 1 1.84.41A3.71 3.71 0 0 1 576 72a4.44 4.44 0 0 1 .73 1.57 5.88 5.88 0 0 1 .16 1.84h-6a2.3 2.3 0 0 0 .55 1.59zm2.56-4.34a1.63 1.63 0 0 0-1.24-.44 2 2 0 0 0-.91.18 1.55 1.55 0 0 0-.57.46 1.6 1.6 0 0 0-.31.57 2.48 2.48 0 0 0-.1.55h3.7a2.69 2.69 0 0 0-.57-1.32zm6.1 4.28a1.54 1.54 0 0 0 .4.44 1.61 1.61 0 0 0 .55.24 2.32 2.32 0 0 0 .65.08 2.23 2.23 0 0 0 .5 0 1.71 1.71 0 0 0 .48-.18 1.1 1.1 0 0 0 .36-.32.8.8 0 0 0 .14-.5c0-.34-.22-.6-.68-.77a13.4 13.4 0 0 0-1.89-.51 9.87 9.87 0 0 1-1-.27 3.11 3.11 0 0 1-.84-.4 1.84 1.84 0 0 1-.59-.62 1.77 1.77 0 0 1-.23-.92 2.47 2.47 0 0 1 .32-1.31 2.27 2.27 0 0 1 .82-.81 3.5 3.5 0 0 1 1.15-.42 7.17 7.17 0 0 1 1.31-.12 7 7 0 0 1 1.31.13 3.64 3.64 0 0 1 1.13.43 2.75 2.75 0 0 1 .82.81 2.68 2.68 0 0 1 .39 1.27h-2.16a1 1 0 0 0-.49-.88 2.24 2.24 0 0 0-1.06-.24h-.42a1.24 1.24 0 0 0-.4.1.94.94 0 0 0-.32.23.66.66 0 0 0-.12.41.62.62 0 0 0 .22.5 1.68 1.68 0 0 0 .58.31c.24.08.52.15.83.22l.94.2a9.89 9.89 0 0 1 1 .28 3 3 0 0 1 .84.42 2.19 2.19 0 0 1 .59.66 1.89 1.89 0 0 1 .23 1 2.52 2.52 0 0 1-1.19 2.26 3.52 3.52 0 0 1-1.21.47 7 7 0 0 1-1.38.14 6.62 6.62 0 0 1-1.41-.15 3.46 3.46 0 0 1-1.22-.48 2.74 2.74 0 0 1-.88-.88 2.78 2.78 0 0 1-.38-1.39H580a1.22 1.22 0 0 0 .1.57zm11.23-6.21v1.52h-1.67v4.09a1.1 1.1 0 0 0 .2.77 1.07 1.07 0 0 0 .76.19h.38l.34-.05V79a5.82 5.82 0 0 1-.64.06h-.69a6.36 6.36 0 0 1-1-.07 2.32 2.32 0 0 1-.83-.28 1.54 1.54 0 0 1-.57-.59 2.13 2.13 0 0 1-.21-1v-4.87H586v-1.52h1.37v-2.48h2.27v2.48zm3.25 0v1.53a2.75 2.75 0 0 1 .43-.71 3 3 0 0 1 .62-.56 3.53 3.53 0 0 1 .76-.36 2.83 2.83 0 0 1 .83-.13 1.85 1.85 0 0 1 .49.08v2.12a2.77 2.77 0 0 0-.38-.06 3.17 3.17 0 0 0-.43 0 2.57 2.57 0 0 0-1.06.2 1.77 1.77 0 0 0-.69.57 2.15 2.15 0 0 0-.38.84 4.31 4.31 0 0 0-.11 1V79h-2.27v-8.27zm9.66 8.27v-1.15a2.6 2.6 0 0 1-1.12 1 3.37 3.37 0 0 1-1.41.32 3.94 3.94 0 0 1-1.49-.24 2.16 2.16 0 0 1-.92-.68 2.55 2.55 0 0 1-.47-1.07 6.09 6.09 0 0 1-.14-1.4v-5.05h2.27v4.67a3 3 0 0 0 .32 1.53 1.25 1.25 0 0 0 1.14.5 1.56 1.56 0 0 0 1.34-.55 3 3 0 0 0 .42-1.82v-4.33h2.27V79zm7.84-6.78a1.62 1.62 0 0 0-.91.24 1.93 1.93 0 0 0-.6.64 2.62 2.62 0 0 0-.33.87 4.33 4.33 0 0 0 0 1.85 2.81 2.81 0 0 0 .31.84 1.88 1.88 0 0 0 .58.61 1.63 1.63 0 0 0 .9.24 1.69 1.69 0 0 0 1.26-.45 2.26 2.26 0 0 0 .55-1.23H616a3.71 3.71 0 0 1-1.28 2.51 4.09 4.09 0 0 1-2.7.87 4.73 4.73 0 0 1-1.71-.31A3.87 3.87 0 0 1 609 78a4 4 0 0 1-.85-1.33 4.73 4.73 0 0 1-.3-1.71 5.4 5.4 0 0 1 .28-1.78 4.07 4.07 0 0 1 .82-1.42 3.83 3.83 0 0 1 1.33-.94 4.61 4.61 0 0 1 1.79-.34 5.13 5.13 0 0 1 1.42.2 3.72 3.72 0 0 1 1.22.58 3 3 0 0 1 1.29 2.38h-2.22a1.52 1.52 0 0 0-1.7-1.42zm9.78-1.49v1.52h-1.67v4.09a1.1 1.1 0 0 0 .19.77 1.12 1.12 0 0 0 .77.19h.37l.34-.05V79a6 6 0 0 1-.65.06h-.68a6.28 6.28 0 0 1-1-.07 2.26 2.26 0 0 1-.83-.28 1.54 1.54 0 0 1-.57-.59 2.13 2.13 0 0 1-.21-1v-4.87h-1.38v-1.52h1.38v-2.48h2.27v2.48zm1.14-1.28v-1.87h2.27v1.87zm2.27 1.28V79H623v-8.27zm3.85 8.27l-2.83-8.27h2.38l1.75 5.65 1.74-5.65h2.26L631.65 79zm8.7-2a2.36 2.36 0 0 0 2.66.15 1.45 1.45 0 0 0 .61-.73h2a3.79 3.79 0 0 1-1.48 2.13 4.3 4.3 0 0 1-2.4.64 4.92 4.92 0 0 1-1.76-.31 3.71 3.71 0 0 1-1.32-.89 3.8 3.8 0 0 1-.84-1.38 5.22 5.22 0 0 1 0-3.49 4.1 4.1 0 0 1 .87-1.38 4 4 0 0 1 1.33-.92 4.36 4.36 0 0 1 1.72-.34 3.93 3.93 0 0 1 1.84.41 3.54 3.54 0 0 1 1.29 1.1 4.44 4.44 0 0 1 .73 1.57 5.88 5.88 0 0 1 .16 1.84h-6a2.3 2.3 0 0 0 .59 1.6zm2.57-4.36a1.61 1.61 0 0 0-1.24-.44 2 2 0 0 0-.9.18 1.68 1.68 0 0 0-.88 1 2.54 2.54 0 0 0-.11.55H641a2.69 2.69 0 0 0-.61-1.27z" fill="#fff"/></g><rect x="381.5" y="1.5" width="114" height="31" rx="2" fill="#36c" stroke="#36c"/><g style="isolation:isolate"><path d="M399.71 11.58a4.71 4.71 0 0 1 1.82.31 3.54 3.54 0 0 1 1.23.82 3.13 3.13 0 0 1 .68 1.17 4.28 4.28 0 0 1 0 2.71 3.1 3.1 0 0 1-.68 1.18 3.54 3.54 0 0 1-1.23.82 4.71 4.71 0 0 1-1.82.31h-2.64V23h-2.51V11.58zM399 17a5.59 5.59 0 0 0 .83-.06 2 2 0 0 0 .71-.25 1.34 1.34 0 0 0 .48-.52 1.74 1.74 0 0 0 .19-.88 1.74 1.74 0 0 0-.19-.88 1.34 1.34 0 0 0-.48-.52 2 2 0 0 0-.71-.25 5.59 5.59 0 0 0-.83-.06h-1.95V17zm8.15-2.27v1.53a3.06 3.06 0 0 1 .43-.71 2.81 2.81 0 0 1 .63-.56 3.24 3.24 0 0 1 .75-.36 2.83 2.83 0 0 1 .83-.13 2 2 0 0 1 .5.08v2.12a3.24 3.24 0 0 0-.39-.06 3.17 3.17 0 0 0-.43 0 2.57 2.57 0 0 0-1.06.2 1.84 1.84 0 0 0-.69.57 2.31 2.31 0 0 0-.38.84 4.88 4.88 0 0 0-.11 1V23H405v-8.27zm3.85 2.34a3.83 3.83 0 0 1 2.21-2.25 4.68 4.68 0 0 1 1.76-.32 4.77 4.77 0 0 1 1.77.32 3.68 3.68 0 0 1 1.35.88 3.85 3.85 0 0 1 .86 1.37 4.93 4.93 0 0 1 .31 1.8 4.84 4.84 0 0 1-.31 1.79 3.85 3.85 0 0 1-.86 1.37 3.66 3.66 0 0 1-1.35.87 4.77 4.77 0 0 1-1.77.31 4.68 4.68 0 0 1-1.76-.31 3.78 3.78 0 0 1-2.21-2.24 5.05 5.05 0 0 1-.3-1.79 5.15 5.15 0 0 1 .3-1.8zm2 2.77a2.63 2.63 0 0 0 .32.85 1.78 1.78 0 0 0 .62.6 1.89 1.89 0 0 0 1 .22 1.93 1.93 0 0 0 1-.22 1.7 1.7 0 0 0 .62-.6 2.43 2.43 0 0 0 .33-.85 5.15 5.15 0 0 0 .1-1 5.23 5.23 0 0 0-.1-1 2.29 2.29 0 0 0-.33-.85 1.7 1.7 0 0 0-.62-.6 1.83 1.83 0 0 0-1-.23 1.75 1.75 0 0 0-1.58.83 2.46 2.46 0 0 0-.32.85 4.5 4.5 0 0 0-.1 1 4.43 4.43 0 0 0 .06 1zm15.52 3.77a3 3 0 0 1-.59 1.19 3.54 3.54 0 0 1-1.29.94 5.75 5.75 0 0 1-2.28.38 5.38 5.38 0 0 1-1.24-.15 4 4 0 0 1-1.12-.47 2.84 2.84 0 0 1-.86-.83 2.35 2.35 0 0 1-.39-1.21H423a1.3 1.3 0 0 0 .63.89 2.17 2.17 0 0 0 1.07.25 1.64 1.64 0 0 0 1.4-.58 2.27 2.27 0 0 0 .42-1.45v-1.09a2.25 2.25 0 0 1-1 1 3.35 3.35 0 0 1-1.43.31 3.6 3.6 0 0 1-1.6-.33 2.93 2.93 0 0 1-1.1-.89 3.82 3.82 0 0 1-.64-1.33 6.46 6.46 0 0 1-.2-1.61 5 5 0 0 1 .24-1.54 3.94 3.94 0 0 1 .68-1.32 3.27 3.27 0 0 1 1.11-.9 3.38 3.38 0 0 1 1.42-.37 3.24 3.24 0 0 1 1.43.31 2.46 2.46 0 0 1 1 1v-1.1h2.16v7.74a5.61 5.61 0 0 1-.07 1.16zm-3.12-2.75a1.71 1.71 0 0 0 .61-.52 2.21 2.21 0 0 0 .36-.72 3.08 3.08 0 0 0 .12-.86 5.07 5.07 0 0 0-.09-1 2.92 2.92 0 0 0-.32-.81 1.7 1.7 0 0 0-.6-.56 1.93 1.93 0 0 0-.92-.2 1.59 1.59 0 0 0-1.4.71 2.14 2.14 0 0 0-.34.75 3.68 3.68 0 0 0-.1.89 5.35 5.35 0 0 0 .08.89 2.37 2.37 0 0 0 .31.79 1.73 1.73 0 0 0 .57.57 1.57 1.57 0 0 0 .88.23 1.86 1.86 0 0 0 .84-.16zm7.24-6.13v1.53a2.75 2.75 0 0 1 .43-.71 3 3 0 0 1 .62-.56 3.53 3.53 0 0 1 .76-.36 2.83 2.83 0 0 1 .83-.13 1.85 1.85 0 0 1 .49.08v2.12a2.77 2.77 0 0 0-.38-.06 3.17 3.17 0 0 0-.43 0 2.57 2.57 0 0 0-1.06.2 1.77 1.77 0 0 0-.69.57 2.15 2.15 0 0 0-.38.84 4.88 4.88 0 0 0-.11 1V23h-2.27v-8.27zm6.2 6.27a2.05 2.05 0 0 0 1.48.49 2 2 0 0 0 1.18-.34 1.45 1.45 0 0 0 .61-.73h2a3.82 3.82 0 0 1-1.47 2.13 4.35 4.35 0 0 1-2.4.64 4.84 4.84 0 0 1-1.76-.31 3.66 3.66 0 0 1-1.33-.89 3.94 3.94 0 0 1-.84-1.38 5 5 0 0 1-.3-1.76 4.7 4.7 0 0 1 .31-1.73 4.08 4.08 0 0 1 .86-1.38 4 4 0 0 1 1.34-.92 4.33 4.33 0 0 1 1.72-.34 4 4 0 0 1 1.84.41 3.59 3.59 0 0 1 1.28 1.1 4.44 4.44 0 0 1 .73 1.57 5.88 5.88 0 0 1 .16 1.84h-6a2.35 2.35 0 0 0 .59 1.6zm2.57-4.36a1.61 1.61 0 0 0-1.24-.44 2 2 0 0 0-.9.18 1.67 1.67 0 0 0-.58.46 1.74 1.74 0 0 0-.3.57 2.54 2.54 0 0 0-.11.55H442a2.69 2.69 0 0 0-.59-1.3zm6.1 4.3a1.38 1.38 0 0 0 .39.44 1.61 1.61 0 0 0 .55.24 2.36 2.36 0 0 0 .65.08 2.18 2.18 0 0 0 .5-.05 1.71 1.71 0 0 0 .48-.18.93.93 0 0 0 .36-.32.8.8 0 0 0 .15-.5c0-.34-.23-.6-.68-.77a14 14 0 0 0-1.9-.51c-.33-.08-.65-.16-1-.27a3.26 3.26 0 0 1-.84-.4 1.94 1.94 0 0 1-.59-.62 1.77 1.77 0 0 1-.22-.92 2.47 2.47 0 0 1 .31-1.31 2.35 2.35 0 0 1 .82-.81 3.59 3.59 0 0 1 1.15-.42 7.2 7.2 0 0 1 1.36-.12 6.9 6.9 0 0 1 1.3.13 3.64 3.64 0 0 1 1.13.43 2.75 2.75 0 0 1 .82.81 2.68 2.68 0 0 1 .39 1.27h-2.15a1 1 0 0 0-.5-.88 2.21 2.21 0 0 0-1.06-.24h-.41a1.3 1.3 0 0 0-.41.1.9.9 0 0 0-.31.23.61.61 0 0 0-.13.41.62.62 0 0 0 .22.5 1.73 1.73 0 0 0 .59.31c.24.08.51.15.82.22l.95.2a9.7 9.7 0 0 1 1 .28 2.76 2.76 0 0 1 .84.42 2 2 0 0 1 .59.66 1.89 1.89 0 0 1 .23 1 2.62 2.62 0 0 1-.33 1.37 2.53 2.53 0 0 1-.86.89 3.54 3.54 0 0 1-1.2.47 7.2 7.2 0 0 1-1.39.14 6.62 6.62 0 0 1-1.41-.15 3.54 3.54 0 0 1-1.22-.48 2.74 2.74 0 0 1-.88-.88 2.77 2.77 0 0 1-.37-1.39h2.16a1.22 1.22 0 0 0 .1.62zm8.59 0a1.38 1.38 0 0 0 .39.44 1.61 1.61 0 0 0 .55.24 2.36 2.36 0 0 0 .65.08 2.32 2.32 0 0 0 .51-.05 1.76 1.76 0 0 0 .47-.18 1 1 0 0 0 .37-.32.87.87 0 0 0 .14-.5c0-.34-.23-.6-.68-.77a13.6 13.6 0 0 0-1.9-.51c-.33-.08-.65-.16-1-.27a3.26 3.26 0 0 1-.84-.4 1.94 1.94 0 0 1-.59-.62 1.77 1.77 0 0 1-.22-.92 2.47 2.47 0 0 1 .31-1.31 2.3 2.3 0 0 1 .83-.81 3.5 3.5 0 0 1 1.15-.42 7 7 0 0 1 1.31-.12 6.9 6.9 0 0 1 1.3.13 3.64 3.64 0 0 1 1.13.43 2.64 2.64 0 0 1 .82.81 2.8 2.8 0 0 1 .4 1.27h-2.16a1 1 0 0 0-.5-.88 2.21 2.21 0 0 0-1.06-.24h-.41a1.3 1.3 0 0 0-.41.1.9.9 0 0 0-.31.23.61.61 0 0 0-.13.41.65.65 0 0 0 .22.5 1.73 1.73 0 0 0 .59.31c.24.08.51.15.82.22l.95.2a9.7 9.7 0 0 1 1 .28 2.76 2.76 0 0 1 .84.42 2.1 2.1 0 0 1 .6.66 1.89 1.89 0 0 1 .22 1 2.62 2.62 0 0 1-.33 1.37 2.59 2.59 0 0 1-.85.89 3.6 3.6 0 0 1-1.21.47 7.12 7.12 0 0 1-1.39.14 6.59 6.59 0 0 1-1.4-.15 3.51 3.51 0 0 1-1.23-.48 2.84 2.84 0 0 1-.88-.88 2.77 2.77 0 0 1-.37-1.39h2.2a1.22 1.22 0 0 0 .1.62zm6.74-7.49v-1.87h2.28v1.87zm2.28 1.28V23h-2.28v-8.27zM469 23l-2.84-8.27h2.39l1.74 5.65 1.71-5.65h2.25L471.48 23zm8.66-2a2 2 0 0 0 1.47.49 2.05 2.05 0 0 0 1.19-.34 1.38 1.38 0 0 0 .6-.73h2a3.82 3.82 0 0 1-1.47 2.13 4.3 4.3 0 0 1-2.4.64 4.88 4.88 0 0 1-1.76-.31A3.84 3.84 0 0 1 476 22a4.09 4.09 0 0 1-.84-1.38 5.2 5.2 0 0 1-.29-1.76 4.91 4.91 0 0 1 .3-1.73 4.06 4.06 0 0 1 2.2-2.3 4.36 4.36 0 0 1 1.72-.34 4 4 0 0 1 1.84.41 3.71 3.71 0 0 1 1.29 1.1 4.62 4.62 0 0 1 .73 1.57 5.88 5.88 0 0 1 .16 1.84h-6a2.3 2.3 0 0 0 .55 1.59zm2.57-4.36a1.63 1.63 0 0 0-1.24-.44 2 2 0 0 0-.91.18 1.55 1.55 0 0 0-.57.46 1.6 1.6 0 0 0-.31.57 2.48 2.48 0 0 0-.1.55h3.69a2.6 2.6 0 0 0-.56-1.3z" fill="#fff"/></g><rect x="544.5" y="1.5" width="111" height="31" rx="2" fill="#d33" stroke="#d33"/><g style="isolation:isolate"><path d="M562.32 11.58a5.79 5.79 0 0 1 2.06.35A4.36 4.36 0 0 1 566 13a4.82 4.82 0 0 1 1.09 1.76 7.17 7.17 0 0 1 .39 2.48 7.73 7.73 0 0 1-.32 2.31 5 5 0 0 1-1 1.82 4.57 4.57 0 0 1-1.62 1.21 5.55 5.55 0 0 1-2.28.44h-4.93V11.58zm-.18 9.31a3.15 3.15 0 0 0 1.06-.18 2.4 2.4 0 0 0 .91-.58 2.88 2.88 0 0 0 .64-1.07 4.65 4.65 0 0 0 .24-1.6 6.32 6.32 0 0 0-.17-1.56 3 3 0 0 0-.55-1.19 2.44 2.44 0 0 0-1-.76 4.24 4.24 0 0 0-1.56-.26h-1.8v7.2zm9.3.11a2 2 0 0 0 1.47.49 2.05 2.05 0 0 0 1.19-.34 1.38 1.38 0 0 0 .6-.73h2a3.82 3.82 0 0 1-1.47 2.13 4.3 4.3 0 0 1-2.4.64 4.88 4.88 0 0 1-1.76-.31 3.84 3.84 0 0 1-1.33-.89 4.09 4.09 0 0 1-.84-1.38 5.2 5.2 0 0 1-.29-1.76 4.91 4.91 0 0 1 .3-1.73 4.06 4.06 0 0 1 2.2-2.3 4.36 4.36 0 0 1 1.72-.34 3.93 3.93 0 0 1 1.84.41A3.71 3.71 0 0 1 576 16a4.44 4.44 0 0 1 .73 1.57 5.88 5.88 0 0 1 .16 1.84h-6a2.3 2.3 0 0 0 .55 1.59zm2.56-4.34a1.63 1.63 0 0 0-1.24-.44 2 2 0 0 0-.91.18 1.55 1.55 0 0 0-.57.46 1.6 1.6 0 0 0-.31.57 2.48 2.48 0 0 0-.1.55h3.7a2.69 2.69 0 0 0-.57-1.32zm6.1 4.28a1.54 1.54 0 0 0 .4.44 1.61 1.61 0 0 0 .55.24 2.32 2.32 0 0 0 .65.08 2.23 2.23 0 0 0 .5-.05 1.71 1.71 0 0 0 .48-.18 1.1 1.1 0 0 0 .36-.32.8.8 0 0 0 .14-.5c0-.34-.22-.6-.68-.77a13.4 13.4 0 0 0-1.89-.51 9.87 9.87 0 0 1-1-.27 3.11 3.11 0 0 1-.84-.4 1.84 1.84 0 0 1-.59-.62 1.77 1.77 0 0 1-.23-.92 2.47 2.47 0 0 1 .32-1.31 2.27 2.27 0 0 1 .82-.81 3.5 3.5 0 0 1 1.15-.42 7.17 7.17 0 0 1 1.31-.12 7 7 0 0 1 1.31.13 3.64 3.64 0 0 1 1.13.43 2.75 2.75 0 0 1 .82.81 2.68 2.68 0 0 1 .39 1.27h-2.16a1 1 0 0 0-.49-.88 2.24 2.24 0 0 0-1.06-.24h-.42a1.24 1.24 0 0 0-.4.1.94.94 0 0 0-.32.23.66.66 0 0 0-.12.41.62.62 0 0 0 .22.5 1.68 1.68 0 0 0 .58.31c.24.08.52.15.83.22l.94.2a9.89 9.89 0 0 1 1 .28 3 3 0 0 1 .84.42 2.19 2.19 0 0 1 .59.66 1.89 1.89 0 0 1 .23 1 2.52 2.52 0 0 1-1.19 2.26 3.52 3.52 0 0 1-1.21.47 7 7 0 0 1-1.38.14 6.62 6.62 0 0 1-1.41-.15 3.46 3.46 0 0 1-1.22-.48 2.74 2.74 0 0 1-.88-.88 2.78 2.78 0 0 1-.38-1.39H580a1.22 1.22 0 0 0 .1.62zm11.23-6.21v1.52h-1.67v4.09a1.1 1.1 0 0 0 .2.77 1.07 1.07 0 0 0 .76.19h.38l.34-.05V23a5.82 5.82 0 0 1-.64.06h-.69a6.36 6.36 0 0 1-1-.07 2.32 2.32 0 0 1-.83-.28 1.54 1.54 0 0 1-.57-.59 2.13 2.13 0 0 1-.21-1v-4.87H586v-1.52h1.37v-2.48h2.27v2.48zm3.25 0v1.53a2.75 2.75 0 0 1 .43-.71 3 3 0 0 1 .62-.56 3.53 3.53 0 0 1 .76-.36 2.83 2.83 0 0 1 .83-.13 1.85 1.85 0 0 1 .49.08v2.12a2.77 2.77 0 0 0-.38-.06 3.17 3.17 0 0 0-.43 0 2.57 2.57 0 0 0-1.06.2 1.77 1.77 0 0 0-.69.57 2.15 2.15 0 0 0-.38.84 4.31 4.31 0 0 0-.11 1V23h-2.27v-8.27zm9.66 8.27v-1.15a2.6 2.6 0 0 1-1.12 1 3.37 3.37 0 0 1-1.41.32 3.94 3.94 0 0 1-1.49-.24 2.16 2.16 0 0 1-.92-.68 2.55 2.55 0 0 1-.47-1.07 6.09 6.09 0 0 1-.14-1.4v-5.05h2.27v4.67a3 3 0 0 0 .32 1.53 1.25 1.25 0 0 0 1.14.5 1.56 1.56 0 0 0 1.34-.55 3 3 0 0 0 .42-1.82v-4.33h2.27V23zm7.84-6.78a1.62 1.62 0 0 0-.91.24 1.93 1.93 0 0 0-.6.64 2.62 2.62 0 0 0-.33.87 4.33 4.33 0 0 0 0 1.85 2.81 2.81 0 0 0 .31.84 1.88 1.88 0 0 0 .58.61 1.63 1.63 0 0 0 .9.24 1.69 1.69 0 0 0 1.26-.45 2.26 2.26 0 0 0 .55-1.23H616a3.71 3.71 0 0 1-1.28 2.51 4.09 4.09 0 0 1-2.7.87 4.73 4.73 0 0 1-1.71-.31A3.87 3.87 0 0 1 609 22a4 4 0 0 1-.85-1.33 4.73 4.73 0 0 1-.3-1.71 5.4 5.4 0 0 1 .28-1.78 4.07 4.07 0 0 1 .82-1.42 3.83 3.83 0 0 1 1.33-.94 4.61 4.61 0 0 1 1.79-.34 5.13 5.13 0 0 1 1.42.2 3.72 3.72 0 0 1 1.22.58 3 3 0 0 1 1.29 2.38h-2.22a1.52 1.52 0 0 0-1.7-1.42zm9.78-1.49v1.52h-1.67v4.09a1.1 1.1 0 0 0 .19.77 1.12 1.12 0 0 0 .77.19h.37l.34-.05V23a6 6 0 0 1-.65.06h-.68a6.28 6.28 0 0 1-1-.07 2.26 2.26 0 0 1-.83-.28 1.54 1.54 0 0 1-.57-.59 2.13 2.13 0 0 1-.21-1v-4.87h-1.38v-1.52h1.38v-2.48h2.27v2.48zm1.14-1.28v-1.87h2.27v1.87zm2.27 1.28V23H623v-8.27zm3.85 8.27l-2.83-8.27h2.38l1.75 5.65 1.74-5.65h2.26L631.65 23zm8.7-2a2.36 2.36 0 0 0 2.66.15 1.45 1.45 0 0 0 .61-.73h2a3.79 3.79 0 0 1-1.48 2.13 4.3 4.3 0 0 1-2.4.64 4.92 4.92 0 0 1-1.76-.31 3.71 3.71 0 0 1-1.32-.89 3.8 3.8 0 0 1-.84-1.38 5.22 5.22 0 0 1 0-3.49 4.1 4.1 0 0 1 .87-1.38 4 4 0 0 1 1.33-.92 4.36 4.36 0 0 1 1.72-.34 3.93 3.93 0 0 1 1.84.41 3.54 3.54 0 0 1 1.29 1.1 4.44 4.44 0 0 1 .73 1.57 5.88 5.88 0 0 1 .16 1.84h-6a2.3 2.3 0 0 0 .59 1.6zm2.57-4.36a1.61 1.61 0 0 0-1.24-.44 2 2 0 0 0-.9.18 1.68 1.68 0 0 0-.88 1 2.54 2.54 0 0 0-.11.55H641a2.69 2.69 0 0 0-.61-1.27z" fill="#fff"/></g><rect x="381.5" y="225.5" width="114" height="31" rx="2" fill="#c8ccd1" stroke="#c8ccd1"/><g style="isolation:isolate"><path d="M399.26 236.58a4.71 4.71 0 0 1 1.82.31 3.4 3.4 0 0 1 1.22.82 3 3 0 0 1 .69 1.17 4.28 4.28 0 0 1 0 2.71 3 3 0 0 1-.69 1.18 3.4 3.4 0 0 1-1.22.82 4.71 4.71 0 0 1-1.82.31h-2.64v4.1h-2.52v-11.42zm-.69 5.37a5.59 5.59 0 0 0 .83-.06 1.88 1.88 0 0 0 .7-.25 1.29 1.29 0 0 0 .49-.52 2.13 2.13 0 0 0 0-1.76 1.29 1.29 0 0 0-.49-.52 1.88 1.88 0 0 0-.7-.25 5.59 5.59 0 0 0-.83-.06h-1.95V242zm8.13-2.22v1.53a2.75 2.75 0 0 1 .43-.71 3 3 0 0 1 .62-.56 3.53 3.53 0 0 1 .76-.36 2.83 2.83 0 0 1 .83-.13 1.85 1.85 0 0 1 .49.08v2.12a2.77 2.77 0 0 0-.38-.06 3.17 3.17 0 0 0-.43 0 2.57 2.57 0 0 0-1.06.2 1.77 1.77 0 0 0-.69.57 2.15 2.15 0 0 0-.38.84 4.88 4.88 0 0 0-.11 1V248h-2.27v-8.27zm3.82 2.34a3.76 3.76 0 0 1 2.21-2.25 4.68 4.68 0 0 1 1.76-.32 4.77 4.77 0 0 1 1.77.32 3.76 3.76 0 0 1 2.21 2.25 5.15 5.15 0 0 1 .31 1.8 5.05 5.05 0 0 1-.31 1.79 3.71 3.71 0 0 1-2.21 2.24 4.77 4.77 0 0 1-1.77.31 4.68 4.68 0 0 1-1.76-.31 3.71 3.71 0 0 1-2.21-2.24 5.05 5.05 0 0 1-.3-1.79 5.15 5.15 0 0 1 .3-1.8zm2.06 2.77a2.89 2.89 0 0 0 .33.85 1.78 1.78 0 0 0 .62.6 1.84 1.84 0 0 0 1 .22 2 2 0 0 0 1-.22 1.7 1.7 0 0 0 .62-.6 2.89 2.89 0 0 0 .33-.85 5.15 5.15 0 0 0 .09-1 5.23 5.23 0 0 0-.09-1 2.69 2.69 0 0 0-.33-.85 1.7 1.7 0 0 0-.62-.6 1.86 1.86 0 0 0-1-.23 1.75 1.75 0 0 0-1 .23 1.78 1.78 0 0 0-.62.6 2.69 2.69 0 0 0-.33.85 5.23 5.23 0 0 0-.09 1 5.15 5.15 0 0 0 .09 1zm15.48 3.77a2.81 2.81 0 0 1-.58 1.19 3.5 3.5 0 0 1-1.3.94 5.67 5.67 0 0 1-2.27.38 5.38 5.38 0 0 1-1.24-.15 4 4 0 0 1-1.15-.47 2.73 2.73 0 0 1-.86-.83 2.45 2.45 0 0 1-.4-1.21h2.26a1.29 1.29 0 0 0 .62.89 2.21 2.21 0 0 0 1.08.25 1.64 1.64 0 0 0 1.4-.58 2.27 2.27 0 0 0 .42-1.45v-1.09a2.29 2.29 0 0 1-1.05 1 3.35 3.35 0 0 1-1.43.31 3.6 3.6 0 0 1-1.6-.33 3 3 0 0 1-1.11-.89 4 4 0 0 1-.63-1.33 6.46 6.46 0 0 1-.2-1.61 5.27 5.27 0 0 1 .23-1.54 4.34 4.34 0 0 1 .68-1.32 3.3 3.3 0 0 1 1.12-.9 3.37 3.37 0 0 1 1.52-.34 3.28 3.28 0 0 1 1.44.31 2.46 2.46 0 0 1 1 1v-1.1h2.16v7.74a5.69 5.69 0 0 1-.11 1.13zm-3.06-2.75a1.71 1.71 0 0 0 .61-.52 2.21 2.21 0 0 0 .36-.72 3.08 3.08 0 0 0 .12-.86 4.37 4.37 0 0 0-.1-1 2.41 2.41 0 0 0-.32-.81 1.67 1.67 0 0 0-.59-.56 1.94 1.94 0 0 0-.93-.2 1.63 1.63 0 0 0-.82.19 1.8 1.8 0 0 0-.58.52 2.32 2.32 0 0 0-.33.75 3.68 3.68 0 0 0-.11.89 4.48 4.48 0 0 0 .09.89 2.37 2.37 0 0 0 .31.79 1.79 1.79 0 0 0 .56.57 1.62 1.62 0 0 0 .88.23 1.9 1.9 0 0 0 .85-.16zm7.18-6.13v1.53a2.75 2.75 0 0 1 .43-.71 3 3 0 0 1 .62-.56 3.69 3.69 0 0 1 .75-.36 3 3 0 0 1 .84-.13 1.91 1.91 0 0 1 .49.08v2.12a2.77 2.77 0 0 0-.38-.06 3.24 3.24 0 0 0-.43 0 2.57 2.57 0 0 0-1.06.2 1.87 1.87 0 0 0-.7.57 2.29 2.29 0 0 0-.37.84 4.31 4.31 0 0 0-.11 1V248H430v-8.27zm6.21 6.27a2.36 2.36 0 0 0 2.66.15 1.45 1.45 0 0 0 .61-.73h2a3.84 3.84 0 0 1-1.48 2.13 4.3 4.3 0 0 1-2.4.64 4.92 4.92 0 0 1-1.76-.31 3.71 3.71 0 0 1-1.32-.89 3.8 3.8 0 0 1-.84-1.38 5.22 5.22 0 0 1 0-3.49 4.1 4.1 0 0 1 .87-1.38 4 4 0 0 1 1.33-.92 4.36 4.36 0 0 1 1.72-.34 3.93 3.93 0 0 1 1.84.41 3.54 3.54 0 0 1 1.29 1.1 4.44 4.44 0 0 1 .73 1.57 5.88 5.88 0 0 1 .16 1.84h-6a2.3 2.3 0 0 0 .59 1.6zm2.57-4.36a1.63 1.63 0 0 0-1.24-.44 2 2 0 0 0-.9.18 1.68 1.68 0 0 0-.88 1 2.54 2.54 0 0 0-.11.55h3.7a2.69 2.69 0 0 0-.53-1.27zm6.09 4.3a1.54 1.54 0 0 0 .4.44 1.61 1.61 0 0 0 .55.24 2.32 2.32 0 0 0 .65.08 2.23 2.23 0 0 0 .5 0 1.71 1.71 0 0 0 .48-.18.93.93 0 0 0 .36-.32.8.8 0 0 0 .14-.5c0-.34-.22-.6-.67-.77a14 14 0 0 0-1.9-.51c-.33-.08-.65-.16-1-.27a3.26 3.26 0 0 1-.84-.4 1.94 1.94 0 0 1-.59-.62 1.77 1.77 0 0 1-.22-.92 2.47 2.47 0 0 1 .31-1.31 2.35 2.35 0 0 1 .82-.81 3.59 3.59 0 0 1 1.15-.42 7.2 7.2 0 0 1 1.32-.12 7 7 0 0 1 1.3.13 3.64 3.64 0 0 1 1.13.43 2.75 2.75 0 0 1 .82.81 2.68 2.68 0 0 1 .39 1.27H450a1 1 0 0 0-.49-.88 2.21 2.21 0 0 0-1.06-.24h-.42a1.31 1.31 0 0 0-.4.1.81.81 0 0 0-.31.23.61.61 0 0 0-.13.41.62.62 0 0 0 .22.5 1.73 1.73 0 0 0 .59.31c.24.08.51.15.82.22l.94.2a9.89 9.89 0 0 1 1 .28 2.76 2.76 0 0 1 .84.42 2.07 2.07 0 0 1 .59.66 1.89 1.89 0 0 1 .23 1 2.62 2.62 0 0 1-.33 1.37 2.53 2.53 0 0 1-.86.89 3.54 3.54 0 0 1-1.2.47 7.2 7.2 0 0 1-1.39.14 6.62 6.62 0 0 1-1.41-.15 3.46 3.46 0 0 1-1.22-.48 2.74 2.74 0 0 1-.88-.88 2.78 2.78 0 0 1-.38-1.39h2.16a1.22 1.22 0 0 0 .14.57zm8.6 0a1.38 1.38 0 0 0 .39.44 1.61 1.61 0 0 0 .55.24 2.36 2.36 0 0 0 .65.08 2.18 2.18 0 0 0 .5 0 1.71 1.71 0 0 0 .48-.18.93.93 0 0 0 .36-.32.8.8 0 0 0 .15-.5c0-.34-.23-.6-.68-.77a14 14 0 0 0-1.9-.51c-.33-.08-.65-.16-1-.27a3.26 3.26 0 0 1-.84-.4 1.94 1.94 0 0 1-.59-.62 1.77 1.77 0 0 1-.22-.92 2.47 2.47 0 0 1 .31-1.31 2.35 2.35 0 0 1 .82-.81 3.59 3.59 0 0 1 1.15-.42 7.2 7.2 0 0 1 1.32-.12 6.9 6.9 0 0 1 1.3.13 3.64 3.64 0 0 1 1.13.43 2.75 2.75 0 0 1 .82.81 2.8 2.8 0 0 1 .4 1.27h-2.16a1 1 0 0 0-.5-.88 2.21 2.21 0 0 0-1.06-.24h-.41a1.3 1.3 0 0 0-.41.1.9.9 0 0 0-.31.23.61.61 0 0 0-.13.41.62.62 0 0 0 .22.5 1.73 1.73 0 0 0 .59.31c.24.08.51.15.82.22l.95.2a9.7 9.7 0 0 1 1 .28 2.76 2.76 0 0 1 .84.42 2.23 2.23 0 0 1 .6.66 2 2 0 0 1 .22 1 2.62 2.62 0 0 1-.33 1.37 2.53 2.53 0 0 1-.86.89 3.54 3.54 0 0 1-1.2.47 7.2 7.2 0 0 1-1.39.14 6.62 6.62 0 0 1-1.41-.15 3.54 3.54 0 0 1-1.22-.48 2.74 2.74 0 0 1-.88-.88 2.88 2.88 0 0 1-.38-1.39h2.17a1.13 1.13 0 0 0 .14.57zm6.74-7.49v-1.87h2.27v1.87zm2.27 1.28V248h-2.27v-8.27zm3.84 8.27l-2.83-8.27h2.38l1.75 5.65 1.74-5.65h2.26L471 248zm8.71-2a2 2 0 0 0 1.47.49 2 2 0 0 0 1.18-.34 1.4 1.4 0 0 0 .61-.73h2a3.82 3.82 0 0 1-1.47 2.13 4.3 4.3 0 0 1-2.4.64 4.88 4.88 0 0 1-1.76-.31 3.75 3.75 0 0 1-1.33-.89 4.09 4.09 0 0 1-.84-1.38 5.31 5.31 0 0 1 0-3.49 4 4 0 0 1 2.2-2.3 4.36 4.36 0 0 1 1.72-.34 4 4 0 0 1 1.84.41 3.71 3.71 0 0 1 1.29 1.1 4.62 4.62 0 0 1 .73 1.57 6.19 6.19 0 0 1 .16 1.84h-6a2.3 2.3 0 0 0 .6 1.6zm2.57-4.36a1.64 1.64 0 0 0-1.24-.44 2 2 0 0 0-.91.18 1.67 1.67 0 0 0-.58.46 1.74 1.74 0 0 0-.3.57 2.48 2.48 0 0 0-.1.55h3.69a2.6 2.6 0 0 0-.56-1.3z" fill="#fff"/></g><rect x="544.5" y="225.5" width="111" height="31" rx="2" fill="#c8ccd1" stroke="#c8ccd1"/><g style="isolation:isolate"><path d="M562 235.58a5.79 5.79 0 0 1 2.06.35 4.48 4.48 0 0 1 1.65 1 4.94 4.94 0 0 1 1.08 1.76 6.94 6.94 0 0 1 .4 2.48 8.06 8.06 0 0 1-.32 2.31 5.21 5.21 0 0 1-1 1.82 4.48 4.48 0 0 1-1.62 1.21 5.49 5.49 0 0 1-2.25.49h-4.9v-11.42zm-.17 9.31a3.13 3.13 0 0 0 1-.18 2.32 2.32 0 0 0 .91-.58 2.88 2.88 0 0 0 .64-1.07 4.65 4.65 0 0 0 .24-1.6 6.86 6.86 0 0 0-.16-1.56 3.2 3.2 0 0 0-.56-1.19 2.44 2.44 0 0 0-1-.76 4.17 4.17 0 0 0-1.56-.26h-1.79v7.2zm9.32.11a2.36 2.36 0 0 0 2.66.15 1.45 1.45 0 0 0 .61-.73h2a3.79 3.79 0 0 1-1.48 2.13 4.3 4.3 0 0 1-2.4.64 4.92 4.92 0 0 1-1.76-.31 3.71 3.71 0 0 1-1.32-.89 3.8 3.8 0 0 1-.84-1.38 5.22 5.22 0 0 1 0-3.49 4.1 4.1 0 0 1 .87-1.38 4 4 0 0 1 1.33-.92 4.36 4.36 0 0 1 1.72-.34 3.93 3.93 0 0 1 1.84.41 3.54 3.54 0 0 1 1.29 1.1 4.44 4.44 0 0 1 .73 1.57 5.88 5.88 0 0 1 .16 1.84h-6a2.3 2.3 0 0 0 .59 1.6zm2.57-4.36a1.61 1.61 0 0 0-1.24-.44 2 2 0 0 0-.9.18 1.68 1.68 0 0 0-.88 1 2.54 2.54 0 0 0-.11.55h3.7a2.69 2.69 0 0 0-.57-1.27zm6.1 4.3a1.38 1.38 0 0 0 .39.44 1.61 1.61 0 0 0 .55.24 2.32 2.32 0 0 0 .65.08 2.18 2.18 0 0 0 .5 0 1.71 1.71 0 0 0 .48-.18.93.93 0 0 0 .36-.32.8.8 0 0 0 .15-.5c0-.34-.23-.6-.68-.77a14 14 0 0 0-1.9-.51c-.33-.08-.65-.16-1-.27a3.26 3.26 0 0 1-.84-.4 1.94 1.94 0 0 1-.59-.62 1.77 1.77 0 0 1-.22-.92 2.47 2.47 0 0 1 .31-1.31 2.35 2.35 0 0 1 .82-.81 3.59 3.59 0 0 1 1.15-.42 7.2 7.2 0 0 1 1.32-.12 7 7 0 0 1 1.3.13 3.64 3.64 0 0 1 1.13.43 2.75 2.75 0 0 1 .82.81 2.68 2.68 0 0 1 .39 1.27h-2.16a1 1 0 0 0-.49-.88 2.21 2.21 0 0 0-1.06-.24h-.41a1.3 1.3 0 0 0-.41.1.9.9 0 0 0-.31.23.61.61 0 0 0-.13.41.62.62 0 0 0 .22.5 1.73 1.73 0 0 0 .59.31c.24.08.51.15.82.22l.94.2a9.15 9.15 0 0 1 1 .28 2.76 2.76 0 0 1 .84.42 2.07 2.07 0 0 1 .59.66 1.89 1.89 0 0 1 .23 1 2.62 2.62 0 0 1-.33 1.37 2.53 2.53 0 0 1-.86.89 3.54 3.54 0 0 1-1.2.47 7.2 7.2 0 0 1-1.39.14 6.62 6.62 0 0 1-1.41-.15 3.54 3.54 0 0 1-1.22-.48 2.74 2.74 0 0 1-.88-.88 2.88 2.88 0 0 1-.38-1.39h2.16a1.14 1.14 0 0 0 .16.57zm11.18-6.21v1.52h-1.66v4.09a.77.77 0 0 0 1 1h.7V247a5.82 5.82 0 0 1-.64.06h-.69a6.45 6.45 0 0 1-1-.07 2.39 2.39 0 0 1-.83-.28 1.54 1.54 0 0 1-.57-.59 2.13 2.13 0 0 1-.21-1v-4.88h-1.37v-1.52h1.37v-2.48h2.28v2.48zm3.29 0v1.53a3.06 3.06 0 0 1 .43-.71 2.81 2.81 0 0 1 .63-.56 3.24 3.24 0 0 1 .75-.36 2.83 2.83 0 0 1 .83-.13 2 2 0 0 1 .5.08v2.12a3.24 3.24 0 0 0-.39-.06 3.17 3.17 0 0 0-.43 0 2.57 2.57 0 0 0-1.06.2 1.84 1.84 0 0 0-.69.57 2.31 2.31 0 0 0-.38.84 4.88 4.88 0 0 0-.11 1V247h-2.27v-8.27zM604 247v-1.15h-.05a2.55 2.55 0 0 1-1.12 1 3.33 3.33 0 0 1-1.4.32 4 4 0 0 1-1.5-.24 2.16 2.16 0 0 1-.92-.68 2.68 2.68 0 0 1-.47-1.07 6.7 6.7 0 0 1-.14-1.4v-5.09h2.27v4.67a3 3 0 0 0 .32 1.53 1.27 1.27 0 0 0 1.14.5 1.55 1.55 0 0 0 1.34-.55 3 3 0 0 0 .42-1.82v-4.33h2.27V247zm7.79-6.78a1.62 1.62 0 0 0-.91.24 1.93 1.93 0 0 0-.6.64 2.85 2.85 0 0 0-.33.87 4.8 4.8 0 0 0 0 1.85 3.11 3.11 0 0 0 .31.84 1.81 1.81 0 0 0 .59.61 1.58 1.58 0 0 0 .89.24 1.67 1.67 0 0 0 1.26-.45 2.19 2.19 0 0 0 .55-1.23h2.19a3.71 3.71 0 0 1-1.28 2.51 4.09 4.09 0 0 1-2.7.87 4.73 4.73 0 0 1-1.71-.31 3.79 3.79 0 0 1-2.16-2.21 4.52 4.52 0 0 1-.31-1.71 5.68 5.68 0 0 1 .28-1.78 3.94 3.94 0 0 1 .83-1.42 3.65 3.65 0 0 1 1.33-.94 4.53 4.53 0 0 1 1.79-.34 5.06 5.06 0 0 1 1.41.2 3.62 3.62 0 0 1 1.22.58 3 3 0 0 1 .87 1 3.14 3.14 0 0 1 .39 1.38h-2.23a1.52 1.52 0 0 0-1.68-1.44zm9.78-1.49v1.52h-1.67v4.09a1.1 1.1 0 0 0 .2.77 1.07 1.07 0 0 0 .76.19h.71v1.7a5.82 5.82 0 0 1-.64.06h-.69a6.36 6.36 0 0 1-1-.07 2.32 2.32 0 0 1-.83-.28 1.54 1.54 0 0 1-.57-.59 2.13 2.13 0 0 1-.21-1v-4.88h-1.37v-1.52h1.37v-2.48h2.27v2.48zm1.15-1.28v-1.87H625v1.87zm2.27 1.28V247h-2.27v-8.27zm3.84 8.27l-2.83-8.27h2.38l1.75 5.65 1.74-5.65h2.26l-2.8 8.27zm8.7-2a2.07 2.07 0 0 0 1.48.49 2 2 0 0 0 1.18-.34 1.45 1.45 0 0 0 .61-.73h2a3.82 3.82 0 0 1-1.47 2.13 4.32 4.32 0 0 1-2.4.64 4.88 4.88 0 0 1-1.76-.31 3.66 3.66 0 0 1-1.33-.89 4.09 4.09 0 0 1-.84-1.38 5 5 0 0 1-.3-1.76 4.7 4.7 0 0 1 .31-1.73 4.08 4.08 0 0 1 .86-1.38 4 4 0 0 1 1.34-.92 4.33 4.33 0 0 1 1.72-.34 4 4 0 0 1 1.84.41 3.59 3.59 0 0 1 1.28 1.1 4.44 4.44 0 0 1 .73 1.57 5.88 5.88 0 0 1 .16 1.84h-6a2.35 2.35 0 0 0 .59 1.6zm2.57-4.36a1.61 1.61 0 0 0-1.24-.44 2 2 0 0 0-.9.18 1.67 1.67 0 0 0-.58.46 1.74 1.74 0 0 0-.3.57 2.54 2.54 0 0 0-.11.55h3.7a2.61 2.61 0 0 0-.57-1.3z" fill="#fff"/></g><rect x="193.5" y="225.5" width="79" height="31" rx="2" fill="#c8ccd1" stroke="#c8ccd1"/><g style="isolation:isolate"><path d="M208.6 235.58l4.77 7.66v-7.66h2.35V247h-2.51l-4.75-7.65V247h-2.36v-11.42zm9.17 5.49a3.85 3.85 0 0 1 .86-1.37 3.76 3.76 0 0 1 1.35-.88 5 5 0 0 1 3.52 0 3.8 3.8 0 0 1 1.36.88 3.85 3.85 0 0 1 .86 1.37 5.15 5.15 0 0 1 .3 1.8 5.05 5.05 0 0 1-.3 1.79 3.85 3.85 0 0 1-.86 1.37 3.78 3.78 0 0 1-1.36.87 5.15 5.15 0 0 1-3.52 0 3.74 3.74 0 0 1-1.35-.87 3.85 3.85 0 0 1-.86-1.37 5.05 5.05 0 0 1-.31-1.79 5.15 5.15 0 0 1 .31-1.8zm2.06 2.77a2.89 2.89 0 0 0 .33.85 1.7 1.7 0 0 0 .62.6 1.84 1.84 0 0 0 1 .22 1.89 1.89 0 0 0 1-.22 1.73 1.73 0 0 0 .63-.6 2.89 2.89 0 0 0 .33-.85 5.15 5.15 0 0 0 .09-1 5.23 5.23 0 0 0-.09-1 2.69 2.69 0 0 0-.33-.85 1.73 1.73 0 0 0-.63-.6 1.8 1.8 0 0 0-1-.23 1.75 1.75 0 0 0-1 .23 1.7 1.7 0 0 0-.62.6 2.69 2.69 0 0 0-.33.85 5.23 5.23 0 0 0-.09 1 5.15 5.15 0 0 0 .09 1zm9.83-5.11v1.53a2.75 2.75 0 0 1 .43-.71 3 3 0 0 1 .62-.56 3.53 3.53 0 0 1 .76-.36 2.83 2.83 0 0 1 .83-.13 1.85 1.85 0 0 1 .49.08v2.12a2.77 2.77 0 0 0-.38-.06 3.17 3.17 0 0 0-.43 0 2.57 2.57 0 0 0-1.06.2 1.77 1.77 0 0 0-.69.57 2.15 2.15 0 0 0-.38.84 4.88 4.88 0 0 0-.11 1V247h-2.24v-8.27zm6.27 0v1.12a3.17 3.17 0 0 1 1.08-1 2.86 2.86 0 0 1 1.45-.36 3.37 3.37 0 0 1 1.43.31 2 2 0 0 1 1 1.07 3.68 3.68 0 0 1 1-1 2.64 2.64 0 0 1 1.5-.42 4.73 4.73 0 0 1 1.22.16 2.48 2.48 0 0 1 1 .52 2.37 2.37 0 0 1 .62.92 3.66 3.66 0 0 1 .22 1.36V247h-2.27v-4.69-.78a1.55 1.55 0 0 0-.18-.64 1 1 0 0 0-.42-.43 1.83 1.83 0 0 0-1.54 0 1.32 1.32 0 0 0-.46.48 1.83 1.83 0 0 0-.22.67 4.87 4.87 0 0 0-.06.76V247H239v-4.64-.73a2 2 0 0 0-.13-.66 1.07 1.07 0 0 0-.4-.49 1.57 1.57 0 0 0-.83-.18 1.52 1.52 0 0 0-.42.07 1.4 1.4 0 0 0-.51.27 1.57 1.57 0 0 0-.43.58 2.3 2.3 0 0 0-.17 1V247h-2.28v-8.27zm12.19 2.54a2.51 2.51 0 0 1 1.3-2.17 3.72 3.72 0 0 1 1.22-.46 7 7 0 0 1 1.37-.14 9.11 9.11 0 0 1 1.26.09 3.9 3.9 0 0 1 1.17.35 2.21 2.21 0 0 1 .86.71 1.93 1.93 0 0 1 .34 1.21v4.3a9.2 9.2 0 0 0 .06 1.07 2 2 0 0 0 .23.77h-2.31c0-.13-.07-.26-.1-.39a2.9 2.9 0 0 1-.06-.41 2.89 2.89 0 0 1-1.28.78 5.1 5.1 0 0 1-1.5.23 3.85 3.85 0 0 1-1.1-.15 2.44 2.44 0 0 1-.9-.44 2.06 2.06 0 0 1-.6-.77 2.68 2.68 0 0 1-.22-1.11 2.49 2.49 0 0 1 .25-1.16 2.13 2.13 0 0 1 .64-.72 2.65 2.65 0 0 1 .9-.41c.33-.09.67-.16 1-.22l1-.13a6.26 6.26 0 0 0 .88-.14 1.5 1.5 0 0 0 .61-.28.61.61 0 0 0 .21-.54 1.19 1.19 0 0 0-.12-.58 1 1 0 0 0-.32-.34 1.37 1.37 0 0 0-.47-.16 4.75 4.75 0 0 0-.56 0 1.76 1.76 0 0 0-1.06.29 1.26 1.26 0 0 0-.45 1zm5.25 1.68a1 1 0 0 1-.36.2 3.23 3.23 0 0 1-.47.12l-.52.08-.54.08a4.07 4.07 0 0 0-.5.13 1.51 1.51 0 0 0-.44.22 1 1 0 0 0-.29.34 1 1 0 0 0-.11.53 1 1 0 0 0 .11.51.8.8 0 0 0 .3.33 1.5 1.5 0 0 0 .45.17 3.08 3.08 0 0 0 .53 0 2 2 0 0 0 1-.22 1.55 1.55 0 0 0 .54-.54 1.64 1.64 0 0 0 .22-.63v-.51zm6.37-7.37V247h-2.28v-11.42z" fill="#fff"/></g><rect x="193.5" y="1.5" width="79" height="31" rx="2" fill="#f8f9fa" stroke="#a2a9b1"/><g style="isolation:isolate"><path d="M208.77 11.58l4.77 7.66v-7.66h2.35V23h-2.51l-4.75-7.65V23h-2.35V11.58zm9.17 5.49a3.85 3.85 0 0 1 .86-1.37 3.72 3.72 0 0 1 1.34-.88 4.71 4.71 0 0 1 1.76-.32 4.77 4.77 0 0 1 1.77.32 3.68 3.68 0 0 1 1.35.88 3.74 3.74 0 0 1 .87 1.37 5.15 5.15 0 0 1 .3 1.8 5.05 5.05 0 0 1-.3 1.79A3.74 3.74 0 0 1 225 22a3.66 3.66 0 0 1-1.35.87 4.77 4.77 0 0 1-1.77.31 4.71 4.71 0 0 1-1.76-.31 3.7 3.7 0 0 1-1.32-.87 3.85 3.85 0 0 1-.86-1.37 4.84 4.84 0 0 1-.31-1.79 4.93 4.93 0 0 1 .31-1.77zm2.06 2.77a2.43 2.43 0 0 0 .33.85 1.75 1.75 0 0 0 .61.6 2.23 2.23 0 0 0 1.93 0 1.81 1.81 0 0 0 .63-.6 2.63 2.63 0 0 0 .32-.85 4.43 4.43 0 0 0 .1-1 4.5 4.5 0 0 0-.1-1 2.46 2.46 0 0 0-.32-.85 2 2 0 0 0-2.56-.6 1.75 1.75 0 0 0-.61.6 2.29 2.29 0 0 0-.33.85 5.23 5.23 0 0 0-.1 1 5.15 5.15 0 0 0 .1 1zm9.82-5.11v1.53a2.75 2.75 0 0 1 .43-.71 3 3 0 0 1 .62-.56 3.69 3.69 0 0 1 .75-.36 3 3 0 0 1 .84-.13 1.85 1.85 0 0 1 .49.08v2.12a2.77 2.77 0 0 0-.38-.06 3.24 3.24 0 0 0-.43 0 2.57 2.57 0 0 0-1.06.2 1.87 1.87 0 0 0-.7.57 2.29 2.29 0 0 0-.37.84 4.31 4.31 0 0 0-.11 1V23h-2.28v-8.27zm6.28 0v1.12a3.17 3.17 0 0 1 1.08-1 2.86 2.86 0 0 1 1.45-.36 3.37 3.37 0 0 1 1.43.31 2 2 0 0 1 1 1.07 3.68 3.68 0 0 1 1-1 2.64 2.64 0 0 1 1.5-.42 4.66 4.66 0 0 1 1.21.16 2.35 2.35 0 0 1 1 .52 2.29 2.29 0 0 1 .63.92 3.66 3.66 0 0 1 .22 1.36V23h-2.27v-4.69-.78a1.55 1.55 0 0 0-.18-.64 1 1 0 0 0-.42-.43 1.83 1.83 0 0 0-1.54 0 1.25 1.25 0 0 0-.46.48 2 2 0 0 0-.23.67 6.47 6.47 0 0 0-.05.76V23h-2.27v-4.64-.73a2 2 0 0 0-.2-.63 1 1 0 0 0-.4-.49 1.64 1.64 0 0 0-1.76.16 1.67 1.67 0 0 0-.42.58 2.29 2.29 0 0 0-.18 1V23H234v-8.27zm12.19 2.54a2.61 2.61 0 0 1 .4-1.33 2.65 2.65 0 0 1 .89-.84 3.78 3.78 0 0 1 1.23-.46 7 7 0 0 1 1.37-.14 9.11 9.11 0 0 1 1.26.09 3.9 3.9 0 0 1 1.17.35 2.21 2.21 0 0 1 .86.71 1.93 1.93 0 0 1 .34 1.21v4.3a9.2 9.2 0 0 0 .06 1.07 1.85 1.85 0 0 0 .23.77h-2.31a2.79 2.79 0 0 1-.1-.39 2.9 2.9 0 0 1-.06-.41 2.89 2.89 0 0 1-1.28.78 5.1 5.1 0 0 1-1.5.23 3.92 3.92 0 0 1-1.11-.15 2.4 2.4 0 0 1-.89-.44 2.06 2.06 0 0 1-.6-.77 2.53 2.53 0 0 1-.22-1.11 2.37 2.37 0 0 1 .25-1.16 2 2 0 0 1 .64-.72 2.65 2.65 0 0 1 .9-.41c.33-.09.67-.16 1-.22l1-.13a6.5 6.5 0 0 0 .88-.14 1.5 1.5 0 0 0 .61-.28.61.61 0 0 0 .21-.54 1.19 1.19 0 0 0-.12-.58 1 1 0 0 0-.32-.34 1.37 1.37 0 0 0-.47-.16 4.78 4.78 0 0 0-.57 0 1.72 1.72 0 0 0-1.05.29 1.26 1.26 0 0 0-.45 1zm5.25 1.73a1 1 0 0 1-.36.2 3.23 3.23 0 0 1-.47.12l-.52.08-.54.08a4.77 4.77 0 0 0-.51.13 1.45 1.45 0 0 0-.43.22 1 1 0 0 0-.29.34 1 1 0 0 0-.12.53 1 1 0 0 0 .12.51.8.8 0 0 0 .3.33 1.5 1.5 0 0 0 .45.17 3 3 0 0 0 .53 0 2 2 0 0 0 1-.22 1.55 1.55 0 0 0 .54-.54 1.64 1.64 0 0 0 .22-.63v-.51zm6.36-7.42V23h-2.27V11.58z" fill="#202122"/></g><rect x="193.5" y="57.5" width="79" height="31" rx="2" fill="#fff" stroke="#a2a9b1"/><g style="isolation:isolate"><path d="M208.6 67.58l4.77 7.66v-7.66h2.35V79h-2.51l-4.75-7.65V79h-2.36V67.58zm9.17 5.49a3.85 3.85 0 0 1 .86-1.37 3.76 3.76 0 0 1 1.35-.88 5 5 0 0 1 3.52 0 3.8 3.8 0 0 1 1.36.88 3.85 3.85 0 0 1 .86 1.37 5.15 5.15 0 0 1 .3 1.8 5.05 5.05 0 0 1-.3 1.79 3.85 3.85 0 0 1-.86 1.37 3.78 3.78 0 0 1-1.36.87 5.15 5.15 0 0 1-3.52 0 3.74 3.74 0 0 1-1.35-.87 3.85 3.85 0 0 1-.86-1.37 5.05 5.05 0 0 1-.31-1.79 5.15 5.15 0 0 1 .31-1.8zm2.06 2.77a2.89 2.89 0 0 0 .33.85 1.7 1.7 0 0 0 .62.6 1.84 1.84 0 0 0 1 .22 1.89 1.89 0 0 0 1-.22 1.73 1.73 0 0 0 .63-.6 2.89 2.89 0 0 0 .33-.85 5.15 5.15 0 0 0 .09-1 5.23 5.23 0 0 0-.09-1 2.69 2.69 0 0 0-.33-.85 1.73 1.73 0 0 0-.63-.6 1.8 1.8 0 0 0-1-.23 1.75 1.75 0 0 0-1 .23 1.7 1.7 0 0 0-.62.6 2.69 2.69 0 0 0-.33.85 5.23 5.23 0 0 0-.09 1 5.15 5.15 0 0 0 .09 1zm9.83-5.11v1.53a2.75 2.75 0 0 1 .43-.71 3 3 0 0 1 .62-.56 3.53 3.53 0 0 1 .76-.36 2.83 2.83 0 0 1 .83-.13 1.85 1.85 0 0 1 .49.08v2.12a2.77 2.77 0 0 0-.38-.06 3.17 3.17 0 0 0-.43 0 2.57 2.57 0 0 0-1.06.2 1.77 1.77 0 0 0-.69.57 2.15 2.15 0 0 0-.38.84 4.88 4.88 0 0 0-.11 1V79h-2.24v-8.27zm6.27 0v1.12a3.17 3.17 0 0 1 1.08-1 2.86 2.86 0 0 1 1.45-.36 3.37 3.37 0 0 1 1.43.31 2 2 0 0 1 1 1.07 3.68 3.68 0 0 1 1-1 2.64 2.64 0 0 1 1.5-.42 4.73 4.73 0 0 1 1.22.16 2.48 2.48 0 0 1 1 .52 2.37 2.37 0 0 1 .62.92 3.66 3.66 0 0 1 .22 1.36V79h-2.27v-4.69-.78a1.55 1.55 0 0 0-.18-.64 1 1 0 0 0-.42-.43 1.83 1.83 0 0 0-1.54 0 1.32 1.32 0 0 0-.46.48 1.83 1.83 0 0 0-.22.67 4.87 4.87 0 0 0-.06.76V79H239v-4.64-.73a2 2 0 0 0-.13-.66 1.07 1.07 0 0 0-.4-.49 1.57 1.57 0 0 0-.83-.18 1.52 1.52 0 0 0-.42.07 1.4 1.4 0 0 0-.51.27 1.57 1.57 0 0 0-.43.58 2.3 2.3 0 0 0-.17 1V79h-2.28v-8.27zm12.19 2.54a2.51 2.51 0 0 1 1.3-2.17 3.72 3.72 0 0 1 1.22-.46 7 7 0 0 1 1.36-.14 9.11 9.11 0 0 1 1.26.09 3.9 3.9 0 0 1 1.17.35 2.21 2.21 0 0 1 .86.71 1.93 1.93 0 0 1 .34 1.21v4.3a9.2 9.2 0 0 0 .06 1.07 2 2 0 0 0 .23.77h-2.31c0-.13-.07-.26-.1-.39a2.9 2.9 0 0 1-.06-.41 2.89 2.89 0 0 1-1.28.78 5.1 5.1 0 0 1-1.5.23 3.85 3.85 0 0 1-1.1-.15 2.44 2.44 0 0 1-.9-.44 2.06 2.06 0 0 1-.6-.77 2.68 2.68 0 0 1-.22-1.11 2.49 2.49 0 0 1 .25-1.16 2.13 2.13 0 0 1 .64-.72 2.65 2.65 0 0 1 .9-.41c.33-.09.67-.16 1-.22l1-.13a6.26 6.26 0 0 0 .88-.14 1.5 1.5 0 0 0 .61-.28.61.61 0 0 0 .21-.54 1.19 1.19 0 0 0-.12-.58 1 1 0 0 0-.32-.34 1.37 1.37 0 0 0-.47-.16 4.75 4.75 0 0 0-.56 0 1.76 1.76 0 0 0-1.06.29 1.26 1.26 0 0 0-.45 1zm5.25 1.73a1 1 0 0 1-.36.2 3.23 3.23 0 0 1-.47.12l-.52.08-.54.08a4.07 4.07 0 0 0-.5.13 1.51 1.51 0 0 0-.44.22 1 1 0 0 0-.29.34 1 1 0 0 0-.11.53 1 1 0 0 0 .11.51.8.8 0 0 0 .3.33 1.5 1.5 0 0 0 .45.17 3.08 3.08 0 0 0 .53 0 2 2 0 0 0 1-.22 1.55 1.55 0 0 0 .54-.54 1.64 1.64 0 0 0 .22-.63v-.51zm6.37-7.42V79h-2.28V67.58z" fill="#404244"/></g><rect x="193.5" y="113.5" width="79" height="31" rx="2" fill="#eaecf0" stroke="#72777d"/><g style="isolation:isolate"><path d="M208.6 123.58l4.77 7.66v-7.66h2.35V135h-2.51l-4.75-7.65V135h-2.36v-11.42zm9.17 5.49a3.85 3.85 0 0 1 .86-1.37 3.76 3.76 0 0 1 1.35-.88 5 5 0 0 1 3.52 0 3.8 3.8 0 0 1 1.36.88 3.85 3.85 0 0 1 .86 1.37 5.15 5.15 0 0 1 .3 1.8 5.05 5.05 0 0 1-.3 1.79 3.85 3.85 0 0 1-.86 1.37 3.78 3.78 0 0 1-1.36.87 5.15 5.15 0 0 1-3.52 0 3.74 3.74 0 0 1-1.35-.87 3.85 3.85 0 0 1-.86-1.37 5.05 5.05 0 0 1-.31-1.79 5.15 5.15 0 0 1 .31-1.8zm2.06 2.77a2.89 2.89 0 0 0 .33.85 1.7 1.7 0 0 0 .62.6 1.84 1.84 0 0 0 1 .22 1.89 1.89 0 0 0 1-.22 1.73 1.73 0 0 0 .63-.6 2.89 2.89 0 0 0 .33-.85 5.15 5.15 0 0 0 .09-1 5.23 5.23 0 0 0-.09-1 2.69 2.69 0 0 0-.33-.85 1.73 1.73 0 0 0-.63-.6 1.8 1.8 0 0 0-1-.23 1.75 1.75 0 0 0-1 .23 1.7 1.7 0 0 0-.62.6 2.69 2.69 0 0 0-.33.85 5.23 5.23 0 0 0-.09 1 5.15 5.15 0 0 0 .09 1zm9.83-5.11v1.53a2.75 2.75 0 0 1 .43-.71 3 3 0 0 1 .62-.56 3.53 3.53 0 0 1 .76-.36 2.83 2.83 0 0 1 .83-.13 1.85 1.85 0 0 1 .49.08v2.12a2.77 2.77 0 0 0-.38-.06 3.17 3.17 0 0 0-.43 0 2.57 2.57 0 0 0-1.06.2 1.77 1.77 0 0 0-.69.57 2.15 2.15 0 0 0-.38.84 4.88 4.88 0 0 0-.11 1V135h-2.24v-8.27zm6.27 0v1.12a3.17 3.17 0 0 1 1.08-1 2.86 2.86 0 0 1 1.45-.36 3.37 3.37 0 0 1 1.43.31 2 2 0 0 1 1 1.07 3.68 3.68 0 0 1 1-1 2.64 2.64 0 0 1 1.5-.42 4.73 4.73 0 0 1 1.22.16 2.48 2.48 0 0 1 1 .52 2.37 2.37 0 0 1 .62.92 3.66 3.66 0 0 1 .22 1.36V135h-2.27v-4.69-.78a1.55 1.55 0 0 0-.18-.64 1 1 0 0 0-.42-.43 1.83 1.83 0 0 0-1.54 0 1.32 1.32 0 0 0-.46.48 1.83 1.83 0 0 0-.22.67 4.87 4.87 0 0 0-.06.76V135H239v-4.64-.73a2 2 0 0 0-.13-.66 1.07 1.07 0 0 0-.4-.49 1.57 1.57 0 0 0-.83-.18 1.52 1.52 0 0 0-.42.07 1.4 1.4 0 0 0-.51.27 1.57 1.57 0 0 0-.43.58 2.3 2.3 0 0 0-.17 1V135h-2.28v-8.27zm12.19 2.54a2.51 2.51 0 0 1 1.3-2.17 3.72 3.72 0 0 1 1.22-.46 7 7 0 0 1 1.37-.14 9.11 9.11 0 0 1 1.26.09 3.9 3.9 0 0 1 1.17.35 2.21 2.21 0 0 1 .86.71 1.93 1.93 0 0 1 .34 1.21v4.3a9.2 9.2 0 0 0 .06 1.07 2 2 0 0 0 .23.77h-2.31c0-.13-.07-.26-.1-.39a2.9 2.9 0 0 1-.06-.41 2.89 2.89 0 0 1-1.28.78 5.1 5.1 0 0 1-1.5.23 3.85 3.85 0 0 1-1.1-.15 2.44 2.44 0 0 1-.9-.44 2.06 2.06 0 0 1-.6-.77 2.68 2.68 0 0 1-.22-1.11 2.49 2.49 0 0 1 .25-1.16 2.13 2.13 0 0 1 .64-.72 2.65 2.65 0 0 1 .9-.41c.33-.09.67-.16 1-.22l1-.13a6.26 6.26 0 0 0 .88-.14 1.5 1.5 0 0 0 .61-.28.61.61 0 0 0 .21-.54 1.19 1.19 0 0 0-.12-.58 1 1 0 0 0-.32-.34 1.37 1.37 0 0 0-.47-.16 4.75 4.75 0 0 0-.56 0 1.76 1.76 0 0 0-1.06.29 1.26 1.26 0 0 0-.45 1zm5.25 1.68a1 1 0 0 1-.36.2 3.23 3.23 0 0 1-.47.12l-.52.08-.54.08a4.07 4.07 0 0 0-.5.13 1.51 1.51 0 0 0-.44.22 1 1 0 0 0-.29.34 1 1 0 0 0-.11.53 1 1 0 0 0 .11.51.8.8 0 0 0 .3.33 1.5 1.5 0 0 0 .45.17 3.08 3.08 0 0 0 .53 0 2 2 0 0 0 1-.22 1.55 1.55 0 0 0 .54-.54 1.64 1.64 0 0 0 .22-.63v-.51zm6.37-7.37V135h-2.28v-11.42z"/></g><rect x="194" y="170" width="78" height="30" rx="2" fill="none" stroke="#36c" stroke-width="2px"/><rect x="193.5" y="169.5" width="79" height="31" rx="2" fill="none" stroke="#36c"/><g style="isolation:isolate"><path d="M208.77 179.58l4.77 7.66v-7.66h2.35V191h-2.51l-4.75-7.65V191h-2.35v-11.42zm9.17 5.49a3.85 3.85 0 0 1 .86-1.37 3.72 3.72 0 0 1 1.34-.88 4.71 4.71 0 0 1 1.76-.32 4.77 4.77 0 0 1 1.77.32 3.68 3.68 0 0 1 1.35.88 3.74 3.74 0 0 1 .87 1.37 5.15 5.15 0 0 1 .3 1.8 5.05 5.05 0 0 1-.3 1.79A3.74 3.74 0 0 1 225 190a3.66 3.66 0 0 1-1.35.87 4.77 4.77 0 0 1-1.77.31 4.71 4.71 0 0 1-1.76-.31 3.7 3.7 0 0 1-1.34-.87 3.85 3.85 0 0 1-.86-1.37 4.84 4.84 0 0 1-.31-1.79 4.93 4.93 0 0 1 .33-1.77zm2.06 2.77a2.43 2.43 0 0 0 .33.85 1.75 1.75 0 0 0 .61.6 2.23 2.23 0 0 0 1.93 0 1.81 1.81 0 0 0 .63-.6 2.63 2.63 0 0 0 .32-.85 4.43 4.43 0 0 0 .1-1 4.5 4.5 0 0 0-.1-1 2.46 2.46 0 0 0-.32-.85 2 2 0 0 0-2.56-.6 1.75 1.75 0 0 0-.61.6 2.29 2.29 0 0 0-.33.85 5.23 5.23 0 0 0-.1 1 5.15 5.15 0 0 0 .1 1zm9.82-5.11v1.53a2.75 2.75 0 0 1 .43-.71 3 3 0 0 1 .62-.56 3.69 3.69 0 0 1 .75-.36 3 3 0 0 1 .84-.13 1.85 1.85 0 0 1 .49.08v2.12a2.77 2.77 0 0 0-.38-.06 3.24 3.24 0 0 0-.43 0 2.57 2.57 0 0 0-1.06.2 1.87 1.87 0 0 0-.7.57 2.29 2.29 0 0 0-.37.84 4.31 4.31 0 0 0-.11 1V191h-2.28v-8.27zm6.28 0v1.12a3.17 3.17 0 0 1 1.08-1 2.86 2.86 0 0 1 1.45-.36 3.37 3.37 0 0 1 1.43.31 2 2 0 0 1 1 1.07 3.68 3.68 0 0 1 1-1 2.64 2.64 0 0 1 1.5-.42 4.66 4.66 0 0 1 1.21.16 2.35 2.35 0 0 1 1 .52 2.29 2.29 0 0 1 .63.92 3.66 3.66 0 0 1 .22 1.36V191h-2.27v-4.69-.78a1.55 1.55 0 0 0-.18-.64 1 1 0 0 0-.42-.43 1.83 1.83 0 0 0-1.54 0 1.25 1.25 0 0 0-.46.48 2 2 0 0 0-.23.67 6.47 6.47 0 0 0-.05.76V191h-2.27v-4.64-.73a2 2 0 0 0-.2-.63 1 1 0 0 0-.4-.49 1.64 1.64 0 0 0-1.76.16 1.67 1.67 0 0 0-.42.58 2.29 2.29 0 0 0-.18 1V191H234v-8.27zm12.19 2.54a2.61 2.61 0 0 1 .4-1.33 2.65 2.65 0 0 1 .89-.84 3.78 3.78 0 0 1 1.23-.46 7 7 0 0 1 1.37-.14 9.11 9.11 0 0 1 1.26.09 3.9 3.9 0 0 1 1.17.35 2.21 2.21 0 0 1 .86.71 1.93 1.93 0 0 1 .34 1.21v4.3a9.2 9.2 0 0 0 .06 1.07 1.85 1.85 0 0 0 .23.77h-2.31a2.79 2.79 0 0 1-.1-.39 2.9 2.9 0 0 1-.06-.41 2.89 2.89 0 0 1-1.28.78 5.1 5.1 0 0 1-1.5.23 3.92 3.92 0 0 1-1.11-.15 2.4 2.4 0 0 1-.89-.44 2.06 2.06 0 0 1-.6-.77 2.53 2.53 0 0 1-.22-1.11 2.37 2.37 0 0 1 .25-1.16 2 2 0 0 1 .64-.72 2.65 2.65 0 0 1 .9-.41c.33-.09.67-.16 1-.22l1-.13a6.5 6.5 0 0 0 .88-.14 1.5 1.5 0 0 0 .61-.28.61.61 0 0 0 .21-.54 1.19 1.19 0 0 0-.12-.58 1 1 0 0 0-.32-.34 1.37 1.37 0 0 0-.47-.16 4.78 4.78 0 0 0-.57 0 1.72 1.72 0 0 0-1.05.29 1.26 1.26 0 0 0-.45 1zm5.25 1.68a1 1 0 0 1-.36.2 3.23 3.23 0 0 1-.47.12l-.52.08-.54.08a4.77 4.77 0 0 0-.51.13 1.45 1.45 0 0 0-.43.22 1 1 0 0 0-.29.34 1 1 0 0 0-.12.53 1 1 0 0 0 .12.51.8.8 0 0 0 .3.33 1.5 1.5 0 0 0 .45.17 3 3 0 0 0 .53 0 2 2 0 0 0 1-.22 1.55 1.55 0 0 0 .54-.54 1.64 1.64 0 0 0 .22-.63v-.51zm6.36-7.37V191h-2.27v-11.42z" fill="#202122"/></g><path d="M269.13 261.27l4.71.26c.72-.08.9-.57.4-1.09l-10.65-10.14c-.5-.52-.56-.35-.56.37L263 265c0 .72.47.95 1 .51l2.74-3.27a2.7 2.7 0 0 1 .33-.22l3 7.52a.84.84 0 0 0 1.11.41.85.85 0 0 0 .52-1.07l-3-7.52.4-.07z" fill-rule="evenodd"/></svg>