<?xml version="1.0" encoding="UTF-8" standalone="no"?>
<svg xmlns="http://www.w3.org/2000/svg" xmlns:xlink="http://www.w3.org/1999/xlink" width="579" height="478" viewBox="0 0 579 478">
    <defs>
        <path id="a" d="M271 1v32h262.008c1.1 0 1.992-.89 1.992-2.002V3.002A2.005 2.005 0 0 0 533.008 1H271z"/>
        <path id="b" d="M195.994 1C194.893 1 194 1.89 194 3.002v27.996c0 1.106.893 2.002 1.994 2.002H270V1h-74.006z"/>
        <rect id="c" width="341" height="32" x="194" y="57" rx="2"/>
        <rect id="d" width="341" height="32" x="194" y="169" rx="2"/>
        <rect id="e" width="341" height="32" x="194" y="281" rx="2"/>
        <path id="f" d="M270.5 225v33"/>
        <rect id="g" width="341" height="32" x="194" y="113" rx="2"/>
        <path id="h" d="M361 113h79v32h-79z"/>
        <path id="i" d="M361 169h79v32h-79z"/>
        <path id="j" d="M361 281h79v32h-79z"/>
        <rect id="k" width="341" height="32" x="194" y="225" rx="2"/>
        <rect id="l" width="386" height="32" x="194" y="425" rx="2"/>
        <path id="m" d="M386 425h90v32h-90z"/>
        <path id="o" d="M17.595 12.379a1.19 1.19 0 0 0-1.197-1.183 1.19 1.19 0 0 0-1.196 1.179v-.826c0-.857-.719-1.551-1.606-1.551-.886 0-1.592.694-1.592 1.55V10.35c0-.856-.728-1.55-1.611-1.55s-1.586.694-1.586 1.55V1.425C8.807.638 8.168 0 7.397 0c-.772 0-1.398.638-1.398 1.425v15.038l-3.603-4.659c-.346-.586-1.126-.779-1.742-.431-.617.348-.836 1.105-.49 1.691 0 0 2.817 4.369 3.967 6.093C5.281 20.882 7.17 23.01 7.17 24h7.989c0-1.672 2.443-4.283 2.443-6.798v-3.24l-.006-1.583z"/>
        <filter id="n" width="185.2%" height="162.5%" x="-42.6%" y="-18.8%" filterUnits="objectBoundingBox">
            <feMorphology in="SourceAlpha" operator="dilate" radius="1" result="shadowSpreadOuter1"/>
            <feOffset dy="1" in="shadowSpreadOuter1" result="shadowOffsetOuter1"/>
            <feGaussianBlur in="shadowOffsetOuter1" result="shadowBlurOuter1" stdDeviation=".5"/>
            <feComposite in="shadowBlurOuter1" in2="SourceAlpha" operator="out" result="shadowBlurOuter1"/>
            <feColorMatrix in="shadowBlurOuter1" result="shadowMatrixOuter1" values="0 0 0 0 0 0 0 0 0 0 0 0 0 0 0 0 0 0 0.582908741 0"/>
            <feMorphology in="SourceAlpha" operator="dilate" radius="1" result="shadowSpreadOuter2"/>
            <feOffset dy="2" in="shadowSpreadOuter2" result="shadowOffsetOuter2"/>
            <feGaussianBlur in="shadowOffsetOuter2" result="shadowBlurOuter2" stdDeviation="1.5"/>
            <feComposite in="shadowBlurOuter2" in2="SourceAlpha" operator="out" result="shadowBlurOuter2"/>
            <feColorMatrix in="shadowBlurOuter2" result="shadowMatrixOuter2" values="0 0 0 0 0 0 0 0 0 0 0 0 0 0 0 0 0 0 0.179347826 0"/>
            <feMerge>
                <feMergeNode in="shadowMatrixOuter1"/>
                <feMergeNode in="shadowMatrixOuter2"/>
            </feMerge>
        </filter>
        <path id="q" d="M17.595 12.379a1.19 1.19 0 0 0-1.197-1.183 1.19 1.19 0 0 0-1.196 1.179v-.826c0-.857-.719-1.551-1.606-1.551-.886 0-1.592.694-1.592 1.55V10.35c0-.856-.728-1.55-1.611-1.55s-1.586.694-1.586 1.55V1.425C8.807.638 8.168 0 7.397 0c-.772 0-1.398.638-1.398 1.425v15.038l-3.603-4.659c-.346-.586-1.126-.779-1.742-.431-.617.348-.836 1.105-.49 1.691 0 0 2.817 4.369 3.967 6.093C5.281 20.882 7.17 23.01 7.17 24h7.989c0-1.672 2.443-4.283 2.443-6.798v-3.24l-.006-1.583z"/>
        <filter id="p" width="185.2%" height="162.5%" x="-42.6%" y="-18.8%" filterUnits="objectBoundingBox">
            <feMorphology in="SourceAlpha" operator="dilate" radius="1" result="shadowSpreadOuter1"/>
            <feOffset dy="1" in="shadowSpreadOuter1" result="shadowOffsetOuter1"/>
            <feGaussianBlur in="shadowOffsetOuter1" result="shadowBlurOuter1" stdDeviation=".5"/>
            <feComposite in="shadowBlurOuter1" in2="SourceAlpha" operator="out" result="shadowBlurOuter1"/>
            <feColorMatrix in="shadowBlurOuter1" result="shadowMatrixOuter1" values="0 0 0 0 0 0 0 0 0 0 0 0 0 0 0 0 0 0 0.582908741 0"/>
            <feMorphology in="SourceAlpha" operator="dilate" radius="1" result="shadowSpreadOuter2"/>
            <feOffset dy="2" in="shadowSpreadOuter2" result="shadowOffsetOuter2"/>
            <feGaussianBlur in="shadowOffsetOuter2" result="shadowBlurOuter2" stdDeviation="1.5"/>
            <feComposite in="shadowBlurOuter2" in2="SourceAlpha" operator="out" result="shadowBlurOuter2"/>
            <feColorMatrix in="shadowBlurOuter2" result="shadowMatrixOuter2" values="0 0 0 0 0 0 0 0 0 0 0 0 0 0 0 0 0 0 0.179347826 0"/>
            <feMerge>
                <feMergeNode in="shadowMatrixOuter1"/>
                <feMergeNode in="shadowMatrixOuter2"/>
            </feMerge>
        </filter>
        <path id="s" d="M17.595 12.379a1.19 1.19 0 0 0-1.197-1.183 1.19 1.19 0 0 0-1.196 1.179v-.826c0-.857-.719-1.551-1.606-1.551-.886 0-1.592.694-1.592 1.55V10.35c0-.856-.728-1.55-1.611-1.55s-1.586.694-1.586 1.55V1.425C8.807.638 8.168 0 7.397 0c-.772 0-1.398.638-1.398 1.425v15.038l-3.603-4.659c-.346-.586-1.126-.779-1.742-.431-.617.348-.836 1.105-.49 1.691 0 0 2.817 4.369 3.967 6.093C5.281 20.882 7.17 23.01 7.17 24h7.989c0-1.672 2.443-4.283 2.443-6.798v-3.24l-.006-1.583z"/>
        <filter id="r" width="185.2%" height="162.5%" x="-42.6%" y="-18.8%" filterUnits="objectBoundingBox">
            <feMorphology in="SourceAlpha" operator="dilate" radius="1" result="shadowSpreadOuter1"/>
            <feOffset dy="1" in="shadowSpreadOuter1" result="shadowOffsetOuter1"/>
            <feGaussianBlur in="shadowOffsetOuter1" result="shadowBlurOuter1" stdDeviation=".5"/>
            <feComposite in="shadowBlurOuter1" in2="SourceAlpha" operator="out" result="shadowBlurOuter1"/>
            <feColorMatrix in="shadowBlurOuter1" result="shadowMatrixOuter1" values="0 0 0 0 0 0 0 0 0 0 0 0 0 0 0 0 0 0 0.582908741 0"/>
            <feMorphology in="SourceAlpha" operator="dilate" radius="1" result="shadowSpreadOuter2"/>
            <feOffset dy="2" in="shadowSpreadOuter2" result="shadowOffsetOuter2"/>
            <feGaussianBlur in="shadowOffsetOuter2" result="shadowBlurOuter2" stdDeviation="1.5"/>
            <feComposite in="shadowBlurOuter2" in2="SourceAlpha" operator="out" result="shadowBlurOuter2"/>
            <feColorMatrix in="shadowBlurOuter2" result="shadowMatrixOuter2" values="0 0 0 0 0 0 0 0 0 0 0 0 0 0 0 0 0 0 0.179347826 0"/>
            <feMerge>
                <feMergeNode in="shadowMatrixOuter1"/>
                <feMergeNode in="shadowMatrixOuter2"/>
            </feMerge>
        </filter>
        <path id="u" d="M6.132 11.269l4.71.26c.72-.08.899-.568.397-1.085L.592.3C.09-.216.027-.049.026.671L0 14.984c-.001.72.467.947 1.04.505l2.742-3.272c.095-.074.208-.146.327-.218l2.97 7.517c.165.41.664.595 1.113.413.449-.18.68-.66.514-1.07l-2.972-7.518.398-.073z"/>
        <filter id="t" width="230.2%" height="175%" x="-65.1%" y="-22.5%" filterUnits="objectBoundingBox">
            <feMorphology in="SourceAlpha" operator="dilate" radius="1" result="shadowSpreadOuter1"/>
            <feOffset dy="1" in="shadowSpreadOuter1" result="shadowOffsetOuter1"/>
            <feGaussianBlur in="shadowOffsetOuter1" result="shadowBlurOuter1" stdDeviation=".5"/>
            <feComposite in="shadowBlurOuter1" in2="SourceAlpha" operator="out" result="shadowBlurOuter1"/>
            <feColorMatrix in="shadowBlurOuter1" result="shadowMatrixOuter1" values="0 0 0 0 0 0 0 0 0 0 0 0 0 0 0 0 0 0 0.582908741 0"/>
            <feMorphology in="SourceAlpha" operator="dilate" radius="1" result="shadowSpreadOuter2"/>
            <feOffset dy="2" in="shadowSpreadOuter2" result="shadowOffsetOuter2"/>
            <feGaussianBlur in="shadowOffsetOuter2" result="shadowBlurOuter2" stdDeviation="1.5"/>
            <feComposite in="shadowBlurOuter2" in2="SourceAlpha" operator="out" result="shadowBlurOuter2"/>
            <feColorMatrix in="shadowBlurOuter2" result="shadowMatrixOuter2" values="0 0 0 0 0 0 0 0 0 0 0 0 0 0 0 0 0 0 0.179347826 0"/>
            <feMerge>
                <feMergeNode in="shadowMatrixOuter1"/>
                <feMergeNode in="shadowMatrixOuter2"/>
            </feMerge>
        </filter>
    </defs>
    <g fill="none" fill-rule="evenodd" transform="translate(-2)">
        <use fill="#C8CCD1" xlink:href="#a"/>
        <path stroke="#C8CCD1" d="M270.5 1v32.5h262.508a2.492 2.492 0 0 0 2.492-2.502V3.002A2.505 2.505 0 0 0 533.008.5H270.5V1z"/>
        <use fill="#C8CCD1" xlink:href="#b"/>
        <path stroke="#C8CCD1" d="M195.994.5a2.493 2.493 0 0 0-2.494 2.502v27.996a2.498 2.498 0 0 0 2.494 2.502H270.5V.5h-74.506z"/>
        <text fill="#FFF" font-family="HelveticaNeue-Bold, Helvetica Neue" font-size="16" font-weight="bold">
            <tspan x="221" y="23">All</tspan>
        </text>
        <text fill="#FFF" font-family="HelveticaNeue-Bold, Helvetica Neue" font-size="16" font-weight="bold">
            <tspan x="290" y="23">Pages</tspan>
        </text>
        <text fill="#FFF" font-family="HelveticaNeue-Bold, Helvetica Neue" font-size="16" font-weight="bold">
            <tspan x="464" y="23">Other</tspan>
        </text>
        <use fill="#F8F9FA" xlink:href="#c"/>
        <rect width="342" height="33" x="193.5" y="56.5" stroke="#A2A9B1" rx="2"/>
        <path stroke="#A2A9B1" stroke-linecap="square" d="M270.5 56.5v33.015m90-33.015v33.015"/>
        <path stroke="#767676" stroke-linecap="square" d="M440.5 56.5v32.015"/>
        <path stroke="#A2A9B1" stroke-linecap="square" d="M440.5 56.5v32.015"/>
        <path stroke="#FFF" stroke-linecap="square" d="M440.5.615v33M360.5.5v33m-90-33v33"/>
        <text fill="#FFF" font-family="HelveticaNeue-Bold, Helvetica Neue" font-size="16" font-weight="bold">
            <tspan x="383" y="23">Talk</tspan>
        </text>
        <text fill="#222" font-family="HelveticaNeue-Bold, Helvetica Neue" font-size="16" font-weight="bold">
            <tspan x="222.392" y="79">All</tspan>
        </text>
        <use fill="#F8F9FA" xlink:href="#d"/>
        <rect width="342" height="33" x="193.5" y="168.5" stroke="#A2A9B1" rx="2"/>
        <use fill="#F8F9FA" xlink:href="#e"/>
        <rect width="342" height="33" x="193.5" y="280.5" stroke="#A2A9B1" rx="2"/>
        <path stroke="#CCC" stroke-linecap="square" d="M270 113v32"/>
        <use fill="#FFF" xlink:href="#f"/>
        <path stroke="#72777D" d="M270 225v33h1v-33h-1zm1 0h-1v33h1v-33z"/>
        <text fill="#222" font-family="HelveticaNeue-Bold, Helvetica Neue" font-size="16" font-weight="bold">
            <tspan x="292.296" y="79">Pages</tspan>
        </text>
        <text fill="#222" font-family="HelveticaNeue-Bold, Helvetica Neue" font-size="16" font-weight="bold">
            <tspan x="465.512" y="79">Other</tspan>
        </text>
        <text fill="#222" font-family="HelveticaNeue-Bold, Helvetica Neue" font-size="16" font-weight="bold">
            <tspan x="384.752" y="79">Talk</tspan>
        </text>
        <use fill="#F8F9FA" xlink:href="#g"/>
        <rect width="342" height="33" x="193.5" y="112.5" stroke="#A2A9B1" rx="2"/>
        <text fill="#222" font-family="HelveticaNeue-Bold, Helvetica Neue" font-size="16" font-weight="bold">
            <tspan x="222.892" y="135">All</tspan>
        </text>
        <text fill="#222" font-family="HelveticaNeue-Bold, Helvetica Neue" font-size="16" font-weight="bold">
            <tspan x="292.296" y="135">Pages</tspan>
        </text>
        <text fill="#222" font-family="HelveticaNeue-Bold, Helvetica Neue" font-size="16" font-weight="bold">
            <tspan x="465.512" y="135">Other</tspan>
        </text>
        <path stroke="#A2A9B1" stroke-linecap="square" d="M440.5 113.5v32.015m-80-32.015v32.015m-90-32.015v32.015m0 22.985v32.015m0 79.985v32"/>
        <text fill="#222" font-family="HelveticaNeue-Bold, Helvetica Neue" font-size="16" font-weight="bold">
            <tspan x="222.392" y="191">All</tspan>
        </text>
        <text fill="#222" font-family="HelveticaNeue-Bold, Helvetica Neue" font-size="16" font-weight="bold">
            <tspan x="222.392" y="303">All</tspan>
        </text>
        <text fill="#222" font-family="HelveticaNeue-Bold, Helvetica Neue" font-size="16" font-weight="bold">
            <tspan x="292.296" y="191">Pages</tspan>
        </text>
        <text fill="#222" font-family="HelveticaNeue-Bold, Helvetica Neue" font-size="16" font-weight="bold">
            <tspan x="292.296" y="303">Pages</tspan>
        </text>
        <text fill="#222" font-family="HelveticaNeue-Bold, Helvetica Neue" font-size="16" font-weight="bold">
            <tspan x="465.512" y="191">Other</tspan>
        </text>
        <text fill="#222" font-family="HelveticaNeue-Bold, Helvetica Neue" font-size="16" font-weight="bold">
            <tspan x="465.512" y="303">Other</tspan>
        </text>
        <use fill="#FFF" xlink:href="#h"/>
        <path stroke="#A2A9B1" d="M360.5 112.5h80v33h-80z"/>
        <use fill="#EAECF0" xlink:href="#i"/>
        <path stroke="#72777D" d="M360.5 168.5h80v33h-80z"/>
        <use fill="#1F4999" xlink:href="#j"/>
        <path stroke="#1F4999" d="M360.5 280.5h80v33h-80z"/>
        <text fill="#222" font-family="HelveticaNeue-Bold, Helvetica Neue" font-size="16" font-weight="bold">
            <tspan x="385.752" y="135">Talk</tspan>
        </text>
        <text fill="#000" font-family="HelveticaNeue-Bold, Helvetica Neue" font-size="16" font-weight="bold">
            <tspan x="385.752" y="191">Talk</tspan>
        </text>
        <text fill="#FFF" font-family="HelveticaNeue-Bold, Helvetica Neue" font-size="16" font-weight="bold">
            <tspan x="384.864" y="303">Talk</tspan>
        </text>
        <use fill="#F8F9FA" xlink:href="#k"/>
        <rect width="342" height="33" x="193.5" y="224.5" stroke="#347BFF" rx="2"/>
        <g stroke="#36C">
            <path d="M361.5 224.5h80v33h-80z"/>
            <path d="M362.5 225.5h78v31h-78z"/>
        </g>
        <text fill="#222" font-family="HelveticaNeue-Bold, Helvetica Neue" font-size="16" font-weight="bold">
            <tspan x="222.392" y="247">All</tspan>
        </text>
        <path stroke="#A2A9B1" stroke-linecap="square" d="M270.5 224.5v32.015"/>
        <text fill="#222" font-family="HelveticaNeue-Bold, Helvetica Neue" font-size="16" font-weight="bold">
            <tspan x="292.296" y="247">Pages</tspan>
        </text>
        <text fill="#222" font-family="HelveticaNeue-Bold, Helvetica Neue" font-size="16" font-weight="bold">
            <tspan x="465.512" y="247">Other</tspan>
        </text>
        <text fill="#222" font-family="HelveticaNeue-Bold, Helvetica Neue" font-size="16" font-weight="bold">
            <tspan x="385.752" y="247">Talk</tspan>
        </text>
        <use fill="#F8F9FA" xlink:href="#l"/>
        <rect width="387" height="33" x="193.5" y="424.5" stroke="#A2A9B1" rx="2"/>
        <use fill="#FFF" xlink:href="#m"/>
        <path stroke="#A2A9B1" d="M385.5 424.5h91v33h-91z"/>
        <path stroke="#A2A9B1" stroke-linecap="square" d="M278.5 425v32"/>
        <text fill="#222" font-family="Lato-Bold, Lato" font-size="14" font-weight="bold" transform="translate(2 385)">
            <tspan x="0" y="13">ICON + TEXT</tspan>
        </text>
        <path stroke="#222" stroke-linecap="square" d="M191.484 408.5H2.516"/>
        <g stroke-linecap="square">
            <path stroke="#D0011B" d="M180.5 24.5v-15m1 15v-15m1 15v-15m1 15v-15"/>
            <path stroke="#50E3C2" d="M181.5 32.5v-7m-1 7v-7m3 7v-7m-1 7v-7m-1-17v-7m-1 7v-7m3 7v-7m-1 7v-7"/>
        </g>
        <text fill="#222" font-family="HelveticaNeue-Bold, Helvetica Neue" font-size="16" font-weight="bold">
            <tspan x="238.392" y="448">All</tspan>
        </text>
        <circle cx="220" cy="442" r="10" fill="#222"/>
        <path stroke="#50E3C2" stroke-width="4" d="M230 442h8"/>
        <path stroke="#D0011B" stroke-width="4" d="M194 442h16m52 0h16"/>
        <text fill="#222" font-family="HelveticaNeue-Bold, Helvetica Neue" font-size="16" font-weight="bold">
            <tspan x="322.296" y="448">Pages</tspan>
        </text>
        <circle cx="305" cy="442" r="10" fill="#222"/>
        <path stroke="#50E3C2" stroke-width="4" d="M315 442h8"/>
        <path stroke="#D0011B" stroke-width="4" d="M279 442h16m74 0h16"/>
        <text fill="#222" font-family="HelveticaNeue-Bold, Helvetica Neue" font-size="16" font-weight="bold">
            <tspan x="429.752" y="448">Talk</tspan>
        </text>
        <circle cx="412" cy="442" r="10" fill="#222"/>
        <path stroke="#50E3C2" stroke-width="4" d="M422 442h8"/>
        <path stroke="#D0011B" stroke-width="4" d="M386 442h16m58 0h16"/>
        <text fill="#222" font-family="HelveticaNeue-Bold, Helvetica Neue" font-size="16" font-weight="bold">
            <tspan x="520.512" y="448">Other</tspan>
        </text>
        <circle cx="503" cy="442" r="10" fill="#222"/>
        <path stroke="#50E3C2" stroke-width="4" d="M513 442h8"/>
        <path stroke="#D0011B" stroke-width="4" d="M477 442h16m71 0h16"/>
        <g transform="translate(416 189)">
            <use fill="#000" filter="url(#n)" xlink:href="#o"/>
            <use fill="#FFF" xlink:href="#o"/>
            <path stroke="#000" d="M18.095 12.378a1.69 1.69 0 0 0-1.697-1.682 1.7 1.7 0 0 0-.805.201 2.102 2.102 0 0 0-1.997-1.4c-.429 0-.827.126-1.159.342-.235-.887-1.067-1.54-2.044-1.54-.398 0-.77.11-1.086.298V1.425c0-1.06-.86-1.925-1.91-1.925-1.05 0-1.898.864-1.898 1.925V15L2.79 11.5c-.451-.773-1.533-1.041-2.383-.562-.856.484-1.165 1.55-.675 2.381l.199.309a1248.604 1248.604 0 0 0 2.036 3.143 341.137 341.137 0 0 0 1.747 2.665c.264.396.545.785 1.021 1.429l.08.106c1.38 1.861 1.853 2.609 1.853 3.03v.5h8.989V24c0-.556.155-.907 1.165-2.853.7-1.347 1.057-2.216 1.212-3.158a4.86 4.86 0 0 0 .066-.787v-3.24l-.006-1.584z"/>
        </g>
        <g transform="translate(416 133)">
            <use fill="#000" filter="url(#p)" xlink:href="#q"/>
            <use fill="#FFF" xlink:href="#q"/>
            <path stroke="#000" d="M18.095 12.378a1.69 1.69 0 0 0-1.697-1.682 1.7 1.7 0 0 0-.805.201 2.102 2.102 0 0 0-1.997-1.4c-.429 0-.827.126-1.159.342-.235-.887-1.067-1.54-2.044-1.54-.398 0-.77.11-1.086.298V1.425c0-1.06-.86-1.925-1.91-1.925-1.05 0-1.898.864-1.898 1.925V15L2.79 11.5c-.451-.773-1.533-1.041-2.383-.562-.856.484-1.165 1.55-.675 2.381l.199.309a1248.604 1248.604 0 0 0 2.036 3.143 341.137 341.137 0 0 0 1.747 2.665c.264.396.545.785 1.021 1.429l.08.106c1.38 1.861 1.853 2.609 1.853 3.03v.5h8.989V24c0-.556.155-.907 1.165-2.853.7-1.347 1.057-2.216 1.212-3.158a4.86 4.86 0 0 0 .066-.787v-3.24l-.006-1.584z"/>
        </g>
        <g transform="translate(456 448)">
            <use fill="#000" filter="url(#r)" xlink:href="#s"/>
            <use fill="#FFF" xlink:href="#s"/>
            <path stroke="#000" d="M18.095 12.378a1.69 1.69 0 0 0-1.697-1.682 1.7 1.7 0 0 0-.805.201 2.102 2.102 0 0 0-1.997-1.4c-.429 0-.827.126-1.159.342-.235-.887-1.067-1.54-2.044-1.54-.398 0-.77.11-1.086.298V1.425c0-1.06-.86-1.925-1.91-1.925-1.05 0-1.898.864-1.898 1.925V15L2.79 11.5c-.451-.773-1.533-1.041-2.383-.562-.856.484-1.165 1.55-.675 2.381l.199.309a1248.604 1248.604 0 0 0 2.036 3.143 341.137 341.137 0 0 0 1.747 2.665c.264.396.545.785 1.021 1.429l.08.106c1.38 1.861 1.853 2.609 1.853 3.03v.5h8.989V24c0-.556.155-.907 1.165-2.853.7-1.347 1.057-2.216 1.212-3.158a4.86 4.86 0 0 0 .066-.787v-3.24l-.006-1.584z"/>
        </g>
        <g transform="translate(423 24)">
            <use fill="#000" filter="url(#t)" xlink:href="#u"/>
            <use fill="#000" xlink:href="#u"/>
            <path stroke="#FFF" d="M6.448 11.787l4.367.242c1.214-.128 1.575-1.116.783-1.933L.937-.061C.49-.52.197-.699-.203-.359c-.244.208-.27.41-.271 1.028L-.5 14.984c-.002 1.138.945 1.597 1.846.902l.077-.075 2.483-2.963L6.614 19.7c.274.68 1.07.975 1.766.692.695-.28 1.062-1.045.789-1.72l-2.72-6.886z"/>
        </g>
        <g fill="#72777D" font-family="Lato-Regular, Lato" font-size="14">
            <text transform="translate(0 10)">
                <tspan x="0" y="237">:FOCUS</tspan>
            </text>
            <text transform="translate(0 10)">
                <tspan x="0" y="293">SELECTED</tspan>
            </text>
            <text transform="translate(0 10)">
                <tspan x="0" y="181">:ACTIVE</tspan>
            </text>
            <text transform="translate(0 10)">
                <tspan x="0" y="125">:HOVER</tspan>
            </text>
            <text transform="translate(0 10)">
                <tspan x="0" y="69">NORMAL</tspan>
            </text>
            <text transform="translate(0 10)">
                <tspan x="0" y="14">DISABLED</tspan>
            </text>
        </g>
    </g>
</svg>
