<?xml version="1.0" encoding="UTF-8"?>
<svg xmlns="http://www.w3.org/2000/svg" xmlns:xlink="http://www.w3.org/1999/xlink" width="658" height="274" viewBox="0 0 658 274">
	<title>
		buttons_quiet_states
	</title>
	<defs>
		<filter id="filter-5" width="173.9%" height="154.2%" x="-36.9%" y="-18.8%" filterUnits="objectBoundingBox">
			<feMorphology in="SourceAlpha" operator="dilate" radius="1" result="shadowSpreadOuter1"/>
			<feOffset dy="1" in="shadowSpreadOuter1" result="shadowOffsetOuter1"/>
			<feGaussianBlur in="shadowOffsetOuter1" result="shadowBlurOuter1" stdDeviation=".5"/>
			<feComposite in="shadowBlurOuter1" in2="SourceAlpha" operator="out" result="shadowBlurOuter1"/>
			<feColorMatrix in="shadowBlurOuter1" result="shadowMatrixOuter1" values="0 0 0 0 0 0 0 0 0 0 0 0 0 0 0 0 0 0 0.582908741 0"/>
			<feMorphology in="SourceAlpha" operator="dilate" radius="1" result="shadowSpreadOuter2"/>
			<feOffset dy="2" in="shadowSpreadOuter2" result="shadowOffsetOuter2"/>
			<feGaussianBlur in="shadowOffsetOuter2" result="shadowBlurOuter2" stdDeviation="1.5"/>
			<feComposite in="shadowBlurOuter2" in2="SourceAlpha" operator="out" result="shadowBlurOuter2"/>
			<feColorMatrix in="shadowBlurOuter2" result="shadowMatrixOuter2" values="0 0 0 0 0 0 0 0 0 0 0 0 0 0 0 0 0 0 0.179347826 0"/>
			<feMerge>
				<feMergeNode in="shadowMatrixOuter1"/>
				<feMergeNode in="shadowMatrixOuter2"/>
			</feMerge>
		</filter>
		<filter id="filter-7" width="173.9%" height="154.2%" x="-36.9%" y="-18.8%" filterUnits="objectBoundingBox">
			<feMorphology in="SourceAlpha" operator="dilate" radius="1" result="shadowSpreadOuter1"/>
			<feOffset dy="1" in="shadowSpreadOuter1" result="shadowOffsetOuter1"/>
			<feGaussianBlur in="shadowOffsetOuter1" result="shadowBlurOuter1" stdDeviation=".5"/>
			<feComposite in="shadowBlurOuter1" in2="SourceAlpha" operator="out" result="shadowBlurOuter1"/>
			<feColorMatrix in="shadowBlurOuter1" result="shadowMatrixOuter1" values="0 0 0 0 0 0 0 0 0 0 0 0 0 0 0 0 0 0 0.582908741 0"/>
			<feMorphology in="SourceAlpha" operator="dilate" radius="1" result="shadowSpreadOuter2"/>
			<feOffset dy="2" in="shadowSpreadOuter2" result="shadowOffsetOuter2"/>
			<feGaussianBlur in="shadowOffsetOuter2" result="shadowBlurOuter2" stdDeviation="1.5"/>
			<feComposite in="shadowBlurOuter2" in2="SourceAlpha" operator="out" result="shadowBlurOuter2"/>
			<feColorMatrix in="shadowBlurOuter2" result="shadowMatrixOuter2" values="0 0 0 0 0 0 0 0 0 0 0 0 0 0 0 0 0 0 0.179347826 0"/>
			<feMerge>
				<feMergeNode in="shadowMatrixOuter1"/>
				<feMergeNode in="shadowMatrixOuter2"/>
			</feMerge>
		</filter>
		<filter id="filter-9" width="220.2%" height="165%" x="-56.2%" y="-22.5%" filterUnits="objectBoundingBox">
			<feMorphology in="SourceAlpha" operator="dilate" radius="1" result="shadowSpreadOuter1"/>
			<feOffset dy="1" in="shadowSpreadOuter1" result="shadowOffsetOuter1"/>
			<feGaussianBlur in="shadowOffsetOuter1" result="shadowBlurOuter1" stdDeviation=".5"/>
			<feComposite in="shadowBlurOuter1" in2="SourceAlpha" operator="out" result="shadowBlurOuter1"/>
			<feColorMatrix in="shadowBlurOuter1" result="shadowMatrixOuter1" values="0 0 0 0 0 0 0 0 0 0 0 0 0 0 0 0 0 0 0.582908741 0"/>
			<feMorphology in="SourceAlpha" operator="dilate" radius="1" result="shadowSpreadOuter2"/>
			<feOffset dy="2" in="shadowSpreadOuter2" result="shadowOffsetOuter2"/>
			<feGaussianBlur in="shadowOffsetOuter2" result="shadowBlurOuter2" stdDeviation="1.5"/>
			<feComposite in="shadowBlurOuter2" in2="SourceAlpha" operator="out" result="shadowBlurOuter2"/>
			<feColorMatrix in="shadowBlurOuter2" result="shadowMatrixOuter2" values="0 0 0 0 0 0 0 0 0 0 0 0 0 0 0 0 0 0 0.179347826 0"/>
			<feMerge>
				<feMergeNode in="shadowMatrixOuter1"/>
				<feMergeNode in="shadowMatrixOuter2"/>
			</feMerge>
		</filter>
		<rect id="path-1" width="115" height="32" x="202" y="162" rx="2"/>
		<rect id="path-2" width="112" height="32" x="366" y="162" rx="2"/>
		<rect id="path-3" width="80" height="32" x="14" y="162" rx="2"/>
		<path id="path-4" d="M17.595 12.379a1.19 1.19 0 00-1.197-1.183 1.19 1.19 0 00-1.196 1.179v-.826c0-.857-.719-1.551-1.606-1.551-.886 0-1.592.694-1.592 1.55V10.35c0-.856-.728-1.55-1.611-1.55s-1.586.694-1.586 1.55V1.425C8.807.638 8.168 0 7.397 0c-.772 0-1.398.638-1.398 1.425v15.038l-3.603-4.659c-.346-.586-1.126-.779-1.742-.431-.617.348-.836 1.105-.49 1.691 0 0 2.817 4.369 3.967 6.093C5.281 20.882 7.17 23.01 7.17 24h7.989c0-1.672 2.443-4.283 2.443-6.798v-3.24l-.006-1.583z"/>
		<path id="path-6" d="M17.595 12.379a1.19 1.19 0 00-1.197-1.183 1.19 1.19 0 00-1.196 1.179v-.826c0-.857-.719-1.551-1.606-1.551-.886 0-1.592.694-1.592 1.55V10.35c0-.856-.728-1.55-1.611-1.55s-1.586.694-1.586 1.55V1.425C8.807.638 8.168 0 7.397 0c-.772 0-1.398.638-1.398 1.425v15.038l-3.603-4.659c-.346-.586-1.126-.779-1.742-.431-.617.348-.836 1.105-.49 1.691 0 0 2.817 4.369 3.967 6.093C5.281 20.882 7.17 23.01 7.17 24h7.989c0-1.672 2.443-4.283 2.443-6.798v-3.24l-.006-1.583z"/>
		<path id="path-8" d="M6.132 11.269l4.71.26c.72-.08.899-.568.397-1.085L.592.3C.09-.216.027-.049.026.671L0 14.984c-.001.72.467.947 1.04.505l2.742-3.272c.095-.074.208-.146.327-.218l2.97 7.517c.165.41.664.595 1.113.413.449-.18.68-.66.514-1.07l-2.972-7.518.398-.073z"/>
	</defs>
	<g id="Artboard-page" fill="none" fill-rule="evenodd" stroke="none" stroke-width="1">
		<g id="WikimediaUI-components_overview" transform="translate(-2559 -255)">
			<path fill="#FFF" d="M0 0h14720v3264H0z"/>
			<g id="QUIET-BUTTONS" transform="translate(1948 143)">
				<g id="Quiet-Buttons-X" transform="translate(0 119)">
					<g id="Text" transform="translate(790)">
						<g id="BG" stroke-linejoin="square">
							<rect width="113" height="30" x="203" y="163" stroke="#FFF" stroke-width="2" rx="2"/>
							<rect width="113" height="30" x="203" y="163" stroke="#36C" stroke-width="2" rx="2"/>
							<rect width="114" height="31" x="202.5" y="162.5" stroke="#36C" rx="2"/>
						</g>
						<text id="Label" fill="#36C" font-family="HelveticaNeue-Bold, Helvetica Neue, sans-serif" font-size="16" font-weight="bold">
							<tspan x="214.452" y="184">Progressive</tspan>
						</text>
						<g id="BG" stroke-linejoin="square">
							<rect width="110" height="30" x="367" y="163" stroke="#FFF" stroke-width="2" rx="2"/>
							<rect width="110" height="30" x="367" y="163" stroke="#D33" stroke-width="2" rx="2"/>
							<rect width="111" height="31" x="366.5" y="162.5" stroke="#D33" rx="2"/>
						</g>
						<text id="Label" fill="#D33" font-family="HelveticaNeue-Bold, Helvetica Neue, sans-serif" font-size="16" font-weight="bold">
							<tspan x="378.288" y="184">Destructive</tspan>
						</text>
						<rect id="BG" width="114" height="31" x="202.5" y="106.5" fill="#2A4B8D" stroke="#2A4B8D" rx="2"/>
						<text id="Label" fill="#FFF" font-family="HelveticaNeue-Bold, Helvetica Neue, sans-serif" font-size="16" font-weight="bold">
							<tspan x="214.452" y="128">Progressive</tspan>
						</text>
						<rect id="BG" width="111" height="31" x="366.5" y="106.5" fill="#B32424" stroke="#B32424" rx="2"/>
						<text id="Label" fill="#FFF" font-family="HelveticaNeue-Bold, Helvetica Neue, sans-serif" font-size="16" font-weight="bold">
							<tspan x="378.288" y="128">Destructive</tspan>
						</text>
						<rect id="BG" width="114" height="31" x="202.5" y="50.5" fill="#347BFF" stroke="#347BFF" opacity=".2" rx="2"/>
						<text id="Label" fill="#347BFF" font-family="HelveticaNeue-Bold, Helvetica Neue, sans-serif" font-size="16" font-weight="bold">
							<tspan x="214.452" y="72">Progressive</tspan>
						</text>
						<rect id="BG" width="112" height="32" x="365" y="50" fill="#D11D13" opacity=".2" rx="2"/>
						<text id="Label" fill="#D33" font-family="HelveticaNeue-Bold, Helvetica Neue, sans-serif" font-size="16" font-weight="bold">
							<tspan x="378" y="73">Destructive</tspan>
						</text>
						<text id="Label" fill="#36C" font-family="HelveticaNeue-Bold, Helvetica Neue, sans-serif" font-size="16" font-weight="bold">
							<tspan x="214.452" y="16">Progressive</tspan>
						</text>
						<text id="Label" fill="#D33" font-family="HelveticaNeue-Bold, Helvetica Neue, sans-serif" font-size="16" font-weight="bold">
							<tspan x="378.288" y="16">Destructive</tspan>
						</text>
						<text id="Label" fill="#72777D" font-family="HelveticaNeue-Bold, Helvetica Neue, sans-serif" font-size="16" font-weight="bold">
							<tspan x="214" y="240">Progressive</tspan>
						</text>
						<text id="Label" fill="#72777D" font-family="HelveticaNeue-Bold, Helvetica Neue, sans-serif" font-size="16" font-weight="bold">
							<tspan x="378" y="240">Destructive</tspan>
						</text>
						<text id="Label" fill="#72777D" font-family="HelveticaNeue-Bold, Helvetica Neue, sans-serif" font-size="16" font-weight="bold">
							<tspan x="26" y="240">Neutral</tspan>
						</text>
						<text id="Label" fill="#222" font-family="HelveticaNeue-Bold, Helvetica Neue, sans-serif" font-size="16" font-weight="bold">
							<tspan x="26.152" y="16">Neutral</tspan>
						</text>
						<rect id="BG" width="80" height="32" x="14" y="50" fill="#F8F9FA" rx="2"/>
						<text id="Label" fill="#222" font-family="HelveticaNeue-Bold, Helvetica Neue, sans-serif" font-size="16" font-weight="bold">
							<tspan x="26.152" y="72">Neutral</tspan>
						</text>
						<rect id="BG" width="79" height="31" x="14.5" y="106.5" fill="#EAECF0" stroke="#72777D" rx="2"/>
						<text id="Label" fill="#000" font-family="HelveticaNeue-Bold, Helvetica Neue, sans-serif" font-size="16" font-weight="bold">
							<tspan x="25" y="127">Neutral</tspan>
						</text>
						<g id="BG" stroke="#36C" stroke-linejoin="square">
							<rect width="78" height="30" x="15" y="163" stroke-width="2" rx="2"/>
							<rect width="79" height="31" x="14.5" y="162.5" rx="2"/>
						</g>
						<text id="Label" fill="#222" font-family="HelveticaNeue-Bold, Helvetica Neue, sans-serif" font-size="16" font-weight="bold">
							<tspan x="26.152" y="184">Neutral</tspan>
						</text>
						<g id="_Spec-/-16-sp-(1-em)-+-2-*-8-sp-(0.5-em)" stroke-width="4" transform="rotate(-90 125 125)">
							<g id="_Spec-/-16-sp-(1-em)" stroke="#D0021B" transform="translate(8)">
								<path id="16-sp-(1-em)" d="M0 2h16"/>
							</g>
							<g id="_Spec-/-8-sp-(0.5-em)" stroke="#50E3C2" transform="translate(0 1)">
								<path id="8-sp-(0.5-em)" d="M0 1h8"/>
							</g>
							<g id="_Spec-/-8-sp-(0.5-em)" stroke="#50E3C2" transform="translate(24)">
								<path id="8-sp-(0.5-em)" d="M0 2h8"/>
							</g>
						</g>
						<g id="_Spec-/-12-sp-(0.75-em)" stroke="#0082FF" stroke-width="4" transform="translate(82 234.5)">
							<path id=".75em" d="M0 .5h12"/>
						</g>
						<g id="_Spec-/-12-sp-(0.75-em)" stroke="#0082FF" stroke-width="4" transform="translate(14 234.5)">
							<path id=".75em" d="M0 .5h12"/>
						</g>
					</g>
					<g id="Cursor-/-Pointer" transform="translate(869 70)">
						<g id="Cursor-Pointer">
							<use fill="#000" filter="url(#filter-5)" xlink:href="#path-4"/>
							<path fill="#FFF" stroke="#000" d="M5.499 15V1.424C5.499.365 6.346-.5 7.396-.5c1.052 0 1.91.865 1.91 1.925v7.172a2.116 2.116 0 011.087-.298c.977 0 1.809.653 2.044 1.54.332-.216.73-.341 1.16-.341.926 0 1.716.584 1.996 1.399a1.7 1.7 0 01.805-.201 1.69 1.69 0 011.697 1.683v-.002l.006 1.586v3.239c0 .257-.022.519-.066.787-.155.942-.512 1.811-1.212 3.158-1.01 1.946-1.165 2.297-1.165 2.853v.5h-8.99V24c0-.421-.472-1.169-1.853-3.03l-.079-.106a34.473 34.473 0 01-1.02-1.43c-.39-.583-.991-1.5-1.748-2.664l-.027-.043a1115.225 1115.225 0 01-2.009-3.1l-.199-.309c-.49-.83-.181-1.897.675-2.38.85-.48 1.932-.212 2.383.56L5.5 15z"/>
						</g>
					</g>
					<g id="Cursor-/-Pointer" transform="translate(868 126)">
						<g id="Cursor-Pointer">
							<use fill="#000" filter="url(#filter-7)" xlink:href="#path-6"/>
							<path fill="#FFF" stroke="#000" d="M5.499 15V1.424C5.499.365 6.346-.5 7.396-.5c1.052 0 1.91.865 1.91 1.925v7.172a2.116 2.116 0 011.087-.298c.977 0 1.809.653 2.044 1.54.332-.216.73-.341 1.16-.341.926 0 1.716.584 1.996 1.399a1.7 1.7 0 01.805-.201 1.69 1.69 0 011.697 1.683v-.002l.006 1.586v3.239c0 .257-.022.519-.066.787-.155.942-.512 1.811-1.212 3.158-1.01 1.946-1.165 2.297-1.165 2.853v.5h-8.99V24c0-.421-.472-1.169-1.853-3.03l-.079-.106a34.473 34.473 0 01-1.02-1.43c-.39-.583-.991-1.5-1.748-2.664l-.027-.043a1115.225 1115.225 0 01-2.009-3.1l-.199-.309c-.49-.83-.181-1.897.675-2.38.85-.48 1.932-.212 2.383.56L5.5 15z"/>
						</g>
					</g>
					<g id="Cursor-/-!default" transform="translate(875 243)">
						<g id="Cursor" fill="#000">
							<use filter="url(#filter-9)" xlink:href="#path-8"/>
							<path stroke="#FFF" d="M6.448 11.787l2.721 6.886c.273.675-.094 1.44-.79 1.72-.696.283-1.491-.013-1.765-.692l-2.708-6.853-2.483 2.963-.077.075c-.901.695-1.848.236-1.846-.902L-.474.669c0-.618.027-.82.271-1.028.4-.34.694-.163 1.14.298l10.66 10.157c.793.817.432 1.805-.782 1.933l-4.367-.242z"/>
						</g>
					</g>
					<text id="State-Description" fill="#72777D" font-family="Lato-Regular, Lato, sans-serif" font-size="14" font-weight="normal">
						<tspan x="612" y="15.1">Normal</tspan> <tspan x="612" y="71.2">Hover</tspan> <tspan x="612" y="127.3">Active</tspan> <tspan x="612" y="183.4">Focus</tspan> <tspan x="612" y="239.5">Disabled</tspan>
					</text>
				</g>
			</g>
		</g>
	</g>
</svg>
