<?xml version="1.0" encoding="UTF-8"?>
<svg xmlns="http://www.w3.org/2000/svg" xmlns:xlink="http://www.w3.org/1999/xlink" width="658" height="274" viewBox="0 0 658 274">
	<title>
		buttons_quiet_states
	</title>
	<defs>
		<rect id="path-1" width="115" height="32" x="202" y="168" rx="2"/>
		<rect id="path-2" width="112" height="32" x="366" y="168" rx="2"/>
		<rect id="path-3" width="80" height="32" x="14" y="168" rx="2"/>
		<path id="path-4" d="M17.5954523,12.3787874 C17.5954523,11.7256091 17.0590701,11.1960268 16.3978922,11.1960268 C15.7383142,11.1960268 15.203532,11.7232092 15.2015321,12.3747875 L15.2015321,11.548815 C15.2015321,10.6920436 14.483156,9.99766674 13.5963856,9.99766674 C12.7096151,9.99766674 12.0036387,10.6920436 12.0036387,11.548815 L12.0036387,10.350455 C12.0036387,9.49368354 11.2756629,8.79930669 10.3928923,8.79930669 C9.51012177,8.79930669 8.80654522,9.49408353 8.80654522,10.350455 L8.80654522,1.42515249 C8.80654522,0.637978734 8.1681665,-2.3109992e-14 7.39619224,-2.3109992e-14 C6.62461796,-2.3109992e-14 5.99863882,0.638378721 5.99863882,1.42515249 L5.99863882,16.4630512 L2.39595891,11.8040065 C2.04997044,11.2180261 1.26999644,11.0252325 0.653616989,11.3728209 C0.0372375346,11.7208093 -0.181955159,12.4779841 0.164033308,13.0639645 C0.164033308,13.0639645 2.9811394,17.4326189 4.13110107,19.1573614 C5.28106274,20.8821039 7.16859982,23.009633 7.16859982,24 L15.1579335,24 C15.1579335,22.3280557 17.6014521,19.7165428 17.6014521,17.2018266 L17.6014521,13.9627346 L17.5954523,12.3787874 Z"/>
		<filter id="filter-5" width="173.9%" height="154.2%" x="-36.9%" y="-18.8%" filterUnits="objectBoundingBox">
			<feMorphology in="SourceAlpha" operator="dilate" radius="1" result="shadowSpreadOuter1"/>
			<feOffset dy="1" in="shadowSpreadOuter1" result="shadowOffsetOuter1"/>
			<feGaussianBlur in="shadowOffsetOuter1" result="shadowBlurOuter1" stdDeviation=".5"/>
			<feComposite in="shadowBlurOuter1" in2="SourceAlpha" operator="out" result="shadowBlurOuter1"/>
			<feColorMatrix in="shadowBlurOuter1" result="shadowMatrixOuter1" values="0 0 0 0 0   0 0 0 0 0   0 0 0 0 0  0 0 0 0.582908741 0"/>
			<feMorphology in="SourceAlpha" operator="dilate" radius="1" result="shadowSpreadOuter2"/>
			<feOffset dy="2" in="shadowSpreadOuter2" result="shadowOffsetOuter2"/>
			<feGaussianBlur in="shadowOffsetOuter2" result="shadowBlurOuter2" stdDeviation="1.5"/>
			<feComposite in="shadowBlurOuter2" in2="SourceAlpha" operator="out" result="shadowBlurOuter2"/>
			<feColorMatrix in="shadowBlurOuter2" result="shadowMatrixOuter2" values="0 0 0 0 0   0 0 0 0 0   0 0 0 0 0  0 0 0 0.179347826 0"/>
			<feMerge>
				<feMergeNode in="shadowMatrixOuter1"/>
				<feMergeNode in="shadowMatrixOuter2"/>
			</feMerge>
		</filter>
		<path id="path-6" d="M17.5954523,12.3787874 C17.5954523,11.7256091 17.0590701,11.1960268 16.3978922,11.1960268 C15.7383142,11.1960268 15.203532,11.7232092 15.2015321,12.3747875 L15.2015321,11.548815 C15.2015321,10.6920436 14.483156,9.99766674 13.5963856,9.99766674 C12.7096151,9.99766674 12.0036387,10.6920436 12.0036387,11.548815 L12.0036387,10.350455 C12.0036387,9.49368354 11.2756629,8.79930669 10.3928923,8.79930669 C9.51012177,8.79930669 8.80654522,9.49408353 8.80654522,10.350455 L8.80654522,1.42515249 C8.80654522,0.637978734 8.1681665,-2.3109992e-14 7.39619224,-2.3109992e-14 C6.62461796,-2.3109992e-14 5.99863882,0.638378721 5.99863882,1.42515249 L5.99863882,16.4630512 L2.39595891,11.8040065 C2.04997044,11.2180261 1.26999644,11.0252325 0.653616989,11.3728209 C0.0372375346,11.7208093 -0.181955159,12.4779841 0.164033308,13.0639645 C0.164033308,13.0639645 2.9811394,17.4326189 4.13110107,19.1573614 C5.28106274,20.8821039 7.16859982,23.009633 7.16859982,24 L15.1579335,24 C15.1579335,22.3280557 17.6014521,19.7165428 17.6014521,17.2018266 L17.6014521,13.9627346 L17.5954523,12.3787874 Z"/>
		<filter id="filter-7" width="173.9%" height="154.2%" x="-36.9%" y="-18.8%" filterUnits="objectBoundingBox">
			<feMorphology in="SourceAlpha" operator="dilate" radius="1" result="shadowSpreadOuter1"/>
			<feOffset dy="1" in="shadowSpreadOuter1" result="shadowOffsetOuter1"/>
			<feGaussianBlur in="shadowOffsetOuter1" result="shadowBlurOuter1" stdDeviation=".5"/>
			<feComposite in="shadowBlurOuter1" in2="SourceAlpha" operator="out" result="shadowBlurOuter1"/>
			<feColorMatrix in="shadowBlurOuter1" result="shadowMatrixOuter1" values="0 0 0 0 0   0 0 0 0 0   0 0 0 0 0  0 0 0 0.582908741 0"/>
			<feMorphology in="SourceAlpha" operator="dilate" radius="1" result="shadowSpreadOuter2"/>
			<feOffset dy="2" in="shadowSpreadOuter2" result="shadowOffsetOuter2"/>
			<feGaussianBlur in="shadowOffsetOuter2" result="shadowBlurOuter2" stdDeviation="1.5"/>
			<feComposite in="shadowBlurOuter2" in2="SourceAlpha" operator="out" result="shadowBlurOuter2"/>
			<feColorMatrix in="shadowBlurOuter2" result="shadowMatrixOuter2" values="0 0 0 0 0   0 0 0 0 0   0 0 0 0 0  0 0 0 0.179347826 0"/>
			<feMerge>
				<feMergeNode in="shadowMatrixOuter1"/>
				<feMergeNode in="shadowMatrixOuter2"/>
			</feMerge>
		</filter>
		<path id="path-8" d="M6.13211402,11.2688979 L10.8422354,11.5297995 C11.562075,11.4497464 11.7406967,10.9613193 11.2389527,10.443935 L0.591868541,0.301190754 C0.0905803995,-0.216377736 0.0269163636,-0.0499300062 0.0256689588,0.670145757 L2.29782166e-06,14.9845005 C-0.00119676849,15.7053522 0.467038737,15.932432 1.04000173,15.490159 L3.78168123,12.217739 C3.87724299,12.1438668 3.98988305,12.0715788 4.10864258,12 L7.07900942,19.5168621 C7.24412875,19.9268592 7.74262137,20.1120195 8.19190947,19.929965 C8.64097423,19.7493265 8.87107252,19.2695313 8.70554568,18.8604942 L5.73444213,11.3418087 L6.13211402,11.2688979 Z"/>
		<filter id="filter-9" width="220.2%" height="165%" x="-56.2%" y="-22.5%" filterUnits="objectBoundingBox">
			<feMorphology in="SourceAlpha" operator="dilate" radius="1" result="shadowSpreadOuter1"/>
			<feOffset dy="1" in="shadowSpreadOuter1" result="shadowOffsetOuter1"/>
			<feGaussianBlur in="shadowOffsetOuter1" result="shadowBlurOuter1" stdDeviation=".5"/>
			<feComposite in="shadowBlurOuter1" in2="SourceAlpha" operator="out" result="shadowBlurOuter1"/>
			<feColorMatrix in="shadowBlurOuter1" result="shadowMatrixOuter1" values="0 0 0 0 0   0 0 0 0 0   0 0 0 0 0  0 0 0 0.582908741 0"/>
			<feMorphology in="SourceAlpha" operator="dilate" radius="1" result="shadowSpreadOuter2"/>
			<feOffset dy="2" in="shadowSpreadOuter2" result="shadowOffsetOuter2"/>
			<feGaussianBlur in="shadowOffsetOuter2" result="shadowBlurOuter2" stdDeviation="1.5"/>
			<feComposite in="shadowBlurOuter2" in2="SourceAlpha" operator="out" result="shadowBlurOuter2"/>
			<feColorMatrix in="shadowBlurOuter2" result="shadowMatrixOuter2" values="0 0 0 0 0   0 0 0 0 0   0 0 0 0 0  0 0 0 0.179347826 0"/>
			<feMerge>
				<feMergeNode in="shadowMatrixOuter1"/>
				<feMergeNode in="shadowMatrixOuter2"/>
			</feMerge>
		</filter>
	</defs>
	<g id="Artboard-page" fill="none" fill-rule="evenodd" stroke="none" stroke-width="1">
		<g id="WikimediaUI-components_overview" transform="translate(-2559 -255)">
			<rect width="14720" height="3264" fill="#FFF"/>
			<g id="QUIET-BUTTONS" transform="translate(1948 143)">
				<g id="Quiet-Buttons-X" transform="translate(0 113)">
					<g id="Text" transform="translate(790)">
						<g id="BG" stroke-linejoin="square">
							<rect width="113" height="30" x="203" y="169" stroke="#FFF" stroke-width="2" rx="2"/>
							<rect width="113" height="30" x="203" y="169" stroke="#36C" stroke-width="2" rx="2"/>
							<rect width="114" height="31" x="202.5" y="168.5" stroke="#36C" rx="2"/>
						</g>
						<text id="Label" fill="#36C" font-family="HelveticaNeue-Bold, Helvetica Neue" font-size="16" font-weight="bold">
							<tspan x="214.452" y="190">Progressive</tspan>
						</text>
						<g id="BG" stroke-linejoin="square">
							<rect width="110" height="30" x="367" y="169" stroke="#FFF" stroke-width="2" rx="2"/>
							<rect width="111" height="31" x="366.5" y="168.5" stroke="#D33" rx="2"/>
							<rect width="111" height="31" x="366.5" y="168.5" stroke="#D33" rx="2"/>
						</g>
						<text id="Label" fill="#D33" font-family="HelveticaNeue-Bold, Helvetica Neue" font-size="16" font-weight="bold">
							<tspan x="378.288" y="190">Destructive</tspan>
						</text>
						<rect id="BG" width="114" height="31" x="202.5" y="112.5" fill="#2A4B8D" stroke="#2A4B8D" rx="2"/>
						<text id="Label" fill="#FFF" font-family="HelveticaNeue-Bold, Helvetica Neue" font-size="16" font-weight="bold">
							<tspan x="214.452" y="134">Progressive</tspan>
						</text>
						<rect id="BG" width="111" height="31" x="366.5" y="112.5" fill="#B32424" stroke="#B32424" rx="2"/>
						<text id="Label" fill="#FFF" font-family="HelveticaNeue-Bold, Helvetica Neue" font-size="16" font-weight="bold">
							<tspan x="378.288" y="134">Destructive</tspan>
						</text>
						<rect id="BG" width="114" height="31" x="202.5" y="56.5" fill="#347BFF" stroke="#347BFF" opacity=".2" rx="2"/>
						<text id="Label" fill="#347BFF" font-family="HelveticaNeue-Bold, Helvetica Neue" font-size="16" font-weight="bold">
							<tspan x="214.452" y="78">Progressive</tspan>
						</text>
						<rect id="BG" width="112" height="32" x="365" y="56" fill="#D11D13" opacity=".2" rx="2"/>
						<text id="Label" fill="#D33" font-family="HelveticaNeue-Bold, Helvetica Neue" font-size="16" font-weight="bold">
							<tspan x="378" y="79">Destructive</tspan>
						</text>
						<text id="Label" fill="#36C" font-family="HelveticaNeue-Bold, Helvetica Neue" font-size="16" font-weight="bold">
							<tspan x="214.452" y="22">Progressive</tspan>
						</text>
						<text id="Label" fill="#D33" font-family="HelveticaNeue-Bold, Helvetica Neue" font-size="16" font-weight="bold">
							<tspan x="378.288" y="22">Destructive</tspan>
						</text>
						<text id="Label" fill="#72777D" font-family="HelveticaNeue-Bold, Helvetica Neue" font-size="16" font-weight="bold">
							<tspan x="214" y="246">Progressive</tspan>
						</text>
						<text id="Label" fill="#72777D" font-family="HelveticaNeue-Bold, Helvetica Neue" font-size="16" font-weight="bold">
							<tspan x="378" y="246">Destructive</tspan>
						</text>
						<text id="Label" fill="#72777D" font-family="HelveticaNeue-Bold, Helvetica Neue" font-size="16" font-weight="bold">
							<tspan x="26" y="246">Neutral</tspan>
						</text>
						<text id="Label" fill="#222" font-family="HelveticaNeue-Bold, Helvetica Neue" font-size="16" font-weight="bold">
							<tspan x="26.152" y="22">Neutral</tspan>
						</text>
						<rect id="BG" width="80" height="32" x="14" y="56" fill="#F8F9FA" rx="2"/>
						<text id="Label" fill="#222" font-family="HelveticaNeue-Bold, Helvetica Neue" font-size="16" font-weight="bold">
							<tspan x="26.152" y="78">Neutral</tspan>
						</text>
						<rect id="BG" width="79" height="31" x="14.5" y="112.5" fill="#EAECF0" stroke="#72777D" rx="2"/>
						<text id="Label" fill="#000" font-family="HelveticaNeue-Bold, Helvetica Neue" font-size="16" font-weight="bold">
							<tspan x="25" y="133">Neutral</tspan>
						</text>
						<g id="BG" stroke="#36C" stroke-linejoin="square">
							<rect width="78" height="30" x="15" y="169" stroke-width="2" rx="2"/>
							<rect width="79" height="31" x="14.5" y="168.5" rx="2"/>
						</g>
						<text id="Label" fill="#222" font-family="HelveticaNeue-Bold, Helvetica Neue" font-size="16" font-weight="bold">
							<tspan x="26.152" y="190">Neutral</tspan>
						</text>
						<g id="_Spec-/-16-sp-(1-em)-+-2-*-8-sp-(0.5-em)" stroke-width="4" transform="rotate(-90 16 16)">
							<g id="_Spec-/-16-sp-(1-em)" stroke="#D0021B" transform="translate(8)">
								<line id="16-sp-(1-em)" x1="0" x2="16" y1="2" y2="2"/>
							</g>
							<g id="_Spec-/-8-sp-(0.5-em)" stroke="#50E3C2" transform="translate(0 1)">
								<line id="8-sp-(0.5-em)" x1="0" x2="8" y1="1" y2="1"/>
							</g>
							<g id="_Spec-/-8-sp-(0.5-em)" stroke="#50E3C2" transform="translate(24)">
								<line id="8-sp-(0.5-em)" x1="0" x2="8" y1="2" y2="2"/>
							</g>
						</g>
						<g id="_Spec-/-16-sp-(1-em)-+-2-*-8-sp-(0.5-em)" stroke-width="4" transform="rotate(-90 128 128)">
							<g id="_Spec-/-16-sp-(1-em)" stroke="#D0021B" transform="translate(8)">
								<line id="16-sp-(1-em)" x1="0" x2="16" y1="2" y2="2"/>
							</g>
							<g id="_Spec-/-8-sp-(0.5-em)" stroke="#50E3C2" transform="translate(0 1)">
								<line id="8-sp-(0.5-em)" x1="0" x2="8" y1="1" y2="1"/>
							</g>
							<g id="_Spec-/-8-sp-(0.5-em)" stroke="#50E3C2" transform="translate(24)">
								<line id="8-sp-(0.5-em)" x1="0" x2="8" y1="2" y2="2"/>
							</g>
						</g>
						<g id="_Spec-/-12-sp-(0.75-em)" stroke="#0082FF" stroke-width="4" transform="translate(82 240.5)">
							<line id=".75em" x1="0" x2="12" y1=".5" y2=".5"/>
						</g>
						<g id="_Spec-/-12-sp-(0.75-em)" stroke="#0082FF" stroke-width="4" transform="translate(14 240.5)">
							<line id=".75em" x1="0" x2="12" y1=".5" y2=".5"/>
						</g>
					</g>
					<g id="Cursor-/-Pointer" transform="translate(869 76)">
						<g id="Cursor-Pointer">
							<use fill="#000" filter="url(#filter-5)" xlink:href="#path-4"/>
							<path fill="#FFF" stroke="#000" d="M5.49863882,14.9990679 L5.49863882,1.42515249 C5.49863882,0.364390213 6.34627404,-0.5 7.39619224,-0.5 C8.4475222,-0.5 9.30654522,0.365060667 9.30654522,1.42515249 L9.30654522,8.59739976 C9.62275187,8.40813447 9.99458465,8.29930669 10.3928923,8.29930669 C11.3696842,8.29930669 12.2017759,8.95226109 12.4371411,9.83891321 C12.7687636,9.62309774 13.1672561,9.49766674 13.5963856,9.49766674 C14.5229268,9.49766674 15.3133259,10.0818718 15.5931989,10.8969793 C15.8327664,10.7687518 16.10688,10.6960268 16.3978922,10.6960268 C17.3338791,10.6960268 18.0954523,11.4481132 18.0954523,12.3787874 L18.0954487,12.3768934 L18.1014521,13.9627346 L18.1014521,17.2018266 C18.1014521,17.45899 18.0788416,17.7210344 18.0348962,17.9890448 C17.8804952,18.9306924 17.5230199,19.8003644 16.8234169,21.1474064 C15.8127426,23.093397 15.6579335,23.4442918 15.6579335,24 L15.6579335,24.5 L6.66859982,24.5 L6.66859982,24 C6.66859982,23.5786103 6.19563371,22.8309976 4.81529743,20.9702918 C4.77572637,20.916944 4.77572637,20.916944 4.73613542,20.8635322 C4.25954481,20.2204113 3.97897576,19.8305154 3.71509077,19.4347338 C3.32594411,18.8510815 2.72477886,17.9332706 1.96848974,16.7703263 C1.95455156,16.7488931 1.95455156,16.7488931 1.94061413,16.727459 C1.45803808,15.9852984 0.942759518,15.1902097 0.428630429,14.3951327 C0.248691135,14.1168648 0.137397398,13.944607 -0.0679723281,13.6265707 C-0.221942375,13.3880215 -0.221942375,13.3880215 -0.266517693,13.3181807 C-0.757186346,12.4871638 -0.448495824,11.4208575 0.408016869,10.9372976 C1.25796465,10.4579954 2.33990048,10.7256484 2.79149833,11.4981494 L5.49863882,14.9990679 Z"/>
						</g>
					</g>
					<g id="Cursor-/-Pointer" transform="translate(868 132)">
						<g id="Cursor-Pointer">
							<use fill="#000" filter="url(#filter-7)" xlink:href="#path-6"/>
							<path fill="#FFF" stroke="#000" d="M5.49863882,14.9990679 L5.49863882,1.42515249 C5.49863882,0.364390213 6.34627404,-0.5 7.39619224,-0.5 C8.4475222,-0.5 9.30654522,0.365060667 9.30654522,1.42515249 L9.30654522,8.59739976 C9.62275187,8.40813447 9.99458465,8.29930669 10.3928923,8.29930669 C11.3696842,8.29930669 12.2017759,8.95226109 12.4371411,9.83891321 C12.7687636,9.62309774 13.1672561,9.49766674 13.5963856,9.49766674 C14.5229268,9.49766674 15.3133259,10.0818718 15.5931989,10.8969793 C15.8327664,10.7687518 16.10688,10.6960268 16.3978922,10.6960268 C17.3338791,10.6960268 18.0954523,11.4481132 18.0954523,12.3787874 L18.0954487,12.3768934 L18.1014521,13.9627346 L18.1014521,17.2018266 C18.1014521,17.45899 18.0788416,17.7210344 18.0348962,17.9890448 C17.8804952,18.9306924 17.5230199,19.8003644 16.8234169,21.1474064 C15.8127426,23.093397 15.6579335,23.4442918 15.6579335,24 L15.6579335,24.5 L6.66859982,24.5 L6.66859982,24 C6.66859982,23.5786103 6.19563371,22.8309976 4.81529743,20.9702918 C4.77572637,20.916944 4.77572637,20.916944 4.73613542,20.8635322 C4.25954481,20.2204113 3.97897576,19.8305154 3.71509077,19.4347338 C3.32594411,18.8510815 2.72477886,17.9332706 1.96848974,16.7703263 C1.95455156,16.7488931 1.95455156,16.7488931 1.94061413,16.727459 C1.45803808,15.9852984 0.942759518,15.1902097 0.428630429,14.3951327 C0.248691135,14.1168648 0.137397398,13.944607 -0.0679723281,13.6265707 C-0.221942375,13.3880215 -0.221942375,13.3880215 -0.266517693,13.3181807 C-0.757186346,12.4871638 -0.448495824,11.4208575 0.408016869,10.9372976 C1.25796465,10.4579954 2.33990048,10.7256484 2.79149833,11.4981494 L5.49863882,14.9990679 Z"/>
						</g>
					</g>
					<g id="Cursor-/-!default" transform="translate(875 249)">
						<g id="Cursor">
							<use fill="#000" filter="url(#filter-9)" xlink:href="#path-8"/>
							<path fill="#000" stroke="#FFF" d="M6.44805157,11.7871647 L9.16903318,18.6729326 C9.44237709,19.3483989 9.07500287,20.1136726 8.37968284,20.3933668 C7.68317947,20.6755944 6.8877013,20.3802565 6.61399912,19.7006158 L3.90605662,12.8478493 L1.42326646,15.8112636 L1.34552169,15.8859589 C0.444640548,16.5813536 -0.501889691,16.1215055 -0.499996898,14.983604 L-0.474330291,0.669279596 C-0.473259969,0.051426302 -0.447188468,-0.15148568 -0.202577288,-0.35941243 C0.196479729,-0.698622715 0.490703685,-0.521940513 0.936743625,-0.0608329699 L11.5978897,10.0958485 C12.390083,10.912736 12.0289467,11.9009082 10.8145819,12.0290342 L6.44805157,11.7871647 Z"/>
						</g>
					</g>
					<text id="State-Description" fill="#72777D" font-family="Lato-Regular, Lato" font-size="14" font-weight="normal">
						<tspan x="612" y="21.1">Normal</tspan> <tspan x="612" y="77.2">Hover</tspan> <tspan x="612" y="133.3">Active</tspan> <tspan x="612" y="189.4">Focus</tspan> <tspan x="612" y="245.5">Disabled</tspan>
					</text>
				</g>
			</g>
		</g>
	</g>
</svg>
