<?xml version="1.0" encoding="UTF-8"?>
<svg xmlns="http://www.w3.org/2000/svg" xmlns:xlink="http://www.w3.org/1999/xlink" width="449" height="336" viewBox="0 0 449 336">
	<title>
		button_groups_states
	</title>
	<defs>
		<path id="path-1" d="M321 168h56v32h-56z"/>
		<path id="path-2" d="M17.595 12.379a1.19 1.19 0 00-1.197-1.183 1.19 1.19 0 00-1.196 1.179v-.826c0-.857-.719-1.551-1.606-1.551-.886 0-1.592.694-1.592 1.55V10.35c0-.856-.728-1.55-1.611-1.55s-1.586.694-1.586 1.55V1.425C8.807.638 8.168 0 7.397 0c-.772 0-1.398.638-1.398 1.425v15.038l-3.603-4.659c-.346-.586-1.126-.779-1.742-.431-.617.348-.836 1.105-.49 1.691 0 0 2.817 4.369 3.967 6.093C5.281 20.882 7.17 23.01 7.17 24h7.989c0-1.672 2.443-4.283 2.443-6.798v-3.24l-.006-1.583z"/>
		<path id="path-4" d="M17.595 12.379a1.19 1.19 0 00-1.197-1.183 1.19 1.19 0 00-1.196 1.179v-.826c0-.857-.719-1.551-1.606-1.551-.886 0-1.592.694-1.592 1.55V10.35c0-.856-.728-1.55-1.611-1.55s-1.586.694-1.586 1.55V1.425C8.807.638 8.168 0 7.397 0c-.772 0-1.398.638-1.398 1.425v15.038l-3.603-4.659c-.346-.586-1.126-.779-1.742-.431-.617.348-.836 1.105-.49 1.691 0 0 2.817 4.369 3.967 6.093C5.281 20.882 7.17 23.01 7.17 24h7.989c0-1.672 2.443-4.283 2.443-6.798v-3.24l-.006-1.583z"/>
		<path id="path-6" d="M6.132 11.269l4.71.26c.72-.08.899-.568.397-1.085L.592.3C.09-.216.027-.049.026.671L0 14.984c-.001.72.467.947 1.04.505l2.742-3.272c.095-.074.208-.146.327-.218l2.97 7.517c.165.41.664.595 1.113.413.449-.18.68-.66.514-1.07l-2.972-7.518.398-.073z"/>
		<filter id="filter-3" width="173.9%" height="154.2%" x="-36.9%" y="-18.8%" filterUnits="objectBoundingBox">
			<feMorphology in="SourceAlpha" operator="dilate" radius="1" result="shadowSpreadOuter1"/>
			<feOffset dy="1" in="shadowSpreadOuter1" result="shadowOffsetOuter1"/>
			<feGaussianBlur in="shadowOffsetOuter1" result="shadowBlurOuter1" stdDeviation=".5"/>
			<feComposite in="shadowBlurOuter1" in2="SourceAlpha" operator="out" result="shadowBlurOuter1"/>
			<feColorMatrix in="shadowBlurOuter1" result="shadowMatrixOuter1" values="0 0 0 0 0 0 0 0 0 0 0 0 0 0 0 0 0 0 0.582908741 0"/>
			<feMorphology in="SourceAlpha" operator="dilate" radius="1" result="shadowSpreadOuter2"/>
			<feOffset dy="2" in="shadowSpreadOuter2" result="shadowOffsetOuter2"/>
			<feGaussianBlur in="shadowOffsetOuter2" result="shadowBlurOuter2" stdDeviation="1.5"/>
			<feComposite in="shadowBlurOuter2" in2="SourceAlpha" operator="out" result="shadowBlurOuter2"/>
			<feColorMatrix in="shadowBlurOuter2" result="shadowMatrixOuter2" values="0 0 0 0 0 0 0 0 0 0 0 0 0 0 0 0 0 0 0.25 0"/>
			<feMerge>
				<feMergeNode in="shadowMatrixOuter1"/>
				<feMergeNode in="shadowMatrixOuter2"/>
			</feMerge>
		</filter>
		<filter id="filter-5" width="173.9%" height="154.2%" x="-36.9%" y="-18.8%" filterUnits="objectBoundingBox">
			<feMorphology in="SourceAlpha" operator="dilate" radius="1" result="shadowSpreadOuter1"/>
			<feOffset dy="1" in="shadowSpreadOuter1" result="shadowOffsetOuter1"/>
			<feGaussianBlur in="shadowOffsetOuter1" result="shadowBlurOuter1" stdDeviation=".5"/>
			<feComposite in="shadowBlurOuter1" in2="SourceAlpha" operator="out" result="shadowBlurOuter1"/>
			<feColorMatrix in="shadowBlurOuter1" result="shadowMatrixOuter1" values="0 0 0 0 0 0 0 0 0 0 0 0 0 0 0 0 0 0 0.582908741 0"/>
			<feMorphology in="SourceAlpha" operator="dilate" radius="1" result="shadowSpreadOuter2"/>
			<feOffset dy="2" in="shadowSpreadOuter2" result="shadowOffsetOuter2"/>
			<feGaussianBlur in="shadowOffsetOuter2" result="shadowBlurOuter2" stdDeviation="1.5"/>
			<feComposite in="shadowBlurOuter2" in2="SourceAlpha" operator="out" result="shadowBlurOuter2"/>
			<feColorMatrix in="shadowBlurOuter2" result="shadowMatrixOuter2" values="0 0 0 0 0 0 0 0 0 0 0 0 0 0 0 0 0 0 0.25 0"/>
			<feMerge>
				<feMergeNode in="shadowMatrixOuter1"/>
				<feMergeNode in="shadowMatrixOuter2"/>
			</feMerge>
		</filter>
		<filter id="filter-7" width="212.4%" height="164.2%" x="-56%" y="-21.7%" filterUnits="objectBoundingBox">
			<feMorphology in="SourceAlpha" operator="dilate" radius="1" result="shadowSpreadOuter1"/>
			<feOffset dy="1" in="shadowSpreadOuter1" result="shadowOffsetOuter1"/>
			<feGaussianBlur in="shadowOffsetOuter1" result="shadowBlurOuter1" stdDeviation=".5"/>
			<feComposite in="shadowBlurOuter1" in2="SourceAlpha" operator="out" result="shadowBlurOuter1"/>
			<feColorMatrix in="shadowBlurOuter1" result="shadowMatrixOuter1" values="0 0 0 0 0 0 0 0 0 0 0 0 0 0 0 0 0 0 0.582908741 0"/>
			<feMorphology in="SourceAlpha" operator="dilate" radius="1" result="shadowSpreadOuter2"/>
			<feOffset dy="2" in="shadowSpreadOuter2" result="shadowOffsetOuter2"/>
			<feGaussianBlur in="shadowOffsetOuter2" result="shadowBlurOuter2" stdDeviation="1.5"/>
			<feComposite in="shadowBlurOuter2" in2="SourceAlpha" operator="out" result="shadowBlurOuter2"/>
			<feColorMatrix in="shadowBlurOuter2" result="shadowMatrixOuter2" values="0 0 0 0 0 0 0 0 0 0 0 0 0 0 0 0 0 0 0.25 0"/>
			<feMerge>
				<feMergeNode in="shadowMatrixOuter1"/>
				<feMergeNode in="shadowMatrixOuter2"/>
			</feMerge>
		</filter>
	</defs>
	<g id="Artboard-page" fill="none" fill-rule="evenodd" stroke="none" stroke-width="1">
		<g id="WikimediaUI-components_overview" transform="translate(-3360 -255)">
			<path fill="#FFF" d="M0 0h14720v3264H0z"/>
			<g id="BUTTON-GROUP" transform="translate(3360 143)">
				<g id="Button-Group-X" transform="translate(0 113)">
					<g id=":disabled" transform="translate(192 279.5)">
						<g id="Button-/-:disabled" transform="translate(0 1.5)">
							<rect id="bg" width="255" height="31" x=".5" y=".5" fill="#C8CCD1" fill-rule="evenodd" stroke="#C8CCD1" stroke-width="1" rx="2"/>
						</g>
						<text id="Other" fill="#FFF" font-family="HelveticaNeue-Bold, Helvetica Neue, sans-serif" font-size="16" font-weight="bold">
							<tspan x="75" y="24.5">Other</tspan>
						</text>
						<text id="Pages" fill="#FFF" font-family="HelveticaNeue-Bold, Helvetica Neue, sans-serif" font-size="16" font-weight="bold">
							<tspan x="196" y="24.5">Pages</tspan>
						</text>
						<text id="More" fill="#FFF" font-family="HelveticaNeue-Bold, Helvetica Neue, sans-serif" font-size="16" font-weight="bold">
							<tspan x="13" y="24.5">More</tspan>
						</text>
						<path id="Path-114" stroke="#FFF" stroke-linecap="square" d="M63.5 1v33m66-33.5v33"/>
						<path id="Path-115" stroke="#FFF" stroke-linecap="square" d="M184.5 1.115v33"/>
					</g>
					<rect id="button-frame" width="255" height="31" x="192.5" y=".5" fill="#F8F9FA" stroke="#A2A9B1" rx="2"/>
					<text id="Talk" fill="#FFF" font-family="HelveticaNeue-Bold, Helvetica Neue, sans-serif" font-size="16" font-weight="bold">
						<tspan x="333" y="304">Talk</tspan>
					</text>
					<text id="More" fill="#202122" font-family="HelveticaNeue-Bold, Helvetica Neue, sans-serif" font-size="16" font-weight="bold">
						<tspan x="204.296" y="21">More</tspan>
					</text>
					<rect id="Combined-Shape" width="255" height="31" x="192.5" y="112.5" fill="#F8F9FA" stroke="#A2A9B1" rx="2"/>
					<rect id="button-frame" width="255" height="31" x="192.5" y="224.5" fill="#F8F9FA" stroke="#A2A9B1" rx="2"/>
					<path id="Separator" stroke="#C8CCD1" stroke-linecap="square" d="M268 56v32"/>
					<text id="Pages-3-Copy" fill="#202122" font-family="HelveticaNeue-Bold, Helvetica Neue, sans-serif" font-size="16" font-weight="bold">
						<tspan x="388.296" y="21">Pages</tspan>
					</text>
					<text id="Other" fill="#202122" font-family="HelveticaNeue-Bold, Helvetica Neue, sans-serif" font-size="16" font-weight="bold">
						<tspan x="267.012" y="21">Other</tspan>
					</text>
					<text id="Talk-Copy" fill="#202122" font-family="HelveticaNeue-Bold, Helvetica Neue, sans-serif" font-size="16" font-weight="bold">
						<tspan x="333.252" y="21">Talk</tspan>
					</text>
					<rect id="Mediawiki.Neutral.Normal-copy-14" width="255" height="31" x="192.5" y="56.5" fill="#F8F9FA" stroke="#A2A9B1" rx="2"/>
					<text id="More" fill="#202122" font-family="HelveticaNeue-Bold, Helvetica Neue, sans-serif" font-size="16" font-weight="bold">
						<tspan x="204.796" y="77">More</tspan>
					</text>
					<text id="Pages-7" fill="#202122" font-family="HelveticaNeue-Bold, Helvetica Neue, sans-serif" font-size="16" font-weight="bold">
						<tspan x="388.296" y="77">Pages</tspan>
					</text>
					<text id="Other-7" fill="#202122" font-family="HelveticaNeue-Bold, Helvetica Neue, sans-serif" font-size="16" font-weight="bold">
						<tspan x="267.012" y="77">Other</tspan>
					</text>
					<text id="More" fill="#202122" font-family="HelveticaNeue-Bold, Helvetica Neue, sans-serif" font-size="16" font-weight="bold">
						<tspan x="204.296" y="133">More</tspan>
					</text>
					<text id="More" fill="#202122" font-family="HelveticaNeue-Bold, Helvetica Neue, sans-serif" font-size="16" font-weight="bold">
						<tspan x="204.296" y="245">More</tspan>
					</text>
					<text id="Pages-8" fill="#202122" font-family="HelveticaNeue-Bold, Helvetica Neue, sans-serif" font-size="16" font-weight="bold">
						<tspan x="388.296" y="133">Pages</tspan>
					</text>
					<text id="Pages-8-Copy" fill="#202122" font-family="HelveticaNeue-Bold, Helvetica Neue, sans-serif" font-size="16" font-weight="bold">
						<tspan x="388.296" y="245">Pages</tspan>
					</text>
					<text id="Other-8" fill="#202122" font-family="HelveticaNeue-Bold, Helvetica Neue, sans-serif" font-size="16" font-weight="bold">
						<tspan x="267.012" y="133">Other</tspan>
					</text>
					<text id="Other-8-Copy" fill="#202122" font-family="HelveticaNeue-Bold, Helvetica Neue, sans-serif" font-size="16" font-weight="bold">
						<tspan x="267.012" y="245">Other</tspan>
					</text>
					<path id="Mediawiki.Progressive.Hover-7" fill="#FFF" stroke="#A2A9B1" d="M321.5 56.5h55v31h-55z"/>
					<path id="Mediawiki.Progressive.Hover-8" fill="#EAECF0" stroke="#72777D" d="M321.5 112.5h55v31h-55z"/>
					<path id="Mediawiki.Progressive.Hover-8-Copy" fill="#2A4B8D" stroke="#2A4B8D" d="M321.5 224.5h55v31h-55z"/>
					<text id="Talk" fill="#202122" font-family="HelveticaNeue-Bold, Helvetica Neue, sans-serif" font-size="16" font-weight="bold">
						<tspan x="333.252" y="77">Talk</tspan>
					</text>
					<text id="Talk-6" fill="#000" font-family="HelveticaNeue-Bold, Helvetica Neue, sans-serif" font-size="16" font-weight="bold">
						<tspan x="333" y="134">Talk</tspan>
					</text>
					<text id="Talk-6-Copy" fill="#FFF" font-family="HelveticaNeue-Bold, Helvetica Neue, sans-serif" font-size="16" font-weight="bold">
						<tspan x="333" y="247">Talk</tspan>
					</text>
					<rect id="Mediawiki.Neutral.Normal-copy-16" width="255" height="31" x="192.5" y="168.5" fill="#F8F9FA" stroke="#A2A9B1" rx="2"/>
					<g id="Mediawiki.Progressive.Hover-8" stroke="#36C" stroke-linejoin="square">
						<path stroke-width="2" d="M322 169h54v30h-54z"/>
						<path d="M321.5 168.5h55v31h-55z"/>
					</g>
					<text id="More" fill="#202122" font-family="HelveticaNeue-Bold, Helvetica Neue, sans-serif" font-size="16" font-weight="bold">
						<tspan x="204.296" y="189">More</tspan>
					</text>
					<text id="Pages-9" fill="#202122" font-family="HelveticaNeue-Bold, Helvetica Neue, sans-serif" font-size="16" font-weight="bold">
						<tspan x="388.296" y="189">Pages</tspan>
					</text>
					<text id="Other-9" fill="#202122" font-family="HelveticaNeue-Bold, Helvetica Neue, sans-serif" font-size="16" font-weight="bold">
						<tspan x="267.012" y="189">Other</tspan>
					</text>
					<text id="Talk-7" fill="#202122" font-family="HelveticaNeue-Bold, Helvetica Neue, sans-serif" font-size="16" font-weight="bold">
						<tspan x="333.252" y="189">Talk</tspan>
					</text>
					<g id="Cursor-/-Pointer" transform="translate(363 132)">
						<g id="Cursor-Pointer">
							<use fill="#000" filter="url(#filter-3)" xlink:href="#path-2"/>
							<path fill="#FFF" stroke="#000" d="M12.439 9.845a2.038 2.038 0 00-.561-.95 2.138 2.138 0 00-2.571-.298V1.425A1.925 1.925 0 007.397-.5c-.526 0-1.002.216-1.346.567-.34.348-.552.828-.552 1.358V15l-2.69-3.478a1.729 1.729 0 00-1.063-.768 1.83 1.83 0 00-1.338.184 1.778 1.778 0 00-.84 1.053c-.126.435-.08.912.176 1.345 0 0 2.82 4.373 3.971 6.1.345.517.755 1.07 1.161 1.617.868 1.17 1.793 2.306 1.793 2.948 0 .144-.047.312-.128.5h9.221c-.352-.755.25-1.803.875-2.996.704-1.343 1.464-2.841 1.464-4.302v-3.24l-.006-1.585c0-.464-.19-.885-.499-1.19a1.7 1.7 0 00-1.198-.491 1.7 1.7 0 00-.805.201 2.043 2.043 0 00-.514-.805 2.127 2.127 0 00-1.483-.594c-.43 0-.826.124-1.157.347z"/>
						</g>
					</g>
					<g id="Cursor-/-Pointer" transform="translate(363 76)">
						<g id="Cursor-Pointer">
							<use fill="#000" filter="url(#filter-5)" xlink:href="#path-4"/>
							<path fill="#FFF" stroke="#000" d="M12.439 9.845a2.038 2.038 0 00-.561-.95 2.138 2.138 0 00-2.571-.298V1.425A1.925 1.925 0 007.397-.5c-.526 0-1.002.216-1.346.567-.34.348-.552.828-.552 1.358V15l-2.69-3.478a1.729 1.729 0 00-1.063-.768 1.83 1.83 0 00-1.338.184 1.778 1.778 0 00-.84 1.053c-.126.435-.08.912.176 1.345 0 0 2.82 4.373 3.971 6.1.345.517.755 1.07 1.161 1.617.868 1.17 1.793 2.306 1.793 2.948 0 .144-.047.312-.128.5h9.221c-.352-.755.25-1.803.875-2.996.704-1.343 1.464-2.841 1.464-4.302v-3.24l-.006-1.585c0-.464-.19-.885-.499-1.19a1.7 1.7 0 00-1.198-.491 1.7 1.7 0 00-.805.201 2.043 2.043 0 00-.514-.805 2.127 2.127 0 00-1.483-.594c-.43 0-.826.124-1.157.347z"/>
						</g>
					</g>
					<g id="Cursor-/-!default" transform="translate(368 306)">
						<g id="Cursor" fill="#000">
							<use filter="url(#filter-7)" xlink:href="#path-6"/>
							<path stroke="#FFF" d="M3.936 12.924L6.614 19.7c.137.34.408.59.741.713.31.116.677.12 1.025-.02.346-.14.606-.398.75-.697a1.26 1.26 0 00.039-1.024l-2.72-6.886 4.404.244a1.63 1.63 0 00.67-.195.977.977 0 00.445-.514.97.97 0 00-.011-.68 1.584 1.584 0 00-.366-.554L.943-.055C.7-.303.478-.353-.217.204c-.07.246-.131.76-.17 1.734-.078 1.911-.1 5.713.008 13.687a.971.971 0 00.465.498.98.98 0 00.678.06c.191-.048.405-.153.627-.333l2.545-2.926z"/>
						</g>
					</g>
					<g id="State-labels" fill="#72777D" font-family="Lato-Regular, Lato, sans-serif" font-size="14" font-weight="normal" transform="translate(0 8)">
						<text id="Disabled">
							<tspan x="0" y="295">Disabled</tspan>
						</text>
						<text id="Focus">
							<tspan x="0" y="182">Focus</tspan>
						</text>
						<text id="Selected">
							<tspan x="0" y="238">Selected</tspan>
						</text>
						<text id="Active">
							<tspan x="0" y="126">Active</tspan>
						</text>
						<text id="Hover">
							<tspan x="0" y="70">Hover</tspan>
						</text>
						<text id="Normal">
							<tspan x="0" y="14">Normal</tspan>
						</text>
					</g>
					<path id="Line" stroke="#A2A9B1" stroke-linecap="square" d="M255.5.5v31"/>
					<path id="Line-Copy-16" stroke="#A2A9B1" d="M255.5 56.5v30"/>
					<path id="Separator" stroke="#A2A9B1" stroke-linecap="square" d="M255.5 112.5v31.015"/>
					<path id="Line" stroke="#A2A9B1" stroke-linecap="square" d="M255.5 225.5v30"/>
					<path id="Line-Copy-21" stroke="#A2A9B1" stroke-linecap="square" d="M255.5 168.5v30"/>
					<path id="Line-Copy" stroke="#A2A9B1" stroke-linecap="square" d="M321.5.5v31"/>
					<path id="Line-Copy-13" stroke="#A2A9B1" stroke-linecap="square" d="M376.5.5v31"/>
				</g>
			</g>
		</g>
	</g>
</svg>
