<?xml version="1.0" encoding="UTF-8">
<svg xmlns="http://www.w3.org/2000/svg" xmlns:xlink="http://www.w3.org/1999/xlink" width="630" height="683" viewBox="0 0 630 683">
    <defs>
        <rect id="a" width="24" height="24" rx="2"/>
        <rect id="b" width="24" height="24" rx="2"/>
        <rect id="c" width="24" height="24" rx="2"/>
        <rect id="d" width="24" height="24" rx="2"/>
        <rect id="e" width="24" height="24" rx="2"/>
        <rect id="f" width="24" height="24" rx="2"/>
        <rect id="g" width="24" height="24" rx="2"/>
        <rect id="h" width="24" height="24" y="4" rx="2"/>
        <rect id="i" width="24" height="24" y="4" rx="2"/>
        <rect id="j" width="24" height="24" rx="2"/>
        <rect id="k" width="24" height="24" rx="2"/>
        <rect id="l" width="24" height="24" rx="2"/>
        <path id="n" d="M17.595 12.379a1.19 1.19 0 0 0-1.197-1.183 1.19 1.19 0 0 0-1.196 1.179v-.826c0-.857-.719-1.551-1.606-1.551-.886 0-1.592.694-1.592 1.55V10.35c0-.856-.728-1.55-1.611-1.55s-1.586.694-1.586 1.55V1.425C8.807.638 8.168 0 7.397 0c-.772 0-1.398.638-1.398 1.425v15.038l-3.603-4.659c-.346-.586-1.126-.779-1.742-.431-.617.348-.836 1.105-.49 1.691 0 0 2.817 4.369 3.967 6.093C5.281 20.882 7.17 23.01 7.17 24h7.989c0-1.672 2.443-4.283 2.443-6.798v-3.24l-.006-1.583z"/>
        <filter id="m" width="185.2%" height="162.5%" x="-42.6%" y="-18.8%" filterUnits="objectBoundingBox">
            <feMorphology in="SourceAlpha" operator="dilate" radius="1" result="shadowSpreadOuter1"/>
            <feOffset dy="1" in="shadowSpreadOuter1" result="shadowOffsetOuter1"/>
            <feGaussianBlur in="shadowOffsetOuter1" result="shadowBlurOuter1" stdDeviation=".5"/>
            <feComposite in="shadowBlurOuter1" in2="SourceAlpha" operator="out" result="shadowBlurOuter1"/>
            <feColorMatrix in="shadowBlurOuter1" result="shadowMatrixOuter1" values="0 0 0 0 0 0 0 0 0 0 0 0 0 0 0 0 0 0 0.582908741 0"/>
            <feMorphology in="SourceAlpha" operator="dilate" radius="1" result="shadowSpreadOuter2"/>
            <feOffset dy="2" in="shadowSpreadOuter2" result="shadowOffsetOuter2"/>
            <feGaussianBlur in="shadowOffsetOuter2" result="shadowBlurOuter2" stdDeviation="1.5"/>
            <feComposite in="shadowBlurOuter2" in2="SourceAlpha" operator="out" result="shadowBlurOuter2"/>
            <feColorMatrix in="shadowBlurOuter2" result="shadowMatrixOuter2" values="0 0 0 0 0 0 0 0 0 0 0 0 0 0 0 0 0 0 0.179347826 0"/>
            <feMerge>
                <feMergeNode in="shadowMatrixOuter1"/>
                <feMergeNode in="shadowMatrixOuter2"/>
            </feMerge>
        </filter>
        <path id="p" d="M17.595 12.379a1.19 1.19 0 0 0-1.197-1.183 1.19 1.19 0 0 0-1.196 1.179v-.826c0-.857-.719-1.551-1.606-1.551-.886 0-1.592.694-1.592 1.55V10.35c0-.856-.728-1.55-1.611-1.55s-1.586.694-1.586 1.55V1.425C8.807.638 8.168 0 7.397 0c-.772 0-1.398.638-1.398 1.425v15.038l-3.603-4.659c-.346-.586-1.126-.779-1.742-.431-.617.348-.836 1.105-.49 1.691 0 0 2.817 4.369 3.967 6.093C5.281 20.882 7.17 23.01 7.17 24h7.989c0-1.672 2.443-4.283 2.443-6.798v-3.24l-.006-1.583z"/>
        <filter id="o" width="185.2%" height="162.5%" x="-42.6%" y="-18.8%" filterUnits="objectBoundingBox">
            <feMorphology in="SourceAlpha" operator="dilate" radius="1" result="shadowSpreadOuter1"/>
            <feOffset dy="1" in="shadowSpreadOuter1" result="shadowOffsetOuter1"/>
            <feGaussianBlur in="shadowOffsetOuter1" result="shadowBlurOuter1" stdDeviation=".5"/>
            <feComposite in="shadowBlurOuter1" in2="SourceAlpha" operator="out" result="shadowBlurOuter1"/>
            <feColorMatrix in="shadowBlurOuter1" result="shadowMatrixOuter1" values="0 0 0 0 0 0 0 0 0 0 0 0 0 0 0 0 0 0 0.582908741 0"/>
            <feMorphology in="SourceAlpha" operator="dilate" radius="1" result="shadowSpreadOuter2"/>
            <feOffset dy="2" in="shadowSpreadOuter2" result="shadowOffsetOuter2"/>
            <feGaussianBlur in="shadowOffsetOuter2" result="shadowBlurOuter2" stdDeviation="1.5"/>
            <feComposite in="shadowBlurOuter2" in2="SourceAlpha" operator="out" result="shadowBlurOuter2"/>
            <feColorMatrix in="shadowBlurOuter2" result="shadowMatrixOuter2" values="0 0 0 0 0 0 0 0 0 0 0 0 0 0 0 0 0 0 0.179347826 0"/>
            <feMerge>
                <feMergeNode in="shadowMatrixOuter1"/>
                <feMergeNode in="shadowMatrixOuter2"/>
            </feMerge>
        </filter>
        <path id="r" d="M6.132 11.269l4.71.26c.72-.08.899-.568.397-1.085L.592.3C.09-.216.027-.049.026.671L0 14.984c-.001.72.467.947 1.04.505l2.742-3.272c.095-.074.208-.146.327-.218l2.97 7.517c.165.41.664.595 1.113.413.449-.18.68-.66.514-1.07l-2.972-7.518.398-.073z"/>
        <filter id="q" width="230.2%" height="175%" x="-65.1%" y="-22.5%" filterUnits="objectBoundingBox">
            <feMorphology in="SourceAlpha" operator="dilate" radius="1" result="shadowSpreadOuter1"/>
            <feOffset dy="1" in="shadowSpreadOuter1" result="shadowOffsetOuter1"/>
            <feGaussianBlur in="shadowOffsetOuter1" result="shadowBlurOuter1" stdDeviation=".5"/>
            <feComposite in="shadowBlurOuter1" in2="SourceAlpha" operator="out" result="shadowBlurOuter1"/>
            <feColorMatrix in="shadowBlurOuter1" result="shadowMatrixOuter1" values="0 0 0 0 0 0 0 0 0 0 0 0 0 0 0 0 0 0 0.582908741 0"/>
            <feMorphology in="SourceAlpha" operator="dilate" radius="1" result="shadowSpreadOuter2"/>
            <feOffset dy="2" in="shadowSpreadOuter2" result="shadowOffsetOuter2"/>
            <feGaussianBlur in="shadowOffsetOuter2" result="shadowBlurOuter2" stdDeviation="1.5"/>
            <feComposite in="shadowBlurOuter2" in2="SourceAlpha" operator="out" result="shadowBlurOuter2"/>
            <feColorMatrix in="shadowBlurOuter2" result="shadowMatrixOuter2" values="0 0 0 0 0 0 0 0 0 0 0 0 0 0 0 0 0 0 0.179347826 0"/>
            <feMerge>
                <feMergeNode in="shadowMatrixOuter1"/>
                <feMergeNode in="shadowMatrixOuter2"/>
            </feMerge>
        </filter>
        <path id="t" d="M17.595 12.379a1.19 1.19 0 0 0-1.197-1.183 1.19 1.19 0 0 0-1.196 1.179v-.826c0-.857-.719-1.551-1.606-1.551-.886 0-1.592.694-1.592 1.55V10.35c0-.856-.728-1.55-1.611-1.55s-1.586.694-1.586 1.55V1.425C8.807.638 8.168 0 7.397 0c-.772 0-1.398.638-1.398 1.425v15.038l-3.603-4.659c-.346-.586-1.126-.779-1.742-.431-.617.348-.836 1.105-.49 1.691 0 0 2.817 4.369 3.967 6.093C5.281 20.882 7.17 23.01 7.17 24h7.989c0-1.672 2.443-4.283 2.443-6.798v-3.24l-.006-1.583z"/>
        <filter id="s" width="185.2%" height="162.5%" x="-42.6%" y="-18.8%" filterUnits="objectBoundingBox">
            <feMorphology in="SourceAlpha" operator="dilate" radius="1" result="shadowSpreadOuter1"/>
            <feOffset dy="1" in="shadowSpreadOuter1" result="shadowOffsetOuter1"/>
            <feGaussianBlur in="shadowOffsetOuter1" result="shadowBlurOuter1" stdDeviation=".5"/>
            <feComposite in="shadowBlurOuter1" in2="SourceAlpha" operator="out" result="shadowBlurOuter1"/>
            <feColorMatrix in="shadowBlurOuter1" result="shadowMatrixOuter1" values="0 0 0 0 0 0 0 0 0 0 0 0 0 0 0 0 0 0 0.582908741 0"/>
            <feMorphology in="SourceAlpha" operator="dilate" radius="1" result="shadowSpreadOuter2"/>
            <feOffset dy="2" in="shadowSpreadOuter2" result="shadowOffsetOuter2"/>
            <feGaussianBlur in="shadowOffsetOuter2" result="shadowBlurOuter2" stdDeviation="1.5"/>
            <feComposite in="shadowBlurOuter2" in2="SourceAlpha" operator="out" result="shadowBlurOuter2"/>
            <feColorMatrix in="shadowBlurOuter2" result="shadowMatrixOuter2" values="0 0 0 0 0 0 0 0 0 0 0 0 0 0 0 0 0 0 0.179347826 0"/>
            <feMerge>
                <feMergeNode in="shadowMatrixOuter1"/>
                <feMergeNode in="shadowMatrixOuter2"/>
            </feMerge>
        </filter>
        <path id="v" d="M17.595 12.379a1.19 1.19 0 0 0-1.197-1.183 1.19 1.19 0 0 0-1.196 1.179v-.826c0-.857-.719-1.551-1.606-1.551-.886 0-1.592.694-1.592 1.55V10.35c0-.856-.728-1.55-1.611-1.55s-1.586.694-1.586 1.55V1.425C8.807.638 8.168 0 7.397 0c-.772 0-1.398.638-1.398 1.425v15.038l-3.603-4.659c-.346-.586-1.126-.779-1.742-.431-.617.348-.836 1.105-.49 1.691 0 0 2.817 4.369 3.967 6.093C5.281 20.882 7.17 23.01 7.17 24h7.989c0-1.672 2.443-4.283 2.443-6.798v-3.24l-.006-1.583z"/>
        <filter id="u" width="185.2%" height="162.5%" x="-42.6%" y="-18.8%" filterUnits="objectBoundingBox">
            <feMorphology in="SourceAlpha" operator="dilate" radius="1" result="shadowSpreadOuter1"/>
            <feOffset dy="1" in="shadowSpreadOuter1" result="shadowOffsetOuter1"/>
            <feGaussianBlur in="shadowOffsetOuter1" result="shadowBlurOuter1" stdDeviation=".5"/>
            <feComposite in="shadowBlurOuter1" in2="SourceAlpha" operator="out" result="shadowBlurOuter1"/>
            <feColorMatrix in="shadowBlurOuter1" result="shadowMatrixOuter1" values="0 0 0 0 0 0 0 0 0 0 0 0 0 0 0 0 0 0 0.582908741 0"/>
            <feMorphology in="SourceAlpha" operator="dilate" radius="1" result="shadowSpreadOuter2"/>
            <feOffset dy="2" in="shadowSpreadOuter2" result="shadowOffsetOuter2"/>
            <feGaussianBlur in="shadowOffsetOuter2" result="shadowBlurOuter2" stdDeviation="1.5"/>
            <feComposite in="shadowBlurOuter2" in2="SourceAlpha" operator="out" result="shadowBlurOuter2"/>
            <feColorMatrix in="shadowBlurOuter2" result="shadowMatrixOuter2" values="0 0 0 0 0 0 0 0 0 0 0 0 0 0 0 0 0 0 0.179347826 0"/>
            <feMerge>
                <feMergeNode in="shadowMatrixOuter1"/>
                <feMergeNode in="shadowMatrixOuter2"/>
            </feMerge>
        </filter>
        <path id="x" d="M6.132 11.269l4.71.26c.72-.08.899-.568.397-1.085L.592.3C.09-.216.027-.049.026.671L0 14.984c-.001.72.467.947 1.04.505l2.742-3.272c.095-.074.208-.146.327-.218l2.97 7.517c.165.41.664.595 1.113.413.449-.18.68-.66.514-1.07l-2.972-7.518.398-.073z"/>
        <filter id="w" width="230.2%" height="175%" x="-65.1%" y="-22.5%" filterUnits="objectBoundingBox">
            <feMorphology in="SourceAlpha" operator="dilate" radius="1" result="shadowSpreadOuter1"/>
            <feOffset dy="1" in="shadowSpreadOuter1" result="shadowOffsetOuter1"/>
            <feGaussianBlur in="shadowOffsetOuter1" result="shadowBlurOuter1" stdDeviation=".5"/>
            <feComposite in="shadowBlurOuter1" in2="SourceAlpha" operator="out" result="shadowBlurOuter1"/>
            <feColorMatrix in="shadowBlurOuter1" result="shadowMatrixOuter1" values="0 0 0 0 0 0 0 0 0 0 0 0 0 0 0 0 0 0 0.582908741 0"/>
            <feMorphology in="SourceAlpha" operator="dilate" radius="1" result="shadowSpreadOuter2"/>
            <feOffset dy="2" in="shadowSpreadOuter2" result="shadowOffsetOuter2"/>
            <feGaussianBlur in="shadowOffsetOuter2" result="shadowBlurOuter2" stdDeviation="1.5"/>
            <feComposite in="shadowBlurOuter2" in2="SourceAlpha" operator="out" result="shadowBlurOuter2"/>
            <feColorMatrix in="shadowBlurOuter2" result="shadowMatrixOuter2" values="0 0 0 0 0 0 0 0 0 0 0 0 0 0 0 0 0 0 0.179347826 0"/>
            <feMerge>
                <feMergeNode in="shadowMatrixOuter1"/>
                <feMergeNode in="shadowMatrixOuter2"/>
            </feMerge>
        </filter>
    </defs>
    <g fill="none" fill-rule="evenodd">
        <path stroke="#50E3C2" stroke-dasharray="1,3" stroke-linecap="square" d="M175 343.5h202m-202 209h202m-202-73h202M175 378h202"/>
        <text fill="#72777D" font-family="Lato-Regular, Lato" font-size="14" transform="translate(0 -32)">
            <tspan x="0" y="62">DISABLED</tspan> <tspan x="0" y="118.4"> NORMAL</tspan> <tspan x="0" y="174.8">:HOVER</tspan> <tspan x="0" y="231.2">:ACTIVE</tspan> <tspan x="0" y="287.6">:FOCUS</tspan>
        </text>
        <text fill="#222" font-family="HelveticaNeue, Helvetica Neue" font-size="16" transform="translate(194 387)">
            <tspan x="33" y="22">Option 2</tspan>
        </text>
        <g transform="translate(194 391)">
            <use fill="#FFF" xlink:href="#a"/>
            <rect width="25" height="25" x="-.5" y="-.5" stroke="#72777D" rx="2"/>
        </g>
        <g stroke-linecap="square">
            <path stroke="#D0011B" d="M180.5 32.5v-15m1 15v-15m1 15v-15m1 15v-15"/>
            <path stroke="#F6A623" d="M180.5 16.5v-3m1 3v-3m1 3v-3m1 3v-3m-3 23v-3m1 3v-3m1 3v-3m1 3v-3"/>
        </g>
        <text fill="#222" font-family="HelveticaNeue, Helvetica Neue" font-size="16" transform="translate(194 345)">
            <tspan x="33" y="22">Option 1</tspan>
        </text>
        <g transform="translate(194 349)">
            <use fill="#FFF" xlink:href="#b"/>
            <rect width="25" height="25" x="-.5" y="-.5" stroke="#72777D" rx="2"/>
        </g>
        <path stroke="#50E3C2" stroke-linecap="square" d="M219.5 360.5h7m-7-1h7m-7 3h7m-7-1h7m-7 41h7m-7-1h7m-7 3h7m-7-1h7"/>
        <text fill="#7D8389" font-family="HelveticaNeue, Helvetica Neue" font-size="16" transform="translate(482 9)">
            <tspan x="33" y="22">Neutral point</tspan>
        </text>
        <g transform="translate(482 13)">
            <use fill="#C8CCD1" xlink:href="#c"/>
            <rect width="25" height="25" x="-.5" y="-.5" stroke="#C8CCD1" rx="2"/>
        </g>
        <path fill="#FFF" d="M499.35 20.089l-7.01 6.997-3.385-3.368-1.622 1.619 5.007 4.996 9.66-9.64-.584-.604a1.474 1.474 0 0 0-2.065 0z"/>
        <text fill="#222" font-family="HelveticaNeue, Helvetica Neue" font-size="16" transform="translate(482 121)">
            <tspan x="32" y="22">Neutral point</tspan>
        </text>
        <g transform="translate(482 125)">
            <use fill="#447FF5" xlink:href="#d"/>
            <rect width="25" height="25" x="-.5" y="-.5" stroke="#447FF5" rx="2"/>
        </g>
        <path fill="#FFF" d="M499.35 132.089l-7.01 6.997-3.385-3.368-1.622 1.619 5.007 4.996 9.66-9.64-.584-.604a1.474 1.474 0 0 0-2.065 0z"/>
        <text fill="#222" font-family="HelveticaNeue, Helvetica Neue" font-size="16" transform="translate(482 177)">
            <tspan x="33" y="22">Neutral point</tspan>
        </text>
        <g transform="translate(482 181)">
            <use fill="#1F4999" xlink:href="#e"/>
            <rect width="25" height="25" x="-.5" y="-.5" stroke="#1F4999" rx="2"/>
        </g>
        <path fill="#FFF" d="M501.416 188.089a1.474 1.474 0 0 0-2.065 0l-7.011 6.997-3.385-3.368-1.622 1.619 5.007 4.996 9.66-9.64-.584-.604"/>
        <text fill="#222" font-family="HelveticaNeue, Helvetica Neue" font-size="16" transform="translate(482 233)">
            <tspan x="33" y="22">Neutral point</tspan>
        </text>
        <g transform="translate(482 237)">
            <use fill="#36C" xlink:href="#f"/>
            <rect width="22" height="22" x="1" y="1" stroke="#FFF" stroke-width="2" rx="2"/>
            <rect width="25" height="25" x="-.5" y="-.5" stroke="#36C" rx="2"/>
            <rect width="23" height="23" x=".5" y=".5" stroke="#36C" rx="2"/>
        </g>
        <path fill="#FFF" d="M499.35 244.756l-7.01 6.997-3.385-3.368-1.622 1.618L492.34 255l9.66-9.641-.584-.603a1.474 1.474 0 0 0-2.065 0z"/>
        <text fill="#222" font-family="HelveticaNeue, Helvetica Neue" font-size="16" transform="translate(482 64)">
            <tspan x="33" y="23">Neutral point</tspan>
        </text>
        <g transform="translate(482 69)">
            <use fill="#36C" xlink:href="#g"/>
            <rect width="25" height="25" x="-.5" y="-.5" stroke="#36C" rx="2"/>
        </g>
        <path fill="#FFF" d="M501.416 76.089a1.474 1.474 0 0 0-2.065 0l-7.011 6.997-3.385-3.368-1.622 1.619 5.007 4.996 9.66-9.64-.584-.604"/>
        <text fill="#7D8389" font-family="HelveticaNeue, Helvetica Neue" font-size="16" transform="translate(194 9)">
            <tspan x="33" y="22">Neutral point</tspan>
        </text>
        <g transform="translate(194 9)">
            <use fill="#C8CCD1" xlink:href="#h"/>
            <rect width="25" height="25" x="-.5" y="3.5" stroke="#C8CCD1" rx="2"/>
        </g>
        <text fill="#222" font-family="HelveticaNeue, Helvetica Neue" font-size="16" transform="translate(194 177)">
            <tspan x="33" y="22">Neutral point</tspan>
        </text>
        <g transform="translate(194 177)">
            <use fill="#2A4B8D" xlink:href="#i"/>
            <rect width="25" height="25" x="-.5" y="3.5" stroke="#2A4B8D" rx="2"/>
            <rect width="23" height="23" x=".5" y="4.5" stroke="#2A4B8D" rx="2"/>
        </g>
        <g transform="translate(194 121)">
            <text fill="#222" font-family="HelveticaNeue, Helvetica Neue" font-size="16">
                <tspan x="32" y="22">Neutral point</tspan>
            </text>
            <rect width="25" height="25" x="-.5" y="3.5" stroke="#2962CC" rx="2"/>
        </g>
        <text fill="#222" font-family="HelveticaNeue, Helvetica Neue" font-size="16" transform="translate(194 233)">
            <tspan x="33" y="22">Neutral point</tspan>
        </text>
        <g stroke="#36C" transform="translate(194 233)">
            <rect width="23" height="23" x=".5" y="4.5" rx="2"/>
            <rect width="25" height="25" x="-.5" y="3.5" rx="2"/>
        </g>
        <text fill="#222" font-family="HelveticaNeue, Helvetica Neue" font-size="16" transform="translate(194 65)">
            <tspan x="33" y="22">Neutral point</tspan>
        </text>
        <g transform="translate(194 69)">
            <use fill="#FFF" xlink:href="#j"/>
            <rect width="25" height="25" x="-.5" y="-.5" stroke="#72777D" rx="2"/>
        </g>
        <text fill="#222" font-family="HelveticaNeue, Helvetica Neue" font-size="16" transform="translate(194 651)">
            <tspan x="33" y="22">Checkbox label</tspan>
        </text>
        <g transform="translate(194 655)">
            <use fill="#FFF" xlink:href="#k"/>
            <rect width="25" height="25" x="-.5" y="-.5" stroke="#72777D" rx="2"/>
        </g>
        <path style="mix-blend-mode:multiply" fill="#FFB60D" fill-opacity=".4" d="M193 651h32v32h-32z"/>
        <text fill="#222" font-family="HelveticaNeue, Helvetica Neue" font-size="16" transform="translate(195 481)">
            <tspan x="33" y="22">Neutral point</tspan>
        </text>
        <g transform="translate(195 485)">
            <use fill="#FFF" xlink:href="#l"/>
            <rect width="25" height="25" x="-.5" y="-.5" stroke="#72777D" rx="2"/>
        </g>
        <path fill="#FFF" d="M226 476h170v61H226z"/>
        <text fill="#222" font-family="HelveticaNeue, Helvetica Neue" font-size="14" transform="translate(194 476)">
            <tspan x="33" y="34">Option with a really long</tspan> <tspan x="33" y="54.392">label today</tspan>
        </text>
        <text fill="#222" font-family="HelveticaNeue, Helvetica Neue" font-size="16" transform="translate(194 476)">
            <tspan x="33" y="15">Option title</tspan>
        </text>
        <path stroke="#D0011B" stroke-width="4" d="M206 374v16m90 146v16"/>
        <path stroke="#979797" stroke-linecap="square" d="M377.5 343.5v35.014m3-35.014h-6m6 35.014h-6"/>
        <text fill="#D0011B" font-family="Lato-Regular, Lato" font-size="12" transform="translate(0 -32)">
            <tspan x="383" y="398">`vertical-align: middle` one-liner text</tspan>
        </text>
        <text fill="#D0011B" font-family="Lato-Regular, Lato" font-size="12" transform="translate(0 -32)">
            <tspan x="383" y="521">`vertical-align: top` 2 lines or more text</tspan>
        </text>
        <text fill="#D0011B" font-family="Lato-Regular, Lato" font-size="12" transform="translate(0 -32)">
            <tspan x="383" y="706">touch area features `width: 2em;` `height: 2em;`</tspan>
        </text>
        <g transform="translate(499 197)">
            <use fill="#000" filter="url(#m)" xlink:href="#n"/>
            <use fill="#FFF" xlink:href="#n"/>
            <path stroke="#000" d="M18.095 12.378a1.69 1.69 0 0 0-1.697-1.682 1.7 1.7 0 0 0-.805.201 2.102 2.102 0 0 0-1.997-1.4c-.429 0-.827.126-1.159.342-.235-.887-1.067-1.54-2.044-1.54-.398 0-.77.11-1.086.298V1.425c0-1.06-.86-1.925-1.91-1.925-1.05 0-1.898.864-1.898 1.925V15L2.79 11.5c-.451-.773-1.533-1.041-2.383-.562-.856.484-1.165 1.55-.675 2.381l.199.309a1248.604 1248.604 0 0 0 2.036 3.143 341.137 341.137 0 0 0 1.747 2.665c.264.396.545.785 1.021 1.429l.08.106c1.38 1.861 1.853 2.609 1.853 3.03v.5h8.989V24c0-.556.155-.907 1.165-2.853.7-1.347 1.057-2.216 1.212-3.158a4.86 4.86 0 0 0 .066-.787v-3.24l-.006-1.584z"/>
        </g>
        <g transform="translate(499 141)">
            <use fill="#000" filter="url(#o)" xlink:href="#p"/>
            <use fill="#FFF" xlink:href="#p"/>
            <path stroke="#000" d="M18.095 12.378a1.69 1.69 0 0 0-1.697-1.682 1.7 1.7 0 0 0-.805.201 2.102 2.102 0 0 0-1.997-1.4c-.429 0-.827.126-1.159.342-.235-.887-1.067-1.54-2.044-1.54-.398 0-.77.11-1.086.298V1.425c0-1.06-.86-1.925-1.91-1.925-1.05 0-1.898.864-1.898 1.925V15L2.79 11.5c-.451-.773-1.533-1.041-2.383-.562-.856.484-1.165 1.55-.675 2.381l.199.309a1248.604 1248.604 0 0 0 2.036 3.143 341.137 341.137 0 0 0 1.747 2.665c.264.396.545.785 1.021 1.429l.08.106c1.38 1.861 1.853 2.609 1.853 3.03v.5h8.989V24c0-.556.155-.907 1.165-2.853.7-1.347 1.057-2.216 1.212-3.158a4.86 4.86 0 0 0 .066-.787v-3.24l-.006-1.584z"/>
        </g>
        <g transform="translate(506 28)">
            <use fill="#000" filter="url(#q)" xlink:href="#r"/>
            <use fill="#000" xlink:href="#r"/>
            <path stroke="#FFF" d="M6.448 11.787l4.367.242c1.214-.128 1.575-1.116.783-1.933L.937-.061C.49-.52.197-.699-.203-.359c-.244.208-.27.41-.271 1.028L-.5 14.984c-.002 1.138.945 1.597 1.846.902l.077-.075 2.483-2.963L6.614 19.7c.274.68 1.07.975 1.766.692.695-.28 1.062-1.045.789-1.72l-2.72-6.886z"/>
        </g>
        <g transform="translate(211 141)">
            <use fill="#000" filter="url(#s)" xlink:href="#t"/>
            <use fill="#FFF" xlink:href="#t"/>
            <path stroke="#000" d="M18.095 12.378a1.69 1.69 0 0 0-1.697-1.682 1.7 1.7 0 0 0-.805.201 2.102 2.102 0 0 0-1.997-1.4c-.429 0-.827.126-1.159.342-.235-.887-1.067-1.54-2.044-1.54-.398 0-.77.11-1.086.298V1.425c0-1.06-.86-1.925-1.91-1.925-1.05 0-1.898.864-1.898 1.925V15L2.79 11.5c-.451-.773-1.533-1.041-2.383-.562-.856.484-1.165 1.55-.675 2.381l.199.309a1248.604 1248.604 0 0 0 2.036 3.143 341.137 341.137 0 0 0 1.747 2.665c.264.396.545.785 1.021 1.429l.08.106c1.38 1.861 1.853 2.609 1.853 3.03v.5h8.989V24c0-.556.155-.907 1.165-2.853.7-1.347 1.057-2.216 1.212-3.158a4.86 4.86 0 0 0 .066-.787v-3.24l-.006-1.584z"/>
        </g>
        <g transform="translate(211 197)">
            <use fill="#000" filter="url(#u)" xlink:href="#v"/>
            <use fill="#FFF" xlink:href="#v"/>
            <path stroke="#000" d="M18.095 12.378a1.69 1.69 0 0 0-1.697-1.682 1.7 1.7 0 0 0-.805.201 2.102 2.102 0 0 0-1.997-1.4c-.429 0-.827.126-1.159.342-.235-.887-1.067-1.54-2.044-1.54-.398 0-.77.11-1.086.298V1.425c0-1.06-.86-1.925-1.91-1.925-1.05 0-1.898.864-1.898 1.925V15L2.79 11.5c-.451-.773-1.533-1.041-2.383-.562-.856.484-1.165 1.55-.675 2.381l.199.309a1248.604 1248.604 0 0 0 2.036 3.143 341.137 341.137 0 0 0 1.747 2.665c.264.396.545.785 1.021 1.429l.08.106c1.38 1.861 1.853 2.609 1.853 3.03v.5h8.989V24c0-.556.155-.907 1.165-2.853.7-1.347 1.057-2.216 1.212-3.158a4.86 4.86 0 0 0 .066-.787v-3.24l-.006-1.584z"/>
        </g>
        <g transform="translate(213 28)">
            <use fill="#000" filter="url(#w)" xlink:href="#x"/>
            <use fill="#000" xlink:href="#x"/>
            <path stroke="#FFF" d="M6.448 11.787l4.367.242c1.214-.128 1.575-1.116.783-1.933L.937-.061C.49-.52.197-.699-.203-.359c-.244.208-.27.41-.271 1.028L-.5 14.984c-.002 1.138.945 1.597 1.846.902l.077-.075 2.483-2.963L6.614 19.7c.274.68 1.07.975 1.766.692.695-.28 1.062-1.045.789-1.72l-2.72-6.886z"/>
        </g>
    </g>
</svg>
