<?xml version="1.0" encoding="UTF-8"?>
<svg xmlns="http://www.w3.org/2000/svg" xmlns:xlink="http://www.w3.org/1999/xlink" width="630" height="319" viewBox="0 0 630 319">
	<title>
		checkboxes_states
	</title>
	<defs>
		<filter id="filter-4" width="173.9%" height="154.2%" x="-36.9%" y="-18.8%" filterUnits="objectBoundingBox">
			<feMorphology in="SourceAlpha" operator="dilate" radius="1" result="shadowSpreadOuter1"/>
			<feOffset dy="1" in="shadowSpreadOuter1" result="shadowOffsetOuter1"/>
			<feGaussianBlur in="shadowOffsetOuter1" result="shadowBlurOuter1" stdDeviation=".5"/>
			<feComposite in="shadowBlurOuter1" in2="SourceAlpha" operator="out" result="shadowBlurOuter1"/>
			<feColorMatrix in="shadowBlurOuter1" result="shadowMatrixOuter1" values="0 0 0 0 0 0 0 0 0 0 0 0 0 0 0 0 0 0 0.582908741 0"/>
			<feMorphology in="SourceAlpha" operator="dilate" radius="1" result="shadowSpreadOuter2"/>
			<feOffset dy="2" in="shadowSpreadOuter2" result="shadowOffsetOuter2"/>
			<feGaussianBlur in="shadowOffsetOuter2" result="shadowBlurOuter2" stdDeviation="1.5"/>
			<feComposite in="shadowBlurOuter2" in2="SourceAlpha" operator="out" result="shadowBlurOuter2"/>
			<feColorMatrix in="shadowBlurOuter2" result="shadowMatrixOuter2" values="0 0 0 0 0 0 0 0 0 0 0 0 0 0 0 0 0 0 0.25 0"/>
			<feMerge>
				<feMergeNode in="shadowMatrixOuter1"/>
				<feMergeNode in="shadowMatrixOuter2"/>
			</feMerge>
		</filter>
		<filter id="filter-6" width="173.9%" height="154.2%" x="-36.9%" y="-18.8%" filterUnits="objectBoundingBox">
			<feMorphology in="SourceAlpha" operator="dilate" radius="1" result="shadowSpreadOuter1"/>
			<feOffset dy="1" in="shadowSpreadOuter1" result="shadowOffsetOuter1"/>
			<feGaussianBlur in="shadowOffsetOuter1" result="shadowBlurOuter1" stdDeviation=".5"/>
			<feComposite in="shadowBlurOuter1" in2="SourceAlpha" operator="out" result="shadowBlurOuter1"/>
			<feColorMatrix in="shadowBlurOuter1" result="shadowMatrixOuter1" values="0 0 0 0 0 0 0 0 0 0 0 0 0 0 0 0 0 0 0.582908741 0"/>
			<feMorphology in="SourceAlpha" operator="dilate" radius="1" result="shadowSpreadOuter2"/>
			<feOffset dy="2" in="shadowSpreadOuter2" result="shadowOffsetOuter2"/>
			<feGaussianBlur in="shadowOffsetOuter2" result="shadowBlurOuter2" stdDeviation="1.5"/>
			<feComposite in="shadowBlurOuter2" in2="SourceAlpha" operator="out" result="shadowBlurOuter2"/>
			<feColorMatrix in="shadowBlurOuter2" result="shadowMatrixOuter2" values="0 0 0 0 0 0 0 0 0 0 0 0 0 0 0 0 0 0 0.25 0"/>
			<feMerge>
				<feMergeNode in="shadowMatrixOuter1"/>
				<feMergeNode in="shadowMatrixOuter2"/>
			</feMerge>
		</filter>
		<filter id="filter-8" width="212.4%" height="164.2%" x="-56%" y="-21.7%" filterUnits="objectBoundingBox">
			<feMorphology in="SourceAlpha" operator="dilate" radius="1" result="shadowSpreadOuter1"/>
			<feOffset dy="1" in="shadowSpreadOuter1" result="shadowOffsetOuter1"/>
			<feGaussianBlur in="shadowOffsetOuter1" result="shadowBlurOuter1" stdDeviation=".5"/>
			<feComposite in="shadowBlurOuter1" in2="SourceAlpha" operator="out" result="shadowBlurOuter1"/>
			<feColorMatrix in="shadowBlurOuter1" result="shadowMatrixOuter1" values="0 0 0 0 0 0 0 0 0 0 0 0 0 0 0 0 0 0 0.582908741 0"/>
			<feMorphology in="SourceAlpha" operator="dilate" radius="1" result="shadowSpreadOuter2"/>
			<feOffset dy="2" in="shadowSpreadOuter2" result="shadowOffsetOuter2"/>
			<feGaussianBlur in="shadowOffsetOuter2" result="shadowBlurOuter2" stdDeviation="1.5"/>
			<feComposite in="shadowBlurOuter2" in2="SourceAlpha" operator="out" result="shadowBlurOuter2"/>
			<feColorMatrix in="shadowBlurOuter2" result="shadowMatrixOuter2" values="0 0 0 0 0 0 0 0 0 0 0 0 0 0 0 0 0 0 0.25 0"/>
			<feMerge>
				<feMergeNode in="shadowMatrixOuter1"/>
				<feMergeNode in="shadowMatrixOuter2"/>
			</feMerge>
		</filter>
		<filter id="filter-10" width="173.9%" height="154.2%" x="-36.9%" y="-18.8%" filterUnits="objectBoundingBox">
			<feMorphology in="SourceAlpha" operator="dilate" radius="1" result="shadowSpreadOuter1"/>
			<feOffset dy="1" in="shadowSpreadOuter1" result="shadowOffsetOuter1"/>
			<feGaussianBlur in="shadowOffsetOuter1" result="shadowBlurOuter1" stdDeviation=".5"/>
			<feComposite in="shadowBlurOuter1" in2="SourceAlpha" operator="out" result="shadowBlurOuter1"/>
			<feColorMatrix in="shadowBlurOuter1" result="shadowMatrixOuter1" values="0 0 0 0 0 0 0 0 0 0 0 0 0 0 0 0 0 0 0.582908741 0"/>
			<feMorphology in="SourceAlpha" operator="dilate" radius="1" result="shadowSpreadOuter2"/>
			<feOffset dy="2" in="shadowSpreadOuter2" result="shadowOffsetOuter2"/>
			<feGaussianBlur in="shadowOffsetOuter2" result="shadowBlurOuter2" stdDeviation="1.5"/>
			<feComposite in="shadowBlurOuter2" in2="SourceAlpha" operator="out" result="shadowBlurOuter2"/>
			<feColorMatrix in="shadowBlurOuter2" result="shadowMatrixOuter2" values="0 0 0 0 0 0 0 0 0 0 0 0 0 0 0 0 0 0 0.25 0"/>
			<feMerge>
				<feMergeNode in="shadowMatrixOuter1"/>
				<feMergeNode in="shadowMatrixOuter2"/>
			</feMerge>
		</filter>
		<filter id="filter-12" width="173.9%" height="154.2%" x="-36.9%" y="-18.8%" filterUnits="objectBoundingBox">
			<feMorphology in="SourceAlpha" operator="dilate" radius="1" result="shadowSpreadOuter1"/>
			<feOffset dy="1" in="shadowSpreadOuter1" result="shadowOffsetOuter1"/>
			<feGaussianBlur in="shadowOffsetOuter1" result="shadowBlurOuter1" stdDeviation=".5"/>
			<feComposite in="shadowBlurOuter1" in2="SourceAlpha" operator="out" result="shadowBlurOuter1"/>
			<feColorMatrix in="shadowBlurOuter1" result="shadowMatrixOuter1" values="0 0 0 0 0 0 0 0 0 0 0 0 0 0 0 0 0 0 0.582908741 0"/>
			<feMorphology in="SourceAlpha" operator="dilate" radius="1" result="shadowSpreadOuter2"/>
			<feOffset dy="2" in="shadowSpreadOuter2" result="shadowOffsetOuter2"/>
			<feGaussianBlur in="shadowOffsetOuter2" result="shadowBlurOuter2" stdDeviation="1.5"/>
			<feComposite in="shadowBlurOuter2" in2="SourceAlpha" operator="out" result="shadowBlurOuter2"/>
			<feColorMatrix in="shadowBlurOuter2" result="shadowMatrixOuter2" values="0 0 0 0 0 0 0 0 0 0 0 0 0 0 0 0 0 0 0.25 0"/>
			<feMerge>
				<feMergeNode in="shadowMatrixOuter1"/>
				<feMergeNode in="shadowMatrixOuter2"/>
			</feMerge>
		</filter>
		<filter id="filter-14" width="212.4%" height="164.2%" x="-56%" y="-21.7%" filterUnits="objectBoundingBox">
			<feMorphology in="SourceAlpha" operator="dilate" radius="1" result="shadowSpreadOuter1"/>
			<feOffset dy="1" in="shadowSpreadOuter1" result="shadowOffsetOuter1"/>
			<feGaussianBlur in="shadowOffsetOuter1" result="shadowBlurOuter1" stdDeviation=".5"/>
			<feComposite in="shadowBlurOuter1" in2="SourceAlpha" operator="out" result="shadowBlurOuter1"/>
			<feColorMatrix in="shadowBlurOuter1" result="shadowMatrixOuter1" values="0 0 0 0 0 0 0 0 0 0 0 0 0 0 0 0 0 0 0.582908741 0"/>
			<feMorphology in="SourceAlpha" operator="dilate" radius="1" result="shadowSpreadOuter2"/>
			<feOffset dy="2" in="shadowSpreadOuter2" result="shadowOffsetOuter2"/>
			<feGaussianBlur in="shadowOffsetOuter2" result="shadowBlurOuter2" stdDeviation="1.5"/>
			<feComposite in="shadowBlurOuter2" in2="SourceAlpha" operator="out" result="shadowBlurOuter2"/>
			<feColorMatrix in="shadowBlurOuter2" result="shadowMatrixOuter2" values="0 0 0 0 0 0 0 0 0 0 0 0 0 0 0 0 0 0 0.25 0"/>
			<feMerge>
				<feMergeNode in="shadowMatrixOuter1"/>
				<feMergeNode in="shadowMatrixOuter2"/>
			</feMerge>
		</filter>
		<path id="path-3" d="M17.595 12.379a1.19 1.19 0 00-1.197-1.183 1.19 1.19 0 00-1.196 1.179v-.826c0-.857-.719-1.551-1.606-1.551-.886 0-1.592.694-1.592 1.55V10.35c0-.856-.728-1.55-1.611-1.55s-1.586.694-1.586 1.55V1.425C8.807.638 8.168 0 7.397 0c-.772 0-1.398.638-1.398 1.425v15.038l-3.603-4.659c-.346-.586-1.126-.779-1.742-.431-.617.348-.836 1.105-.49 1.691 0 0 2.817 4.369 3.967 6.093C5.281 20.882 7.17 23.01 7.17 24h7.989c0-1.672 2.443-4.283 2.443-6.798v-3.24l-.006-1.583z"/>
		<path id="path-5" d="M17.595 12.379a1.19 1.19 0 00-1.197-1.183 1.19 1.19 0 00-1.196 1.179v-.826c0-.857-.719-1.551-1.606-1.551-.886 0-1.592.694-1.592 1.55V10.35c0-.856-.728-1.55-1.611-1.55s-1.586.694-1.586 1.55V1.425C8.807.638 8.168 0 7.397 0c-.772 0-1.398.638-1.398 1.425v15.038l-3.603-4.659c-.346-.586-1.126-.779-1.742-.431-.617.348-.836 1.105-.49 1.691 0 0 2.817 4.369 3.967 6.093C5.281 20.882 7.17 23.01 7.17 24h7.989c0-1.672 2.443-4.283 2.443-6.798v-3.24l-.006-1.583z"/>
		<path id="path-7" d="M6.132 11.269l4.71.26c.72-.08.899-.568.397-1.085L.592.3C.09-.216.027-.049.026.671L0 14.984c-.001.72.467.947 1.04.505l2.742-3.272c.095-.074.208-.146.327-.218l2.97 7.517c.165.41.664.595 1.113.413.449-.18.68-.66.514-1.07l-2.972-7.518.398-.073z"/>
		<path id="path-9" d="M17.595 12.379a1.19 1.19 0 00-1.197-1.183 1.19 1.19 0 00-1.196 1.179v-.826c0-.857-.719-1.551-1.606-1.551-.886 0-1.592.694-1.592 1.55V10.35c0-.856-.728-1.55-1.611-1.55s-1.586.694-1.586 1.55V1.425C8.807.638 8.168 0 7.397 0c-.772 0-1.398.638-1.398 1.425v15.038l-3.603-4.659c-.346-.586-1.126-.779-1.742-.431-.617.348-.836 1.105-.49 1.691 0 0 2.817 4.369 3.967 6.093C5.281 20.882 7.17 23.01 7.17 24h7.989c0-1.672 2.443-4.283 2.443-6.798v-3.24l-.006-1.583z"/>
		<path id="path-11" d="M17.595 12.379a1.19 1.19 0 00-1.197-1.183 1.19 1.19 0 00-1.196 1.179v-.826c0-.857-.719-1.551-1.606-1.551-.886 0-1.592.694-1.592 1.55V10.35c0-.856-.728-1.55-1.611-1.55s-1.586.694-1.586 1.55V1.425C8.807.638 8.168 0 7.397 0c-.772 0-1.398.638-1.398 1.425v15.038l-3.603-4.659c-.346-.586-1.126-.779-1.742-.431-.617.348-.836 1.105-.49 1.691 0 0 2.817 4.369 3.967 6.093C5.281 20.882 7.17 23.01 7.17 24h7.989c0-1.672 2.443-4.283 2.443-6.798v-3.24l-.006-1.583z"/>
		<path id="path-13" d="M6.132 11.269l4.71.26c.72-.08.899-.568.397-1.085L.592.3C.09-.216.027-.049.026.671L0 14.984c-.001.72.467.947 1.04.505l2.742-3.272c.095-.074.208-.146.327-.218l2.97 7.517c.165.41.664.595 1.113.413.449-.18.68-.66.514-1.07l-2.972-7.518.398-.073z"/>
		<rect id="path-1" width="24" height="24" x="0" y="0" rx="2"/>
		<rect id="path-2" width="24" height="24" x="0" y="4" rx="2"/>
	</defs>
	<g id="Artboard-page" fill="none" fill-rule="evenodd" stroke="none" stroke-width="1">
		<g id="WikimediaUI-components_overview" transform="translate(-5038 -256)">
			<path fill="#FFF" d="M0 0h14720v3264H0z"/>
			<g id="CHECKBOX-DESKTOP" transform="translate(5038 186)">
				<g id="Checkbox-X" transform="translate(2 69)">
					<text id="Normal-Hover-Active" fill="#72777D" font-family="Lato-Regular, Lato, sans-serif" font-size="14" font-weight="normal">
						<tspan x="0" y="22.1">Normal</tspan> <tspan x="0" y="78.2">Hover</tspan> <tspan x="0" y="134.3">Active</tspan> <tspan x="0" y="190.4">Focus</tspan> <tspan x="0" y="246.5">Disabled</tspan>
					</text>
					<text id="Selected" fill="#72777D" font-family="Lato-Regular, Lato, sans-serif" font-size="14" font-weight="normal">
						<tspan x="479" y="304">Selected</tspan>
					</text>
					<g id="_Spec-/-16-sp-(1-em)-+-2-*-4-sp-(0.25-em)" stroke-width="4" transform="rotate(-90 216 38)">
						<g id="_Spec-/-16-sp-(1-em)" stroke="#D0021B" transform="translate(4)">
							<path id="16-sp-(1-em)" d="M0 2h16"/>
						</g>
						<g id="_Spec-/-4-sp-(0.25-em)" stroke="#F5A623" transform="translate(20)">
							<path id="4-sp-(0.25-em)" d="M0 2h4"/>
						</g>
						<g id="_Spec-/-4-sp-(0.25-em)" stroke="#F5A623">
							<path id="4-sp-(0.25-em)" d="M0 2h4"/>
						</g>
					</g>
					<g id="Checkbox-/-:checked-/-:disabled" transform="translate(480 226)">
						<text id="Label" fill="#72777D" font-family="HelveticaNeue, Helvetica Neue, sans-serif" font-size="16" font-weight="normal">
							<tspan x="32" y="22">Neutral point</tspan>
						</text>
						<g id="Mediawiki.Neutral.Hover-copy-10-+-Imported-Layers-Copy-2" fill-rule="evenodd" stroke-width="1" transform="translate(0 4)">
							<rect id="checkbox" width="23" height="23" x=".5" y=".5" fill="#C8CCD1" stroke="#C8CCD1" rx="2"/>
							<g id="Icon-/-Checkbox-checkmark" fill="#FFF" fill-rule="nonzero" transform="translate(5 7)">
								<path id="Shape" d="M4.444 8.433l-3.321-3.32L0 6.235l4.444 4.452L14 1.131 12.877 0z"/>
							</g>
						</g>
					</g>
					<g id="Checkbox-/-:checked-/-:hover" transform="translate(480 57)">
						<text id="Label" fill="#202122" font-family="HelveticaNeue, Helvetica Neue, sans-serif" font-size="16" font-weight="normal">
							<tspan x="32" y="22">Neutral point</tspan>
						</text>
						<g id="Mediawiki.Neutral.Hover-copy-12-+-Imported-Layers-Copy-3" fill-rule="evenodd" stroke-width="1" transform="translate(0 4)">
							<rect id="checkbox" width="23" height="23" x=".5" y=".5" fill="#447FF5" stroke="#447FF5" rx="2"/>
							<g id="Icon-/-Checkbox-checkmark" fill="#FFF" fill-rule="nonzero" transform="translate(5 7)">
								<path id="Shape" d="M4.444 8.433l-3.321-3.32L0 6.235l4.444 4.452L14 1.131 12.877 0z"/>
							</g>
						</g>
					</g>
					<g id="Checkbox-/-:checked-/-:active" transform="translate(480 113)">
						<text id="Label" fill="#202122" font-family="HelveticaNeue, Helvetica Neue, sans-serif" font-size="16" font-weight="normal">
							<tspan x="32" y="22">Neutral point</tspan>
						</text>
						<g id="checkbox:checked:active" fill-rule="evenodd" stroke-width="1" transform="translate(0 4)">
							<rect id="checkbox" width="23" height="23" x=".5" y=".5" fill="#1F4999" stroke="#1F4999" rx="2"/>
							<g id="Icon-/-Checkbox-checkmark" fill="#FFF" fill-rule="nonzero" transform="translate(5 7)">
								<path id="Shape" d="M4.444 8.433l-3.321-3.32L0 6.235l4.444 4.452L14 1.131 12.877 0z"/>
							</g>
						</g>
					</g>
					<g id="Checkbox-/-:checked-/-:focus" transform="translate(480 169)">
						<text id="Label" fill="#202122" font-family="HelveticaNeue, Helvetica Neue, sans-serif" font-size="16" font-weight="normal">
							<tspan x="32" y="22">Neutral point</tspan>
						</text>
						<g id="checkbox:checked:focus" fill-rule="evenodd" stroke-width="1" transform="translate(0 4)">
							<g id="checkbox">
								<rect width="22" height="22" x="1" y="1" fill="#36C" stroke="#FFF" stroke-linejoin="square" stroke-width="2" rx="2"/>
								<rect width="25" height="25" x="-.5" y="-.5" stroke="#36C" rx="2"/>
								<rect width="23" height="23" x=".5" y=".5" stroke="#36C" stroke-linejoin="square" rx="2"/>
							</g>
							<g id="Icon-/-Checkbox-checkmark" fill="#FFF" fill-rule="nonzero" transform="translate(5 7)">
								<path id="Shape" d="M4.444 8.433l-3.321-3.32L0 6.235l4.444 4.452L14 1.131 12.877 0z"/>
							</g>
						</g>
					</g>
					<g id="Checkbox-/-:checked-/-!default" transform="translate(480)">
						<text id="Label" fill="#202122" font-family="HelveticaNeue, Helvetica Neue, sans-serif" font-size="16" font-weight="normal">
							<tspan x="32" y="23">Neutral point</tspan>
						</text>
						<g id="Checkbox" fill-rule="evenodd" stroke-width="1" transform="translate(0 5)">
							<rect id="checkbox" width="23" height="23" x=".5" y=".5" fill="#36C" stroke="#36C" rx="2"/>
							<g id="Icon-/-Checkbox-checkmark" fill="#FFF" fill-rule="nonzero" transform="translate(5 7)">
								<path id="Shape" d="M4.444 8.433l-3.321-3.32L0 6.235l4.444 4.452L14 1.131 12.877 0z"/>
							</g>
						</g>
					</g>
					<g id="Checkbox-/-:disabled" transform="translate(192 226)">
						<text id="Label" fill="#72777D" font-family="HelveticaNeue, Helvetica Neue, sans-serif" font-size="16" font-weight="normal">
							<tspan x="32" y="22">Neutral point</tspan>
						</text>
						<path id="checkbox" fill="#C8CCD1" fill-rule="evenodd" stroke="#C8CCD1" stroke-width="1" d="M2.005 4.5A1.5 1.5 0 00.5 6.005v19.99A1.5 1.5 0 002.005 27.5h19.99a1.5 1.5 0 001.505-1.505l-.062-20.219c-.092-.1-.252-.182-.499-.27-.598-.215-1.608-.399-3.304-.553-3.11-.284-8.455-.453-17.63-.453z"/>
					</g>
					<g id="Checkbox-/-:active" transform="translate(192 113)">
						<text id="Label" fill="#202122" font-family="HelveticaNeue, Helvetica Neue, sans-serif" font-size="16" font-weight="normal">
							<tspan x="32" y="22">Neutral point</tspan>
						</text>
						<rect id="checkbox" width="23" height="23" x=".5" y="4.5" fill="#2A4B8D" fill-rule="evenodd" stroke="#2A4B8D" stroke-width="1" rx="2"/>
					</g>
					<g id="Checkbox-/-:hover" transform="translate(192 57)">
						<text id="Label" fill="#202122" font-family="HelveticaNeue, Helvetica Neue, sans-serif" font-size="16" font-weight="normal">
							<tspan x="32" y="22">Neutral point</tspan>
						</text>
						<rect id="checkbox" width="23" height="23" x=".5" y="4.5" stroke="#447FF5" stroke-width="1" rx="2"/>
					</g>
					<g id="Checkbox-/-:focus" transform="translate(192 169)">
						<text id="Label" fill="#202122" font-family="HelveticaNeue, Helvetica Neue, sans-serif" font-size="16" font-weight="normal">
							<tspan x="32" y="22">Neutral point</tspan>
						</text>
						<g id="checkbox" stroke="#36C" stroke-linejoin="square">
							<rect width="23" height="23" x=".5" y="4.5" rx="2"/>
							<rect width="22" height="22" x="1" y="5" stroke-width="2" rx="2"/>
						</g>
					</g>
					<g id="Checkbox-/-!default" transform="translate(192 1)">
						<text id="Label" fill="#202122" font-family="HelveticaNeue, Helvetica Neue, sans-serif" font-size="16" font-weight="normal">
							<tspan x="32" y="22">Neutral point</tspan>
						</text>
						<rect id="checkbox" width="23" height="23" x=".5" y="4.5" fill="#FFF" fill-rule="evenodd" stroke="#72777D" stroke-width="1" rx="2"/>
					</g>
					<g id="Cursor-/-Pointer" transform="translate(494 133)">
						<g id="Cursor-Pointer">
							<use fill="#000" filter="url(#filter-4)" xlink:href="#path-3"/>
							<path fill="#FFF" stroke="#000" d="M12.439 9.845a2.038 2.038 0 00-.561-.95 2.138 2.138 0 00-2.571-.298V1.425A1.925 1.925 0 007.397-.5c-.526 0-1.002.216-1.346.567-.34.348-.552.828-.552 1.358V15l-2.69-3.478a1.729 1.729 0 00-1.063-.768 1.83 1.83 0 00-1.338.184 1.778 1.778 0 00-.84 1.053c-.126.435-.08.912.176 1.345 0 0 2.82 4.373 3.971 6.1.345.517.755 1.07 1.161 1.617.868 1.17 1.793 2.306 1.793 2.948 0 .144-.047.312-.128.5h9.221c-.352-.755.25-1.803.875-2.996.704-1.343 1.464-2.841 1.464-4.302v-3.24l-.006-1.585c0-.464-.19-.885-.499-1.19a1.7 1.7 0 00-1.198-.491 1.7 1.7 0 00-.805.201 2.043 2.043 0 00-.514-.805 2.127 2.127 0 00-1.483-.594c-.43 0-.826.124-1.157.347z"/>
						</g>
					</g>
					<g id="Cursor-/-Pointer" transform="translate(494 77)">
						<g id="Cursor-Pointer">
							<use fill="#000" filter="url(#filter-6)" xlink:href="#path-5"/>
							<path fill="#FFF" stroke="#000" d="M12.439 9.845a2.038 2.038 0 00-.561-.95 2.138 2.138 0 00-2.571-.298V1.425A1.925 1.925 0 007.397-.5c-.526 0-1.002.216-1.346.567-.34.348-.552.828-.552 1.358V15l-2.69-3.478a1.729 1.729 0 00-1.063-.768 1.83 1.83 0 00-1.338.184 1.778 1.778 0 00-.84 1.053c-.126.435-.08.912.176 1.345 0 0 2.82 4.373 3.971 6.1.345.517.755 1.07 1.161 1.617.868 1.17 1.793 2.306 1.793 2.948 0 .144-.047.312-.128.5h9.221c-.352-.755.25-1.803.875-2.996.704-1.343 1.464-2.841 1.464-4.302v-3.24l-.006-1.585c0-.464-.19-.885-.499-1.19a1.7 1.7 0 00-1.198-.491 1.7 1.7 0 00-.805.201 2.043 2.043 0 00-.514-.805 2.127 2.127 0 00-1.483-.594c-.43 0-.826.124-1.157.347z"/>
						</g>
					</g>
					<g id="Cursor-/-!default" transform="translate(500 245)">
						<g id="Cursor" fill="#000">
							<use filter="url(#filter-8)" xlink:href="#path-7"/>
							<path stroke="#FFF" d="M3.936 12.924L6.614 19.7c.137.34.408.59.741.713.31.116.677.12 1.025-.02.346-.14.606-.398.75-.697a1.26 1.26 0 00.039-1.024l-2.72-6.886 4.404.244a1.63 1.63 0 00.67-.195.977.977 0 00.445-.514.97.97 0 00-.011-.68 1.584 1.584 0 00-.366-.554L.943-.055C.7-.303.478-.353-.217.204c-.07.246-.131.76-.17 1.734-.078 1.911-.1 5.713.008 13.687a.971.971 0 00.465.498.98.98 0 00.678.06c.191-.048.405-.153.627-.333l2.545-2.926z"/>
						</g>
					</g>
					<g id="Cursor-/-Pointer" transform="translate(206 77)">
						<g id="Cursor-Pointer">
							<use fill="#000" filter="url(#filter-10)" xlink:href="#path-9"/>
							<path fill="#FFF" stroke="#000" d="M12.439 9.845a2.038 2.038 0 00-.561-.95 2.138 2.138 0 00-2.571-.298V1.425A1.925 1.925 0 007.397-.5c-.526 0-1.002.216-1.346.567-.34.348-.552.828-.552 1.358V15l-2.69-3.478a1.729 1.729 0 00-1.063-.768 1.83 1.83 0 00-1.338.184 1.778 1.778 0 00-.84 1.053c-.126.435-.08.912.176 1.345 0 0 2.82 4.373 3.971 6.1.345.517.755 1.07 1.161 1.617.868 1.17 1.793 2.306 1.793 2.948 0 .144-.047.312-.128.5h9.221c-.352-.755.25-1.803.875-2.996.704-1.343 1.464-2.841 1.464-4.302v-3.24l-.006-1.585c0-.464-.19-.885-.499-1.19a1.7 1.7 0 00-1.198-.491 1.7 1.7 0 00-.805.201 2.043 2.043 0 00-.514-.805 2.127 2.127 0 00-1.483-.594c-.43 0-.826.124-1.157.347z"/>
						</g>
					</g>
					<g id="Cursor-/-Pointer" transform="translate(206 133)">
						<g id="Cursor-Pointer">
							<use fill="#000" filter="url(#filter-12)" xlink:href="#path-11"/>
							<path fill="#FFF" stroke="#000" d="M12.439 9.845a2.038 2.038 0 00-.561-.95 2.138 2.138 0 00-2.571-.298V1.425A1.925 1.925 0 007.397-.5c-.526 0-1.002.216-1.346.567-.34.348-.552.828-.552 1.358V15l-2.69-3.478a1.729 1.729 0 00-1.063-.768 1.83 1.83 0 00-1.338.184 1.778 1.778 0 00-.84 1.053c-.126.435-.08.912.176 1.345 0 0 2.82 4.373 3.971 6.1.345.517.755 1.07 1.161 1.617.868 1.17 1.793 2.306 1.793 2.948 0 .144-.047.312-.128.5h9.221c-.352-.755.25-1.803.875-2.996.704-1.343 1.464-2.841 1.464-4.302v-3.24l-.006-1.585c0-.464-.19-.885-.499-1.19a1.7 1.7 0 00-1.198-.491 1.7 1.7 0 00-.805.201 2.043 2.043 0 00-.514-.805 2.127 2.127 0 00-1.483-.594c-.43 0-.826.124-1.157.347z"/>
						</g>
					</g>
					<g id="Cursor-/-!default" transform="translate(211 245)">
						<g id="Cursor" fill="#000">
							<use filter="url(#filter-14)" xlink:href="#path-13"/>
							<path stroke="#FFF" d="M3.936 12.924L6.614 19.7c.137.34.408.59.741.713.31.116.677.12 1.025-.02.346-.14.606-.398.75-.697a1.26 1.26 0 00.039-1.024l-2.72-6.886 4.404.244a1.63 1.63 0 00.67-.195.977.977 0 00.445-.514.97.97 0 00-.011-.68 1.584 1.584 0 00-.366-.554L.943-.055C.7-.303.478-.353-.217.204c-.07.246-.131.76-.17 1.734-.078 1.911-.1 5.713.008 13.687a.971.971 0 00.465.498.98.98 0 00.678.06c.191-.048.405-.153.627-.333l2.545-2.926z"/>
						</g>
					</g>
				</g>
			</g>
		</g>
	</g>
</svg>
