<?xml version="1.0" encoding="UTF-8"?>
<svg xmlns="http://www.w3.org/2000/svg" width="324" height="92" viewBox="0 0 324 92">
	<title>
		checkboxes_designing
	</title>
	<g id="Artboard-page" fill="none" fill-rule="evenodd" stroke="none" stroke-width="1">
		<g id="WikimediaUI-components_overview" transform="translate(-4416 -592)">
			<path fill="#FFF" d="M0 0h14100v3264H0z"/>
			<g id="CHECKBOX-DESKTOP" transform="translate(4225 186)">
				<g id="Checkbox-X" transform="translate(2 69)">
					<g id="Checkbox-/-!default" transform="translate(192 398)">
						<text id="Label" fill="#202122" font-family="HelveticaNeue, Helvetica Neue, sans-serif" font-size="16" font-weight="normal">
							<tspan x="32" y="22">Option 2</tspan>
						</text>
						<rect id="checkbox" width="23" height="23" x=".5" y="4.5" fill="#FFF" fill-rule="evenodd" stroke="#72777D" stroke-width="1" rx="2"/>
					</g>
					<g id="Checkbox-/-!default" transform="translate(192 358)">
						<text id="Label" fill="#202122" font-family="HelveticaNeue, Helvetica Neue, sans-serif" font-size="16" font-weight="normal">
							<tspan x="32" y="22">Option 1</tspan>
						</text>
						<rect id="checkbox" width="23" height="23" x=".5" y="4.5" fill="#FFF" fill-rule="evenodd" stroke="#72777D" stroke-width="1" rx="2"/>
					</g>
					<g id="_Spec-/-8-sp-(0.5-em)" stroke="#50E3C2" stroke-width="4" transform="translate(216 372)">
						<path id="8-sp-(0.5-em)" d="M0 2h8"/>
					</g>
					<g id="_Spec-/-8-sp-(0.5-em)" stroke="#50E3C2" stroke-width="4" transform="translate(216 412)">
						<path id="8-sp-(0.5-em)" d="M0 2h8"/>
					</g>
					<g id="_Spec-/-16-sp-(1-em)" stroke="#D0021B" stroke-width="4" transform="rotate(90 -90 296)">
						<path id="16-sp-(1-em)" d="M0 2h16"/>
					</g>
					<text id="`vertical-align:-mid" fill="#C70070" font-family="Lato-Regular, Lato, sans-serif" font-size="13" font-weight="normal">
						<tspan x="381" y="379">`vertical-align: middle`</tspan>
					</text>
					<path id="Line-Copy-86" stroke="#C70070" stroke-dasharray="1 3" stroke-linecap="square" d="M191 358.5h184"/>
					<path id="Line" fill="#C70070" fill-rule="nonzero" d="M371 391v-1h4v-31h-4v-1h9v1h-4v31h4v1h-9z"/>
					<path id="Line-Copy-85" stroke="#C70070" stroke-dasharray="1 3" stroke-linecap="square" d="M191 390.5h183"/>
				</g>
			</g>
			<text id="Label" fill="#202122" font-family="HelveticaNeue, Helvetica Neue, sans-serif" font-size="16" font-weight="normal" transform="translate(4419 591.5)">
				<tspan x="0" y="15">Checkbox group label</tspan>
			</text>
		</g>
	</g>
</svg>
