<?xml version="1.0" encoding="UTF-8"?>
<svg width="424px" height="51px" viewBox="0 0 424 51" version="1.1" xmlns="http://www.w3.org/2000/svg" xmlns:xlink="http://www.w3.org/1999/xlink">
    <!-- Generator: Sketch 56.2 (81672) - https://sketch.com -->
    <title>Checkbox_intro</title>
    <desc>Created with Sketch.</desc>
    <defs>
        <path d="M17.5954523,12.3787874 C17.5954523,11.7256091 17.0590701,11.1960268 16.3978922,11.1960268 C15.7383142,11.1960268 15.203532,11.7232092 15.2015321,12.3747875 L15.2015321,11.548815 C15.2015321,10.6920436 14.483156,9.99766674 13.5963856,9.99766674 C12.7096151,9.99766674 12.0036387,10.6920436 12.0036387,11.548815 L12.0036387,10.350455 C12.0036387,9.49368354 11.2756629,8.79930669 10.3928923,8.79930669 C9.51012177,8.79930669 8.80654522,9.49408353 8.80654522,10.350455 L8.80654522,1.42515249 C8.80654522,0.637978734 8.1681665,-2.3109992e-14 7.39619224,-2.3109992e-14 C6.62461796,-2.3109992e-14 5.99863882,0.638378721 5.99863882,1.42515249 L5.99863882,16.4630512 L2.39595891,11.8040065 C2.04997044,11.2180261 1.26999644,11.0252325 0.653616989,11.3728209 C0.0372375346,11.7208093 -0.181955159,12.4779841 0.164033308,13.0639645 C0.164033308,13.0639645 2.9811394,17.4326189 4.13110107,19.1573614 C5.28106274,20.8821039 7.16859982,23.009633 7.16859982,24 L15.1579335,24 C15.1579335,22.3280557 17.6014521,19.7165428 17.6014521,17.2018266 L17.6014521,13.9627346 L17.5954523,12.3787874 Z" id="path-1"></path>
        <filter x="-36.9%" y="-18.8%" width="173.9%" height="154.2%" filterUnits="objectBoundingBox" id="filter-2">
            <feMorphology radius="1" operator="dilate" in="SourceAlpha" result="shadowSpreadOuter1"></feMorphology>
            <feOffset dx="0" dy="1" in="shadowSpreadOuter1" result="shadowOffsetOuter1"></feOffset>
            <feGaussianBlur stdDeviation="0.5" in="shadowOffsetOuter1" result="shadowBlurOuter1"></feGaussianBlur>
            <feComposite in="shadowBlurOuter1" in2="SourceAlpha" operator="out" result="shadowBlurOuter1"></feComposite>
            <feColorMatrix values="0 0 0 0 0   0 0 0 0 0   0 0 0 0 0  0 0 0 0.582908741 0" type="matrix" in="shadowBlurOuter1" result="shadowMatrixOuter1"></feColorMatrix>
            <feMorphology radius="1" operator="dilate" in="SourceAlpha" result="shadowSpreadOuter2"></feMorphology>
            <feOffset dx="0" dy="2" in="shadowSpreadOuter2" result="shadowOffsetOuter2"></feOffset>
            <feGaussianBlur stdDeviation="1.5" in="shadowOffsetOuter2" result="shadowBlurOuter2"></feGaussianBlur>
            <feComposite in="shadowBlurOuter2" in2="SourceAlpha" operator="out" result="shadowBlurOuter2"></feComposite>
            <feColorMatrix values="0 0 0 0 0   0 0 0 0 0   0 0 0 0 0  0 0 0 0.179347826 0" type="matrix" in="shadowBlurOuter2" result="shadowMatrixOuter2"></feColorMatrix>
            <feMerge>
                <feMergeNode in="shadowMatrixOuter1"></feMergeNode>
                <feMergeNode in="shadowMatrixOuter2"></feMergeNode>
            </feMerge>
        </filter>
    </defs>
    <g id="Artboard-page" stroke="none" stroke-width="1" fill="none" fill-rule="evenodd">
        <g id="WikimediaUI-components_overview" transform="translate(-5226.000000, -312.000000)">
            <rect fill="#FFFFFF" x="0" y="0" width="14720" height="3264"></rect>
            <g id="CHECKBOX-DESKTOP" transform="translate(5038.000000, 186.000000)">
                <g id="Checkbox-X" transform="translate(2.000000, 69.000000)">
                    <g id="Checkbox-/-:checked-/-:hover" transform="translate(480.000000, 57.000000)">
                        <text id="8:16:8:16-copy-16" font-family="HelveticaNeue, Helvetica Neue" font-size="16" font-weight="normal" fill="#222222">
                            <tspan x="32" y="22">Neutral point</tspan>
                        </text>
                        <g id="Mediawiki.Neutral.Hover-copy-12-+-Imported-Layers-Copy-3" stroke-width="1" fill-rule="evenodd" transform="translate(0.000000, 4.000000)">
                            <rect id="Mediawiki.Neutral.Hover-copy-12" stroke="#447FF5" fill="#447FF5" x="-0.5" y="-0.5" width="25" height="25" rx="2"></rect>
                            <g id="Icon-/-Checkbox-checkmark" transform="translate(5.000000, 7.000000)" fill="#FFFFFF" fill-rule="nonzero">
                                <polygon id="Shape" points="4.76109215 8.4334471 1.20307167 5.11262799 0 6.23549488 4.76109215 10.6871445 15 1.13083049 13.7969283 0"></polygon>
                            </g>
                        </g>
                    </g>
                    <g id="Checkbox-/-!default" transform="translate(192.000000, 57.000000)">
                        <text id="8:16:8:16-copy-15" font-family="HelveticaNeue, Helvetica Neue" font-size="16" font-weight="normal" fill="#222222">
                            <tspan x="33" y="22">Neutral point</tspan>
                        </text>
                        <g id="Checkbox-:normal" stroke-width="1" fill-rule="evenodd" transform="translate(0.000000, 4.000000)" fill="#FFFFFF" stroke="#72777D">
                            <rect id="Mediawiki.Neutral.Hover-copy-9" x="-0.5" y="-0.5" width="25" height="25" rx="2"></rect>
                        </g>
                    </g>
                    <g id="Cursor-/-Pointer" transform="translate(497.000000, 77.000000)">
                        <g id="Cursor-Pointer">
                            <use fill="black" fill-opacity="1" filter="url(#filter-2)" xlink:href="#path-1"></use>
                            <path stroke="#000000" stroke-width="1" d="M5.49863882,14.9990679 L5.49863882,1.42515249 C5.49863882,0.364390213 6.34627404,-0.5 7.39619224,-0.5 C8.4475222,-0.5 9.30654522,0.365060667 9.30654522,1.42515249 L9.30654522,8.59739976 C9.62275187,8.40813447 9.99458465,8.29930669 10.3928923,8.29930669 C11.3696842,8.29930669 12.2017759,8.95226109 12.4371411,9.83891321 C12.7687636,9.62309774 13.1672561,9.49766674 13.5963856,9.49766674 C14.5229268,9.49766674 15.3133259,10.0818718 15.5931989,10.8969793 C15.8327664,10.7687518 16.10688,10.6960268 16.3978922,10.6960268 C17.3338791,10.6960268 18.0954523,11.4481132 18.0954523,12.3787874 L18.0954487,12.3768934 L18.1014521,13.9627346 L18.1014521,17.2018266 C18.1014521,17.45899 18.0788416,17.7210344 18.0348962,17.9890448 C17.8804952,18.9306924 17.5230199,19.8003644 16.8234169,21.1474064 C15.8127426,23.093397 15.6579335,23.4442918 15.6579335,24 L15.6579335,24.5 L6.66859982,24.5 L6.66859982,24 C6.66859982,23.5786103 6.19563371,22.8309976 4.81529743,20.9702918 C4.77572637,20.916944 4.77572637,20.916944 4.73613542,20.8635322 C4.25954481,20.2204113 3.97897576,19.8305154 3.71509077,19.4347338 C3.32594411,18.8510815 2.72477886,17.9332706 1.96848974,16.7703263 C1.95455156,16.7488931 1.95455156,16.7488931 1.94061413,16.727459 C1.45803808,15.9852984 0.942759518,15.1902097 0.428630429,14.3951327 C0.248691135,14.1168648 0.137397398,13.944607 -0.0679723281,13.6265707 C-0.221942375,13.3880215 -0.221942375,13.3880215 -0.266517693,13.3181807 C-0.757186346,12.4871638 -0.448495824,11.4208575 0.408016869,10.9372976 C1.25796465,10.4579954 2.33990048,10.7256484 2.79149833,11.4981494 L5.49863882,14.9990679 Z" fill="#FFFFFF" fill-rule="evenodd"></path>
                        </g>
                    </g>
                </g>
            </g>
        </g>
    </g>
</svg>