<?xml version="1.0" encoding="UTF-8" standalone="no"?>
<svg width="630px" height="683px" viewBox="0 0 630 683" version="1.1" xmlns="http://www.w3.org/2000/svg" xmlns:xlink="http://www.w3.org/1999/xlink">
    <defs>
        <rect id="path-1" x="0" y="0" width="24" height="24" rx="2"></rect>
        <rect id="path-2" x="0" y="0" width="24" height="24" rx="2"></rect>
        <rect id="path-3" x="0" y="0" width="24" height="24" rx="2"></rect>
        <rect id="path-4" x="0" y="0" width="24" height="24" rx="2"></rect>
        <rect id="path-5" x="0" y="0" width="24" height="24" rx="2"></rect>
        <rect id="path-6" x="0" y="0" width="24" height="24" rx="2"></rect>
        <rect id="path-7" x="0" y="0" width="24" height="24" rx="2"></rect>
        <rect id="path-8" x="0" y="4" width="24" height="24" rx="2"></rect>
        <rect id="path-9" x="0" y="4" width="24" height="24" rx="2"></rect>
        <rect id="path-10" x="0" y="4" width="24" height="24" rx="2"></rect>
        <rect id="path-11" x="0" y="0" width="24" height="24" rx="2"></rect>
        <rect id="path-12" x="0" y="0" width="24" height="24" rx="2"></rect>
        <rect id="path-13" x="0" y="0" width="24" height="24" rx="2"></rect>
        <path d="M17.5954523,12.3787874 C17.5954523,11.7256091 17.0590701,11.1960268 16.3978922,11.1960268 C15.7383142,11.1960268 15.203532,11.7232092 15.2015321,12.3747875 L15.2015321,11.548815 C15.2015321,10.6920436 14.483156,9.99766674 13.5963856,9.99766674 C12.7096151,9.99766674 12.0036387,10.6920436 12.0036387,11.548815 L12.0036387,10.350455 C12.0036387,9.49368354 11.2756629,8.79930669 10.3928923,8.79930669 C9.51012177,8.79930669 8.80654522,9.49408353 8.80654522,10.350455 L8.80654522,1.42515249 C8.80654522,0.637978734 8.1681665,-2.30926389e-14 7.39619224,-2.30926389e-14 C6.62461796,-2.30926389e-14 5.99863882,0.638378721 5.99863882,1.42515249 L5.99863882,16.4630512 L2.39595891,11.8040065 C2.04997044,11.2180261 1.26999644,11.0252325 0.653616989,11.3728209 C0.0372375346,11.7208093 -0.181955159,12.4779841 0.164033308,13.0639645 C0.164033308,13.0639645 2.9811394,17.4326189 4.13110107,19.1573614 C5.28106274,20.8821039 7.16859982,23.009633 7.16859982,24 L15.1579335,24 C15.1579335,22.3280557 17.6014521,19.7165428 17.6014521,17.2018266 L17.6014521,13.9627346 L17.5954523,12.3787874 Z" id="path-14"></path>
        <filter x="-42.6%" y="-18.8%" width="185.2%" height="162.5%" filterUnits="objectBoundingBox" id="filter-15">
            <feMorphology radius="1" operator="dilate" in="SourceAlpha" result="shadowSpreadOuter1"></feMorphology>
            <feOffset dx="0" dy="1" in="shadowSpreadOuter1" result="shadowOffsetOuter1"></feOffset>
            <feGaussianBlur stdDeviation="0.5" in="shadowOffsetOuter1" result="shadowBlurOuter1"></feGaussianBlur>
            <feComposite in="shadowBlurOuter1" in2="SourceAlpha" operator="out" result="shadowBlurOuter1"></feComposite>
            <feColorMatrix values="0 0 0 0 0   0 0 0 0 0   0 0 0 0 0  0 0 0 0.582908741 0" type="matrix" in="shadowBlurOuter1" result="shadowMatrixOuter1"></feColorMatrix>
            <feMorphology radius="1" operator="dilate" in="SourceAlpha" result="shadowSpreadOuter2"></feMorphology>
            <feOffset dx="0" dy="2" in="shadowSpreadOuter2" result="shadowOffsetOuter2"></feOffset>
            <feGaussianBlur stdDeviation="1.5" in="shadowOffsetOuter2" result="shadowBlurOuter2"></feGaussianBlur>
            <feComposite in="shadowBlurOuter2" in2="SourceAlpha" operator="out" result="shadowBlurOuter2"></feComposite>
            <feColorMatrix values="0 0 0 0 0   0 0 0 0 0   0 0 0 0 0  0 0 0 0.179347826 0" type="matrix" in="shadowBlurOuter2" result="shadowMatrixOuter2"></feColorMatrix>
            <feMerge>
                <feMergeNode in="shadowMatrixOuter1"></feMergeNode>
                <feMergeNode in="shadowMatrixOuter2"></feMergeNode>
            </feMerge>
        </filter>
        <path d="M17.5954523,12.3787874 C17.5954523,11.7256091 17.0590701,11.1960268 16.3978922,11.1960268 C15.7383142,11.1960268 15.203532,11.7232092 15.2015321,12.3747875 L15.2015321,11.548815 C15.2015321,10.6920436 14.483156,9.99766674 13.5963856,9.99766674 C12.7096151,9.99766674 12.0036387,10.6920436 12.0036387,11.548815 L12.0036387,10.350455 C12.0036387,9.49368354 11.2756629,8.79930669 10.3928923,8.79930669 C9.51012177,8.79930669 8.80654522,9.49408353 8.80654522,10.350455 L8.80654522,1.42515249 C8.80654522,0.637978734 8.1681665,-2.30926389e-14 7.39619224,-2.30926389e-14 C6.62461796,-2.30926389e-14 5.99863882,0.638378721 5.99863882,1.42515249 L5.99863882,16.4630512 L2.39595891,11.8040065 C2.04997044,11.2180261 1.26999644,11.0252325 0.653616989,11.3728209 C0.0372375346,11.7208093 -0.181955159,12.4779841 0.164033308,13.0639645 C0.164033308,13.0639645 2.9811394,17.4326189 4.13110107,19.1573614 C5.28106274,20.8821039 7.16859982,23.009633 7.16859982,24 L15.1579335,24 C15.1579335,22.3280557 17.6014521,19.7165428 17.6014521,17.2018266 L17.6014521,13.9627346 L17.5954523,12.3787874 Z" id="path-16"></path>
        <filter x="-42.6%" y="-18.8%" width="185.2%" height="162.5%" filterUnits="objectBoundingBox" id="filter-17">
            <feMorphology radius="1" operator="dilate" in="SourceAlpha" result="shadowSpreadOuter1"></feMorphology>
            <feOffset dx="0" dy="1" in="shadowSpreadOuter1" result="shadowOffsetOuter1"></feOffset>
            <feGaussianBlur stdDeviation="0.5" in="shadowOffsetOuter1" result="shadowBlurOuter1"></feGaussianBlur>
            <feComposite in="shadowBlurOuter1" in2="SourceAlpha" operator="out" result="shadowBlurOuter1"></feComposite>
            <feColorMatrix values="0 0 0 0 0   0 0 0 0 0   0 0 0 0 0  0 0 0 0.582908741 0" type="matrix" in="shadowBlurOuter1" result="shadowMatrixOuter1"></feColorMatrix>
            <feMorphology radius="1" operator="dilate" in="SourceAlpha" result="shadowSpreadOuter2"></feMorphology>
            <feOffset dx="0" dy="2" in="shadowSpreadOuter2" result="shadowOffsetOuter2"></feOffset>
            <feGaussianBlur stdDeviation="1.5" in="shadowOffsetOuter2" result="shadowBlurOuter2"></feGaussianBlur>
            <feComposite in="shadowBlurOuter2" in2="SourceAlpha" operator="out" result="shadowBlurOuter2"></feComposite>
            <feColorMatrix values="0 0 0 0 0   0 0 0 0 0   0 0 0 0 0  0 0 0 0.179347826 0" type="matrix" in="shadowBlurOuter2" result="shadowMatrixOuter2"></feColorMatrix>
            <feMerge>
                <feMergeNode in="shadowMatrixOuter1"></feMergeNode>
                <feMergeNode in="shadowMatrixOuter2"></feMergeNode>
            </feMerge>
        </filter>
        <path d="M6.13211402,11.2688979 L10.8422354,11.5297995 C11.562075,11.4497464 11.7406967,10.9613193 11.2389527,10.443935 L0.591868541,0.301190754 C0.0905803995,-0.216377736 0.0269163636,-0.0499300062 0.0256689588,0.670145757 L2.29782166e-06,14.9845005 C-0.00119676849,15.7053522 0.467038737,15.932432 1.04000173,15.490159 L3.78168123,12.217739 C3.87724299,12.1438668 3.98988305,12.0715788 4.10864258,12 L7.07900942,19.5168621 C7.24412875,19.9268592 7.74262137,20.1120195 8.19190947,19.929965 C8.64097423,19.7493265 8.87107252,19.2695313 8.70554568,18.8604942 L5.73444213,11.3418087 L6.13211402,11.2688979 Z" id="path-18"></path>
        <filter x="-65.1%" y="-22.5%" width="230.2%" height="175.0%" filterUnits="objectBoundingBox" id="filter-19">
            <feMorphology radius="1" operator="dilate" in="SourceAlpha" result="shadowSpreadOuter1"></feMorphology>
            <feOffset dx="0" dy="1" in="shadowSpreadOuter1" result="shadowOffsetOuter1"></feOffset>
            <feGaussianBlur stdDeviation="0.5" in="shadowOffsetOuter1" result="shadowBlurOuter1"></feGaussianBlur>
            <feComposite in="shadowBlurOuter1" in2="SourceAlpha" operator="out" result="shadowBlurOuter1"></feComposite>
            <feColorMatrix values="0 0 0 0 0   0 0 0 0 0   0 0 0 0 0  0 0 0 0.582908741 0" type="matrix" in="shadowBlurOuter1" result="shadowMatrixOuter1"></feColorMatrix>
            <feMorphology radius="1" operator="dilate" in="SourceAlpha" result="shadowSpreadOuter2"></feMorphology>
            <feOffset dx="0" dy="2" in="shadowSpreadOuter2" result="shadowOffsetOuter2"></feOffset>
            <feGaussianBlur stdDeviation="1.5" in="shadowOffsetOuter2" result="shadowBlurOuter2"></feGaussianBlur>
            <feComposite in="shadowBlurOuter2" in2="SourceAlpha" operator="out" result="shadowBlurOuter2"></feComposite>
            <feColorMatrix values="0 0 0 0 0   0 0 0 0 0   0 0 0 0 0  0 0 0 0.179347826 0" type="matrix" in="shadowBlurOuter2" result="shadowMatrixOuter2"></feColorMatrix>
            <feMerge>
                <feMergeNode in="shadowMatrixOuter1"></feMergeNode>
                <feMergeNode in="shadowMatrixOuter2"></feMergeNode>
            </feMerge>
        </filter>
        <path d="M17.5954523,12.3787874 C17.5954523,11.7256091 17.0590701,11.1960268 16.3978922,11.1960268 C15.7383142,11.1960268 15.203532,11.7232092 15.2015321,12.3747875 L15.2015321,11.548815 C15.2015321,10.6920436 14.483156,9.99766674 13.5963856,9.99766674 C12.7096151,9.99766674 12.0036387,10.6920436 12.0036387,11.548815 L12.0036387,10.350455 C12.0036387,9.49368354 11.2756629,8.79930669 10.3928923,8.79930669 C9.51012177,8.79930669 8.80654522,9.49408353 8.80654522,10.350455 L8.80654522,1.42515249 C8.80654522,0.637978734 8.1681665,-2.30926389e-14 7.39619224,-2.30926389e-14 C6.62461796,-2.30926389e-14 5.99863882,0.638378721 5.99863882,1.42515249 L5.99863882,16.4630512 L2.39595891,11.8040065 C2.04997044,11.2180261 1.26999644,11.0252325 0.653616989,11.3728209 C0.0372375346,11.7208093 -0.181955159,12.4779841 0.164033308,13.0639645 C0.164033308,13.0639645 2.9811394,17.4326189 4.13110107,19.1573614 C5.28106274,20.8821039 7.16859982,23.009633 7.16859982,24 L15.1579335,24 C15.1579335,22.3280557 17.6014521,19.7165428 17.6014521,17.2018266 L17.6014521,13.9627346 L17.5954523,12.3787874 Z" id="path-20"></path>
        <filter x="-42.6%" y="-18.8%" width="185.2%" height="162.5%" filterUnits="objectBoundingBox" id="filter-21">
            <feMorphology radius="1" operator="dilate" in="SourceAlpha" result="shadowSpreadOuter1"></feMorphology>
            <feOffset dx="0" dy="1" in="shadowSpreadOuter1" result="shadowOffsetOuter1"></feOffset>
            <feGaussianBlur stdDeviation="0.5" in="shadowOffsetOuter1" result="shadowBlurOuter1"></feGaussianBlur>
            <feComposite in="shadowBlurOuter1" in2="SourceAlpha" operator="out" result="shadowBlurOuter1"></feComposite>
            <feColorMatrix values="0 0 0 0 0   0 0 0 0 0   0 0 0 0 0  0 0 0 0.582908741 0" type="matrix" in="shadowBlurOuter1" result="shadowMatrixOuter1"></feColorMatrix>
            <feMorphology radius="1" operator="dilate" in="SourceAlpha" result="shadowSpreadOuter2"></feMorphology>
            <feOffset dx="0" dy="2" in="shadowSpreadOuter2" result="shadowOffsetOuter2"></feOffset>
            <feGaussianBlur stdDeviation="1.5" in="shadowOffsetOuter2" result="shadowBlurOuter2"></feGaussianBlur>
            <feComposite in="shadowBlurOuter2" in2="SourceAlpha" operator="out" result="shadowBlurOuter2"></feComposite>
            <feColorMatrix values="0 0 0 0 0   0 0 0 0 0   0 0 0 0 0  0 0 0 0.179347826 0" type="matrix" in="shadowBlurOuter2" result="shadowMatrixOuter2"></feColorMatrix>
            <feMerge>
                <feMergeNode in="shadowMatrixOuter1"></feMergeNode>
                <feMergeNode in="shadowMatrixOuter2"></feMergeNode>
            </feMerge>
        </filter>
        <path d="M17.5954523,12.3787874 C17.5954523,11.7256091 17.0590701,11.1960268 16.3978922,11.1960268 C15.7383142,11.1960268 15.203532,11.7232092 15.2015321,12.3747875 L15.2015321,11.548815 C15.2015321,10.6920436 14.483156,9.99766674 13.5963856,9.99766674 C12.7096151,9.99766674 12.0036387,10.6920436 12.0036387,11.548815 L12.0036387,10.350455 C12.0036387,9.49368354 11.2756629,8.79930669 10.3928923,8.79930669 C9.51012177,8.79930669 8.80654522,9.49408353 8.80654522,10.350455 L8.80654522,1.42515249 C8.80654522,0.637978734 8.1681665,-2.30926389e-14 7.39619224,-2.30926389e-14 C6.62461796,-2.30926389e-14 5.99863882,0.638378721 5.99863882,1.42515249 L5.99863882,16.4630512 L2.39595891,11.8040065 C2.04997044,11.2180261 1.26999644,11.0252325 0.653616989,11.3728209 C0.0372375346,11.7208093 -0.181955159,12.4779841 0.164033308,13.0639645 C0.164033308,13.0639645 2.9811394,17.4326189 4.13110107,19.1573614 C5.28106274,20.8821039 7.16859982,23.009633 7.16859982,24 L15.1579335,24 C15.1579335,22.3280557 17.6014521,19.7165428 17.6014521,17.2018266 L17.6014521,13.9627346 L17.5954523,12.3787874 Z" id="path-22"></path>
        <filter x="-42.6%" y="-18.8%" width="185.2%" height="162.5%" filterUnits="objectBoundingBox" id="filter-23">
            <feMorphology radius="1" operator="dilate" in="SourceAlpha" result="shadowSpreadOuter1"></feMorphology>
            <feOffset dx="0" dy="1" in="shadowSpreadOuter1" result="shadowOffsetOuter1"></feOffset>
            <feGaussianBlur stdDeviation="0.5" in="shadowOffsetOuter1" result="shadowBlurOuter1"></feGaussianBlur>
            <feComposite in="shadowBlurOuter1" in2="SourceAlpha" operator="out" result="shadowBlurOuter1"></feComposite>
            <feColorMatrix values="0 0 0 0 0   0 0 0 0 0   0 0 0 0 0  0 0 0 0.582908741 0" type="matrix" in="shadowBlurOuter1" result="shadowMatrixOuter1"></feColorMatrix>
            <feMorphology radius="1" operator="dilate" in="SourceAlpha" result="shadowSpreadOuter2"></feMorphology>
            <feOffset dx="0" dy="2" in="shadowSpreadOuter2" result="shadowOffsetOuter2"></feOffset>
            <feGaussianBlur stdDeviation="1.5" in="shadowOffsetOuter2" result="shadowBlurOuter2"></feGaussianBlur>
            <feComposite in="shadowBlurOuter2" in2="SourceAlpha" operator="out" result="shadowBlurOuter2"></feComposite>
            <feColorMatrix values="0 0 0 0 0   0 0 0 0 0   0 0 0 0 0  0 0 0 0.179347826 0" type="matrix" in="shadowBlurOuter2" result="shadowMatrixOuter2"></feColorMatrix>
            <feMerge>
                <feMergeNode in="shadowMatrixOuter1"></feMergeNode>
                <feMergeNode in="shadowMatrixOuter2"></feMergeNode>
            </feMerge>
        </filter>
        <path d="M6.13211402,11.2688979 L10.8422354,11.5297995 C11.562075,11.4497464 11.7406967,10.9613193 11.2389527,10.443935 L0.591868541,0.301190754 C0.0905803995,-0.216377736 0.0269163636,-0.0499300062 0.0256689588,0.670145757 L2.29782166e-06,14.9845005 C-0.00119676849,15.7053522 0.467038737,15.932432 1.04000173,15.490159 L3.78168123,12.217739 C3.87724299,12.1438668 3.98988305,12.0715788 4.10864258,12 L7.07900942,19.5168621 C7.24412875,19.9268592 7.74262137,20.1120195 8.19190947,19.929965 C8.64097423,19.7493265 8.87107252,19.2695313 8.70554568,18.8604942 L5.73444213,11.3418087 L6.13211402,11.2688979 Z" id="path-24"></path>
        <filter x="-65.1%" y="-22.5%" width="230.2%" height="175.0%" filterUnits="objectBoundingBox" id="filter-25">
            <feMorphology radius="1" operator="dilate" in="SourceAlpha" result="shadowSpreadOuter1"></feMorphology>
            <feOffset dx="0" dy="1" in="shadowSpreadOuter1" result="shadowOffsetOuter1"></feOffset>
            <feGaussianBlur stdDeviation="0.5" in="shadowOffsetOuter1" result="shadowBlurOuter1"></feGaussianBlur>
            <feComposite in="shadowBlurOuter1" in2="SourceAlpha" operator="out" result="shadowBlurOuter1"></feComposite>
            <feColorMatrix values="0 0 0 0 0   0 0 0 0 0   0 0 0 0 0  0 0 0 0.582908741 0" type="matrix" in="shadowBlurOuter1" result="shadowMatrixOuter1"></feColorMatrix>
            <feMorphology radius="1" operator="dilate" in="SourceAlpha" result="shadowSpreadOuter2"></feMorphology>
            <feOffset dx="0" dy="2" in="shadowSpreadOuter2" result="shadowOffsetOuter2"></feOffset>
            <feGaussianBlur stdDeviation="1.5" in="shadowOffsetOuter2" result="shadowBlurOuter2"></feGaussianBlur>
            <feComposite in="shadowBlurOuter2" in2="SourceAlpha" operator="out" result="shadowBlurOuter2"></feComposite>
            <feColorMatrix values="0 0 0 0 0   0 0 0 0 0   0 0 0 0 0  0 0 0 0.179347826 0" type="matrix" in="shadowBlurOuter2" result="shadowMatrixOuter2"></feColorMatrix>
            <feMerge>
                <feMergeNode in="shadowMatrixOuter1"></feMergeNode>
                <feMergeNode in="shadowMatrixOuter2"></feMergeNode>
            </feMerge>
        </filter>
    </defs>
    <g id="Artboard-page" stroke="none" stroke-width="1" fill="none" fill-rule="evenodd">
        <g id="WikimediaUI-Overview" transform="translate(-5038.000000, -255.000000)">
            <g id="CHECKBOXES-DESKTOP" transform="translate(5038.000000, 186.000000)">
                <g id="Checkbox-X" transform="translate(0.000000, 37.000000)">
                    <path d="M175,375.5 L377,375.5" id="Line-Copy-86" stroke="#50E3C2" stroke-linecap="square" stroke-dasharray="1,3"></path>
                    <path d="M175,584.5 L377,584.5" id="Line-Copy-87" stroke="#50E3C2" stroke-linecap="square" stroke-dasharray="1,3"></path>
                    <path d="M175,511.5 L377,511.5" id="Line-Copy-88" stroke="#50E3C2" stroke-linecap="square" stroke-dasharray="1,3"></path>
                    <path d="M175,410 L377,410" id="Line-Copy-85" stroke="#50E3C2" stroke-linecap="square" stroke-dasharray="1,3"></path>
                    <text id="DISABLED-NORMAL-:HOV" font-family="Lato-Regular, Lato" font-size="14" font-weight="normal" line-spacing="18.7999992" fill="#72777D">
                        <tspan x="0" y="62"> DISABLED</tspan>
                        <tspan x="0" y="80.7999992"></tspan>
                        <tspan x="0" y="99.5999985"></tspan>
                        <tspan x="0" y="118.399998"> NORMAL</tspan>
                        <tspan x="0" y="137.199997"></tspan>
                        <tspan x="0" y="155.999996"></tspan>
                        <tspan x="0" y="174.799995">:HOVER</tspan>
                        <tspan x="0" y="193.599995"></tspan>
                        <tspan x="0" y="212.399994"></tspan>
                        <tspan x="0" y="231.199993">:ACTIVE</tspan>
                        <tspan x="0" y="249.999992"></tspan>
                        <tspan x="0" y="268.799992"></tspan>
                        <tspan x="0" y="287.599991">:FOCUS</tspan>
                    </text>
                    <g id="Checkbox-/-!default" transform="translate(194.000000, 419.000000)">
                        <text id="8:16:8:16-copy-15" font-family="HelveticaNeue, Helvetica Neue" font-size="16" font-weight="normal" fill="#222222">
                            <tspan x="33" y="22">Option 2</tspan>
                        </text>
                        <g id="Checkbox-:normal" stroke-width="1" fill-rule="evenodd" transform="translate(0.000000, 4.000000)">
                            <g id="Mediawiki.Neutral.Hover-copy-9">
                                <use fill="#FFFFFF" fill-rule="evenodd" xlink:href="#path-1"></use>
                                <rect stroke="#72777D" stroke-width="1" x="-0.5" y="-0.5" width="25" height="25" rx="2"></rect>
                            </g>
                        </g>
                    </g>
                    <g id="-101-/-1em-+-2*0,25em" transform="translate(182.000000, 57.000000) rotate(270.000000) translate(-182.000000, -57.000000) translate(170.000000, 55.000000)" stroke-linecap="square">
                        <g>
                            <g id="101-/-1em" transform="translate(4.000000, 0.000000)" stroke="#D0011B">
                                <path d="M0.5,0.5 L15.5,0.5" id="1em"></path>
                                <path d="M0.5,1.5 L15.5,1.5" id="1em-copy"></path>
                                <path d="M0.5,2.5 L15.5,2.5" id="1em-copy-2"></path>
                                <path d="M0.5,3.5 L15.5,3.5" id="1em-copy-3"></path>
                            </g>
                            <g id="101-/-0.25em" transform="translate(20.000000, 0.000000)" stroke="#F6A623">
                                <path d="M0.5,0.5 L3.5,0.5" id="0.25em"></path>
                                <path d="M0.5,1.5 L3.5,1.5" id="0.25em-copy"></path>
                                <path d="M0.5,2.5 L3.5,2.5" id="0.25em-copy-2"></path>
                                <path d="M0.5,3.5 L3.5,3.5" id="0.25em-copy-3"></path>
                            </g>
                            <g id="101-/-0.25em" stroke="#F6A623">
                                <path d="M0.5,0.5 L3.5,0.5" id="0.25em"></path>
                                <path d="M0.5,1.5 L3.5,1.5" id="0.25em-copy"></path>
                                <path d="M0.5,2.5 L3.5,2.5" id="0.25em-copy-2"></path>
                                <path d="M0.5,3.5 L3.5,3.5" id="0.25em-copy-3"></path>
                            </g>
                        </g>
                    </g>
                    <g id="Checkbox-/-!default" transform="translate(194.000000, 377.000000)">
                        <text id="8:16:8:16-copy-15" font-family="HelveticaNeue, Helvetica Neue" font-size="16" font-weight="normal" fill="#222222">
                            <tspan x="33" y="22">Option 1</tspan>
                        </text>
                        <g id="Checkbox-:normal" stroke-width="1" fill-rule="evenodd" transform="translate(0.000000, 4.000000)">
                            <g id="Mediawiki.Neutral.Hover-copy-9">
                                <use fill="#FFFFFF" fill-rule="evenodd" xlink:href="#path-2"></use>
                                <rect stroke="#72777D" stroke-width="1" x="-0.5" y="-0.5" width="25" height="25" rx="2"></rect>
                            </g>
                        </g>
                    </g>
                    <g id="101-/-0.5em" transform="translate(219.000000, 391.000000)" stroke="#50E3C2" stroke-linecap="square">
                        <path d="M0.5,1.5 L7.5,1.5" id="0.5em"></path>
                        <path d="M0.5,0.5 L7.5,0.5" id="0.5em-copy"></path>
                        <path d="M0.5,3.5 L7.5,3.5" id="0.5em-copy-2"></path>
                        <path d="M0.5,2.5 L7.5,2.5" id="0.5em-copy-3"></path>
                    </g>
                    <g id="101-/-0.5em" transform="translate(219.000000, 433.000000)" stroke="#50E3C2" stroke-linecap="square">
                        <path d="M0.5,1.5 L7.5,1.5" id="0.5em"></path>
                        <path d="M0.5,0.5 L7.5,0.5" id="0.5em-copy"></path>
                        <path d="M0.5,3.5 L7.5,3.5" id="0.5em-copy-2"></path>
                        <path d="M0.5,2.5 L7.5,2.5" id="0.5em-copy-3"></path>
                    </g>
                    <g id="Checkbox-/-:checked-/-:disabled" transform="translate(482.000000, 41.000000)">
                        <text id="8:16:8:16-copy-21" font-family="HelveticaNeue, Helvetica Neue" font-size="16" font-weight="normal" fill="#7D8389">
                            <tspan x="33" y="22">Neutral point</tspan>
                        </text>
                        <g id="Mediawiki.Neutral.Hover-copy-10-+-Imported-Layers-Copy-2" stroke-width="1" fill-rule="evenodd" transform="translate(0.000000, 4.000000)">
                            <g id="Mediawiki.Neutral.Hover-copy-10">
                                <use fill="#C8CCD1" fill-rule="evenodd" xlink:href="#path-3"></use>
                                <rect stroke="#C8CCD1" stroke-width="1" x="-0.5" y="-0.5" width="25" height="25" rx="2"></rect>
                            </g>
                            <path d="M17.3507326,7.08890983 L10.3397436,14.0860823 L6.95512821,10.7181904 L5.33333333,12.3367892 L10.3397436,17.3333333 L20,7.69211436 L19.4157509,7.08890983 C18.8516484,6.52591894 17.9249084,6.52591894 17.3507326,7.08890983 Z" id="Imported-Layers-Copy-2" fill="#FFFFFF"></path>
                        </g>
                    </g>
                    <g id="Checkbox-/-:checked-/-:hover" transform="translate(482.000000, 153.000000)">
                        <text id="8:16:8:16-copy-16" font-family="HelveticaNeue, Helvetica Neue" font-size="16" font-weight="normal" fill="#222222">
                            <tspan x="32" y="22">Neutral point</tspan>
                        </text>
                        <g id="Mediawiki.Neutral.Hover-copy-12-+-Imported-Layers-Copy-3" stroke-width="1" fill-rule="evenodd" transform="translate(0.000000, 4.000000)">
                            <g id="Mediawiki.Neutral.Hover-copy-12">
                                <use fill="#447FF5" fill-rule="evenodd" xlink:href="#path-4"></use>
                                <rect stroke="#447FF5" stroke-width="1" x="-0.5" y="-0.5" width="25" height="25" rx="2"></rect>
                            </g>
                            <path d="M17.3507326,7.08890983 L10.3397436,14.0860823 L6.95512821,10.7181904 L5.33333333,12.3367892 L10.3397436,17.3333333 L20,7.69211436 L19.4157509,7.08890983 C18.8516484,6.52591894 17.9249084,6.52591894 17.3507326,7.08890983 Z" id="Imported-Layers-Copy-3" fill="#FFFFFF"></path>
                        </g>
                    </g>
                    <g id="Checkbox-/-:checked-/-:active" transform="translate(482.000000, 209.000000)">
                        <text id="8:16:8:16-copy-16" font-family="HelveticaNeue, Helvetica Neue" font-size="16" font-weight="normal" fill="#222222">
                            <tspan x="33" y="22">Neutral point</tspan>
                        </text>
                        <g id="Mediawiki.Neutral.Hover-copy-14-+-Imported-Layers-Copy-4" stroke-width="1" fill-rule="evenodd" transform="translate(0.000000, 4.000000)">
                            <g id="Mediawiki.Neutral.Hover-copy-14">
                                <use fill="#1F4999" fill-rule="evenodd" xlink:href="#path-5"></use>
                                <rect stroke="#1F4999" stroke-width="1" x="-0.5" y="-0.5" width="25" height="25" rx="2"></rect>
                            </g>
                            <path d="M19.4157509,7.08890983 C18.8516484,6.52591894 17.9249084,6.52591894 17.3507326,7.08890983 L10.3397436,14.0860823 L6.95512821,10.7181904 L5.33333333,12.3367892 L10.3397436,17.3333333 L20,7.69211436 L19.4157509,7.08890983" id="Imported-Layers-Copy-4" fill="#FFFFFF"></path>
                        </g>
                    </g>
                    <g id="Checkbox-/-:checked-/-:focus" transform="translate(482.000000, 265.000000)">
                        <text id="8:16:8:16-copy-20" font-family="HelveticaNeue, Helvetica Neue" font-size="16" font-weight="normal" fill="#222222">
                            <tspan x="33" y="22">Neutral point</tspan>
                        </text>
                        <g id="Mediawiki.Neutral.Hover-copy-2-+-Imported-Layers-Copy-5" stroke-width="1" fill-rule="evenodd" transform="translate(0.000000, 4.000000)">
                            <g id="Mediawiki.Neutral.Hover-copy-2">
                                <use fill="#3366CC" fill-rule="evenodd" xlink:href="#path-6"></use>
                                <rect stroke="#FFFFFF" stroke-width="2" x="1" y="1" width="22" height="22" rx="2"></rect>
                                <rect stroke="#3366CC" stroke-width="1" x="-0.5" y="-0.5" width="25" height="25" rx="2"></rect>
                                <rect stroke="#3366CC" stroke-width="1" x="0.5" y="0.5" width="23" height="23" rx="2"></rect>
                            </g>
                            <path d="M17.3507326,7.7555765 L10.3397436,14.752749 L6.95512821,11.3848571 L5.33333333,13.0034559 L10.3397436,18 L20,8.35878102 L19.4157509,7.7555765 C18.8516484,7.19258561 17.9249084,7.19258561 17.3507326,7.7555765 Z" id="Checkmark" fill="#FFFFFF"></path>
                        </g>
                    </g>
                    <g id="Checkbox-/-:checked-/-!default" transform="translate(482.000000, 96.000000)">
                        <text id="Neutral-point" font-family="HelveticaNeue, Helvetica Neue" font-size="16" font-weight="normal" fill="#222222">
                            <tspan x="33" y="23">Neutral point</tspan>
                        </text>
                        <g id="Mediawiki.Neutral.Hover-copy-8-+-Imported-Layers-Copy" stroke-width="1" fill-rule="evenodd" transform="translate(0.000000, 5.000000)">
                            <g id="Mediawiki.Neutral.Hover-copy-8">
                                <use fill="#3366CC" fill-rule="evenodd" xlink:href="#path-7"></use>
                                <rect stroke="#3366CC" stroke-width="1" x="-0.5" y="-0.5" width="25" height="25" rx="2"></rect>
                            </g>
                            <path d="M19.4157509,7.08890983 C18.8516484,6.52591894 17.9249084,6.52591894 17.3507326,7.08890983 L10.3397436,14.0860823 L6.95512821,10.7181904 L5.33333333,12.3367892 L10.3397436,17.3333333 L20,7.69211436 L19.4157509,7.08890983" id="Imported-Layers-Copy" fill="#FFFFFF"></path>
                        </g>
                    </g>
                    <g id="Checkbox-/-:disabled" transform="translate(194.000000, 41.000000)">
                        <text id="8:16:8:16-copy-17" font-family="HelveticaNeue, Helvetica Neue" font-size="16" font-weight="normal" fill="#7D8389">
                            <tspan x="33" y="22">Neutral point</tspan>
                        </text>
                        <g id="Mediawiki.Neutral.Hover-copy-11">
                            <use fill="#C8CCD1" fill-rule="evenodd" xlink:href="#path-8"></use>
                            <rect stroke="#C8CCD1" stroke-width="1" x="-0.5" y="3.5" width="25" height="25" rx="2"></rect>
                        </g>
                    </g>
                    <g id="Checkbox-/-:active" transform="translate(194.000000, 209.000000)">
                        <text id="8:16:8:16-copy-16" font-family="HelveticaNeue, Helvetica Neue" font-size="16" font-weight="normal" fill="#222222">
                            <tspan x="33" y="22">Neutral point</tspan>
                        </text>
                        <g id="Mediawiki.Neutral.Hover-copy-15">
                            <use fill="#2A4B8D" fill-rule="evenodd" xlink:href="#path-9"></use>
                            <rect stroke="#2A4B8D" stroke-width="1" x="-0.5" y="3.5" width="25" height="25" rx="2"></rect>
                            <rect stroke="#2A4B8D" stroke-width="1" x="0.5" y="4.5" width="23" height="23" rx="2"></rect>
                        </g>
                    </g>
                    <g id="Checkbox-/-:hover" transform="translate(194.000000, 153.000000)">
                        <text id="8:16:8:16-copy-16" font-family="HelveticaNeue, Helvetica Neue" font-size="16" font-weight="normal" fill="#222222">
                            <tspan x="32" y="22">Neutral point</tspan>
                        </text>
                        <rect id="Mediawiki.Neutral.Hover-copy-13" stroke="#2962CC" stroke-width="1" x="-0.5" y="3.5" width="25" height="25" rx="2"></rect>
                    </g>
                    <g id="Checkbox-/-:focus" transform="translate(194.000000, 265.000000)">
                        <text id="8:16:8:16-copy-18" font-family="HelveticaNeue, Helvetica Neue" font-size="16" font-weight="normal" fill="#222222">
                            <tspan x="33" y="22">Neutral point</tspan>
                        </text>
                        <g id="Mediawiki.Neutral.Hover-copy-16" stroke="#3366CC" stroke-width="1">
                            <rect x="0.5" y="4.5" width="23" height="23" rx="2"></rect>
                            <rect x="-0.5" y="3.5" width="25" height="25" rx="2"></rect>
                        </g>
                    </g>
                    <g id="Checkbox-/-!default" transform="translate(194.000000, 97.000000)">
                        <text id="8:16:8:16-copy-15" font-family="HelveticaNeue, Helvetica Neue" font-size="16" font-weight="normal" fill="#222222">
                            <tspan x="33" y="22">Neutral point</tspan>
                        </text>
                        <g id="Checkbox-:normal" stroke-width="1" fill-rule="evenodd" transform="translate(0.000000, 4.000000)">
                            <g id="Mediawiki.Neutral.Hover-copy-9">
                                <use fill="#FFFFFF" fill-rule="evenodd" xlink:href="#path-11"></use>
                                <rect stroke="#72777D" stroke-width="1" x="-0.5" y="-0.5" width="25" height="25" rx="2"></rect>
                            </g>
                        </g>
                    </g>
                    <g id="Checkbox-/-!default" transform="translate(194.000000, 683.000000)">
                        <text id="8:16:8:16-copy-15" font-family="HelveticaNeue, Helvetica Neue" font-size="16" font-weight="normal" fill="#222222">
                            <tspan x="33" y="22">Checkbox label</tspan>
                        </text>
                        <g id="Checkbox-:normal" stroke-width="1" fill-rule="evenodd" transform="translate(0.000000, 4.000000)">
                            <g id="Mediawiki.Neutral.Hover-copy-9">
                                <use fill="#FFFFFF" fill-rule="evenodd" xlink:href="#path-12"></use>
                                <rect stroke="#72777D" stroke-width="1" x="-0.5" y="-0.5" width="25" height="25" rx="2"></rect>
                            </g>
                        </g>
                    </g>
                    <rect id="Rectangle-2" fill-opacity="0.4" fill="#FFB60D" style="mix-blend-mode: multiply;" x="193" y="683" width="32" height="32"></rect>
                    <g id="Checkbox-/--multiliner" transform="translate(194.000000, 508.000000)">
                        <g id="Checkbox-/-!default" transform="translate(1.000000, 5.000000)">
                            <text id="8:16:8:16-copy-15" font-family="HelveticaNeue, Helvetica Neue" font-size="16" font-weight="normal" fill="#222222">
                                <tspan x="33" y="22">Neutral point</tspan>
                            </text>
                            <g id="Checkbox-:normal" stroke-width="1" fill-rule="evenodd" transform="translate(0.000000, 4.000000)">
                                <g id="Mediawiki.Neutral.Hover-copy-9">
                                    <use fill="#FFFFFF" fill-rule="evenodd" xlink:href="#path-13"></use>
                                    <rect stroke="#72777D" stroke-width="1" x="-0.5" y="-0.5" width="25" height="25" rx="2"></rect>
                                </g>
                            </g>
                        </g>
                        <rect id="Rectangle" fill="#FFFFFF" fill-rule="evenodd" x="32" y="0" width="170" height="61"></rect>
                        <text id="Option-title-Copy-4" font-family="HelveticaNeue, Helvetica Neue" font-size="14" font-weight="normal" line-spacing="20" fill="#222222">
                            <tspan x="33" y="34">Option with a really long</tspan>
                            <tspan x="33" y="54.3919983">label today</tspan>
                        </text>
                        <text id="Option-title" font-family="HelveticaNeue, Helvetica Neue" font-size="16" font-weight="normal" fill="#222222">
                            <tspan x="33" y="15">Option title</tspan>
                        </text>
                    </g>
                    <path d="M206,406 L206,422" id="1em" stroke="#D0011B" stroke-width="4"></path>
                    <path d="M296,568 L296,584" id="1em" stroke="#D0011B" stroke-width="4"></path>
                    <path d="M377.5,375.5 L377.5,410.514282" id="Line" stroke="#979797" stroke-linecap="square"></path>
                    <path id="Line-decoration-1" d="M380.5,375.5 L374.5,375.5" stroke="#979797" stroke-linecap="square"></path>
                    <path id="Line-decoration-2" d="M380.5,410.514282 L374.5,410.514282" stroke="#979797" stroke-linecap="square"></path>
                    <text id="`vertical-align:-mid" font-family="Lato-Regular, Lato" font-size="12" font-weight="normal" fill="#D0011B">
                        <tspan x="383" y="398">`vertical-align: middle` one-liner text</tspan>
                    </text>
                    <text id="`vertical-align:-top" font-family="Lato-Regular, Lato" font-size="12" font-weight="normal" fill="#D0011B">
                        <tspan x="383" y="521">`vertical-align: top` 2 lines or more text </tspan>
                    </text>
                    <text id="touch-area-features" font-family="Lato-Regular, Lato" font-size="12" font-weight="normal" fill="#D0011B">
                        <tspan x="383" y="706">touch area features `width: 2em;` `height: 2em;`</tspan>
                    </text>
                    <g id="Cursor-/-Pointer" transform="translate(499.000000, 229.000000)">
                        <g id="Cursor-Pointer">
                            <use fill="black" fill-opacity="1" filter="url(#filter-15)" xlink:href="#path-14"></use>
                            <use fill="#FFFFFF" fill-rule="evenodd" xlink:href="#path-14"></use>
                            <path stroke="#000000" stroke-width="1" d="M18.095452,12.3777591 C18.0948912,11.4475593 17.3335344,10.6960268 16.3978922,10.6960268 C16.10688,10.6960268 15.8327664,10.7687518 15.5931989,10.8969793 C15.3133259,10.0818718 14.5229268,9.49766674 13.5963856,9.49766674 C13.1672561,9.49766674 12.7687636,9.62309774 12.4371411,9.83891321 C12.2017759,8.95226109 11.3696842,8.29930669 10.3928923,8.29930669 C9.99458465,8.29930669 9.62275187,8.40813447 9.30654522,8.59739976 L9.30654522,1.42515249 C9.30654522,0.365060667 8.4475222,-0.5 7.39619224,-0.5 C6.34627404,-0.5 5.49863882,0.364390213 5.49863882,1.42515249 L5.49863882,14.9990679 L2.79149833,11.4981494 C2.33990048,10.7256484 1.25796465,10.4579954 0.408016869,10.9372976 C-0.448495824,11.4208575 -0.757186346,12.4871638 -0.266517693,13.3181807 C-0.221942375,13.3880215 -0.221942375,13.3880215 -0.0679723281,13.6265707 C0.137397398,13.944607 0.248691135,14.1168648 0.428630429,14.3951327 C0.942759518,15.1902097 1.45803808,15.9852984 1.94061413,16.727459 C1.95455156,16.7488931 1.95455156,16.7488931 1.96848974,16.7703263 C2.72477886,17.9332706 3.32594411,18.8510815 3.71509077,19.4347338 C3.97897576,19.8305154 4.25954481,20.2204113 4.73613542,20.8635322 C4.77572637,20.916944 4.77572637,20.916944 4.81529743,20.9702918 C6.19563371,22.8309976 6.66859982,23.5786103 6.66859982,24 L6.66859982,24.5 L7.16859982,24.5 L15.1579335,24.5 L15.6579335,24.5 L15.6579335,24 C15.6579335,23.4442918 15.8127426,23.093397 16.8234169,21.1474064 C17.5230199,19.8003644 17.8804952,18.9306924 18.0348962,17.9890448 C18.0788416,17.7210344 18.1014521,17.45899 18.1014521,17.2018266 L18.1014521,13.9627346 L18.095452,12.3777591 L18.095452,12.3777591 Z"></path>
                        </g>
                    </g>
                    <g id="Cursor-/-Pointer" transform="translate(499.000000, 173.000000)">
                        <g id="Cursor-Pointer">
                            <use fill="black" fill-opacity="1" filter="url(#filter-17)" xlink:href="#path-16"></use>
                            <use fill="#FFFFFF" fill-rule="evenodd" xlink:href="#path-16"></use>
                            <path stroke="#000000" stroke-width="1" d="M18.095452,12.3777591 C18.0948912,11.4475593 17.3335344,10.6960268 16.3978922,10.6960268 C16.10688,10.6960268 15.8327664,10.7687518 15.5931989,10.8969793 C15.3133259,10.0818718 14.5229268,9.49766674 13.5963856,9.49766674 C13.1672561,9.49766674 12.7687636,9.62309774 12.4371411,9.83891321 C12.2017759,8.95226109 11.3696842,8.29930669 10.3928923,8.29930669 C9.99458465,8.29930669 9.62275187,8.40813447 9.30654522,8.59739976 L9.30654522,1.42515249 C9.30654522,0.365060667 8.4475222,-0.5 7.39619224,-0.5 C6.34627404,-0.5 5.49863882,0.364390213 5.49863882,1.42515249 L5.49863882,14.9990679 L2.79149833,11.4981494 C2.33990048,10.7256484 1.25796465,10.4579954 0.408016869,10.9372976 C-0.448495824,11.4208575 -0.757186346,12.4871638 -0.266517693,13.3181807 C-0.221942375,13.3880215 -0.221942375,13.3880215 -0.0679723281,13.6265707 C0.137397398,13.944607 0.248691135,14.1168648 0.428630429,14.3951327 C0.942759518,15.1902097 1.45803808,15.9852984 1.94061413,16.727459 C1.95455156,16.7488931 1.95455156,16.7488931 1.96848974,16.7703263 C2.72477886,17.9332706 3.32594411,18.8510815 3.71509077,19.4347338 C3.97897576,19.8305154 4.25954481,20.2204113 4.73613542,20.8635322 C4.77572637,20.916944 4.77572637,20.916944 4.81529743,20.9702918 C6.19563371,22.8309976 6.66859982,23.5786103 6.66859982,24 L6.66859982,24.5 L7.16859982,24.5 L15.1579335,24.5 L15.6579335,24.5 L15.6579335,24 C15.6579335,23.4442918 15.8127426,23.093397 16.8234169,21.1474064 C17.5230199,19.8003644 17.8804952,18.9306924 18.0348962,17.9890448 C18.0788416,17.7210344 18.1014521,17.45899 18.1014521,17.2018266 L18.1014521,13.9627346 L18.095452,12.3777591 L18.095452,12.3777591 Z"></path>
                        </g>
                    </g>
                    <g id="Cursor-/-!default" transform="translate(506.000000, 60.000000)">
                        <g id="cursor">
                            <use fill="black" fill-opacity="1" filter="url(#filter-19)" xlink:href="#path-18"></use>
                            <use fill="#000000" fill-rule="evenodd" xlink:href="#path-18"></use>
                            <path stroke="#FFFFFF" stroke-width="1" d="M6.44805157,11.7871647 L10.8145819,12.0290342 C12.0289467,11.9009082 12.390083,10.912736 11.5978897,10.0958485 L0.936743625,-0.0608329699 C0.490703685,-0.521940513 0.196479729,-0.698622715 -0.202577288,-0.35941243 C-0.447188468,-0.15148568 -0.473259969,0.051426302 -0.474330291,0.669279596 L-0.499996898,14.983604 C-0.501889691,16.1215055 0.444640548,16.5813536 1.34552169,15.8859589 L1.42326646,15.8112636 L3.90605662,12.8478493 L6.61399912,19.7006158 C6.8877013,20.3802565 7.68317947,20.6755944 8.37968284,20.3933668 C9.07500287,20.1136726 9.44237709,19.3483989 9.16903318,18.6729326 L6.44805157,11.7871647 Z"></path>
                        </g>
                    </g>
                    <g id="Cursor-/-Pointer" transform="translate(211.000000, 173.000000)">
                        <g id="Cursor-Pointer">
                            <use fill="black" fill-opacity="1" filter="url(#filter-21)" xlink:href="#path-20"></use>
                            <use fill="#FFFFFF" fill-rule="evenodd" xlink:href="#path-20"></use>
                            <path stroke="#000000" stroke-width="1" d="M18.095452,12.3777591 C18.0948912,11.4475593 17.3335344,10.6960268 16.3978922,10.6960268 C16.10688,10.6960268 15.8327664,10.7687518 15.5931989,10.8969793 C15.3133259,10.0818718 14.5229268,9.49766674 13.5963856,9.49766674 C13.1672561,9.49766674 12.7687636,9.62309774 12.4371411,9.83891321 C12.2017759,8.95226109 11.3696842,8.29930669 10.3928923,8.29930669 C9.99458465,8.29930669 9.62275187,8.40813447 9.30654522,8.59739976 L9.30654522,1.42515249 C9.30654522,0.365060667 8.4475222,-0.5 7.39619224,-0.5 C6.34627404,-0.5 5.49863882,0.364390213 5.49863882,1.42515249 L5.49863882,14.9990679 L2.79149833,11.4981494 C2.33990048,10.7256484 1.25796465,10.4579954 0.408016869,10.9372976 C-0.448495824,11.4208575 -0.757186346,12.4871638 -0.266517693,13.3181807 C-0.221942375,13.3880215 -0.221942375,13.3880215 -0.0679723281,13.6265707 C0.137397398,13.944607 0.248691135,14.1168648 0.428630429,14.3951327 C0.942759518,15.1902097 1.45803808,15.9852984 1.94061413,16.727459 C1.95455156,16.7488931 1.95455156,16.7488931 1.96848974,16.7703263 C2.72477886,17.9332706 3.32594411,18.8510815 3.71509077,19.4347338 C3.97897576,19.8305154 4.25954481,20.2204113 4.73613542,20.8635322 C4.77572637,20.916944 4.77572637,20.916944 4.81529743,20.9702918 C6.19563371,22.8309976 6.66859982,23.5786103 6.66859982,24 L6.66859982,24.5 L7.16859982,24.5 L15.1579335,24.5 L15.6579335,24.5 L15.6579335,24 C15.6579335,23.4442918 15.8127426,23.093397 16.8234169,21.1474064 C17.5230199,19.8003644 17.8804952,18.9306924 18.0348962,17.9890448 C18.0788416,17.7210344 18.1014521,17.45899 18.1014521,17.2018266 L18.1014521,13.9627346 L18.095452,12.3777591 L18.095452,12.3777591 Z"></path>
                        </g>
                    </g>
                    <g id="Cursor-/-Pointer" transform="translate(211.000000, 229.000000)">
                        <g id="Cursor-Pointer">
                            <use fill="black" fill-opacity="1" filter="url(#filter-23)" xlink:href="#path-22"></use>
                            <use fill="#FFFFFF" fill-rule="evenodd" xlink:href="#path-22"></use>
                            <path stroke="#000000" stroke-width="1" d="M18.095452,12.3777591 C18.0948912,11.4475593 17.3335344,10.6960268 16.3978922,10.6960268 C16.10688,10.6960268 15.8327664,10.7687518 15.5931989,10.8969793 C15.3133259,10.0818718 14.5229268,9.49766674 13.5963856,9.49766674 C13.1672561,9.49766674 12.7687636,9.62309774 12.4371411,9.83891321 C12.2017759,8.95226109 11.3696842,8.29930669 10.3928923,8.29930669 C9.99458465,8.29930669 9.62275187,8.40813447 9.30654522,8.59739976 L9.30654522,1.42515249 C9.30654522,0.365060667 8.4475222,-0.5 7.39619224,-0.5 C6.34627404,-0.5 5.49863882,0.364390213 5.49863882,1.42515249 L5.49863882,14.9990679 L2.79149833,11.4981494 C2.33990048,10.7256484 1.25796465,10.4579954 0.408016869,10.9372976 C-0.448495824,11.4208575 -0.757186346,12.4871638 -0.266517693,13.3181807 C-0.221942375,13.3880215 -0.221942375,13.3880215 -0.0679723281,13.6265707 C0.137397398,13.944607 0.248691135,14.1168648 0.428630429,14.3951327 C0.942759518,15.1902097 1.45803808,15.9852984 1.94061413,16.727459 C1.95455156,16.7488931 1.95455156,16.7488931 1.96848974,16.7703263 C2.72477886,17.9332706 3.32594411,18.8510815 3.71509077,19.4347338 C3.97897576,19.8305154 4.25954481,20.2204113 4.73613542,20.8635322 C4.77572637,20.916944 4.77572637,20.916944 4.81529743,20.9702918 C6.19563371,22.8309976 6.66859982,23.5786103 6.66859982,24 L6.66859982,24.5 L7.16859982,24.5 L15.1579335,24.5 L15.6579335,24.5 L15.6579335,24 C15.6579335,23.4442918 15.8127426,23.093397 16.8234169,21.1474064 C17.5230199,19.8003644 17.8804952,18.9306924 18.0348962,17.9890448 C18.0788416,17.7210344 18.1014521,17.45899 18.1014521,17.2018266 L18.1014521,13.9627346 L18.095452,12.3777591 L18.095452,12.3777591 Z"></path>
                        </g>
                    </g>
                    <g id="Cursor-/-!default" transform="translate(213.000000, 60.000000)">
                        <g id="cursor">
                            <use fill="black" fill-opacity="1" filter="url(#filter-25)" xlink:href="#path-24"></use>
                            <use fill="#000000" fill-rule="evenodd" xlink:href="#path-24"></use>
                            <path stroke="#FFFFFF" stroke-width="1" d="M6.44805157,11.7871647 L10.8145819,12.0290342 C12.0289467,11.9009082 12.390083,10.912736 11.5978897,10.0958485 L0.936743625,-0.0608329699 C0.490703685,-0.521940513 0.196479729,-0.698622715 -0.202577288,-0.35941243 C-0.447188468,-0.15148568 -0.473259969,0.051426302 -0.474330291,0.669279596 L-0.499996898,14.983604 C-0.501889691,16.1215055 0.444640548,16.5813536 1.34552169,15.8859589 L1.42326646,15.8112636 L3.90605662,12.8478493 L6.61399912,19.7006158 C6.8877013,20.3802565 7.68317947,20.6755944 8.37968284,20.3933668 C9.07500287,20.1136726 9.44237709,19.3483989 9.16903318,18.6729326 L6.44805157,11.7871647 Z"></path>
                        </g>
                    </g>
                </g>
            </g>
        </g>
    </g>
</svg>