<?xml version="1.0" encoding="UTF-8"?>
<svg xmlns="http://www.w3.org/2000/svg" xmlns:xlink="http://www.w3.org/1999/xlink" width="280" height="113" viewBox="0 0 280 113">
	<title>
		checkboxes_indeterminate_intro_on
	</title>
	<defs>
		<polygon id="path-1" points="4 12 16 12 16 10 4 10"/>
	</defs>
	<g id="Artboard-page" fill="none" fill-rule="evenodd" stroke="none" stroke-width="1">
		<g id="WikimediaUI-components_overview" transform="translate(-5514 -1013)">
			<rect width="14720" height="3264" fill="#FFF"/>
			<g id="CHECKBOX-DESKTOP" transform="translate(5038 186)">
				<g id="Checkbox-indeterminate" transform="translate(2 787)">
					<g id="Checkbox-/-:indeterminate:checked-/-!default" transform="translate(480 42)">
						<text id="Label" fill="#222" font-family="HelveticaNeue, Helvetica Neue, sans-serif" font-size="16" font-weight="normal">
							<tspan x="33" y="23">Indeterminate – children selected</tspan>
						</text>
						<g id="Checkbox" fill-rule="evenodd" stroke-width="1" transform="translate(0 5)">
							<rect width="23" height="23" x=".5" y=".5" fill="#36C" stroke="#36C" rx="2"/>
							<g id="🔣-Icon/Interactions/Subtract" transform="translate(2 2)">
								<mask id="mask-2" fill="#fff">
									<use xlink:href="#path-1"/>
								</mask>
								<use id="Mask" fill="#000" fill-rule="evenodd" xlink:href="#path-1"/>
								<g id="🎨-Color/Base100-#fff" fill="#FFF" fill-rule="evenodd" mask="url(#mask-2)">
									<polygon id="Rectangle-1" points="0 0 20 0 20 20 0 20"/>
								</g>
							</g>
						</g>
					</g>
					<g id="Checkbox-/-!default" transform="translate(512 78)">
						<text id="Label" fill="#222" font-family="HelveticaNeue, Helvetica Neue, sans-serif" font-size="16" font-weight="normal">
							<tspan x="33" y="22">Unselected</tspan>
						</text>
						<rect id="checkbox" width="23" height="23" x=".5" y="4.5" fill="#FFF" fill-rule="evenodd" stroke="#72777D" stroke-width="1" rx="2"/>
					</g>
					<g id="Checkbox-/-:checked-/-!default" transform="translate(512 117)">
						<text id="Label" fill="#222" font-family="HelveticaNeue, Helvetica Neue, sans-serif" font-size="16" font-weight="normal">
							<tspan x="33" y="23">Selected</tspan>
						</text>
						<g id="Checkbox" fill-rule="evenodd" stroke-width="1" transform="translate(0 5)">
							<rect id="checkbox" width="23" height="23" x=".5" y=".5" fill="#36C" stroke="#36C" rx="2"/>
							<g id="Icon-/-Checkbox-checkmark" fill="#FFF" fill-rule="nonzero" transform="translate(5 7)">
								<polygon id="Shape" points="4.444 8.433 1.123 5.113 0 6.235 4.444 10.687 14 1.131 12.877 0"/>
							</g>
						</g>
					</g>
					<g id="Checkbox-/-!default" transform="translate(192 43)">
						<text id="Label" fill="#222" font-family="HelveticaNeue, Helvetica Neue, sans-serif" font-size="16" font-weight="normal">
							<tspan x="33" y="22">Neutral point</tspan>
						</text>
						<rect id="checkbox" width="23" height="23" x=".5" y="4.5" fill="#FFF" fill-rule="evenodd" stroke="#72777D" stroke-width="1" rx="2"/>
					</g>
				</g>
			</g>
		</g>
	</g>
</svg>
