<?xml version="1.0" encoding="UTF-8"?>
<svg xmlns="http://www.w3.org/2000/svg" xmlns:xlink="http://www.w3.org/1999/xlink" width="287" height="58" viewBox="0 0 287 58">
	<title>
		comboboxes_designing
	</title>
	<defs>
		<circle id="path-1" cx="10" cy="10" r="10"/>
	</defs>
	<g id="Artboard-page" fill="none" fill-rule="evenodd" stroke="none" stroke-width="1">
		<g id="WikimediaUI-components_overview" transform="translate(-10377 -1344)">
			<path fill="#FFF" d="M0 0h14720v3264H0z"/>
			<g id="COMBOBOX-INPUT-FIELD" transform="translate(10190 803)">
				<g id="Designing" transform="translate(188 541)">
					<path id="Mediawiki.Neutral.Normal-copy-30" fill="#F8F9FA" stroke="#A2A9B1" d="M252.5 24.5v31h29.498c.832 0 1.502-.668 1.502-1.502V26.002c0-.832-.668-1.502-1.502-1.502H252.5z"/>
					<path id="Mediawiki.Neutral.Acive-8-Copy" fill="#FFF" stroke="#A2A9B1" d="M252.5 55.5v-31H13.993c-.827 0-1.493.668-1.493 1.502v27.996a1.5 1.5 0 001.493 1.502H252.5z"/>
					<text id="Placeholder-Copy" fill="#72777D" font-family="HelveticaNeue, Helvetica Neue, sans-serif" font-size="16" font-weight="normal">
						<tspan x="48" y="46">Placeholder</tspan>
					</text>
					<g id="🔣-Icon/20x20-sp-placeholder-optional" transform="translate(21 30)">
						<mask id="mask-2" fill="#fff">
							<use xlink:href="#path-1"/>
						</mask>
						<circle cx="10" cy="10" r="9" stroke="#222" stroke-width="2"/>
					</g>
					<g id="Icon-/-Dropdown-indicator-/-!default" fill="#222" transform="translate(262 37)">
						<path id="Shape" d="M12 1.264L10.842 0 6 4.632 1.264 0 0 1.264l6 6 6-6"/>
					</g>
					<text id="Label" fill="#222" font-family="HelveticaNeue, Helvetica Neue, sans-serif" font-size="16" font-weight="normal" transform="translate(13)">
						<tspan x="0" y="15">Label</tspan>
					</text>
					<g id="_Spec-/-8-sp-(0.5-em)" stroke="#50E3C2" stroke-width="4" transform="translate(253 38)">
						<path id="8-sp-(0.5-em)" d="M0 2h8"/>
					</g>
					<g id="_Spec-/-8-sp-(0.5-em)" stroke="#50E3C2" stroke-width="4" transform="translate(13 38)">
						<path id="8-sp-(0.5-em)" d="M0 2h8"/>
					</g>
					<g id="_Spec-/-8-sp-(0.5-em)" stroke="#50E3C2" stroke-width="4" transform="translate(41 38)">
						<path id="8-sp-(0.5-em)" d="M0 2h8"/>
					</g>
					<g id="_Spec-/-8-sp-(0.5-em)" stroke="#50E3C2" stroke-width="4" transform="translate(244 38)">
						<path id="8-sp-(0.5-em)" d="M0 2h8"/>
					</g>
					<g id="_Spec-/-8-sp-(0.5-em)" stroke="#50E3C2" stroke-width="4" transform="translate(275 38)">
						<path id="8-sp-(0.5-em)" d="M0 2h8"/>
					</g>
					<g id="_Spec-/-16-sp-(1-em)-+-2-*-8-sp-(0.5-em)" stroke-width="4" transform="rotate(-90 28 28)">
						<g id="_Spec-/-16-sp-(1-em)" stroke="#D0021B" transform="translate(8)">
							<path id="16-sp-(1-em)" d="M0 2h16"/>
						</g>
						<g id="_Spec-/-8-sp-(0.5-em)" stroke="#50E3C2" transform="translate(0 1)">
							<path id="8-sp-(0.5-em)" d="M0 1h8"/>
						</g>
						<g id="_Spec-/-8-sp-(0.5-em)" stroke="#50E3C2" transform="translate(24)">
							<path id="8-sp-(0.5-em)" d="M0 2h8"/>
						</g>
					</g>
				</g>
			</g>
		</g>
	</g>
</svg>
