<?xml version="1.0" encoding="UTF-8"?>
<svg xmlns="http://www.w3.org/2000/svg" xmlns:xlink="http://www.w3.org/1999/xlink" width="320" height="213" viewBox="0 0 320 213">
	<title>
		Simple Redline
	</title>
	<defs>
		<filter id="filter-2" width="108.7%" height="113.4%" x="-4.3%" y="-5.7%" filterUnits="objectBoundingBox">
			<feOffset dy="2" in="SourceAlpha" result="shadowOffsetOuter1"/>
			<feGaussianBlur in="shadowOffsetOuter1" result="shadowBlurOuter1" stdDeviation="4"/>
			<feColorMatrix in="shadowBlurOuter1" values="0 0 0 0 0 0 0 0 0 0 0 0 0 0 0 0 0 0 0.25 0"/>
		</filter>
		<path id="path-1" d="M0 0h300v194H0z"/>
	</defs>
	<g id="Artboard-page" fill="none" fill-rule="evenodd" stroke="none" stroke-width="1">
		<g id="Simple-Redline" transform="translate(-32 -215)">
			<g id="Simple-Dialog-Stacking-Actions-Copy" transform="translate(40 223)">
				<g id="Rectangle">
					<use xlink:href="#path-1" fill="#000" filter="url(#filter-2)"/>
					<use xlink:href="#path-1" fill="#FFF"/>
				</g>
				<text id="Dialog-content-shoul" fill="#202122" font-family="HelveticaNeue, Helvetica Neue, sans-serif" font-size="16" font-weight="normal">
					<tspan x="23" y="59">Dialog content should aim to fill </tspan> <tspan x="23" y="81">one or two lines</tspan>
				</text>
				<text id="Title" fill="#202122" font-family="HelveticaNeue-Bold, Helvetica Neue, sans-serif" font-size="18" font-weight="bold">
					<tspan x="24" y="36">Title</tspan>
				</text>
				<g id="Button-/---progressive-/-!default" transform="translate(39 99)">
					<rect id="bg" width="236" height="31" x=".5" y=".5" fill="#36C" stroke="#36C" rx="2"/>
					<text id="label" fill="#FFF" font-family="HelveticaNeue-Bold, Helvetica Neue, sans-serif" font-size="16" font-weight="bold">
						<tspan x="12.436" y="20">When the action text is long</tspan>
					</text>
				</g>
				<g id="Button-/-!default-(--neutral)" transform="translate(80 139)">
					<rect id="bg" width="195" height="31" x=".5" y=".5" fill="#F8F9FA" stroke="#A2A9B1" rx="2"/>
					<text id="Label" fill="#202122" font-family="HelveticaNeue-Bold, Helvetica Neue, sans-serif" font-size="16" font-weight="bold">
						<tspan x="12.376" y="20">You may stack actions</tspan>
					</text>
				</g>
			</g>
			<path id="Rectangle-Copy-13" fill="#A65DE7" d="M40 247h24v4H40z"/>
			<path id="Rectangle-Copy-17" fill="#A65DE7" d="M316 389h24v4h-24z"/>
			<path id="Rectangle-Copy-14" fill="#A65DE7" d="M66 223h4v24h-4z"/>
			<path id="Rectangle-Copy-18" fill="#A65DE7" d="M308 393h4v24h-4z"/>
			<path id="Rectangle-Copy-16" fill="#D0021B" d="M83 306h4v16h-4z"/>
			<path id="Rectangle-Copy-15" fill="#0082FF" d="M68 260h4v12h-4z"/>
			<path id="Rectangle-Copy-19" fill="#5AE4C5" d="M233 354h4v8h-4z"/>
		</g>
	</g>
</svg>
