<?xml version="1.0" encoding="UTF-8"?>
<svg xmlns="http://www.w3.org/2000/svg" xmlns:xlink="http://www.w3.org/1999/xlink" width="556" height="386" viewBox="0 0 556 386">
    <defs>
        <rect id="a" width="110" height="32" x="194" y="112" rx="2"/>
        <rect id="b" width="110" height="32" x="194" y="168" rx="2"/>
        <path id="d" d="M17.595 12.379a1.19 1.19 0 0 0-1.197-1.183 1.19 1.19 0 0 0-1.196 1.179v-.826c0-.857-.719-1.551-1.606-1.551-.886 0-1.592.694-1.592 1.55V10.35c0-.856-.728-1.55-1.611-1.55s-1.586.694-1.586 1.55V1.425C8.807.638 8.168 0 7.397 0c-.772 0-1.398.638-1.398 1.425v15.038l-3.603-4.659c-.346-.586-1.126-.779-1.742-.431-.617.348-.836 1.105-.49 1.691 0 0 2.817 4.369 3.967 6.093C5.281 20.882 7.17 23.01 7.17 24h7.989c0-1.672 2.443-4.283 2.443-6.798v-3.24l-.006-1.583z"/>
        <filter id="c" width="185.2%" height="162.5%" x="-42.6%" y="-18.8%" filterUnits="objectBoundingBox">
            <feMorphology in="SourceAlpha" operator="dilate" radius="1" result="shadowSpreadOuter1"/>
            <feOffset dy="1" in="shadowSpreadOuter1" result="shadowOffsetOuter1"/>
            <feGaussianBlur in="shadowOffsetOuter1" result="shadowBlurOuter1" stdDeviation=".5"/>
            <feComposite in="shadowBlurOuter1" in2="SourceAlpha" operator="out" result="shadowBlurOuter1"/>
            <feColorMatrix in="shadowBlurOuter1" result="shadowMatrixOuter1" values="0 0 0 0 0 0 0 0 0 0 0 0 0 0 0 0 0 0 0.582908741 0"/>
            <feMorphology in="SourceAlpha" operator="dilate" radius="1" result="shadowSpreadOuter2"/>
            <feOffset dy="2" in="shadowSpreadOuter2" result="shadowOffsetOuter2"/>
            <feGaussianBlur in="shadowOffsetOuter2" result="shadowBlurOuter2" stdDeviation="1.5"/>
            <feComposite in="shadowBlurOuter2" in2="SourceAlpha" operator="out" result="shadowBlurOuter2"/>
            <feColorMatrix in="shadowBlurOuter2" result="shadowMatrixOuter2" values="0 0 0 0 0 0 0 0 0 0 0 0 0 0 0 0 0 0 0.179347826 0"/>
            <feMerge>
                <feMergeNode in="shadowMatrixOuter1"/>
                <feMergeNode in="shadowMatrixOuter2"/>
            </feMerge>
        </filter>
        <path id="f" d="M17.595 12.379a1.19 1.19 0 0 0-1.197-1.183 1.19 1.19 0 0 0-1.196 1.179v-.826c0-.857-.719-1.551-1.606-1.551-.886 0-1.592.694-1.592 1.55V10.35c0-.856-.728-1.55-1.611-1.55s-1.586.694-1.586 1.55V1.425C8.807.638 8.168 0 7.397 0c-.772 0-1.398.638-1.398 1.425v15.038l-3.603-4.659c-.346-.586-1.126-.779-1.742-.431-.617.348-.836 1.105-.49 1.691 0 0 2.817 4.369 3.967 6.093C5.281 20.882 7.17 23.01 7.17 24h7.989c0-1.672 2.443-4.283 2.443-6.798v-3.24l-.006-1.583z"/>
        <filter id="e" width="185.2%" height="162.5%" x="-42.6%" y="-18.8%" filterUnits="objectBoundingBox">
            <feMorphology in="SourceAlpha" operator="dilate" radius="1" result="shadowSpreadOuter1"/>
            <feOffset dy="1" in="shadowSpreadOuter1" result="shadowOffsetOuter1"/>
            <feGaussianBlur in="shadowOffsetOuter1" result="shadowBlurOuter1" stdDeviation=".5"/>
            <feComposite in="shadowBlurOuter1" in2="SourceAlpha" operator="out" result="shadowBlurOuter1"/>
            <feColorMatrix in="shadowBlurOuter1" result="shadowMatrixOuter1" values="0 0 0 0 0 0 0 0 0 0 0 0 0 0 0 0 0 0 0.582908741 0"/>
            <feMorphology in="SourceAlpha" operator="dilate" radius="1" result="shadowSpreadOuter2"/>
            <feOffset dy="2" in="shadowSpreadOuter2" result="shadowOffsetOuter2"/>
            <feGaussianBlur in="shadowOffsetOuter2" result="shadowBlurOuter2" stdDeviation="1.5"/>
            <feComposite in="shadowBlurOuter2" in2="SourceAlpha" operator="out" result="shadowBlurOuter2"/>
            <feColorMatrix in="shadowBlurOuter2" result="shadowMatrixOuter2" values="0 0 0 0 0 0 0 0 0 0 0 0 0 0 0 0 0 0 0.179347826 0"/>
            <feMerge>
                <feMergeNode in="shadowMatrixOuter1"/>
                <feMergeNode in="shadowMatrixOuter2"/>
            </feMerge>
        </filter>
        <path id="g" d="M196.003 224c-1.106 0-2.003.89-2.003 2.002V256h110v-29.998a1.995 1.995 0 0 0-2.003-2.002H196.003z"/>
        <path id="i" d="M194 256.943v60.008c0 1.1.885 1.992 2.003 1.992h105.994c1.106 0 2.003-.9 2.003-1.992v-60.008H194z"/>
        <filter id="h" width="109.1%" height="116.1%" x="-4.5%" y="-4.8%" filterUnits="objectBoundingBox">
            <feMorphology in="SourceAlpha" operator="dilate" radius="1" result="shadowSpreadOuter1"/>
            <feOffset dy="2" in="shadowSpreadOuter1" result="shadowOffsetOuter1"/>
            <feGaussianBlur in="shadowOffsetOuter1" result="shadowBlurOuter1" stdDeviation="1"/>
            <feComposite in="shadowBlurOuter1" in2="SourceAlpha" operator="out" result="shadowBlurOuter1"/>
            <feColorMatrix in="shadowBlurOuter1" values="0 0 0 0 0 0 0 0 0 0 0 0 0 0 0 0 0 0 0.25 0"/>
        </filter>
        <rect id="j" width="110" height="32" x="194" y="56" rx="2"/>
        <rect id="k" width="110" height="32" x="194" rx="2"/>
        <path id="m" d="M454 256.943v60.008c0 1.1.886 1.992 2 1.992h95c1.105 0 2-.9 2-1.992v-60.008h-99z"/>
        <filter id="l" width="110.1%" height="116.1%" x="-5.1%" y="-4.8%" filterUnits="objectBoundingBox">
            <feMorphology in="SourceAlpha" operator="dilate" radius="1" result="shadowSpreadOuter1"/>
            <feOffset dy="2" in="shadowSpreadOuter1" result="shadowOffsetOuter1"/>
            <feGaussianBlur in="shadowOffsetOuter1" result="shadowBlurOuter1" stdDeviation="1"/>
            <feComposite in="shadowBlurOuter1" in2="SourceAlpha" operator="out" result="shadowBlurOuter1"/>
            <feColorMatrix in="shadowBlurOuter1" values="0 0 0 0 0 0 0 0 0 0 0 0 0 0 0 0 0 0 0.25 0"/>
        </filter>
        <path id="n" d="M456 224c-1.105 0-2 .89-2 2.002V256h99v-29.998a1.995 1.995 0 0 0-2-2.002h-95z"/>
        <path id="o" d="M3.04 0C1.932 0 1.035.89 1.035 2.002V32h114V2.002A2.005 2.005 0 0 0 113.034 0H3.039z"/>
        <path id="q" d="M1.036 32.943v60.008a2 2 0 0 0 2.003 1.992h109.995c1.106 0 2.002-.9 2.002-1.992V32.943h-114z"/>
        <filter id="p" width="108.8%" height="116.1%" x="-4.4%" y="-4.8%" filterUnits="objectBoundingBox">
            <feMorphology in="SourceAlpha" operator="dilate" radius="1" result="shadowSpreadOuter1"/>
            <feOffset dy="2" in="shadowSpreadOuter1" result="shadowOffsetOuter1"/>
            <feGaussianBlur in="shadowOffsetOuter1" result="shadowBlurOuter1" stdDeviation="1"/>
            <feComposite in="shadowBlurOuter1" in2="SourceAlpha" operator="out" result="shadowBlurOuter1"/>
            <feColorMatrix in="shadowBlurOuter1" values="0 0 0 0 0 0 0 0 0 0 0 0 0 0 0 0 0 0 0.25 0"/>
        </filter>
        <path id="s" d="M17.595 12.379a1.19 1.19 0 0 0-1.197-1.183 1.19 1.19 0 0 0-1.196 1.179v-.826c0-.857-.719-1.551-1.606-1.551-.886 0-1.592.694-1.592 1.55V10.35c0-.856-.728-1.55-1.611-1.55s-1.586.694-1.586 1.55V1.425C8.807.638 8.168 0 7.397 0c-.772 0-1.398.638-1.398 1.425v15.038l-3.603-4.659c-.346-.586-1.126-.779-1.742-.431-.617.348-.836 1.105-.49 1.691 0 0 2.817 4.369 3.967 6.093C5.281 20.882 7.17 23.01 7.17 24h7.989c0-1.672 2.443-4.283 2.443-6.798v-3.24l-.006-1.583z"/>
        <filter id="r" width="185.2%" height="162.5%" x="-42.6%" y="-18.8%" filterUnits="objectBoundingBox">
            <feMorphology in="SourceAlpha" operator="dilate" radius="1" result="shadowSpreadOuter1"/>
            <feOffset dy="1" in="shadowSpreadOuter1" result="shadowOffsetOuter1"/>
            <feGaussianBlur in="shadowOffsetOuter1" result="shadowBlurOuter1" stdDeviation=".5"/>
            <feComposite in="shadowBlurOuter1" in2="SourceAlpha" operator="out" result="shadowBlurOuter1"/>
            <feColorMatrix in="shadowBlurOuter1" result="shadowMatrixOuter1" values="0 0 0 0 0 0 0 0 0 0 0 0 0 0 0 0 0 0 0.582908741 0"/>
            <feMorphology in="SourceAlpha" operator="dilate" radius="1" result="shadowSpreadOuter2"/>
            <feOffset dy="2" in="shadowSpreadOuter2" result="shadowOffsetOuter2"/>
            <feGaussianBlur in="shadowOffsetOuter2" result="shadowBlurOuter2" stdDeviation="1.5"/>
            <feComposite in="shadowBlurOuter2" in2="SourceAlpha" operator="out" result="shadowBlurOuter2"/>
            <feColorMatrix in="shadowBlurOuter2" result="shadowMatrixOuter2" values="0 0 0 0 0 0 0 0 0 0 0 0 0 0 0 0 0 0 0.179347826 0"/>
            <feMerge>
                <feMergeNode in="shadowMatrixOuter1"/>
                <feMergeNode in="shadowMatrixOuter2"/>
            </feMerge>
        </filter>
    </defs>
    <g fill="none" fill-rule="evenodd" transform="translate(0 9)">
        <use fill="#FFF" xlink:href="#a"/>
        <rect width="111" height="33" x="193.5" y="111.5" stroke="#A2A9B1" rx="2"/>
        <use fill="#EAECF0" xlink:href="#b"/>
        <rect width="111" height="33" x="193.5" y="167.5" stroke="#72777D" rx="2"/>
        <g transform="translate(283 190)">
            <use fill="#000" filter="url(#c)" xlink:href="#d"/>
            <use fill="#FFF" xlink:href="#d"/>
            <path stroke="#000" d="M18.095 12.378a1.69 1.69 0 0 0-1.697-1.682 1.7 1.7 0 0 0-.805.201 2.102 2.102 0 0 0-1.997-1.4c-.429 0-.827.126-1.159.342-.235-.887-1.067-1.54-2.044-1.54-.398 0-.77.11-1.086.298V1.425c0-1.06-.86-1.925-1.91-1.925-1.05 0-1.898.864-1.898 1.925V15L2.79 11.5c-.451-.773-1.533-1.041-2.383-.562-.856.484-1.165 1.55-.675 2.381l.199.309a1248.604 1248.604 0 0 0 2.036 3.143 341.137 341.137 0 0 0 1.747 2.665c.264.396.545.785 1.021 1.429l.08.106c1.38 1.861 1.853 2.609 1.853 3.03v.5h8.989V24c0-.556.155-.907 1.165-2.853.7-1.347 1.057-2.216 1.212-3.158a4.86 4.86 0 0 0 .066-.787v-3.24l-.006-1.584z"/>
        </g>
        <g transform="translate(283 134)">
            <use fill="#000" filter="url(#e)" xlink:href="#f"/>
            <use fill="#FFF" xlink:href="#f"/>
            <path stroke="#000" d="M18.095 12.378a1.69 1.69 0 0 0-1.697-1.682 1.7 1.7 0 0 0-.805.201 2.102 2.102 0 0 0-1.997-1.4c-.429 0-.827.126-1.159.342-.235-.887-1.067-1.54-2.044-1.54-.398 0-.77.11-1.086.298V1.425c0-1.06-.86-1.925-1.91-1.925-1.05 0-1.898.864-1.898 1.925V15L2.79 11.5c-.451-.773-1.533-1.041-2.383-.562-.856.484-1.165 1.55-.675 2.381l.199.309a1248.604 1248.604 0 0 0 2.036 3.143 341.137 341.137 0 0 0 1.747 2.665c.264.396.545.785 1.021 1.429l.08.106c1.38 1.861 1.853 2.609 1.853 3.03v.5h8.989V24c0-.556.155-.907 1.165-2.853.7-1.347 1.057-2.216 1.212-3.158a4.86 4.86 0 0 0 .066-.787v-3.24l-.006-1.584z"/>
        </g>
        <use fill="#FFF" xlink:href="#g"/>
        <path stroke="#36C" d="M303.5 255.5h-109v-29.498c0-.834.67-1.502 1.503-1.502h105.994c.837 0 1.503.668 1.503 1.502V255.5z"/>
        <path stroke="#36C" d="M196.003 223.5a2.498 2.498 0 0 0-2.503 2.502V256.5h111v-30.498a2.495 2.495 0 0 0-2.503-2.502H196.003z"/>
        <use fill="#000" filter="url(#h)" xlink:href="#i"/>
        <use fill="#FFF" xlink:href="#i"/>
        <path stroke="#A2A9B1" d="M193.5 256.943v60.008a2.49 2.49 0 0 0 2.503 2.492h105.994a2.503 2.503 0 0 0 2.503-2.492v-60.508h-111v.5z"/>
        <use fill="#F8F9FA" xlink:href="#j"/>
        <rect width="111" height="33" x="193.5" y="55.5" stroke="#A2A9B1" rx="2"/>
        <text fill="#222" font-family="HelveticaNeue-Bold, Helvetica Neue" font-size="16" font-weight="bold">
            <tspan x="210.152" y="78">Neutral</tspan>
        </text>
        <text fill="#444" font-family="HelveticaNeue-Bold, Helvetica Neue" font-size="16" font-weight="bold">
            <tspan x="210.152" y="134">Neutral</tspan>
        </text>
        <text fill="#000" font-family="HelveticaNeue-Bold, Helvetica Neue" font-size="16" font-weight="bold">
            <tspan x="210.152" y="190">Neutral</tspan>
        </text>
        <text fill="#222" font-family="HelveticaNeue-Bold, Helvetica Neue" font-size="16" font-weight="bold">
            <tspan x="210.152" y="246">Neutral</tspan>
        </text>
        <path fill="#222" d="M288 70.934l-.54-.544a1.36 1.36 0 0 0-1.905 0L281 74.885l-4.564-4.504c-.526-.52-1.372-.502-1.897.018l-.539.535 7 6.956v-.011.01l7-6.955"/>
        <path fill="#444" d="M288 126.934l-.54-.544a1.36 1.36 0 0 0-1.905 0L281 130.885l-4.564-4.504c-.526-.52-1.372-.502-1.897.018l-.539.535 7 6.956v-.011.01l7-6.955"/>
        <g stroke="#36C">
            <rect width="111" height="33" x="193.5" y="343.5" rx="2"/>
            <rect width="109" height="31" x="194.5" y="344.5" rx="2"/>
        </g>
        <text fill="#222" font-family="HelveticaNeue-Bold, Helvetica Neue" font-size="16" font-weight="bold">
            <tspan x="210.152" y="366">Neutral</tspan>
        </text>
        <path fill="#222" d="M288 357.934l-.54-.544a1.36 1.36 0 0 0-1.905 0L281 361.885l-4.564-4.504c-.526-.52-1.372-.502-1.897.018l-.539.535 7 6.956v-.011.01l7-6.955"/>
        <use fill="#C8CCD1" xlink:href="#k"/>
        <rect width="111" height="33" x="193.5" y="-.5" stroke="#C8CCD1" rx="2"/>
        <text fill="#FFF" font-family="HelveticaNeue-Bold, Helvetica Neue" font-size="16" font-weight="bold">
            <tspan x="210.152" y="22">Neutral</tspan>
        </text>
        <path fill="#FFF" d="M287.46 14.39a1.36 1.36 0 0 0-1.905 0L281 18.885l-4.564-4.504c-.526-.52-1.372-.502-1.897.018l-.539.535 7 6.956 7-6.956-.54-.544z"/>
        <path fill="#000" d="M288 182.934l-.54-.544a1.36 1.36 0 0 0-1.905 0L281 186.885l-4.564-4.504c-.526-.52-1.372-.502-1.897.018l-.539.535 7 6.956v-.011.01l7-6.955"/>
        <path fill="#222" d="M288 238.934l-.54-.544a1.36 1.36 0 0 0-1.905 0L281 242.885l-4.564-4.504c-.526-.52-1.372-.502-1.897.018l-.539.535 7 6.956v-.011.01l7-6.955"/>
        <path stroke="#50E3C2" stroke-linecap="square" d="M215.5 8.5v-7m-1 7v-7m3 7v-7m-1 7v-7m0 223v7m1-7v7m-3-7v7m1-7v7m0-200v-7m-1 7v-7m3 7v-7m-1 7v-7"/>
        <path stroke="#D0011B" stroke-linecap="square" d="M194.5 14.5h15m-15 1h15m-15 1h15m-15 1h15m79-3h15m-15 1h15m-15 1h15m-15 1h15"/>
        <path stroke="#50E3C2" stroke-linecap="square" d="M266.5 15.5h7m-7-1h7m-7 3h7m-7-1h7"/>
        <path stroke="#D0011B" stroke-linecap="square" d="M195.5 239.5h15m-15 1h15m-15 1h15m-15 1h15m78-4h15m-15 1h15m-15 1h15m-15 1h15"/>
        <path stroke="#50E3C2" stroke-linecap="square" d="M266.5 239.5h7m-7-1h7m-7 3h7m-7-1h7"/>
        <text fill="#222" font-family="HelveticaNeue, Helvetica Neue" font-size="14">
            <tspan x="224.314" y="277">Neutral</tspan> <tspan x="211" y="305.314">Neutral 2</tspan>
        </text>
        <use fill="#000" filter="url(#l)" xlink:href="#m"/>
        <use fill="#FFF" xlink:href="#m"/>
        <path stroke="#A2A9B1" d="M453.5 256.943v60.008a2.49 2.49 0 0 0 2.5 2.492h95a2.5 2.5 0 0 0 2.5-2.492v-60.508h-100v.5z"/>
        <path fill="#EBF2FF" d="M454 289h99v28.002a.994.994 0 0 1-.996.998h-97.008c-.55 0-.996-.456-.996-.998V289z"/>
        <use fill="#FFF" xlink:href="#n"/>
        <path stroke="#36C" d="M552.5 255.5h-98v-29.498c0-.834.669-1.502 1.5-1.502h95c.834 0 1.5.669 1.5 1.502V255.5z"/>
        <path stroke="#36C" d="M456 223.5a2.496 2.496 0 0 0-2.5 2.502V256.5h100v-30.498a2.495 2.495 0 0 0-2.5-2.502h-95z"/>
        <text fill="#222" font-family="HelveticaNeue-Bold, Helvetica Neue" font-size="16" font-weight="bold">
            <tspan x="466.152" y="246">Neutral</tspan>
        </text>
        <path fill="#222" d="M540 238.934l-.54-.544a1.36 1.36 0 0 0-1.905 0L533 242.885l-4.564-4.504c-.526-.52-1.372-.502-1.897.018l-.539.535 7 6.956v-.011.01l7-6.955"/>
        <text font-family="HelveticaNeue, Helvetica Neue" font-size="14">
            <tspan x="483.314" y="278" fill="#222">Neutral</tspan> <tspan x="470" y="306.314" fill="#36C">Neutral 2</tspan>
        </text>
        <path stroke="#50E3C2" stroke-linecap="square" d="M216.5 248.5v7m1-7v7m-3-7v7m1-7v7m1 24v7m1-7v7m-3-7v7m1-7v7m1-29v7m1-7v7m-3-7v7m1-7v7m1 24v7m1-7v7m-3-7v7m1-7v7m1 16v7m1-7v7m-3-7v7m1-7v7"/>
        <ellipse cx="201.5" cy="270.5" fill="#36C" rx="2.5" ry="2.5"/>
        <g transform="translate(321 224)">
            <use fill="#FFF" xlink:href="#o"/>
            <path stroke="#36C" d="M114.536 31.5h-113V2.002C1.536 1.168 2.206.5 3.04.5h109.995c.827 0 1.502.674 1.502 1.502V31.5z"/>
            <path stroke="#36C" d="M3.04-.5A2.498 2.498 0 0 0 .535 2.002V32.5h115V2.002A2.505 2.505 0 0 0 113.034-.5H3.039z"/>
            <use fill="#000" filter="url(#p)" xlink:href="#q"/>
            <use fill="#FFF" xlink:href="#q"/>
            <path stroke="#A2A9B1" d="M.536 32.943v60.008a2.5 2.5 0 0 0 2.503 2.492h109.995a2.503 2.503 0 0 0 2.502-2.492V32.443h-115v.5z"/>
            <path fill="#EAECF0" d="M1.036 65H114v29.002c0 .551-.455.998-.994.998H2.03a.996.996 0 0 1-.994-.998V65z"/>
            <text fill="#222" font-family="HelveticaNeue-Bold, Helvetica Neue" font-size="16" font-weight="bold">
                <tspan x="16.582" y="22">Neutral</tspan>
            </text>
            <path fill="#222" d="M96.382 14.934l-.559-.544a1.445 1.445 0 0 0-1.975 0l-4.72 4.495-4.731-4.504c-.545-.52-1.421-.502-1.965.018l-.56.535 7.255 6.956v-.011.01l7.255-6.955"/>
            <text font-family="HelveticaNeue, Helvetica Neue" font-size="14">
                <tspan x="30.932" y="54" fill="#222">Neutral</tspan> <tspan x="17.618" y="82.314" fill="#000">Neutral 2</tspan>
            </text>
            <ellipse cx="9.845" cy="49.5" fill="#36C" rx="2.591" ry="2.5"/>
        </g>
        <g transform="translate(406 303)">
            <use fill="#000" filter="url(#r)" xlink:href="#s"/>
            <use fill="#FFF" xlink:href="#s"/>
            <path stroke="#000" d="M18.095 12.378a1.69 1.69 0 0 0-1.697-1.682 1.7 1.7 0 0 0-.805.201 2.102 2.102 0 0 0-1.997-1.4c-.429 0-.827.126-1.159.342-.235-.887-1.067-1.54-2.044-1.54-.398 0-.77.11-1.086.298V1.425c0-1.06-.86-1.925-1.91-1.925-1.05 0-1.898.864-1.898 1.925V15L2.79 11.5c-.451-.773-1.533-1.041-2.383-.562-.856.484-1.165 1.55-.675 2.381l.199.309a1248.604 1248.604 0 0 0 2.036 3.143 341.137 341.137 0 0 0 1.747 2.665c.264.396.545.785 1.021 1.429l.08.106c1.38 1.861 1.853 2.609 1.853 3.03v.5h8.989V24c0-.556.155-.907 1.165-2.853.7-1.347 1.057-2.216 1.212-3.158a4.86 4.86 0 0 0 .066-.787v-3.24l-.006-1.584z"/>
        </g>
        <ellipse cx="462.5" cy="271.5" fill="#36C" rx="2.5" ry="2.5"/>
        <text fill="#72777D" font-family="Lato-Regular, Lato" font-size="14">
            <tspan x="0" y="23">DISABLED</tspan> <tspan x="0" y="79.4"> NORMAL</tspan> <tspan x="0" y="135.8">:HOVER</tspan> <tspan x="0" y="192.2">:ACTIVE</tspan> <tspan x="0" y="248.6"> EXPANDED MENU</tspan> <tspan x="0" y="267.4">:FOCUS</tspan>
        </text>
    </g>
</svg>
