<?xml version="1.0" encoding="UTF-8"?>
<svg xmlns="http://www.w3.org/2000/svg" xmlns:xlink="http://www.w3.org/1999/xlink" width="468" height="332" viewBox="0 0 468 332">
	<title>
		dropdowns_states
	</title>
	<defs>
		<path id="path-1" d="M12 3.664L10.842 2.4 6 7.032 1.264 2.4 0 3.664l6 6 6-6"/>
		<path id="path-5" d="M12 3.664L10.842 2.4 6 7.032 1.264 2.4 0 3.664l6 6 6-6"/>
		<path id="path-7" d="M17.595 12.379a1.19 1.19 0 00-1.197-1.183 1.19 1.19 0 00-1.196 1.179v-.826c0-.857-.719-1.551-1.606-1.551-.886 0-1.592.694-1.592 1.55V10.35c0-.856-.728-1.55-1.611-1.55s-1.586.694-1.586 1.55V1.425C8.807.638 8.168 0 7.397 0c-.772 0-1.398.638-1.398 1.425v15.038l-3.603-4.659c-.346-.586-1.126-.779-1.742-.431-.617.348-.836 1.105-.49 1.691 0 0 2.817 4.369 3.967 6.093C5.281 20.882 7.17 23.01 7.17 24h7.989c0-1.672 2.443-4.283 2.443-6.798v-3.24l-.006-1.583z"/>
		<path id="path-9" d="M17.595 12.379a1.19 1.19 0 00-1.197-1.183 1.19 1.19 0 00-1.196 1.179v-.826c0-.857-.719-1.551-1.606-1.551-.886 0-1.592.694-1.592 1.55V10.35c0-.856-.728-1.55-1.611-1.55s-1.586.694-1.586 1.55V1.425C8.807.638 8.168 0 7.397 0c-.772 0-1.398.638-1.398 1.425v15.038l-3.603-4.659c-.346-.586-1.126-.779-1.742-.431-.617.348-.836 1.105-.49 1.691 0 0 2.817 4.369 3.967 6.093C5.281 20.882 7.17 23.01 7.17 24h7.989c0-1.672 2.443-4.283 2.443-6.798v-3.24l-.006-1.583z"/>
		<path id="path-13" d="M12 3.664L10.842 2.4 6 7.032 1.264 2.4 0 3.664l6 6 6-6"/>
		<path id="path-15" d="M0 32v64.007C0 97.107.886 98 2.01 98h269.98c1.11 0 2.01-.895 2.01-1.993V32H0z"/>
		<path id="path-17" d="M12 3.664L10.842 2.4 6 7.032 1.264 2.4 0 3.664l6 6 6-6"/>
		<path id="path-19" d="M12 3.664L10.842 2.4 6 7.032 1.264 2.4 0 3.664l6 6 6-6"/>
		<path id="path-21" d="M17.595 12.379a1.19 1.19 0 00-1.197-1.183 1.19 1.19 0 00-1.196 1.179v-.826c0-.857-.719-1.551-1.606-1.551-.886 0-1.592.694-1.592 1.55V10.35c0-.856-.728-1.55-1.611-1.55s-1.586.694-1.586 1.55V1.425C8.807.638 8.168 0 7.397 0c-.772 0-1.398.638-1.398 1.425v15.038l-3.603-4.659c-.346-.586-1.126-.779-1.742-.431-.617.348-.836 1.105-.49 1.691 0 0 2.817 4.369 3.967 6.093C5.281 20.882 7.17 23.01 7.17 24h7.989c0-1.672 2.443-4.283 2.443-6.798v-3.24l-.006-1.583z"/>
		<filter id="filter-4" width="102.9%" height="128.1%" x="-1.5%" y="-9.4%" filterUnits="objectBoundingBox">
			<feOffset dy="2" in="SourceAlpha" result="shadowOffsetOuter1"/>
			<feGaussianBlur in="shadowOffsetOuter1" result="shadowBlurOuter1" stdDeviation="1"/>
			<feComposite in="shadowBlurOuter1" in2="SourceAlpha" operator="out" result="shadowBlurOuter1"/>
			<feColorMatrix in="shadowBlurOuter1" values="0 0 0 0 0 0 0 0 0 0 0 0 0 0 0 0 0 0 0.25 0"/>
		</filter>
		<filter id="filter-8" width="173.9%" height="154.2%" x="-36.9%" y="-18.8%" filterUnits="objectBoundingBox">
			<feMorphology in="SourceAlpha" operator="dilate" radius="1" result="shadowSpreadOuter1"/>
			<feOffset dy="1" in="shadowSpreadOuter1" result="shadowOffsetOuter1"/>
			<feGaussianBlur in="shadowOffsetOuter1" result="shadowBlurOuter1" stdDeviation=".5"/>
			<feComposite in="shadowBlurOuter1" in2="SourceAlpha" operator="out" result="shadowBlurOuter1"/>
			<feColorMatrix in="shadowBlurOuter1" result="shadowMatrixOuter1" values="0 0 0 0 0 0 0 0 0 0 0 0 0 0 0 0 0 0 0.582908741 0"/>
			<feMorphology in="SourceAlpha" operator="dilate" radius="1" result="shadowSpreadOuter2"/>
			<feOffset dy="2" in="shadowSpreadOuter2" result="shadowOffsetOuter2"/>
			<feGaussianBlur in="shadowOffsetOuter2" result="shadowBlurOuter2" stdDeviation="1.5"/>
			<feComposite in="shadowBlurOuter2" in2="SourceAlpha" operator="out" result="shadowBlurOuter2"/>
			<feColorMatrix in="shadowBlurOuter2" result="shadowMatrixOuter2" values="0 0 0 0 0 0 0 0 0 0 0 0 0 0 0 0 0 0 0.179347826 0"/>
			<feMerge>
				<feMergeNode in="shadowMatrixOuter1"/>
				<feMergeNode in="shadowMatrixOuter2"/>
			</feMerge>
		</filter>
		<filter id="filter-10" width="173.9%" height="154.2%" x="-36.9%" y="-18.8%" filterUnits="objectBoundingBox">
			<feMorphology in="SourceAlpha" operator="dilate" radius="1" result="shadowSpreadOuter1"/>
			<feOffset dy="1" in="shadowSpreadOuter1" result="shadowOffsetOuter1"/>
			<feGaussianBlur in="shadowOffsetOuter1" result="shadowBlurOuter1" stdDeviation=".5"/>
			<feComposite in="shadowBlurOuter1" in2="SourceAlpha" operator="out" result="shadowBlurOuter1"/>
			<feColorMatrix in="shadowBlurOuter1" result="shadowMatrixOuter1" values="0 0 0 0 0 0 0 0 0 0 0 0 0 0 0 0 0 0 0.582908741 0"/>
			<feMorphology in="SourceAlpha" operator="dilate" radius="1" result="shadowSpreadOuter2"/>
			<feOffset dy="2" in="shadowSpreadOuter2" result="shadowOffsetOuter2"/>
			<feGaussianBlur in="shadowOffsetOuter2" result="shadowBlurOuter2" stdDeviation="1.5"/>
			<feComposite in="shadowBlurOuter2" in2="SourceAlpha" operator="out" result="shadowBlurOuter2"/>
			<feColorMatrix in="shadowBlurOuter2" result="shadowMatrixOuter2" values="0 0 0 0 0 0 0 0 0 0 0 0 0 0 0 0 0 0 0.179347826 0"/>
			<feMerge>
				<feMergeNode in="shadowMatrixOuter1"/>
				<feMergeNode in="shadowMatrixOuter2"/>
			</feMerge>
		</filter>
		<filter id="filter-12" width="102.9%" height="128.1%" x="-1.5%" y="-9.4%" filterUnits="objectBoundingBox">
			<feOffset dy="2" in="SourceAlpha" result="shadowOffsetOuter1"/>
			<feGaussianBlur in="shadowOffsetOuter1" result="shadowBlurOuter1" stdDeviation="1"/>
			<feComposite in="shadowBlurOuter1" in2="SourceAlpha" operator="out" result="shadowBlurOuter1"/>
			<feColorMatrix in="shadowBlurOuter1" values="0 0 0 0 0 0 0 0 0 0 0 0 0 0 0 0 0 0 0.25 0"/>
		</filter>
		<filter id="filter-16" width="102.9%" height="112.1%" x="-1.5%" y="-3%" filterUnits="objectBoundingBox">
			<feOffset dy="2" in="SourceAlpha" result="shadowOffsetOuter1"/>
			<feGaussianBlur in="shadowOffsetOuter1" result="shadowBlurOuter1" stdDeviation="1"/>
			<feComposite in="shadowBlurOuter1" in2="SourceAlpha" operator="out" result="shadowBlurOuter1"/>
			<feColorMatrix in="shadowBlurOuter1" values="0 0 0 0 0 0 0 0 0 0 0 0 0 0 0 0 0 0 0.25 0"/>
		</filter>
		<filter id="filter-22" width="173.9%" height="154.2%" x="-36.9%" y="-18.8%" filterUnits="objectBoundingBox">
			<feMorphology in="SourceAlpha" operator="dilate" radius="1" result="shadowSpreadOuter1"/>
			<feOffset dy="1" in="shadowSpreadOuter1" result="shadowOffsetOuter1"/>
			<feGaussianBlur in="shadowOffsetOuter1" result="shadowBlurOuter1" stdDeviation=".5"/>
			<feComposite in="shadowBlurOuter1" in2="SourceAlpha" operator="out" result="shadowBlurOuter1"/>
			<feColorMatrix in="shadowBlurOuter1" result="shadowMatrixOuter1" values="0 0 0 0 0 0 0 0 0 0 0 0 0 0 0 0 0 0 0.582908741 0"/>
			<feMorphology in="SourceAlpha" operator="dilate" radius="1" result="shadowSpreadOuter2"/>
			<feOffset dy="2" in="shadowSpreadOuter2" result="shadowOffsetOuter2"/>
			<feGaussianBlur in="shadowOffsetOuter2" result="shadowBlurOuter2" stdDeviation="1.5"/>
			<feComposite in="shadowBlurOuter2" in2="SourceAlpha" operator="out" result="shadowBlurOuter2"/>
			<feColorMatrix in="shadowBlurOuter2" result="shadowMatrixOuter2" values="0 0 0 0 0 0 0 0 0 0 0 0 0 0 0 0 0 0 0.179347826 0"/>
			<feMerge>
				<feMergeNode in="shadowMatrixOuter1"/>
				<feMergeNode in="shadowMatrixOuter2"/>
			</feMerge>
		</filter>
		<rect id="path-3" width="272" height="32" x="0" y="0" rx="2"/>
		<rect id="path-11" width="274" height="32" x="0" y="0" rx="2"/>
	</defs>
	<g id="Artboard-page" fill="none" fill-rule="evenodd" stroke="none" stroke-width="1">
		<g id="WikimediaUI-components_overview" transform="translate(-8579 -255)">
			<path fill="#FFF" d="M0 0h14720v3264H0z"/>
			<g id="DROPDOWN" transform="translate(8579 186)">
				<g id="Dropdown-X" transform="translate(1 70)">
					<g id="Dropdown-/-:hover" transform="translate(192 56)">
						<g id="Dropdown-/-!default">
							<rect id="Dropdown" width="271" height="31" x=".5" y=".5" fill="#FFF" fill-rule="evenodd" stroke="#A2A9B1" stroke-width="1" rx="2"/>
							<text id="Label" fill="#444" font-family="HelveticaNeue-Bold, Helvetica Neue, sans-serif" font-size="16" font-weight="bold">
								<tspan x="12.148" y="23">Select an item</tspan>
							</text>
							<g id="🔣-Icon/Indicators/down" transform="translate(245.6 11)">
								<mask id="mask-2" fill="#fff">
									<use xlink:href="#path-1"/>
								</mask>
								<use id="Mask-2" fill="#000" fill-rule="evenodd" xlink:href="#path-1"/>
								<g id="🎨-Color/Base10-(#222)" fill="#222" fill-rule="evenodd" mask="url(#mask-2)">
									<path id="Rectangle-1" d="M0 0h12v12H0z"/>
								</g>
							</g>
						</g>
					</g>
					<g id="Dropdown-/-:focus" transform="translate(192 112)">
						<g id="Dropdown-/-!default">
							<g id="Dropdown">
								<use fill="#000" filter="url(#filter-4)" xlink:href="#path-3"/>
								<rect width="271" height="31" x=".5" y=".5" fill="#FFF" stroke="#36C" stroke-linejoin="square" rx="2"/>
								<rect width="273" height="33" x="-.5" y="-.5" stroke="#36C" rx="2"/>
							</g>
							<text id="Label" fill="#000" font-family="HelveticaNeue-Bold, Helvetica Neue, sans-serif" font-size="16" font-weight="bold">
								<tspan x="12.148" y="23">Select an item</tspan>
							</text>
							<g id="🔣-Icon/Indicators/down" transform="translate(245.6 11)">
								<mask id="mask-6" fill="#fff">
									<use xlink:href="#path-5"/>
								</mask>
								<use id="Mask-2" fill="#000" fill-rule="evenodd" xlink:href="#path-5"/>
								<g id="🎨-Color/Base10-(#222)" fill="#222" fill-rule="evenodd" mask="url(#mask-6)">
									<path id="Rectangle-1" d="M0 0h12v12H0z"/>
								</g>
							</g>
						</g>
					</g>
					<g id="Cursor-/-Pointer" transform="translate(404 134)">
						<g id="Cursor-Pointer">
							<use fill="#000" filter="url(#filter-8)" xlink:href="#path-7"/>
							<path fill="#FFF" stroke="#000" d="M5.499 15V1.424C5.499.365 6.346-.5 7.396-.5c1.052 0 1.91.865 1.91 1.925v7.172a2.116 2.116 0 011.087-.298c.977 0 1.809.653 2.044 1.54.332-.216.73-.341 1.16-.341.926 0 1.716.584 1.996 1.399a1.7 1.7 0 01.805-.201 1.69 1.69 0 011.697 1.683v-.002l.006 1.586v3.239c0 .257-.022.519-.066.787-.155.942-.512 1.811-1.212 3.158-1.01 1.946-1.165 2.297-1.165 2.853v.5h-8.99V24c0-.421-.472-1.169-1.853-3.03l-.079-.106a34.473 34.473 0 01-1.02-1.43c-.39-.583-.991-1.5-1.748-2.664l-.027-.043a1115.225 1115.225 0 01-2.009-3.1l-.199-.309c-.49-.83-.181-1.897.675-2.38.85-.48 1.932-.212 2.383.56L5.5 15z"/>
						</g>
					</g>
					<g id="Cursor-/-Pointer" transform="translate(404 78)">
						<g id="Cursor-Pointer">
							<use fill="#000" filter="url(#filter-10)" xlink:href="#path-9"/>
							<path fill="#FFF" stroke="#000" d="M5.499 15V1.424C5.499.365 6.346-.5 7.396-.5c1.052 0 1.91.865 1.91 1.925v7.172a2.116 2.116 0 011.087-.298c.977 0 1.809.653 2.044 1.54.332-.216.73-.341 1.16-.341.926 0 1.716.584 1.996 1.399a1.7 1.7 0 01.805-.201 1.69 1.69 0 011.697 1.683v-.002l.006 1.586v3.239c0 .257-.022.519-.066.787-.155.942-.512 1.811-1.212 3.158-1.01 1.946-1.165 2.297-1.165 2.853v.5h-8.99V24c0-.421-.472-1.169-1.853-3.03l-.079-.106a34.473 34.473 0 01-1.02-1.43c-.39-.583-.991-1.5-1.748-2.664l-.027-.043a1115.225 1115.225 0 01-2.009-3.1l-.199-.309c-.49-.83-.181-1.897.675-2.38.85-.48 1.932-.212 2.383.56L5.5 15z"/>
						</g>
					</g>
					<g id="Dropdown-/---expanded:focus" transform="translate(191 167)">
						<g id="Dropdown-/-!default">
							<g id="Dropdown">
								<use fill="#000" filter="url(#filter-12)" xlink:href="#path-11"/>
								<rect width="273" height="31" x=".5" y=".5" fill="#FFF" stroke="#36C" stroke-linejoin="square" rx="2"/>
								<rect width="275" height="33" x="-.5" y="-.5" stroke="#36C" rx="2"/>
							</g>
							<text id="Label" fill="#222" font-family="HelveticaNeue-Bold, Helvetica Neue, sans-serif" font-size="16" font-weight="bold">
								<tspan x="12" y="22">Item 1 selected </tspan>
							</text>
							<g id="🔣-Icon/Indicators/down" transform="translate(249.733 11)">
								<mask id="mask-14" fill="#fff">
									<use xlink:href="#path-13"/>
								</mask>
								<use id="Mask-2" fill="#000" fill-rule="evenodd" xlink:href="#path-13"/>
								<g id="🎨-Color/Base10-(#222)" fill="#222" fill-rule="evenodd" mask="url(#mask-14)">
									<path id="Rectangle-1" d="M0 0h12v12H0z"/>
								</g>
							</g>
						</g>
						<g id="Bg-menu">
							<use fill="#000" filter="url(#filter-16)" xlink:href="#path-15"/>
							<path fill="#FFF" stroke="#A2A9B1" stroke-linejoin="square" d="M.5 32.5v63.507c0 .829.667 1.493 1.51 1.493h269.98c.834 0 1.51-.671 1.51-1.493V32.5H.5z"/>
						</g>
						<path id="Bg-menu-option:hover" fill="#EBF2FF" fill-rule="evenodd" d="M1 33h271.985v31.007a.992.992 0 01-.998.993H1.998A1 1 0 011 64.007V33z"/>
						<path id="Bg-menu-option:hover" fill="#EAECF0" fill-rule="evenodd" d="M1 65h271.985v31.007a.992.992 0 01-.998.993H1.998A1 1 0 011 96.007V65z"/>
						<text id="Menu-option" fill="#222" font-family="HelveticaNeue, Helvetica Neue, sans-serif" font-size="16" font-weight="normal">
							<tspan x="13" y="87">Item 2</tspan>
						</text>
						<text id="Menu-option" fill="#222" font-family="HelveticaNeue, Helvetica Neue, sans-serif" font-size="16" font-weight="normal">
							<tspan x="13" y="55">Item 1</tspan>
						</text>
					</g>
					<g id="Dropdown-/-:disabled" transform="translate(192 296)">
						<g id="Dropdown-/-!default">
							<rect id="Dropdown" width="271" height="31" x=".5" y=".5" fill="#C8CCD1" fill-rule="evenodd" stroke="#C8CCD1" stroke-width="1" rx="2"/>
							<text id="Label" fill="#FFF" font-family="HelveticaNeue-Bold, Helvetica Neue, sans-serif" font-size="16" font-weight="bold">
								<tspan x="12" y="23">Select an item</tspan>
							</text>
							<g id="🔣-Icon/Indicators/down" transform="translate(245.6 11)">
								<mask id="mask-18" fill="#fff">
									<use xlink:href="#path-17"/>
								</mask>
								<use id="Mask-2" fill="#000" fill-rule="evenodd" xlink:href="#path-17"/>
								<g id="🎨-Color/Base100-#fff" fill="#FFF" fill-rule="evenodd" mask="url(#mask-18)">
									<path id="Rectangle-1" d="M0 0h12v12H0z"/>
								</g>
							</g>
						</g>
					</g>
					<g id="Dropdown-/-!default" transform="translate(192)">
						<rect id="Dropdown" width="271" height="31" x=".5" y=".5" fill="#F8F9FA" fill-rule="evenodd" stroke="#A2A9B1" stroke-width="1" rx="2"/>
						<text id="Label" fill="#222" font-family="HelveticaNeue-Bold, Helvetica Neue, sans-serif" font-size="16" font-weight="bold">
							<tspan x="12" y="22">Select an item</tspan>
						</text>
						<g id="🔣-Icon/Indicators/down" transform="translate(245.6 11)">
							<mask id="mask-20" fill="#fff">
								<use xlink:href="#path-19"/>
							</mask>
							<use id="Mask-2" fill="#000" fill-rule="evenodd" xlink:href="#path-19"/>
							<g id="🎨-Color/Base10-(#222)" fill="#222" fill-rule="evenodd" mask="url(#mask-20)">
								<path id="Rectangle-1" d="M0 0h12v12H0z"/>
							</g>
						</g>
					</g>
					<g id="Cursor-/-Pointer" transform="translate(404 247)">
						<g id="Cursor-Pointer">
							<use fill="#000" filter="url(#filter-22)" xlink:href="#path-21"/>
							<path fill="#FFF" stroke="#000" d="M5.499 15V1.424C5.499.365 6.346-.5 7.396-.5c1.052 0 1.91.865 1.91 1.925v7.172a2.116 2.116 0 011.087-.298c.977 0 1.809.653 2.044 1.54.332-.216.73-.341 1.16-.341.926 0 1.716.584 1.996 1.399a1.7 1.7 0 01.805-.201 1.69 1.69 0 011.697 1.683v-.002l.006 1.586v3.239c0 .257-.022.519-.066.787-.155.942-.512 1.811-1.212 3.158-1.01 1.946-1.165 2.297-1.165 2.853v.5h-8.99V24c0-.421-.472-1.169-1.853-3.03l-.079-.106a34.473 34.473 0 01-1.02-1.43c-.39-.583-.991-1.5-1.748-2.664l-.027-.043a1115.225 1115.225 0 01-2.009-3.1l-.199-.309c-.49-.83-.181-1.897.675-2.38.85-.48 1.932-.212 2.383.56L5.5 15z"/>
						</g>
					</g>
					<text id="Normal-Hover-Active" fill="#72777D" font-family="Lato-Regular, Lato, sans-serif" font-size="14" font-weight="normal">
						<tspan x="0" y="19">Normal</tspan> <tspan x="0" y="75.1">Hover</tspan> <tspan x="0" y="131.2">Active &amp; </tspan> <tspan x="0" y="149.9">Focus</tspan> <tspan x="0" y="187.3">Expanded Menu &amp;</tspan> <tspan x="0" y="206">Focus</tspan> <tspan x="0" y="318.2">Disabled</tspan>
					</text>
				</g>
			</g>
		</g>
	</g>
</svg>
