<?xml version="1.0" encoding="UTF-8" standalone="no"?><svg width="556px" height="386px" viewBox="0 0 556 386" xmlns="http://www.w3.org/2000/svg" xmlns:xlink="http://www.w3.org/1999/xlink"><defs><rect id="a" x="194" y="112" width="110" height="32" rx="2"/><rect id="b" x="194" y="168" width="110" height="32" rx="2"/><path d="M17.595 12.379a1.19 1.19 0 0 0-1.197-1.183 1.19 1.19 0 0 0-1.196 1.179v-.826c0-.857-.719-1.551-1.606-1.551-.886 0-1.592.694-1.592 1.55V10.35c0-.856-.728-1.55-1.611-1.55s-1.586.694-1.586 1.55V1.425C8.807.638 8.168 0 7.397 0c-.772 0-1.398.638-1.398 1.425v15.038l-3.603-4.659c-.346-.586-1.126-.779-1.742-.431-.617.348-.836 1.105-.49 1.691 0 0 2.817 4.369 3.967 6.093C5.281 20.882 7.17 23.01 7.17 24h7.989c0-1.672 2.443-4.283 2.443-6.798v-3.24l-.006-1.583z" id="d"/><filter x="-42.6%" y="-18.8%" width="185.2%" height="162.5%" filterUnits="objectBoundingBox" id="c"><feMorphology radius="1" operator="dilate" in="SourceAlpha" result="shadowSpreadOuter1"/><feOffset dy="1" in="shadowSpreadOuter1" result="shadowOffsetOuter1"/><feGaussianBlur stdDeviation="0.5" in="shadowOffsetOuter1" result="shadowBlurOuter1"/><feComposite in="shadowBlurOuter1" in2="SourceAlpha" operator="out" result="shadowBlurOuter1"/><feColorMatrix values="0 0 0 0 0 0 0 0 0 0 0 0 0 0 0 0 0 0 0.582908741 0" in="shadowBlurOuter1" result="shadowMatrixOuter1"/><feMorphology radius="1" operator="dilate" in="SourceAlpha" result="shadowSpreadOuter2"/><feOffset dy="2" in="shadowSpreadOuter2" result="shadowOffsetOuter2"/><feGaussianBlur stdDeviation="1.5" in="shadowOffsetOuter2" result="shadowBlurOuter2"/><feComposite in="shadowBlurOuter2" in2="SourceAlpha" operator="out" result="shadowBlurOuter2"/><feColorMatrix values="0 0 0 0 0 0 0 0 0 0 0 0 0 0 0 0 0 0 0.179347826 0" in="shadowBlurOuter2" result="shadowMatrixOuter2"/><feMerge><feMergeNode in="shadowMatrixOuter1"/><feMergeNode in="shadowMatrixOuter2"/></feMerge></filter><path d="M17.595 12.379a1.19 1.19 0 0 0-1.197-1.183 1.19 1.19 0 0 0-1.196 1.179v-.826c0-.857-.719-1.551-1.606-1.551-.886 0-1.592.694-1.592 1.55V10.35c0-.856-.728-1.55-1.611-1.55s-1.586.694-1.586 1.55V1.425C8.807.638 8.168 0 7.397 0c-.772 0-1.398.638-1.398 1.425v15.038l-3.603-4.659c-.346-.586-1.126-.779-1.742-.431-.617.348-.836 1.105-.49 1.691 0 0 2.817 4.369 3.967 6.093C5.281 20.882 7.17 23.01 7.17 24h7.989c0-1.672 2.443-4.283 2.443-6.798v-3.24l-.006-1.583z" id="f"/><filter x="-42.6%" y="-18.8%" width="185.2%" height="162.5%" filterUnits="objectBoundingBox" id="e"><feMorphology radius="1" operator="dilate" in="SourceAlpha" result="shadowSpreadOuter1"/><feOffset dy="1" in="shadowSpreadOuter1" result="shadowOffsetOuter1"/><feGaussianBlur stdDeviation="0.5" in="shadowOffsetOuter1" result="shadowBlurOuter1"/><feComposite in="shadowBlurOuter1" in2="SourceAlpha" operator="out" result="shadowBlurOuter1"/><feColorMatrix values="0 0 0 0 0 0 0 0 0 0 0 0 0 0 0 0 0 0 0.582908741 0" in="shadowBlurOuter1" result="shadowMatrixOuter1"/><feMorphology radius="1" operator="dilate" in="SourceAlpha" result="shadowSpreadOuter2"/><feOffset dy="2" in="shadowSpreadOuter2" result="shadowOffsetOuter2"/><feGaussianBlur stdDeviation="1.5" in="shadowOffsetOuter2" result="shadowBlurOuter2"/><feComposite in="shadowBlurOuter2" in2="SourceAlpha" operator="out" result="shadowBlurOuter2"/><feColorMatrix values="0 0 0 0 0 0 0 0 0 0 0 0 0 0 0 0 0 0 0.179347826 0" in="shadowBlurOuter2" result="shadowMatrixOuter2"/><feMerge><feMergeNode in="shadowMatrixOuter1"/><feMergeNode in="shadowMatrixOuter2"/></feMerge></filter><path d="M196.003 224c-1.106 0-2.003.89-2.003 2.002V256h110v-29.998a1.995 1.995 0 0 0-2.003-2.002H196.003z" id="g"/><path d="M194 256.943v60.008c0 1.1.885 1.992 2.003 1.992h105.994c1.106 0 2.003-.9 2.003-1.992v-60.008H194z" id="i"/><filter x="-4.5%" y="-4.8%" width="109.1%" height="116.1%" filterUnits="objectBoundingBox" id="h"><feMorphology radius="1" operator="dilate" in="SourceAlpha" result="shadowSpreadOuter1"/><feOffset dy="2" in="shadowSpreadOuter1" result="shadowOffsetOuter1"/><feGaussianBlur stdDeviation="1" in="shadowOffsetOuter1" result="shadowBlurOuter1"/><feComposite in="shadowBlurOuter1" in2="SourceAlpha" operator="out" result="shadowBlurOuter1"/><feColorMatrix values="0 0 0 0 0 0 0 0 0 0 0 0 0 0 0 0 0 0 0.25 0" in="shadowBlurOuter1"/></filter><rect id="j" x="194" y="56" width="110" height="32" rx="2"/><rect id="k" x="194" width="110" height="32" rx="2"/><path d="M454 256.943v60.008c0 1.1.886 1.992 2 1.992h95c1.105 0 2-.9 2-1.992v-60.008h-99z" id="m"/><filter x="-5.1%" y="-4.8%" width="110.1%" height="116.1%" filterUnits="objectBoundingBox" id="l"><feMorphology radius="1" operator="dilate" in="SourceAlpha" result="shadowSpreadOuter1"/><feOffset dy="2" in="shadowSpreadOuter1" result="shadowOffsetOuter1"/><feGaussianBlur stdDeviation="1" in="shadowOffsetOuter1" result="shadowBlurOuter1"/><feComposite in="shadowBlurOuter1" in2="SourceAlpha" operator="out" result="shadowBlurOuter1"/><feColorMatrix values="0 0 0 0 0 0 0 0 0 0 0 0 0 0 0 0 0 0 0.25 0" in="shadowBlurOuter1"/></filter><path d="M456 224c-1.105 0-2 .89-2 2.002V256h99v-29.998a1.995 1.995 0 0 0-2-2.002h-95z" id="n"/><path d="M3.04 0C1.932 0 1.035.89 1.035 2.002V32h114V2.002A2.005 2.005 0 0 0 113.034 0H3.039z" id="o"/><path d="M1.036 32.943v60.008a2 2 0 0 0 2.003 1.992h109.995c1.106 0 2.002-.9 2.002-1.992V32.943h-114z" id="q"/><filter x="-4.4%" y="-4.8%" width="108.8%" height="116.1%" filterUnits="objectBoundingBox" id="p"><feMorphology radius="1" operator="dilate" in="SourceAlpha" result="shadowSpreadOuter1"/><feOffset dy="2" in="shadowSpreadOuter1" result="shadowOffsetOuter1"/><feGaussianBlur stdDeviation="1" in="shadowOffsetOuter1" result="shadowBlurOuter1"/><feComposite in="shadowBlurOuter1" in2="SourceAlpha" operator="out" result="shadowBlurOuter1"/><feColorMatrix values="0 0 0 0 0 0 0 0 0 0 0 0 0 0 0 0 0 0 0.25 0" in="shadowBlurOuter1"/></filter><path d="M17.595 12.379a1.19 1.19 0 0 0-1.197-1.183 1.19 1.19 0 0 0-1.196 1.179v-.826c0-.857-.719-1.551-1.606-1.551-.886 0-1.592.694-1.592 1.55V10.35c0-.856-.728-1.55-1.611-1.55s-1.586.694-1.586 1.55V1.425C8.807.638 8.168 0 7.397 0c-.772 0-1.398.638-1.398 1.425v15.038l-3.603-4.659c-.346-.586-1.126-.779-1.742-.431-.617.348-.836 1.105-.49 1.691 0 0 2.817 4.369 3.967 6.093C5.281 20.882 7.17 23.01 7.17 24h7.989c0-1.672 2.443-4.283 2.443-6.798v-3.24l-.006-1.583z" id="s"/><filter x="-42.6%" y="-18.8%" width="185.2%" height="162.5%" filterUnits="objectBoundingBox" id="r"><feMorphology radius="1" operator="dilate" in="SourceAlpha" result="shadowSpreadOuter1"/><feOffset dy="1" in="shadowSpreadOuter1" result="shadowOffsetOuter1"/><feGaussianBlur stdDeviation="0.5" in="shadowOffsetOuter1" result="shadowBlurOuter1"/><feComposite in="shadowBlurOuter1" in2="SourceAlpha" operator="out" result="shadowBlurOuter1"/><feColorMatrix values="0 0 0 0 0 0 0 0 0 0 0 0 0 0 0 0 0 0 0.582908741 0" in="shadowBlurOuter1" result="shadowMatrixOuter1"/><feMorphology radius="1" operator="dilate" in="SourceAlpha" result="shadowSpreadOuter2"/><feOffset dy="2" in="shadowSpreadOuter2" result="shadowOffsetOuter2"/><feGaussianBlur stdDeviation="1.5" in="shadowOffsetOuter2" result="shadowBlurOuter2"/><feComposite in="shadowBlurOuter2" in2="SourceAlpha" operator="out" result="shadowBlurOuter2"/><feColorMatrix values="0 0 0 0 0 0 0 0 0 0 0 0 0 0 0 0 0 0 0.179347826 0" in="shadowBlurOuter2" result="shadowMatrixOuter2"/><feMerge><feMergeNode in="shadowMatrixOuter1"/><feMergeNode in="shadowMatrixOuter2"/></feMerge></filter></defs><g transform="translate(0 9)" fill="none" fill-rule="evenodd"><use fill="#FFF" xlink:href="#a"/><rect stroke="#A2A9B1" x="193.5" y="111.5" width="111" height="33" rx="2"/><use fill="#EAECF0" xlink:href="#b"/><rect stroke="#72777D" x="193.5" y="167.5" width="111" height="33" rx="2"/><g transform="translate(283 190)"><use fill="#000" filter="url(#c)" xlink:href="#d"/><use fill="#FFF" xlink:href="#d"/><path stroke="#000" d="M18.095 12.378a1.69 1.69 0 0 0-1.697-1.682 1.7 1.7 0 0 0-.805.201 2.102 2.102 0 0 0-1.997-1.4c-.429 0-.827.126-1.159.342-.235-.887-1.067-1.54-2.044-1.54-.398 0-.77.11-1.086.298V1.425c0-1.06-.86-1.925-1.91-1.925-1.05 0-1.898.864-1.898 1.925V15L2.79 11.5c-.451-.773-1.533-1.041-2.383-.562-.856.484-1.165 1.55-.675 2.381l.199.309a1248.604 1248.604 0 0 0 2.036 3.143c.757 1.163 1.358 2.081 1.747 2.665.264.396.545.785 1.021 1.429l.08.106c1.38 1.861 1.853 2.609 1.853 3.03v.5h8.989V24c0-.556.155-.907 1.165-2.853.7-1.347 1.057-2.216 1.212-3.158a4.86 4.86 0 0 0 .066-.787v-3.24l-.006-1.584z"/></g><g transform="translate(283 134)"><use fill="#000" filter="url(#e)" xlink:href="#f"/><use fill="#FFF" xlink:href="#f"/><path stroke="#000" d="M18.095 12.378a1.69 1.69 0 0 0-1.697-1.682 1.7 1.7 0 0 0-.805.201 2.102 2.102 0 0 0-1.997-1.4c-.429 0-.827.126-1.159.342-.235-.887-1.067-1.54-2.044-1.54-.398 0-.77.11-1.086.298V1.425c0-1.06-.86-1.925-1.91-1.925-1.05 0-1.898.864-1.898 1.925V15L2.79 11.5c-.451-.773-1.533-1.041-2.383-.562-.856.484-1.165 1.55-.675 2.381l.199.309a1248.604 1248.604 0 0 0 2.036 3.143c.757 1.163 1.358 2.081 1.747 2.665.264.396.545.785 1.021 1.429l.08.106c1.38 1.861 1.853 2.609 1.853 3.03v.5h8.989V24c0-.556.155-.907 1.165-2.853.7-1.347 1.057-2.216 1.212-3.158a4.86 4.86 0 0 0 .066-.787v-3.24l-.006-1.584z"/></g><use fill="#FFF" xlink:href="#g"/><path stroke="#36C" d="M303.5 255.5h-109v-29.498c0-.834.67-1.502 1.503-1.502h105.994c.837 0 1.503.668 1.503 1.502V255.5z"/><path stroke="#36C" d="M196.003 223.5a2.498 2.498 0 0 0-2.503 2.502V256.5h111v-30.498a2.495 2.495 0 0 0-2.503-2.502H196.003z"/><use fill="#000" filter="url(#h)" xlink:href="#i"/><use fill="#FFF" xlink:href="#i"/><path stroke="#A2A9B1" d="M193.5 256.943v60.008a2.49 2.49 0 0 0 2.503 2.492h105.994a2.503 2.503 0 0 0 2.503-2.492v-60.508h-111v.5z"/><use fill="#F8F9FA" xlink:href="#j"/><rect stroke="#A2A9B1" x="193.5" y="55.5" width="111" height="33" rx="2"/><text font-family="HelveticaNeue-Bold, Helvetica Neue" font-size="16" font-weight="bold" fill="#222"><tspan x="210.152" y="78">Neutral</tspan></text><text font-family="HelveticaNeue-Bold, Helvetica Neue" font-size="16" font-weight="bold" fill="#444"><tspan x="210.152" y="134">Neutral</tspan></text><text font-family="HelveticaNeue-Bold, Helvetica Neue" font-size="16" font-weight="bold" fill="#000"><tspan x="210.152" y="190">Neutral</tspan></text><text font-family="HelveticaNeue-Bold, Helvetica Neue" font-size="16" font-weight="bold" fill="#222"><tspan x="210.152" y="246">Neutral</tspan></text><path d="M288 70.934l-.54-.544a1.36 1.36 0 0 0-1.905 0L281 74.885l-4.564-4.504c-.526-.52-1.372-.502-1.897.018l-.539.535 7 6.956v-.011.01l7-6.955" fill="#222"/><path d="M288 126.934l-.54-.544a1.36 1.36 0 0 0-1.905 0L281 130.885l-4.564-4.504c-.526-.52-1.372-.502-1.897.018l-.539.535 7 6.956v-.011.01l7-6.955" fill="#444"/><g stroke="#36C"><rect x="193.5" y="343.5" width="111" height="33" rx="2"/><rect x="194.5" y="344.5" width="109" height="31" rx="2"/></g><text font-family="HelveticaNeue-Bold, Helvetica Neue" font-size="16" font-weight="bold" fill="#222"><tspan x="210.152" y="366">Neutral</tspan></text><path d="M288 357.934l-.54-.544a1.36 1.36 0 0 0-1.905 0L281 361.885l-4.564-4.504c-.526-.52-1.372-.502-1.897.018l-.539.535 7 6.956v-.011.01l7-6.955" fill="#222"/><use fill="#C8CCD1" xlink:href="#k"/><rect stroke="#C8CCD1" x="193.5" y="-0.5" width="111" height="33" rx="2"/><text font-family="HelveticaNeue-Bold, Helvetica Neue" font-size="16" font-weight="bold" fill="#FFF"><tspan x="210.152" y="22">Neutral</tspan></text><path d="M287.46 14.39a1.36 1.36 0 0 0-1.905 0L281 18.885l-4.564-4.504c-.526-.52-1.372-.502-1.897.018l-.539.535 7 6.956 7-6.956-.54-.544z" fill="#FFF"/><path d="M288 182.934l-.54-.544a1.36 1.36 0 0 0-1.905 0L281 186.885l-4.564-4.504c-.526-.52-1.372-.502-1.897.018l-.539.535 7 6.956v-.011.01l7-6.955" fill="#000"/><path d="M288 238.934l-.54-.544a1.36 1.36 0 0 0-1.905 0L281 242.885l-4.564-4.504c-.526-.52-1.372-.502-1.897.018l-.539.535 7 6.956v-.011.01l7-6.955" fill="#222"/><g stroke="#50E3C2" stroke-linecap="square"><path d="M215.5 8.5v-7M214.5 8.5v-7M217.5 8.5v-7M216.5 8.5v-7"/></g><g stroke="#50E3C2" stroke-linecap="square"><path d="M216.5 224.5v7M217.5 224.5v7M214.5 224.5v7M215.5 224.5v7"/></g><g stroke="#50E3C2" stroke-linecap="square"><path d="M215.5 31.5v-7M214.5 31.5v-7M217.5 31.5v-7M216.5 31.5v-7"/></g><g stroke="#D0011B" stroke-linecap="square"><path d="M194.5 14.5h15M194.5 15.5h15M194.5 16.5h15M194.5 17.5h15"/></g><g stroke="#D0011B" stroke-linecap="square"><path d="M288.5 14.5h15M288.5 15.5h15M288.5 16.5h15M288.5 17.5h15"/></g><g stroke="#50E3C2" stroke-linecap="square"><path d="M266.5 15.5h7M266.5 14.5h7M266.5 17.5h7M266.5 16.5h7"/></g><g stroke="#D0011B" stroke-linecap="square"><path d="M195.5 239.5h15M195.5 240.5h15M195.5 241.5h15M195.5 242.5h15"/></g><g stroke="#D0011B" stroke-linecap="square"><path d="M288.5 238.5h15M288.5 239.5h15M288.5 240.5h15M288.5 241.5h15"/></g><g stroke="#50E3C2" stroke-linecap="square"><path d="M266.5 239.5h7M266.5 238.5h7M266.5 241.5h7M266.5 240.5h7"/></g><text font-family="HelveticaNeue, Helvetica Neue" font-size="14" fill="#222"><tspan x="224.314" y="277">Neutral</tspan>  <tspan x="211" y="305.314056">Neutral 2</tspan></text><use fill="#000" filter="url(#l)" xlink:href="#m"/><use fill="#FFF" xlink:href="#m"/><path stroke="#A2A9B1" d="M453.5 256.943v60.008a2.49 2.49 0 0 0 2.5 2.492h95c1.378 0 2.5-1.12 2.5-2.492v-60.508h-100v.5z"/><path d="M454 289h99v28.002a.994.994 0 0 1-.996.998h-97.008c-.55 0-.996-.456-.996-.998V289z" fill="#EBF2FF"/><use fill="#FFF" xlink:href="#n"/><path stroke="#36C" d="M552.5 255.5h-98v-29.498c0-.834.669-1.502 1.5-1.502h95c.834 0 1.5.669 1.5 1.502V255.5z"/><path stroke="#36C" d="M456 223.5a2.496 2.496 0 0 0-2.5 2.502V256.5h100v-30.498a2.495 2.495 0 0 0-2.5-2.502h-95z"/><text font-family="HelveticaNeue-Bold, Helvetica Neue" font-size="16" font-weight="bold" fill="#222"><tspan x="466.152" y="246">Neutral</tspan></text><path d="M540 238.934l-.54-.544a1.36 1.36 0 0 0-1.905 0L533 242.885l-4.564-4.504c-.526-.52-1.372-.502-1.897.018l-.539.535 7 6.956v-.011.01l7-6.955" fill="#222"/><text font-family="HelveticaNeue, Helvetica Neue" font-size="14"><tspan x="483.314" y="278" fill="#222">Neutral</tspan>  <tspan x="470" y="306.314056" fill="#36C">Neutral 2</tspan></text><g stroke="#50E3C2" stroke-linecap="square"><path d="M216.5 248.5v7M217.5 248.5v7M214.5 248.5v7M215.5 248.5v7"/></g><g stroke="#50E3C2" stroke-linecap="square"><path d="M216.5 279.5v7M217.5 279.5v7M214.5 279.5v7M215.5 279.5v7"/></g><g stroke="#50E3C2" stroke-linecap="square"><path d="M216.5 257.5v7M217.5 257.5v7M214.5 257.5v7M215.5 257.5v7"/></g><g stroke="#50E3C2" stroke-linecap="square"><path d="M216.5 288.5v7M217.5 288.5v7M214.5 288.5v7M215.5 288.5v7"/></g><g stroke="#50E3C2" stroke-linecap="square"><path d="M216.5 311.5v7M217.5 311.5v7M214.5 311.5v7M215.5 311.5v7"/></g><ellipse fill="#36C" cx="201.5" cy="270.5" rx="2.5" ry="2.5"/><g transform="translate(321 224)"><use fill="#FFF" xlink:href="#o"/><path stroke="#36C" d="M114.536 31.5h-113V2.002C1.536 1.168 2.206.5 3.04.5h109.995c.827 0 1.502.674 1.502 1.502V31.5z"/><path stroke="#36C" d="M3.04-.5A2.498 2.498 0 0 0 .535 2.002V32.5h115V2.002A2.505 2.505 0 0 0 113.034-.5H3.039z"/><use fill="#000" filter="url(#p)" xlink:href="#q"/><use fill="#FFF" xlink:href="#q"/><path stroke="#A2A9B1" d="M.536 32.943v60.008a2.5 2.5 0 0 0 2.503 2.492h109.995a2.503 2.503 0 0 0 2.502-2.492V32.443h-115v.5z"/><path d="M1.036 65H114v29.002c0 .551-.455.998-.994.998H2.03a.996.996 0 0 1-.994-.998V65z" fill="#EAECF0"/><text font-family="HelveticaNeue-Bold, Helvetica Neue" font-size="16" font-weight="bold" fill="#222"><tspan x="16.5818182" y="22">Neutral</tspan></text><path d="M96.382 14.934l-.559-.544a1.445 1.445 0 0 0-1.975 0l-4.72 4.495-4.731-4.504c-.545-.52-1.421-.502-1.965.018l-.56.535 7.255 6.956v-.011.01l7.255-6.955" fill="#222"/><text font-family="HelveticaNeue, Helvetica Neue" font-size="14"><tspan x="30.9321818" y="54" fill="#222">Neutral</tspan>  <tspan x="17.6181818" y="82.3140564" fill="#000">Neutral 2</tspan></text><ellipse fill="#36C" cx="9.84545455" cy="49.5" rx="2.59090909" ry="2.5"/></g><g><g transform="translate(406 303)"><use fill="#000" filter="url(#r)" xlink:href="#s"/><use fill="#FFF" xlink:href="#s"/><path stroke="#000" d="M18.095 12.378a1.69 1.69 0 0 0-1.697-1.682 1.7 1.7 0 0 0-.805.201 2.102 2.102 0 0 0-1.997-1.4c-.429 0-.827.126-1.159.342-.235-.887-1.067-1.54-2.044-1.54-.398 0-.77.11-1.086.298V1.425c0-1.06-.86-1.925-1.91-1.925-1.05 0-1.898.864-1.898 1.925V15L2.79 11.5c-.451-.773-1.533-1.041-2.383-.562-.856.484-1.165 1.55-.675 2.381l.199.309a1248.604 1248.604 0 0 0 2.036 3.143c.757 1.163 1.358 2.081 1.747 2.665.264.396.545.785 1.021 1.429l.08.106c1.38 1.861 1.853 2.609 1.853 3.03v.5h8.989V24c0-.556.155-.907 1.165-2.853.7-1.347 1.057-2.216 1.212-3.158a4.86 4.86 0 0 0 .066-.787v-3.24l-.006-1.584z"/></g></g><ellipse fill="#36C" cx="462.5" cy="271.5" rx="2.5" ry="2.5"/><text font-family="Lato-Regular, Lato" font-size="14" fill="#72777D"><tspan x="0" y="23"> DISABLED</tspan>   <tspan x="0" y="79.3999977"> NORMAL</tspan>   <tspan x="0" y="135.799995">:HOVER</tspan>   <tspan x="0" y="192.199993">:ACTIVE</tspan>   <tspan x="0" y="248.599991"> EXPANDED MENU</tspan> <tspan x="0" y="267.39999">:FOCUS</tspan></text></g></svg>