<?xml version="1.0" encoding="UTF-8"?>
<svg xmlns="http://www.w3.org/2000/svg" xmlns:xlink="http://www.w3.org/1999/xlink" width="556" height="386" viewBox="0 0 556 386">
    <defs>
        <path id="dropdown-b" d="M17.595 12.379a1.19 1.19 0 0 0-1.197-1.183 1.19 1.19 0 0 0-1.196 1.179v-.826c0-.857-.719-1.551-1.606-1.551-.886 0-1.592.694-1.592 1.55V10.35c0-.856-.728-1.55-1.611-1.55s-1.586.694-1.586 1.55V1.425C8.807.638 8.168 0 7.397 0c-.772 0-1.398.638-1.398 1.425v15.038l-3.603-4.659c-.346-.586-1.126-.779-1.742-.431-.617.348-.836 1.105-.49 1.691 0 0 2.817 4.369 3.967 6.093C5.281 20.882 7.17 23.01 7.17 24h7.989c0-1.672 2.443-4.283 2.443-6.798v-3.24l-.006-1.583z"/>
        <filter id="dropdown-a" width="185.2%" height="162.5%" x="-42.6%" y="-18.8%" filterUnits="objectBoundingBox">
            <feMorphology in="SourceAlpha" operator="dilate" radius="1" result="shadowSpreadOuter1"/>
            <feOffset dy="1" in="shadowSpreadOuter1" result="shadowOffsetOuter1"/>
            <feGaussianBlur in="shadowOffsetOuter1" result="shadowBlurOuter1" stdDeviation=".5"/>
            <feComposite in="shadowBlurOuter1" in2="SourceAlpha" operator="out" result="shadowBlurOuter1"/>
            <feColorMatrix in="shadowBlurOuter1" result="shadowMatrixOuter1" values="0 0 0 0 0 0 0 0 0 0 0 0 0 0 0 0 0 0 0.582908741 0"/>
            <feMorphology in="SourceAlpha" operator="dilate" radius="1" result="shadowSpreadOuter2"/>
            <feOffset dy="2" in="shadowSpreadOuter2" result="shadowOffsetOuter2"/>
            <feGaussianBlur in="shadowOffsetOuter2" result="shadowBlurOuter2" stdDeviation="1.5"/>
            <feComposite in="shadowBlurOuter2" in2="SourceAlpha" operator="out" result="shadowBlurOuter2"/>
            <feColorMatrix in="shadowBlurOuter2" result="shadowMatrixOuter2" values="0 0 0 0 0 0 0 0 0 0 0 0 0 0 0 0 0 0 0.179347826 0"/>
            <feMerge>
                <feMergeNode in="shadowMatrixOuter1"/>
                <feMergeNode in="shadowMatrixOuter2"/>
            </feMerge>
        </filter>
        <path id="dropdown-d" d="M17.595 12.379a1.19 1.19 0 0 0-1.197-1.183 1.19 1.19 0 0 0-1.196 1.179v-.826c0-.857-.719-1.551-1.606-1.551-.886 0-1.592.694-1.592 1.55V10.35c0-.856-.728-1.55-1.611-1.55s-1.586.694-1.586 1.55V1.425C8.807.638 8.168 0 7.397 0c-.772 0-1.398.638-1.398 1.425v15.038l-3.603-4.659c-.346-.586-1.126-.779-1.742-.431-.617.348-.836 1.105-.49 1.691 0 0 2.817 4.369 3.967 6.093C5.281 20.882 7.17 23.01 7.17 24h7.989c0-1.672 2.443-4.283 2.443-6.798v-3.24l-.006-1.583z"/>
        <filter id="dropdown-c" width="185.2%" height="162.5%" x="-42.6%" y="-18.8%" filterUnits="objectBoundingBox">
            <feMorphology in="SourceAlpha" operator="dilate" radius="1" result="shadowSpreadOuter1"/>
            <feOffset dy="1" in="shadowSpreadOuter1" result="shadowOffsetOuter1"/>
            <feGaussianBlur in="shadowOffsetOuter1" result="shadowBlurOuter1" stdDeviation=".5"/>
            <feComposite in="shadowBlurOuter1" in2="SourceAlpha" operator="out" result="shadowBlurOuter1"/>
            <feColorMatrix in="shadowBlurOuter1" result="shadowMatrixOuter1" values="0 0 0 0 0 0 0 0 0 0 0 0 0 0 0 0 0 0 0.582908741 0"/>
            <feMorphology in="SourceAlpha" operator="dilate" radius="1" result="shadowSpreadOuter2"/>
            <feOffset dy="2" in="shadowSpreadOuter2" result="shadowOffsetOuter2"/>
            <feGaussianBlur in="shadowOffsetOuter2" result="shadowBlurOuter2" stdDeviation="1.5"/>
            <feComposite in="shadowBlurOuter2" in2="SourceAlpha" operator="out" result="shadowBlurOuter2"/>
            <feColorMatrix in="shadowBlurOuter2" result="shadowMatrixOuter2" values="0 0 0 0 0 0 0 0 0 0 0 0 0 0 0 0 0 0 0.179347826 0"/>
            <feMerge>
                <feMergeNode in="shadowMatrixOuter1"/>
                <feMergeNode in="shadowMatrixOuter2"/>
            </feMerge>
        </filter>
        <path id="dropdown-f" d="M194 256.943v60.008c0 1.1.893 1.992 2.009 1.992H300.99c1.11 0 2.009-.9 2.009-1.992v-60.008H194z"/>
        <filter id="dropdown-e" width="109.2%" height="116.1%" x="-4.6%" y="-4.8%" filterUnits="objectBoundingBox">
            <feMorphology in="SourceAlpha" operator="dilate" radius="1" result="shadowSpreadOuter1"/>
            <feOffset dy="2" in="shadowSpreadOuter1" result="shadowOffsetOuter1"/>
            <feGaussianBlur in="shadowOffsetOuter1" result="shadowBlurOuter1" stdDeviation="1"/>
            <feComposite in="shadowBlurOuter1" in2="SourceAlpha" operator="out" result="shadowBlurOuter1"/>
            <feColorMatrix in="shadowBlurOuter1" values="0 0 0 0 0 0 0 0 0 0 0 0 0 0 0 0 0 0 0.25 0"/>
        </filter>
        <path id="dropdown-h" d="M454 256.943v60.008c0 1.1.893 1.992 2.009 1.992H560.99c1.11 0 2.009-.9 2.009-1.992v-60.008H454z"/>
        <filter id="dropdown-g" width="109.2%" height="116.1%" x="-4.6%" y="-4.8%" filterUnits="objectBoundingBox">
            <feMorphology in="SourceAlpha" operator="dilate" radius="1" result="shadowSpreadOuter1"/>
            <feOffset dy="2" in="shadowSpreadOuter1" result="shadowOffsetOuter1"/>
            <feGaussianBlur in="shadowOffsetOuter1" result="shadowBlurOuter1" stdDeviation="1"/>
            <feComposite in="shadowBlurOuter1" in2="SourceAlpha" operator="out" result="shadowBlurOuter1"/>
            <feColorMatrix in="shadowBlurOuter1" values="0 0 0 0 0 0 0 0 0 0 0 0 0 0 0 0 0 0 0.25 0"/>
        </filter>
        <path id="dropdown-j" d="M0 32.943v60.008c0 1.1.893 1.992 2.009 1.992H106.99c1.11 0 2.009-.9 2.009-1.992V32.943H0z"/>
        <filter id="dropdown-i" width="109.2%" height="116.1%" x="-4.6%" y="-4.8%" filterUnits="objectBoundingBox">
            <feMorphology in="SourceAlpha" operator="dilate" radius="1" result="shadowSpreadOuter1"/>
            <feOffset dy="2" in="shadowSpreadOuter1" result="shadowOffsetOuter1"/>
            <feGaussianBlur in="shadowOffsetOuter1" result="shadowBlurOuter1" stdDeviation="1"/>
            <feComposite in="shadowBlurOuter1" in2="SourceAlpha" operator="out" result="shadowBlurOuter1"/>
            <feColorMatrix in="shadowBlurOuter1" values="0 0 0 0 0 0 0 0 0 0 0 0 0 0 0 0 0 0 0.25 0"/>
        </filter>
        <path id="dropdown-l" d="M17.595 12.379a1.19 1.19 0 0 0-1.197-1.183 1.19 1.19 0 0 0-1.196 1.179v-.826c0-.857-.719-1.551-1.606-1.551-.886 0-1.592.694-1.592 1.55V10.35c0-.856-.728-1.55-1.611-1.55s-1.586.694-1.586 1.55V1.425C8.807.638 8.168 0 7.397 0c-.772 0-1.398.638-1.398 1.425v15.038l-3.603-4.659c-.346-.586-1.126-.779-1.742-.431-.617.348-.836 1.105-.49 1.691 0 0 2.817 4.369 3.967 6.093C5.281 20.882 7.17 23.01 7.17 24h7.989c0-1.672 2.443-4.283 2.443-6.798v-3.24l-.006-1.583z"/>
        <filter id="dropdown-k" width="185.2%" height="162.5%" x="-42.6%" y="-18.8%" filterUnits="objectBoundingBox">
            <feMorphology in="SourceAlpha" operator="dilate" radius="1" result="shadowSpreadOuter1"/>
            <feOffset dy="1" in="shadowSpreadOuter1" result="shadowOffsetOuter1"/>
            <feGaussianBlur in="shadowOffsetOuter1" result="shadowBlurOuter1" stdDeviation=".5"/>
            <feComposite in="shadowBlurOuter1" in2="SourceAlpha" operator="out" result="shadowBlurOuter1"/>
            <feColorMatrix in="shadowBlurOuter1" result="shadowMatrixOuter1" values="0 0 0 0 0 0 0 0 0 0 0 0 0 0 0 0 0 0 0.582908741 0"/>
            <feMorphology in="SourceAlpha" operator="dilate" radius="1" result="shadowSpreadOuter2"/>
            <feOffset dy="2" in="shadowSpreadOuter2" result="shadowOffsetOuter2"/>
            <feGaussianBlur in="shadowOffsetOuter2" result="shadowBlurOuter2" stdDeviation="1.5"/>
            <feComposite in="shadowBlurOuter2" in2="SourceAlpha" operator="out" result="shadowBlurOuter2"/>
            <feColorMatrix in="shadowBlurOuter2" result="shadowMatrixOuter2" values="0 0 0 0 0 0 0 0 0 0 0 0 0 0 0 0 0 0 0.179347826 0"/>
            <feMerge>
                <feMergeNode in="shadowMatrixOuter1"/>
                <feMergeNode in="shadowMatrixOuter2"/>
            </feMerge>
        </filter>
    </defs>
    <g fill="none" fill-rule="evenodd">
        <path fill="#FFF" d="M-7998-255H6722v3264H-7998z"/>
        <g transform="translate(0 9)">
            <rect width="110" height="33" x="193.5" y="111.5" fill="#FFF" stroke="#A2A9B1" rx="2"/>
            <rect width="110" height="33" x="193.5" y="167.5" fill="#EAECF0" stroke="#72777D" rx="2"/>
            <g transform="translate(283 190)">
                <use fill="#000" filter="url(#dropdown-a)" xlink:href="#dropdown-b"/>
                <path fill="#FFF" stroke="#000" d="M18.095 12.378l.006 1.585v3.239c0 .257-.022.519-.066.787-.155.942-.512 1.811-1.212 3.158-1.01 1.946-1.165 2.297-1.165 2.853v.5h-8.99V24c0-.421-.472-1.169-1.853-3.03l-.079-.106a34.473 34.473 0 0 1-1.02-1.43c-.39-.583-.991-1.5-1.748-2.664l-.027-.043a1115.225 1115.225 0 0 1-2.009-3.1l-.199-.309c-.49-.83-.181-1.897.675-2.38.85-.48 1.932-.212 2.383.56L5.5 15V1.425C5.499.365 6.346-.5 7.396-.5c1.052 0 1.91.865 1.91 1.925v7.172c.317-.189.689-.298 1.087-.298.977 0 1.809.653 2.044 1.54.332-.216.73-.341 1.16-.341.926 0 1.716.584 1.996 1.399a1.7 1.7 0 0 1 .805-.201 1.69 1.69 0 0 1 1.697 1.682z"/>
            </g>
            <g transform="translate(283 134)">
                <use fill="#000" filter="url(#dropdown-c)" xlink:href="#dropdown-d"/>
                <path fill="#FFF" stroke="#000" d="M18.095 12.378l.006 1.585v3.239c0 .257-.022.519-.066.787-.155.942-.512 1.811-1.212 3.158-1.01 1.946-1.165 2.297-1.165 2.853v.5h-8.99V24c0-.421-.472-1.169-1.853-3.03l-.079-.106a34.473 34.473 0 0 1-1.02-1.43c-.39-.583-.991-1.5-1.748-2.664l-.027-.043a1115.225 1115.225 0 0 1-2.009-3.1l-.199-.309c-.49-.83-.181-1.897.675-2.38.85-.48 1.932-.212 2.383.56L5.5 15V1.425C5.499.365 6.346-.5 7.396-.5c1.052 0 1.91.865 1.91 1.925v7.172c.317-.189.689-.298 1.087-.298.977 0 1.809.653 2.044 1.54.332-.216.73-.341 1.16-.341.926 0 1.716.584 1.996 1.399a1.7 1.7 0 0 1 .805-.201 1.69 1.69 0 0 1 1.697 1.682z"/>
            </g>
            <g stroke="#36C">
                <path fill="#FFF" stroke-linejoin="square" d="M194.5 255.5h108v-29.498c0-.832-.671-1.502-1.509-1.502H196.01a1.5 1.5 0 0 0-1.509 1.502V255.5z"/>
                <path d="M196.009 223.5H300.99a2.501 2.501 0 0 1 2.509 2.502V256.5h-110v-30.498a2.5 2.5 0 0 1 2.509-2.502z"/>
            </g>
            <use fill="#000" filter="url(#dropdown-e)" xlink:href="#dropdown-f"/>
            <path fill="#FFF" stroke="#A2A9B1" d="M193.5 256.443h110v60.508a2.506 2.506 0 0 1-2.509 2.492H196.01a2.497 2.497 0 0 1-2.509-2.492v-60.508z"/>
            <rect width="110" height="33" x="193.5" y="55.5" fill="#F8F9FA" stroke="#A2A9B1" rx="2"/>
            <text fill="#222" font-family="HelveticaNeue-Bold, Helvetica Neue" font-size="16" font-weight="bold">
                <tspan x="209" y="78">Neutral</tspan>
            </text>
            <text fill="#444" font-family="HelveticaNeue-Bold, Helvetica Neue" font-size="16" font-weight="bold">
                <tspan x="209" y="134">Neutral</tspan>
            </text>
            <text fill="#000" font-family="HelveticaNeue-Bold, Helvetica Neue" font-size="16" font-weight="bold">
                <tspan x="209" y="190">Neutral</tspan>
            </text>
            <text fill="#222" font-family="HelveticaNeue-Bold, Helvetica Neue" font-size="16" font-weight="bold">
                <tspan x="209" y="246">Neutral</tspan>
            </text>
            <path fill="#222" d="M287 70.264L285.842 69 281 73.632 276.264 69 275 70.264l6 6 6-6M287 126.264L285.842 125 281 129.632 276.264 125 275 126.264l6 6 6-6"/>
            <g stroke="#36C">
                <rect width="111" height="33" x="193.5" y="343.5" rx="2"/>
                <rect width="109" height="31" x="194.5" y="344.5" stroke-linejoin="square" rx="2"/>
            </g>
            <text fill="#222" font-family="HelveticaNeue-Bold, Helvetica Neue" font-size="16" font-weight="bold">
                <tspan x="209" y="366">Neutral</tspan>
            </text>
            <path fill="#222" d="M287 358.264L285.842 357 281 361.632 276.264 357 275 358.264l6 6 6-6"/>
            <rect width="110" height="33" x="193.5" y="-.5" fill="#C8CCD1" stroke="#C8CCD1" rx="2"/>
            <text fill="#FFF" font-family="HelveticaNeue-Bold, Helvetica Neue" font-size="16" font-weight="bold">
                <tspan x="209" y="22">Neutral</tspan>
            </text>
            <path fill="#FFF" d="M287 15.264L285.842 14 281 18.632 276.264 14 275 15.264l6 6 6-6"/>
            <path fill="#000" d="M287 182.264L285.842 181 281 185.632 276.264 181 275 182.264l6 6 6-6M287 238.264L285.842 237 281 241.632 276.264 237 275 238.264l6 6 6-6"/>
            <path stroke="#D0021B" stroke-linecap="square" d="M287.5 238.5h15m-15 1h15m-15 1h15m-15 1h15"/>
            <path stroke="#50E3C2" stroke-linecap="square" d="M215.5 8.5v-7m-1 7v-7m3 7v-7m-1 7v-7M216.5 224.5v7m1-7v7m-3-7v7m1-7v7M215.5 31.5v-7m-1 7v-7m3 7v-7m-1 7v-7"/>
            <path stroke="#D0021B" stroke-linecap="square" d="M194.5 14.5h15m-15 1h15m-15 1h15m-15 1h15M287.5 14.5h15m-15 1h15m-15 1h15m-15 1h15"/>
            <path stroke="#50E3C2" stroke-linecap="square" d="M266.5 15.5h7m-7-1h7m-7 3h7m-7-1h7"/>
            <path stroke="#D0021B" stroke-linecap="square" d="M194.5 239.5h15m-15 1h15m-15 1h15m-15 1h15"/>
            <path stroke="#50E3C2" stroke-linecap="square" d="M266.5 239.5h7m-7-1h7m-7 3h7m-7-1h7"/>
            <text fill="#222" font-family="HelveticaNeue, Helvetica Neue" font-size="14">
                <tspan x="222.314" y="277">Neutral</tspan> <tspan x="209" y="305.314">Neutral 2</tspan>
            </text>
            <use fill="#000" filter="url(#dropdown-g)" xlink:href="#dropdown-h"/>
            <path fill="#FFF" stroke="#A2A9B1" d="M453.5 256.443h110v60.508a2.506 2.506 0 0 1-2.509 2.492H456.01a2.497 2.497 0 0 1-2.509-2.492v-60.508z"/>
            <path fill="#EBF2FF" d="M454 289h109v28.002c0 .551-.44.998-1.01.998H455.01a1.01 1.01 0 0 1-1.01-.998V289z"/>
            <g stroke="#36C">
                <path fill="#FFF" stroke-linejoin="square" d="M454.5 255.5h108v-29.498c0-.832-.671-1.502-1.509-1.502H456.01a1.5 1.5 0 0 0-1.509 1.502V255.5z"/>
                <path d="M456.009 223.5H560.99a2.501 2.501 0 0 1 2.509 2.502V256.5h-110v-30.498a2.5 2.5 0 0 1 2.509-2.502z"/>
            </g>
            <text fill="#222" font-family="HelveticaNeue-Bold, Helvetica Neue" font-size="16" font-weight="bold">
                <tspan x="466.152" y="246">Neutral</tspan>
            </text>
            <path fill="#000" d="M541 238.264L539.842 237 535 241.632 530.264 237 529 238.264l6 6 6-6"/>
            <text font-family="HelveticaNeue, Helvetica Neue" font-size="14">
                <tspan x="483.314" y="278" fill="#222">Neutral</tspan> <tspan x="470" y="306.314" fill="#36C">Neutral 2</tspan>
            </text>
            <path stroke="#50E3C2" stroke-linecap="square" d="M216.5 248.5v7m1-7v7m-3-7v7m1-7v7M216.5 279.5v7m1-7v7m-3-7v7m1-7v7M216.5 257.5v7m1-7v7m-3-7v7m1-7v7M216.5 288.5v7m1-7v7m-3-7v7m1-7v7M216.5 311.5v7m1-7v7m-3-7v7m1-7v7"/>
            <circle cx="201.5" cy="270.5" r="2.5" fill="#36C"/>
            <g transform="translate(322 224)">
                <g stroke="#36C">
                    <path fill="#FFF" stroke-linejoin="square" d="M.5 31.5h108V2.002c0-.832-.671-1.502-1.509-1.502H2.01A1.5 1.5 0 0 0 .5 2.002V31.5z"/>
                    <path d="M2.009-.5H106.99a2.501 2.501 0 0 1 2.509 2.502V32.5H-.5V2.002A2.5 2.5 0 0 1 2.009-.5z"/>
                </g>
                <use fill="#000" filter="url(#dropdown-i)" xlink:href="#dropdown-j"/>
                <path fill="#FFF" stroke="#A2A9B1" d="M-.5 32.443h110v60.508a2.506 2.506 0 0 1-2.509 2.492H2.01A2.497 2.497 0 0 1-.5 92.951V32.443z"/>
                <path fill="#EAECF0" d="M0 65h109v29.002c0 .551-.44.998-1.01.998H1.01C.451 95 0 94.553 0 94.002V65z"/>
                <text fill="#222" font-family="HelveticaNeue-Bold, Helvetica Neue" font-size="16" font-weight="bold">
                    <tspan x="15" y="22">Neutral</tspan>
                </text>
                <path fill="#222" d="M90 14.264L88.842 13 84 17.632 79.264 13 78 14.264l6 6 6-6"/>
                <text font-family="HelveticaNeue, Helvetica Neue" font-size="14">
                    <tspan x="29.314" y="54" fill="#222">Neutral</tspan> <tspan x="16" y="82.314" fill="#000">Neutral 2</tspan>
                </text>
                <circle cx="8.5" cy="49.5" r="2.5" fill="#36C"/>
            </g>
            <g transform="translate(406 303)">
                <use fill="#000" filter="url(#dropdown-k)" xlink:href="#dropdown-l"/>
                <path fill="#FFF" stroke="#000" d="M18.095 12.378l.006 1.585v3.239c0 .257-.022.519-.066.787-.155.942-.512 1.811-1.212 3.158-1.01 1.946-1.165 2.297-1.165 2.853v.5h-8.99V24c0-.421-.472-1.169-1.853-3.03l-.079-.106a34.473 34.473 0 0 1-1.02-1.43c-.39-.583-.991-1.5-1.748-2.664l-.027-.043a1115.225 1115.225 0 0 1-2.009-3.1l-.199-.309c-.49-.83-.181-1.897.675-2.38.85-.48 1.932-.212 2.383.56L5.5 15V1.425C5.499.365 6.346-.5 7.396-.5c1.052 0 1.91.865 1.91 1.925v7.172c.317-.189.689-.298 1.087-.298.977 0 1.809.653 2.044 1.54.332-.216.73-.341 1.16-.341.926 0 1.716.584 1.996 1.399a1.7 1.7 0 0 1 .805-.201 1.69 1.69 0 0 1 1.697 1.682z"/>
            </g>
            <circle cx="462.5" cy="271.5" r="2.5" fill="#36C"/>
            <text fill="#72777D" font-family="Lato-Regular, Lato" font-size="14">
                <tspan x="0" y="23"> DISABLED</tspan> <tspan x="0" y="79.4"> NORMAL</tspan> <tspan x="0" y="135.8">:HOVER</tspan> <tspan x="0" y="192.2">:ACTIVE</tspan> <tspan x="0" y="248.6"> EXPANDED MENU</tspan> <tspan x="0" y="267.4">:FOCUS</tspan>
            </text>
        </g>
    </g>
</svg>
