<?xml version="1.0" encoding="UTF-8"?>
<svg xmlns="http://www.w3.org/2000/svg" xmlns:xlink="http://www.w3.org/1999/xlink" width="468" height="332" viewBox="0 0 468 332">
	<title>
		dropdowns_states
	</title>
	<defs>
		<polyline id="path-1" points="12 3.664 10.842 2.4 6 7.032 1.264 2.4 0 3.664 6 9.664 12 3.664"/>
		<rect id="path-3" width="272" height="32" x="0" y="0" rx="2"/>
		<filter id="filter-4" width="102.9%" height="128.1%" x="-1.5%" y="-9.4%" filterUnits="objectBoundingBox">
			<feOffset dy="2" in="SourceAlpha" result="shadowOffsetOuter1"/>
			<feGaussianBlur in="shadowOffsetOuter1" result="shadowBlurOuter1" stdDeviation="1"/>
			<feComposite in="shadowBlurOuter1" in2="SourceAlpha" operator="out" result="shadowBlurOuter1"/>
			<feColorMatrix in="shadowBlurOuter1" values="0 0 0 0 0   0 0 0 0 0   0 0 0 0 0  0 0 0 0.25 0"/>
		</filter>
		<polyline id="path-5" points="12 3.664 10.842 2.4 6 7.032 1.264 2.4 0 3.664 6 9.664 12 3.664"/>
		<path id="path-7" d="M17.5954523,12.3787874 C17.5954523,11.7256091 17.0590701,11.1960268 16.3978922,11.1960268 C15.7383142,11.1960268 15.203532,11.7232092 15.2015321,12.3747875 L15.2015321,11.548815 C15.2015321,10.6920436 14.483156,9.99766674 13.5963856,9.99766674 C12.7096151,9.99766674 12.0036387,10.6920436 12.0036387,11.548815 L12.0036387,10.350455 C12.0036387,9.49368354 11.2756629,8.79930669 10.3928923,8.79930669 C9.51012177,8.79930669 8.80654522,9.49408353 8.80654522,10.350455 L8.80654522,1.42515249 C8.80654522,0.637978734 8.1681665,-2.3109992e-14 7.39619224,-2.3109992e-14 C6.62461796,-2.3109992e-14 5.99863882,0.638378721 5.99863882,1.42515249 L5.99863882,16.4630512 L2.39595891,11.8040065 C2.04997044,11.2180261 1.26999644,11.0252325 0.653616989,11.3728209 C0.0372375346,11.7208093 -0.181955159,12.4779841 0.164033308,13.0639645 C0.164033308,13.0639645 2.9811394,17.4326189 4.13110107,19.1573614 C5.28106274,20.8821039 7.16859982,23.009633 7.16859982,24 L15.1579335,24 C15.1579335,22.3280557 17.6014521,19.7165428 17.6014521,17.2018266 L17.6014521,13.9627346 L17.5954523,12.3787874 Z"/>
		<filter id="filter-8" width="173.9%" height="154.2%" x="-36.9%" y="-18.8%" filterUnits="objectBoundingBox">
			<feMorphology in="SourceAlpha" operator="dilate" radius="1" result="shadowSpreadOuter1"/>
			<feOffset dy="1" in="shadowSpreadOuter1" result="shadowOffsetOuter1"/>
			<feGaussianBlur in="shadowOffsetOuter1" result="shadowBlurOuter1" stdDeviation=".5"/>
			<feComposite in="shadowBlurOuter1" in2="SourceAlpha" operator="out" result="shadowBlurOuter1"/>
			<feColorMatrix in="shadowBlurOuter1" result="shadowMatrixOuter1" values="0 0 0 0 0   0 0 0 0 0   0 0 0 0 0  0 0 0 0.582908741 0"/>
			<feMorphology in="SourceAlpha" operator="dilate" radius="1" result="shadowSpreadOuter2"/>
			<feOffset dy="2" in="shadowSpreadOuter2" result="shadowOffsetOuter2"/>
			<feGaussianBlur in="shadowOffsetOuter2" result="shadowBlurOuter2" stdDeviation="1.5"/>
			<feComposite in="shadowBlurOuter2" in2="SourceAlpha" operator="out" result="shadowBlurOuter2"/>
			<feColorMatrix in="shadowBlurOuter2" result="shadowMatrixOuter2" values="0 0 0 0 0   0 0 0 0 0   0 0 0 0 0  0 0 0 0.179347826 0"/>
			<feMerge>
				<feMergeNode in="shadowMatrixOuter1"/>
				<feMergeNode in="shadowMatrixOuter2"/>
			</feMerge>
		</filter>
		<path id="path-9" d="M17.5954523,12.3787874 C17.5954523,11.7256091 17.0590701,11.1960268 16.3978922,11.1960268 C15.7383142,11.1960268 15.203532,11.7232092 15.2015321,12.3747875 L15.2015321,11.548815 C15.2015321,10.6920436 14.483156,9.99766674 13.5963856,9.99766674 C12.7096151,9.99766674 12.0036387,10.6920436 12.0036387,11.548815 L12.0036387,10.350455 C12.0036387,9.49368354 11.2756629,8.79930669 10.3928923,8.79930669 C9.51012177,8.79930669 8.80654522,9.49408353 8.80654522,10.350455 L8.80654522,1.42515249 C8.80654522,0.637978734 8.1681665,-2.3109992e-14 7.39619224,-2.3109992e-14 C6.62461796,-2.3109992e-14 5.99863882,0.638378721 5.99863882,1.42515249 L5.99863882,16.4630512 L2.39595891,11.8040065 C2.04997044,11.2180261 1.26999644,11.0252325 0.653616989,11.3728209 C0.0372375346,11.7208093 -0.181955159,12.4779841 0.164033308,13.0639645 C0.164033308,13.0639645 2.9811394,17.4326189 4.13110107,19.1573614 C5.28106274,20.8821039 7.16859982,23.009633 7.16859982,24 L15.1579335,24 C15.1579335,22.3280557 17.6014521,19.7165428 17.6014521,17.2018266 L17.6014521,13.9627346 L17.5954523,12.3787874 Z"/>
		<filter id="filter-10" width="173.9%" height="154.2%" x="-36.9%" y="-18.8%" filterUnits="objectBoundingBox">
			<feMorphology in="SourceAlpha" operator="dilate" radius="1" result="shadowSpreadOuter1"/>
			<feOffset dy="1" in="shadowSpreadOuter1" result="shadowOffsetOuter1"/>
			<feGaussianBlur in="shadowOffsetOuter1" result="shadowBlurOuter1" stdDeviation=".5"/>
			<feComposite in="shadowBlurOuter1" in2="SourceAlpha" operator="out" result="shadowBlurOuter1"/>
			<feColorMatrix in="shadowBlurOuter1" result="shadowMatrixOuter1" values="0 0 0 0 0   0 0 0 0 0   0 0 0 0 0  0 0 0 0.582908741 0"/>
			<feMorphology in="SourceAlpha" operator="dilate" radius="1" result="shadowSpreadOuter2"/>
			<feOffset dy="2" in="shadowSpreadOuter2" result="shadowOffsetOuter2"/>
			<feGaussianBlur in="shadowOffsetOuter2" result="shadowBlurOuter2" stdDeviation="1.5"/>
			<feComposite in="shadowBlurOuter2" in2="SourceAlpha" operator="out" result="shadowBlurOuter2"/>
			<feColorMatrix in="shadowBlurOuter2" result="shadowMatrixOuter2" values="0 0 0 0 0   0 0 0 0 0   0 0 0 0 0  0 0 0 0.179347826 0"/>
			<feMerge>
				<feMergeNode in="shadowMatrixOuter1"/>
				<feMergeNode in="shadowMatrixOuter2"/>
			</feMerge>
		</filter>
		<polyline id="path-11" points="12 3.664 10.842 2.4 6 7.032 1.264 2.4 0 3.664 6 9.664 12 3.664"/>
		<rect id="path-13" width="272" height="32" x="0" y="0" rx="2"/>
		<filter id="filter-14" width="102.9%" height="128.1%" x="-1.5%" y="-9.4%" filterUnits="objectBoundingBox">
			<feOffset dy="2" in="SourceAlpha" result="shadowOffsetOuter1"/>
			<feGaussianBlur in="shadowOffsetOuter1" result="shadowBlurOuter1" stdDeviation="1"/>
			<feComposite in="shadowBlurOuter1" in2="SourceAlpha" operator="out" result="shadowBlurOuter1"/>
			<feColorMatrix in="shadowBlurOuter1" values="0 0 0 0 0   0 0 0 0 0   0 0 0 0 0  0 0 0 0.25 0"/>
		</filter>
		<polyline id="path-15" points="12 3.664 10.842 2.4 6 7.032 1.264 2.4 0 3.664 6 9.664 12 3.664"/>
		<path id="path-17" d="M0,32 L0,93.9967014 C0,95.1030927 0.892519723,96 1.99477396,96 L270.005226,96 C271.106909,96 272,95.0952759 272,93.9967014 L272,32 L0,32 Z"/>
		<filter id="filter-18" width="102.9%" height="112.5%" x="-1.5%" y="-3.1%" filterUnits="objectBoundingBox">
			<feOffset dy="2" in="SourceAlpha" result="shadowOffsetOuter1"/>
			<feGaussianBlur in="shadowOffsetOuter1" result="shadowBlurOuter1" stdDeviation="1"/>
			<feComposite in="shadowBlurOuter1" in2="SourceAlpha" operator="out" result="shadowBlurOuter1"/>
			<feColorMatrix in="shadowBlurOuter1" values="0 0 0 0 0   0 0 0 0 0   0 0 0 0 0  0 0 0 0.25 0"/>
		</filter>
		<polyline id="path-19" points="12 3.664 10.842 2.4 6 7.032 1.264 2.4 0 3.664 6 9.664 12 3.664"/>
		<path id="path-21" d="M17.5954523,12.3787874 C17.5954523,11.7256091 17.0590701,11.1960268 16.3978922,11.1960268 C15.7383142,11.1960268 15.203532,11.7232092 15.2015321,12.3747875 L15.2015321,11.548815 C15.2015321,10.6920436 14.483156,9.99766674 13.5963856,9.99766674 C12.7096151,9.99766674 12.0036387,10.6920436 12.0036387,11.548815 L12.0036387,10.350455 C12.0036387,9.49368354 11.2756629,8.79930669 10.3928923,8.79930669 C9.51012177,8.79930669 8.80654522,9.49408353 8.80654522,10.350455 L8.80654522,1.42515249 C8.80654522,0.637978734 8.1681665,-2.3109992e-14 7.39619224,-2.3109992e-14 C6.62461796,-2.3109992e-14 5.99863882,0.638378721 5.99863882,1.42515249 L5.99863882,16.4630512 L2.39595891,11.8040065 C2.04997044,11.2180261 1.26999644,11.0252325 0.653616989,11.3728209 C0.0372375346,11.7208093 -0.181955159,12.4779841 0.164033308,13.0639645 C0.164033308,13.0639645 2.9811394,17.4326189 4.13110107,19.1573614 C5.28106274,20.8821039 7.16859982,23.009633 7.16859982,24 L15.1579335,24 C15.1579335,22.3280557 17.6014521,19.7165428 17.6014521,17.2018266 L17.6014521,13.9627346 L17.5954523,12.3787874 Z"/>
		<filter id="filter-22" width="173.9%" height="154.2%" x="-36.9%" y="-18.8%" filterUnits="objectBoundingBox">
			<feMorphology in="SourceAlpha" operator="dilate" radius="1" result="shadowSpreadOuter1"/>
			<feOffset dy="1" in="shadowSpreadOuter1" result="shadowOffsetOuter1"/>
			<feGaussianBlur in="shadowOffsetOuter1" result="shadowBlurOuter1" stdDeviation=".5"/>
			<feComposite in="shadowBlurOuter1" in2="SourceAlpha" operator="out" result="shadowBlurOuter1"/>
			<feColorMatrix in="shadowBlurOuter1" result="shadowMatrixOuter1" values="0 0 0 0 0   0 0 0 0 0   0 0 0 0 0  0 0 0 0.582908741 0"/>
			<feMorphology in="SourceAlpha" operator="dilate" radius="1" result="shadowSpreadOuter2"/>
			<feOffset dy="2" in="shadowSpreadOuter2" result="shadowOffsetOuter2"/>
			<feGaussianBlur in="shadowOffsetOuter2" result="shadowBlurOuter2" stdDeviation="1.5"/>
			<feComposite in="shadowBlurOuter2" in2="SourceAlpha" operator="out" result="shadowBlurOuter2"/>
			<feColorMatrix in="shadowBlurOuter2" result="shadowMatrixOuter2" values="0 0 0 0 0   0 0 0 0 0   0 0 0 0 0  0 0 0 0.179347826 0"/>
			<feMerge>
				<feMergeNode in="shadowMatrixOuter1"/>
				<feMergeNode in="shadowMatrixOuter2"/>
			</feMerge>
		</filter>
	</defs>
	<g id="Artboard-page" fill="none" fill-rule="evenodd" stroke="none" stroke-width="1">
		<g id="WikimediaUI-components_overview" transform="translate(-8579 -255)">
			<rect width="14720" height="3264" fill="#FFF"/>
			<g id="DROPDOWN" transform="translate(8579 186)">
				<g id="Dropdown-X" transform="translate(1 70)">
					<g id="Dropdown-/-:hover" transform="translate(192 56)">
						<g id="Dropdown-/-!default">
							<rect id="Dropdown" width="271" height="31" x=".5" y=".5" fill="#FFF" fill-rule="evenodd" stroke="#A2A9B1" stroke-width="1" rx="2"/>
							<text id="Label" fill="#444" font-family="HelveticaNeue-Bold, Helvetica Neue, sans-serif" font-size="16" font-weight="bold">
								<tspan x="13.152" y="23">Neutral</tspan>
							</text>
							<g id="🔣-Icon/Indicators/down" transform="translate(249 11)">
								<mask id="mask-2" fill="#fff">
									<use xlink:href="#path-1"/>
								</mask>
								<use id="Mask-2" fill="#000" fill-rule="evenodd" xlink:href="#path-1"/>
								<g id="🎨-Color/Base10-(#222)" fill="#222" fill-rule="evenodd" mask="url(#mask-2)">
									<rect id="Rectangle-1" width="12" height="12" x="0" y="0"/>
								</g>
							</g>
						</g>
					</g>
					<g id="Dropdown-/-:focus" transform="translate(192 112)">
						<g id="Dropdown-/-!default">
							<g id="Dropdown">
								<use fill="#000" filter="url(#filter-4)" xlink:href="#path-3"/>
								<rect width="271" height="31" x=".5" y=".5" fill="#FFF" stroke="#36C" stroke-linejoin="square" rx="2"/>
								<rect width="273" height="33" x="-.5" y="-.5" stroke="#36C" rx="2"/>
							</g>
							<text id="Label" fill="#222" font-family="HelveticaNeue-Bold, Helvetica Neue, sans-serif" font-size="16" font-weight="bold">
								<tspan x="13" y="23">Neutral</tspan>
							</text>
							<g id="🔣-Icon/Indicators/down" transform="translate(249 11)">
								<mask id="mask-6" fill="#fff">
									<use xlink:href="#path-5"/>
								</mask>
								<use id="Mask-2" fill="#000" fill-rule="evenodd" xlink:href="#path-5"/>
								<g id="🎨-Color/Base10-(#222)" fill="#222" fill-rule="evenodd" mask="url(#mask-6)">
									<rect id="Rectangle-1" width="12" height="12" x="0" y="0"/>
								</g>
							</g>
						</g>
					</g>
					<g id="Cursor-/-Pointer" transform="translate(404 134)">
						<g id="Cursor-Pointer">
							<use fill="#000" filter="url(#filter-8)" xlink:href="#path-7"/>
							<path fill="#FFF" stroke="#000" d="M5.49863882,14.9990679 L5.49863882,1.42515249 C5.49863882,0.364390213 6.34627404,-0.5 7.39619224,-0.5 C8.4475222,-0.5 9.30654522,0.365060667 9.30654522,1.42515249 L9.30654522,8.59739976 C9.62275187,8.40813447 9.99458465,8.29930669 10.3928923,8.29930669 C11.3696842,8.29930669 12.2017759,8.95226109 12.4371411,9.83891321 C12.7687636,9.62309774 13.1672561,9.49766674 13.5963856,9.49766674 C14.5229268,9.49766674 15.3133259,10.0818718 15.5931989,10.8969793 C15.8327664,10.7687518 16.10688,10.6960268 16.3978922,10.6960268 C17.3338791,10.6960268 18.0954523,11.4481132 18.0954523,12.3787874 L18.0954487,12.3768934 L18.1014521,13.9627346 L18.1014521,17.2018266 C18.1014521,17.45899 18.0788416,17.7210344 18.0348962,17.9890448 C17.8804952,18.9306924 17.5230199,19.8003644 16.8234169,21.1474064 C15.8127426,23.093397 15.6579335,23.4442918 15.6579335,24 L15.6579335,24.5 L6.66859982,24.5 L6.66859982,24 C6.66859982,23.5786103 6.19563371,22.8309976 4.81529743,20.9702918 C4.77572637,20.916944 4.77572637,20.916944 4.73613542,20.8635322 C4.25954481,20.2204113 3.97897576,19.8305154 3.71509077,19.4347338 C3.32594411,18.8510815 2.72477886,17.9332706 1.96848974,16.7703263 C1.95455156,16.7488931 1.95455156,16.7488931 1.94061413,16.727459 C1.45803808,15.9852984 0.942759518,15.1902097 0.428630429,14.3951327 C0.248691135,14.1168648 0.137397398,13.944607 -0.0679723281,13.6265707 C-0.221942375,13.3880215 -0.221942375,13.3880215 -0.266517693,13.3181807 C-0.757186346,12.4871638 -0.448495824,11.4208575 0.408016869,10.9372976 C1.25796465,10.4579954 2.33990048,10.7256484 2.79149833,11.4981494 L5.49863882,14.9990679 Z"/>
						</g>
					</g>
					<g id="Cursor-/-Pointer" transform="translate(404 78)">
						<g id="Cursor-Pointer">
							<use fill="#000" filter="url(#filter-10)" xlink:href="#path-9"/>
							<path fill="#FFF" stroke="#000" d="M5.49863882,14.9990679 L5.49863882,1.42515249 C5.49863882,0.364390213 6.34627404,-0.5 7.39619224,-0.5 C8.4475222,-0.5 9.30654522,0.365060667 9.30654522,1.42515249 L9.30654522,8.59739976 C9.62275187,8.40813447 9.99458465,8.29930669 10.3928923,8.29930669 C11.3696842,8.29930669 12.2017759,8.95226109 12.4371411,9.83891321 C12.7687636,9.62309774 13.1672561,9.49766674 13.5963856,9.49766674 C14.5229268,9.49766674 15.3133259,10.0818718 15.5931989,10.8969793 C15.8327664,10.7687518 16.10688,10.6960268 16.3978922,10.6960268 C17.3338791,10.6960268 18.0954523,11.4481132 18.0954523,12.3787874 L18.0954487,12.3768934 L18.1014521,13.9627346 L18.1014521,17.2018266 C18.1014521,17.45899 18.0788416,17.7210344 18.0348962,17.9890448 C17.8804952,18.9306924 17.5230199,19.8003644 16.8234169,21.1474064 C15.8127426,23.093397 15.6579335,23.4442918 15.6579335,24 L15.6579335,24.5 L6.66859982,24.5 L6.66859982,24 C6.66859982,23.5786103 6.19563371,22.8309976 4.81529743,20.9702918 C4.77572637,20.916944 4.77572637,20.916944 4.73613542,20.8635322 C4.25954481,20.2204113 3.97897576,19.8305154 3.71509077,19.4347338 C3.32594411,18.8510815 2.72477886,17.9332706 1.96848974,16.7703263 C1.95455156,16.7488931 1.95455156,16.7488931 1.94061413,16.727459 C1.45803808,15.9852984 0.942759518,15.1902097 0.428630429,14.3951327 C0.248691135,14.1168648 0.137397398,13.944607 -0.0679723281,13.6265707 C-0.221942375,13.3880215 -0.221942375,13.3880215 -0.266517693,13.3181807 C-0.757186346,12.4871638 -0.448495824,11.4208575 0.408016869,10.9372976 C1.25796465,10.4579954 2.33990048,10.7256484 2.79149833,11.4981494 L5.49863882,14.9990679 Z"/>
						</g>
					</g>
					<g id="Dropdown-/-!default" transform="translate(192)">
						<rect id="Dropdown" width="271" height="31" x=".5" y=".5" fill="#F8F9FA" fill-rule="evenodd" stroke="#A2A9B1" stroke-width="1" rx="2"/>
						<text id="Label" fill="#222" font-family="HelveticaNeue-Bold, Helvetica Neue, sans-serif" font-size="16" font-weight="bold">
							<tspan x="13" y="23">Neutral</tspan>
						</text>
						<g id="🔣-Icon/Indicators/down" transform="translate(249 11)">
							<mask id="mask-12" fill="#fff">
								<use xlink:href="#path-11"/>
							</mask>
							<use id="Mask-2" fill="#000" fill-rule="evenodd" xlink:href="#path-11"/>
							<g id="🎨-Color/Base10-(#222)" fill="#222" fill-rule="evenodd" mask="url(#mask-12)">
								<rect id="Rectangle-1" width="12" height="12" x="0" y="0"/>
							</g>
						</g>
					</g>
					<g id="Dropdown-/---expanded:focus" transform="translate(191 168)">
						<g id="Dropdown-/-!default">
							<g id="Dropdown">
								<use fill="#000" filter="url(#filter-14)" xlink:href="#path-13"/>
								<rect width="271" height="31" x=".5" y=".5" fill="#FFF" stroke="#36C" stroke-linejoin="square" rx="2"/>
								<rect width="273" height="33" x="-.5" y="-.5" stroke="#36C" rx="2"/>
							</g>
							<text id="Label" fill="#222" font-family="HelveticaNeue-Bold, Helvetica Neue, sans-serif" font-size="16" font-weight="bold">
								<tspan x="13" y="23">Neutral</tspan>
							</text>
							<g id="🔣-Icon/Indicators/down" transform="translate(249 11)">
								<mask id="mask-16" fill="#fff">
									<use xlink:href="#path-15"/>
								</mask>
								<use id="Mask-2" fill="#000" fill-rule="evenodd" xlink:href="#path-15"/>
								<g id="🎨-Color/Base10-(#222)" fill="#222" fill-rule="evenodd" mask="url(#mask-16)">
									<rect id="Rectangle-1" width="12" height="12" x="0" y="0"/>
								</g>
							</g>
						</g>
						<g id="Bg-menu">
							<use fill="#000" filter="url(#filter-18)" xlink:href="#path-17"/>
							<path fill="#FFF" stroke="#A2A9B1" stroke-linejoin="square" d="M0.5,32.5 L0.5,93.9967014 C0.5,94.8276466 1.16935998,95.5 1.99477396,95.5 L270.005226,95.5 C270.827304,95.5 271.5,94.8226088 271.5,93.9967014 L271.5,32.5 L0.5,32.5 Z"/>
						</g>
						<path id="Bg-menu-option:hover" fill="#EBF2FF" fill-rule="evenodd" d="M1,33 L271,33 L271,64.0072136 C271,64.5555144 270.562006,65 269.995324,65 L2.00467614,65 C1.44980883,65 1,64.5476379 1,64.0072136 L1,33 Z"/>
						<path id="Bg-menu-option:hover" fill="#EAECF0" fill-rule="evenodd" d="M1,65 L271,65 L271,94.0018463 C271,94.5531114 270.562006,95 269.995324,95 L2.00467614,95 C1.44980883,95 1,94.5526348 1,94.0018463 L1,65 Z"/>
						<text id="Menu-option" fill="#222" font-family="HelveticaNeue, Helvetica Neue, sans-serif" font-size="14" font-weight="normal">
							<tspan x="13" y="86">Neutral 2</tspan>
						</text>
						<text id="Menu-option" fill="#222" font-family="HelveticaNeue, Helvetica Neue, sans-serif" font-size="14" font-weight="normal">
							<tspan x="13" y="54">Neutral</tspan>
						</text>
					</g>
					<g id="Dropdown-/-:disabled" transform="translate(192 296)">
						<g id="Dropdown-/-!default">
							<rect id="Dropdown" width="271" height="31" x=".5" y=".5" fill="#C8CCD1" fill-rule="evenodd" stroke="#C8CCD1" stroke-width="1" rx="2"/>
							<text id="Label" fill="#FFF" font-family="HelveticaNeue-Bold, Helvetica Neue, sans-serif" font-size="16" font-weight="bold">
								<tspan x="13" y="23">Neutral</tspan>
							</text>
							<g id="🔣-Icon/Indicators/down" transform="translate(249 11)">
								<mask id="mask-20" fill="#fff">
									<use xlink:href="#path-19"/>
								</mask>
								<use id="Mask-2" fill="#000" fill-rule="evenodd" xlink:href="#path-19"/>
								<g id="🎨-Color/Base100-#fff" fill="#FFF" fill-rule="evenodd" mask="url(#mask-20)">
									<polygon id="Rectangle-1" points="0 0 12 0 12 12 0 12"/>
								</g>
							</g>
						</g>
					</g>
					<g id="_Spec-/-8-sp-(0.5-em)" stroke="#50E3C2" stroke-width="4" transform="translate(455 310)">
						<line id="8-sp-(0.5-em)" x1="0" x2="8" y1="2" y2="2"/>
					</g>
					<g id="_Spec-/-8-sp-(0.5-em)" stroke="#50E3C2" stroke-width="4" transform="rotate(-90 257 48)">
						<line id="8-sp-(0.5-em)" x1="0" x2="8" y1="2" y2="2"/>
					</g>
					<g id="_Spec-/-8-sp-(0.5-em)" stroke="#50E3C2" stroke-width="4" transform="rotate(-90 268.5 59.5)">
						<line id="8-sp-(0.5-em)" x1="0" x2="8" y1="2" y2="2"/>
					</g>
					<g id="_Spec-/-8-sp-(0.5-em)" stroke="#50E3C2" stroke-width="4" transform="translate(433 310)">
						<line id="8-sp-(0.5-em)" x1="0" x2="8" y1="2" y2="2"/>
					</g>
					<g id="_Spec-/-12-sp-(0.75-em)" stroke="#0082FF" stroke-width="4" transform="translate(193 311)">
						<line id=".75em" x1="0" x2="12" y1="1" y2="1"/>
					</g>
					<g id="Cursor-/-Pointer" transform="translate(404 247)">
						<g id="Cursor-Pointer">
							<use fill="#000" filter="url(#filter-22)" xlink:href="#path-21"/>
							<path fill="#FFF" stroke="#000" d="M5.49863882,14.9990679 L5.49863882,1.42515249 C5.49863882,0.364390213 6.34627404,-0.5 7.39619224,-0.5 C8.4475222,-0.5 9.30654522,0.365060667 9.30654522,1.42515249 L9.30654522,8.59739976 C9.62275187,8.40813447 9.99458465,8.29930669 10.3928923,8.29930669 C11.3696842,8.29930669 12.2017759,8.95226109 12.4371411,9.83891321 C12.7687636,9.62309774 13.1672561,9.49766674 13.5963856,9.49766674 C14.5229268,9.49766674 15.3133259,10.0818718 15.5931989,10.8969793 C15.8327664,10.7687518 16.10688,10.6960268 16.3978922,10.6960268 C17.3338791,10.6960268 18.0954523,11.4481132 18.0954523,12.3787874 L18.0954487,12.3768934 L18.1014521,13.9627346 L18.1014521,17.2018266 C18.1014521,17.45899 18.0788416,17.7210344 18.0348962,17.9890448 C17.8804952,18.9306924 17.5230199,19.8003644 16.8234169,21.1474064 C15.8127426,23.093397 15.6579335,23.4442918 15.6579335,24 L15.6579335,24.5 L6.66859982,24.5 L6.66859982,24 C6.66859982,23.5786103 6.19563371,22.8309976 4.81529743,20.9702918 C4.77572637,20.916944 4.77572637,20.916944 4.73613542,20.8635322 C4.25954481,20.2204113 3.97897576,19.8305154 3.71509077,19.4347338 C3.32594411,18.8510815 2.72477886,17.9332706 1.96848974,16.7703263 C1.95455156,16.7488931 1.95455156,16.7488931 1.94061413,16.727459 C1.45803808,15.9852984 0.942759518,15.1902097 0.428630429,14.3951327 C0.248691135,14.1168648 0.137397398,13.944607 -0.0679723281,13.6265707 C-0.221942375,13.3880215 -0.221942375,13.3880215 -0.266517693,13.3181807 C-0.757186346,12.4871638 -0.448495824,11.4208575 0.408016869,10.9372976 C1.25796465,10.4579954 2.33990048,10.7256484 2.79149833,11.4981494 L5.49863882,14.9990679 Z"/>
						</g>
					</g>
					<text id="Normal-Hover-Active" fill="#72777D" font-family="Lato-Regular, Lato, sans-serif" font-size="14" font-weight="normal">
						<tspan x="0" y="19">Normal</tspan> <tspan x="0" y="75.1">Hover</tspan> <tspan x="0" y="131.2">Active &amp; </tspan> <tspan x="0" y="149.9">Focus</tspan> <tspan x="0" y="187.3">Expanded Menu &amp;</tspan> <tspan x="0" y="206">Focus</tspan> <tspan x="0" y="318.2">Disabled</tspan>
					</text>
				</g>
			</g>
		</g>
	</g>
</svg>
