<?xml version="1.0" encoding="UTF-8"?>
<svg xmlns="http://www.w3.org/2000/svg" xmlns:xlink="http://www.w3.org/1999/xlink" width="356" height="219" viewBox="0 0 356 219">
	<title>
		language_selectors_states_empty_02
	</title>
	<defs>
		<path id="path-1" d="M2 0h344a2 2 0 0 1 2 2v164a2 2 0 0 1-2 2H2a2 2 0 0 1-2-2V2a2 2 0 0 1 2-2z"/>
		<path id="path-4" d="M2 0h344a2 2 0 0 1 2 2v50H0V2a2 2 0 0 1 2-2z"/>
		<path id="path-6" d="M10 0C4.477 0 0 4.477 0 10s4.477 10 10 10 10-4.477 10-10S15.523 0 10 0zm5.66 14.24-1.41 1.41L10 11.41l-4.24 4.25-1.42-1.42L8.59 10 4.34 5.76l1.42-1.42L10 8.59l4.24-4.24 1.41 1.41L11.41 10l4.25 4.24z"/>
		<path id="path-8" d="M7.5 13c3.04 0 5.5-2.46 5.5-5.5S10.54 2 7.5 2 2 4.46 2 7.5 4.46 13 7.5 13zm4.55.46A7.432 7.432 0 0 1 7.5 15C3.36 15 0 11.64 0 7.5 0 3.36 3.36 0 7.5 0 11.64 0 15 3.36 15 7.5c0 1.71-.57 3.29-1.54 4.55l6.49 6.49-1.41 1.41-6.49-6.49z"/>
		<filter id="filter-3" width="102.6%" height="105.4%" x="-1.3%" y="-2.1%" filterUnits="objectBoundingBox">
			<feMorphology in="SourceAlpha" operator="dilate" radius="1" result="shadowSpreadOuter1"/>
			<feOffset dy="1" in="shadowSpreadOuter1" result="shadowOffsetOuter1"/>
			<feGaussianBlur in="shadowOffsetOuter1" result="shadowBlurOuter1" stdDeviation="1"/>
			<feComposite in="shadowBlurOuter1" in2="SourceAlpha" operator="out" result="shadowBlurOuter1"/>
			<feColorMatrix in="shadowBlurOuter1" values="0 0 0 0 0 0 0 0 0 0 0 0 0 0 0 0 0 0 0.25 0"/>
		</filter>
		<filter id="filter-5" width="102%" height="113.5%" x="-1%" y="-4.8%" filterUnits="objectBoundingBox">
			<feOffset dy="1" in="SourceAlpha" result="shadowOffsetOuter1"/>
			<feGaussianBlur in="shadowOffsetOuter1" result="shadowBlurOuter1" stdDeviation="1"/>
			<feColorMatrix in="shadowBlurOuter1" values="0 0 0 0 0 0 0 0 0 0 0 0 0 0 0 0 0 0 0.25 0"/>
		</filter>
	</defs>
	<g id="Artboard-page" fill="none" fill-rule="evenodd" stroke="none" stroke-width="1">
		<g id="WikimediaUI-components_overview" transform="translate(-9511 -2312)">
			<path fill="#FFF" d="M0 0h14910v4217H0z"/>
			<g id="LANGUAGE-SELECTORS" transform="translate(7189 2174)">
				<g id="Group" transform="translate(2326 141)">
					<g id="selector/default">
						<g id="Group">
							<mask id="mask-2" fill="#fff">
								<use xlink:href="#path-1"/>
							</mask>
							<g id="Rectangle-Copy-8">
								<use xlink:href="#path-1" fill="#000" filter="url(#filter-3)"/>
								<path fill="#FFF" stroke="#C8CCD1" d="M346-.5a2.496 2.496 0 0 1 2.5 2.5v164c0 .69-.28 1.315-.732 1.768a2.492 2.492 0 0 1-1.768.732H2c-.69 0-1.315-.28-1.768-.732A2.492 2.492 0 0 1-.5 166V2c0-.69.28-1.315.732-1.768A2.492 2.492 0 0 1 2-.5z"/>
							</g>
						</g>
						<g id="Group" opacity=".67">
							<g id="search-bar">
								<g id="Rectangle-Copy-8">
									<use xlink:href="#path-4" fill="#000" filter="url(#filter-5)"/>
									<use xlink:href="#path-4" fill="#FFF"/>
								</g>
								<g id="Group" transform="translate(312 16)">
									<mask id="mask-7" fill="#fff">
										<use xlink:href="#path-6"/>
									</mask>
									<use xlink:href="#path-6" id="Mask-2" fill="#000"/>
									<g id="🎨-Color/Base10-(#202122)" fill="#202122" mask="url(#mask-7)">
										<path id="Color-mask" d="M0 0h20v20H0z"/>
									</g>
								</g>
								<text id="query" fill="#202122" font-family="HelveticaNeue, Helvetica Neue, sans-serif" font-size="16" font-weight="normal">
									<tspan x="44" y="32">maori|</tspan>
								</text>
								<g id="Group" transform="translate(16 16)">
									<mask id="mask-9" fill="#fff">
										<use xlink:href="#path-8"/>
									</mask>
									<use xlink:href="#path-8" id="Shape" fill="#000" fill-rule="nonzero"/>
									<g id="🎨-Color/Base/B10-(#222)" fill="#222" mask="url(#mask-9)">
										<path id="Rectangle-1" d="M0 0h20v20H0z"/>
									</g>
								</g>
							</g>
						</g>
					</g>
					<text id="The-language-you-are" fill="#202122" font-family="HelveticaNeue, Helvetica Neue, sans-serif" font-size="16" font-weight="normal">
						<tspan x="24" y="114">The language you are looking for is not </tspan> <tspan x="24" y="136.4">available.</tspan>
					</text>
					<text id="Language-not-availab" fill="#202122" font-family="HelveticaNeue-Bold, Helvetica Neue, sans-serif" font-size="16" font-weight="bold">
						<tspan x="24" y="84">Language not available</tspan>
					</text>
				</g>
			</g>
		</g>
	</g>
</svg>
