<?xml version="1.0" encoding="UTF-8"?>
<svg xmlns="http://www.w3.org/2000/svg" xmlns:xlink="http://www.w3.org/1999/xlink" width="356" height="318" viewBox="0 0 356 318">
	<title>
		language_selectors_designing_additional_actions_02
	</title>
	<defs>
		<path id="path-1" d="M2 0h344a2 2 0 012 2v306a2 2 0 01-2 2H2a2 2 0 01-2-2V2a2 2 0 012-2z"/>
		<path id="path-4" d="M18 9H5.83l5.58-5.58L10 2l-8 8 8 8 1.41-1.41L5.83 11H18z"/>
		<path id="path-6" d="M11.5 0l.419 2.748a7.43 7.43 0 011.866.776L16 1.87l2.16 2.12-1.674 2.242a7.44 7.44 0 01.767 1.85L20 8.5v3l-2.748.419a7.455 7.455 0 01-.776 1.866L18.13 16l-2.12 2.16-2.242-1.674a7.455 7.455 0 01-1.85.767L11.5 20h-3l-.417-2.747a7.455 7.455 0 01-1.867-.776L4 18.13 1.87 16l1.646-2.228a7.455 7.455 0 01-.769-1.854L0 11.5v-3l2.747-.417c.175-.663.438-1.29.776-1.867L1.87 4 4 1.87l2.23 1.645a7.455 7.455 0 011.852-.768L8.5 0h3zM10 6.5a3.5 3.5 0 100 7 3.5 3.5 0 000-7z"/>
		<path id="path-8" d="M16 9h-5V4H9v5H4v2h5v5h2v-5h5z"/>
		<path id="path-10" d="M16.77 8l1.94-2a1 1 0 000-1.41l-3.34-3.3a1 1 0 00-1.41 0L12 3.23 16.77 8zm-5.81-3.71L1 14.25V19h4.75l9.96-9.96-4.75-4.75z"/>
		<filter id="filter-3" width="102.6%" height="102.9%" x="-1.3%" y="-1.1%" filterUnits="objectBoundingBox">
			<feMorphology in="SourceAlpha" operator="dilate" radius="1" result="shadowSpreadOuter1"/>
			<feOffset dy="1" in="shadowSpreadOuter1" result="shadowOffsetOuter1"/>
			<feGaussianBlur in="shadowOffsetOuter1" result="shadowBlurOuter1" stdDeviation="1"/>
			<feComposite in="shadowBlurOuter1" in2="SourceAlpha" operator="out" result="shadowBlurOuter1"/>
			<feColorMatrix in="shadowBlurOuter1" values="0 0 0 0 0 0 0 0 0 0 0 0 0 0 0 0 0 0 0.25 0"/>
		</filter>
	</defs>
	<g id="Artboard-page" fill="none" fill-rule="evenodd" stroke="none" stroke-width="1">
		<g id="WikimediaUI-components_overview" transform="translate(-8540 -2740)">
			<path fill="#FFF" d="M0 0h14100v4217H0z"/>
			<g id="LANGUAGE-SELECTORS" transform="translate(7189 2174)">
				<g id="Group-7" transform="translate(1355 569)">
					<g id="Group">
						<mask id="mask-2" fill="#fff">
							<use xlink:href="#path-1"/>
						</mask>
						<g id="Rectangle-Copy-8">
							<use fill="#000" filter="url(#filter-3)" xlink:href="#path-1"/>
							<path fill="#FFF" stroke="#C8CCD1" d="M346-.5a2.496 2.496 0 012.5 2.5h0v306c0 .69-.28 1.315-.732 1.768a2.492 2.492 0 01-1.768.732h0H2c-.69 0-1.315-.28-1.768-.732A2.492 2.492 0 01-.5 308h0V2c0-.69.28-1.315.732-1.768A2.492 2.492 0 012-.5h0z"/>
						</g>
					</g>
					<g id="Group-2-Copy-2" transform="translate(16 16)">
						<text id="name" fill="#202122" font-family="HelveticaNeue-Bold, Helvetica Neue, sans-serif" font-size="16" font-weight="bold">
							<tspan x="28" y="16">More options</tspan>
						</text>
						<g id="Group" transform="translate(0 1)">
							<mask id="mask-5" fill="#fff">
								<use xlink:href="#path-4"/>
							</mask>
							<use id="Mask" fill="#000" xlink:href="#path-4"/>
							<g id="🎨-Color/Base10-#202122" fill="#202122" mask="url(#mask-5)">
								<path id="Color" d="M0 0h20v20H0z"/>
							</g>
						</g>
					</g>
					<g id="Group-2-Copy-3" transform="translate(16 167)">
						<text id="name" fill="#36C" font-family="HelveticaNeue-Bold, Helvetica Neue, sans-serif" font-size="16" font-weight="bold">
							<tspan x="28" y="16">Open language settings</tspan>
						</text>
						<g id="🔣-Icon/Interactions/settings-Copy" transform="translate(0 1)">
							<mask id="mask-7" fill="#fff">
								<use xlink:href="#path-6"/>
							</mask>
							<use id="Mask" fill="#000" xlink:href="#path-6"/>
							<g id="Group" fill="#36C" mask="url(#mask-7)">
								<g id="🎨-Color/Base10-#202122">
									<path id="Color" d="M0 0h20v20H0z"/>
								</g>
							</g>
						</g>
					</g>
					<g id="Group-6-Copy" transform="translate(16 77)">
						<text id="name" fill="#36C" font-family="HelveticaNeue-Bold, Helvetica Neue, sans-serif" font-size="16" font-weight="bold">
							<tspan x="28" y="16">Translate this page</tspan>
						</text>
						<g id="🔣-Icon/Interactions/settings-Copy" transform="translate(0 1)">
							<mask id="mask-9" fill="#fff">
								<use xlink:href="#path-8"/>
							</mask>
							<use id="Mask" fill="#000" xlink:href="#path-8"/>
							<g id="Group" fill="#36C" mask="url(#mask-9)">
								<g id="🎨-Color/Base10-#202122">
									<path id="Color" d="M0 0h20v20H0z"/>
								</g>
							</g>
						</g>
					</g>
					<g id="Group-7-Copy" transform="translate(16 122)">
						<text id="name-copy-2" fill="#36C" font-family="HelveticaNeue-Bold, Helvetica Neue, sans-serif" font-size="16" font-weight="bold">
							<tspan x="28" y="16">Edit language links</tspan>
						</text>
						<g id="🔣-Icon/Interactions/settings-Copy-2" transform="translate(0 1)">
							<mask id="mask-11" fill="#fff">
								<use xlink:href="#path-10"/>
							</mask>
							<use id="Mask" fill="#000" xlink:href="#path-10"/>
							<g id="Group" fill="#36C" mask="url(#mask-11)">
								<g id="🎨-Color/Base10-#202122">
									<path id="Color" d="M0 0h20v20H0z"/>
								</g>
							</g>
						</g>
					</g>
					<path id="Line-2-Copy" stroke="#C8CCD1" stroke-linecap="square" d="M.5 52.5h348"/>
				</g>
			</g>
		</g>
	</g>
</svg>
