<?xml version="1.0" encoding="UTF-8"?>
<svg xmlns="http://www.w3.org/2000/svg" xmlns:xlink="http://www.w3.org/1999/xlink" width="356" height="319" viewBox="0 0 356 319">
	<title>
		language_selectors_types_additional_details_02
	</title>
	<defs>
		<path id="path-1" d="M2 0h344a2 2 0 0 1 2 2v306a2 2 0 0 1-2 2H2a2 2 0 0 1-2-2V2a2 2 0 0 1 2-2z"/>
		<path id="path-5" d="M12 4.2H7.8L6 .3 4.2 4.2H0l3.276 3.282-.984 4.2L6 9.462 9.708 11.7 8.73 7.5z"/>
		<path id="path-8" d="M12 4.2H7.8L6 .3 4.2 4.2H0l3.276 3.282-.984 4.2L6 9.462 9.708 11.7 8.73 7.5z"/>
		<path id="path-10" d="M2 0h344a2 2 0 0 1 2 2v50H0V2a2 2 0 0 1 2-2z"/>
		<path id="path-12" d="M7.5 13c3.04 0 5.5-2.46 5.5-5.5S10.54 2 7.5 2 2 4.46 2 7.5 4.46 13 7.5 13zm4.55.46A7.432 7.432 0 0 1 7.5 15C3.36 15 0 11.64 0 7.5 0 3.36 3.36 0 7.5 0 11.64 0 15 3.36 15 7.5c0 1.71-.57 3.29-1.54 4.55l6.49 6.49-1.41 1.41-6.49-6.49z"/>
		<filter id="filter-3" width="102.6%" height="102.9%" x="-1.3%" y="-1.1%" filterUnits="objectBoundingBox">
			<feMorphology in="SourceAlpha" operator="dilate" radius="1" result="shadowSpreadOuter1"/>
			<feOffset dy="1" in="shadowSpreadOuter1" result="shadowOffsetOuter1"/>
			<feGaussianBlur in="shadowOffsetOuter1" result="shadowBlurOuter1" stdDeviation="1"/>
			<feComposite in="shadowBlurOuter1" in2="SourceAlpha" operator="out" result="shadowBlurOuter1"/>
			<feColorMatrix in="shadowBlurOuter1" values="0 0 0 0 0 0 0 0 0 0 0 0 0 0 0 0 0 0 0.25 0"/>
		</filter>
		<filter id="filter-4">
			<feColorMatrix in="SourceGraphic" values="0 0 0 0 0.125490 0 0 0 0 0.129412 0 0 0 0 0.133333 0 0 0 1.000000 0"/>
		</filter>
		<filter id="filter-7">
			<feColorMatrix in="SourceGraphic" values="0 0 0 0 0.125490 0 0 0 0 0.129412 0 0 0 0 0.133333 0 0 0 1.000000 0"/>
		</filter>
		<filter id="filter-11" width="102%" height="113.5%" x="-1%" y="-4.8%" filterUnits="objectBoundingBox">
			<feOffset dy="1" in="SourceAlpha" result="shadowOffsetOuter1"/>
			<feGaussianBlur in="shadowOffsetOuter1" result="shadowBlurOuter1" stdDeviation="1"/>
			<feColorMatrix in="shadowBlurOuter1" values="0 0 0 0 0 0 0 0 0 0 0 0 0 0 0 0 0 0 0.25 0"/>
		</filter>
	</defs>
	<g id="Artboard-page" fill="none" fill-rule="evenodd" stroke="none" stroke-width="1">
		<g id="WikimediaUI-components_overview" transform="translate(-9773 -2740)">
			<path fill="#FFF" d="M0 0h14100v4217H0z"/>
			<g id="LANGUAGE-SELECTORS" transform="translate(7189 2174)">
				<g id="Group-5" transform="translate(2200 569)">
					<g id="selector/default" transform="translate(388 1)">
						<g id="Group">
							<mask id="mask-2" fill="#fff">
								<use xlink:href="#path-1"/>
							</mask>
							<g id="Rectangle-Copy-8">
								<use xlink:href="#path-1" fill="#000" filter="url(#filter-3)"/>
								<path fill="#FFF" stroke="#C8CCD1" d="M346-.5a2.496 2.496 0 0 1 2.5 2.5v306c0 .69-.28 1.315-.732 1.768a2.492 2.492 0 0 1-1.768.732H2c-.69 0-1.315-.28-1.768-.732A2.492 2.492 0 0 1-.5 308V2c0-.69.28-1.315.732-1.768A2.492 2.492 0 0 1 2-.5z"/>
							</g>
							<g id="list/short" mask="url(#mask-2)">
								<g transform="translate(0 159)">
									<text id="All-languages" fill="#72777D" font-family="HelveticaNeue, Helvetica Neue, sans-serif" font-size="16" font-weight="normal">
										<tspan x="44" y="32">All languages</tspan>
									</text>
									<g id="Group" transform="translate(12 43)">
										<path id="bg" fill="#FFF" d="M0 0h160v33H0z"/>
										<text id="name" fill="#202122" font-family="HelveticaNeue, Helvetica Neue, sans-serif" font-size="16" font-weight="normal">
											<tspan x="32" y="23">English</tspan>
										</text>
									</g>
									<g id="language-item-copy-11" transform="translate(12 76)">
										<path id="bg" fill="#FFF" d="M0 0h160v33H0z"/>
										<text id="name" fill="#202122" font-family="HelveticaNeue, Helvetica Neue, sans-serif" font-size="16" font-weight="normal">
											<tspan x="32" y="23">Esperanto</tspan>
										</text>
										<g id="🔣-Icon/Moderation/unStar" filter="url(#filter-4)" transform="translate(10 11)">
											<mask id="mask-6" fill="#fff">
												<use xlink:href="#path-5"/>
											</mask>
											<use xlink:href="#path-5" id="Mask" fill="#000"/>
											<g id="Group" mask="url(#mask-6)">
												<g id="🎨-Color/Base10-#202122" transform="translate(-4 -4)">
													<path id="Color" fill="#202122" d="M0 0h20v20H0z"/>
												</g>
											</g>
										</g>
									</g>
									<g id="language-item-copy" transform="translate(12 109)">
										<path id="bg" fill="#FFF" d="M0 0h160v33H0z"/>
										<text id="name" fill="#202122" font-family="HelveticaNeue, Helvetica Neue, sans-serif" font-size="16" font-weight="normal">
											<tspan x="32" y="23">Ελληνικά</tspan>
										</text>
									</g>
									<g id="language-item-copy-5" transform="translate(12 142)">
										<path id="bg" fill="#FFF" d="M0 0h160v33H0z"/>
										<text id="name" fill="#202122" font-family="AppleSDGothicNeo-Regular, Apple SD Gothic Neo" font-size="16" font-weight="normal">
											<tspan x="32" y="22">한국어</tspan>
										</text>
									</g>
								</g>
							</g>
							<g id="suggested/default" mask="url(#mask-2)">
								<g transform="translate(0 52)">
									<text id="Suggested" fill="#72777D" font-family="HelveticaNeue, Helvetica Neue, sans-serif" font-size="16" font-weight="normal">
										<tspan x="44" y="31">Suggested</tspan>
									</text>
									<g id="language-item-copy-9" transform="translate(12 75)">
										<path id="bg" fill="#FFF" d="M0 0h160v33H0z"/>
										<text id="name" fill="#202122" font-family="HelveticaNeue, Helvetica Neue, sans-serif" font-size="16" font-weight="normal">
											<tspan x="32" y="23">Español</tspan>
										</text>
									</g>
									<g id="Group" transform="translate(12 42)">
										<path id="bg" fill="#FFF" d="M0 0h160v33H0z"/>
										<text id="name" fill="#202122" font-family="HelveticaNeue, Helvetica Neue, sans-serif" font-size="16" font-weight="normal">
											<tspan x="32" y="23">English</tspan>
										</text>
									</g>
									<g id="language-item-copy-5" transform="translate(176 75)">
										<path id="bg" fill="#FFF" d="M0 0h160v33H0z"/>
										<text id="name" fill="#202122" font-family="AppleSDGothicNeo-Regular, Apple SD Gothic Neo" font-size="16" font-weight="normal">
											<tspan x="32" y="22">한국어</tspan>
										</text>
									</g>
									<g id="language-item-copy-8" transform="translate(176 42)">
										<path id="bg" fill="#FFF" d="M0 0h160v33H0z"/>
										<text id="name" fill="#202122" font-family="HelveticaNeue, Helvetica Neue, sans-serif" font-size="16" font-weight="normal">
											<tspan x="32" y="23">русский</tspan>
										</text>
										<g id="🔣-Icon/Moderation/unStar" filter="url(#filter-7)" transform="translate(10 11)">
											<mask id="mask-9" fill="#fff">
												<use xlink:href="#path-8"/>
											</mask>
											<use xlink:href="#path-8" id="Mask" fill="#000"/>
											<g id="Group" mask="url(#mask-9)">
												<g id="🎨-Color/Base10-#202122" transform="translate(-4 -4)">
													<path id="Color" fill="#202122" d="M0 0h20v20H0z"/>
												</g>
											</g>
										</g>
									</g>
								</g>
							</g>
						</g>
						<g id="search-bar">
							<g id="Rectangle-Copy-8">
								<use xlink:href="#path-10" fill="#000" filter="url(#filter-11)"/>
								<use xlink:href="#path-10" fill="#FFF"/>
							</g>
							<text id="Search-languages" fill="#54595D" font-family="HelveticaNeue, Helvetica Neue, sans-serif" font-size="16" font-weight="normal">
								<tspan x="44" y="32">Search languages</tspan>
							</text>
							<g id="Group" transform="translate(16 16)">
								<mask id="mask-13" fill="#fff">
									<use xlink:href="#path-12"/>
								</mask>
								<use xlink:href="#path-12" id="Shape" fill="#000" fill-rule="nonzero"/>
								<g id="🎨-Color/Base/B10-(#222)" fill="#222" mask="url(#mask-13)">
									<path id="Rectangle-1" d="M0 0h20v20H0z"/>
								</g>
							</g>
						</g>
					</g>
				</g>
			</g>
		</g>
	</g>
</svg>
