<?xml version="1.0" encoding="UTF-8"?>
<svg xmlns="http://www.w3.org/2000/svg" xmlns:xlink="http://www.w3.org/1999/xlink" width="356" height="318" viewBox="0 0 356 318">
	<title>
		language_selectors_designing_additional_actions_03
	</title>
	<defs>
		<path id="path-1" d="M2 0h344a2 2 0 0 1 2 2v306a2 2 0 0 1-2 2H2a2 2 0 0 1-2-2V2a2 2 0 0 1 2-2z"/>
		<path id="path-4" d="M16 9h-5V4H9v5H4v2h5v5h2v-5h5z"/>
		<path id="path-6" d="M16 9h-5V4H9v5H4v2h5v5h2v-5h5z"/>
		<path id="path-8" d="M10 8a2 2 0 1 1 0 4 2 2 0 0 1 0-4zM3 8a2 2 0 1 1 0 4 2 2 0 0 1 0-4zm14 0a2 2 0 1 1 0 4 2 2 0 0 1 0-4z"/>
		<path id="path-10" d="M18 9H5.83l5.58-5.58L10 2l-8 8 8 8 1.41-1.41L5.83 11H18z"/>
		<filter id="filter-3" width="102.6%" height="102.9%" x="-1.3%" y="-1.1%" filterUnits="objectBoundingBox">
			<feMorphology in="SourceAlpha" operator="dilate" radius="1" result="shadowSpreadOuter1"/>
			<feOffset dy="1" in="shadowSpreadOuter1" result="shadowOffsetOuter1"/>
			<feGaussianBlur in="shadowOffsetOuter1" result="shadowBlurOuter1" stdDeviation="1"/>
			<feComposite in="shadowBlurOuter1" in2="SourceAlpha" operator="out" result="shadowBlurOuter1"/>
			<feColorMatrix in="shadowBlurOuter1" values="0 0 0 0 0 0 0 0 0 0 0 0 0 0 0 0 0 0 0.25 0"/>
		</filter>
	</defs>
	<g id="Artboard-page" fill="none" fill-rule="evenodd" stroke="none" stroke-width="1">
		<g id="WikimediaUI-components_overview" transform="translate(-8927 -2740)">
			<path fill="#FFF" d="M0 0h14100v4217H0z"/>
			<g id="LANGUAGE-SELECTORS" transform="translate(7189 2174)">
				<g id="Group" transform="translate(1743 569)">
					<g id="selector/default" transform="translate(-1)">
						<g id="Group">
							<mask id="mask-2" fill="#fff">
								<use xlink:href="#path-1"/>
							</mask>
							<g id="Rectangle-Copy-8">
								<use xlink:href="#path-1" fill="#000" filter="url(#filter-3)"/>
								<path fill="#FFF" stroke="#C8CCD1" d="M346-.5a2.496 2.496 0 0 1 2.5 2.5v306c0 .69-.28 1.315-.732 1.768a2.492 2.492 0 0 1-1.768.732H2c-.69 0-1.315-.28-1.768-.732A2.492 2.492 0 0 1-.5 308V2c0-.69.28-1.315.732-1.768A2.492 2.492 0 0 1 2-.5z"/>
							</g>
						</g>
						<g id="Group-5" transform="translate(24 153)">
							<g id="Group-4">
								<path id="bg" fill="#FFF" d="M0 0h77v27H0z"/>
								<text id="name" fill="#202122" font-family="HelveticaNeue, Helvetica Neue, sans-serif" font-size="16" font-weight="normal">
									<tspan x="28" y="20">Māori</tspan>
								</text>
								<g id="Group" transform="translate(4 4)">
									<mask id="mask-5" fill="#fff">
										<use xlink:href="#path-4"/>
									</mask>
									<use xlink:href="#path-4" id="Mask" fill="#000"/>
									<g id="🎨-Color/Base/B10-(#222)" fill="#222" mask="url(#mask-5)">
										<path id="Rectangle-1" d="M0 0h20v20H0z"/>
									</g>
								</g>
							</g>
							<g id="Group-3" transform="translate(81)">
								<path id="bg-copy" fill="#FFF" d="M0 0h89v27H0z"/>
								<text id="name-copy" fill="#202122" font-family="HelveticaNeue, Helvetica Neue, sans-serif" font-size="16" font-weight="normal">
									<tspan x="29" y="20">Italiano</tspan>
								</text>
								<g id="Group" transform="translate(5 4)">
									<mask id="mask-7" fill="#fff">
										<use xlink:href="#path-6"/>
									</mask>
									<use xlink:href="#path-6" id="Mask" fill="#000"/>
									<g id="🎨-Color/Base/B10-(#222)" fill="#222" mask="url(#mask-7)">
										<path id="Rectangle-1" d="M0 0h20v20H0z"/>
									</g>
								</g>
							</g>
							<g id="Group-2" transform="translate(174)">
								<path id="bg-copy-3" fill="#FFF" d="M0 0h28v27H0z"/>
								<g id="Group" transform="translate(4 4)">
									<mask id="mask-9" fill="#fff">
										<use xlink:href="#path-8"/>
									</mask>
									<use xlink:href="#path-8" id="Mask" fill="#000"/>
									<g id="🎨-Color/Base10-(#202122)" fill="#202122" mask="url(#mask-9)">
										<path id="Color-mask" d="M0 0h20v20H0z"/>
									</g>
								</g>
							</g>
						</g>
						<text id="This-page-is-missing" fill="#202122" font-family="HelveticaNeue, Helvetica Neue, sans-serif" font-size="16" font-weight="normal">
							<tspan x="24" y="84">This page is missing in some languages </tspan> <tspan x="24" y="106.4">you may know. You can translate it in </tspan> <tspan x="24" y="128.8">minutes!</tspan>
						</text>
					</g>
					<g id="Group-2-Copy-2" transform="translate(15 16)">
						<text id="name" fill="#202122" font-family="HelveticaNeue-Bold, Helvetica Neue, sans-serif" font-size="16" font-weight="bold">
							<tspan x="28" y="16">Translate this page</tspan>
						</text>
						<g id="Group" transform="translate(0 1)">
							<mask id="mask-11" fill="#fff">
								<use xlink:href="#path-10"/>
							</mask>
							<use xlink:href="#path-10" id="Mask" fill="#000"/>
							<g id="🎨-Color/Base10-#202122" fill="#202122" mask="url(#mask-11)">
								<path id="Color" d="M0 0h20v20H0z"/>
							</g>
						</g>
					</g>
					<path id="Line-2-Copy" stroke="#C8CCD1" stroke-linecap="square" d="M-.5 52.5h348"/>
				</g>
			</g>
		</g>
	</g>
</svg>
