<?xml version="1.0" encoding="UTF-8"?>
<svg xmlns="http://www.w3.org/2000/svg" xmlns:xlink="http://www.w3.org/1999/xlink" width="356" height="318" viewBox="0 0 356 318">
	<title>
		language_selectors_states_selecting
	</title>
	<defs>
		<path id="path-1" d="M2 0h344a2 2 0 012 2v306a2 2 0 01-2 2H2a2 2 0 01-2-2V2a2 2 0 012-2z"/>
		<path id="path-4" d="M2 0h344a2 2 0 012 2v50H0V2a2 2 0 012-2z"/>
		<path id="path-6" d="M7.5 13c3.04 0 5.5-2.46 5.5-5.5S10.54 2 7.5 2 2 4.46 2 7.5 4.46 13 7.5 13zm4.55.46A7.432 7.432 0 017.5 15C3.36 15 0 11.64 0 7.5 0 3.36 3.36 0 7.5 0 11.64 0 15 3.36 15 7.5c0 1.71-.57 3.29-1.54 4.55l6.49 6.49-1.41 1.41-6.49-6.49z"/>
		<path id="path-8" d="M17.595 12.379a1.19 1.19 0 00-1.197-1.183 1.19 1.19 0 00-1.196 1.179v-.826c0-.857-.719-1.551-1.606-1.551-.886 0-1.592.694-1.592 1.55V10.35c0-.856-.728-1.55-1.611-1.55s-1.586.694-1.586 1.55V1.425C8.807.638 8.168 0 7.397 0c-.772 0-1.398.638-1.398 1.425v15.038l-3.603-4.659c-.346-.586-1.126-.779-1.742-.431-.617.348-.836 1.105-.49 1.691 0 0 2.817 4.369 3.967 6.093C5.281 20.882 7.17 23.01 7.17 24h7.989c0-1.672 2.443-4.283 2.443-6.798v-3.24l-.006-1.583z"/>
		<filter id="filter-3" width="102.6%" height="102.9%" x="-1.3%" y="-1.1%" filterUnits="objectBoundingBox">
			<feMorphology in="SourceAlpha" operator="dilate" radius="1" result="shadowSpreadOuter1"/>
			<feOffset dy="1" in="shadowSpreadOuter1" result="shadowOffsetOuter1"/>
			<feGaussianBlur in="shadowOffsetOuter1" result="shadowBlurOuter1" stdDeviation="1"/>
			<feComposite in="shadowBlurOuter1" in2="SourceAlpha" operator="out" result="shadowBlurOuter1"/>
			<feColorMatrix in="shadowBlurOuter1" values="0 0 0 0 0 0 0 0 0 0 0 0 0 0 0 0 0 0 0.25 0"/>
		</filter>
		<filter id="filter-5" width="102.6%" height="117.3%" x="-1.3%" y="-6.7%" filterUnits="objectBoundingBox">
			<feMorphology in="SourceAlpha" operator="dilate" radius="1" result="shadowSpreadOuter1"/>
			<feOffset dy="1" in="shadowSpreadOuter1" result="shadowOffsetOuter1"/>
			<feGaussianBlur in="shadowOffsetOuter1" result="shadowBlurOuter1" stdDeviation="1"/>
			<feComposite in="shadowBlurOuter1" in2="SourceAlpha" operator="out" result="shadowBlurOuter1"/>
			<feColorMatrix in="shadowBlurOuter1" values="0 0 0 0 0 0 0 0 0 0 0 0 0 0 0 0 0 0 0.25 0"/>
		</filter>
		<filter id="filter-9" width="173.6%" height="154.2%" x="-36.7%" y="-18.8%" filterUnits="objectBoundingBox">
			<feMorphology in="SourceAlpha" operator="dilate" radius="1" result="shadowSpreadOuter1"/>
			<feOffset dy="1" in="shadowSpreadOuter1" result="shadowOffsetOuter1"/>
			<feGaussianBlur in="shadowOffsetOuter1" result="shadowBlurOuter1" stdDeviation=".5"/>
			<feComposite in="shadowBlurOuter1" in2="SourceAlpha" operator="out" result="shadowBlurOuter1"/>
			<feColorMatrix in="shadowBlurOuter1" result="shadowMatrixOuter1" values="0 0 0 0 0 0 0 0 0 0 0 0 0 0 0 0 0 0 0.582908741 0"/>
			<feMorphology in="SourceAlpha" operator="dilate" radius="1" result="shadowSpreadOuter2"/>
			<feOffset dy="2" in="shadowSpreadOuter2" result="shadowOffsetOuter2"/>
			<feGaussianBlur in="shadowOffsetOuter2" result="shadowBlurOuter2" stdDeviation="1.5"/>
			<feComposite in="shadowBlurOuter2" in2="SourceAlpha" operator="out" result="shadowBlurOuter2"/>
			<feColorMatrix in="shadowBlurOuter2" result="shadowMatrixOuter2" values="0 0 0 0 0 0 0 0 0 0 0 0 0 0 0 0 0 0 0.25 0"/>
			<feMerge>
				<feMergeNode in="shadowMatrixOuter1"/>
				<feMergeNode in="shadowMatrixOuter2"/>
			</feMerge>
		</filter>
	</defs>
	<g id="Artboard-page" fill="none" fill-rule="evenodd" stroke="none" stroke-width="1">
		<g id="WikimediaUI-components_overview" transform="translate(-8588 -2312)">
			<path fill="#FFF" d="M0 0h14100v4217H0z"/>
			<g id="LANGUAGE-SELECTORS" transform="translate(7189 2174)">
				<g id="Group" transform="translate(1403 141)">
					<g id="Group">
						<mask id="mask-2" fill="#fff">
							<use xlink:href="#path-1"/>
						</mask>
						<g id="Rectangle-Copy-8">
							<use fill="#000" filter="url(#filter-3)" xlink:href="#path-1"/>
							<path fill="#FFF" stroke="#C8CCD1" d="M346-.5a2.496 2.496 0 012.5 2.5h0v306c0 .69-.28 1.315-.732 1.768a2.492 2.492 0 01-1.768.732h0H2c-.69 0-1.315-.28-1.768-.732A2.492 2.492 0 01-.5 308h0V2c0-.69.28-1.315.732-1.768A2.492 2.492 0 012-.5h0z"/>
						</g>
						<g id="list/short" mask="url(#mask-2)">
							<g transform="translate(0 159)">
								<text id="All-languages" fill="#72777D" font-family="HelveticaNeue, Helvetica Neue, sans-serif" font-size="16" font-weight="normal">
									<tspan x="44" y="32">All languages</tspan>
								</text>
								<g id="Group" transform="translate(12 43)">
									<path id="bg" fill="#FFF" d="M0 0h160v33H0z"/>
									<text id="name" fill="#202122" font-family="HelveticaNeue, Helvetica Neue, sans-serif" font-size="16" font-weight="normal">
										<tspan x="32" y="23">English</tspan>
									</text>
								</g>
								<g id="language-item-copy-11" transform="translate(12 76)">
									<path id="bg" fill="#EAECF0" d="M0 0h160v33H0z"/>
									<text id="name" fill="#202122" font-family="HelveticaNeue, Helvetica Neue, sans-serif" font-size="16" font-weight="normal">
										<tspan x="32" y="23">Esperanto</tspan>
									</text>
								</g>
								<g id="language-item-copy" transform="translate(12 109)">
									<path id="bg" fill="#FFF" d="M0 0h160v33H0z"/>
									<text id="name" fill="#202122" font-family="HelveticaNeue, Helvetica Neue, sans-serif" font-size="16" font-weight="normal">
										<tspan x="32" y="23">Ελληνικά</tspan>
									</text>
								</g>
								<g id="language-item-copy-5" transform="translate(12 142)">
									<path id="bg" fill="#FFF" d="M0 0h160v33H0z"/>
									<text id="name" fill="#202122" font-family="AppleSDGothicNeo-Regular, Apple SD Gothic Neo" font-size="16" font-weight="normal">
										<tspan x="32" y="22">한국어</tspan>
									</text>
								</g>
							</g>
						</g>
						<g mask="url(#mask-2)">
							<g transform="translate(0 52)">
								<text id="Suggested" fill="#72777D" font-family="HelveticaNeue, Helvetica Neue, sans-serif" font-size="16" font-weight="normal">
									<tspan x="44" y="31">Suggested</tspan>
								</text>
								<g id="language-item-copy-9" transform="translate(12 75)">
									<path id="bg" fill="#FFF" d="M0 0h160v33H0z"/>
									<text id="name" fill="#202122" font-family="HelveticaNeue, Helvetica Neue, sans-serif" font-size="16" font-weight="normal">
										<tspan x="32" y="23">Español</tspan>
									</text>
								</g>
								<g transform="translate(12 42)">
									<path id="bg" fill="#FFF" d="M0 0h160v33H0z"/>
									<text id="name" fill="#202122" font-family="HelveticaNeue, Helvetica Neue, sans-serif" font-size="16" font-weight="normal">
										<tspan x="32" y="23">English</tspan>
									</text>
								</g>
								<g id="language-item-copy-5" transform="translate(176 75)">
									<path id="bg" fill="#FFF" d="M0 0h160v33H0z"/>
									<text id="name" fill="#202122" font-family="AppleSDGothicNeo-Regular, Apple SD Gothic Neo" font-size="16" font-weight="normal">
										<tspan x="32" y="22">한국어</tspan>
									</text>
								</g>
								<g id="language-item-copy-8" transform="translate(176 42)">
									<path id="bg" fill="#FFF" d="M0 0h160v33H0z"/>
									<text id="name" fill="#202122" font-family="HelveticaNeue, Helvetica Neue, sans-serif" font-size="16" font-weight="normal">
										<tspan x="32" y="23">русский</tspan>
									</text>
								</g>
							</g>
						</g>
						<g id="search-bar">
							<g id="Rectangle-Copy-8">
								<use fill="#000" filter="url(#filter-5)" xlink:href="#path-4"/>
								<use fill="#FFF" stroke="#36C" stroke-width="2" xlink:href="#path-4"/>
							</g>
							<text id="|Search-languages" font-family="HelveticaNeue, Helvetica Neue, sans-serif" font-size="16" font-weight="normal">
								<tspan x="44" y="32" fill="#202122">|</tspan> <tspan x="47.552" y="32" fill="#54595D">Search languages</tspan>
							</text>
							<g id="Group" transform="translate(16 16)">
								<mask id="mask-7" fill="#fff">
									<use xlink:href="#path-6"/>
								</mask>
								<use id="Shape" fill="#000" fill-rule="nonzero" xlink:href="#path-6"/>
								<g id="🎨-Color/Base/B10-(#222)" fill="#222" mask="url(#mask-7)">
									<path id="Rectangle-1" d="M0 0h20v20H0z"/>
								</g>
							</g>
						</g>
					</g>
					<g id="Cursor-Pointer" transform="translate(128 249)">
						<use fill="#000" filter="url(#filter-9)" xlink:href="#path-8"/>
						<path fill="#FFF" stroke="#000" d="M7.396-.5a1.925 1.925 0 011.91 1.925h0v7.173l.035-.02a2.1 2.1 0 01.862-.27l.19-.009c.577 0 1.103.229 1.485.596.258.249.45.56.55.909l.009.042.137-.084c.252-.142.535-.23.838-.257l.184-.007c.58 0 1.104.228 1.483.594.214.207.383.459.49.738l.022.068a1.7 1.7 0 01.634-.193l.173-.009a1.7 1.7 0 011.198.49c.309.306.5.727.5 1.19h0l.005 1.587v3.239c0 1.46-.76 2.96-1.464 4.302-.625 1.193-1.227 2.241-.875 2.996h0-9.221c.081-.188.128-.356.128-.5 0-.642-.925-1.779-1.793-2.948-.406-.548-.816-1.1-1.162-1.619A729.053 729.053 0 01-.072 13.62c-.337-.553-.425-1.061-.359-1.49.08-.514.38-.934.839-1.193a1.83 1.83 0 011.338-.184c.433.107.819.372 1.063.768h0l2.69 3.478V1.425c0-.53.211-1.01.552-1.358.344-.35.82-.567 1.345-.567z"/>
					</g>
				</g>
			</g>
		</g>
	</g>
</svg>
