<?xml version="1.0" encoding="UTF-8"?>
<svg xmlns="http://www.w3.org/2000/svg" xmlns:xlink="http://www.w3.org/1999/xlink" width="731" height="317" viewBox="0 0 731 317">
	<title>
		language_selectors_designing
	</title>
	<defs>
		<path id="path-1" d="M2 0h344a2 2 0 0 1 2 2v306a2 2 0 0 1-2 2H2a2 2 0 0 1-2-2V2a2 2 0 0 1 2-2z"/>
		<path id="path-4" d="M2 0h344a2 2 0 0 1 2 2v50H0V2a2 2 0 0 1 2-2z"/>
		<path id="path-6" d="M7.5 13c3.04 0 5.5-2.46 5.5-5.5S10.54 2 7.5 2 2 4.46 2 7.5 4.46 13 7.5 13zm4.55.46A7.432 7.432 0 0 1 7.5 15C3.36 15 0 11.64 0 7.5 0 3.36 3.36 0 7.5 0 11.64 0 15 3.36 15 7.5c0 1.71-.57 3.29-1.54 4.55l6.49 6.49-1.41 1.41-6.49-6.49z"/>
		<filter id="filter-3" width="102.6%" height="102.9%" x="-1.3%" y="-1.1%" filterUnits="objectBoundingBox">
			<feMorphology in="SourceAlpha" operator="dilate" radius="1" result="shadowSpreadOuter1"/>
			<feOffset dy="1" in="shadowSpreadOuter1" result="shadowOffsetOuter1"/>
			<feGaussianBlur in="shadowOffsetOuter1" result="shadowBlurOuter1" stdDeviation="1"/>
			<feComposite in="shadowBlurOuter1" in2="SourceAlpha" operator="out" result="shadowBlurOuter1"/>
			<feColorMatrix in="shadowBlurOuter1" values="0 0 0 0 0 0 0 0 0 0 0 0 0 0 0 0 0 0 0.25 0"/>
		</filter>
		<filter id="filter-5" width="102%" height="113.5%" x="-1%" y="-4.8%" filterUnits="objectBoundingBox">
			<feOffset dy="1" in="SourceAlpha" result="shadowOffsetOuter1"/>
			<feGaussianBlur in="shadowOffsetOuter1" result="shadowBlurOuter1" stdDeviation="1"/>
			<feColorMatrix in="shadowBlurOuter1" values="0 0 0 0 0 0 0 0 0 0 0 0 0 0 0 0 0 0 0.25 0"/>
		</filter>
	</defs>
	<g id="Artboard-page" fill="none" fill-rule="evenodd" stroke="none" stroke-width="1">
		<g id="WikimediaUI-components_overview" transform="translate(-7744 -2312)">
			<path fill="#FFF" d="M0 0h14100v4217H0z"/>
			<g id="LANGUAGE-SELECTORS" transform="translate(7189 2174)">
				<g id="Group" transform="translate(558 141)">
					<mask id="mask-2" fill="#fff">
						<use xlink:href="#path-1"/>
					</mask>
					<g id="Rectangle-Copy-8">
						<use xlink:href="#path-1" fill="#000" filter="url(#filter-3)"/>
						<path fill="#FFF" stroke="#C8CCD1" d="M346-.5a2.496 2.496 0 0 1 2.5 2.5v306c0 .69-.28 1.315-.732 1.768a2.492 2.492 0 0 1-1.768.732H2c-.69 0-1.315-.28-1.768-.732A2.492 2.492 0 0 1-.5 308V2c0-.69.28-1.315.732-1.768A2.492 2.492 0 0 1 2-.5z"/>
					</g>
					<g mask="url(#mask-2)">
						<g transform="translate(0 159)">
							<text id="All-languages" fill="#72777D" font-family="HelveticaNeue, Helvetica Neue, sans-serif" font-size="16" font-weight="normal">
								<tspan x="44" y="32">All languages</tspan>
							</text>
							<g transform="translate(12 43)">
								<path id="bg" fill="#FFF" d="M0 0h160v33H0z"/>
								<text id="name" fill="#202122" font-family="HelveticaNeue, Helvetica Neue, sans-serif" font-size="16" font-weight="normal">
									<tspan x="32" y="23">English</tspan>
								</text>
							</g>
							<g id="language-item-copy-11" transform="translate(12 76)">
								<path id="bg" fill="#FFF" d="M0 0h160v33H0z"/>
								<text id="name" fill="#202122" font-family="HelveticaNeue, Helvetica Neue, sans-serif" font-size="16" font-weight="normal">
									<tspan x="32" y="23">Esperanto</tspan>
								</text>
							</g>
							<g id="language-item-copy" transform="translate(12 109)">
								<path id="bg" fill="#FFF" d="M0 0h160v33H0z"/>
								<text id="name" fill="#202122" font-family="HelveticaNeue, Helvetica Neue, sans-serif" font-size="16" font-weight="normal">
									<tspan x="32" y="23">Ελληνικά</tspan>
								</text>
							</g>
							<g id="language-item-copy-10" transform="translate(12 142)">
								<path id="bg" fill="#FFF" d="M0 0h160v33H0z"/>
								<text id="name" fill="#202122" font-family="AppleSDGothicNeo-Regular, Apple SD Gothic Neo" font-size="16" font-weight="normal">
									<tspan x="32" y="22">한국어</tspan>
								</text>
							</g>
						</g>
					</g>
					<g id="suggested/default" mask="url(#mask-2)">
						<g transform="translate(0 52)">
							<text id="Suggested" fill="#72777D" font-family="HelveticaNeue, Helvetica Neue, sans-serif" font-size="16" font-weight="normal">
								<tspan x="44" y="31">Suggested</tspan>
							</text>
							<g id="language-item-copy-9" transform="translate(12 75)">
								<path id="bg" fill="#FFF" d="M0 0h160v33H0z"/>
								<text id="name" fill="#202122" font-family="HelveticaNeue, Helvetica Neue, sans-serif" font-size="16" font-weight="normal">
									<tspan x="32" y="23">Español</tspan>
								</text>
							</g>
							<g id="Group" transform="translate(12 42)">
								<path id="bg" fill="#EAECF0" d="M0 0h160v33H0z"/>
								<text id="name" fill="#202122" font-family="HelveticaNeue, Helvetica Neue, sans-serif" font-size="16" font-weight="normal">
									<tspan x="32" y="23">English</tspan>
								</text>
							</g>
							<g id="language-item-copy-10" transform="translate(176 75)">
								<path id="bg" fill="#FFF" d="M0 0h160v33H0z"/>
								<text id="name" fill="#202122" font-family="AppleSDGothicNeo-Regular, Apple SD Gothic Neo" font-size="16" font-weight="normal">
									<tspan x="32" y="22">한국어</tspan>
								</text>
							</g>
							<g id="language-item-copy-8" transform="translate(176 42)">
								<path id="bg" fill="#FFF" d="M0 0h160v33H0z"/>
								<text id="name" fill="#202122" font-family="HelveticaNeue, Helvetica Neue, sans-serif" font-size="16" font-weight="normal">
									<tspan x="32" y="23">русский</tspan>
								</text>
							</g>
						</g>
					</g>
					<g id="search-bar">
						<g id="Rectangle-Copy-8">
							<use xlink:href="#path-4" fill="#000" filter="url(#filter-5)"/>
							<use xlink:href="#path-4" fill="#FFF"/>
						</g>
						<text id="Search-languages" fill="#54595D" font-family="HelveticaNeue, Helvetica Neue, sans-serif" font-size="16" font-weight="normal">
							<tspan x="44" y="32">Search languages</tspan>
						</text>
						<g id="Group" transform="translate(16 16)">
							<mask id="mask-7" fill="#fff">
								<use xlink:href="#path-6"/>
							</mask>
							<use xlink:href="#path-6" id="Shape" fill="#000" fill-rule="nonzero"/>
							<g id="🎨-Color/Base/B10-(#222)" fill="#222" mask="url(#mask-7)">
								<path id="Rectangle-1" d="M0 0h20v20H0z"/>
							</g>
						</g>
					</g>
				</g>
				<g id="Group" stroke="#50E3C2" stroke-width="4" transform="translate(722 252)">
					<path id="8-sp-(0.5-em)" d="M0 2h8"/>
				</g>
				<g id="Group" stroke="#50E3C2" stroke-width="4" transform="translate(886 252)">
					<path id="8-sp-(0.5-em)" d="M0 2h8"/>
				</g>
				<g id="Group" stroke="#50E3C2" stroke-width="4" transform="translate(603 229)">
					<g id="_Spec-/-8-sp-(0.5-em)" transform="rotate(90 4 2)">
						<path id="8-sp-(0.5-em)" d="M0 2h8"/>
					</g>
				</g>
				<g id="Group" stroke="#50E3C2" stroke-width="4" transform="translate(658 237)">
					<g id="_Spec-/-8-sp-(0.5-em)" transform="rotate(90 4 2)">
						<path id="8-sp-(0.5-em)" d="M0 2h8"/>
					</g>
				</g>
				<g id="Group" stroke="#50E3C2" stroke-width="4" transform="translate(658 262)">
					<g id="_Spec-/-8-sp-(0.5-em)" transform="rotate(90 4 2)">
						<path id="8-sp-(0.5-em)" d="M0 2h8"/>
					</g>
				</g>
				<g id="Group" stroke="#F5A623" stroke-width="4" transform="translate(730 252)">
					<path id="4-sp-(0.25-em)" d="M0 2h4"/>
				</g>
				<g id="Group" stroke="#D0021B" stroke-width="4" transform="translate(558 165)">
					<path id="16-sp-(1-em)" d="M0 2h16"/>
				</g>
				<g id="Group" stroke="#D0021B" stroke-width="4" transform="translate(890 165)">
					<path id="16-sp-(1-em)" d="M0 2h16"/>
				</g>
				<g id="Group" stroke="#D0021B" stroke-width="4" transform="translate(576 183)">
					<g id="_Spec-/-16-sp-(1-em)-Copy" transform="rotate(90 8 2)">
						<path id="16-sp-(1-em)" d="M0 2h16"/>
					</g>
				</g>
				<g id="Group" stroke="#D0021B" stroke-width="4" transform="translate(599 199)">
					<g id="_Spec-/-16-sp-(1-em)-Copy" transform="rotate(90 8 2)">
						<path id="16-sp-(1-em)" d="M0 2h16"/>
					</g>
				</g>
				<g id="Group" stroke="#D0021B" stroke-width="4" transform="translate(576 147)">
					<g id="_Spec-/-16-sp-(1-em)-Copy" transform="rotate(90 8 2)">
						<path id="16-sp-(1-em)" d="M0 2h16"/>
					</g>
				</g>
				<g id="Group" stroke="#50E3C2" stroke-width="4" transform="translate(594 165)">
					<path id="8-sp-(0.5-em)" d="M0 2h8"/>
				</g>
				<g id="Group" stroke="#50E3C2" stroke-width="4" transform="translate(886 215)">
					<path id="8-sp-(0.5-em)" d="M0 2h8"/>
				</g>
				<text id="16-sp-/-1-em" fill="#C70070" font-family="Lato-Regular, Lato, sans-serif" font-size="13" font-weight="normal">
					<tspan x="1070" y="286">16 sp / 1 em</tspan>
				</text>
				<text id="12-sp-/-1.25-em" fill="#C70070" font-family="Lato-Regular, Lato, sans-serif" font-size="13" font-weight="normal">
					<tspan x="1070" y="310">12 sp / 1.25 em</tspan>
				</text>
				<text id="8-sp-/-0.5-em" fill="#C70070" font-family="Lato-Regular, Lato, sans-serif" font-size="13" font-weight="normal">
					<tspan x="1070" y="335">8 sp / 0.5 em</tspan>
				</text>
				<g id="Group" stroke="#50E3C2" stroke-width="4" transform="translate(1029 328)">
					<path id="8-sp-(0.5-em)" d="M0 2h8"/>
				</g>
				<g id="Group" stroke="#D0021B" stroke-width="4" transform="translate(1029 280)">
					<path id="16-sp-(1-em)" d="M0 2h16"/>
				</g>
				<g id="Group" stroke="#0082FF" stroke-width="4" transform="translate(1029 304)">
					<g id="_Spec-/-12-sp-(0.75-em)">
						<path id=".75em" d="M0 1h12"/>
					</g>
				</g>
				<g id="Group" stroke="#0082FF" stroke-width="4" transform="translate(558 253)">
					<g id="_Spec-/-12-sp-(0.75-em)">
						<path id=".75em" d="M0 1h12"/>
					</g>
				</g>
				<g id="Group" stroke="#0082FF" stroke-width="4" transform="translate(894 253)">
					<g id="_Spec-/-12-sp-(0.75-em)">
						<path id=".75em" d="M0 1h12"/>
					</g>
				</g>
				<g id="Group" stroke="#0082FF" stroke-width="4" transform="translate(894 216)">
					<g id="_Spec-/-12-sp-(0.75-em)">
						<path id=".75em" d="M0 1h12"/>
					</g>
				</g>
				<text id="24-sp-/-1.5-em" fill="#C70070" font-family="Lato-Regular, Lato, sans-serif" font-size="13" font-weight="normal">
					<tspan x="1070" y="262">24 sp / 1.5 em</tspan>
				</text>
				<text id="32-scale-independent" fill="#C70070" font-family="Lato-Regular, Lato, sans-serif" font-size="13" font-weight="normal">
					<tspan x="1070" y="240">32 scale-independent pixels / 2 em</tspan>
				</text>
				<g id="Group" stroke="#A65DE7" stroke-width="4" transform="translate(1029 257)">
					<path id="24-sp-(1.5-em)" d="M0 2h24" transform="matrix(1 0 0 -1 0 4)"/>
				</g>
				<g id="Group" stroke="#13B9FE" stroke-width="4" transform="translate(1029 235)">
					<path id="32-sp-(2-em)" d="M0 2h32" transform="matrix(1 0 0 -1 0 4)"/>
				</g>
				<g id="Group" stroke="#13B9FE" stroke-width="4" transform="translate(570 252)">
					<path id="32-sp-(2-em)" d="M0 2h32" transform="matrix(1 0 0 -1 0 4)"/>
				</g>
				<g id="Group" stroke="#0082FF" stroke-width="4" transform="translate(558 217)">
					<g id="_Spec-/-12-sp-(0.75-em)">
						<path id=".75em" d="M0 1h12"/>
					</g>
				</g>
				<g id="Group" stroke="#13B9FE" stroke-width="4" transform="translate(570 216)">
					<path id="32-sp-(2-em)" d="M0 2h32" transform="matrix(1 0 0 -1 0 4)"/>
				</g>
				<g id="Group" stroke="#13B9FE" stroke-width="4" transform="translate(734 252)">
					<path id="32-sp-(2-em)" d="M0 2h32" transform="matrix(1 0 0 -1 0 4)"/>
				</g>
				<text id="4-sp-/-0.25-em" fill="#C70070" font-family="Lato-Regular, Lato, sans-serif" font-size="13" font-weight="normal">
					<tspan x="1069" y="357">4 sp / 0.25 em</tspan>
				</text>
				<g id="Group" stroke="#F5A623" stroke-width="4" transform="translate(1029 351)">
					<path id="4-sp-(0.25-em)" d="M0 2h4"/>
				</g>
			</g>
		</g>
	</g>
</svg>
