<?xml version="1.0" encoding="UTF-8"?>
<svg xmlns="http://www.w3.org/2000/svg" xmlns:xlink="http://www.w3.org/1999/xlink" width="294" height="555" viewBox="0 0 294 555">
	<title>
		Link_states
	</title>
	<desc>
		Created with Sketch.
	</desc>
	<defs>
		<filter id="filter-2" width="173.9%" height="154.2%" x="-36.9%" y="-18.8%" filterUnits="objectBoundingBox">
			<feMorphology in="SourceAlpha" operator="dilate" radius="1" result="shadowSpreadOuter1"/>
			<feOffset dy="1" in="shadowSpreadOuter1" result="shadowOffsetOuter1"/>
			<feGaussianBlur in="shadowOffsetOuter1" result="shadowBlurOuter1" stdDeviation=".5"/>
			<feComposite in="shadowBlurOuter1" in2="SourceAlpha" operator="out" result="shadowBlurOuter1"/>
			<feColorMatrix in="shadowBlurOuter1" result="shadowMatrixOuter1" values="0 0 0 0 0 0 0 0 0 0 0 0 0 0 0 0 0 0 0.582908741 0"/>
			<feMorphology in="SourceAlpha" operator="dilate" radius="1" result="shadowSpreadOuter2"/>
			<feOffset dy="2" in="shadowSpreadOuter2" result="shadowOffsetOuter2"/>
			<feGaussianBlur in="shadowOffsetOuter2" result="shadowBlurOuter2" stdDeviation="1.5"/>
			<feComposite in="shadowBlurOuter2" in2="SourceAlpha" operator="out" result="shadowBlurOuter2"/>
			<feColorMatrix in="shadowBlurOuter2" result="shadowMatrixOuter2" values="0 0 0 0 0 0 0 0 0 0 0 0 0 0 0 0 0 0 0.179347826 0"/>
			<feMerge>
				<feMergeNode in="shadowMatrixOuter1"/>
				<feMergeNode in="shadowMatrixOuter2"/>
			</feMerge>
		</filter>
		<filter id="filter-4" width="173.9%" height="154.2%" x="-36.9%" y="-18.8%" filterUnits="objectBoundingBox">
			<feMorphology in="SourceAlpha" operator="dilate" radius="1" result="shadowSpreadOuter1"/>
			<feOffset dy="1" in="shadowSpreadOuter1" result="shadowOffsetOuter1"/>
			<feGaussianBlur in="shadowOffsetOuter1" result="shadowBlurOuter1" stdDeviation=".5"/>
			<feComposite in="shadowBlurOuter1" in2="SourceAlpha" operator="out" result="shadowBlurOuter1"/>
			<feColorMatrix in="shadowBlurOuter1" result="shadowMatrixOuter1" values="0 0 0 0 0 0 0 0 0 0 0 0 0 0 0 0 0 0 0.582908741 0"/>
			<feMorphology in="SourceAlpha" operator="dilate" radius="1" result="shadowSpreadOuter2"/>
			<feOffset dy="2" in="shadowSpreadOuter2" result="shadowOffsetOuter2"/>
			<feGaussianBlur in="shadowOffsetOuter2" result="shadowBlurOuter2" stdDeviation="1.5"/>
			<feComposite in="shadowBlurOuter2" in2="SourceAlpha" operator="out" result="shadowBlurOuter2"/>
			<feColorMatrix in="shadowBlurOuter2" result="shadowMatrixOuter2" values="0 0 0 0 0 0 0 0 0 0 0 0 0 0 0 0 0 0 0.179347826 0"/>
			<feMerge>
				<feMergeNode in="shadowMatrixOuter1"/>
				<feMergeNode in="shadowMatrixOuter2"/>
			</feMerge>
		</filter>
		<filter id="filter-6" width="173.9%" height="154.2%" x="-36.9%" y="-18.8%" filterUnits="objectBoundingBox">
			<feMorphology in="SourceAlpha" operator="dilate" radius="1" result="shadowSpreadOuter1"/>
			<feOffset dy="1" in="shadowSpreadOuter1" result="shadowOffsetOuter1"/>
			<feGaussianBlur in="shadowOffsetOuter1" result="shadowBlurOuter1" stdDeviation=".5"/>
			<feComposite in="shadowBlurOuter1" in2="SourceAlpha" operator="out" result="shadowBlurOuter1"/>
			<feColorMatrix in="shadowBlurOuter1" result="shadowMatrixOuter1" values="0 0 0 0 0 0 0 0 0 0 0 0 0 0 0 0 0 0 0.582908741 0"/>
			<feMorphology in="SourceAlpha" operator="dilate" radius="1" result="shadowSpreadOuter2"/>
			<feOffset dy="2" in="shadowSpreadOuter2" result="shadowOffsetOuter2"/>
			<feGaussianBlur in="shadowOffsetOuter2" result="shadowBlurOuter2" stdDeviation="1.5"/>
			<feComposite in="shadowBlurOuter2" in2="SourceAlpha" operator="out" result="shadowBlurOuter2"/>
			<feColorMatrix in="shadowBlurOuter2" result="shadowMatrixOuter2" values="0 0 0 0 0 0 0 0 0 0 0 0 0 0 0 0 0 0 0.179347826 0"/>
			<feMerge>
				<feMergeNode in="shadowMatrixOuter1"/>
				<feMergeNode in="shadowMatrixOuter2"/>
			</feMerge>
		</filter>
		<filter id="filter-8" width="173.9%" height="154.2%" x="-36.9%" y="-18.8%" filterUnits="objectBoundingBox">
			<feMorphology in="SourceAlpha" operator="dilate" radius="1" result="shadowSpreadOuter1"/>
			<feOffset dy="1" in="shadowSpreadOuter1" result="shadowOffsetOuter1"/>
			<feGaussianBlur in="shadowOffsetOuter1" result="shadowBlurOuter1" stdDeviation=".5"/>
			<feComposite in="shadowBlurOuter1" in2="SourceAlpha" operator="out" result="shadowBlurOuter1"/>
			<feColorMatrix in="shadowBlurOuter1" result="shadowMatrixOuter1" values="0 0 0 0 0 0 0 0 0 0 0 0 0 0 0 0 0 0 0.582908741 0"/>
			<feMorphology in="SourceAlpha" operator="dilate" radius="1" result="shadowSpreadOuter2"/>
			<feOffset dy="2" in="shadowSpreadOuter2" result="shadowOffsetOuter2"/>
			<feGaussianBlur in="shadowOffsetOuter2" result="shadowBlurOuter2" stdDeviation="1.5"/>
			<feComposite in="shadowBlurOuter2" in2="SourceAlpha" operator="out" result="shadowBlurOuter2"/>
			<feColorMatrix in="shadowBlurOuter2" result="shadowMatrixOuter2" values="0 0 0 0 0 0 0 0 0 0 0 0 0 0 0 0 0 0 0.179347826 0"/>
			<feMerge>
				<feMergeNode in="shadowMatrixOuter1"/>
				<feMergeNode in="shadowMatrixOuter2"/>
			</feMerge>
		</filter>
		<filter id="filter-10" width="220.2%" height="165%" x="-56.2%" y="-22.5%" filterUnits="objectBoundingBox">
			<feMorphology in="SourceAlpha" operator="dilate" radius="1" result="shadowSpreadOuter1"/>
			<feOffset dy="1" in="shadowSpreadOuter1" result="shadowOffsetOuter1"/>
			<feGaussianBlur in="shadowOffsetOuter1" result="shadowBlurOuter1" stdDeviation=".5"/>
			<feComposite in="shadowBlurOuter1" in2="SourceAlpha" operator="out" result="shadowBlurOuter1"/>
			<feColorMatrix in="shadowBlurOuter1" result="shadowMatrixOuter1" values="0 0 0 0 0 0 0 0 0 0 0 0 0 0 0 0 0 0 0.582908741 0"/>
			<feMorphology in="SourceAlpha" operator="dilate" radius="1" result="shadowSpreadOuter2"/>
			<feOffset dy="2" in="shadowSpreadOuter2" result="shadowOffsetOuter2"/>
			<feGaussianBlur in="shadowOffsetOuter2" result="shadowBlurOuter2" stdDeviation="1.5"/>
			<feComposite in="shadowBlurOuter2" in2="SourceAlpha" operator="out" result="shadowBlurOuter2"/>
			<feColorMatrix in="shadowBlurOuter2" result="shadowMatrixOuter2" values="0 0 0 0 0 0 0 0 0 0 0 0 0 0 0 0 0 0 0.179347826 0"/>
			<feMerge>
				<feMergeNode in="shadowMatrixOuter1"/>
				<feMergeNode in="shadowMatrixOuter2"/>
			</feMerge>
		</filter>
		<path id="path-1" d="M17.595 12.379a1.19 1.19 0 00-1.197-1.183 1.19 1.19 0 00-1.196 1.179v-.826c0-.857-.719-1.551-1.606-1.551-.886 0-1.592.694-1.592 1.55V10.35c0-.856-.728-1.55-1.611-1.55s-1.586.694-1.586 1.55V1.425C8.807.638 8.168 0 7.397 0c-.772 0-1.398.638-1.398 1.425v15.038l-3.603-4.659c-.346-.586-1.126-.779-1.742-.431-.617.348-.836 1.105-.49 1.691 0 0 2.817 4.369 3.967 6.093C5.281 20.882 7.17 23.01 7.17 24h7.989c0-1.672 2.443-4.283 2.443-6.798v-3.24l-.006-1.583z"/>
		<path id="path-3" d="M17.595 12.379a1.19 1.19 0 00-1.197-1.183 1.19 1.19 0 00-1.196 1.179v-.826c0-.857-.719-1.551-1.606-1.551-.886 0-1.592.694-1.592 1.55V10.35c0-.856-.728-1.55-1.611-1.55s-1.586.694-1.586 1.55V1.425C8.807.638 8.168 0 7.397 0c-.772 0-1.398.638-1.398 1.425v15.038l-3.603-4.659c-.346-.586-1.126-.779-1.742-.431-.617.348-.836 1.105-.49 1.691 0 0 2.817 4.369 3.967 6.093C5.281 20.882 7.17 23.01 7.17 24h7.989c0-1.672 2.443-4.283 2.443-6.798v-3.24l-.006-1.583z"/>
		<path id="path-5" d="M17.595 12.379a1.19 1.19 0 00-1.197-1.183 1.19 1.19 0 00-1.196 1.179v-.826c0-.857-.719-1.551-1.606-1.551-.886 0-1.592.694-1.592 1.55V10.35c0-.856-.728-1.55-1.611-1.55s-1.586.694-1.586 1.55V1.425C8.807.638 8.168 0 7.397 0c-.772 0-1.398.638-1.398 1.425v15.038l-3.603-4.659c-.346-.586-1.126-.779-1.742-.431-.617.348-.836 1.105-.49 1.691 0 0 2.817 4.369 3.967 6.093C5.281 20.882 7.17 23.01 7.17 24h7.989c0-1.672 2.443-4.283 2.443-6.798v-3.24l-.006-1.583z"/>
		<path id="path-7" d="M17.595 12.379a1.19 1.19 0 00-1.197-1.183 1.19 1.19 0 00-1.196 1.179v-.826c0-.857-.719-1.551-1.606-1.551-.886 0-1.592.694-1.592 1.55V10.35c0-.856-.728-1.55-1.611-1.55s-1.586.694-1.586 1.55V1.425C8.807.638 8.168 0 7.397 0c-.772 0-1.398.638-1.398 1.425v15.038l-3.603-4.659c-.346-.586-1.126-.779-1.742-.431-.617.348-.836 1.105-.49 1.691 0 0 2.817 4.369 3.967 6.093C5.281 20.882 7.17 23.01 7.17 24h7.989c0-1.672 2.443-4.283 2.443-6.798v-3.24l-.006-1.583z"/>
		<path id="path-9" d="M6.132 11.269l4.71.26c.72-.08.899-.568.397-1.085L.592.3C.09-.216.027-.049.026.671L0 14.984c-.001.72.467.947 1.04.505l2.742-3.272c.095-.074.208-.146.327-.218l2.97 7.517c.165.41.664.595 1.113.413.449-.18.68-.66.514-1.07l-2.972-7.518.398-.073z"/>
	</defs>
	<g id="Artboard-page" fill="none" fill-rule="evenodd" stroke="none" stroke-width="1">
		<g id="WikimediaUI-components_overview" transform="translate(-4078 -255)">
			<path fill="#FFF" d="M0 0h14720v3264H0z"/>
			<g id="LINK" transform="translate(4078 186)">
				<g id="Link-X" transform="translate(2 76)">
					<text id="Normal-Hover-Active" fill="#72777D" font-family="Lato-Regular, Lato" font-size="14" font-weight="normal">
						<tspan x="0" y="16">Normal</tspan>   <tspan x="0" y="72.1">Hover</tspan> <tspan x="0" y="90.8"> </tspan>  <tspan x="0" y="128.2">Active</tspan>   <tspan x="0" y="184.3">Focus</tspan>   <tspan x="0" y="240.4">Disabled</tspan>
					</text>
					<text id="Normal-Hover-Active" fill="#72777D" font-family="Lato-Regular, Lato" font-size="14" font-weight="normal">
						<tspan x="0" y="367.3">Normal</tspan>   <tspan x="0" y="423.4">Hover</tspan> <tspan x="0" y="442.1"> </tspan>  <tspan x="0" y="479.5">Active</tspan>   <tspan x="0" y="535.6">Focus</tspan>
					</text>
					<g id="101-/-Headline--Sub" transform="translate(0 297)">
						<text id="SUBHEADLINE" fill="#222" font-family="Lato-Bold, Lato" font-size="14" font-weight="bold">
							<tspan x="0" y="13">UNDERLINED LINK</tspan>
						</text>
						<g id="101-/-Headline__line" stroke="#EAECF0" stroke-linecap="square" stroke-width="3" transform="translate(0 22)">
							<path id="Line" d="M189.484 1.5H.516"/>
						</g>
					</g>
					<text id="8:16:8:16-copy-5" fill="#72777D" font-family="HelveticaNeue-Bold, Helvetica Neue" font-size="16" font-weight="bold">
						<tspan x="192" y="239">Neutral point</tspan>
					</text>
					<text id="8:16:8:16-copy" fill="#36C" font-family="HelveticaNeue-Bold, Helvetica Neue" font-size="16" font-weight="bold">
						<tspan x="192" y="71">Neutral point</tspan>
					</text>
					<g id="Link-:hover" transform="translate(192 111)">
						<g id="Link">
							<text id="8:16:8:16-copy-3" fill="#36C" font-family="HelveticaNeue-Bold, Helvetica Neue" font-size="16" font-weight="bold">
								<tspan x="0" y="16">Neutral point</tspan>
							</text>
							<path id="Line" stroke="#36C" stroke-linecap="square" d="M1.5 18.5h57.46"/>
							<path id="Line-Copy-62" stroke="#36C" stroke-linecap="square" d="M65.5 18.5h33"/>
						</g>
					</g>
					<g id="Link-:active" transform="translate(192 167)">
						<g id="Link">
							<text id="8:16:8:16-copy-3" fill="#2A4B8D" font-family="HelveticaNeue-Bold, Helvetica Neue" font-size="16" font-weight="bold">
								<tspan x="0" y="16">Neutral point</tspan>
							</text>
							<path id="Line" stroke="#2A4B8D" stroke-linecap="square" d="M1.5 18.5h57.46"/>
							<path id="Line-Copy-62" stroke="#2A4B8D" stroke-linecap="square" d="M65.5 18.5h33"/>
						</g>
					</g>
					<g id="Link" transform="translate(192)">
						<text id="8:16:8:16-copy-3" fill="#36C" font-family="HelveticaNeue-Bold, Helvetica Neue" font-size="16" font-weight="bold">
							<tspan x="0" y="16">Neutral point</tspan>
						</text>
						<path id="Line" stroke="#36C" stroke-linecap="square" stroke-width="1" d="M1.5 18.5h57.46"/>
						<path id="Line-Copy-62" stroke="#36C" stroke-linecap="square" stroke-width="1" d="M65.5 18.5h33"/>
					</g>
					<g id="Link" transform="translate(192 352)">
						<text id="8:16:8:16-copy-3" fill="#36C" font-family="HelveticaNeue-Bold, Helvetica Neue" font-size="16" font-weight="bold">
							<tspan x="0" y="16">Neutral point</tspan>
						</text>
						<path id="Line" stroke="#36C" stroke-linecap="square" stroke-width="1" d="M1.5 18.5h57.46"/>
						<path id="Line-Copy-62" stroke="#36C" stroke-linecap="square" stroke-width="1" d="M65.5 18.5h33"/>
					</g>
					<g id="Link-:hover" transform="translate(192 408)">
						<g id="Link">
							<text id="8:16:8:16-copy-3" fill="#36C" font-family="HelveticaNeue-Bold, Helvetica Neue" font-size="16" font-weight="bold">
								<tspan x="0" y="16">Neutral point</tspan>
							</text>
							<path id="Line" stroke="#36C" stroke-linecap="square" d="M1.5 18.5h57.46"/>
							<path id="Line-Copy-62" stroke="#36C" stroke-linecap="square" d="M65.5 18.5h33"/>
						</g>
					</g>
					<g id="Link-:active" transform="translate(192 464)">
						<g id="Link">
							<text id="8:16:8:16-copy-3" fill="#2A4B8D" font-family="HelveticaNeue-Bold, Helvetica Neue" font-size="16" font-weight="bold">
								<tspan x="0" y="16">Neutral point</tspan>
							</text>
							<path id="Line" stroke="#2A4B8D" stroke-linecap="square" d="M1.5 18.5h57.46"/>
							<path id="Line-Copy-62" stroke="#2A4B8D" stroke-linecap="square" d="M65.5 18.5h33"/>
						</g>
					</g>
					<g id="Link" transform="translate(192 520)">
						<text id="8:16:8:16-copy-3" fill="#36C" font-family="HelveticaNeue-Bold, Helvetica Neue" font-size="16" font-weight="bold">
							<tspan x="0" y="16">Neutral point</tspan>
						</text>
						<path id="Line" stroke="#36C" stroke-linecap="square" stroke-width="1" d="M1.5 18.5h57.46"/>
						<path id="Line-Copy-62" stroke="#36C" stroke-linecap="square" stroke-width="1" d="M65.5 18.5h33"/>
					</g>
					<path id="Line-Copy-71" stroke="#222" stroke-linecap="square" d="M193.5 538.5h57.46"/>
					<path id="Line-Copy-72" stroke="#222" stroke-linecap="square" d="M257.5 538.5h32.46"/>
					<g id="Cursor-/-Pointer" transform="translate(261 477)">
						<g id="Cursor-Pointer">
							<use fill="#000" filter="url(#filter-2)" xlink:href="#path-1"/>
							<path fill="#FFF" stroke="#000" d="M5.499 15V1.424C5.499.365 6.346-.5 7.396-.5c1.052 0 1.91.865 1.91 1.925v7.172c.317-.189.689-.298 1.087-.298.977 0 1.809.653 2.044 1.54.332-.216.73-.341 1.16-.341.926 0 1.716.584 1.996 1.399a1.7 1.7 0 01.805-.201 1.69 1.69 0 011.697 1.683v-.002l.006 1.586v3.239c0 .257-.022.519-.066.787-.155.942-.512 1.811-1.212 3.158-1.01 1.946-1.165 2.297-1.165 2.853v.5h-8.99V24c0-.421-.472-1.169-1.853-3.03l-.079-.106a34.473 34.473 0 01-1.02-1.43c-.39-.583-.991-1.5-1.748-2.664l-.027-.043a1115.225 1115.225 0 01-2.009-3.1l-.199-.309c-.49-.83-.181-1.897.675-2.38.85-.48 1.932-.212 2.383.56L5.5 15z"/>
						</g>
					</g>
					<g id="Cursor-/-Pointer" transform="translate(261 421)">
						<g id="Cursor-Pointer">
							<use fill="#000" filter="url(#filter-4)" xlink:href="#path-3"/>
							<path fill="#FFF" stroke="#000" d="M5.499 15V1.424C5.499.365 6.346-.5 7.396-.5c1.052 0 1.91.865 1.91 1.925v7.172c.317-.189.689-.298 1.087-.298.977 0 1.809.653 2.044 1.54.332-.216.73-.341 1.16-.341.926 0 1.716.584 1.996 1.399a1.7 1.7 0 01.805-.201 1.69 1.69 0 011.697 1.683v-.002l.006 1.586v3.239c0 .257-.022.519-.066.787-.155.942-.512 1.811-1.212 3.158-1.01 1.946-1.165 2.297-1.165 2.853v.5h-8.99V24c0-.421-.472-1.169-1.853-3.03l-.079-.106a34.473 34.473 0 01-1.02-1.43c-.39-.583-.991-1.5-1.748-2.664l-.027-.043a1115.225 1115.225 0 01-2.009-3.1l-.199-.309c-.49-.83-.181-1.897.675-2.38.85-.48 1.932-.212 2.383.56L5.5 15z"/>
						</g>
					</g>
					<g id="Cursor-/-Pointer" transform="translate(261 180)">
						<g id="Cursor-Pointer">
							<use fill="#000" filter="url(#filter-6)" xlink:href="#path-5"/>
							<path fill="#FFF" stroke="#000" d="M5.499 15V1.424C5.499.365 6.346-.5 7.396-.5c1.052 0 1.91.865 1.91 1.925v7.172c.317-.189.689-.298 1.087-.298.977 0 1.809.653 2.044 1.54.332-.216.73-.341 1.16-.341.926 0 1.716.584 1.996 1.399a1.7 1.7 0 01.805-.201 1.69 1.69 0 011.697 1.683v-.002l.006 1.586v3.239c0 .257-.022.519-.066.787-.155.942-.512 1.811-1.212 3.158-1.01 1.946-1.165 2.297-1.165 2.853v.5h-8.99V24c0-.421-.472-1.169-1.853-3.03l-.079-.106a34.473 34.473 0 01-1.02-1.43c-.39-.583-.991-1.5-1.748-2.664l-.027-.043a1115.225 1115.225 0 01-2.009-3.1l-.199-.309c-.49-.83-.181-1.897.675-2.38.85-.48 1.932-.212 2.383.56L5.5 15z"/>
						</g>
					</g>
					<g id="Cursor-/-Pointer" transform="translate(261 124)">
						<g id="Cursor-Pointer">
							<use fill="#000" filter="url(#filter-8)" xlink:href="#path-7"/>
							<path fill="#FFF" stroke="#000" d="M5.499 15V1.424C5.499.365 6.346-.5 7.396-.5c1.052 0 1.91.865 1.91 1.925v7.172c.317-.189.689-.298 1.087-.298.977 0 1.809.653 2.044 1.54.332-.216.73-.341 1.16-.341.926 0 1.716.584 1.996 1.399a1.7 1.7 0 01.805-.201 1.69 1.69 0 011.697 1.683v-.002l.006 1.586v3.239c0 .257-.022.519-.066.787-.155.942-.512 1.811-1.212 3.158-1.01 1.946-1.165 2.297-1.165 2.853v.5h-8.99V24c0-.421-.472-1.169-1.853-3.03l-.079-.106a34.473 34.473 0 01-1.02-1.43c-.39-.583-.991-1.5-1.748-2.664l-.027-.043a1115.225 1115.225 0 01-2.009-3.1l-.199-.309c-.49-.83-.181-1.897.675-2.38.85-.48 1.932-.212 2.383.56L5.5 15z"/>
						</g>
					</g>
					<g id="Cursor-/-!default" transform="translate(267 235)">
						<g id="cursor" fill="#000">
							<use filter="url(#filter-10)" xlink:href="#path-9"/>
							<path stroke="#FFF" d="M6.448 11.787l2.721 6.886c.273.675-.094 1.44-.79 1.72-.696.283-1.491-.013-1.765-.692l-2.708-6.853-2.483 2.963-.077.075c-.901.695-1.848.236-1.846-.902L-.474.669c0-.618.027-.82.271-1.028.4-.34.694-.163 1.14.298l10.66 10.157c.793.817.432 1.805-.782 1.933l-4.367-.242z"/>
						</g>
					</g>
				</g>
			</g>
		</g>
	</g>
</svg>
