<svg xmlns="http://www.w3.org/2000/svg" xmlns:xlink="http://www.w3.org/1999/xlink" width="162" height="34" viewBox="0 0 162 34">
	<defs>
		<path id="number_inputs_intro-a" d="M4 12h12v-2H4z"/>
		<path id="number_inputs_intro-c" d="M16 10h-5V5H9v5H4v2h5v5h2v-5h5z"/>
	</defs>
	<g fill="none" fill-rule="evenodd">
		<path fill="#FFF" d="M-11319-254H3401v3264h-14720z"/>
		<g transform="translate(-199 -113)">
			<rect width="159" height="31" x=".5" y=".5" fill="#F8F9FA" stroke="#A2A9B1" rx="2" transform="translate(200 114)"/>
			<rect width="95" height="31" x=".5" y=".5" fill="#FFF" stroke="#9AA0A7" rx="2" transform="translate(233 114)"/>
			<path fill="#FFF" d="M234 141h4v4h-4zm88 0h4v4h-4zm0-26h4v4h-4zm-88 0h4v4h-4z"/>
			<text fill="#222" font-family="HelveticaNeue, Helvetica Neue" font-size="16">
				<tspan x="249" y="137">100</tspan>
			</text>
			<g transform="translate(207 120)">
				<mask id="number_inputs_intro-b" fill="#fff">
					<use xlink:href="#number_inputs_intro-a"/>
				</mask>
				<use fill="#000" xlink:href="#number_inputs_intro-a"/>
				<g fill="#222" mask="url(#number_inputs_intro-b)">
					<path d="M0 0h20v20H0z"/>
				</g>
			</g>
			<g transform="translate(334 120)">
				<mask id="number_inputs_intro-d" fill="#fff">
					<use xlink:href="#number_inputs_intro-c"/>
				</mask>
				<use fill="#000" xlink:href="#number_inputs_intro-c"/>
				<g fill="#222" mask="url(#number_inputs_intro-d)">
					<path d="M0 0h20v20H0z"/>
				</g>
			</g>
		</g>
	</g>
</svg>
