<?xml version="1.0" encoding="UTF-8"?>
<svg xmlns="http://www.w3.org/2000/svg" width="130" height="42" viewBox="0 0 130 42">
	<title>
		number_inputs_intro
	</title>
	<desc>
		Created with Sketch.
	</desc>
	<g id="Artboard-page" fill="none" fill-rule="evenodd" stroke="none" stroke-width="1">
		<g id="WikimediaUI-components_overview" transform="translate(-11235 -259)">
			<path fill="#FFF" d="M0 0h14720v3264H0z"/>
			<g id="NUMBER-INPUT-FIELD" transform="translate(11042 141)">
				<rect id="Mediawiki.Neutral.Hover-12" width="123" height="33" x="196.5" y="122.5" fill="#F8F9FA" stroke="#A2A9B1" rx="2"/>
				<g id="Text-input-/-!default" transform="translate(229 123)">
					<rect id="Mediawiki.Neutral.Hover-35" width="60" height="33" x="-.5" y="-.5" fill="#FFF" fill-rule="evenodd" stroke="#9AA0A7" stroke-width="1" rx="2"/>
				</g>
				<path id="Line" stroke="#9AA0A7" stroke-linecap="square" d="M228.5 122.5v33m60-33v33"/>
				<path id="Rectangle" fill="#FFF" d="M229 123h4v4h-4zm0 28h4v4h-4zm55 0h4v4h-4zm0-28h4v4h-4z"/>
				<text id="100" fill="#222" font-family="HelveticaNeue, Helvetica Neue" font-size="16" font-weight="normal">
					<tspan x="245" y="145">100</tspan>
				</text>
				<path id="Subtract" fill="#000" fill-rule="nonzero" d="M219 140h-12v-2h12"/>
				<path id="plus" fill="#000" fill-rule="nonzero" d="M305 133h-2v5h-5v2h5v5h2v-5h5v-2h-5z"/>
			</g>
		</g>
	</g>
</svg>
