<?xml version="1.0" encoding="UTF-8"?>
<svg xmlns="http://www.w3.org/2000/svg" xmlns:xlink="http://www.w3.org/1999/xlink" width="611" height="536" viewBox="0 0 611 536">
	<defs>
		<text id="primary_buttons-b" fill="#FFF" font-family="HelveticaNeue-Bold, Helvetica Neue" font-size="16" font-weight="bold">
			<tspan x="337.452" y="246">Progressive</tspan>
		</text>
		<filter id="primary_buttons-a" width="101.1%" height="115.8%" x="-.5%" y="-2.6%" filterUnits="objectBoundingBox">
			<feOffset dy="1" in="SourceAlpha" result="shadowOffsetOuter1"/>
			<feColorMatrix in="shadowOffsetOuter1" values="0 0 0 0 0 0 0 0 0 0 0 0 0 0 0 0 0 0 0.1 0"/>
		</filter>
		<text id="primary_buttons-d" fill="#FFF" font-family="HelveticaNeue-Bold, Helvetica Neue" font-size="16" font-weight="bold">
			<tspan x="500.288" y="246">Destructive</tspan>
		</text>
		<filter id="primary_buttons-c" width="101.1%" height="115.8%" x="-.6%" y="-2.6%" filterUnits="objectBoundingBox">
			<feOffset dy="1" in="SourceAlpha" result="shadowOffsetOuter1"/>
			<feColorMatrix in="shadowOffsetOuter1" values="0 0 0 0 0 0 0 0 0 0 0 0 0 0 0 0 0 0 0.1 0"/>
		</filter>
		<text id="primary_buttons-f" fill="#FFF" font-family="HelveticaNeue-Bold, Helvetica Neue" font-size="16" font-weight="bold">
			<tspan x="337.452" y="191">Progressive</tspan>
		</text>
		<filter id="primary_buttons-e" width="101.1%" height="115.8%" x="-.5%" y="-2.6%" filterUnits="objectBoundingBox">
			<feOffset dy="1" in="SourceAlpha" result="shadowOffsetOuter1"/>
			<feColorMatrix in="shadowOffsetOuter1" values="0 0 0 0 0 0 0 0 0 0 0 0 0 0 0 0 0 0 0.1 0"/>
		</filter>
		<text id="primary_buttons-h" fill="#FFF" font-family="HelveticaNeue-Bold, Helvetica Neue" font-size="16" font-weight="bold">
			<tspan x="500.288" y="191">Destructive</tspan>
		</text>
		<filter id="primary_buttons-g" width="101.1%" height="115.8%" x="-.6%" y="-2.6%" filterUnits="objectBoundingBox">
			<feOffset dy="1" in="SourceAlpha" result="shadowOffsetOuter1"/>
			<feColorMatrix in="shadowOffsetOuter1" values="0 0 0 0 0 0 0 0 0 0 0 0 0 0 0 0 0 0 0.1 0"/>
		</filter>
		<text id="primary_buttons-j" fill="#FFF" font-family="HelveticaNeue-Bold, Helvetica Neue" font-size="16" font-weight="bold">
			<tspan x="337.452" y="135">Progressive</tspan>
		</text>
		<filter id="primary_buttons-i" width="101.1%" height="115.8%" x="-.5%" y="-2.6%" filterUnits="objectBoundingBox">
			<feOffset dy="1" in="SourceAlpha" result="shadowOffsetOuter1"/>
			<feColorMatrix in="shadowOffsetOuter1" values="0 0 0 0 0 0 0 0 0 0 0 0 0 0 0 0 0 0 0.1 0"/>
		</filter>
		<text id="primary_buttons-l" fill="#FFF" font-family="HelveticaNeue-Bold, Helvetica Neue" font-size="16" font-weight="bold">
			<tspan x="500.288" y="135">Destructive</tspan>
		</text>
		<filter id="primary_buttons-k" width="101.1%" height="115.8%" x="-.6%" y="-2.6%" filterUnits="objectBoundingBox">
			<feOffset dy="1" in="SourceAlpha" result="shadowOffsetOuter1"/>
			<feColorMatrix in="shadowOffsetOuter1" values="0 0 0 0 0 0 0 0 0 0 0 0 0 0 0 0 0 0 0.1 0"/>
		</filter>
		<text id="primary_buttons-n" fill="#FFF" font-family="HelveticaNeue-Bold, Helvetica Neue" font-size="16" font-weight="bold">
			<tspan x="337.452" y="79">Progressive</tspan>
		</text>
		<filter id="primary_buttons-m" width="101.1%" height="115.8%" x="-.5%" y="-2.6%" filterUnits="objectBoundingBox">
			<feOffset dy="1" in="SourceAlpha" result="shadowOffsetOuter1"/>
			<feColorMatrix in="shadowOffsetOuter1" values="0 0 0 0 0 0 0 0 0 0 0 0 0 0 0 0 0 0 0.1 0"/>
		</filter>
		<text id="primary_buttons-p" fill="#FFF" font-family="HelveticaNeue-Bold, Helvetica Neue" font-size="16" font-weight="bold">
			<tspan x="500.288" y="79">Destructive</tspan>
		</text>
		<filter id="primary_buttons-o" width="101.1%" height="115.8%" x="-.6%" y="-2.6%" filterUnits="objectBoundingBox">
			<feOffset dy="1" in="SourceAlpha" result="shadowOffsetOuter1"/>
			<feColorMatrix in="shadowOffsetOuter1" values="0 0 0 0 0 0 0 0 0 0 0 0 0 0 0 0 0 0 0.1 0"/>
		</filter>
		<path id="primary_buttons-r" d="M17.595 12.379a1.19 1.19 0 0 0-1.197-1.183 1.19 1.19 0 0 0-1.196 1.179v-.826c0-.857-.719-1.551-1.606-1.551-.886 0-1.592.694-1.592 1.55V10.35c0-.856-.728-1.55-1.611-1.55s-1.586.694-1.586 1.55V1.425C8.807.638 8.168 0 7.397 0c-.772 0-1.398.638-1.398 1.425v15.038l-3.603-4.659c-.346-.586-1.126-.779-1.742-.431-.617.348-.836 1.105-.49 1.691 0 0 2.817 4.369 3.967 6.093C5.281 20.882 7.17 23.01 7.17 24h7.989c0-1.672 2.443-4.283 2.443-6.798v-3.24l-.006-1.583z"/>
		<filter id="primary_buttons-q" width="185.2%" height="162.5%" x="-42.6%" y="-18.8%" filterUnits="objectBoundingBox">
			<feMorphology in="SourceAlpha" operator="dilate" radius="1" result="shadowSpreadOuter1"/>
			<feOffset dy="1" in="shadowSpreadOuter1" result="shadowOffsetOuter1"/>
			<feGaussianBlur in="shadowOffsetOuter1" result="shadowBlurOuter1" stdDeviation=".5"/>
			<feComposite in="shadowBlurOuter1" in2="SourceAlpha" operator="out" result="shadowBlurOuter1"/>
			<feColorMatrix in="shadowBlurOuter1" result="shadowMatrixOuter1" values="0 0 0 0 0 0 0 0 0 0 0 0 0 0 0 0 0 0 0.582908741 0"/>
			<feMorphology in="SourceAlpha" operator="dilate" radius="1" result="shadowSpreadOuter2"/>
			<feOffset dy="2" in="shadowSpreadOuter2" result="shadowOffsetOuter2"/>
			<feGaussianBlur in="shadowOffsetOuter2" result="shadowBlurOuter2" stdDeviation="1.5"/>
			<feComposite in="shadowBlurOuter2" in2="SourceAlpha" operator="out" result="shadowBlurOuter2"/>
			<feColorMatrix in="shadowBlurOuter2" result="shadowMatrixOuter2" values="0 0 0 0 0 0 0 0 0 0 0 0 0 0 0 0 0 0 0.179347826 0"/>
			<feMerge>
				<feMergeNode in="shadowMatrixOuter1"/>
				<feMergeNode in="shadowMatrixOuter2"/>
			</feMerge>
		</filter>
		<path id="primary_buttons-t" d="M17.595 12.379a1.19 1.19 0 0 0-1.197-1.183 1.19 1.19 0 0 0-1.196 1.179v-.826c0-.857-.719-1.551-1.606-1.551-.886 0-1.592.694-1.592 1.55V10.35c0-.856-.728-1.55-1.611-1.55s-1.586.694-1.586 1.55V1.425C8.807.638 8.168 0 7.397 0c-.772 0-1.398.638-1.398 1.425v15.038l-3.603-4.659c-.346-.586-1.126-.779-1.742-.431-.617.348-.836 1.105-.49 1.691 0 0 2.817 4.369 3.967 6.093C5.281 20.882 7.17 23.01 7.17 24h7.989c0-1.672 2.443-4.283 2.443-6.798v-3.24l-.006-1.583z"/>
		<filter id="primary_buttons-s" width="185.2%" height="162.5%" x="-42.6%" y="-18.8%" filterUnits="objectBoundingBox">
			<feMorphology in="SourceAlpha" operator="dilate" radius="1" result="shadowSpreadOuter1"/>
			<feOffset dy="1" in="shadowSpreadOuter1" result="shadowOffsetOuter1"/>
			<feGaussianBlur in="shadowOffsetOuter1" result="shadowBlurOuter1" stdDeviation=".5"/>
			<feComposite in="shadowBlurOuter1" in2="SourceAlpha" operator="out" result="shadowBlurOuter1"/>
			<feColorMatrix in="shadowBlurOuter1" result="shadowMatrixOuter1" values="0 0 0 0 0 0 0 0 0 0 0 0 0 0 0 0 0 0 0.582908741 0"/>
			<feMorphology in="SourceAlpha" operator="dilate" radius="1" result="shadowSpreadOuter2"/>
			<feOffset dy="2" in="shadowSpreadOuter2" result="shadowOffsetOuter2"/>
			<feGaussianBlur in="shadowOffsetOuter2" result="shadowBlurOuter2" stdDeviation="1.5"/>
			<feComposite in="shadowBlurOuter2" in2="SourceAlpha" operator="out" result="shadowBlurOuter2"/>
			<feColorMatrix in="shadowBlurOuter2" result="shadowMatrixOuter2" values="0 0 0 0 0 0 0 0 0 0 0 0 0 0 0 0 0 0 0.179347826 0"/>
			<feMerge>
				<feMergeNode in="shadowMatrixOuter1"/>
				<feMergeNode in="shadowMatrixOuter2"/>
			</feMerge>
		</filter>
		<path id="primary_buttons-v" d="M6.132 11.269l4.71.26c.72-.08.899-.568.397-1.085L.592.3C.09-.216.027-.049.026.671L0 14.984c-.001.72.467.947 1.04.505l2.742-3.272c.095-.074.208-.146.327-.218l2.97 7.517c.165.41.664.595 1.113.413.449-.18.68-.66.514-1.07l-2.972-7.518.398-.073z"/>
		<filter id="primary_buttons-u" width="230.2%" height="175%" x="-65.1%" y="-22.5%" filterUnits="objectBoundingBox">
			<feMorphology in="SourceAlpha" operator="dilate" radius="1" result="shadowSpreadOuter1"/>
			<feOffset dy="1" in="shadowSpreadOuter1" result="shadowOffsetOuter1"/>
			<feGaussianBlur in="shadowOffsetOuter1" result="shadowBlurOuter1" stdDeviation=".5"/>
			<feComposite in="shadowBlurOuter1" in2="SourceAlpha" operator="out" result="shadowBlurOuter1"/>
			<feColorMatrix in="shadowBlurOuter1" result="shadowMatrixOuter1" values="0 0 0 0 0 0 0 0 0 0 0 0 0 0 0 0 0 0 0.582908741 0"/>
			<feMorphology in="SourceAlpha" operator="dilate" radius="1" result="shadowSpreadOuter2"/>
			<feOffset dy="2" in="shadowSpreadOuter2" result="shadowOffsetOuter2"/>
			<feGaussianBlur in="shadowOffsetOuter2" result="shadowBlurOuter2" stdDeviation="1.5"/>
			<feComposite in="shadowBlurOuter2" in2="SourceAlpha" operator="out" result="shadowBlurOuter2"/>
			<feColorMatrix in="shadowBlurOuter2" result="shadowMatrixOuter2" values="0 0 0 0 0 0 0 0 0 0 0 0 0 0 0 0 0 0 0.179347826 0"/>
			<feMerge>
				<feMergeNode in="shadowMatrixOuter1"/>
				<feMergeNode in="shadowMatrixOuter2"/>
			</feMerge>
		</filter>
	</defs>
	<g fill="none" fill-rule="evenodd">
		<path fill="#FFF" d="M-1759-255h14720v3264H-1759z"/>
		<g transform="translate(0 1)">
			<text fill="#222" font-family="Lato-Bold, Lato, sans-serif" font-size="14" font-weight="bold" transform="translate(1 304)">
				<tspan x="0" y="13">ICON + TEXT</tspan>
			</text>
			<path stroke="#222" stroke-linecap="square" d="M190.484 327.5H1.516"/>
			<rect width="114" height="33" x="192.5" y="343.5" fill="#F8F9FA" stroke="#A2A9B1" rx="2"/>
			<text fill="#72777D" font-family="Lato-Regular, Lato, sans-serif" font-size="14">
				<tspan x="0" y="21"> DISABLED</tspan> <tspan x="0" y="77.4"> NORMAL</tspan> <tspan x="0" y="133.8">:HOVER</tspan> <tspan x="0" y="190.2">:ACTIVE</tspan> <tspan x="0" y="246.6">:FOCUS</tspan>
			</text>
			<path fill="#222" d="M219 370c5.523 0 10-4.477 10-10s-4.477-10-10-10-10 4.477-10 10 4.477 10 10 10z"/>
			<text fill="#222" font-family="HelveticaNeue-Bold, Helvetica Neue" font-size="16" font-weight="bold">
				<tspan x="238" y="365">Button</tspan>
			</text>
			<g stroke-linecap="square">
				<path stroke="#D0021B" d="M182.5 8.5v15m-1-15v15m-1-15v15m-1-15v15"/>
				<path stroke="#50E3C2" d="M181.5.5v7m1-7v7m-3-7v7m1-7v7m1 17v7m1-7v7m-3-7v7m1-7v7"/>
			</g>
			<path stroke="#50E3C2" stroke-linecap="square" d="M229.5 360.5h7m-7-1h7m-7 3h7m-7-1h7"/>
			<rect width="121" height="30" x="322" y="225" fill="#36C" stroke="#FFF" stroke-linejoin="square" stroke-width="2" rx="2"/>
			<rect width="124" height="33" x="320.5" y="223.5" stroke="#36C" rx="2"/>
			<rect width="122" height="31" x="321.5" y="224.5" stroke="#36C" stroke-linejoin="square" rx="2"/>
			<g fill="#FFF">
				<use filter="url(#primary_buttons-a)" xlink:href="#primary_buttons-b"/>
				<use xlink:href="#primary_buttons-b"/>
			</g>
			<rect width="118" height="30" x="485" y="225" fill="#D11D13" stroke="#FFF" stroke-linejoin="square" stroke-width="2" rx="2"/>
			<rect width="119" height="31" x="484.5" y="224.5" stroke="#D11D13" stroke-linejoin="square" rx="2"/>
			<rect width="121" height="33" x="483.5" y="223.5" stroke="#D11D13" rx="2"/>
			<g fill="#FFF">
				<use filter="url(#primary_buttons-c)" xlink:href="#primary_buttons-d"/>
				<use xlink:href="#primary_buttons-d"/>
			</g>
			<rect width="124" height="33" x="320.5" y="167.5" fill="#2A4B8D" stroke="#2A4B8D" rx="2"/>
			<g fill="#FFF">
				<use filter="url(#primary_buttons-e)" xlink:href="#primary_buttons-f"/>
				<use xlink:href="#primary_buttons-f"/>
			</g>
			<rect width="121" height="33" x="483.5" y="167.5" fill="#951B19" stroke="#951B19" rx="2"/>
			<g fill="#FFF">
				<use filter="url(#primary_buttons-g)" xlink:href="#primary_buttons-h"/>
				<use xlink:href="#primary_buttons-h"/>
			</g>
			<rect width="124" height="33" x="320.5" y="111.5" fill="#447FF5" stroke="#447FF5" rx="2"/>
			<g fill="#FFF">
				<use filter="url(#primary_buttons-i)" xlink:href="#primary_buttons-j"/>
				<use xlink:href="#primary_buttons-j"/>
			</g>
			<rect width="121" height="33" x="483.5" y="111.5" fill="#B8211F" stroke="#B8211F" rx="2"/>
			<g fill="#FFF">
				<use filter="url(#primary_buttons-k)" xlink:href="#primary_buttons-l"/>
				<use xlink:href="#primary_buttons-l"/>
			</g>
			<rect width="124" height="33" x="320.5" y="55.5" fill="#36C" stroke="#36C" rx="2"/>
			<g fill="#FFF">
				<use filter="url(#primary_buttons-m)" xlink:href="#primary_buttons-n"/>
				<use xlink:href="#primary_buttons-n"/>
			</g>
			<rect width="120" height="32" x="484" y="56" fill="#D33" rx="2"/>
			<g fill="#FFF">
				<use filter="url(#primary_buttons-o)" xlink:href="#primary_buttons-p"/>
				<use xlink:href="#primary_buttons-p"/>
			</g>
			<rect width="124" height="33" x="320.5" y="-.5" fill="#C8CCD1" stroke="#C8CCD1" rx="2"/>
			<text fill="#FFF" font-family="HelveticaNeue-Bold, Helvetica Neue" font-size="16" font-weight="bold">
				<tspan x="337" y="22">Progressive</tspan>
			</text>
			<rect width="121" height="33" x="483.5" y="-.5" fill="#C8CCD1" stroke="#C8CCD1" rx="2"/>
			<text fill="#FFF" font-family="HelveticaNeue-Bold, Helvetica Neue" font-size="16" font-weight="bold">
				<tspan x="500" y="22">Destructive</tspan>
			</text>
			<rect width="89" height="33" x="192.5" y="-.5" fill="#C8CCD1" stroke="#C8CCD1" rx="2"/>
			<path stroke="#D0021B" stroke-linecap="square" d="M193.5 14.5h15m-15 1h15m-15 1h15m-15 1h15"/>
			<path stroke="#D0021B" stroke-width="4" d="M193 360h16m81 0h16"/>
			<rect width="114" height="33" x="344.5" y="343.5" fill="#36C" stroke="#36C" rx="2"/>
			<circle cx="372" cy="360" r="10" fill="#FFF"/>
			<text fill="#FFF" font-family="HelveticaNeue-Bold, Helvetica Neue" font-size="16" font-weight="bold">
				<tspan x="390.36" y="367">Button</tspan>
			</text>
			<rect width="114" height="33" x="496.5" y="343.5" fill="#D11D13" stroke="#D11D13" rx="2"/>
			<circle cx="524" cy="360" r="10" fill="#FFF"/>
			<text fill="#FFF" font-family="HelveticaNeue-Bold, Helvetica Neue" font-size="16" font-weight="bold">
				<tspan x="542.36" y="367">Button</tspan>
			</text>
			<text fill="#FFF" font-family="HelveticaNeue-Bold, Helvetica Neue" font-size="16" font-weight="bold">
				<tspan x="209" y="22">Neutral</tspan>
			</text>
			<rect width="89" height="33" x="192.5" y="55.5" fill="#F8F9FA" stroke="#A2A9B1" rx="2"/>
			<text fill="#222" font-family="HelveticaNeue-Bold, Helvetica Neue" font-size="16" font-weight="bold">
				<tspan x="209" y="72">Neutral</tspan>
			</text>
			<rect width="89" height="33" x="192.5" y="111.5" fill="#FFF" stroke="#A2A9B1" rx="2"/>
			<text fill="#222" font-family="HelveticaNeue-Bold, Helvetica Neue" font-size="16" font-weight="bold">
				<tspan x="209" y="134">Neutral</tspan>
			</text>
			<rect width="89" height="33" x="192.5" y="167.5" fill="#EAECF0" stroke="#9AA0A7" rx="2"/>
			<text fill="#000" font-family="HelveticaNeue-Bold, Helvetica Neue" font-size="16" font-weight="bold">
				<tspan x="209" y="190">Neutral</tspan>
			</text>
			<g stroke="#36C">
				<rect width="89" height="33" x="192.5" y="223.5" rx="2"/>
				<rect width="87" height="31" x="193.5" y="224.5" stroke-linejoin="square" rx="2"/>
			</g>
			<text fill="#222" font-family="HelveticaNeue-Bold, Helvetica Neue" font-size="16" font-weight="bold">
				<tspan x="209" y="240">Neutral</tspan>
			</text>
			<g transform="translate(260 186)">
				<use fill="#000" filter="url(#primary_buttons-q)" xlink:href="#primary_buttons-r"/>
				<path fill="#FFF" stroke="#000" d="M18.095 12.378l.006 1.585v3.239c0 .257-.022.519-.066.787-.155.942-.512 1.811-1.212 3.158-1.01 1.946-1.165 2.297-1.165 2.853v.5h-8.99V24c0-.421-.472-1.169-1.853-3.03l-.079-.106a34.473 34.473 0 0 1-1.02-1.43c-.39-.583-.991-1.5-1.748-2.664l-.027-.043a1115.225 1115.225 0 0 1-2.009-3.1l-.199-.309c-.49-.83-.181-1.897.675-2.38.85-.48 1.932-.212 2.383.56L5.5 15V1.425C5.499.365 6.346-.5 7.396-.5c1.052 0 1.91.865 1.91 1.925v7.172a2.116 2.116 0 0 1 1.087-.298c.977 0 1.809.653 2.044 1.54.332-.216.73-.341 1.16-.341.926 0 1.716.584 1.996 1.399a1.7 1.7 0 0 1 .805-.201 1.69 1.69 0 0 1 1.697 1.682z"/>
			</g>
			<g transform="translate(261 130)">
				<use fill="#000" filter="url(#primary_buttons-s)" xlink:href="#primary_buttons-t"/>
				<path fill="#FFF" stroke="#000" d="M18.095 12.378l.006 1.585v3.239c0 .257-.022.519-.066.787-.155.942-.512 1.811-1.212 3.158-1.01 1.946-1.165 2.297-1.165 2.853v.5h-8.99V24c0-.421-.472-1.169-1.853-3.03l-.079-.106a34.473 34.473 0 0 1-1.02-1.43c-.39-.583-.991-1.5-1.748-2.664l-.027-.043a1115.225 1115.225 0 0 1-2.009-3.1l-.199-.309c-.49-.83-.181-1.897.675-2.38.85-.48 1.932-.212 2.383.56L5.5 15V1.425C5.499.365 6.346-.5 7.396-.5c1.052 0 1.91.865 1.91 1.925v7.172a2.116 2.116 0 0 1 1.087-.298c.977 0 1.809.653 2.044 1.54.332-.216.73-.341 1.16-.341.926 0 1.716.584 1.996 1.399a1.7 1.7 0 0 1 .805-.201 1.69 1.69 0 0 1 1.697 1.682z"/>
			</g>
			<g fill="#000" transform="translate(267 23)">
				<use filter="url(#primary_buttons-u)" xlink:href="#primary_buttons-v"/>
				<path stroke="#FFF" d="M6.448 11.787l2.721 6.886c.273.675-.094 1.44-.79 1.72-.696.283-1.491-.013-1.765-.692l-2.708-6.853-2.483 2.963-.077.075c-.901.695-1.848.236-1.846-.902L-.474.669c0-.618.027-.82.271-1.028.4-.34.694-.163 1.14.298l10.66 10.157c.793.817.432 1.805-.782 1.933l-4.367-.242z"/>
			</g>
		</g>
		<path stroke="#D0021B" stroke-linecap="square" d="M265.5 15.5h15m-15 1h15m-15 1h15m-15 1h15"/>
	</g>
</svg>
