<?xml version="1.0" encoding="UTF-8"?>
<svg xmlns="http://www.w3.org/2000/svg" xmlns:xlink="http://www.w3.org/1999/xlink" width="611" height="536" viewBox="0 0 611 536">
    <defs>
        <rect id="a" width="113" height="32" x="193" y="344" rx="2"/>
        <rect id="b" width="123" height="32" x="321" y="224" rx="2"/>
        <text id="d" fill="#FFF" font-family="HelveticaNeue-Bold, Helvetica Neue" font-size="16" font-weight="bold">
            <tspan x="337.452" y="246">Progressive</tspan>
        </text>
        <filter id="c" width="101.1%" height="110.5%" x="-.5%" y="-2.6%" filterUnits="objectBoundingBox">
            <feOffset dy="1" in="SourceAlpha" result="shadowOffsetOuter1"/>
            <feColorMatrix in="shadowOffsetOuter1" values="0 0 0 0 0 0 0 0 0 0 0 0 0 0 0 0 0 0 0.1 0"/>
        </filter>
        <rect id="e" width="120" height="32" x="484" y="224" rx="2"/>
        <text id="g" fill="#FFF" font-family="HelveticaNeue-Bold, Helvetica Neue" font-size="16" font-weight="bold">
            <tspan x="500.288" y="246">Destructive</tspan>
        </text>
        <filter id="f" width="101.1%" height="110.5%" x="-.6%" y="-2.6%" filterUnits="objectBoundingBox">
            <feOffset dy="1" in="SourceAlpha" result="shadowOffsetOuter1"/>
            <feColorMatrix in="shadowOffsetOuter1" values="0 0 0 0 0 0 0 0 0 0 0 0 0 0 0 0 0 0 0.1 0"/>
        </filter>
        <rect id="h" width="123" height="32" x="321" y="168" rx="2"/>
        <text id="j" fill="#FFF" font-family="HelveticaNeue-Bold, Helvetica Neue" font-size="16" font-weight="bold">
            <tspan x="337.452" y="191">Progressive</tspan>
        </text>
        <filter id="i" width="101.1%" height="110.5%" x="-.5%" y="-2.6%" filterUnits="objectBoundingBox">
            <feOffset dy="1" in="SourceAlpha" result="shadowOffsetOuter1"/>
            <feColorMatrix in="shadowOffsetOuter1" values="0 0 0 0 0 0 0 0 0 0 0 0 0 0 0 0 0 0 0.1 0"/>
        </filter>
        <rect id="k" width="120" height="32" x="484" y="168" rx="2"/>
        <text id="m" fill="#FFF" font-family="HelveticaNeue-Bold, Helvetica Neue" font-size="16" font-weight="bold">
            <tspan x="500.288" y="191">Destructive</tspan>
        </text>
        <filter id="l" width="101.1%" height="110.5%" x="-.6%" y="-2.6%" filterUnits="objectBoundingBox">
            <feOffset dy="1" in="SourceAlpha" result="shadowOffsetOuter1"/>
            <feColorMatrix in="shadowOffsetOuter1" values="0 0 0 0 0 0 0 0 0 0 0 0 0 0 0 0 0 0 0.1 0"/>
        </filter>
        <rect id="n" width="123" height="32" x="321" y="112" rx="2"/>
        <text id="p" fill="#FFF" font-family="HelveticaNeue-Bold, Helvetica Neue" font-size="16" font-weight="bold">
            <tspan x="337.452" y="135">Progressive</tspan>
        </text>
        <filter id="o" width="101.1%" height="110.5%" x="-.5%" y="-2.6%" filterUnits="objectBoundingBox">
            <feOffset dy="1" in="SourceAlpha" result="shadowOffsetOuter1"/>
            <feColorMatrix in="shadowOffsetOuter1" values="0 0 0 0 0 0 0 0 0 0 0 0 0 0 0 0 0 0 0.1 0"/>
        </filter>
        <rect id="q" width="120" height="32" x="484" y="112" rx="2"/>
        <text id="s" fill="#FFF" font-family="HelveticaNeue-Bold, Helvetica Neue" font-size="16" font-weight="bold">
            <tspan x="500.288" y="135">Destructive</tspan>
        </text>
        <filter id="r" width="101.1%" height="110.5%" x="-.6%" y="-2.6%" filterUnits="objectBoundingBox">
            <feOffset dy="1" in="SourceAlpha" result="shadowOffsetOuter1"/>
            <feColorMatrix in="shadowOffsetOuter1" values="0 0 0 0 0 0 0 0 0 0 0 0 0 0 0 0 0 0 0.1 0"/>
        </filter>
        <rect id="t" width="123" height="32" x="321" y="56" rx="2"/>
        <text id="v" fill="#FFF" font-family="HelveticaNeue-Bold, Helvetica Neue" font-size="16" font-weight="bold">
            <tspan x="337.452" y="79">Progressive</tspan>
        </text>
        <filter id="u" width="101.1%" height="110.5%" x="-.5%" y="-2.6%" filterUnits="objectBoundingBox">
            <feOffset dy="1" in="SourceAlpha" result="shadowOffsetOuter1"/>
            <feColorMatrix in="shadowOffsetOuter1" values="0 0 0 0 0 0 0 0 0 0 0 0 0 0 0 0 0 0 0.1 0"/>
        </filter>
        <text id="x" fill="#FFF" font-family="HelveticaNeue-Bold, Helvetica Neue" font-size="16" font-weight="bold">
            <tspan x="500.288" y="79">Destructive</tspan>
        </text>
        <filter id="w" width="101.1%" height="110.5%" x="-.6%" y="-2.6%" filterUnits="objectBoundingBox">
            <feOffset dy="1" in="SourceAlpha" result="shadowOffsetOuter1"/>
            <feColorMatrix in="shadowOffsetOuter1" values="0 0 0 0 0 0 0 0 0 0 0 0 0 0 0 0 0 0 0.1 0"/>
        </filter>
        <rect id="y" width="123" height="32" x="321" rx="2"/>
        <rect id="z" width="120" height="32" x="484" rx="2"/>
        <rect id="A" width="88" height="32" x="193" rx="2"/>
        <rect id="B" width="113" height="32" x="345" y="344" rx="2"/>
        <rect id="C" width="113" height="32" x="497" y="344" rx="2"/>
        <rect id="D" width="88" height="32" x="193" y="56" rx="2"/>
        <rect id="E" width="147" height="54" rx="2"/>
        <rect id="F" width="88" height="32" x="193" y="112" rx="2"/>
        <rect id="G" width="88" height="32" x="193" y="168" rx="2"/>
        <path id="I" d="M17.595 12.379a1.19 1.19 0 0 0-1.197-1.183 1.19 1.19 0 0 0-1.196 1.179v-.826c0-.857-.719-1.551-1.606-1.551-.886 0-1.592.694-1.592 1.55V10.35c0-.856-.728-1.55-1.611-1.55s-1.586.694-1.586 1.55V1.425C8.807.638 8.168 0 7.397 0c-.772 0-1.398.638-1.398 1.425v15.038l-3.603-4.659c-.346-.586-1.126-.779-1.742-.431-.617.348-.836 1.105-.49 1.691 0 0 2.817 4.369 3.967 6.093C5.281 20.882 7.17 23.01 7.17 24h7.989c0-1.672 2.443-4.283 2.443-6.798v-3.24l-.006-1.583z"/>
        <filter id="H" width="185.2%" height="162.5%" x="-42.6%" y="-18.8%" filterUnits="objectBoundingBox">
            <feMorphology in="SourceAlpha" operator="dilate" radius="1" result="shadowSpreadOuter1"/>
            <feOffset dy="1" in="shadowSpreadOuter1" result="shadowOffsetOuter1"/>
            <feGaussianBlur in="shadowOffsetOuter1" result="shadowBlurOuter1" stdDeviation=".5"/>
            <feComposite in="shadowBlurOuter1" in2="SourceAlpha" operator="out" result="shadowBlurOuter1"/>
            <feColorMatrix in="shadowBlurOuter1" result="shadowMatrixOuter1" values="0 0 0 0 0 0 0 0 0 0 0 0 0 0 0 0 0 0 0.582908741 0"/>
            <feMorphology in="SourceAlpha" operator="dilate" radius="1" result="shadowSpreadOuter2"/>
            <feOffset dy="2" in="shadowSpreadOuter2" result="shadowOffsetOuter2"/>
            <feGaussianBlur in="shadowOffsetOuter2" result="shadowBlurOuter2" stdDeviation="1.5"/>
            <feComposite in="shadowBlurOuter2" in2="SourceAlpha" operator="out" result="shadowBlurOuter2"/>
            <feColorMatrix in="shadowBlurOuter2" result="shadowMatrixOuter2" values="0 0 0 0 0 0 0 0 0 0 0 0 0 0 0 0 0 0 0.179347826 0"/>
            <feMerge>
                <feMergeNode in="shadowMatrixOuter1"/>
                <feMergeNode in="shadowMatrixOuter2"/>
            </feMerge>
        </filter>
        <path id="K" d="M17.595 12.379a1.19 1.19 0 0 0-1.197-1.183 1.19 1.19 0 0 0-1.196 1.179v-.826c0-.857-.719-1.551-1.606-1.551-.886 0-1.592.694-1.592 1.55V10.35c0-.856-.728-1.55-1.611-1.55s-1.586.694-1.586 1.55V1.425C8.807.638 8.168 0 7.397 0c-.772 0-1.398.638-1.398 1.425v15.038l-3.603-4.659c-.346-.586-1.126-.779-1.742-.431-.617.348-.836 1.105-.49 1.691 0 0 2.817 4.369 3.967 6.093C5.281 20.882 7.17 23.01 7.17 24h7.989c0-1.672 2.443-4.283 2.443-6.798v-3.24l-.006-1.583z"/>
        <filter id="J" width="185.2%" height="162.5%" x="-42.6%" y="-18.8%" filterUnits="objectBoundingBox">
            <feMorphology in="SourceAlpha" operator="dilate" radius="1" result="shadowSpreadOuter1"/>
            <feOffset dy="1" in="shadowSpreadOuter1" result="shadowOffsetOuter1"/>
            <feGaussianBlur in="shadowOffsetOuter1" result="shadowBlurOuter1" stdDeviation=".5"/>
            <feComposite in="shadowBlurOuter1" in2="SourceAlpha" operator="out" result="shadowBlurOuter1"/>
            <feColorMatrix in="shadowBlurOuter1" result="shadowMatrixOuter1" values="0 0 0 0 0 0 0 0 0 0 0 0 0 0 0 0 0 0 0.582908741 0"/>
            <feMorphology in="SourceAlpha" operator="dilate" radius="1" result="shadowSpreadOuter2"/>
            <feOffset dy="2" in="shadowSpreadOuter2" result="shadowOffsetOuter2"/>
            <feGaussianBlur in="shadowOffsetOuter2" result="shadowBlurOuter2" stdDeviation="1.5"/>
            <feComposite in="shadowBlurOuter2" in2="SourceAlpha" operator="out" result="shadowBlurOuter2"/>
            <feColorMatrix in="shadowBlurOuter2" result="shadowMatrixOuter2" values="0 0 0 0 0 0 0 0 0 0 0 0 0 0 0 0 0 0 0.179347826 0"/>
            <feMerge>
                <feMergeNode in="shadowMatrixOuter1"/>
                <feMergeNode in="shadowMatrixOuter2"/>
            </feMerge>
        </filter>
        <path id="M" d="M6.132 11.269l4.71.26c.72-.08.899-.568.397-1.085L.592.3C.09-.216.027-.049.026.671L0 14.984c-.001.72.467.947 1.04.505l2.742-3.272c.095-.074.208-.146.327-.218l2.97 7.517c.165.41.664.595 1.113.413.449-.18.68-.66.514-1.07l-2.972-7.518.398-.073z"/>
        <filter id="L" width="230.2%" height="175%" x="-65.1%" y="-22.5%" filterUnits="objectBoundingBox">
            <feMorphology in="SourceAlpha" operator="dilate" radius="1" result="shadowSpreadOuter1"/>
            <feOffset dy="1" in="shadowSpreadOuter1" result="shadowOffsetOuter1"/>
            <feGaussianBlur in="shadowOffsetOuter1" result="shadowBlurOuter1" stdDeviation=".5"/>
            <feComposite in="shadowBlurOuter1" in2="SourceAlpha" operator="out" result="shadowBlurOuter1"/>
            <feColorMatrix in="shadowBlurOuter1" result="shadowMatrixOuter1" values="0 0 0 0 0 0 0 0 0 0 0 0 0 0 0 0 0 0 0.582908741 0"/>
            <feMorphology in="SourceAlpha" operator="dilate" radius="1" result="shadowSpreadOuter2"/>
            <feOffset dy="2" in="shadowSpreadOuter2" result="shadowOffsetOuter2"/>
            <feGaussianBlur in="shadowOffsetOuter2" result="shadowBlurOuter2" stdDeviation="1.5"/>
            <feComposite in="shadowBlurOuter2" in2="SourceAlpha" operator="out" result="shadowBlurOuter2"/>
            <feColorMatrix in="shadowBlurOuter2" result="shadowMatrixOuter2" values="0 0 0 0 0 0 0 0 0 0 0 0 0 0 0 0 0 0 0.179347826 0"/>
            <feMerge>
                <feMergeNode in="shadowMatrixOuter1"/>
                <feMergeNode in="shadowMatrixOuter2"/>
            </feMerge>
        </filter>
    </defs>
    <g fill="none" fill-rule="evenodd" transform="translate(0 1)">
        <text fill="#222" font-family="Lato-Bold, Lato" font-size="14" font-weight="bold" transform="translate(1 304)">
            <tspan x="0" y="13">ICON + TEXT</tspan>
        </text>
        <path stroke="#222" stroke-linecap="square" d="M190.484 327.5H1.516"/>
        <use fill="#F8F9FA" xlink:href="#a"/>
        <rect width="114" height="33" x="192.5" y="343.5" stroke="#A2A9B1" rx="2"/>
        <text fill="#222" font-family="Lato-Bold, Lato" font-size="14" font-weight="bold" transform="translate(1 440)">
            <tspan x="0" y="13">TEXT + SECONDARY TEXT</tspan>
        </text>
        <path stroke="#222" stroke-linecap="square" d="M190.484 463.5H1.516"/>
        <text fill="#72777D" font-family="Lato-Regular, Lato" font-size="14">
            <tspan x="0" y="21">DISABLED</tspan> <tspan x="0" y="77.4"> NORMAL</tspan> <tspan x="0" y="133.8">:HOVER</tspan> <tspan x="0" y="190.2">:ACTIVE</tspan> <tspan x="0" y="246.6">:FOCUS</tspan>
        </text>
        <path fill="#222" d="M219 370c5.523 0 10-4.477 10-10s-4.477-10-10-10-10 4.477-10 10 4.477 10 10 10z"/>
        <text fill="#222" font-family="HelveticaNeue-Bold, Helvetica Neue" font-size="16" font-weight="bold">
            <tspan x="238" y="365">Button</tspan>
        </text>
        <g stroke-linecap="square">
            <path stroke="#D0011B" d="M182.5 8.5v15m-1-15v15m-1-15v15m-1-15v15"/>
            <path stroke="#50E3C2" d="M181.5.5v7m1-7v7m-3-7v7m1-7v7m1 17v7m1-7v7m-3-7v7m1-7v7"/>
        </g>
        <path stroke="#50E3C2" stroke-linecap="square" d="M229.5 360.5h7m-7-1h7m-7 3h7m-7-1h7"/>
        <use fill="#36C" xlink:href="#b"/>
        <rect width="121" height="30" x="322" y="225" stroke="#FFF" stroke-width="2" rx="2"/>
        <rect width="124" height="33" x="320.5" y="223.5" stroke="#36C" rx="2"/>
        <rect width="122" height="31" x="321.5" y="224.5" stroke="#36C" rx="2"/>
        <g fill="#FFF">
            <use filter="url(#c)" xlink:href="#d"/>
            <use xlink:href="#d"/>
        </g>
        <use fill="#D11D13" xlink:href="#e"/>
        <rect width="118" height="30" x="485" y="225" stroke="#FFF" stroke-width="2" rx="2"/>
        <rect width="119" height="31" x="484.5" y="224.5" stroke="#D11D13" rx="2"/>
        <rect width="121" height="33" x="483.5" y="223.5" stroke="#D11D13" rx="2"/>
        <g fill="#FFF">
            <use filter="url(#f)" xlink:href="#g"/>
            <use xlink:href="#g"/>
        </g>
        <use fill="#2A4B8D" xlink:href="#h"/>
        <rect width="124" height="33" x="320.5" y="167.5" stroke="#2A4B8D" rx="2"/>
        <g fill="#FFF">
            <use filter="url(#i)" xlink:href="#j"/>
            <use xlink:href="#j"/>
        </g>
        <use fill="#951B19" xlink:href="#k"/>
        <rect width="121" height="33" x="483.5" y="167.5" stroke="#951B19" rx="2"/>
        <g fill="#FFF">
            <use filter="url(#l)" xlink:href="#m"/>
            <use xlink:href="#m"/>
        </g>
        <use fill="#447FF5" xlink:href="#n"/>
        <rect width="124" height="33" x="320.5" y="111.5" stroke="#447FF5" rx="2"/>
        <g fill="#FFF">
            <use filter="url(#o)" xlink:href="#p"/>
            <use xlink:href="#p"/>
        </g>
        <use fill="#B8211F" xlink:href="#q"/>
        <rect width="121" height="33" x="483.5" y="111.5" stroke="#B8211F" rx="2"/>
        <g fill="#FFF">
            <use filter="url(#r)" xlink:href="#s"/>
            <use xlink:href="#s"/>
        </g>
        <use fill="#36C" xlink:href="#t"/>
        <rect width="124" height="33" x="320.5" y="55.5" stroke="#36C" rx="2"/>
        <g fill="#FFF">
            <use filter="url(#u)" xlink:href="#v"/>
            <use xlink:href="#v"/>
        </g>
        <rect width="120" height="32" x="484" y="56" fill="#D33" rx="2"/>
        <g fill="#FFF">
            <use filter="url(#w)" xlink:href="#x"/>
            <use xlink:href="#x"/>
        </g>
        <use fill="#C8CCD1" xlink:href="#y"/>
        <rect width="124" height="33" x="320.5" y="-.5" stroke="#C8CCD1" rx="2"/>
        <text fill="#FFF" font-family="HelveticaNeue-Bold, Helvetica Neue" font-size="16" font-weight="bold">
            <tspan x="337" y="22">Progressive</tspan>
        </text>
        <use fill="#C8CCD1" xlink:href="#z"/>
        <rect width="121" height="33" x="483.5" y="-.5" stroke="#C8CCD1" rx="2"/>
        <text fill="#FFF" font-family="HelveticaNeue-Bold, Helvetica Neue" font-size="16" font-weight="bold">
            <tspan x="500" y="22">Destructive</tspan>
        </text>
        <use fill="#C8CCD1" xlink:href="#A"/>
        <rect width="89" height="33" x="192.5" y="-.5" stroke="#C8CCD1" rx="2"/>
        <path stroke="#D0011B" stroke-linecap="square" d="M193.5 14.5h15m-15 1h15m-15 1h15m-15 1h15"/>
        <path stroke="#D0011B" stroke-width="4" d="M193 360h16m81 0h16"/>
        <use fill="#36C" xlink:href="#B"/>
        <rect width="114" height="33" x="344.5" y="343.5" stroke="#36C" rx="2"/>
        <circle cx="372" cy="360" r="10" fill="#FFF"/>
        <text fill="#FFF" font-family="HelveticaNeue-Bold, Helvetica Neue" font-size="16" font-weight="bold">
            <tspan x="390.36" y="367">Button</tspan>
        </text>
        <use fill="#D11D13" xlink:href="#C"/>
        <rect width="114" height="33" x="496.5" y="343.5" stroke="#D11D13" rx="2"/>
        <circle cx="524" cy="360" r="10" fill="#FFF"/>
        <text fill="#FFF" font-family="HelveticaNeue-Bold, Helvetica Neue" font-size="16" font-weight="bold">
            <tspan x="542.36" y="367">Button</tspan>
        </text>
        <text fill="#FFF" font-family="HelveticaNeue-Bold, Helvetica Neue" font-size="16" font-weight="bold">
            <tspan x="209" y="22">Neutral</tspan>
        </text>
        <use fill="#F8F9FA" xlink:href="#D"/>
        <rect width="89" height="33" x="192.5" y="55.5" stroke="#A2A9B1" rx="2"/>
        <text fill="#222" font-family="HelveticaNeue-Bold, Helvetica Neue" font-size="16" font-weight="bold">
            <tspan x="209" y="72">Neutral</tspan>
        </text>
        <g transform="translate(193 480)">
            <use fill="#F8F9FA" xlink:href="#E"/>
            <rect width="148" height="55" x="-.5" y="-.5" stroke="#A2A9B1" rx="2"/>
        </g>
        <text fill="#222" font-family="HelveticaNeue-Bold, Helvetica Neue" font-size="14" font-weight="bold" transform="translate(193 480)">
            <tspan x="23.331" y="41">Secondary info</tspan>
        </text>
        <text fill="#222" font-family="HelveticaNeue-Bold, Helvetica Neue" font-size="16" font-weight="bold" transform="translate(193 480)">
            <tspan x="43" y="23">Neutral</tspan>
        </text>
        <use fill="#FFF" xlink:href="#F"/>
        <rect width="89" height="33" x="192.5" y="111.5" stroke="#A2A9B1" rx="2"/>
        <text fill="#222" font-family="HelveticaNeue-Bold, Helvetica Neue" font-size="16" font-weight="bold">
            <tspan x="209" y="134">Neutral</tspan>
        </text>
        <use fill="#EAECF0" xlink:href="#G"/>
        <rect width="89" height="33" x="192.5" y="167.5" stroke="#9AA0A7" rx="2"/>
        <text fill="#000" font-family="HelveticaNeue-Bold, Helvetica Neue" font-size="16" font-weight="bold">
            <tspan x="209" y="190">Neutral</tspan>
        </text>
        <g stroke="#36C">
            <rect width="89" height="33" x="192.5" y="223.5" rx="2"/>
            <rect width="87" height="31" x="193.5" y="224.5" rx="2"/>
        </g>
        <text fill="#222" font-family="HelveticaNeue-Bold, Helvetica Neue" font-size="16" font-weight="bold">
            <tspan x="209" y="240">Neutral</tspan>
        </text>
        <g transform="translate(260 186)">
            <use fill="#000" filter="url(#H)" xlink:href="#I"/>
            <use fill="#FFF" xlink:href="#I"/>
            <path stroke="#000" d="M18.095 12.378a1.69 1.69 0 0 0-1.697-1.682 1.7 1.7 0 0 0-.805.201 2.102 2.102 0 0 0-1.997-1.4c-.429 0-.827.126-1.159.342-.235-.887-1.067-1.54-2.044-1.54-.398 0-.77.11-1.086.298V1.425c0-1.06-.86-1.925-1.91-1.925-1.05 0-1.898.864-1.898 1.925V15L2.79 11.5c-.451-.773-1.533-1.041-2.383-.562-.856.484-1.165 1.55-.675 2.381l.199.309a1248.604 1248.604 0 0 0 2.036 3.143 341.137 341.137 0 0 0 1.747 2.665c.264.396.545.785 1.021 1.429l.08.106c1.38 1.861 1.853 2.609 1.853 3.03v.5h8.989V24c0-.556.155-.907 1.165-2.853.7-1.347 1.057-2.216 1.212-3.158a4.86 4.86 0 0 0 .066-.787v-3.24l-.006-1.584z"/>
        </g>
        <g transform="translate(261 130)">
            <use fill="#000" filter="url(#J)" xlink:href="#K"/>
            <use fill="#FFF" xlink:href="#K"/>
            <path stroke="#000" d="M18.095 12.378a1.69 1.69 0 0 0-1.697-1.682 1.7 1.7 0 0 0-.805.201 2.102 2.102 0 0 0-1.997-1.4c-.429 0-.827.126-1.159.342-.235-.887-1.067-1.54-2.044-1.54-.398 0-.77.11-1.086.298V1.425c0-1.06-.86-1.925-1.91-1.925-1.05 0-1.898.864-1.898 1.925V15L2.79 11.5c-.451-.773-1.533-1.041-2.383-.562-.856.484-1.165 1.55-.675 2.381l.199.309a1248.604 1248.604 0 0 0 2.036 3.143 341.137 341.137 0 0 0 1.747 2.665c.264.396.545.785 1.021 1.429l.08.106c1.38 1.861 1.853 2.609 1.853 3.03v.5h8.989V24c0-.556.155-.907 1.165-2.853.7-1.347 1.057-2.216 1.212-3.158a4.86 4.86 0 0 0 .066-.787v-3.24l-.006-1.584z"/>
        </g>
        <g transform="translate(267 23)">
            <use fill="#000" filter="url(#L)" xlink:href="#M"/>
            <use fill="#000" xlink:href="#M"/>
            <path stroke="#FFF" d="M6.448 11.787l4.367.242c1.214-.128 1.575-1.116.783-1.933L.937-.061C.49-.52.197-.699-.203-.359c-.244.208-.27.41-.271 1.028L-.5 14.984c-.002 1.138.945 1.597 1.846.902l.077-.075 2.483-2.963L6.614 19.7c.274.68 1.07.975 1.766.692.695-.28 1.062-1.045.789-1.72l-2.72-6.886z"/>
        </g>
    </g>
</svg>
