<?xml version="1.0" encoding="UTF-8"?>
<svg xmlns="http://www.w3.org/2000/svg" xmlns:xlink="http://www.w3.org/1999/xlink" width="605" height="699" viewBox="0 0 605 699">
	<defs>
		<text id="quiet_buttons-b" fill="#FFF" font-family="HelveticaNeue-Bold, Helvetica Neue" font-size="16" font-weight="bold">
			<tspan x="158.452" y="190">Progressive</tspan>
		</text>
		<filter id="quiet_buttons-a" width="101.1%" height="115.8%" x="-.5%" y="-2.6%" filterUnits="objectBoundingBox">
			<feOffset dy="1" in="SourceAlpha" result="shadowOffsetOuter1"/>
			<feColorMatrix in="shadowOffsetOuter1" values="0 0 0 0 0 0 0 0 0 0 0 0 0 0 0 0 0 0 0.1 0"/>
		</filter>
		<text id="quiet_buttons-d" fill="#FFF" font-family="HelveticaNeue-Bold, Helvetica Neue" font-size="16" font-weight="bold">
			<tspan x="321.288" y="190">Destructive</tspan>
		</text>
		<filter id="quiet_buttons-c" width="101.1%" height="115.8%" x="-.6%" y="-2.6%" filterUnits="objectBoundingBox">
			<feOffset dy="1" in="SourceAlpha" result="shadowOffsetOuter1"/>
			<feColorMatrix in="shadowOffsetOuter1" values="0 0 0 0 0 0 0 0 0 0 0 0 0 0 0 0 0 0 0.1 0"/>
		</filter>
		<path id="quiet_buttons-f" d="M17.595 12.379a1.19 1.19 0 0 0-1.197-1.183 1.19 1.19 0 0 0-1.196 1.179v-.826c0-.857-.719-1.551-1.606-1.551-.886 0-1.592.694-1.592 1.55V10.35c0-.856-.728-1.55-1.611-1.55s-1.586.694-1.586 1.55V1.425C8.807.638 8.168 0 7.397 0c-.772 0-1.398.638-1.398 1.425v15.038l-3.603-4.659c-.346-.586-1.126-.779-1.742-.431-.617.348-.836 1.105-.49 1.691 0 0 2.817 4.369 3.967 6.093C5.281 20.882 7.17 23.01 7.17 24h7.989c0-1.672 2.443-4.283 2.443-6.798v-3.24l-.006-1.583z"/>
		<filter id="quiet_buttons-e" width="185.2%" height="162.5%" x="-42.6%" y="-18.8%" filterUnits="objectBoundingBox">
			<feMorphology in="SourceAlpha" operator="dilate" radius="1" result="shadowSpreadOuter1"/>
			<feOffset dy="1" in="shadowSpreadOuter1" result="shadowOffsetOuter1"/>
			<feGaussianBlur in="shadowOffsetOuter1" result="shadowBlurOuter1" stdDeviation=".5"/>
			<feComposite in="shadowBlurOuter1" in2="SourceAlpha" operator="out" result="shadowBlurOuter1"/>
			<feColorMatrix in="shadowBlurOuter1" result="shadowMatrixOuter1" values="0 0 0 0 0 0 0 0 0 0 0 0 0 0 0 0 0 0 0.582908741 0"/>
			<feMorphology in="SourceAlpha" operator="dilate" radius="1" result="shadowSpreadOuter2"/>
			<feOffset dy="2" in="shadowSpreadOuter2" result="shadowOffsetOuter2"/>
			<feGaussianBlur in="shadowOffsetOuter2" result="shadowBlurOuter2" stdDeviation="1.5"/>
			<feComposite in="shadowBlurOuter2" in2="SourceAlpha" operator="out" result="shadowBlurOuter2"/>
			<feColorMatrix in="shadowBlurOuter2" result="shadowMatrixOuter2" values="0 0 0 0 0 0 0 0 0 0 0 0 0 0 0 0 0 0 0.179347826 0"/>
			<feMerge>
				<feMergeNode in="shadowMatrixOuter1"/>
				<feMergeNode in="shadowMatrixOuter2"/>
			</feMerge>
		</filter>
		<path id="quiet_buttons-h" d="M17.595 12.379a1.19 1.19 0 0 0-1.197-1.183 1.19 1.19 0 0 0-1.196 1.179v-.826c0-.857-.719-1.551-1.606-1.551-.886 0-1.592.694-1.592 1.55V10.35c0-.856-.728-1.55-1.611-1.55s-1.586.694-1.586 1.55V1.425C8.807.638 8.168 0 7.397 0c-.772 0-1.398.638-1.398 1.425v15.038l-3.603-4.659c-.346-.586-1.126-.779-1.742-.431-.617.348-.836 1.105-.49 1.691 0 0 2.817 4.369 3.967 6.093C5.281 20.882 7.17 23.01 7.17 24h7.989c0-1.672 2.443-4.283 2.443-6.798v-3.24l-.006-1.583z"/>
		<filter id="quiet_buttons-g" width="185.2%" height="162.5%" x="-42.6%" y="-18.8%" filterUnits="objectBoundingBox">
			<feMorphology in="SourceAlpha" operator="dilate" radius="1" result="shadowSpreadOuter1"/>
			<feOffset dy="1" in="shadowSpreadOuter1" result="shadowOffsetOuter1"/>
			<feGaussianBlur in="shadowOffsetOuter1" result="shadowBlurOuter1" stdDeviation=".5"/>
			<feComposite in="shadowBlurOuter1" in2="SourceAlpha" operator="out" result="shadowBlurOuter1"/>
			<feColorMatrix in="shadowBlurOuter1" result="shadowMatrixOuter1" values="0 0 0 0 0 0 0 0 0 0 0 0 0 0 0 0 0 0 0.582908741 0"/>
			<feMorphology in="SourceAlpha" operator="dilate" radius="1" result="shadowSpreadOuter2"/>
			<feOffset dy="2" in="shadowSpreadOuter2" result="shadowOffsetOuter2"/>
			<feGaussianBlur in="shadowOffsetOuter2" result="shadowBlurOuter2" stdDeviation="1.5"/>
			<feComposite in="shadowBlurOuter2" in2="SourceAlpha" operator="out" result="shadowBlurOuter2"/>
			<feColorMatrix in="shadowBlurOuter2" result="shadowMatrixOuter2" values="0 0 0 0 0 0 0 0 0 0 0 0 0 0 0 0 0 0 0.179347826 0"/>
			<feMerge>
				<feMergeNode in="shadowMatrixOuter1"/>
				<feMergeNode in="shadowMatrixOuter2"/>
			</feMerge>
		</filter>
		<path id="quiet_buttons-j" d="M6.132 11.269l4.71.26c.72-.08.899-.568.397-1.085L.592.3C.09-.216.027-.049.026.671L0 14.984c-.001.72.467.947 1.04.505l2.742-3.272c.095-.074.208-.146.327-.218l2.97 7.517c.165.41.664.595 1.113.413.449-.18.68-.66.514-1.07l-2.972-7.518.398-.073z"/>
		<filter id="quiet_buttons-i" width="230.2%" height="175%" x="-65.1%" y="-22.5%" filterUnits="objectBoundingBox">
			<feMorphology in="SourceAlpha" operator="dilate" radius="1" result="shadowSpreadOuter1"/>
			<feOffset dy="1" in="shadowSpreadOuter1" result="shadowOffsetOuter1"/>
			<feGaussianBlur in="shadowOffsetOuter1" result="shadowBlurOuter1" stdDeviation=".5"/>
			<feComposite in="shadowBlurOuter1" in2="SourceAlpha" operator="out" result="shadowBlurOuter1"/>
			<feColorMatrix in="shadowBlurOuter1" result="shadowMatrixOuter1" values="0 0 0 0 0 0 0 0 0 0 0 0 0 0 0 0 0 0 0.582908741 0"/>
			<feMorphology in="SourceAlpha" operator="dilate" radius="1" result="shadowSpreadOuter2"/>
			<feOffset dy="2" in="shadowSpreadOuter2" result="shadowOffsetOuter2"/>
			<feGaussianBlur in="shadowOffsetOuter2" result="shadowBlurOuter2" stdDeviation="1.5"/>
			<feComposite in="shadowBlurOuter2" in2="SourceAlpha" operator="out" result="shadowBlurOuter2"/>
			<feColorMatrix in="shadowBlurOuter2" result="shadowMatrixOuter2" values="0 0 0 0 0 0 0 0 0 0 0 0 0 0 0 0 0 0 0.179347826 0"/>
			<feMerge>
				<feMergeNode in="shadowMatrixOuter1"/>
				<feMergeNode in="shadowMatrixOuter2"/>
			</feMerge>
		</filter>
	</defs>
	<g fill="none" fill-rule="evenodd">
		<path fill="#FFF" d="M-2560-255h14720v3264H-2560z"/>
		<g transform="translate(0 385)">
			<circle cx="231" cy="-25" r="10" fill="#222"/>
			<text fill="#222" font-family="HelveticaNeue-Bold, Helvetica Neue" font-size="16" font-weight="bold">
				<tspan x="248.36" y="-19">Button</tspan>
			</text>
			<path stroke="#50E3C2" stroke-width="4" d="M241-25h8"/>
			<path stroke="#D0021B" stroke-width="4" d="M205-25h16m78 0h16"/>
			<text fill="#222" font-family="Lato-Bold, Lato" font-size="14" font-weight="bold" transform="translate(0 -80)">
				<tspan x="0" y="13">ICON + TEXT</tspan>
			</text>
			<path stroke="#222" stroke-linecap="square" d="M189.484-56.5H.516"/>
		</g>
		<g transform="translate(178 1)">
			<rect width="121" height="30" x="143" y="225" fill="#36C" stroke="#FFF" stroke-linejoin="square" stroke-width="2" rx="2"/>
			<rect width="124" height="33" x="141.5" y="223.5" stroke="#36C" rx="2"/>
			<rect width="122" height="31" x="142.5" y="224.5" stroke="#36C" stroke-linejoin="square" rx="2"/>
			<text fill="#FFF" font-family="HelveticaNeue-Bold, Helvetica Neue" font-size="16" font-weight="bold">
				<tspan x="158.452" y="246">Progressive</tspan>
			</text>
			<rect width="118" height="30" x="307" y="225" fill="#D11D13" stroke="#FFF" stroke-linejoin="square" stroke-width="2" rx="2"/>
			<rect width="119" height="31" x="306.5" y="224.5" stroke="#D11D13" stroke-linejoin="square" rx="2"/>
			<rect width="121" height="33" x="305.5" y="223.5" stroke="#D11D13" rx="2"/>
			<text fill="#FFF" font-family="HelveticaNeue-Bold, Helvetica Neue" font-size="16" font-weight="bold">
				<tspan x="321.288" y="246">Destructive</tspan>
			</text>
			<rect width="124" height="33" x="141.5" y="167.5" fill="#1F4999" stroke="#1F4999" rx="2"/>
			<g fill="#FFF">
				<use filter="url(#quiet_buttons-a)" xlink:href="#quiet_buttons-b"/>
				<use xlink:href="#quiet_buttons-b"/>
			</g>
			<rect width="121" height="33" x="305.5" y="167.5" fill="#D11D13" stroke="#D11D13" rx="2"/>
			<g fill="#FFF">
				<use filter="url(#quiet_buttons-c)" xlink:href="#quiet_buttons-d"/>
				<use xlink:href="#quiet_buttons-d"/>
			</g>
			<rect width="124" height="33" x="141.5" y="111.5" fill="#347BFF" stroke="#347BFF" opacity=".2" rx="2"/>
			<text fill="#347BFF" font-family="HelveticaNeue-Bold, Helvetica Neue" font-size="16" font-weight="bold">
				<tspan x="158.452" y="134">Progressive</tspan>
			</text>
			<rect width="120" height="32" x="305" y="112" fill="#D11D13" opacity=".2" rx="2"/>
			<text fill="#D11D13" font-family="HelveticaNeue-Bold, Helvetica Neue" font-size="16" font-weight="bold">
				<tspan x="321" y="135">Destructive</tspan>
			</text>
			<text fill="#36C" font-family="HelveticaNeue-Bold, Helvetica Neue" font-size="16" font-weight="bold">
				<tspan x="158.452" y="78">Progressive</tspan>
			</text>
			<text fill="#D11D13" font-family="HelveticaNeue-Bold, Helvetica Neue" font-size="16" font-weight="bold">
				<tspan x="321.288" y="78">Destructive</tspan>
			</text>
			<text fill="#72777D" font-family="HelveticaNeue-Bold, Helvetica Neue" font-size="16" font-weight="bold">
				<tspan x="158" y="22">Progressive</tspan>
			</text>
			<text fill="#72777D" font-family="HelveticaNeue-Bold, Helvetica Neue" font-size="16" font-weight="bold">
				<tspan x="321" y="22">Destructive</tspan>
			</text>
			<text fill="#72777D" font-family="HelveticaNeue-Bold, Helvetica Neue" font-size="16" font-weight="bold">
				<tspan x="30" y="22">Neutral</tspan>
			</text>
			<path stroke="#D0021B" stroke-linecap="square" d="M86.5 15.5h15m-15 1h15m-15 1h15m-15 1h15"/>
			<text fill="#222" font-family="HelveticaNeue-Bold, Helvetica Neue" font-size="16" font-weight="bold">
				<tspan x="30.152" y="78">Neutral</tspan>
			</text>
			<rect width="88" height="32" x="14" y="112" rx="2"/>
			<text fill="#222" font-family="HelveticaNeue-Bold, Helvetica Neue" font-size="16" font-weight="bold">
				<tspan x="30.152" y="134">Neutral</tspan>
			</text>
			<rect width="89" height="33" x="13.5" y="167.5" fill="#EAECF0" stroke="#72777D" rx="2"/>
			<text fill="#000" font-family="HelveticaNeue-Bold, Helvetica Neue" font-size="16" font-weight="bold">
				<tspan x="29" y="190">Neutral</tspan>
			</text>
			<g stroke="#36C">
				<rect width="89" height="33" x="13.5" y="223.5" rx="2"/>
				<rect width="87" height="31" x="14.5" y="224.5" stroke-linejoin="square" rx="2"/>
			</g>
			<text fill="#222" font-family="HelveticaNeue-Bold, Helvetica Neue" font-size="16" font-weight="bold">
				<tspan x="30.152" y="246">Neutral</tspan>
			</text>
			<g stroke-linecap="square">
				<path stroke="#D0021B" d="M.5 79.5v-15m1 15v-15m1 15v-15m1 15v-15"/>
				<path stroke="#50E3C2" d="M1.5 87.5v-7m-1 7v-7m3 7v-7m-1 7v-7m-1-17v-7m-1 7v-7m3 7v-7m-1 7v-7"/>
			</g>
			<g stroke-linecap="square">
				<path stroke="#D0021B" d="M.5 135.5v-15m1 15v-15m1 15v-15m1 15v-15"/>
				<path stroke="#50E3C2" d="M1.5 143.5v-7m-1 7v-7m3 7v-7m-1 7v-7m-1-17v-7m-1 7v-7m3 7v-7m-1 7v-7"/>
			</g>
			<g stroke-linecap="square">
				<path stroke="#D0021B" d="M.5 23.5v-15m1 15v-15m1 15v-15m1 15v-15"/>
				<path stroke="#50E3C2" d="M1.5 31.5v-7m-1 7v-7m3 7v-7m-1 7v-7m-1-17v-7m-1 7v-7m3 7v-7m-1 7v-7"/>
			</g>
			<path stroke="#D0021B" stroke-linecap="square" d="M14.5 15.5h15m-15 1h15m-15 1h15m-15 1h15"/>
		</g>
		<g transform="translate(0 413)">
			<text fill="#72777D" font-family="Lato-Regular, Lato" font-size="14">
				<tspan x="7" y="58.2"> DISABLED</tspan> <tspan x="7" y="114.6"> NORMAL</tspan> <tspan x="7" y="171">:HOVER</tspan> <tspan x="7" y="227.4">:ACTIVE</tspan> <tspan x="7" y="283.8">:FOCUS</tspan>
			</text>
			<rect width="36" height="32" x="261" y="145" fill="#EEE" rx="2" transform="matrix(1 0 0 -1 0 322)"/>
			<path stroke="#50E3C2" stroke-linecap="square" stroke-width="2" d="M262 161h7m20 0h7"/>
			<path fill="#4A90E2" fill-rule="nonzero" d="M304.99 150.43l-7.998.14-.5.009.017 1 .5-.01 8-.139.499-.009-.017-1-.5.01zm-7.632 21.137l8-.14.5-.009-.018-1-.5.01-8 .139-.499.009.017 1 .5-.01zm3.142-20.558l.35 19.997.008.5 1-.018-.009-.5-.35-19.997-.008-.5-1 .018.01.5z"/>
			<path fill="#4A90E2" fill-rule="nonzero" d="M306.99 144.43l-7.998.14-.5.009.017 1 .5-.01 8-.139.499-.009-.017-1-.5.01zm-7.422 33.135l7.999-.14.5-.008-.018-1-.5.008-7.999.14-.5.009.018 1 .5-.01zm2.932-32.556l.559 31.995.008.5 1-.018-.009-.5-.558-31.995-.009-.5-1 .018.01.5z"/>
			<rect width="20" height="20" x="269" y="151" fill="#222" rx="10"/>
			<text fill="#222" font-family="Helvetica" font-size="12">
				<tspan x="314" y="160">20px x 20px icon</tspan> <tspan x="314" y="171">vertical align: middle</tspan>
			</text>
			<path fill="#7D8389" d="M228 55.5c0-.625-.25-1.25-.75-1.75s-1.125-.75-1.75-.75-1.25.25-1.75.75-.75 1.125-.75 1.75.25 1.25.75 1.75 1 .75 1.75.75c.625 0 1.25-.25 1.75-.75s.75-1 .75-1.75zm7.5 0c0-.625-.25-1.25-.75-1.75S233.625 53 233 53s-1.25.25-1.75.75-.75 1.125-.75 1.75.25 1.25.75 1.75 1 .75 1.75.75c.625 0 1.25-.25 1.75-.75s.75-1 .75-1.75zm7.5 0c0-.625-.25-1.25-.75-1.75s-1.125-.75-1.75-.75-1.25.25-1.75.75-.75 1.125-.75 1.75.25 1.25.75 1.75 1 .75 1.75.75c.625 0 1.25-.25 1.75-.75s.75-1 .75-1.75z"/>
			<path fill="#222" d="M235.462 103.222c0 .666-.227 1.11-.68 1.555a2.258 2.258 0 0 1-1.586.667c-.68 0-1.133-.222-1.586-.667-.453-.444-.68-1-.68-1.555 0-.556.227-1.111.68-1.556a2.258 2.258 0 0 1 1.586-.666c.567 0 1.133.222 1.586.666.453.445.68 1 .68 1.556zm-7.538 0c0 .666-.227 1.11-.68 1.555a2.258 2.258 0 0 1-1.586.667c-.68 0-1.133-.222-1.586-.667-.453-.444-.68-1-.68-1.555 0-.556.227-1.111.68-1.556a2.258 2.258 0 0 1 1.586-.666 2.26 2.26 0 0 1 1.586.666c.453.445.68 1 .68 1.556zm14.335 0c0 .666-.226 1.11-.68 1.555a2.258 2.258 0 0 1-1.586.667c-.68 0-1.132-.222-1.586-.667-.453-.444-.68-1-.68-1.555 0-.556.227-1.111.68-1.556a2.258 2.258 0 0 1 1.586-.666c.567 0 1.133.222 1.587.666.453.445.68 1 .68 1.556z"/>
			<rect width="36" height="32" x="215" y="145" fill="#EEE" rx="2" transform="matrix(1 0 0 -1 0 322)"/>
			<path stroke="#50E3C2" stroke-linecap="square" stroke-width="2" d="M243 161h7m-34 0h7"/>
			<path fill="#222" d="M235.462 161.222c0 .666-.227 1.11-.68 1.555a2.258 2.258 0 0 1-1.586.667c-.68 0-1.133-.222-1.586-.667-.453-.444-.68-1-.68-1.555 0-.556.227-1.111.68-1.556a2.258 2.258 0 0 1 1.586-.666c.567 0 1.133.222 1.586.666.453.445.68 1 .68 1.556zm-7.538 0c0 .666-.227 1.11-.68 1.555a2.258 2.258 0 0 1-1.586.667c-.68 0-1.133-.222-1.586-.667-.453-.444-.68-1-.68-1.555 0-.556.227-1.111.68-1.556a2.258 2.258 0 0 1 1.586-.666 2.26 2.26 0 0 1 1.586.666c.453.445.68 1 .68 1.556zm14.335 0c0 .666-.226 1.11-.68 1.555a2.258 2.258 0 0 1-1.586.667c-.68 0-1.132-.222-1.586-.667-.453-.444-.68-1-.68-1.555 0-.556.227-1.111.68-1.556a2.258 2.258 0 0 1 1.586-.666c.567 0 1.133.222 1.587.666.453.445.68 1 .68 1.556z"/>
			<rect width="37" height="33" x="214.5" y="193.5" fill="#D9D9D9" stroke="#D9D9D9" rx="2" transform="matrix(1 0 0 -1 0 420)"/>
			<path fill="#222" d="M235.462 210.222c0 .666-.227 1.11-.68 1.555a2.258 2.258 0 0 1-1.586.667c-.68 0-1.133-.222-1.586-.667-.453-.444-.68-1-.68-1.555 0-.556.227-1.111.68-1.556a2.258 2.258 0 0 1 1.586-.666c.567 0 1.133.222 1.586.666.453.445.68 1 .68 1.556zm-7.538 0c0 .666-.227 1.11-.68 1.555a2.258 2.258 0 0 1-1.586.667c-.68 0-1.133-.222-1.586-.667-.453-.444-.68-1-.68-1.555 0-.556.227-1.111.68-1.556a2.258 2.258 0 0 1 1.586-.666 2.26 2.26 0 0 1 1.586.666c.453.445.68 1 .68 1.556zm14.335 0c0 .666-.226 1.11-.68 1.555a2.258 2.258 0 0 1-1.586.667c-.68 0-1.132-.222-1.586-.667-.453-.444-.68-1-.68-1.555 0-.556.227-1.111.68-1.556a2.258 2.258 0 0 1 1.586-.666c.567 0 1.133.222 1.587.666.453.445.68 1 .68 1.556z"/>
			<g stroke="#36C">
				<rect width="37" height="33" x="214.5" y="244.5" rx="2"/>
				<rect width="35" height="31" x="215.5" y="245.5" stroke-linejoin="square" rx="2"/>
			</g>
			<path fill="#222" d="M235.462 261.222c0 .666-.227 1.11-.68 1.555a2.258 2.258 0 0 1-1.586.667c-.68 0-1.133-.222-1.586-.667-.453-.444-.68-1-.68-1.555 0-.556.227-1.111.68-1.556a2.258 2.258 0 0 1 1.586-.666c.567 0 1.133.222 1.586.666.453.445.68 1 .68 1.556zm-7.538 0c0 .666-.227 1.11-.68 1.555a2.258 2.258 0 0 1-1.586.667c-.68 0-1.133-.222-1.586-.667-.453-.444-.68-1-.68-1.555 0-.556.227-1.111.68-1.556a2.258 2.258 0 0 1 1.586-.666 2.26 2.26 0 0 1 1.586.666c.453.445.68 1 .68 1.556zm14.335 0c0 .666-.226 1.11-.68 1.555a2.258 2.258 0 0 1-1.586.667c-.68 0-1.132-.222-1.586-.667-.453-.444-.68-1-.68-1.555 0-.556.227-1.111.68-1.556a2.258 2.258 0 0 1 1.586-.666c.567 0 1.133.222 1.587.666.453.445.68 1 .68 1.556z"/>
			<text fill="#222" font-family="Lato-Bold, Lato" font-size="14" font-weight="bold">
				<tspan x="0" y="13">ICON</tspan>
			</text>
			<path stroke="#222" stroke-linecap="square" d="M189.484 23.5H.516"/>
		</g>
		<g transform="translate(257 131)">
			<use fill="#000" filter="url(#quiet_buttons-e)" xlink:href="#quiet_buttons-f"/>
			<path fill="#FFF" stroke="#000" d="M18.095 12.378l.006 1.585v3.239c0 .257-.022.519-.066.787-.155.942-.512 1.811-1.212 3.158-1.01 1.946-1.165 2.297-1.165 2.853v.5h-8.99V24c0-.421-.472-1.169-1.853-3.03l-.079-.106a34.473 34.473 0 0 1-1.02-1.43c-.39-.583-.991-1.5-1.748-2.664l-.027-.043a1115.225 1115.225 0 0 1-2.009-3.1l-.199-.309c-.49-.83-.181-1.897.675-2.38.85-.48 1.932-.212 2.383.56L5.5 15V1.425C5.499.365 6.346-.5 7.396-.5c1.052 0 1.91.865 1.91 1.925v7.172a2.116 2.116 0 0 1 1.087-.298c.977 0 1.809.653 2.044 1.54.332-.216.73-.341 1.16-.341.926 0 1.716.584 1.996 1.399a1.7 1.7 0 0 1 .805-.201 1.69 1.69 0 0 1 1.697 1.682z"/>
		</g>
		<g transform="translate(256 187)">
			<use fill="#000" filter="url(#quiet_buttons-g)" xlink:href="#quiet_buttons-h"/>
			<path fill="#FFF" stroke="#000" d="M18.095 12.378l.006 1.585v3.239c0 .257-.022.519-.066.787-.155.942-.512 1.811-1.212 3.158-1.01 1.946-1.165 2.297-1.165 2.853v.5h-8.99V24c0-.421-.472-1.169-1.853-3.03l-.079-.106a34.473 34.473 0 0 1-1.02-1.43c-.39-.583-.991-1.5-1.748-2.664l-.027-.043a1115.225 1115.225 0 0 1-2.009-3.1l-.199-.309c-.49-.83-.181-1.897.675-2.38.85-.48 1.932-.212 2.383.56L5.5 15V1.425C5.499.365 6.346-.5 7.396-.5c1.052 0 1.91.865 1.91 1.925v7.172a2.116 2.116 0 0 1 1.087-.298c.977 0 1.809.653 2.044 1.54.332-.216.73-.341 1.16-.341.926 0 1.716.584 1.996 1.399a1.7 1.7 0 0 1 .805-.201 1.69 1.69 0 0 1 1.697 1.682z"/>
		</g>
		<g fill="#000" transform="translate(263 24)">
			<use filter="url(#quiet_buttons-i)" xlink:href="#quiet_buttons-j"/>
			<path stroke="#FFF" d="M6.448 11.787l2.721 6.886c.273.675-.094 1.44-.79 1.72-.696.283-1.491-.013-1.765-.692l-2.708-6.853-2.483 2.963-.077.075c-.901.695-1.848.236-1.846-.902L-.474.669c0-.618.027-.82.271-1.028.4-.34.694-.163 1.14.298l10.66 10.157c.793.817.432 1.805-.782 1.933l-4.367-.242z"/>
		</g>
		<text fill="#72777D" font-family="Lato-Regular, Lato" font-size="14" transform="translate(-2 1)">
			<tspan x="0" y="21"> DISABLED</tspan> <tspan x="0" y="77.4"> NORMAL</tspan> <tspan x="0" y="133.8">:HOVER</tspan> <tspan x="0" y="190.2">:ACTIVE</tspan> <tspan x="0" y="246.6">:FOCUS</tspan>
		</text>
	</g>
</svg>
