<?xml version="1.0" encoding="UTF-8" standalone="no"?><svg width="605px" height="699px" viewBox="0 0 605 699" xmlns="http://www.w3.org/2000/svg" xmlns:xlink="http://www.w3.org/1999/xlink"><defs><rect id="a" x="142" y="224" width="123" height="32" rx="2"/><rect id="b" x="306" y="224" width="120" height="32" rx="2"/><rect id="c" x="142" y="168" width="123" height="32" rx="2"/><text id="e" font-family="HelveticaNeue-Bold, Helvetica Neue" font-size="16" font-weight="bold" fill="#FFF"><tspan x="158.452" y="190">Progressive</tspan></text><filter x="-0.5%" y="-2.6%" width="101.1%" height="110.5%" filterUnits="objectBoundingBox" id="d"><feOffset dy="1" in="SourceAlpha" result="shadowOffsetOuter1"/><feColorMatrix values="0 0 0 0 0 0 0 0 0 0 0 0 0 0 0 0 0 0 0.1 0" in="shadowOffsetOuter1"/></filter><rect id="f" x="306" y="168" width="120" height="32" rx="2"/><text id="h" font-family="HelveticaNeue-Bold, Helvetica Neue" font-size="16" font-weight="bold" fill="#FFF"><tspan x="321.288" y="190">Destructive</tspan></text><filter x="-0.6%" y="-2.6%" width="101.1%" height="110.5%" filterUnits="objectBoundingBox" id="g"><feOffset dy="1" in="SourceAlpha" result="shadowOffsetOuter1"/><feColorMatrix values="0 0 0 0 0 0 0 0 0 0 0 0 0 0 0 0 0 0 0.1 0" in="shadowOffsetOuter1"/></filter><rect id="i" x="142" y="112" width="123" height="32" rx="2"/><rect id="j" x="14" y="168" width="88" height="32" rx="2"/><rect id="k" x="215" y="194" width="36" height="32" rx="2"/><path d="M17.595 12.379a1.19 1.19 0 0 0-1.197-1.183 1.19 1.19 0 0 0-1.196 1.179v-.826c0-.857-.719-1.551-1.606-1.551-.886 0-1.592.694-1.592 1.55V10.35c0-.856-.728-1.55-1.611-1.55s-1.586.694-1.586 1.55V1.425C8.807.638 8.168 0 7.397 0c-.772 0-1.398.638-1.398 1.425v15.038l-3.603-4.659c-.346-.586-1.126-.779-1.742-.431-.617.348-.836 1.105-.49 1.691 0 0 2.817 4.369 3.967 6.093C5.281 20.882 7.17 23.01 7.17 24h7.989c0-1.672 2.443-4.283 2.443-6.798v-3.24l-.006-1.583z" id="m"/><filter x="-42.6%" y="-18.8%" width="185.2%" height="162.5%" filterUnits="objectBoundingBox" id="l"><feMorphology radius="1" operator="dilate" in="SourceAlpha" result="shadowSpreadOuter1"/><feOffset dy="1" in="shadowSpreadOuter1" result="shadowOffsetOuter1"/><feGaussianBlur stdDeviation="0.5" in="shadowOffsetOuter1" result="shadowBlurOuter1"/><feComposite in="shadowBlurOuter1" in2="SourceAlpha" operator="out" result="shadowBlurOuter1"/><feColorMatrix values="0 0 0 0 0 0 0 0 0 0 0 0 0 0 0 0 0 0 0.582908741 0" in="shadowBlurOuter1" result="shadowMatrixOuter1"/><feMorphology radius="1" operator="dilate" in="SourceAlpha" result="shadowSpreadOuter2"/><feOffset dy="2" in="shadowSpreadOuter2" result="shadowOffsetOuter2"/><feGaussianBlur stdDeviation="1.5" in="shadowOffsetOuter2" result="shadowBlurOuter2"/><feComposite in="shadowBlurOuter2" in2="SourceAlpha" operator="out" result="shadowBlurOuter2"/><feColorMatrix values="0 0 0 0 0 0 0 0 0 0 0 0 0 0 0 0 0 0 0.179347826 0" in="shadowBlurOuter2" result="shadowMatrixOuter2"/><feMerge><feMergeNode in="shadowMatrixOuter1"/><feMergeNode in="shadowMatrixOuter2"/></feMerge></filter><path d="M17.595 12.379a1.19 1.19 0 0 0-1.197-1.183 1.19 1.19 0 0 0-1.196 1.179v-.826c0-.857-.719-1.551-1.606-1.551-.886 0-1.592.694-1.592 1.55V10.35c0-.856-.728-1.55-1.611-1.55s-1.586.694-1.586 1.55V1.425C8.807.638 8.168 0 7.397 0c-.772 0-1.398.638-1.398 1.425v15.038l-3.603-4.659c-.346-.586-1.126-.779-1.742-.431-.617.348-.836 1.105-.49 1.691 0 0 2.817 4.369 3.967 6.093C5.281 20.882 7.17 23.01 7.17 24h7.989c0-1.672 2.443-4.283 2.443-6.798v-3.24l-.006-1.583z" id="o"/><filter x="-42.6%" y="-18.8%" width="185.2%" height="162.5%" filterUnits="objectBoundingBox" id="n"><feMorphology radius="1" operator="dilate" in="SourceAlpha" result="shadowSpreadOuter1"/><feOffset dy="1" in="shadowSpreadOuter1" result="shadowOffsetOuter1"/><feGaussianBlur stdDeviation="0.5" in="shadowOffsetOuter1" result="shadowBlurOuter1"/><feComposite in="shadowBlurOuter1" in2="SourceAlpha" operator="out" result="shadowBlurOuter1"/><feColorMatrix values="0 0 0 0 0 0 0 0 0 0 0 0 0 0 0 0 0 0 0.582908741 0" in="shadowBlurOuter1" result="shadowMatrixOuter1"/><feMorphology radius="1" operator="dilate" in="SourceAlpha" result="shadowSpreadOuter2"/><feOffset dy="2" in="shadowSpreadOuter2" result="shadowOffsetOuter2"/><feGaussianBlur stdDeviation="1.5" in="shadowOffsetOuter2" result="shadowBlurOuter2"/><feComposite in="shadowBlurOuter2" in2="SourceAlpha" operator="out" result="shadowBlurOuter2"/><feColorMatrix values="0 0 0 0 0 0 0 0 0 0 0 0 0 0 0 0 0 0 0.179347826 0" in="shadowBlurOuter2" result="shadowMatrixOuter2"/><feMerge><feMergeNode in="shadowMatrixOuter1"/><feMergeNode in="shadowMatrixOuter2"/></feMerge></filter><path d="M6.132 11.269l4.71.26c.72-.08.899-.568.397-1.085L.592.3C.09-.216.027-.049.026.671L0 14.984c-.001.72.467.947 1.04.505l2.742-3.272c.095-.074.208-.146.327-.218l2.97 7.517c.165.41.664.595 1.113.413.449-.18.68-.66.514-1.07l-2.972-7.518.398-.073z" id="q"/><filter x="-65.1%" y="-22.5%" width="230.2%" height="175.0%" filterUnits="objectBoundingBox" id="p"><feMorphology radius="1" operator="dilate" in="SourceAlpha" result="shadowSpreadOuter1"/><feOffset dy="1" in="shadowSpreadOuter1" result="shadowOffsetOuter1"/><feGaussianBlur stdDeviation="0.5" in="shadowOffsetOuter1" result="shadowBlurOuter1"/><feComposite in="shadowBlurOuter1" in2="SourceAlpha" operator="out" result="shadowBlurOuter1"/><feColorMatrix values="0 0 0 0 0 0 0 0 0 0 0 0 0 0 0 0 0 0 0.582908741 0" in="shadowBlurOuter1" result="shadowMatrixOuter1"/><feMorphology radius="1" operator="dilate" in="SourceAlpha" result="shadowSpreadOuter2"/><feOffset dy="2" in="shadowSpreadOuter2" result="shadowOffsetOuter2"/><feGaussianBlur stdDeviation="1.5" in="shadowOffsetOuter2" result="shadowBlurOuter2"/><feComposite in="shadowBlurOuter2" in2="SourceAlpha" operator="out" result="shadowBlurOuter2"/><feColorMatrix values="0 0 0 0 0 0 0 0 0 0 0 0 0 0 0 0 0 0 0.179347826 0" in="shadowBlurOuter2" result="shadowMatrixOuter2"/><feMerge><feMergeNode in="shadowMatrixOuter1"/><feMergeNode in="shadowMatrixOuter2"/></feMerge></filter></defs><g fill="none" fill-rule="evenodd"><g transform="translate(0 385)"><circle fill="#222" cx="231" cy="-25" r="10"/><text font-family="HelveticaNeue-Bold, Helvetica Neue" font-size="16" font-weight="bold" fill="#222"><tspan x="248.36" y="-19">Button</tspan></text><path d="M241-25h8" stroke="#50E3C2" stroke-width="4"/><path d="M205-25h16M299-25h16" stroke="#D0011B" stroke-width="4"/><text font-family="Lato-Bold, Lato" font-size="14" font-weight="bold" fill="#222" transform="translate(0 -80)"><tspan x="0" y="13">ICON + TEXT</tspan></text><path d="M189.484-56.5H.516" stroke="#222" stroke-linecap="square"/></g><g transform="translate(178 1)"><use fill="#36C" xlink:href="#a"/><rect stroke="#FFF" stroke-width="2" x="143" y="225" width="121" height="30" rx="2"/><rect stroke="#36C" x="141.5" y="223.5" width="124" height="33" rx="2"/><rect stroke="#36C" x="142.5" y="224.5" width="122" height="31" rx="2"/><text font-family="HelveticaNeue-Bold, Helvetica Neue" font-size="16" font-weight="bold" fill="#FFF"><tspan x="158.452" y="246">Progressive</tspan></text><use fill="#D11D13" xlink:href="#b"/><rect stroke="#FFF" stroke-width="2" x="307" y="225" width="118" height="30" rx="2"/><rect stroke="#D11D13" x="306.5" y="224.5" width="119" height="31" rx="2"/><rect stroke="#D11D13" x="305.5" y="223.5" width="121" height="33" rx="2"/><text font-family="HelveticaNeue-Bold, Helvetica Neue" font-size="16" font-weight="bold" fill="#FFF"><tspan x="321.288" y="246">Destructive</tspan></text><use fill="#1F4999" xlink:href="#c"/><rect stroke="#1F4999" x="141.5" y="167.5" width="124" height="33" rx="2"/><g fill="#FFF"><use filter="url(#d)" xlink:href="#e"/><use xlink:href="#e"/></g><use fill="#D11D13" xlink:href="#f"/><rect stroke="#D11D13" x="305.5" y="167.5" width="121" height="33" rx="2"/><g fill="#FFF"><use filter="url(#g)" xlink:href="#h"/><use xlink:href="#h"/></g><g opacity="0.2"><use fill="#347BFF" xlink:href="#i"/><rect stroke="#347BFF" x="141.5" y="111.5" width="124" height="33" rx="2"/></g><text font-family="HelveticaNeue-Bold, Helvetica Neue" font-size="16" font-weight="bold" fill="#347BFF"><tspan x="158.452" y="134">Progressive</tspan></text><rect fill="#D11D13" opacity="0.2" x="305" y="112" width="120" height="32" rx="2"/><text font-family="HelveticaNeue-Bold, Helvetica Neue" font-size="16" font-weight="bold" fill="#D11D13"><tspan x="321" y="135">Destructive</tspan></text><text font-family="HelveticaNeue-Bold, Helvetica Neue" font-size="16" font-weight="bold" fill="#36C"><tspan x="158.452" y="78">Progressive</tspan></text><text font-family="HelveticaNeue-Bold, Helvetica Neue" font-size="16" font-weight="bold" fill="#D11D13"><tspan x="321.288" y="78">Destructive</tspan></text><text font-family="HelveticaNeue-Bold, Helvetica Neue" font-size="16" font-weight="bold" fill="#72777D"><tspan x="158" y="22">Progressive</tspan></text><text font-family="HelveticaNeue-Bold, Helvetica Neue" font-size="16" font-weight="bold" fill="#72777D"><tspan x="321" y="22">Destructive</tspan></text><text font-family="HelveticaNeue-Bold, Helvetica Neue" font-size="16" font-weight="bold" fill="#72777D"><tspan x="30" y="22">Neutral</tspan></text><g stroke="#D0011B" stroke-linecap="square"><path d="M86.5 15.5h15M86.5 16.5h15M86.5 17.5h15M86.5 18.5h15"/></g><text font-family="HelveticaNeue-Bold, Helvetica Neue" font-size="16" font-weight="bold" fill="#222"><tspan x="30.152" y="78">Neutral</tspan></text><rect x="14" y="112" width="88" height="32" rx="2"/><text font-family="HelveticaNeue-Bold, Helvetica Neue" font-size="16" font-weight="bold" fill="#222"><tspan x="30.152" y="134">Neutral</tspan></text><g><use fill="#EAECF0" xlink:href="#j"/><rect stroke="#72777D" x="13.5" y="167.5" width="89" height="33" rx="2"/></g><text font-family="HelveticaNeue-Bold, Helvetica Neue" font-size="16" font-weight="bold" fill="#000"><tspan x="29" y="190">Neutral</tspan></text><g stroke="#36C"><rect x="13.5" y="223.5" width="89" height="33" rx="2"/><rect x="14.5" y="224.5" width="87" height="31" rx="2"/></g><text font-family="HelveticaNeue-Bold, Helvetica Neue" font-size="16" font-weight="bold" fill="#222"><tspan x="30.152" y="246">Neutral</tspan></text><g stroke-linecap="square"><g stroke="#D0011B"><path d="M.5 79.5v-15M1.5 79.5v-15M2.5 79.5v-15M3.5 79.5v-15"/></g><g stroke="#50E3C2"><path d="M1.5 87.5v-7M.5 87.5v-7M3.5 87.5v-7M2.5 87.5v-7"/></g><g stroke="#50E3C2"><path d="M1.5 63.5v-7M.5 63.5v-7M3.5 63.5v-7M2.5 63.5v-7"/></g></g><g stroke-linecap="square"><g stroke="#D0011B"><path d="M.5 135.5v-15M1.5 135.5v-15M2.5 135.5v-15M3.5 135.5v-15"/></g><g stroke="#50E3C2"><path d="M1.5 143.5v-7M.5 143.5v-7M3.5 143.5v-7M2.5 143.5v-7"/></g><g stroke="#50E3C2"><path d="M1.5 119.5v-7M.5 119.5v-7M3.5 119.5v-7M2.5 119.5v-7"/></g></g><g stroke-linecap="square"><g stroke="#D0011B"><path d="M.5 23.5v-15M1.5 23.5v-15M2.5 23.5v-15M3.5 23.5v-15"/></g><g stroke="#50E3C2"><path d="M1.5 31.5v-7M.5 31.5v-7M3.5 31.5v-7M2.5 31.5v-7"/></g><g stroke="#50E3C2"><path d="M1.5 7.5v-7M.5 7.5v-7M3.5 7.5v-7M2.5 7.5v-7"/></g></g><g stroke="#D0011B" stroke-linecap="square"><path d="M14.5 15.5h15M14.5 16.5h15M14.5 17.5h15M14.5 18.5h15"/></g></g><g transform="translate(0 413)"><text font-family="Lato-Regular, Lato" font-size="14" fill="#72777D"><tspan x="7" y="58.2000008"> DISABLED</tspan>   <tspan x="7" y="114.599998"> NORMAL</tspan>   <tspan x="7" y="170.999996">:HOVER</tspan>   <tspan x="7" y="227.399994">:ACTIVE</tspan>   <tspan x="7" y="283.799992">:FOCUS</tspan></text><rect fill="#EEE" transform="matrix(1 0 0 -1 0 322)" x="261" y="145" width="36" height="32" rx="2"/><path d="M262 161h7M289 161h7" stroke="#50E3C2" stroke-width="2" stroke-linecap="square"/><path d="M301 151l.349 19.997M304 150.948l-6 .104M304.349 170.945l-6 .104M303 145l.558 31.995M306 144.948l-6 .104M306.558 176.943l-6 .104" stroke="#4990E2" stroke-linecap="square"/><rect fill="#222" x="269" y="151" width="20" height="20" rx="10"/><text font-family="Helvetica" font-size="12" fill="#222"><tspan x="314" y="160">20px x 20px icon</tspan> <tspan x="314" y="171">vertical align: middle</tspan></text><path d="M228 55.5c0-.625-.25-1.25-.75-1.75s-1.125-.75-1.75-.75-1.25.25-1.75.75-.75 1.125-.75 1.75.25 1.25.75 1.75 1 .75 1.75.75c.625 0 1.25-.25 1.75-.75s.75-1 .75-1.75zm7.5 0c0-.625-.25-1.25-.75-1.75S233.625 53 233 53s-1.25.25-1.75.75-.75 1.125-.75 1.75.25 1.25.75 1.75 1 .75 1.75.75c.625 0 1.25-.25 1.75-.75s.75-1 .75-1.75zm7.5 0c0-.625-.25-1.25-.75-1.75s-1.125-.75-1.75-.75-1.25.25-1.75.75-.75 1.125-.75 1.75.25 1.25.75 1.75 1 .75 1.75.75c.625 0 1.25-.25 1.75-.75s.75-1 .75-1.75z" fill="#7D8389"/><g fill="#222"><path d="M235.462 103.222c0 .667-.227 1.111-.68 1.556a2.258 2.258 0 0 1-1.586.666c-.68 0-1.133-.222-1.586-.666-.453-.445-.68-1-.68-1.556 0-.555.227-1.11.68-1.555a2.258 2.258 0 0 1 1.586-.667c.567 0 1.133.222 1.586.667.453.444.68 1 .68 1.555zM227.924 103.222c0 .667-.227 1.111-.68 1.556a2.258 2.258 0 0 1-1.586.666c-.68 0-1.133-.222-1.586-.666-.453-.445-.68-1-.68-1.556 0-.555.227-1.11.68-1.555a2.258 2.258 0 0 1 1.586-.667c.566 0 1.133.222 1.586.667.453.444.68 1 .68 1.555zM242.26 103.222c0 .667-.227 1.111-.68 1.556a2.258 2.258 0 0 1-1.587.666c-.68 0-1.132-.222-1.586-.666-.453-.445-.68-1-.68-1.556 0-.555.227-1.11.68-1.555a2.258 2.258 0 0 1 1.586-.667c.567 0 1.133.222 1.587.667.453.444.68 1 .68 1.555z"/></g><rect fill="#EEE" transform="matrix(1 0 0 -1 0 322)" x="215" y="145" width="36" height="32" rx="2"/><path d="M243 161h7M216 161h7" stroke="#50E3C2" stroke-width="2" stroke-linecap="square"/><g fill="#222"><path d="M235.462 161.222c0 .667-.227 1.111-.68 1.556a2.258 2.258 0 0 1-1.586.666c-.68 0-1.133-.222-1.586-.666-.453-.445-.68-1-.68-1.556 0-.555.227-1.11.68-1.555a2.258 2.258 0 0 1 1.586-.667c.567 0 1.133.222 1.586.667.453.444.68 1 .68 1.555zM227.924 161.222c0 .667-.227 1.111-.68 1.556a2.258 2.258 0 0 1-1.586.666c-.68 0-1.133-.222-1.586-.666-.453-.445-.68-1-.68-1.556 0-.555.227-1.11.68-1.555a2.258 2.258 0 0 1 1.586-.667c.566 0 1.133.222 1.586.667.453.444.68 1 .68 1.555zM242.26 161.222c0 .667-.227 1.111-.68 1.556a2.258 2.258 0 0 1-1.587.666c-.68 0-1.132-.222-1.586-.666-.453-.445-.68-1-.68-1.556 0-.555.227-1.11.68-1.555a2.258 2.258 0 0 1 1.586-.667c.567 0 1.133.222 1.587.667.453.444.68 1 .68 1.555z"/></g><g transform="matrix(1 0 0 -1 0 420)"><use fill="#D9D9D9" xlink:href="#k"/><rect stroke="#D9D9D9" x="214.5" y="193.5" width="37" height="33" rx="2"/></g><g fill="#222"><path d="M235.462 210.222c0 .667-.227 1.111-.68 1.556a2.258 2.258 0 0 1-1.586.666c-.68 0-1.133-.222-1.586-.666-.453-.445-.68-1-.68-1.556 0-.555.227-1.11.68-1.555a2.258 2.258 0 0 1 1.586-.667c.567 0 1.133.222 1.586.667.453.444.68 1 .68 1.555zM227.924 210.222c0 .667-.227 1.111-.68 1.556a2.258 2.258 0 0 1-1.586.666c-.68 0-1.133-.222-1.586-.666-.453-.445-.68-1-.68-1.556 0-.555.227-1.11.68-1.555a2.258 2.258 0 0 1 1.586-.667c.566 0 1.133.222 1.586.667.453.444.68 1 .68 1.555zM242.26 210.222c0 .667-.227 1.111-.68 1.556a2.258 2.258 0 0 1-1.587.666c-.68 0-1.132-.222-1.586-.666-.453-.445-.68-1-.68-1.556 0-.555.227-1.11.68-1.555a2.258 2.258 0 0 1 1.586-.667c.567 0 1.133.222 1.587.667.453.444.68 1 .68 1.555z"/></g><g stroke="#36C"><rect x="214.5" y="244.5" width="37" height="33" rx="2"/><rect x="215.5" y="245.5" width="35" height="31" rx="2"/></g><g fill="#222"><path d="M235.462 261.222c0 .667-.227 1.111-.68 1.556a2.258 2.258 0 0 1-1.586.666c-.68 0-1.133-.222-1.586-.666-.453-.445-.68-1-.68-1.556 0-.555.227-1.11.68-1.555a2.258 2.258 0 0 1 1.586-.667c.567 0 1.133.222 1.586.667.453.444.68 1 .68 1.555zM227.924 261.222c0 .667-.227 1.111-.68 1.556a2.258 2.258 0 0 1-1.586.666c-.68 0-1.133-.222-1.586-.666-.453-.445-.68-1-.68-1.556 0-.555.227-1.11.68-1.555a2.258 2.258 0 0 1 1.586-.667c.566 0 1.133.222 1.586.667.453.444.68 1 .68 1.555zM242.26 261.222c0 .667-.227 1.111-.68 1.556a2.258 2.258 0 0 1-1.587.666c-.68 0-1.132-.222-1.586-.666-.453-.445-.68-1-.68-1.556 0-.555.227-1.11.68-1.555a2.258 2.258 0 0 1 1.586-.667c.567 0 1.133.222 1.587.667.453.444.68 1 .68 1.555z"/></g><text font-family="Lato-Bold, Lato" font-size="14" font-weight="bold" fill="#222"><tspan x="0" y="13">ICON</tspan></text><path d="M189.484 23.5H.516" stroke="#222" stroke-linecap="square"/></g><g transform="translate(257 131)"><use fill="#000" filter="url(#l)" xlink:href="#m"/><use fill="#FFF" xlink:href="#m"/><path stroke="#000" d="M18.095 12.378a1.69 1.69 0 0 0-1.697-1.682 1.7 1.7 0 0 0-.805.201 2.102 2.102 0 0 0-1.997-1.4c-.429 0-.827.126-1.159.342-.235-.887-1.067-1.54-2.044-1.54-.398 0-.77.11-1.086.298V1.425c0-1.06-.86-1.925-1.91-1.925-1.05 0-1.898.864-1.898 1.925V15L2.79 11.5c-.451-.773-1.533-1.041-2.383-.562-.856.484-1.165 1.55-.675 2.381l.199.309a1248.604 1248.604 0 0 0 2.036 3.143c.757 1.163 1.358 2.081 1.747 2.665.264.396.545.785 1.021 1.429l.08.106c1.38 1.861 1.853 2.609 1.853 3.03v.5h8.989V24c0-.556.155-.907 1.165-2.853.7-1.347 1.057-2.216 1.212-3.158a4.86 4.86 0 0 0 .066-.787v-3.24l-.006-1.584z"/></g><g transform="translate(256 187)"><use fill="#000" filter="url(#n)" xlink:href="#o"/><use fill="#FFF" xlink:href="#o"/><path stroke="#000" d="M18.095 12.378a1.69 1.69 0 0 0-1.697-1.682 1.7 1.7 0 0 0-.805.201 2.102 2.102 0 0 0-1.997-1.4c-.429 0-.827.126-1.159.342-.235-.887-1.067-1.54-2.044-1.54-.398 0-.77.11-1.086.298V1.425c0-1.06-.86-1.925-1.91-1.925-1.05 0-1.898.864-1.898 1.925V15L2.79 11.5c-.451-.773-1.533-1.041-2.383-.562-.856.484-1.165 1.55-.675 2.381l.199.309a1248.604 1248.604 0 0 0 2.036 3.143c.757 1.163 1.358 2.081 1.747 2.665.264.396.545.785 1.021 1.429l.08.106c1.38 1.861 1.853 2.609 1.853 3.03v.5h8.989V24c0-.556.155-.907 1.165-2.853.7-1.347 1.057-2.216 1.212-3.158a4.86 4.86 0 0 0 .066-.787v-3.24l-.006-1.584z"/></g><g transform="translate(263 24)"><use fill="#000" filter="url(#p)" xlink:href="#q"/><use fill="#000" xlink:href="#q"/><path stroke="#FFF" d="M6.448 11.787l4.367.242c1.214-.128 1.575-1.116.783-1.933L.937-.061C.49-.52.197-.699-.203-.359c-.244.208-.27.41-.271 1.028L-.5 14.984c-.002 1.138.945 1.597 1.846.902l.077-.075 2.483-2.963L6.614 19.7c.274.68 1.07.975 1.766.692.695-.28 1.062-1.045.789-1.72l-2.72-6.886z"/></g><text font-family="Lato-Regular, Lato" font-size="14" fill="#72777D" transform="translate(-2 1)"><tspan x="0" y="21"> DISABLED</tspan>   <tspan x="0" y="77.3999977"> NORMAL</tspan>   <tspan x="0" y="133.799995">:HOVER</tspan>   <tspan x="0" y="190.199993">:ACTIVE</tspan>   <tspan x="0" y="246.599991">:FOCUS</tspan></text></g></svg>