<?xml version="1.0" encoding="UTF-8" standalone="no"?>
<svg width="605px" height="699px" viewBox="0 0 605 699" version="1.1" xmlns="http://www.w3.org/2000/svg" xmlns:xlink="http://www.w3.org/1999/xlink">
    <defs>
        <rect id="path-1" x="142" y="224" width="123" height="32" rx="2"></rect>
        <rect id="path-2" x="306" y="224" width="120" height="32" rx="2"></rect>
        <rect id="path-3" x="142" y="168" width="123" height="32" rx="2"></rect>
        <text id="text-4" font-family="HelveticaNeue-Bold, Helvetica Neue" font-size="16" font-weight="bold" fill="#FFFFFF">
            <tspan x="158.452" y="190">Progressive</tspan>
        </text>
        <filter x="-0.5%" y="-2.6%" width="101.1%" height="110.5%" filterUnits="objectBoundingBox" id="filter-5">
            <feOffset dx="0" dy="1" in="SourceAlpha" result="shadowOffsetOuter1"></feOffset>
            <feColorMatrix values="0 0 0 0 0   0 0 0 0 0   0 0 0 0 0  0 0 0 0.1 0" type="matrix" in="shadowOffsetOuter1"></feColorMatrix>
        </filter>
        <rect id="path-6" x="306" y="168" width="120" height="32" rx="2"></rect>
        <text id="text-7" font-family="HelveticaNeue-Bold, Helvetica Neue" font-size="16" font-weight="bold" fill="#FFFFFF">
            <tspan x="321.288" y="190">Destructive</tspan>
        </text>
        <filter x="-0.6%" y="-2.6%" width="101.1%" height="110.5%" filterUnits="objectBoundingBox" id="filter-8">
            <feOffset dx="0" dy="1" in="SourceAlpha" result="shadowOffsetOuter1"></feOffset>
            <feColorMatrix values="0 0 0 0 0   0 0 0 0 0   0 0 0 0 0  0 0 0 0.1 0" type="matrix" in="shadowOffsetOuter1"></feColorMatrix>
        </filter>
        <rect id="path-9" x="142" y="112" width="123" height="32" rx="2"></rect>
        <rect id="path-10" x="14" y="168" width="88" height="32" rx="2"></rect>
        <rect id="path-11" x="14" y="224" width="88" height="32" rx="2"></rect>
        <rect id="path-12" x="215" y="194" width="36" height="32" rx="2"></rect>
        <rect id="path-13" x="215" y="245" width="36" height="32" rx="2"></rect>
        <path d="M17.5954523,12.3787874 C17.5954523,11.7256091 17.0590701,11.1960268 16.3978922,11.1960268 C15.7383142,11.1960268 15.203532,11.7232092 15.2015321,12.3747875 L15.2015321,11.548815 C15.2015321,10.6920436 14.483156,9.99766674 13.5963856,9.99766674 C12.7096151,9.99766674 12.0036387,10.6920436 12.0036387,11.548815 L12.0036387,10.350455 C12.0036387,9.49368354 11.2756629,8.79930669 10.3928923,8.79930669 C9.51012177,8.79930669 8.80654522,9.49408353 8.80654522,10.350455 L8.80654522,1.42515249 C8.80654522,0.637978734 8.1681665,-2.30926389e-14 7.39619224,-2.30926389e-14 C6.62461796,-2.30926389e-14 5.99863882,0.638378721 5.99863882,1.42515249 L5.99863882,16.4630512 L2.39595891,11.8040065 C2.04997044,11.2180261 1.26999644,11.0252325 0.653616989,11.3728209 C0.0372375346,11.7208093 -0.181955159,12.4779841 0.164033308,13.0639645 C0.164033308,13.0639645 2.9811394,17.4326189 4.13110107,19.1573614 C5.28106274,20.8821039 7.16859982,23.009633 7.16859982,24 L15.1579335,24 C15.1579335,22.3280557 17.6014521,19.7165428 17.6014521,17.2018266 L17.6014521,13.9627346 L17.5954523,12.3787874 Z" id="path-14"></path>
        <filter x="-42.6%" y="-18.8%" width="185.2%" height="162.5%" filterUnits="objectBoundingBox" id="filter-15">
            <feMorphology radius="1" operator="dilate" in="SourceAlpha" result="shadowSpreadOuter1"></feMorphology>
            <feOffset dx="0" dy="1" in="shadowSpreadOuter1" result="shadowOffsetOuter1"></feOffset>
            <feGaussianBlur stdDeviation="0.5" in="shadowOffsetOuter1" result="shadowBlurOuter1"></feGaussianBlur>
            <feComposite in="shadowBlurOuter1" in2="SourceAlpha" operator="out" result="shadowBlurOuter1"></feComposite>
            <feColorMatrix values="0 0 0 0 0   0 0 0 0 0   0 0 0 0 0  0 0 0 0.582908741 0" type="matrix" in="shadowBlurOuter1" result="shadowMatrixOuter1"></feColorMatrix>
            <feMorphology radius="1" operator="dilate" in="SourceAlpha" result="shadowSpreadOuter2"></feMorphology>
            <feOffset dx="0" dy="2" in="shadowSpreadOuter2" result="shadowOffsetOuter2"></feOffset>
            <feGaussianBlur stdDeviation="1.5" in="shadowOffsetOuter2" result="shadowBlurOuter2"></feGaussianBlur>
            <feComposite in="shadowBlurOuter2" in2="SourceAlpha" operator="out" result="shadowBlurOuter2"></feComposite>
            <feColorMatrix values="0 0 0 0 0   0 0 0 0 0   0 0 0 0 0  0 0 0 0.179347826 0" type="matrix" in="shadowBlurOuter2" result="shadowMatrixOuter2"></feColorMatrix>
            <feMerge>
                <feMergeNode in="shadowMatrixOuter1"></feMergeNode>
                <feMergeNode in="shadowMatrixOuter2"></feMergeNode>
            </feMerge>
        </filter>
        <path d="M17.5954523,12.3787874 C17.5954523,11.7256091 17.0590701,11.1960268 16.3978922,11.1960268 C15.7383142,11.1960268 15.203532,11.7232092 15.2015321,12.3747875 L15.2015321,11.548815 C15.2015321,10.6920436 14.483156,9.99766674 13.5963856,9.99766674 C12.7096151,9.99766674 12.0036387,10.6920436 12.0036387,11.548815 L12.0036387,10.350455 C12.0036387,9.49368354 11.2756629,8.79930669 10.3928923,8.79930669 C9.51012177,8.79930669 8.80654522,9.49408353 8.80654522,10.350455 L8.80654522,1.42515249 C8.80654522,0.637978734 8.1681665,-2.30926389e-14 7.39619224,-2.30926389e-14 C6.62461796,-2.30926389e-14 5.99863882,0.638378721 5.99863882,1.42515249 L5.99863882,16.4630512 L2.39595891,11.8040065 C2.04997044,11.2180261 1.26999644,11.0252325 0.653616989,11.3728209 C0.0372375346,11.7208093 -0.181955159,12.4779841 0.164033308,13.0639645 C0.164033308,13.0639645 2.9811394,17.4326189 4.13110107,19.1573614 C5.28106274,20.8821039 7.16859982,23.009633 7.16859982,24 L15.1579335,24 C15.1579335,22.3280557 17.6014521,19.7165428 17.6014521,17.2018266 L17.6014521,13.9627346 L17.5954523,12.3787874 Z" id="path-16"></path>
        <filter x="-42.6%" y="-18.8%" width="185.2%" height="162.5%" filterUnits="objectBoundingBox" id="filter-17">
            <feMorphology radius="1" operator="dilate" in="SourceAlpha" result="shadowSpreadOuter1"></feMorphology>
            <feOffset dx="0" dy="1" in="shadowSpreadOuter1" result="shadowOffsetOuter1"></feOffset>
            <feGaussianBlur stdDeviation="0.5" in="shadowOffsetOuter1" result="shadowBlurOuter1"></feGaussianBlur>
            <feComposite in="shadowBlurOuter1" in2="SourceAlpha" operator="out" result="shadowBlurOuter1"></feComposite>
            <feColorMatrix values="0 0 0 0 0   0 0 0 0 0   0 0 0 0 0  0 0 0 0.582908741 0" type="matrix" in="shadowBlurOuter1" result="shadowMatrixOuter1"></feColorMatrix>
            <feMorphology radius="1" operator="dilate" in="SourceAlpha" result="shadowSpreadOuter2"></feMorphology>
            <feOffset dx="0" dy="2" in="shadowSpreadOuter2" result="shadowOffsetOuter2"></feOffset>
            <feGaussianBlur stdDeviation="1.5" in="shadowOffsetOuter2" result="shadowBlurOuter2"></feGaussianBlur>
            <feComposite in="shadowBlurOuter2" in2="SourceAlpha" operator="out" result="shadowBlurOuter2"></feComposite>
            <feColorMatrix values="0 0 0 0 0   0 0 0 0 0   0 0 0 0 0  0 0 0 0.179347826 0" type="matrix" in="shadowBlurOuter2" result="shadowMatrixOuter2"></feColorMatrix>
            <feMerge>
                <feMergeNode in="shadowMatrixOuter1"></feMergeNode>
                <feMergeNode in="shadowMatrixOuter2"></feMergeNode>
            </feMerge>
        </filter>
        <path d="M6.13211402,11.2688979 L10.8422354,11.5297995 C11.562075,11.4497464 11.7406967,10.9613193 11.2389527,10.443935 L0.591868541,0.301190754 C0.0905803995,-0.216377736 0.0269163636,-0.0499300062 0.0256689588,0.670145757 L2.29782166e-06,14.9845005 C-0.00119676849,15.7053522 0.467038737,15.932432 1.04000173,15.490159 L3.78168123,12.217739 C3.87724299,12.1438668 3.98988305,12.0715788 4.10864258,12 L7.07900942,19.5168621 C7.24412875,19.9268592 7.74262137,20.1120195 8.19190947,19.929965 C8.64097423,19.7493265 8.87107252,19.2695313 8.70554568,18.8604942 L5.73444213,11.3418087 L6.13211402,11.2688979 Z" id="path-18"></path>
        <filter x="-65.1%" y="-22.5%" width="230.2%" height="175.0%" filterUnits="objectBoundingBox" id="filter-19">
            <feMorphology radius="1" operator="dilate" in="SourceAlpha" result="shadowSpreadOuter1"></feMorphology>
            <feOffset dx="0" dy="1" in="shadowSpreadOuter1" result="shadowOffsetOuter1"></feOffset>
            <feGaussianBlur stdDeviation="0.5" in="shadowOffsetOuter1" result="shadowBlurOuter1"></feGaussianBlur>
            <feComposite in="shadowBlurOuter1" in2="SourceAlpha" operator="out" result="shadowBlurOuter1"></feComposite>
            <feColorMatrix values="0 0 0 0 0   0 0 0 0 0   0 0 0 0 0  0 0 0 0.582908741 0" type="matrix" in="shadowBlurOuter1" result="shadowMatrixOuter1"></feColorMatrix>
            <feMorphology radius="1" operator="dilate" in="SourceAlpha" result="shadowSpreadOuter2"></feMorphology>
            <feOffset dx="0" dy="2" in="shadowSpreadOuter2" result="shadowOffsetOuter2"></feOffset>
            <feGaussianBlur stdDeviation="1.5" in="shadowOffsetOuter2" result="shadowBlurOuter2"></feGaussianBlur>
            <feComposite in="shadowBlurOuter2" in2="SourceAlpha" operator="out" result="shadowBlurOuter2"></feComposite>
            <feColorMatrix values="0 0 0 0 0   0 0 0 0 0   0 0 0 0 0  0 0 0 0.179347826 0" type="matrix" in="shadowBlurOuter2" result="shadowMatrixOuter2"></feColorMatrix>
            <feMerge>
                <feMergeNode in="shadowMatrixOuter1"></feMergeNode>
                <feMergeNode in="shadowMatrixOuter2"></feMergeNode>
            </feMerge>
        </filter>
    </defs>
    <g id="Artboard-page" stroke="none" stroke-width="1" fill="none" fill-rule="evenodd">
        <g id="Artboard-M101" transform="translate(-2560.000000, -255.000000)">
            <g id="QUIET-BUTTONS" transform="translate(2558.000000, 143.000000)">
                <g id="Quiet-Buttons-X" transform="translate(0.000000, 113.000000)">
                    <g id="Icon-+-Text" transform="translate(2.000000, 384.000000)">
                        <circle id="Oval-54" fill="#222222" cx="231" cy="-25" r="10"></circle>
                        <text id="Button" font-family="HelveticaNeue-Bold, Helvetica Neue" font-size="16" font-weight="bold" fill="#222222">
                            <tspan x="248.36" y="-19">Button</tspan>
                        </text>
                        <path d="M241,-25 L249,-25" id="Line-183" stroke="#50E3C2" stroke-width="4"></path>
                        <path d="M205,-25 L221,-25" id="Line-178-Copy" stroke="#D0011B" stroke-width="4"></path>
                        <path d="M299,-25 L315,-25" id="Line-179-Copy" stroke="#D0011B" stroke-width="4"></path>
                        <g id="101-/-Headline--Sub" transform="translate(0.000000, -80.000000)">
                            <text id="SUBHEADLINE" font-family="Lato-Bold, Lato" font-size="14" font-weight="bold" line-spacing="14" fill="#222222">
                                <tspan x="0" y="13">ICON + TEXT</tspan>
                            </text>
                            <g id="101-/-Headline__line" transform="translate(0.000000, 22.000000)" stroke="#222222" stroke-width="1" stroke-linecap="square">
                                <path d="M189.483696,1.5 L0.516304348,1.5" id="Line"></path>
                            </g>
                        </g>
                    </g>
                    <g id="Text" transform="translate(180.000000, 0.000000)">
                        <g id="BG">
                            <use fill="#3366CC" fill-rule="evenodd" xlink:href="#path-1"></use>
                            <rect stroke="#FFFFFF" stroke-width="2" x="143" y="225" width="121" height="30" rx="2"></rect>
                            <rect stroke="#3366CC" stroke-width="1" x="141.5" y="223.5" width="124" height="33" rx="2"></rect>
                            <rect stroke="#3366CC" stroke-width="1" x="142.5" y="224.5" width="122" height="31" rx="2"></rect>
                        </g>
                        <text id="8:16:8:16" font-family="HelveticaNeue-Bold, Helvetica Neue" font-size="16" font-weight="bold" fill="#FFFFFF">
                            <tspan x="158.452" y="246">Progressive</tspan>
                        </text>
                        <g id="BG">
                            <use fill="#D11D13" fill-rule="evenodd" xlink:href="#path-2"></use>
                            <rect stroke="#FFFFFF" stroke-width="2" x="307" y="225" width="118" height="30" rx="2"></rect>
                            <rect stroke="#D11D13" stroke-width="1" x="306.5" y="224.5" width="119" height="31" rx="2"></rect>
                            <rect stroke="#D11D13" stroke-width="1" x="305.5" y="223.5" width="121" height="33" rx="2"></rect>
                        </g>
                        <text id="8:16:8:16" font-family="HelveticaNeue-Bold, Helvetica Neue" font-size="16" font-weight="bold" fill="#FFFFFF">
                            <tspan x="321.288" y="246">Destructive</tspan>
                        </text>
                        <g id="BG">
                            <use fill="#1F4999" fill-rule="evenodd" xlink:href="#path-3"></use>
                            <rect stroke="#1F4999" stroke-width="1" x="141.5" y="167.5" width="124" height="33" rx="2"></rect>
                        </g>
                        <g id="8:16:8:16" fill-opacity="1" fill="#FFFFFF">
                            <use filter="url(#filter-5)" xlink:href="#text-4"></use>
                            <use xlink:href="#text-4"></use>
                        </g>
                        <g id="BG">
                            <use fill="#D11D13" fill-rule="evenodd" xlink:href="#path-6"></use>
                            <rect stroke="#D11D13" stroke-width="1" x="305.5" y="167.5" width="121" height="33" rx="2"></rect>
                        </g>
                        <g id="8:16:8:16" fill-opacity="1" fill="#FFFFFF">
                            <use filter="url(#filter-8)" xlink:href="#text-7"></use>
                            <use xlink:href="#text-7"></use>
                        </g>
                        <g id="BG" opacity="0.2">
                            <use fill="#347BFF" fill-rule="evenodd" xlink:href="#path-9"></use>
                            <rect stroke="#347BFF" stroke-width="1" x="141.5" y="111.5" width="124" height="33" rx="2"></rect>
                        </g>
                        <text id="8:16:8:16" font-family="HelveticaNeue-Bold, Helvetica Neue" font-size="16" font-weight="bold" fill="#347BFF">
                            <tspan x="158.452" y="134">Progressive</tspan>
                        </text>
                        <rect id="BG" fill="#D11D13" opacity="0.2" x="305" y="112" width="120" height="32" rx="2"></rect>
                        <text id="8:16:8:16" font-family="HelveticaNeue-Bold, Helvetica Neue" font-size="16" font-weight="bold" line-spacing="16" fill="#D11D13">
                            <tspan x="321" y="135">Destructive</tspan>
                        </text>
                        <text id="8:16:8:16" font-family="HelveticaNeue-Bold, Helvetica Neue" font-size="16" font-weight="bold" fill="#3366CC">
                            <tspan x="158.452" y="78">Progressive</tspan>
                        </text>
                        <text id="8:16:8:16" font-family="HelveticaNeue-Bold, Helvetica Neue" font-size="16" font-weight="bold" fill="#D11D13">
                            <tspan x="321.288" y="78">Destructive</tspan>
                        </text>
                        <text id="8:16:8:16" font-family="HelveticaNeue-Bold, Helvetica Neue" font-size="16" font-weight="bold" fill="#72777D">
                            <tspan x="158" y="22">Progressive</tspan>
                        </text>
                        <text id="8:16:8:16" font-family="HelveticaNeue-Bold, Helvetica Neue" font-size="16" font-weight="bold" fill="#72777D">
                            <tspan x="321" y="22">Destructive</tspan>
                        </text>
                        <text id="8:16:8:16" font-family="HelveticaNeue-Bold, Helvetica Neue" font-size="16" font-weight="bold" fill="#72777D">
                            <tspan x="30" y="22">Neutral</tspan>
                        </text>
                        <g id="101-/-1em" transform="translate(86.000000, 15.000000)" stroke="#D0011B" stroke-linecap="square">
                            <path d="M0.5,0.5 L15.5,0.5" id="1em"></path>
                            <path d="M0.5,1.5 L15.5,1.5" id="1em-copy"></path>
                            <path d="M0.5,2.5 L15.5,2.5" id="1em-copy-2"></path>
                            <path d="M0.5,3.5 L15.5,3.5" id="1em-copy-3"></path>
                        </g>
                        <text id="8:16:8:16" font-family="HelveticaNeue-Bold, Helvetica Neue" font-size="16" font-weight="bold" fill="#222222">
                            <tspan x="30.152" y="78">Neutral</tspan>
                        </text>
                        <rect id="BG" x="14" y="112" width="88" height="32" rx="2"></rect>
                        <text id="8:16:8:16" font-family="HelveticaNeue-Bold, Helvetica Neue" font-size="16" font-weight="bold" fill="#222222">
                            <tspan x="30.152" y="134">Neutral</tspan>
                        </text>
                        <g id="BG">
                            <use fill="#EAECF0" fill-rule="evenodd" xlink:href="#path-10"></use>
                            <rect stroke="#72777D" stroke-width="1" x="13.5" y="167.5" width="89" height="33" rx="2"></rect>
                        </g>
                        <text id="8:16:8:16" font-family="HelveticaNeue-Bold, Helvetica Neue" font-size="16" font-weight="bold" line-spacing="20" fill="#000000">
                            <tspan x="29" y="190">Neutral</tspan>
                        </text>
                        <g id="BG" stroke="#3366CC">
                            <rect x="13.5" y="223.5" width="89" height="33" rx="2"></rect>
                            <rect x="14.5" y="224.5" width="87" height="31" rx="2"></rect>
                        </g>
                        <text id="8:16:8:16" font-family="HelveticaNeue-Bold, Helvetica Neue" font-size="16" font-weight="bold" fill="#222222">
                            <tspan x="30.152" y="246">Neutral</tspan>
                        </text>
                        <g id="-101-/-1em-+-2*0,5em" transform="translate(2.000000, 72.000000) rotate(270.000000) translate(-2.000000, -72.000000) translate(-14.000000, 70.000000)" stroke-linecap="square">
                            <g id="101-/-1em" transform="translate(8.000000, 0.000000)" stroke="#D0011B">
                                <path d="M0.5,0.5 L15.5,0.5" id="1em"></path>
                                <path d="M0.5,1.5 L15.5,1.5" id="1em-copy"></path>
                                <path d="M0.5,2.5 L15.5,2.5" id="1em-copy-2"></path>
                                <path d="M0.5,3.5 L15.5,3.5" id="1em-copy-3"></path>
                            </g>
                            <g id="101-/-0.5em" stroke="#50E3C2">
                                <path d="M0.5,1.5 L7.5,1.5" id="0.5em"></path>
                                <path d="M0.5,0.5 L7.5,0.5" id="0.5em-copy"></path>
                                <path d="M0.5,3.5 L7.5,3.5" id="0.5em-copy-2"></path>
                                <path d="M0.5,2.5 L7.5,2.5" id="0.5em-copy-3"></path>
                            </g>
                            <g id="101-/-0.5em" transform="translate(24.000000, 0.000000)" stroke="#50E3C2">
                                <path d="M0.5,1.5 L7.5,1.5" id="0.5em"></path>
                                <path d="M0.5,0.5 L7.5,0.5" id="0.5em-copy"></path>
                                <path d="M0.5,3.5 L7.5,3.5" id="0.5em-copy-2"></path>
                                <path d="M0.5,2.5 L7.5,2.5" id="0.5em-copy-3"></path>
                            </g>
                        </g>
                        <g id="-101-/-1em-+-2*0,5em" transform="translate(2.000000, 128.000000) rotate(270.000000) translate(-2.000000, -128.000000) translate(-14.000000, 126.000000)" stroke-linecap="square">
                            <g id="101-/-1em" transform="translate(8.000000, 0.000000)" stroke="#D0011B">
                                <path d="M0.5,0.5 L15.5,0.5" id="1em"></path>
                                <path d="M0.5,1.5 L15.5,1.5" id="1em-copy"></path>
                                <path d="M0.5,2.5 L15.5,2.5" id="1em-copy-2"></path>
                                <path d="M0.5,3.5 L15.5,3.5" id="1em-copy-3"></path>
                            </g>
                            <g id="101-/-0.5em" stroke="#50E3C2">
                                <path d="M0.5,1.5 L7.5,1.5" id="0.5em"></path>
                                <path d="M0.5,0.5 L7.5,0.5" id="0.5em-copy"></path>
                                <path d="M0.5,3.5 L7.5,3.5" id="0.5em-copy-2"></path>
                                <path d="M0.5,2.5 L7.5,2.5" id="0.5em-copy-3"></path>
                            </g>
                            <g id="101-/-0.5em" transform="translate(24.000000, 0.000000)" stroke="#50E3C2">
                                <path d="M0.5,1.5 L7.5,1.5" id="0.5em"></path>
                                <path d="M0.5,0.5 L7.5,0.5" id="0.5em-copy"></path>
                                <path d="M0.5,3.5 L7.5,3.5" id="0.5em-copy-2"></path>
                                <path d="M0.5,2.5 L7.5,2.5" id="0.5em-copy-3"></path>
                            </g>
                        </g>
                        <g id="-101-/-1em-+-2*0,5em" transform="translate(2.000000, 16.000000) rotate(270.000000) translate(-2.000000, -16.000000) translate(-14.000000, 14.000000)" stroke-linecap="square">
                            <g id="101-/-1em" transform="translate(8.000000, 0.000000)" stroke="#D0011B">
                                <path d="M0.5,0.5 L15.5,0.5" id="1em"></path>
                                <path d="M0.5,1.5 L15.5,1.5" id="1em-copy"></path>
                                <path d="M0.5,2.5 L15.5,2.5" id="1em-copy-2"></path>
                                <path d="M0.5,3.5 L15.5,3.5" id="1em-copy-3"></path>
                            </g>
                            <g id="101-/-0.5em" stroke="#50E3C2">
                                <path d="M0.5,1.5 L7.5,1.5" id="0.5em"></path>
                                <path d="M0.5,0.5 L7.5,0.5" id="0.5em-copy"></path>
                                <path d="M0.5,3.5 L7.5,3.5" id="0.5em-copy-2"></path>
                                <path d="M0.5,2.5 L7.5,2.5" id="0.5em-copy-3"></path>
                            </g>
                            <g id="101-/-0.5em" transform="translate(24.000000, 0.000000)" stroke="#50E3C2">
                                <path d="M0.5,1.5 L7.5,1.5" id="0.5em"></path>
                                <path d="M0.5,0.5 L7.5,0.5" id="0.5em-copy"></path>
                                <path d="M0.5,3.5 L7.5,3.5" id="0.5em-copy-2"></path>
                                <path d="M0.5,2.5 L7.5,2.5" id="0.5em-copy-3"></path>
                            </g>
                        </g>
                        <g id="101-/-1em" transform="translate(14.000000, 15.000000)" stroke="#D0011B" stroke-linecap="square">
                            <path d="M0.5,0.5 L15.5,0.5" id="1em"></path>
                            <path d="M0.5,1.5 L15.5,1.5" id="1em-copy"></path>
                            <path d="M0.5,2.5 L15.5,2.5" id="1em-copy-2"></path>
                            <path d="M0.5,3.5 L15.5,3.5" id="1em-copy-3"></path>
                        </g>
                    </g>
                    <g id="Icon" transform="translate(2.000000, 412.000000)">
                        <text id="-DISABLED" font-family="Lato-Regular, Lato" font-size="14" font-weight="normal" line-spacing="18.7999992" fill="#72777D">
                            <tspan x="7" y="58.2000008"> DISABLED</tspan>
                            <tspan x="7" y="77"></tspan>
                            <tspan x="7" y="95.7999992"></tspan>
                            <tspan x="7" y="114.599998"> NORMAL</tspan>
                            <tspan x="7" y="133.399998"></tspan>
                            <tspan x="7" y="152.199997"></tspan>
                            <tspan x="7" y="170.999996">:HOVER</tspan>
                            <tspan x="7" y="189.799995"></tspan>
                            <tspan x="7" y="208.599995"></tspan>
                            <tspan x="7" y="227.399994">:ACTIVE</tspan>
                            <tspan x="7" y="246.199993"></tspan>
                            <tspan x="7" y="264.999992"></tspan>
                            <tspan x="7" y="283.799992">:FOCUS</tspan>
                        </text>
                        <rect id="Rectangle-640-Copy-14" fill="#EEEEEE" transform="translate(279.000000, 161.000000) scale(1, -1) translate(-279.000000, -161.000000) " x="261" y="145" width="36" height="32" rx="2"></rect>
                        <path d="M262,161 L269,161" id="Line-Copy-56" stroke="#50E3C2" stroke-width="2" stroke-linecap="square"></path>
                        <path d="M289,161 L296,161" id="Line-Copy-59" stroke="#50E3C2" stroke-width="2" stroke-linecap="square"></path>
                        <path d="M301,151 L301.349048,170.996954" id="Line-Copy-60" stroke="#4990E2" stroke-linecap="square"></path>
                        <path id="Line-Copy-60-decoration-1" d="M303.999543,150.947643 L298.000457,151.052357" stroke="#4990E2" stroke-linecap="square"></path>
                        <path id="Line-Copy-60-decoration-2" d="M304.348591,170.944597 L298.349505,171.049311" stroke="#4990E2" stroke-linecap="square"></path>
                        <path d="M303,145 L303.558477,176.995126" id="Line-Copy-61" stroke="#4990E2" stroke-linecap="square"></path>
                        <path id="Line-Copy-61-decoration-1" d="M305.999543,144.947643 L300.000457,145.052357" stroke="#4990E2" stroke-linecap="square"></path>
                        <path id="Line-Copy-61-decoration-2" d="M306.55802,176.942769 L300.558934,177.047483" stroke="#4990E2" stroke-linecap="square"></path>
                        <rect id="Rectangle-639-Copy-2" fill="#222222" x="269" y="151" width="20" height="20" rx="10"></rect>
                        <text id="20px-x-20px-icon" font-family="Helvetica" font-size="12" font-weight="normal" line-spacing="11" fill="#222222">
                            <tspan x="314" y="160">20px x 20px icon</tspan>
                            <tspan x="314" y="171">vertical align: middle</tspan>
                        </text>
                        <path d="M228,55.5 C228,56.125 227.75,56.75 227.25,57.25 C226.75,57.75 226.125,58 225.5,58 C224.875,58 224.25,57.75 223.75,57.25 C223.25,56.75 223,56.125 223,55.5 C223,54.875 223.25,54.25 223.75,53.75 C224.25,53.25 224.75,53 225.5,53 C226.125,53 226.75,53.25 227.25,53.75 C227.75,54.25 228,54.75 228,55.5 Z M235.5,55.5 C235.5,56.125 235.25,56.75 234.75,57.25 C234.25,57.75 233.625,58 233,58 C232.375,58 231.75,57.75 231.25,57.25 C230.75,56.75 230.5,56.125 230.5,55.5 C230.5,54.875 230.75,54.25 231.25,53.75 C231.75,53.25 232.25,53 233,53 C233.625,53 234.25,53.25 234.75,53.75 C235.25,54.25 235.5,54.75 235.5,55.5 Z M243,55.5 C243,56.125 242.75,56.75 242.25,57.25 C241.75,57.75 241.125,58 240.5,58 C239.875,58 239.25,57.75 238.75,57.25 C238.25,56.75 238,56.125 238,55.5 C238,54.875 238.25,54.25 238.75,53.75 C239.25,53.25 239.75,53 240.5,53 C241.125,53 241.75,53.25 242.25,53.75 C242.75,54.25 243,54.75 243,55.5 Z" id="Shape-Copy-3" fill="#7D8389" transform="translate(233.000000, 55.500000) scale(1, -1) translate(-233.000000, -55.500000) "></path>
                        <g id="Icon-/-!default" transform="translate(223.000000, 101.000000)" fill="#222222">
                            <path d="M12.4618736,2.22222222 C12.4618736,1.55555556 12.2352941,1.11111111 11.7821351,0.666666667 C11.328976,0.222222222 10.7625272,0 10.1960784,0 C9.51633987,0 9.06318083,0.222222222 8.61002179,0.666666667 C8.15686275,1.11111111 7.93028322,1.66666667 7.93028322,2.22222222 C7.93028322,2.77777778 8.15686275,3.33333333 8.61002179,3.77777778 C9.06318083,4.22222222 9.62962963,4.44444444 10.1960784,4.44444444 C10.7625272,4.44444444 11.328976,4.22222222 11.7821351,3.77777778 C12.2352941,3.33333333 12.4618736,2.77777778 12.4618736,2.22222222 L12.4618736,2.22222222 Z" id="Shape-Copy-5" transform="translate(10.196078, 2.222222) scale(1, -1) translate(-10.196078, -2.222222) "></path>
                            <path d="M4.92374728,2.22222222 C4.92374728,1.55555556 4.69716776,1.11111111 4.24400871,0.666666667 C3.79084967,0.222222222 3.22440087,0 2.65795207,0 C1.97821351,0 1.52505447,0.222222222 1.07189542,0.666666667 C0.618736383,1.11111111 0.392156863,1.66666667 0.392156863,2.22222222 C0.392156863,2.77777778 0.618736383,3.33333333 1.07189542,3.77777778 C1.52505447,4.22222222 2.09150327,4.44444444 2.65795207,4.44444444 C3.22440087,4.44444444 3.79084967,4.22222222 4.24400871,3.77777778 C4.69716776,3.33333333 4.92374728,2.77777778 4.92374728,2.22222222 L4.92374728,2.22222222 Z" id="Shape-Copy-6" transform="translate(2.657952, 2.222222) scale(1, -1) translate(-2.657952, -2.222222) "></path>
                            <path d="M19.2592593,2.22222222 C19.2592593,1.55555556 19.0326797,1.11111111 18.5795207,0.666666667 C18.1263617,0.222222222 17.5599129,0 16.9934641,0 C16.3137255,0 15.8605664,0.222222222 15.4074074,0.666666667 C14.9542484,1.11111111 14.7276688,1.66666667 14.7276688,2.22222222 C14.7276688,2.77777778 14.9542484,3.33333333 15.4074074,3.77777778 C15.8605664,4.22222222 16.4270153,4.44444444 16.9934641,4.44444444 C17.5599129,4.44444444 18.1263617,4.22222222 18.5795207,3.77777778 C19.0326797,3.33333333 19.2592593,2.77777778 19.2592593,2.22222222 L19.2592593,2.22222222 Z" id="Shape-Copy-7" transform="translate(16.993464, 2.222222) scale(1, -1) translate(-16.993464, -2.222222) "></path>
                        </g>
                        <rect id="Rectangle-640-Copy-11" fill="#EEEEEE" transform="translate(233.000000, 161.000000) scale(1, -1) translate(-233.000000, -161.000000) " x="215" y="145" width="36" height="32" rx="2"></rect>
                        <path d="M243,161 L250,161" id="Line-Copy-57" stroke="#50E3C2" stroke-width="2" stroke-linecap="square"></path>
                        <path d="M216,161 L223,161" id="Line-Copy-58" stroke="#50E3C2" stroke-width="2" stroke-linecap="square"></path>
                        <g id="Icon-/-!default" transform="translate(223.000000, 159.000000)" fill="#222222">
                            <path d="M12.4618736,2.22222222 C12.4618736,1.55555556 12.2352941,1.11111111 11.7821351,0.666666667 C11.328976,0.222222222 10.7625272,0 10.1960784,0 C9.51633987,0 9.06318083,0.222222222 8.61002179,0.666666667 C8.15686275,1.11111111 7.93028322,1.66666667 7.93028322,2.22222222 C7.93028322,2.77777778 8.15686275,3.33333333 8.61002179,3.77777778 C9.06318083,4.22222222 9.62962963,4.44444444 10.1960784,4.44444444 C10.7625272,4.44444444 11.328976,4.22222222 11.7821351,3.77777778 C12.2352941,3.33333333 12.4618736,2.77777778 12.4618736,2.22222222 L12.4618736,2.22222222 Z" id="Shape-Copy-5" transform="translate(10.196078, 2.222222) scale(1, -1) translate(-10.196078, -2.222222) "></path>
                            <path d="M4.92374728,2.22222222 C4.92374728,1.55555556 4.69716776,1.11111111 4.24400871,0.666666667 C3.79084967,0.222222222 3.22440087,0 2.65795207,0 C1.97821351,0 1.52505447,0.222222222 1.07189542,0.666666667 C0.618736383,1.11111111 0.392156863,1.66666667 0.392156863,2.22222222 C0.392156863,2.77777778 0.618736383,3.33333333 1.07189542,3.77777778 C1.52505447,4.22222222 2.09150327,4.44444444 2.65795207,4.44444444 C3.22440087,4.44444444 3.79084967,4.22222222 4.24400871,3.77777778 C4.69716776,3.33333333 4.92374728,2.77777778 4.92374728,2.22222222 L4.92374728,2.22222222 Z" id="Shape-Copy-6" transform="translate(2.657952, 2.222222) scale(1, -1) translate(-2.657952, -2.222222) "></path>
                            <path d="M19.2592593,2.22222222 C19.2592593,1.55555556 19.0326797,1.11111111 18.5795207,0.666666667 C18.1263617,0.222222222 17.5599129,0 16.9934641,0 C16.3137255,0 15.8605664,0.222222222 15.4074074,0.666666667 C14.9542484,1.11111111 14.7276688,1.66666667 14.7276688,2.22222222 C14.7276688,2.77777778 14.9542484,3.33333333 15.4074074,3.77777778 C15.8605664,4.22222222 16.4270153,4.44444444 16.9934641,4.44444444 C17.5599129,4.44444444 18.1263617,4.22222222 18.5795207,3.77777778 C19.0326797,3.33333333 19.2592593,2.77777778 19.2592593,2.22222222 L19.2592593,2.22222222 Z" id="Shape-Copy-7" transform="translate(16.993464, 2.222222) scale(1, -1) translate(-16.993464, -2.222222) "></path>
                        </g>
                        <g id="Rectangle-640-Copy-12" transform="translate(233.000000, 210.000000) scale(1, -1) translate(-233.000000, -210.000000) ">
                            <use fill="#D9D9D9" fill-rule="evenodd" xlink:href="#path-12"></use>
                            <rect stroke="#D9D9D9" stroke-width="1" x="214.5" y="193.5" width="37" height="33" rx="2"></rect>
                        </g>
                        <g id="Icon-/-!default" transform="translate(223.000000, 208.000000)" fill="#222222">
                            <path d="M12.4618736,2.22222222 C12.4618736,1.55555556 12.2352941,1.11111111 11.7821351,0.666666667 C11.328976,0.222222222 10.7625272,0 10.1960784,0 C9.51633987,0 9.06318083,0.222222222 8.61002179,0.666666667 C8.15686275,1.11111111 7.93028322,1.66666667 7.93028322,2.22222222 C7.93028322,2.77777778 8.15686275,3.33333333 8.61002179,3.77777778 C9.06318083,4.22222222 9.62962963,4.44444444 10.1960784,4.44444444 C10.7625272,4.44444444 11.328976,4.22222222 11.7821351,3.77777778 C12.2352941,3.33333333 12.4618736,2.77777778 12.4618736,2.22222222 L12.4618736,2.22222222 Z" id="Shape-Copy-5" transform="translate(10.196078, 2.222222) scale(1, -1) translate(-10.196078, -2.222222) "></path>
                            <path d="M4.92374728,2.22222222 C4.92374728,1.55555556 4.69716776,1.11111111 4.24400871,0.666666667 C3.79084967,0.222222222 3.22440087,0 2.65795207,0 C1.97821351,0 1.52505447,0.222222222 1.07189542,0.666666667 C0.618736383,1.11111111 0.392156863,1.66666667 0.392156863,2.22222222 C0.392156863,2.77777778 0.618736383,3.33333333 1.07189542,3.77777778 C1.52505447,4.22222222 2.09150327,4.44444444 2.65795207,4.44444444 C3.22440087,4.44444444 3.79084967,4.22222222 4.24400871,3.77777778 C4.69716776,3.33333333 4.92374728,2.77777778 4.92374728,2.22222222 L4.92374728,2.22222222 Z" id="Shape-Copy-6" transform="translate(2.657952, 2.222222) scale(1, -1) translate(-2.657952, -2.222222) "></path>
                            <path d="M19.2592593,2.22222222 C19.2592593,1.55555556 19.0326797,1.11111111 18.5795207,0.666666667 C18.1263617,0.222222222 17.5599129,0 16.9934641,0 C16.3137255,0 15.8605664,0.222222222 15.4074074,0.666666667 C14.9542484,1.11111111 14.7276688,1.66666667 14.7276688,2.22222222 C14.7276688,2.77777778 14.9542484,3.33333333 15.4074074,3.77777778 C15.8605664,4.22222222 16.4270153,4.44444444 16.9934641,4.44444444 C17.5599129,4.44444444 18.1263617,4.22222222 18.5795207,3.77777778 C19.0326797,3.33333333 19.2592593,2.77777778 19.2592593,2.22222222 L19.2592593,2.22222222 Z" id="Shape-Copy-7" transform="translate(16.993464, 2.222222) scale(1, -1) translate(-16.993464, -2.222222) "></path>
                        </g>
                        <g id="Rectangle-640-Copy-13" stroke="#3366CC">
                            <rect x="214.5" y="244.5" width="37" height="33" rx="2"></rect>
                            <rect x="215.5" y="245.5" width="35" height="31" rx="2"></rect>
                        </g>
                        <g id="Icon-/-!default" transform="translate(223.000000, 259.000000)" fill="#222222">
                            <path d="M12.4618736,2.22222222 C12.4618736,1.55555556 12.2352941,1.11111111 11.7821351,0.666666667 C11.328976,0.222222222 10.7625272,0 10.1960784,0 C9.51633987,0 9.06318083,0.222222222 8.61002179,0.666666667 C8.15686275,1.11111111 7.93028322,1.66666667 7.93028322,2.22222222 C7.93028322,2.77777778 8.15686275,3.33333333 8.61002179,3.77777778 C9.06318083,4.22222222 9.62962963,4.44444444 10.1960784,4.44444444 C10.7625272,4.44444444 11.328976,4.22222222 11.7821351,3.77777778 C12.2352941,3.33333333 12.4618736,2.77777778 12.4618736,2.22222222 L12.4618736,2.22222222 Z" id="Shape-Copy-5" transform="translate(10.196078, 2.222222) scale(1, -1) translate(-10.196078, -2.222222) "></path>
                            <path d="M4.92374728,2.22222222 C4.92374728,1.55555556 4.69716776,1.11111111 4.24400871,0.666666667 C3.79084967,0.222222222 3.22440087,0 2.65795207,0 C1.97821351,0 1.52505447,0.222222222 1.07189542,0.666666667 C0.618736383,1.11111111 0.392156863,1.66666667 0.392156863,2.22222222 C0.392156863,2.77777778 0.618736383,3.33333333 1.07189542,3.77777778 C1.52505447,4.22222222 2.09150327,4.44444444 2.65795207,4.44444444 C3.22440087,4.44444444 3.79084967,4.22222222 4.24400871,3.77777778 C4.69716776,3.33333333 4.92374728,2.77777778 4.92374728,2.22222222 L4.92374728,2.22222222 Z" id="Shape-Copy-6" transform="translate(2.657952, 2.222222) scale(1, -1) translate(-2.657952, -2.222222) "></path>
                            <path d="M19.2592593,2.22222222 C19.2592593,1.55555556 19.0326797,1.11111111 18.5795207,0.666666667 C18.1263617,0.222222222 17.5599129,0 16.9934641,0 C16.3137255,0 15.8605664,0.222222222 15.4074074,0.666666667 C14.9542484,1.11111111 14.7276688,1.66666667 14.7276688,2.22222222 C14.7276688,2.77777778 14.9542484,3.33333333 15.4074074,3.77777778 C15.8605664,4.22222222 16.4270153,4.44444444 16.9934641,4.44444444 C17.5599129,4.44444444 18.1263617,4.22222222 18.5795207,3.77777778 C19.0326797,3.33333333 19.2592593,2.77777778 19.2592593,2.22222222 L19.2592593,2.22222222 Z" id="Shape-Copy-7" transform="translate(16.993464, 2.222222) scale(1, -1) translate(-16.993464, -2.222222) "></path>
                        </g>
                        <g id="101-/-Headline--Sub">
                            <text id="SUBHEADLINE" font-family="Lato-Bold, Lato" font-size="14" font-weight="bold" line-spacing="14" fill="#222222">
                                <tspan x="0" y="13">ICON</tspan>
                            </text>
                            <g id="101-/-Headline__line" transform="translate(0.000000, 22.000000)" stroke="#222222" stroke-width="1" stroke-linecap="square">
                                <path d="M189.483696,1.5 L0.516304348,1.5" id="Line"></path>
                            </g>
                        </g>
                    </g>
                    <g id="Cursor-/-Pointer" transform="translate(259.000000, 130.000000)">
                        <g id="Cursor-Pointer">
                            <use fill="black" fill-opacity="1" filter="url(#filter-15)" xlink:href="#path-14"></use>
                            <use fill="#FFFFFF" fill-rule="evenodd" xlink:href="#path-14"></use>
                            <path stroke="#000000" stroke-width="1" d="M18.095452,12.3777591 C18.0948912,11.4475593 17.3335344,10.6960268 16.3978922,10.6960268 C16.10688,10.6960268 15.8327664,10.7687518 15.5931989,10.8969793 C15.3133259,10.0818718 14.5229268,9.49766674 13.5963856,9.49766674 C13.1672561,9.49766674 12.7687636,9.62309774 12.4371411,9.83891321 C12.2017759,8.95226109 11.3696842,8.29930669 10.3928923,8.29930669 C9.99458465,8.29930669 9.62275187,8.40813447 9.30654522,8.59739976 L9.30654522,1.42515249 C9.30654522,0.365060667 8.4475222,-0.5 7.39619224,-0.5 C6.34627404,-0.5 5.49863882,0.364390213 5.49863882,1.42515249 L5.49863882,14.9990679 L2.79149833,11.4981494 C2.33990048,10.7256484 1.25796465,10.4579954 0.408016869,10.9372976 C-0.448495824,11.4208575 -0.757186346,12.4871638 -0.266517693,13.3181807 C-0.221942375,13.3880215 -0.221942375,13.3880215 -0.0679723281,13.6265707 C0.137397398,13.944607 0.248691135,14.1168648 0.428630429,14.3951327 C0.942759518,15.1902097 1.45803808,15.9852984 1.94061413,16.727459 C1.95455156,16.7488931 1.95455156,16.7488931 1.96848974,16.7703263 C2.72477886,17.9332706 3.32594411,18.8510815 3.71509077,19.4347338 C3.97897576,19.8305154 4.25954481,20.2204113 4.73613542,20.8635322 C4.77572637,20.916944 4.77572637,20.916944 4.81529743,20.9702918 C6.19563371,22.8309976 6.66859982,23.5786103 6.66859982,24 L6.66859982,24.5 L7.16859982,24.5 L15.1579335,24.5 L15.6579335,24.5 L15.6579335,24 C15.6579335,23.4442918 15.8127426,23.093397 16.8234169,21.1474064 C17.5230199,19.8003644 17.8804952,18.9306924 18.0348962,17.9890448 C18.0788416,17.7210344 18.1014521,17.45899 18.1014521,17.2018266 L18.1014521,13.9627346 L18.095452,12.3777591 L18.095452,12.3777591 Z"></path>
                        </g>
                    </g>
                    <g id="Cursor-/-Pointer" transform="translate(258.000000, 186.000000)">
                        <g id="Cursor-Pointer">
                            <use fill="black" fill-opacity="1" filter="url(#filter-17)" xlink:href="#path-16"></use>
                            <use fill="#FFFFFF" fill-rule="evenodd" xlink:href="#path-16"></use>
                            <path stroke="#000000" stroke-width="1" d="M18.095452,12.3777591 C18.0948912,11.4475593 17.3335344,10.6960268 16.3978922,10.6960268 C16.10688,10.6960268 15.8327664,10.7687518 15.5931989,10.8969793 C15.3133259,10.0818718 14.5229268,9.49766674 13.5963856,9.49766674 C13.1672561,9.49766674 12.7687636,9.62309774 12.4371411,9.83891321 C12.2017759,8.95226109 11.3696842,8.29930669 10.3928923,8.29930669 C9.99458465,8.29930669 9.62275187,8.40813447 9.30654522,8.59739976 L9.30654522,1.42515249 C9.30654522,0.365060667 8.4475222,-0.5 7.39619224,-0.5 C6.34627404,-0.5 5.49863882,0.364390213 5.49863882,1.42515249 L5.49863882,14.9990679 L2.79149833,11.4981494 C2.33990048,10.7256484 1.25796465,10.4579954 0.408016869,10.9372976 C-0.448495824,11.4208575 -0.757186346,12.4871638 -0.266517693,13.3181807 C-0.221942375,13.3880215 -0.221942375,13.3880215 -0.0679723281,13.6265707 C0.137397398,13.944607 0.248691135,14.1168648 0.428630429,14.3951327 C0.942759518,15.1902097 1.45803808,15.9852984 1.94061413,16.727459 C1.95455156,16.7488931 1.95455156,16.7488931 1.96848974,16.7703263 C2.72477886,17.9332706 3.32594411,18.8510815 3.71509077,19.4347338 C3.97897576,19.8305154 4.25954481,20.2204113 4.73613542,20.8635322 C4.77572637,20.916944 4.77572637,20.916944 4.81529743,20.9702918 C6.19563371,22.8309976 6.66859982,23.5786103 6.66859982,24 L6.66859982,24.5 L7.16859982,24.5 L15.1579335,24.5 L15.6579335,24.5 L15.6579335,24 C15.6579335,23.4442918 15.8127426,23.093397 16.8234169,21.1474064 C17.5230199,19.8003644 17.8804952,18.9306924 18.0348962,17.9890448 C18.0788416,17.7210344 18.1014521,17.45899 18.1014521,17.2018266 L18.1014521,13.9627346 L18.095452,12.3777591 L18.095452,12.3777591 Z"></path>
                        </g>
                    </g>
                    <g id="Cursor-/-!default" transform="translate(265.000000, 23.000000)">
                        <g id="cursor">
                            <use fill="black" fill-opacity="1" filter="url(#filter-19)" xlink:href="#path-18"></use>
                            <use fill="#000000" fill-rule="evenodd" xlink:href="#path-18"></use>
                            <path stroke="#FFFFFF" stroke-width="1" d="M6.44805157,11.7871647 L10.8145819,12.0290342 C12.0289467,11.9009082 12.390083,10.912736 11.5978897,10.0958485 L0.936743625,-0.0608329699 C0.490703685,-0.521940513 0.196479729,-0.698622715 -0.202577288,-0.35941243 C-0.447188468,-0.15148568 -0.473259969,0.051426302 -0.474330291,0.669279596 L-0.499996898,14.983604 C-0.501889691,16.1215055 0.444640548,16.5813536 1.34552169,15.8859589 L1.42326646,15.8112636 L3.90605662,12.8478493 L6.61399912,19.7006158 C6.8877013,20.3802565 7.68317947,20.6755944 8.37968284,20.3933668 C9.07500287,20.1136726 9.44237709,19.3483989 9.16903318,18.6729326 L6.44805157,11.7871647 Z"></path>
                        </g>
                    </g>
                    <text id="State-Description" font-family="Lato-Regular, Lato" font-size="14" font-weight="normal" line-spacing="18.7999992" fill="#72777D">
                        <tspan x="0" y="21"> DISABLED</tspan>
                        <tspan x="0" y="39.7999992"></tspan>
                        <tspan x="0" y="58.5999985"></tspan>
                        <tspan x="0" y="77.3999977"> NORMAL</tspan>
                        <tspan x="0" y="96.1999969"></tspan>
                        <tspan x="0" y="114.999996"></tspan>
                        <tspan x="0" y="133.799995">:HOVER</tspan>
                        <tspan x="0" y="152.599995"></tspan>
                        <tspan x="0" y="171.399994"></tspan>
                        <tspan x="0" y="190.199993">:ACTIVE</tspan>
                        <tspan x="0" y="208.999992"></tspan>
                        <tspan x="0" y="227.799992"></tspan>
                        <tspan x="0" y="246.599991">:FOCUS</tspan>
                    </text>
                </g>
            </g>
        </g>
    </g>
</svg>