<?xml version="1.0" encoding="UTF-8"?>
<svg xmlns="http://www.w3.org/2000/svg" width="158" height="36" viewBox="0 0 158 36">
	<title>
		Radio_Buttons_intro_on
	</title>
	<desc>
		Created with Sketch.
	</desc>
	<g id="Artboard-page" fill="none" fill-rule="evenodd" stroke="none" stroke-width="1">
		<g id="WikimediaUI-components_overview" transform="translate(-6311 -255)">
			<path fill="#FFF" d="M0 0h14720v3264H0z"/>
			<g id="RADIO-BUTTONS---DESKTOP" transform="translate(5840 143)">
				<g id="Radio-Buttons-X" transform="translate(0 113)">
					<g id="Radio-/-!default" transform="translate(192)">
						<text id="8:16:8:16-copy-22" fill="#222" font-family="HelveticaNeue, Helvetica Neue, sans-serif" font-size="16" font-weight="normal">
							<tspan x="33" y="22">Neutral point</tspan>
						</text>
						<path id="Oval-112-Copy-2" fill="#FFF" fill-rule="evenodd" stroke="#72777D" stroke-width="1" d="M12 28.5C5.096 28.5-.5 22.904-.5 16S5.096 3.5 12 3.5 24.5 9.096 24.5 16 18.904 28.5 12 28.5z"/>
					</g>
					<g id="Radio-/-:checked-/-!default" transform="translate(480)">
						<text id="8:16:8:16-copy-25" fill="#222" font-family="HelveticaNeue, Helvetica Neue, sans-serif" font-size="16" font-weight="normal">
							<tspan x="33" y="22">Neutral point</tspan>
						</text>
						<g id="Oval-112-Copy-3-+-Oval-59-Copy-2" fill-rule="evenodd" stroke-width="1" transform="translate(0 4)">
							<path id="Oval-112-Copy-3" fill="#36C" stroke="#36C" d="M12 24.5C5.096 24.5-.5 18.904-.5 12S5.096-.5 12-.5 24.5 5.096 24.5 12 18.904 24.5 12 24.5z"/>
							<path id="Oval-59-Copy-2" fill="#FFF" d="M12 18a6 6 0 100-12 6 6 0 000 12z"/>
						</g>
					</g>
				</g>
			</g>
		</g>
	</g>
</svg>
