<?xml version="1.0" encoding="UTF-8"?>
<svg xmlns="http://www.w3.org/2000/svg" width="158" height="36" viewBox="0 0 158 36">
	<title>
		radio_buttons_intro_off
	</title>
	<g id="Artboard-page" fill="none" fill-rule="evenodd" stroke="none" stroke-width="1">
		<g id="WikimediaUI-components_overview" transform="translate(-6023 -255)">
			<path fill="#FFF" d="M0 0h14720v3264H0z"/>
			<g id="RADIO-BUTTONS---DESKTOP" transform="translate(5840 143)">
				<g id="Radio-Buttons-X" transform="translate(0 113)">
					<g id="Radio-/-!default" transform="translate(192)">
						<text id="Label" fill="#202122" font-family="HelveticaNeue, Helvetica Neue, sans-serif" font-size="16" font-weight="normal">
							<tspan x="32" y="22">Neutral point</tspan>
						</text>
						<path id="Oval-112-Copy-2" fill="#FFF" fill-rule="evenodd" stroke="#72777D" stroke-width="1" d="M12 4.5c-3.176 0-6.05 1.287-8.132 3.368A11.464 11.464 0 00.5 16c0 3.176 1.287 6.05 3.368 8.132A11.464 11.464 0 0012 27.5c3.176 0 6.05-1.287 8.132-3.368A11.464 11.464 0 0023.5 16c0-3.176-1.287-6.05-3.368-8.132A11.464 11.464 0 0012 4.5z"/>
					</g>
				</g>
			</g>
		</g>
	</g>
</svg>
