<?xml version="1.0" encoding="UTF-8" standalone="no"?>
<svg width="617px" height="683px" viewBox="0 0 617 683" version="1.1" xmlns="http://www.w3.org/2000/svg" xmlns:xlink="http://www.w3.org/1999/xlink">
    <defs>
        <path d="M12,28 C18.627417,28 24,22.627417 24,16 C24,9.372583 18.627417,4 12,4 C5.372583,4 0,9.372583 0,16 C0,22.627417 5.372583,28 12,28 Z" id="path-1"></path>
        <path d="M12,28 C18.627417,28 24,22.627417 24,16 C24,9.372583 18.627417,4 12,4 C5.372583,4 0,9.372583 0,16 C0,22.627417 5.372583,28 12,28 Z" id="path-2"></path>
        <path d="M12,28 C18.627417,28 24,22.627417 24,16 C24,9.372583 18.627417,4 12,4 C5.372583,4 0,9.372583 0,16 C0,22.627417 5.372583,28 12,28 Z" id="path-3"></path>
        <circle id="path-4" cx="12" cy="16" r="12"></circle>
        <circle id="path-5" cx="12" cy="16" r="12"></circle>
        <circle id="path-6" cx="12" cy="12" r="12"></circle>
        <circle id="path-7" cx="12" cy="12" r="12"></circle>
        <path d="M12,28 C18.627417,28 24,22.627417 24,16 C24,9.372583 18.627417,4 12,4 C5.372583,4 0,9.372583 0,16 C0,22.627417 5.372583,28 12,28 Z" id="path-8"></path>
        <path d="M12,28 C18.627417,28 24,22.627417 24,16 C24,9.372583 18.627417,4 12,4 C5.372583,4 0,9.372583 0,16 C0,22.627417 5.372583,28 12,28 Z" id="path-9"></path>
        <path d="M12,24 C18.627417,24 24,18.627417 24,12 C24,5.372583 18.627417,0 12,0 C5.372583,0 0,5.372583 0,12 C0,18.627417 5.372583,24 12,24 Z" id="path-10"></path>
        <circle id="path-11" cx="12" cy="16" r="12"></circle>
        <path d="M12,24 C18.627417,24 24,18.627417 24,12 C24,5.372583 18.627417,0 12,0 C5.372583,0 0,5.372583 0,12 C0,18.627417 5.372583,24 12,24 Z" id="path-12"></path>
        <circle id="path-13" cx="12" cy="12" r="12"></circle>
        <path d="M12,28 C18.627417,28 24,22.627417 24,16 C24,9.372583 18.627417,4 12,4 C5.372583,4 0,9.372583 0,16 C0,22.627417 5.372583,28 12,28 Z" id="path-14"></path>
        <path d="M17.5954523,12.3787874 C17.5954523,11.7256091 17.0590701,11.1960268 16.3978922,11.1960268 C15.7383142,11.1960268 15.203532,11.7232092 15.2015321,12.3747875 L15.2015321,11.548815 C15.2015321,10.6920436 14.483156,9.99766674 13.5963856,9.99766674 C12.7096151,9.99766674 12.0036387,10.6920436 12.0036387,11.548815 L12.0036387,10.350455 C12.0036387,9.49368354 11.2756629,8.79930669 10.3928923,8.79930669 C9.51012177,8.79930669 8.80654522,9.49408353 8.80654522,10.350455 L8.80654522,1.42515249 C8.80654522,0.637978734 8.1681665,-2.30926389e-14 7.39619224,-2.30926389e-14 C6.62461796,-2.30926389e-14 5.99863882,0.638378721 5.99863882,1.42515249 L5.99863882,16.4630512 L2.39595891,11.8040065 C2.04997044,11.2180261 1.26999644,11.0252325 0.653616989,11.3728209 C0.0372375346,11.7208093 -0.181955159,12.4779841 0.164033308,13.0639645 C0.164033308,13.0639645 2.9811394,17.4326189 4.13110107,19.1573614 C5.28106274,20.8821039 7.16859982,23.009633 7.16859982,24 L15.1579335,24 C15.1579335,22.3280557 17.6014521,19.7165428 17.6014521,17.2018266 L17.6014521,13.9627346 L17.5954523,12.3787874 Z" id="path-15"></path>
        <filter x="-42.6%" y="-18.8%" width="185.2%" height="162.5%" filterUnits="objectBoundingBox" id="filter-16">
            <feMorphology radius="1" operator="dilate" in="SourceAlpha" result="shadowSpreadOuter1"></feMorphology>
            <feOffset dx="0" dy="1" in="shadowSpreadOuter1" result="shadowOffsetOuter1"></feOffset>
            <feGaussianBlur stdDeviation="0.5" in="shadowOffsetOuter1" result="shadowBlurOuter1"></feGaussianBlur>
            <feComposite in="shadowBlurOuter1" in2="SourceAlpha" operator="out" result="shadowBlurOuter1"></feComposite>
            <feColorMatrix values="0 0 0 0 0   0 0 0 0 0   0 0 0 0 0  0 0 0 0.582908741 0" type="matrix" in="shadowBlurOuter1" result="shadowMatrixOuter1"></feColorMatrix>
            <feMorphology radius="1" operator="dilate" in="SourceAlpha" result="shadowSpreadOuter2"></feMorphology>
            <feOffset dx="0" dy="2" in="shadowSpreadOuter2" result="shadowOffsetOuter2"></feOffset>
            <feGaussianBlur stdDeviation="1.5" in="shadowOffsetOuter2" result="shadowBlurOuter2"></feGaussianBlur>
            <feComposite in="shadowBlurOuter2" in2="SourceAlpha" operator="out" result="shadowBlurOuter2"></feComposite>
            <feColorMatrix values="0 0 0 0 0   0 0 0 0 0   0 0 0 0 0  0 0 0 0.179347826 0" type="matrix" in="shadowBlurOuter2" result="shadowMatrixOuter2"></feColorMatrix>
            <feMerge>
                <feMergeNode in="shadowMatrixOuter1"></feMergeNode>
                <feMergeNode in="shadowMatrixOuter2"></feMergeNode>
            </feMerge>
        </filter>
        <path d="M17.5954523,12.3787874 C17.5954523,11.7256091 17.0590701,11.1960268 16.3978922,11.1960268 C15.7383142,11.1960268 15.203532,11.7232092 15.2015321,12.3747875 L15.2015321,11.548815 C15.2015321,10.6920436 14.483156,9.99766674 13.5963856,9.99766674 C12.7096151,9.99766674 12.0036387,10.6920436 12.0036387,11.548815 L12.0036387,10.350455 C12.0036387,9.49368354 11.2756629,8.79930669 10.3928923,8.79930669 C9.51012177,8.79930669 8.80654522,9.49408353 8.80654522,10.350455 L8.80654522,1.42515249 C8.80654522,0.637978734 8.1681665,-2.30926389e-14 7.39619224,-2.30926389e-14 C6.62461796,-2.30926389e-14 5.99863882,0.638378721 5.99863882,1.42515249 L5.99863882,16.4630512 L2.39595891,11.8040065 C2.04997044,11.2180261 1.26999644,11.0252325 0.653616989,11.3728209 C0.0372375346,11.7208093 -0.181955159,12.4779841 0.164033308,13.0639645 C0.164033308,13.0639645 2.9811394,17.4326189 4.13110107,19.1573614 C5.28106274,20.8821039 7.16859982,23.009633 7.16859982,24 L15.1579335,24 C15.1579335,22.3280557 17.6014521,19.7165428 17.6014521,17.2018266 L17.6014521,13.9627346 L17.5954523,12.3787874 Z" id="path-17"></path>
        <filter x="-42.6%" y="-18.8%" width="185.2%" height="162.5%" filterUnits="objectBoundingBox" id="filter-18">
            <feMorphology radius="1" operator="dilate" in="SourceAlpha" result="shadowSpreadOuter1"></feMorphology>
            <feOffset dx="0" dy="1" in="shadowSpreadOuter1" result="shadowOffsetOuter1"></feOffset>
            <feGaussianBlur stdDeviation="0.5" in="shadowOffsetOuter1" result="shadowBlurOuter1"></feGaussianBlur>
            <feComposite in="shadowBlurOuter1" in2="SourceAlpha" operator="out" result="shadowBlurOuter1"></feComposite>
            <feColorMatrix values="0 0 0 0 0   0 0 0 0 0   0 0 0 0 0  0 0 0 0.582908741 0" type="matrix" in="shadowBlurOuter1" result="shadowMatrixOuter1"></feColorMatrix>
            <feMorphology radius="1" operator="dilate" in="SourceAlpha" result="shadowSpreadOuter2"></feMorphology>
            <feOffset dx="0" dy="2" in="shadowSpreadOuter2" result="shadowOffsetOuter2"></feOffset>
            <feGaussianBlur stdDeviation="1.5" in="shadowOffsetOuter2" result="shadowBlurOuter2"></feGaussianBlur>
            <feComposite in="shadowBlurOuter2" in2="SourceAlpha" operator="out" result="shadowBlurOuter2"></feComposite>
            <feColorMatrix values="0 0 0 0 0   0 0 0 0 0   0 0 0 0 0  0 0 0 0.179347826 0" type="matrix" in="shadowBlurOuter2" result="shadowMatrixOuter2"></feColorMatrix>
            <feMerge>
                <feMergeNode in="shadowMatrixOuter1"></feMergeNode>
                <feMergeNode in="shadowMatrixOuter2"></feMergeNode>
            </feMerge>
        </filter>
        <path d="M6.13211402,11.2688979 L10.8422354,11.5297995 C11.562075,11.4497464 11.7406967,10.9613193 11.2389527,10.443935 L0.591868541,0.301190754 C0.0905803995,-0.216377736 0.0269163636,-0.0499300062 0.0256689588,0.670145757 L2.29782166e-06,14.9845005 C-0.00119676849,15.7053522 0.467038737,15.932432 1.04000173,15.490159 L3.78168123,12.217739 C3.87724299,12.1438668 3.98988305,12.0715788 4.10864258,12 L7.07900942,19.5168621 C7.24412875,19.9268592 7.74262137,20.1120195 8.19190947,19.929965 C8.64097423,19.7493265 8.87107252,19.2695313 8.70554568,18.8604942 L5.73444213,11.3418087 L6.13211402,11.2688979 Z" id="path-19"></path>
        <filter x="-65.1%" y="-22.5%" width="230.2%" height="175.0%" filterUnits="objectBoundingBox" id="filter-20">
            <feMorphology radius="1" operator="dilate" in="SourceAlpha" result="shadowSpreadOuter1"></feMorphology>
            <feOffset dx="0" dy="1" in="shadowSpreadOuter1" result="shadowOffsetOuter1"></feOffset>
            <feGaussianBlur stdDeviation="0.5" in="shadowOffsetOuter1" result="shadowBlurOuter1"></feGaussianBlur>
            <feComposite in="shadowBlurOuter1" in2="SourceAlpha" operator="out" result="shadowBlurOuter1"></feComposite>
            <feColorMatrix values="0 0 0 0 0   0 0 0 0 0   0 0 0 0 0  0 0 0 0.582908741 0" type="matrix" in="shadowBlurOuter1" result="shadowMatrixOuter1"></feColorMatrix>
            <feMorphology radius="1" operator="dilate" in="SourceAlpha" result="shadowSpreadOuter2"></feMorphology>
            <feOffset dx="0" dy="2" in="shadowSpreadOuter2" result="shadowOffsetOuter2"></feOffset>
            <feGaussianBlur stdDeviation="1.5" in="shadowOffsetOuter2" result="shadowBlurOuter2"></feGaussianBlur>
            <feComposite in="shadowBlurOuter2" in2="SourceAlpha" operator="out" result="shadowBlurOuter2"></feComposite>
            <feColorMatrix values="0 0 0 0 0   0 0 0 0 0   0 0 0 0 0  0 0 0 0.179347826 0" type="matrix" in="shadowBlurOuter2" result="shadowMatrixOuter2"></feColorMatrix>
            <feMerge>
                <feMergeNode in="shadowMatrixOuter1"></feMergeNode>
                <feMergeNode in="shadowMatrixOuter2"></feMergeNode>
            </feMerge>
        </filter>
        <path d="M17.5954523,12.3787874 C17.5954523,11.7256091 17.0590701,11.1960268 16.3978922,11.1960268 C15.7383142,11.1960268 15.203532,11.7232092 15.2015321,12.3747875 L15.2015321,11.548815 C15.2015321,10.6920436 14.483156,9.99766674 13.5963856,9.99766674 C12.7096151,9.99766674 12.0036387,10.6920436 12.0036387,11.548815 L12.0036387,10.350455 C12.0036387,9.49368354 11.2756629,8.79930669 10.3928923,8.79930669 C9.51012177,8.79930669 8.80654522,9.49408353 8.80654522,10.350455 L8.80654522,1.42515249 C8.80654522,0.637978734 8.1681665,-2.30926389e-14 7.39619224,-2.30926389e-14 C6.62461796,-2.30926389e-14 5.99863882,0.638378721 5.99863882,1.42515249 L5.99863882,16.4630512 L2.39595891,11.8040065 C2.04997044,11.2180261 1.26999644,11.0252325 0.653616989,11.3728209 C0.0372375346,11.7208093 -0.181955159,12.4779841 0.164033308,13.0639645 C0.164033308,13.0639645 2.9811394,17.4326189 4.13110107,19.1573614 C5.28106274,20.8821039 7.16859982,23.009633 7.16859982,24 L15.1579335,24 C15.1579335,22.3280557 17.6014521,19.7165428 17.6014521,17.2018266 L17.6014521,13.9627346 L17.5954523,12.3787874 Z" id="path-21"></path>
        <filter x="-42.6%" y="-18.8%" width="185.2%" height="162.5%" filterUnits="objectBoundingBox" id="filter-22">
            <feMorphology radius="1" operator="dilate" in="SourceAlpha" result="shadowSpreadOuter1"></feMorphology>
            <feOffset dx="0" dy="1" in="shadowSpreadOuter1" result="shadowOffsetOuter1"></feOffset>
            <feGaussianBlur stdDeviation="0.5" in="shadowOffsetOuter1" result="shadowBlurOuter1"></feGaussianBlur>
            <feComposite in="shadowBlurOuter1" in2="SourceAlpha" operator="out" result="shadowBlurOuter1"></feComposite>
            <feColorMatrix values="0 0 0 0 0   0 0 0 0 0   0 0 0 0 0  0 0 0 0.582908741 0" type="matrix" in="shadowBlurOuter1" result="shadowMatrixOuter1"></feColorMatrix>
            <feMorphology radius="1" operator="dilate" in="SourceAlpha" result="shadowSpreadOuter2"></feMorphology>
            <feOffset dx="0" dy="2" in="shadowSpreadOuter2" result="shadowOffsetOuter2"></feOffset>
            <feGaussianBlur stdDeviation="1.5" in="shadowOffsetOuter2" result="shadowBlurOuter2"></feGaussianBlur>
            <feComposite in="shadowBlurOuter2" in2="SourceAlpha" operator="out" result="shadowBlurOuter2"></feComposite>
            <feColorMatrix values="0 0 0 0 0   0 0 0 0 0   0 0 0 0 0  0 0 0 0.179347826 0" type="matrix" in="shadowBlurOuter2" result="shadowMatrixOuter2"></feColorMatrix>
            <feMerge>
                <feMergeNode in="shadowMatrixOuter1"></feMergeNode>
                <feMergeNode in="shadowMatrixOuter2"></feMergeNode>
            </feMerge>
        </filter>
        <path d="M17.5954523,12.3787874 C17.5954523,11.7256091 17.0590701,11.1960268 16.3978922,11.1960268 C15.7383142,11.1960268 15.203532,11.7232092 15.2015321,12.3747875 L15.2015321,11.548815 C15.2015321,10.6920436 14.483156,9.99766674 13.5963856,9.99766674 C12.7096151,9.99766674 12.0036387,10.6920436 12.0036387,11.548815 L12.0036387,10.350455 C12.0036387,9.49368354 11.2756629,8.79930669 10.3928923,8.79930669 C9.51012177,8.79930669 8.80654522,9.49408353 8.80654522,10.350455 L8.80654522,1.42515249 C8.80654522,0.637978734 8.1681665,-2.30926389e-14 7.39619224,-2.30926389e-14 C6.62461796,-2.30926389e-14 5.99863882,0.638378721 5.99863882,1.42515249 L5.99863882,16.4630512 L2.39595891,11.8040065 C2.04997044,11.2180261 1.26999644,11.0252325 0.653616989,11.3728209 C0.0372375346,11.7208093 -0.181955159,12.4779841 0.164033308,13.0639645 C0.164033308,13.0639645 2.9811394,17.4326189 4.13110107,19.1573614 C5.28106274,20.8821039 7.16859982,23.009633 7.16859982,24 L15.1579335,24 C15.1579335,22.3280557 17.6014521,19.7165428 17.6014521,17.2018266 L17.6014521,13.9627346 L17.5954523,12.3787874 Z" id="path-23"></path>
        <filter x="-42.6%" y="-18.8%" width="185.2%" height="162.5%" filterUnits="objectBoundingBox" id="filter-24">
            <feMorphology radius="1" operator="dilate" in="SourceAlpha" result="shadowSpreadOuter1"></feMorphology>
            <feOffset dx="0" dy="1" in="shadowSpreadOuter1" result="shadowOffsetOuter1"></feOffset>
            <feGaussianBlur stdDeviation="0.5" in="shadowOffsetOuter1" result="shadowBlurOuter1"></feGaussianBlur>
            <feComposite in="shadowBlurOuter1" in2="SourceAlpha" operator="out" result="shadowBlurOuter1"></feComposite>
            <feColorMatrix values="0 0 0 0 0   0 0 0 0 0   0 0 0 0 0  0 0 0 0.582908741 0" type="matrix" in="shadowBlurOuter1" result="shadowMatrixOuter1"></feColorMatrix>
            <feMorphology radius="1" operator="dilate" in="SourceAlpha" result="shadowSpreadOuter2"></feMorphology>
            <feOffset dx="0" dy="2" in="shadowSpreadOuter2" result="shadowOffsetOuter2"></feOffset>
            <feGaussianBlur stdDeviation="1.5" in="shadowOffsetOuter2" result="shadowBlurOuter2"></feGaussianBlur>
            <feComposite in="shadowBlurOuter2" in2="SourceAlpha" operator="out" result="shadowBlurOuter2"></feComposite>
            <feColorMatrix values="0 0 0 0 0   0 0 0 0 0   0 0 0 0 0  0 0 0 0.179347826 0" type="matrix" in="shadowBlurOuter2" result="shadowMatrixOuter2"></feColorMatrix>
            <feMerge>
                <feMergeNode in="shadowMatrixOuter1"></feMergeNode>
                <feMergeNode in="shadowMatrixOuter2"></feMergeNode>
            </feMerge>
        </filter>
        <path d="M6.13211402,11.2688979 L10.8422354,11.5297995 C11.562075,11.4497464 11.7406967,10.9613193 11.2389527,10.443935 L0.591868541,0.301190754 C0.0905803995,-0.216377736 0.0269163636,-0.0499300062 0.0256689588,0.670145757 L2.29782166e-06,14.9845005 C-0.00119676849,15.7053522 0.467038737,15.932432 1.04000173,15.490159 L3.78168123,12.217739 C3.87724299,12.1438668 3.98988305,12.0715788 4.10864258,12 L7.07900942,19.5168621 C7.24412875,19.9268592 7.74262137,20.1120195 8.19190947,19.929965 C8.64097423,19.7493265 8.87107252,19.2695313 8.70554568,18.8604942 L5.73444213,11.3418087 L6.13211402,11.2688979 Z" id="path-25"></path>
        <filter x="-65.1%" y="-22.5%" width="230.2%" height="175.0%" filterUnits="objectBoundingBox" id="filter-26">
            <feMorphology radius="1" operator="dilate" in="SourceAlpha" result="shadowSpreadOuter1"></feMorphology>
            <feOffset dx="0" dy="1" in="shadowSpreadOuter1" result="shadowOffsetOuter1"></feOffset>
            <feGaussianBlur stdDeviation="0.5" in="shadowOffsetOuter1" result="shadowBlurOuter1"></feGaussianBlur>
            <feComposite in="shadowBlurOuter1" in2="SourceAlpha" operator="out" result="shadowBlurOuter1"></feComposite>
            <feColorMatrix values="0 0 0 0 0   0 0 0 0 0   0 0 0 0 0  0 0 0 0.582908741 0" type="matrix" in="shadowBlurOuter1" result="shadowMatrixOuter1"></feColorMatrix>
            <feMorphology radius="1" operator="dilate" in="SourceAlpha" result="shadowSpreadOuter2"></feMorphology>
            <feOffset dx="0" dy="2" in="shadowSpreadOuter2" result="shadowOffsetOuter2"></feOffset>
            <feGaussianBlur stdDeviation="1.5" in="shadowOffsetOuter2" result="shadowBlurOuter2"></feGaussianBlur>
            <feComposite in="shadowBlurOuter2" in2="SourceAlpha" operator="out" result="shadowBlurOuter2"></feComposite>
            <feColorMatrix values="0 0 0 0 0   0 0 0 0 0   0 0 0 0 0  0 0 0 0.179347826 0" type="matrix" in="shadowBlurOuter2" result="shadowMatrixOuter2"></feColorMatrix>
            <feMerge>
                <feMergeNode in="shadowMatrixOuter1"></feMergeNode>
                <feMergeNode in="shadowMatrixOuter2"></feMergeNode>
            </feMerge>
        </filter>
    </defs>
    <g id="Artboard-page" stroke="none" stroke-width="1" fill="none" fill-rule="evenodd">
        <g id="Artboard-M101" transform="translate(-5841.000000, -255.000000)">
            <g id="RADIO-BUTTONS---DESKTOP" transform="translate(5840.000000, 143.000000)">
                <g id="Radio-Button-X" transform="translate(0.000000, 80.000000)">
                    <g id="Radio-/-!default" transform="translate(192.000000, 419.000000)">
                        <text id="8:16:8:16-copy-22" font-family="HelveticaNeue, Helvetica Neue" font-size="16" font-weight="normal" fill="#222222">
                            <tspan x="33" y="22">Option 2</tspan>
                        </text>
                        <g id="Oval-112-Copy-2">
                            <use fill="#FFFFFF" fill-rule="evenodd" xlink:href="#path-1"></use>
                            <path stroke="#72777D" stroke-width="1" d="M12,28.5 C18.9035594,28.5 24.5,22.9035594 24.5,16 C24.5,9.09644063 18.9035594,3.5 12,3.5 C5.09644063,3.5 -0.5,9.09644063 -0.5,16 C-0.5,22.9035594 5.09644063,28.5 12,28.5 Z"></path>
                        </g>
                    </g>
                    <g id="Radio-/-!default" transform="translate(192.000000, 377.000000)">
                        <text id="8:16:8:16-copy-22" font-family="HelveticaNeue, Helvetica Neue" font-size="16" font-weight="normal" fill="#222222">
                            <tspan x="33" y="22">Option 1</tspan>
                        </text>
                        <g id="Oval-112-Copy-2">
                            <use fill="#FFFFFF" fill-rule="evenodd" xlink:href="#path-2"></use>
                            <path stroke="#72777D" stroke-width="1" d="M12,28.5 C18.9035594,28.5 24.5,22.9035594 24.5,16 C24.5,9.09644063 18.9035594,3.5 12,3.5 C5.09644063,3.5 -0.5,9.09644063 -0.5,16 C-0.5,22.9035594 5.09644063,28.5 12,28.5 Z"></path>
                        </g>
                    </g>
                    <g id="101-/-0.5em" transform="translate(217.000000, 391.000000)" stroke="#50E3C2" stroke-linecap="square">
                        <path d="M0.5,1.5 L7.5,1.5" id="0.5em"></path>
                        <path d="M0.5,0.5 L7.5,0.5" id="0.5em-copy"></path>
                        <path d="M0.5,3.5 L7.5,3.5" id="0.5em-copy-2"></path>
                        <path d="M0.5,2.5 L7.5,2.5" id="0.5em-copy-3"></path>
                    </g>
                    <g id="Radio-/---multiliner" transform="translate(192.000000, 580.000000)">
                        <g id="Radio-/-!default" transform="translate(1.000000, 5.000000)">
                            <text id="8:16:8:16-copy-22" font-family="HelveticaNeue, Helvetica Neue" font-size="16" font-weight="normal" fill="#222222">
                                <tspan x="33" y="22">Neutral point</tspan>
                            </text>
                            <g id="Oval-112-Copy-2">
                                <use fill="#FFFFFF" fill-rule="evenodd" xlink:href="#path-3"></use>
                                <path stroke="#72777D" stroke-width="1" d="M12,28.5 C18.9035594,28.5 24.5,22.9035594 24.5,16 C24.5,9.09644063 18.9035594,3.5 12,3.5 C5.09644063,3.5 -0.5,9.09644063 -0.5,16 C-0.5,22.9035594 5.09644063,28.5 12,28.5 Z"></path>
                            </g>
                        </g>
                        <rect id="Rectangle" fill="#FFFFFF" fill-rule="evenodd" x="33" y="0" width="169" height="60"></rect>
                        <text id="Option-title-Copy-4" font-family="HelveticaNeue, Helvetica Neue" font-size="14" font-weight="normal" line-spacing="20" fill="#222222">
                            <tspan x="33" y="34">Option with a really long</tspan>
                            <tspan x="33" y="54.3919983">label today</tspan>
                        </text>
                        <text id="Option-title" font-family="HelveticaNeue, Helvetica Neue" font-size="16" font-weight="normal" fill="#222222">
                            <tspan x="33" y="15">Option title</tspan>
                        </text>
                    </g>
                    <g id="Radio-/-:disabled" transform="translate(192.000000, 41.000000)">
                        <g id="Oval-112">
                            <use fill="#C8CCD1" fill-rule="evenodd" xlink:href="#path-4"></use>
                            <circle stroke="#C8CCD1" stroke-width="1" cx="12" cy="16" r="12.5"></circle>
                        </g>
                        <text id="8:16:8:16-copy-27" font-family="HelveticaNeue, Helvetica Neue" font-size="16" font-weight="normal" fill="#7D8389">
                            <tspan x="33" y="22">Neutral point</tspan>
                        </text>
                    </g>
                    <g id="Radio-/-:hover" transform="translate(192.000000, 153.000000)">
                        <circle id="Oval-112" stroke="#2962CC" stroke-width="1" cx="12" cy="16" r="12.5"></circle>
                        <text id="8:16:8:16-copy-16" font-family="HelveticaNeue, Helvetica Neue" font-size="16" font-weight="normal" fill="#222222">
                            <tspan x="33" y="22">Neutral point</tspan>
                        </text>
                    </g>
                    <g id="Radio-/-:active" transform="translate(192.000000, 209.000000)">
                        <g id="Oval-112">
                            <use fill="#2A4B8D" fill-rule="evenodd" xlink:href="#path-5"></use>
                            <circle stroke="#2A4B8D" stroke-width="1" cx="12" cy="16" r="12.5"></circle>
                            <circle stroke="#2A4B8D" stroke-width="1" cx="12" cy="16" r="11.5"></circle>
                        </g>
                        <text id="8:16:8:16-copy-16" font-family="HelveticaNeue, Helvetica Neue" font-size="16" font-weight="normal" fill="#222222">
                            <tspan x="33" y="22">Neutral point</tspan>
                        </text>
                    </g>
                    <g id="Radio-/-:checked-/-:hover" transform="translate(480.000000, 153.000000)">
                        <text id="8:16:8:16-copy-16" font-family="HelveticaNeue, Helvetica Neue" font-size="16" font-weight="normal" fill="#222222">
                            <tspan x="33" y="22">Neutral point</tspan>
                        </text>
                        <g id="Oval-112-+-Oval-59" stroke-width="1" fill-rule="evenodd" transform="translate(0.000000, 4.000000)">
                            <g id="Oval-112">
                                <use fill="#447FF5" fill-rule="evenodd" xlink:href="#path-6"></use>
                                <circle stroke="#447FF5" stroke-width="1" cx="12" cy="12" r="12.5"></circle>
                            </g>
                            <path d="M12,18 C15.3137085,18 18,15.3137085 18,12 C18,8.6862915 15.3137085,6 12,6 C8.6862915,6 6,8.6862915 6,12 C6,15.3137085 8.6862915,18 12,18 Z" id="Oval-59" fill="#FFFFFF"></path>
                        </g>
                    </g>
                    <text id="DISABLED-NORMAL-:HOV" font-family="Lato-Regular, Lato" font-size="14" font-weight="normal" line-spacing="18.7999992" fill="#72777D">
                        <tspan x="0" y="62"> DISABLED</tspan>
                        <tspan x="0" y="80.7999992"></tspan>
                        <tspan x="0" y="99.5999985"></tspan>
                        <tspan x="0" y="118.399998"> NORMAL</tspan>
                        <tspan x="0" y="137.199997"></tspan>
                        <tspan x="0" y="155.999996"></tspan>
                        <tspan x="0" y="174.799995">:HOVER</tspan>
                        <tspan x="0" y="193.599995"></tspan>
                        <tspan x="0" y="212.399994"></tspan>
                        <tspan x="0" y="231.199993">:ACTIVE</tspan>
                        <tspan x="0" y="249.999992"></tspan>
                        <tspan x="0" y="268.799992"></tspan>
                        <tspan x="0" y="287.599991">:FOCUS</tspan>
                    </text>
                    <g id="Radio-/-:checked-/-:disabled" transform="translate(480.000000, 41.000000)">
                        <text id="8:16:8:16-copy-24" font-family="HelveticaNeue, Helvetica Neue" font-size="16" font-weight="normal" fill="#7D8389">
                            <tspan x="33" y="22">Neutral point</tspan>
                        </text>
                        <g id="Oval-112-Copy-+-Oval-59-Copy" stroke-width="1" fill-rule="evenodd" transform="translate(0.000000, 4.000000)">
                            <g id="Oval-112-Copy">
                                <use fill="#C8CCD1" fill-rule="evenodd" xlink:href="#path-7"></use>
                                <circle stroke="#C8CCD1" stroke-width="1" cx="12" cy="12" r="12.5"></circle>
                            </g>
                            <path d="M12,18 C15.3137085,18 18,15.3137085 18,12 C18,8.6862915 15.3137085,6 12,6 C8.6862915,6 6,8.6862915 6,12 C6,15.3137085 8.6862915,18 12,18 Z" id="Oval-59-Copy" fill="#FFFFFF"></path>
                        </g>
                    </g>
                    <g id="Radio-/-!default" transform="translate(192.000000, 97.000000)">
                        <text id="8:16:8:16-copy-22" font-family="HelveticaNeue, Helvetica Neue" font-size="16" font-weight="normal" fill="#222222">
                            <tspan x="33" y="22">Neutral point</tspan>
                        </text>
                        <g id="Oval-112-Copy-2">
                            <use fill="#FFFFFF" fill-rule="evenodd" xlink:href="#path-8"></use>
                            <path stroke="#72777D" stroke-width="1" d="M12,28.5 C18.9035594,28.5 24.5,22.9035594 24.5,16 C24.5,9.09644063 18.9035594,3.5 12,3.5 C5.09644063,3.5 -0.5,9.09644063 -0.5,16 C-0.5,22.9035594 5.09644063,28.5 12,28.5 Z"></path>
                        </g>
                    </g>
                    <g id="Radio-/-!default" transform="translate(192.000000, 683.000000)">
                        <text id="8:16:8:16-copy-22" font-family="HelveticaNeue, Helvetica Neue" font-size="16" font-weight="normal" fill="#222222">
                            <tspan x="33" y="22">Radio label</tspan>
                        </text>
                        <g id="Oval-112-Copy-2">
                            <use fill="#FFFFFF" fill-rule="evenodd" xlink:href="#path-9"></use>
                            <path stroke="#72777D" stroke-width="1" d="M12,28.5 C18.9035594,28.5 24.5,22.9035594 24.5,16 C24.5,9.09644063 18.9035594,3.5 12,3.5 C5.09644063,3.5 -0.5,9.09644063 -0.5,16 C-0.5,22.9035594 5.09644063,28.5 12,28.5 Z"></path>
                        </g>
                    </g>
                    <text id="touch-area-features" font-family="Lato-Regular, Lato" font-size="12" font-weight="normal" fill="#D0011B">
                        <tspan x="384" y="706">touch area features `width: 2em;` `height: 2em;`</tspan>
                    </text>
                    <rect id="Rectangle-2" fill-opacity="0.4" fill="#FFB60D" style="mix-blend-mode: multiply;" x="191" y="683" width="32" height="32"></rect>
                    <g id="Radio-/-:checked-/-!default" transform="translate(480.000000, 97.000000)">
                        <text id="8:16:8:16-copy-25" font-family="HelveticaNeue, Helvetica Neue" font-size="16" font-weight="normal" fill="#222222">
                            <tspan x="33" y="22">Neutral point</tspan>
                        </text>
                        <g id="Oval-112-Copy-3-+-Oval-59-Copy-2" stroke-width="1" fill-rule="evenodd" transform="translate(0.000000, 4.000000)">
                            <g id="Oval-112-Copy-3">
                                <use fill="#3366CC" fill-rule="evenodd" xlink:href="#path-10"></use>
                                <path stroke="#3366CC" stroke-width="1" d="M12,24.5 C18.9035594,24.5 24.5,18.9035594 24.5,12 C24.5,5.09644063 18.9035594,-0.5 12,-0.5 C5.09644063,-0.5 -0.5,5.09644063 -0.5,12 C-0.5,18.9035594 5.09644063,24.5 12,24.5 Z"></path>
                            </g>
                            <path d="M12,18 C15.3137085,18 18,15.3137085 18,12 C18,8.6862915 15.3137085,6 12,6 C8.6862915,6 6,8.6862915 6,12 C6,15.3137085 8.6862915,18 12,18 Z" id="Oval-59-Copy-2" fill="#FFFFFF"></path>
                        </g>
                    </g>
                    <g id="-101-/-1em-+-2*0,25em" transform="translate(181.000000, 56.500000) rotate(270.000000) translate(-181.000000, -56.500000) translate(169.000000, 55.000000)" stroke-linecap="square">
                        <g>
                            <g id="101-/-1em" transform="translate(4.000000, 0.000000)" stroke="#D0011B">
                                <path d="M0.5,0.375 L15.5,0.375" id="1em"></path>
                                <path d="M0.5,1.125 L15.5,1.125" id="1em-copy"></path>
                                <path d="M0.5,1.875 L15.5,1.875" id="1em-copy-2"></path>
                                <path d="M0.5,2.625 L15.5,2.625" id="1em-copy-3"></path>
                            </g>
                            <g id="101-/-0.25em" transform="translate(20.000000, 0.000000)" stroke="#F6A623">
                                <path d="M0.5,0.375 L3.5,0.375" id="0.25em"></path>
                                <path d="M0.5,1.125 L3.5,1.125" id="0.25em-copy"></path>
                                <path d="M0.5,1.875 L3.5,1.875" id="0.25em-copy-2"></path>
                                <path d="M0.5,2.625 L3.5,2.625" id="0.25em-copy-3"></path>
                            </g>
                            <g id="101-/-0.25em" stroke="#F6A623">
                                <path d="M0.5,0.375 L3.5,0.375" id="0.25em"></path>
                                <path d="M0.5,1.125 L3.5,1.125" id="0.25em-copy"></path>
                                <path d="M0.5,1.875 L3.5,1.875" id="0.25em-copy-2"></path>
                                <path d="M0.5,2.625 L3.5,2.625" id="0.25em-copy-3"></path>
                            </g>
                        </g>
                    </g>
                    <g id="Radio-/-:focus" transform="translate(192.000000, 265.000000)">
                        <text id="8:16:8:16-copy-23" font-family="HelveticaNeue, Helvetica Neue" font-size="16" font-weight="normal" fill="#222222">
                            <tspan x="33" y="22">Neutral point</tspan>
                        </text>
                        <g id="Oval-112-Copy-4" stroke-width="1" stroke="#3366CC">
                            <circle cx="12" cy="16" r="11.5"></circle>
                            <circle cx="12" cy="16" r="12.5"></circle>
                        </g>
                    </g>
                    <g id="Radio-/-:checked-/-:active" transform="translate(480.000000, 209.000000)">
                        <text id="8:16:8:16-copy-16" font-family="HelveticaNeue, Helvetica Neue" font-size="16" font-weight="normal" fill="#222222">
                            <tspan x="33" y="22">Neutral point</tspan>
                        </text>
                        <g id="Oval-112-Copy-6-+-Oval-59-Copy-3" stroke-width="1" fill-rule="evenodd" transform="translate(0.000000, 4.000000)">
                            <g id="Oval-112-Copy-6">
                                <use fill="#2A4B8D" fill-rule="evenodd" xlink:href="#path-12"></use>
                                <path stroke="#2A4B8D" stroke-width="1" d="M12,24.5 C18.9035594,24.5 24.5,18.9035594 24.5,12 C24.5,5.09644063 18.9035594,-0.5 12,-0.5 C5.09644063,-0.5 -0.5,5.09644063 -0.5,12 C-0.5,18.9035594 5.09644063,24.5 12,24.5 Z"></path>
                            </g>
                            <circle id="Oval-59-Copy-3" fill="#FFFFFF" cx="12" cy="12" r="6"></circle>
                        </g>
                    </g>
                    <g id="Radio-/-:checked-/-:focus" transform="translate(480.000000, 265.000000)">
                        <text id="8:16:8:16-copy-26" font-family="HelveticaNeue, Helvetica Neue" font-size="16" font-weight="normal" fill="#222222">
                            <tspan x="33" y="22">Neutral point</tspan>
                        </text>
                        <g id="Oval-112-Copy-5-+-Oval-78" stroke-width="1" fill-rule="evenodd" transform="translate(0.000000, 4.000000)">
                            <g id="Oval-112-Copy-5">
                                <use fill="#3366CC" fill-rule="evenodd" xlink:href="#path-13"></use>
                                <circle stroke="#FFFFFF" stroke-width="2" cx="12" cy="12" r="11"></circle>
                                <circle stroke="#3366CC" stroke-width="1" cx="12" cy="12" r="12.5"></circle>
                                <circle stroke="#3366CC" stroke-width="1" cx="12" cy="12" r="11.5"></circle>
                            </g>
                            <path d="M12,18 C15.3137085,18 18,15.3137085 18,12 C18,8.6862915 15.3137085,6 12,6 C8.6862915,6 6,8.6862915 6,12 C6,15.3137085 8.6862915,18 12,18 Z" id="Oval-78" fill="#FFFFFF"></path>
                        </g>
                    </g>
                    <path d="M175,375.5 L377,375.5" id="Line-Copy-93" stroke="#50E3C2" stroke-linecap="square" stroke-dasharray="1,3"></path>
                    <path d="M175,583.5 L377,583.5" id="Line-Copy-89" stroke="#50E3C2" stroke-linecap="square" stroke-dasharray="1,3"></path>
                    <path d="M175,509.5 L377,509.5" id="Line-Copy-90" stroke="#50E3C2" stroke-linecap="square" stroke-dasharray="1,3"></path>
                    <path d="M175,410.5 L377,410.5" id="Line-Copy-91" stroke="#50E3C2" stroke-linecap="square" stroke-dasharray="1,3"></path>
                    <path d="M204,406.236945 L204,422.236945" id="1em" stroke="#D0011B" stroke-width="4"></path>
                    <g id="Radio-/---multiliner" transform="translate(192.000000, 506.000000)">
                        <g id="Radio-/-!default" transform="translate(1.000000, 5.000000)">
                            <text id="8:16:8:16-copy-22" font-family="HelveticaNeue, Helvetica Neue" font-size="16" font-weight="normal" fill="#222222">
                                <tspan x="33" y="22">Neutral point</tspan>
                            </text>
                            <g id="Oval-112-Copy-2">
                                <use fill="#FFFFFF" fill-rule="evenodd" xlink:href="#path-14"></use>
                                <path stroke="#72777D" stroke-width="1" d="M12,28.5 C18.9035594,28.5 24.5,22.9035594 24.5,16 C24.5,9.09644063 18.9035594,3.5 12,3.5 C5.09644063,3.5 -0.5,9.09644063 -0.5,16 C-0.5,22.9035594 5.09644063,28.5 12,28.5 Z"></path>
                            </g>
                        </g>
                        <rect id="Rectangle" fill="#FFFFFF" fill-rule="evenodd" x="33" y="0" width="169" height="60"></rect>
                        <text id="Option-title-Copy-4" font-family="HelveticaNeue, Helvetica Neue" font-size="14" font-weight="normal" line-spacing="20" fill="#222222">
                            <tspan x="33" y="34">Option with a really long</tspan>
                            <tspan x="33" y="54.3919983">label today</tspan>
                        </text>
                        <text id="Option-title" font-family="HelveticaNeue, Helvetica Neue" font-size="16" font-weight="normal" fill="#222222">
                            <tspan x="33" y="15">Option title</tspan>
                        </text>
                    </g>
                    <path d="M377.5,375.5 L377.5,410.514282" id="Line-Copy-92" stroke="#979797" stroke-linecap="square"></path>
                    <path id="Line-Copy-92-decoration-1" d="M380.5,375.5 L374.5,375.5" stroke="#979797" stroke-linecap="square"></path>
                    <path id="Line-Copy-92-decoration-2" d="M380.5,410.514282 L374.5,410.514282" stroke="#979797" stroke-linecap="square"></path>
                    <text id="`vertical-align:-mid" font-family="Lato-Regular, Lato" font-size="12" font-weight="normal" fill="#D0011B">
                        <tspan x="383" y="399">`vertical-align: middle` one-liner text</tspan>
                    </text>
                    <text id="`vertical-align:-top" font-family="Lato-Regular, Lato" font-size="12" font-weight="normal" fill="#D0011B">
                        <tspan x="383" y="519">`vertical-align: top` 2 lines or more text </tspan>
                    </text>
                    <g id="101-/-1em" transform="translate(288.000000, 575.000000) rotate(270.000000) translate(-288.000000, -575.000000) translate(280.000000, 573.000000)" stroke="#D0011B" stroke-linecap="square">
                        <path d="M0.5,0.5 L15.5,0.5" id="1em"></path>
                        <path d="M0.5,1.5 L15.5,1.5" id="1em-copy"></path>
                        <path d="M0.5,2.5 L15.5,2.5" id="1em-copy-2"></path>
                        <path d="M0.5,3.5 L15.5,3.5" id="1em-copy-3"></path>
                    </g>
                    <g id="Cursor-/-Pointer" transform="translate(497.000000, 173.000000)">
                        <g id="Cursor-Pointer">
                            <use fill="black" fill-opacity="1" filter="url(#filter-16)" xlink:href="#path-15"></use>
                            <use fill="#FFFFFF" fill-rule="evenodd" xlink:href="#path-15"></use>
                            <path stroke="#000000" stroke-width="1" d="M18.095452,12.3777591 C18.0948912,11.4475593 17.3335344,10.6960268 16.3978922,10.6960268 C16.10688,10.6960268 15.8327664,10.7687518 15.5931989,10.8969793 C15.3133259,10.0818718 14.5229268,9.49766674 13.5963856,9.49766674 C13.1672561,9.49766674 12.7687636,9.62309774 12.4371411,9.83891321 C12.2017759,8.95226109 11.3696842,8.29930669 10.3928923,8.29930669 C9.99458465,8.29930669 9.62275187,8.40813447 9.30654522,8.59739976 L9.30654522,1.42515249 C9.30654522,0.365060667 8.4475222,-0.5 7.39619224,-0.5 C6.34627404,-0.5 5.49863882,0.364390213 5.49863882,1.42515249 L5.49863882,14.9990679 L2.79149833,11.4981494 C2.33990048,10.7256484 1.25796465,10.4579954 0.408016869,10.9372976 C-0.448495824,11.4208575 -0.757186346,12.4871638 -0.266517693,13.3181807 C-0.221942375,13.3880215 -0.221942375,13.3880215 -0.0679723281,13.6265707 C0.137397398,13.944607 0.248691135,14.1168648 0.428630429,14.3951327 C0.942759518,15.1902097 1.45803808,15.9852984 1.94061413,16.727459 C1.95455156,16.7488931 1.95455156,16.7488931 1.96848974,16.7703263 C2.72477886,17.9332706 3.32594411,18.8510815 3.71509077,19.4347338 C3.97897576,19.8305154 4.25954481,20.2204113 4.73613542,20.8635322 C4.77572637,20.916944 4.77572637,20.916944 4.81529743,20.9702918 C6.19563371,22.8309976 6.66859982,23.5786103 6.66859982,24 L6.66859982,24.5 L7.16859982,24.5 L15.1579335,24.5 L15.6579335,24.5 L15.6579335,24 C15.6579335,23.4442918 15.8127426,23.093397 16.8234169,21.1474064 C17.5230199,19.8003644 17.8804952,18.9306924 18.0348962,17.9890448 C18.0788416,17.7210344 18.1014521,17.45899 18.1014521,17.2018266 L18.1014521,13.9627346 L18.095452,12.3777591 L18.095452,12.3777591 Z"></path>
                        </g>
                    </g>
                    <g id="Cursor-/-Pointer" transform="translate(497.000000, 228.000000)">
                        <g id="Cursor-Pointer">
                            <use fill="black" fill-opacity="1" filter="url(#filter-18)" xlink:href="#path-17"></use>
                            <use fill="#FFFFFF" fill-rule="evenodd" xlink:href="#path-17"></use>
                            <path stroke="#000000" stroke-width="1" d="M18.095452,12.3777591 C18.0948912,11.4475593 17.3335344,10.6960268 16.3978922,10.6960268 C16.10688,10.6960268 15.8327664,10.7687518 15.5931989,10.8969793 C15.3133259,10.0818718 14.5229268,9.49766674 13.5963856,9.49766674 C13.1672561,9.49766674 12.7687636,9.62309774 12.4371411,9.83891321 C12.2017759,8.95226109 11.3696842,8.29930669 10.3928923,8.29930669 C9.99458465,8.29930669 9.62275187,8.40813447 9.30654522,8.59739976 L9.30654522,1.42515249 C9.30654522,0.365060667 8.4475222,-0.5 7.39619224,-0.5 C6.34627404,-0.5 5.49863882,0.364390213 5.49863882,1.42515249 L5.49863882,14.9990679 L2.79149833,11.4981494 C2.33990048,10.7256484 1.25796465,10.4579954 0.408016869,10.9372976 C-0.448495824,11.4208575 -0.757186346,12.4871638 -0.266517693,13.3181807 C-0.221942375,13.3880215 -0.221942375,13.3880215 -0.0679723281,13.6265707 C0.137397398,13.944607 0.248691135,14.1168648 0.428630429,14.3951327 C0.942759518,15.1902097 1.45803808,15.9852984 1.94061413,16.727459 C1.95455156,16.7488931 1.95455156,16.7488931 1.96848974,16.7703263 C2.72477886,17.9332706 3.32594411,18.8510815 3.71509077,19.4347338 C3.97897576,19.8305154 4.25954481,20.2204113 4.73613542,20.8635322 C4.77572637,20.916944 4.77572637,20.916944 4.81529743,20.9702918 C6.19563371,22.8309976 6.66859982,23.5786103 6.66859982,24 L6.66859982,24.5 L7.16859982,24.5 L15.1579335,24.5 L15.6579335,24.5 L15.6579335,24 C15.6579335,23.4442918 15.8127426,23.093397 16.8234169,21.1474064 C17.5230199,19.8003644 17.8804952,18.9306924 18.0348962,17.9890448 C18.0788416,17.7210344 18.1014521,17.45899 18.1014521,17.2018266 L18.1014521,13.9627346 L18.095452,12.3777591 L18.095452,12.3777591 Z"></path>
                        </g>
                    </g>
                    <g id="Cursor-/-!default" transform="translate(504.000000, 60.000000)">
                        <g id="cursor">
                            <use fill="black" fill-opacity="1" filter="url(#filter-20)" xlink:href="#path-19"></use>
                            <use fill="#000000" fill-rule="evenodd" xlink:href="#path-19"></use>
                            <path stroke="#FFFFFF" stroke-width="1" d="M6.44805157,11.7871647 L10.8145819,12.0290342 C12.0289467,11.9009082 12.390083,10.912736 11.5978897,10.0958485 L0.936743625,-0.0608329699 C0.490703685,-0.521940513 0.196479729,-0.698622715 -0.202577288,-0.35941243 C-0.447188468,-0.15148568 -0.473259969,0.051426302 -0.474330291,0.669279596 L-0.499996898,14.983604 C-0.501889691,16.1215055 0.444640548,16.5813536 1.34552169,15.8859589 L1.42326646,15.8112636 L3.90605662,12.8478493 L6.61399912,19.7006158 C6.8877013,20.3802565 7.68317947,20.6755944 8.37968284,20.3933668 C9.07500287,20.1136726 9.44237709,19.3483989 9.16903318,18.6729326 L6.44805157,11.7871647 Z"></path>
                        </g>
                    </g>
                    <g id="Cursor-/-Pointer" transform="translate(209.000000, 228.000000)">
                        <g id="Cursor-Pointer">
                            <use fill="black" fill-opacity="1" filter="url(#filter-22)" xlink:href="#path-21"></use>
                            <use fill="#FFFFFF" fill-rule="evenodd" xlink:href="#path-21"></use>
                            <path stroke="#000000" stroke-width="1" d="M18.095452,12.3777591 C18.0948912,11.4475593 17.3335344,10.6960268 16.3978922,10.6960268 C16.10688,10.6960268 15.8327664,10.7687518 15.5931989,10.8969793 C15.3133259,10.0818718 14.5229268,9.49766674 13.5963856,9.49766674 C13.1672561,9.49766674 12.7687636,9.62309774 12.4371411,9.83891321 C12.2017759,8.95226109 11.3696842,8.29930669 10.3928923,8.29930669 C9.99458465,8.29930669 9.62275187,8.40813447 9.30654522,8.59739976 L9.30654522,1.42515249 C9.30654522,0.365060667 8.4475222,-0.5 7.39619224,-0.5 C6.34627404,-0.5 5.49863882,0.364390213 5.49863882,1.42515249 L5.49863882,14.9990679 L2.79149833,11.4981494 C2.33990048,10.7256484 1.25796465,10.4579954 0.408016869,10.9372976 C-0.448495824,11.4208575 -0.757186346,12.4871638 -0.266517693,13.3181807 C-0.221942375,13.3880215 -0.221942375,13.3880215 -0.0679723281,13.6265707 C0.137397398,13.944607 0.248691135,14.1168648 0.428630429,14.3951327 C0.942759518,15.1902097 1.45803808,15.9852984 1.94061413,16.727459 C1.95455156,16.7488931 1.95455156,16.7488931 1.96848974,16.7703263 C2.72477886,17.9332706 3.32594411,18.8510815 3.71509077,19.4347338 C3.97897576,19.8305154 4.25954481,20.2204113 4.73613542,20.8635322 C4.77572637,20.916944 4.77572637,20.916944 4.81529743,20.9702918 C6.19563371,22.8309976 6.66859982,23.5786103 6.66859982,24 L6.66859982,24.5 L7.16859982,24.5 L15.1579335,24.5 L15.6579335,24.5 L15.6579335,24 C15.6579335,23.4442918 15.8127426,23.093397 16.8234169,21.1474064 C17.5230199,19.8003644 17.8804952,18.9306924 18.0348962,17.9890448 C18.0788416,17.7210344 18.1014521,17.45899 18.1014521,17.2018266 L18.1014521,13.9627346 L18.095452,12.3777591 L18.095452,12.3777591 Z"></path>
                        </g>
                    </g>
                    <g id="Cursor-/-Pointer" transform="translate(209.000000, 173.000000)">
                        <g id="Cursor-Pointer">
                            <use fill="black" fill-opacity="1" filter="url(#filter-24)" xlink:href="#path-23"></use>
                            <use fill="#FFFFFF" fill-rule="evenodd" xlink:href="#path-23"></use>
                            <path stroke="#000000" stroke-width="1" d="M18.095452,12.3777591 C18.0948912,11.4475593 17.3335344,10.6960268 16.3978922,10.6960268 C16.10688,10.6960268 15.8327664,10.7687518 15.5931989,10.8969793 C15.3133259,10.0818718 14.5229268,9.49766674 13.5963856,9.49766674 C13.1672561,9.49766674 12.7687636,9.62309774 12.4371411,9.83891321 C12.2017759,8.95226109 11.3696842,8.29930669 10.3928923,8.29930669 C9.99458465,8.29930669 9.62275187,8.40813447 9.30654522,8.59739976 L9.30654522,1.42515249 C9.30654522,0.365060667 8.4475222,-0.5 7.39619224,-0.5 C6.34627404,-0.5 5.49863882,0.364390213 5.49863882,1.42515249 L5.49863882,14.9990679 L2.79149833,11.4981494 C2.33990048,10.7256484 1.25796465,10.4579954 0.408016869,10.9372976 C-0.448495824,11.4208575 -0.757186346,12.4871638 -0.266517693,13.3181807 C-0.221942375,13.3880215 -0.221942375,13.3880215 -0.0679723281,13.6265707 C0.137397398,13.944607 0.248691135,14.1168648 0.428630429,14.3951327 C0.942759518,15.1902097 1.45803808,15.9852984 1.94061413,16.727459 C1.95455156,16.7488931 1.95455156,16.7488931 1.96848974,16.7703263 C2.72477886,17.9332706 3.32594411,18.8510815 3.71509077,19.4347338 C3.97897576,19.8305154 4.25954481,20.2204113 4.73613542,20.8635322 C4.77572637,20.916944 4.77572637,20.916944 4.81529743,20.9702918 C6.19563371,22.8309976 6.66859982,23.5786103 6.66859982,24 L6.66859982,24.5 L7.16859982,24.5 L15.1579335,24.5 L15.6579335,24.5 L15.6579335,24 C15.6579335,23.4442918 15.8127426,23.093397 16.8234169,21.1474064 C17.5230199,19.8003644 17.8804952,18.9306924 18.0348962,17.9890448 C18.0788416,17.7210344 18.1014521,17.45899 18.1014521,17.2018266 L18.1014521,13.9627346 L18.095452,12.3777591 L18.095452,12.3777591 Z"></path>
                        </g>
                    </g>
                    <g id="Cursor-/-!default" transform="translate(216.000000, 60.000000)">
                        <g id="cursor">
                            <use fill="black" fill-opacity="1" filter="url(#filter-26)" xlink:href="#path-25"></use>
                            <use fill="#000000" fill-rule="evenodd" xlink:href="#path-25"></use>
                            <path stroke="#FFFFFF" stroke-width="1" d="M6.44805157,11.7871647 L10.8145819,12.0290342 C12.0289467,11.9009082 12.390083,10.912736 11.5978897,10.0958485 L0.936743625,-0.0608329699 C0.490703685,-0.521940513 0.196479729,-0.698622715 -0.202577288,-0.35941243 C-0.447188468,-0.15148568 -0.473259969,0.051426302 -0.474330291,0.669279596 L-0.499996898,14.983604 C-0.501889691,16.1215055 0.444640548,16.5813536 1.34552169,15.8859589 L1.42326646,15.8112636 L3.90605662,12.8478493 L6.61399912,19.7006158 C6.8877013,20.3802565 7.68317947,20.6755944 8.37968284,20.3933668 C9.07500287,20.1136726 9.44237709,19.3483989 9.16903318,18.6729326 L6.44805157,11.7871647 Z"></path>
                        </g>
                    </g>
                </g>
            </g>
        </g>
    </g>
</svg>