<?xml version="1.0" encoding="UTF-8"?>
<svg xmlns="http://www.w3.org/2000/svg" width="332" height="92" viewBox="0 0 332 92">
	<title>
		radio_buttons_designing
	</title>
	<g id="Artboard-page" fill="none" fill-rule="evenodd" stroke="none" stroke-width="1">
		<g id="WikimediaUI-components_overview" transform="translate(-6015 -592)">
			<path fill="#FFF" d="M0 0h14720v3264H0z"/>
			<g id="RADIO-BUTTONS---DESKTOP" transform="translate(5840 143)">
				<g id="Radio-Buttons-X" transform="translate(0 113)">
					<g id="Radio-/-!default" transform="translate(192 397)">
						<text id="Label" fill="#222" font-family="HelveticaNeue, Helvetica Neue, sans-serif" font-size="16" font-weight="normal">
							<tspan x="32" y="22">Option 2</tspan>
						</text>
						<path id="Oval-112-Copy-2" fill="#FFF" fill-rule="evenodd" stroke="#72777D" stroke-width="1" d="M12 27.5c6.351 0 11.5-5.149 11.5-11.5S18.351 4.5 12 4.5.5 9.649.5 16 5.649 27.5 12 27.5z"/>
					</g>
					<g id="Radio-/-!default" transform="translate(192 357)">
						<text id="Label" fill="#222" font-family="HelveticaNeue, Helvetica Neue, sans-serif" font-size="16" font-weight="normal">
							<tspan x="32" y="22">Option 1</tspan>
						</text>
						<path id="Oval-112-Copy-2" fill="#FFF" fill-rule="evenodd" stroke="#72777D" stroke-width="1" d="M12 27.5c6.351 0 11.5-5.149 11.5-11.5S18.351 4.5 12 4.5.5 9.649.5 16 5.649 27.5 12 27.5z"/>
					</g>
					<text id="Label" fill="#222" font-family="HelveticaNeue, Helvetica Neue, sans-serif" font-size="16" font-weight="normal" transform="translate(191 335.5)">
						<tspan x="0" y="15">Radio group label </tspan>
					</text>
					<g id="_Spec-/-8-sp-(0.5-em)" stroke="#50E3C2" stroke-width="4" transform="translate(216 371)">
						<path id="8-sp-(0.5-em)" d="M0 2h8"/>
					</g>
					<text id="`vertical-align:-mid" fill="#C70070" font-family="Lato-Regular, Lato, sans-serif" font-size="12" font-weight="normal">
						<tspan x="383" y="379">`vertical-align: middle`</tspan>
					</text>
					<path id="Line-Copy-93" stroke="#50E3C2" stroke-dasharray="1 3" stroke-linecap="square" d="M175 355.5h202"/>
					<path id="Line-Copy-91" stroke="#50E3C2" stroke-dasharray="1 3" stroke-linecap="square" d="M175 390.5h202"/>
					<path id="Line-Copy-92" fill="#979797" fill-rule="nonzero" d="M373 391.014v-1h4V356h-4v-1h9v1h-4v34.014h4v1h-9z"/>
					<path id="1em" stroke="#D0021B" stroke-width="4" d="M204 385v16"/>
				</g>
			</g>
		</g>
	</g>
</svg>
