<?xml version="1.0" encoding="UTF-8" standalone="no"?><svg width="617px" height="683px" viewBox="0 0 617 683" xmlns="http://www.w3.org/2000/svg" xmlns:xlink="http://www.w3.org/1999/xlink"><defs><path d="M12 28c6.627 0 12-5.373 12-12S18.627 4 12 4 0 9.373 0 16s5.373 12 12 12z" id="a"/><path d="M12 28c6.627 0 12-5.373 12-12S18.627 4 12 4 0 9.373 0 16s5.373 12 12 12z" id="b"/><path d="M12 28c6.627 0 12-5.373 12-12S18.627 4 12 4 0 9.373 0 16s5.373 12 12 12z" id="c"/><circle id="d" cx="12" cy="16" r="12"/><circle id="e" cx="12" cy="16" r="12"/><circle id="f" cx="12" cy="12" r="12"/><circle id="g" cx="12" cy="12" r="12"/><path d="M12 28c6.627 0 12-5.373 12-12S18.627 4 12 4 0 9.373 0 16s5.373 12 12 12z" id="h"/><path d="M12 28c6.627 0 12-5.373 12-12S18.627 4 12 4 0 9.373 0 16s5.373 12 12 12z" id="i"/><path d="M12 24c6.627 0 12-5.373 12-12S18.627 0 12 0 0 5.373 0 12s5.373 12 12 12z" id="j"/><path d="M12 24c6.627 0 12-5.373 12-12S18.627 0 12 0 0 5.373 0 12s5.373 12 12 12z" id="k"/><circle id="l" cx="12" cy="12" r="12"/><path d="M12 28c6.627 0 12-5.373 12-12S18.627 4 12 4 0 9.373 0 16s5.373 12 12 12z" id="m"/><path d="M17.595 12.379a1.19 1.19 0 0 0-1.197-1.183 1.19 1.19 0 0 0-1.196 1.179v-.826c0-.857-.719-1.551-1.606-1.551-.886 0-1.592.694-1.592 1.55V10.35c0-.856-.728-1.55-1.611-1.55s-1.586.694-1.586 1.55V1.425C8.807.638 8.168 0 7.397 0c-.772 0-1.398.638-1.398 1.425v15.038l-3.603-4.659c-.346-.586-1.126-.779-1.742-.431-.617.348-.836 1.105-.49 1.691 0 0 2.817 4.369 3.967 6.093C5.281 20.882 7.17 23.01 7.17 24h7.989c0-1.672 2.443-4.283 2.443-6.798v-3.24l-.006-1.583z" id="o"/><filter x="-42.6%" y="-18.8%" width="185.2%" height="162.5%" filterUnits="objectBoundingBox" id="n"><feMorphology radius="1" operator="dilate" in="SourceAlpha" result="shadowSpreadOuter1"/><feOffset dy="1" in="shadowSpreadOuter1" result="shadowOffsetOuter1"/><feGaussianBlur stdDeviation="0.5" in="shadowOffsetOuter1" result="shadowBlurOuter1"/><feComposite in="shadowBlurOuter1" in2="SourceAlpha" operator="out" result="shadowBlurOuter1"/><feColorMatrix values="0 0 0 0 0 0 0 0 0 0 0 0 0 0 0 0 0 0 0.582908741 0" in="shadowBlurOuter1" result="shadowMatrixOuter1"/><feMorphology radius="1" operator="dilate" in="SourceAlpha" result="shadowSpreadOuter2"/><feOffset dy="2" in="shadowSpreadOuter2" result="shadowOffsetOuter2"/><feGaussianBlur stdDeviation="1.5" in="shadowOffsetOuter2" result="shadowBlurOuter2"/><feComposite in="shadowBlurOuter2" in2="SourceAlpha" operator="out" result="shadowBlurOuter2"/><feColorMatrix values="0 0 0 0 0 0 0 0 0 0 0 0 0 0 0 0 0 0 0.179347826 0" in="shadowBlurOuter2" result="shadowMatrixOuter2"/><feMerge><feMergeNode in="shadowMatrixOuter1"/><feMergeNode in="shadowMatrixOuter2"/></feMerge></filter><path d="M17.595 12.379a1.19 1.19 0 0 0-1.197-1.183 1.19 1.19 0 0 0-1.196 1.179v-.826c0-.857-.719-1.551-1.606-1.551-.886 0-1.592.694-1.592 1.55V10.35c0-.856-.728-1.55-1.611-1.55s-1.586.694-1.586 1.55V1.425C8.807.638 8.168 0 7.397 0c-.772 0-1.398.638-1.398 1.425v15.038l-3.603-4.659c-.346-.586-1.126-.779-1.742-.431-.617.348-.836 1.105-.49 1.691 0 0 2.817 4.369 3.967 6.093C5.281 20.882 7.17 23.01 7.17 24h7.989c0-1.672 2.443-4.283 2.443-6.798v-3.24l-.006-1.583z" id="q"/><filter x="-42.6%" y="-18.8%" width="185.2%" height="162.5%" filterUnits="objectBoundingBox" id="p"><feMorphology radius="1" operator="dilate" in="SourceAlpha" result="shadowSpreadOuter1"/><feOffset dy="1" in="shadowSpreadOuter1" result="shadowOffsetOuter1"/><feGaussianBlur stdDeviation="0.5" in="shadowOffsetOuter1" result="shadowBlurOuter1"/><feComposite in="shadowBlurOuter1" in2="SourceAlpha" operator="out" result="shadowBlurOuter1"/><feColorMatrix values="0 0 0 0 0 0 0 0 0 0 0 0 0 0 0 0 0 0 0.582908741 0" in="shadowBlurOuter1" result="shadowMatrixOuter1"/><feMorphology radius="1" operator="dilate" in="SourceAlpha" result="shadowSpreadOuter2"/><feOffset dy="2" in="shadowSpreadOuter2" result="shadowOffsetOuter2"/><feGaussianBlur stdDeviation="1.5" in="shadowOffsetOuter2" result="shadowBlurOuter2"/><feComposite in="shadowBlurOuter2" in2="SourceAlpha" operator="out" result="shadowBlurOuter2"/><feColorMatrix values="0 0 0 0 0 0 0 0 0 0 0 0 0 0 0 0 0 0 0.179347826 0" in="shadowBlurOuter2" result="shadowMatrixOuter2"/><feMerge><feMergeNode in="shadowMatrixOuter1"/><feMergeNode in="shadowMatrixOuter2"/></feMerge></filter><path d="M6.132 11.269l4.71.26c.72-.08.899-.568.397-1.085L.592.3C.09-.216.027-.049.026.671L0 14.984c-.001.72.467.947 1.04.505l2.742-3.272c.095-.074.208-.146.327-.218l2.97 7.517c.165.41.664.595 1.113.413.449-.18.68-.66.514-1.07l-2.972-7.518.398-.073z" id="s"/><filter x="-65.1%" y="-22.5%" width="230.2%" height="175.0%" filterUnits="objectBoundingBox" id="r"><feMorphology radius="1" operator="dilate" in="SourceAlpha" result="shadowSpreadOuter1"/><feOffset dy="1" in="shadowSpreadOuter1" result="shadowOffsetOuter1"/><feGaussianBlur stdDeviation="0.5" in="shadowOffsetOuter1" result="shadowBlurOuter1"/><feComposite in="shadowBlurOuter1" in2="SourceAlpha" operator="out" result="shadowBlurOuter1"/><feColorMatrix values="0 0 0 0 0 0 0 0 0 0 0 0 0 0 0 0 0 0 0.582908741 0" in="shadowBlurOuter1" result="shadowMatrixOuter1"/><feMorphology radius="1" operator="dilate" in="SourceAlpha" result="shadowSpreadOuter2"/><feOffset dy="2" in="shadowSpreadOuter2" result="shadowOffsetOuter2"/><feGaussianBlur stdDeviation="1.5" in="shadowOffsetOuter2" result="shadowBlurOuter2"/><feComposite in="shadowBlurOuter2" in2="SourceAlpha" operator="out" result="shadowBlurOuter2"/><feColorMatrix values="0 0 0 0 0 0 0 0 0 0 0 0 0 0 0 0 0 0 0.179347826 0" in="shadowBlurOuter2" result="shadowMatrixOuter2"/><feMerge><feMergeNode in="shadowMatrixOuter1"/><feMergeNode in="shadowMatrixOuter2"/></feMerge></filter><path d="M17.595 12.379a1.19 1.19 0 0 0-1.197-1.183 1.19 1.19 0 0 0-1.196 1.179v-.826c0-.857-.719-1.551-1.606-1.551-.886 0-1.592.694-1.592 1.55V10.35c0-.856-.728-1.55-1.611-1.55s-1.586.694-1.586 1.55V1.425C8.807.638 8.168 0 7.397 0c-.772 0-1.398.638-1.398 1.425v15.038l-3.603-4.659c-.346-.586-1.126-.779-1.742-.431-.617.348-.836 1.105-.49 1.691 0 0 2.817 4.369 3.967 6.093C5.281 20.882 7.17 23.01 7.17 24h7.989c0-1.672 2.443-4.283 2.443-6.798v-3.24l-.006-1.583z" id="u"/><filter x="-42.6%" y="-18.8%" width="185.2%" height="162.5%" filterUnits="objectBoundingBox" id="t"><feMorphology radius="1" operator="dilate" in="SourceAlpha" result="shadowSpreadOuter1"/><feOffset dy="1" in="shadowSpreadOuter1" result="shadowOffsetOuter1"/><feGaussianBlur stdDeviation="0.5" in="shadowOffsetOuter1" result="shadowBlurOuter1"/><feComposite in="shadowBlurOuter1" in2="SourceAlpha" operator="out" result="shadowBlurOuter1"/><feColorMatrix values="0 0 0 0 0 0 0 0 0 0 0 0 0 0 0 0 0 0 0.582908741 0" in="shadowBlurOuter1" result="shadowMatrixOuter1"/><feMorphology radius="1" operator="dilate" in="SourceAlpha" result="shadowSpreadOuter2"/><feOffset dy="2" in="shadowSpreadOuter2" result="shadowOffsetOuter2"/><feGaussianBlur stdDeviation="1.5" in="shadowOffsetOuter2" result="shadowBlurOuter2"/><feComposite in="shadowBlurOuter2" in2="SourceAlpha" operator="out" result="shadowBlurOuter2"/><feColorMatrix values="0 0 0 0 0 0 0 0 0 0 0 0 0 0 0 0 0 0 0.179347826 0" in="shadowBlurOuter2" result="shadowMatrixOuter2"/><feMerge><feMergeNode in="shadowMatrixOuter1"/><feMergeNode in="shadowMatrixOuter2"/></feMerge></filter><path d="M17.595 12.379a1.19 1.19 0 0 0-1.197-1.183 1.19 1.19 0 0 0-1.196 1.179v-.826c0-.857-.719-1.551-1.606-1.551-.886 0-1.592.694-1.592 1.55V10.35c0-.856-.728-1.55-1.611-1.55s-1.586.694-1.586 1.55V1.425C8.807.638 8.168 0 7.397 0c-.772 0-1.398.638-1.398 1.425v15.038l-3.603-4.659c-.346-.586-1.126-.779-1.742-.431-.617.348-.836 1.105-.49 1.691 0 0 2.817 4.369 3.967 6.093C5.281 20.882 7.17 23.01 7.17 24h7.989c0-1.672 2.443-4.283 2.443-6.798v-3.24l-.006-1.583z" id="w"/><filter x="-42.6%" y="-18.8%" width="185.2%" height="162.5%" filterUnits="objectBoundingBox" id="v"><feMorphology radius="1" operator="dilate" in="SourceAlpha" result="shadowSpreadOuter1"/><feOffset dy="1" in="shadowSpreadOuter1" result="shadowOffsetOuter1"/><feGaussianBlur stdDeviation="0.5" in="shadowOffsetOuter1" result="shadowBlurOuter1"/><feComposite in="shadowBlurOuter1" in2="SourceAlpha" operator="out" result="shadowBlurOuter1"/><feColorMatrix values="0 0 0 0 0 0 0 0 0 0 0 0 0 0 0 0 0 0 0.582908741 0" in="shadowBlurOuter1" result="shadowMatrixOuter1"/><feMorphology radius="1" operator="dilate" in="SourceAlpha" result="shadowSpreadOuter2"/><feOffset dy="2" in="shadowSpreadOuter2" result="shadowOffsetOuter2"/><feGaussianBlur stdDeviation="1.5" in="shadowOffsetOuter2" result="shadowBlurOuter2"/><feComposite in="shadowBlurOuter2" in2="SourceAlpha" operator="out" result="shadowBlurOuter2"/><feColorMatrix values="0 0 0 0 0 0 0 0 0 0 0 0 0 0 0 0 0 0 0.179347826 0" in="shadowBlurOuter2" result="shadowMatrixOuter2"/><feMerge><feMergeNode in="shadowMatrixOuter1"/><feMergeNode in="shadowMatrixOuter2"/></feMerge></filter><path d="M6.132 11.269l4.71.26c.72-.08.899-.568.397-1.085L.592.3C.09-.216.027-.049.026.671L0 14.984c-.001.72.467.947 1.04.505l2.742-3.272c.095-.074.208-.146.327-.218l2.97 7.517c.165.41.664.595 1.113.413.449-.18.68-.66.514-1.07l-2.972-7.518.398-.073z" id="y"/><filter x="-65.1%" y="-22.5%" width="230.2%" height="175.0%" filterUnits="objectBoundingBox" id="x"><feMorphology radius="1" operator="dilate" in="SourceAlpha" result="shadowSpreadOuter1"/><feOffset dy="1" in="shadowSpreadOuter1" result="shadowOffsetOuter1"/><feGaussianBlur stdDeviation="0.5" in="shadowOffsetOuter1" result="shadowBlurOuter1"/><feComposite in="shadowBlurOuter1" in2="SourceAlpha" operator="out" result="shadowBlurOuter1"/><feColorMatrix values="0 0 0 0 0 0 0 0 0 0 0 0 0 0 0 0 0 0 0.582908741 0" in="shadowBlurOuter1" result="shadowMatrixOuter1"/><feMorphology radius="1" operator="dilate" in="SourceAlpha" result="shadowSpreadOuter2"/><feOffset dy="2" in="shadowSpreadOuter2" result="shadowOffsetOuter2"/><feGaussianBlur stdDeviation="1.5" in="shadowOffsetOuter2" result="shadowBlurOuter2"/><feComposite in="shadowBlurOuter2" in2="SourceAlpha" operator="out" result="shadowBlurOuter2"/><feColorMatrix values="0 0 0 0 0 0 0 0 0 0 0 0 0 0 0 0 0 0 0.179347826 0" in="shadowBlurOuter2" result="shadowMatrixOuter2"/><feMerge><feMergeNode in="shadowMatrixOuter1"/><feMergeNode in="shadowMatrixOuter2"/></feMerge></filter></defs><g fill="none" fill-rule="evenodd"><text font-family="HelveticaNeue, Helvetica Neue" font-size="16" fill="#222" transform="translate(191 387)"><tspan x="33" y="22">Option 2</tspan></text><g transform="translate(191 387)"><use fill="#FFF" xlink:href="#a"/><path stroke="#72777D" d="M12 28.5c6.904 0 12.5-5.596 12.5-12.5S18.904 3.5 12 3.5-.5 9.096-.5 16 5.096 28.5 12 28.5z"/></g><text font-family="HelveticaNeue, Helvetica Neue" font-size="16" fill="#222" transform="translate(191 345)"><tspan x="33" y="22">Option 1</tspan></text><g transform="translate(191 345)"><use fill="#FFF" xlink:href="#b"/><path stroke="#72777D" d="M12 28.5c6.904 0 12.5-5.596 12.5-12.5S18.904 3.5 12 3.5-.5 9.096-.5 16 5.096 28.5 12 28.5z"/></g><g stroke="#50E3C2" stroke-linecap="square"><path d="M216.5 360.5h7M216.5 359.5h7M216.5 362.5h7M216.5 361.5h7"/></g><text font-family="HelveticaNeue, Helvetica Neue" font-size="16" fill="#222" transform="translate(192 553)"><tspan x="33" y="22">Neutral point</tspan></text><g transform="translate(192 553)"><use fill="#FFF" xlink:href="#c"/><path stroke="#72777D" d="M12 28.5c6.904 0 12.5-5.596 12.5-12.5S18.904 3.5 12 3.5-.5 9.096-.5 16 5.096 28.5 12 28.5z"/></g><path fill="#FFF" d="M224 548h169v60H224z"/><text font-family="HelveticaNeue, Helvetica Neue" font-size="14" fill="#222" transform="translate(191 548)"><tspan x="33" y="34">Option with a really long</tspan> <tspan x="33" y="54.3919983">label today</tspan></text><text font-family="HelveticaNeue, Helvetica Neue" font-size="16" fill="#222" transform="translate(191 548)"><tspan x="33" y="15">Option title</tspan></text><g transform="translate(191 9)"><use fill="#C8CCD1" xlink:href="#d"/><circle stroke="#C8CCD1" cx="12" cy="16" r="12.5"/></g><text font-family="HelveticaNeue, Helvetica Neue" font-size="16" fill="#7D8389" transform="translate(191 9)"><tspan x="33" y="22">Neutral point</tspan></text><g transform="translate(191 121)"><circle stroke="#2962CC" cx="12" cy="16" r="12.5"/><text font-family="HelveticaNeue, Helvetica Neue" font-size="16" fill="#222"><tspan x="33" y="22">Neutral point</tspan></text></g><g transform="translate(191 177)"><use fill="#2A4B8D" xlink:href="#e"/><circle stroke="#2A4B8D" cx="12" cy="16" r="12.5"/><circle stroke="#2A4B8D" cx="12" cy="16" r="11.5"/></g><text font-family="HelveticaNeue, Helvetica Neue" font-size="16" fill="#222" transform="translate(191 177)"><tspan x="33" y="22">Neutral point</tspan></text><text font-family="HelveticaNeue, Helvetica Neue" font-size="16" fill="#222" transform="translate(479 121)"><tspan x="33" y="22">Neutral point</tspan></text><g transform="translate(479 125)"><use fill="#447FF5" xlink:href="#f"/><circle stroke="#447FF5" cx="12" cy="12" r="12.5"/></g><path d="M491 143a6 6 0 1 0 0-12 6 6 0 0 0 0 12z" fill="#FFF"/><text font-family="Lato-Regular, Lato" font-size="14" fill="#72777D" transform="translate(-1 -32)"><tspan x="0" y="62"> DISABLED</tspan>   <tspan x="0" y="118.399998"> NORMAL</tspan>   <tspan x="0" y="174.799995">:HOVER</tspan>   <tspan x="0" y="231.199993">:ACTIVE</tspan>   <tspan x="0" y="287.599991">:FOCUS</tspan></text><text font-family="HelveticaNeue, Helvetica Neue" font-size="16" fill="#7D8389" transform="translate(479 9)"><tspan x="33" y="22">Neutral point</tspan></text><g transform="translate(479 13)"><use fill="#C8CCD1" xlink:href="#g"/><circle stroke="#C8CCD1" cx="12" cy="12" r="12.5"/></g><path d="M491 31a6 6 0 1 0 0-12 6 6 0 0 0 0 12z" fill="#FFF"/><text font-family="HelveticaNeue, Helvetica Neue" font-size="16" fill="#222" transform="translate(191 65)"><tspan x="33" y="22">Neutral point</tspan></text><g transform="translate(191 65)"><use fill="#FFF" xlink:href="#h"/><path stroke="#72777D" d="M12 28.5c6.904 0 12.5-5.596 12.5-12.5S18.904 3.5 12 3.5-.5 9.096-.5 16 5.096 28.5 12 28.5z"/></g><text font-family="HelveticaNeue, Helvetica Neue" font-size="16" fill="#222" transform="translate(191 651)"><tspan x="33" y="22">Radio label</tspan></text><g transform="translate(191 651)"><use fill="#FFF" xlink:href="#i"/><path stroke="#72777D" d="M12 28.5c6.904 0 12.5-5.596 12.5-12.5S18.904 3.5 12 3.5-.5 9.096-.5 16 5.096 28.5 12 28.5z"/></g><text font-family="Lato-Regular, Lato" font-size="12" fill="#D0011B" transform="translate(-1 -32)"><tspan x="384" y="706">touch area features `width: 2em;` `height: 2em;`</tspan></text><path fill-opacity="0.4" fill="#FFB60D" style="mix-blend-mode:multiply" d="M190 651h32v32h-32z"/><text font-family="HelveticaNeue, Helvetica Neue" font-size="16" fill="#222" transform="translate(479 65)"><tspan x="33" y="22">Neutral point</tspan></text><g transform="translate(479 69)"><use fill="#36C" xlink:href="#j"/><path stroke="#36C" d="M12 24.5c6.904 0 12.5-5.596 12.5-12.5S18.904-.5 12-.5-.5 5.096-.5 12 5.096 24.5 12 24.5z"/></g><path d="M491 87a6 6 0 1 0 0-12 6 6 0 0 0 0 12z" fill="#FFF"/><g stroke-linecap="square"><g stroke="#D0011B"><path d="M178.875 32V17M179.625 32V17M180.375 32V17M181.125 32V17"/></g><g stroke="#F6A623"><path d="M178.875 16v-3M179.625 16v-3M180.375 16v-3M181.125 16v-3"/></g><g stroke="#F6A623"><path d="M178.875 36v-3M179.625 36v-3M180.375 36v-3M181.125 36v-3"/></g></g><text font-family="HelveticaNeue, Helvetica Neue" font-size="16" fill="#222" transform="translate(191 233)"><tspan x="33" y="22">Neutral point</tspan></text><g stroke="#36C" transform="translate(191 233)"><circle cx="12" cy="16" r="11.5"/><circle cx="12" cy="16" r="12.5"/></g><text font-family="HelveticaNeue, Helvetica Neue" font-size="16" fill="#222" transform="translate(479 177)"><tspan x="33" y="22">Neutral point</tspan></text><g transform="translate(479 181)"><use fill="#2A4B8D" xlink:href="#k"/><path stroke="#2A4B8D" d="M12 24.5c6.904 0 12.5-5.596 12.5-12.5S18.904-.5 12-.5-.5 5.096-.5 12 5.096 24.5 12 24.5z"/><circle fill="#FFF" cx="12" cy="12" r="6"/></g><text font-family="HelveticaNeue, Helvetica Neue" font-size="16" fill="#222" transform="translate(479 233)"><tspan x="33" y="22">Neutral point</tspan></text><g transform="translate(479 237)"><use fill="#36C" xlink:href="#l"/><circle stroke="#FFF" stroke-width="2" cx="12" cy="12" r="11"/><circle stroke="#36C" cx="12" cy="12" r="12.5"/><circle stroke="#36C" cx="12" cy="12" r="11.5"/></g><path d="M491 255a6 6 0 1 0 0-12 6 6 0 0 0 0 12z" fill="#FFF"/><path d="M174 343.5h202M174 551.5h202M174 477.5h202M174 378.5h202" stroke="#50E3C2" stroke-linecap="square" stroke-dasharray="1,3"/><path d="M203 374.237v16" stroke="#D0011B" stroke-width="4"/><g><text font-family="HelveticaNeue, Helvetica Neue" font-size="16" fill="#222" transform="translate(192 479)"><tspan x="33" y="22">Neutral point</tspan></text><g transform="translate(192 479)"><use fill="#FFF" xlink:href="#m"/><path stroke="#72777D" d="M12 28.5c6.904 0 12.5-5.596 12.5-12.5S18.904 3.5 12 3.5-.5 9.096-.5 16 5.096 28.5 12 28.5z"/></g><path fill="#FFF" d="M224 474h169v60H224z"/><text font-family="HelveticaNeue, Helvetica Neue" font-size="14" fill="#222" transform="translate(191 474)"><tspan x="33" y="34">Option with a really long</tspan> <tspan x="33" y="54.3919983">label today</tspan></text><text font-family="HelveticaNeue, Helvetica Neue" font-size="16" fill="#222" transform="translate(191 474)"><tspan x="33" y="15">Option title</tspan></text></g><path d="M376.5 343.5v35.014M379.5 343.5h-6M379.5 378.514h-6" stroke="#979797" stroke-linecap="square"/><text font-family="Lato-Regular, Lato" font-size="12" fill="#D0011B" transform="translate(-1 -32)"><tspan x="383" y="399">`vertical-align: middle` one-liner text</tspan></text><text font-family="Lato-Regular, Lato" font-size="12" fill="#D0011B" transform="translate(-1 -32)"><tspan x="383" y="519">`vertical-align: top` 2 lines or more text </tspan></text><g stroke="#D0011B" stroke-linecap="square"><path d="M285.5 550.5v-15M286.5 550.5v-15M287.5 550.5v-15M288.5 550.5v-15"/></g><g><g transform="translate(496 141)"><use fill="#000" filter="url(#n)" xlink:href="#o"/><use fill="#FFF" xlink:href="#o"/><path stroke="#000" d="M18.095 12.378a1.69 1.69 0 0 0-1.697-1.682 1.7 1.7 0 0 0-.805.201 2.102 2.102 0 0 0-1.997-1.4c-.429 0-.827.126-1.159.342-.235-.887-1.067-1.54-2.044-1.54-.398 0-.77.11-1.086.298V1.425c0-1.06-.86-1.925-1.91-1.925-1.05 0-1.898.864-1.898 1.925V15L2.79 11.5c-.451-.773-1.533-1.041-2.383-.562-.856.484-1.165 1.55-.675 2.381l.199.309a1248.604 1248.604 0 0 0 2.036 3.143c.757 1.163 1.358 2.081 1.747 2.665.264.396.545.785 1.021 1.429l.08.106c1.38 1.861 1.853 2.609 1.853 3.03v.5h8.989V24c0-.556.155-.907 1.165-2.853.7-1.347 1.057-2.216 1.212-3.158a4.86 4.86 0 0 0 .066-.787v-3.24l-.006-1.584z"/></g></g><g><g transform="translate(496 196)"><use fill="#000" filter="url(#p)" xlink:href="#q"/><use fill="#FFF" xlink:href="#q"/><path stroke="#000" d="M18.095 12.378a1.69 1.69 0 0 0-1.697-1.682 1.7 1.7 0 0 0-.805.201 2.102 2.102 0 0 0-1.997-1.4c-.429 0-.827.126-1.159.342-.235-.887-1.067-1.54-2.044-1.54-.398 0-.77.11-1.086.298V1.425c0-1.06-.86-1.925-1.91-1.925-1.05 0-1.898.864-1.898 1.925V15L2.79 11.5c-.451-.773-1.533-1.041-2.383-.562-.856.484-1.165 1.55-.675 2.381l.199.309a1248.604 1248.604 0 0 0 2.036 3.143c.757 1.163 1.358 2.081 1.747 2.665.264.396.545.785 1.021 1.429l.08.106c1.38 1.861 1.853 2.609 1.853 3.03v.5h8.989V24c0-.556.155-.907 1.165-2.853.7-1.347 1.057-2.216 1.212-3.158a4.86 4.86 0 0 0 .066-.787v-3.24l-.006-1.584z"/></g></g><g><g transform="translate(503 28)"><use fill="#000" filter="url(#r)" xlink:href="#s"/><use fill="#000" xlink:href="#s"/><path stroke="#FFF" d="M6.448 11.787l4.367.242c1.214-.128 1.575-1.116.783-1.933L.937-.061C.49-.52.197-.699-.203-.359c-.244.208-.27.41-.271 1.028L-.5 14.984c-.002 1.138.945 1.597 1.846.902l.077-.075 2.483-2.963L6.614 19.7c.274.68 1.07.975 1.766.692.695-.28 1.062-1.045.789-1.72l-2.72-6.886z"/></g></g><g><g transform="translate(208 196)"><use fill="#000" filter="url(#t)" xlink:href="#u"/><use fill="#FFF" xlink:href="#u"/><path stroke="#000" d="M18.095 12.378a1.69 1.69 0 0 0-1.697-1.682 1.7 1.7 0 0 0-.805.201 2.102 2.102 0 0 0-1.997-1.4c-.429 0-.827.126-1.159.342-.235-.887-1.067-1.54-2.044-1.54-.398 0-.77.11-1.086.298V1.425c0-1.06-.86-1.925-1.91-1.925-1.05 0-1.898.864-1.898 1.925V15L2.79 11.5c-.451-.773-1.533-1.041-2.383-.562-.856.484-1.165 1.55-.675 2.381l.199.309a1248.604 1248.604 0 0 0 2.036 3.143c.757 1.163 1.358 2.081 1.747 2.665.264.396.545.785 1.021 1.429l.08.106c1.38 1.861 1.853 2.609 1.853 3.03v.5h8.989V24c0-.556.155-.907 1.165-2.853.7-1.347 1.057-2.216 1.212-3.158a4.86 4.86 0 0 0 .066-.787v-3.24l-.006-1.584z"/></g></g><g><g transform="translate(208 141)"><use fill="#000" filter="url(#v)" xlink:href="#w"/><use fill="#FFF" xlink:href="#w"/><path stroke="#000" d="M18.095 12.378a1.69 1.69 0 0 0-1.697-1.682 1.7 1.7 0 0 0-.805.201 2.102 2.102 0 0 0-1.997-1.4c-.429 0-.827.126-1.159.342-.235-.887-1.067-1.54-2.044-1.54-.398 0-.77.11-1.086.298V1.425c0-1.06-.86-1.925-1.91-1.925-1.05 0-1.898.864-1.898 1.925V15L2.79 11.5c-.451-.773-1.533-1.041-2.383-.562-.856.484-1.165 1.55-.675 2.381l.199.309a1248.604 1248.604 0 0 0 2.036 3.143c.757 1.163 1.358 2.081 1.747 2.665.264.396.545.785 1.021 1.429l.08.106c1.38 1.861 1.853 2.609 1.853 3.03v.5h8.989V24c0-.556.155-.907 1.165-2.853.7-1.347 1.057-2.216 1.212-3.158a4.86 4.86 0 0 0 .066-.787v-3.24l-.006-1.584z"/></g></g><g><g transform="translate(215 28)"><use fill="#000" filter="url(#x)" xlink:href="#y"/><use fill="#000" xlink:href="#y"/><path stroke="#FFF" d="M6.448 11.787l4.367.242c1.214-.128 1.575-1.116.783-1.933L.937-.061C.49-.52.197-.699-.203-.359c-.244.208-.27.41-.271 1.028L-.5 14.984c-.002 1.138.945 1.597 1.846.902l.077-.075 2.483-2.963L6.614 19.7c.274.68 1.07.975 1.766.692.695-.28 1.062-1.045.789-1.72l-2.72-6.886z"/></g></g></g></svg>