<?xml version="1.0" encoding="UTF-8"?>
<svg xmlns="http://www.w3.org/2000/svg" xmlns:xlink="http://www.w3.org/1999/xlink" width="617" height="271" viewBox="0 0 617 271">
	<title>
		radio_buttons_states
	</title>
	<defs>
		<filter id="filter-5" width="173.9%" height="154.2%" x="-36.9%" y="-18.8%" filterUnits="objectBoundingBox">
			<feMorphology in="SourceAlpha" operator="dilate" radius="1" result="shadowSpreadOuter1"/>
			<feOffset dy="1" in="shadowSpreadOuter1" result="shadowOffsetOuter1"/>
			<feGaussianBlur in="shadowOffsetOuter1" result="shadowBlurOuter1" stdDeviation=".5"/>
			<feComposite in="shadowBlurOuter1" in2="SourceAlpha" operator="out" result="shadowBlurOuter1"/>
			<feColorMatrix in="shadowBlurOuter1" result="shadowMatrixOuter1" values="0 0 0 0 0 0 0 0 0 0 0 0 0 0 0 0 0 0 0.582908741 0"/>
			<feMorphology in="SourceAlpha" operator="dilate" radius="1" result="shadowSpreadOuter2"/>
			<feOffset dy="2" in="shadowSpreadOuter2" result="shadowOffsetOuter2"/>
			<feGaussianBlur in="shadowOffsetOuter2" result="shadowBlurOuter2" stdDeviation="1.5"/>
			<feComposite in="shadowBlurOuter2" in2="SourceAlpha" operator="out" result="shadowBlurOuter2"/>
			<feColorMatrix in="shadowBlurOuter2" result="shadowMatrixOuter2" values="0 0 0 0 0 0 0 0 0 0 0 0 0 0 0 0 0 0 0.179347826 0"/>
			<feMerge>
				<feMergeNode in="shadowMatrixOuter1"/>
				<feMergeNode in="shadowMatrixOuter2"/>
			</feMerge>
		</filter>
		<filter id="filter-7" width="173.9%" height="154.2%" x="-36.9%" y="-18.8%" filterUnits="objectBoundingBox">
			<feMorphology in="SourceAlpha" operator="dilate" radius="1" result="shadowSpreadOuter1"/>
			<feOffset dy="1" in="shadowSpreadOuter1" result="shadowOffsetOuter1"/>
			<feGaussianBlur in="shadowOffsetOuter1" result="shadowBlurOuter1" stdDeviation=".5"/>
			<feComposite in="shadowBlurOuter1" in2="SourceAlpha" operator="out" result="shadowBlurOuter1"/>
			<feColorMatrix in="shadowBlurOuter1" result="shadowMatrixOuter1" values="0 0 0 0 0 0 0 0 0 0 0 0 0 0 0 0 0 0 0.582908741 0"/>
			<feMorphology in="SourceAlpha" operator="dilate" radius="1" result="shadowSpreadOuter2"/>
			<feOffset dy="2" in="shadowSpreadOuter2" result="shadowOffsetOuter2"/>
			<feGaussianBlur in="shadowOffsetOuter2" result="shadowBlurOuter2" stdDeviation="1.5"/>
			<feComposite in="shadowBlurOuter2" in2="SourceAlpha" operator="out" result="shadowBlurOuter2"/>
			<feColorMatrix in="shadowBlurOuter2" result="shadowMatrixOuter2" values="0 0 0 0 0 0 0 0 0 0 0 0 0 0 0 0 0 0 0.179347826 0"/>
			<feMerge>
				<feMergeNode in="shadowMatrixOuter1"/>
				<feMergeNode in="shadowMatrixOuter2"/>
			</feMerge>
		</filter>
		<filter id="filter-9" width="212.4%" height="164.2%" x="-56%" y="-21.7%" filterUnits="objectBoundingBox">
			<feMorphology in="SourceAlpha" operator="dilate" radius="1" result="shadowSpreadOuter1"/>
			<feOffset dy="1" in="shadowSpreadOuter1" result="shadowOffsetOuter1"/>
			<feGaussianBlur in="shadowOffsetOuter1" result="shadowBlurOuter1" stdDeviation=".5"/>
			<feComposite in="shadowBlurOuter1" in2="SourceAlpha" operator="out" result="shadowBlurOuter1"/>
			<feColorMatrix in="shadowBlurOuter1" result="shadowMatrixOuter1" values="0 0 0 0 0 0 0 0 0 0 0 0 0 0 0 0 0 0 0.582908741 0"/>
			<feMorphology in="SourceAlpha" operator="dilate" radius="1" result="shadowSpreadOuter2"/>
			<feOffset dy="2" in="shadowSpreadOuter2" result="shadowOffsetOuter2"/>
			<feGaussianBlur in="shadowOffsetOuter2" result="shadowBlurOuter2" stdDeviation="1.5"/>
			<feComposite in="shadowBlurOuter2" in2="SourceAlpha" operator="out" result="shadowBlurOuter2"/>
			<feColorMatrix in="shadowBlurOuter2" result="shadowMatrixOuter2" values="0 0 0 0 0 0 0 0 0 0 0 0 0 0 0 0 0 0 0.179347826 0"/>
			<feMerge>
				<feMergeNode in="shadowMatrixOuter1"/>
				<feMergeNode in="shadowMatrixOuter2"/>
			</feMerge>
		</filter>
		<filter id="filter-11" width="173.9%" height="154.2%" x="-36.9%" y="-18.8%" filterUnits="objectBoundingBox">
			<feMorphology in="SourceAlpha" operator="dilate" radius="1" result="shadowSpreadOuter1"/>
			<feOffset dy="1" in="shadowSpreadOuter1" result="shadowOffsetOuter1"/>
			<feGaussianBlur in="shadowOffsetOuter1" result="shadowBlurOuter1" stdDeviation=".5"/>
			<feComposite in="shadowBlurOuter1" in2="SourceAlpha" operator="out" result="shadowBlurOuter1"/>
			<feColorMatrix in="shadowBlurOuter1" result="shadowMatrixOuter1" values="0 0 0 0 0 0 0 0 0 0 0 0 0 0 0 0 0 0 0.582908741 0"/>
			<feMorphology in="SourceAlpha" operator="dilate" radius="1" result="shadowSpreadOuter2"/>
			<feOffset dy="2" in="shadowSpreadOuter2" result="shadowOffsetOuter2"/>
			<feGaussianBlur in="shadowOffsetOuter2" result="shadowBlurOuter2" stdDeviation="1.5"/>
			<feComposite in="shadowBlurOuter2" in2="SourceAlpha" operator="out" result="shadowBlurOuter2"/>
			<feColorMatrix in="shadowBlurOuter2" result="shadowMatrixOuter2" values="0 0 0 0 0 0 0 0 0 0 0 0 0 0 0 0 0 0 0.179347826 0"/>
			<feMerge>
				<feMergeNode in="shadowMatrixOuter1"/>
				<feMergeNode in="shadowMatrixOuter2"/>
			</feMerge>
		</filter>
		<filter id="filter-13" width="173.9%" height="154.2%" x="-36.9%" y="-18.8%" filterUnits="objectBoundingBox">
			<feMorphology in="SourceAlpha" operator="dilate" radius="1" result="shadowSpreadOuter1"/>
			<feOffset dy="1" in="shadowSpreadOuter1" result="shadowOffsetOuter1"/>
			<feGaussianBlur in="shadowOffsetOuter1" result="shadowBlurOuter1" stdDeviation=".5"/>
			<feComposite in="shadowBlurOuter1" in2="SourceAlpha" operator="out" result="shadowBlurOuter1"/>
			<feColorMatrix in="shadowBlurOuter1" result="shadowMatrixOuter1" values="0 0 0 0 0 0 0 0 0 0 0 0 0 0 0 0 0 0 0.582908741 0"/>
			<feMorphology in="SourceAlpha" operator="dilate" radius="1" result="shadowSpreadOuter2"/>
			<feOffset dy="2" in="shadowSpreadOuter2" result="shadowOffsetOuter2"/>
			<feGaussianBlur in="shadowOffsetOuter2" result="shadowBlurOuter2" stdDeviation="1.5"/>
			<feComposite in="shadowBlurOuter2" in2="SourceAlpha" operator="out" result="shadowBlurOuter2"/>
			<feColorMatrix in="shadowBlurOuter2" result="shadowMatrixOuter2" values="0 0 0 0 0 0 0 0 0 0 0 0 0 0 0 0 0 0 0.179347826 0"/>
			<feMerge>
				<feMergeNode in="shadowMatrixOuter1"/>
				<feMergeNode in="shadowMatrixOuter2"/>
			</feMerge>
		</filter>
		<filter id="filter-15" width="212.4%" height="164.2%" x="-56%" y="-21.7%" filterUnits="objectBoundingBox">
			<feMorphology in="SourceAlpha" operator="dilate" radius="1" result="shadowSpreadOuter1"/>
			<feOffset dy="1" in="shadowSpreadOuter1" result="shadowOffsetOuter1"/>
			<feGaussianBlur in="shadowOffsetOuter1" result="shadowBlurOuter1" stdDeviation=".5"/>
			<feComposite in="shadowBlurOuter1" in2="SourceAlpha" operator="out" result="shadowBlurOuter1"/>
			<feColorMatrix in="shadowBlurOuter1" result="shadowMatrixOuter1" values="0 0 0 0 0 0 0 0 0 0 0 0 0 0 0 0 0 0 0.582908741 0"/>
			<feMorphology in="SourceAlpha" operator="dilate" radius="1" result="shadowSpreadOuter2"/>
			<feOffset dy="2" in="shadowSpreadOuter2" result="shadowOffsetOuter2"/>
			<feGaussianBlur in="shadowOffsetOuter2" result="shadowBlurOuter2" stdDeviation="1.5"/>
			<feComposite in="shadowBlurOuter2" in2="SourceAlpha" operator="out" result="shadowBlurOuter2"/>
			<feColorMatrix in="shadowBlurOuter2" result="shadowMatrixOuter2" values="0 0 0 0 0 0 0 0 0 0 0 0 0 0 0 0 0 0 0.179347826 0"/>
			<feMerge>
				<feMergeNode in="shadowMatrixOuter1"/>
				<feMergeNode in="shadowMatrixOuter2"/>
			</feMerge>
		</filter>
		<path id="path-4" d="M17.595 12.379a1.19 1.19 0 00-1.197-1.183 1.19 1.19 0 00-1.196 1.179v-.826c0-.857-.719-1.551-1.606-1.551-.886 0-1.592.694-1.592 1.55V10.35c0-.856-.728-1.55-1.611-1.55s-1.586.694-1.586 1.55V1.425C8.807.638 8.168 0 7.397 0c-.772 0-1.398.638-1.398 1.425v15.038l-3.603-4.659c-.346-.586-1.126-.779-1.742-.431-.617.348-.836 1.105-.49 1.691 0 0 2.817 4.369 3.967 6.093C5.281 20.882 7.17 23.01 7.17 24h7.989c0-1.672 2.443-4.283 2.443-6.798v-3.24l-.006-1.583z"/>
		<path id="path-6" d="M17.595 12.379a1.19 1.19 0 00-1.197-1.183 1.19 1.19 0 00-1.196 1.179v-.826c0-.857-.719-1.551-1.606-1.551-.886 0-1.592.694-1.592 1.55V10.35c0-.856-.728-1.55-1.611-1.55s-1.586.694-1.586 1.55V1.425C8.807.638 8.168 0 7.397 0c-.772 0-1.398.638-1.398 1.425v15.038l-3.603-4.659c-.346-.586-1.126-.779-1.742-.431-.617.348-.836 1.105-.49 1.691 0 0 2.817 4.369 3.967 6.093C5.281 20.882 7.17 23.01 7.17 24h7.989c0-1.672 2.443-4.283 2.443-6.798v-3.24l-.006-1.583z"/>
		<path id="path-8" d="M6.132 11.269l4.71.26c.72-.08.899-.568.397-1.085L.592.3C.09-.216.027-.049.026.671L0 14.984c-.001.72.467.947 1.04.505l2.742-3.272c.095-.074.208-.146.327-.218l2.97 7.517c.165.41.664.595 1.113.413.449-.18.68-.66.514-1.07l-2.972-7.518.398-.073z"/>
		<path id="path-10" d="M17.595 12.379a1.19 1.19 0 00-1.197-1.183 1.19 1.19 0 00-1.196 1.179v-.826c0-.857-.719-1.551-1.606-1.551-.886 0-1.592.694-1.592 1.55V10.35c0-.856-.728-1.55-1.611-1.55s-1.586.694-1.586 1.55V1.425C8.807.638 8.168 0 7.397 0c-.772 0-1.398.638-1.398 1.425v15.038l-3.603-4.659c-.346-.586-1.126-.779-1.742-.431-.617.348-.836 1.105-.49 1.691 0 0 2.817 4.369 3.967 6.093C5.281 20.882 7.17 23.01 7.17 24h7.989c0-1.672 2.443-4.283 2.443-6.798v-3.24l-.006-1.583z"/>
		<path id="path-12" d="M17.595 12.379a1.19 1.19 0 00-1.197-1.183 1.19 1.19 0 00-1.196 1.179v-.826c0-.857-.719-1.551-1.606-1.551-.886 0-1.592.694-1.592 1.55V10.35c0-.856-.728-1.55-1.611-1.55s-1.586.694-1.586 1.55V1.425C8.807.638 8.168 0 7.397 0c-.772 0-1.398.638-1.398 1.425v15.038l-3.603-4.659c-.346-.586-1.126-.779-1.742-.431-.617.348-.836 1.105-.49 1.691 0 0 2.817 4.369 3.967 6.093C5.281 20.882 7.17 23.01 7.17 24h7.989c0-1.672 2.443-4.283 2.443-6.798v-3.24l-.006-1.583z"/>
		<path id="path-14" d="M6.132 11.269l4.71.26c.72-.08.899-.568.397-1.085L.592.3C.09-.216.027-.049.026.671L0 14.984c-.001.72.467.947 1.04.505l2.742-3.272c.095-.074.208-.146.327-.218l2.97 7.517c.165.41.664.595 1.113.413.449-.18.68-.66.514-1.07l-2.972-7.518.398-.073z"/>
		<circle id="path-1" cx="12" cy="16" r="12"/>
		<circle id="path-2" cx="12" cy="16" r="12"/>
		<circle id="path-3" cx="12" cy="12" r="12"/>
	</defs>
	<g id="Artboard-page" fill="none" fill-rule="evenodd" stroke="none" stroke-width="1">
		<g id="WikimediaUI-components_overview" transform="translate(-5841 -255)">
			<path fill="#FFF" d="M0 0h14720v3264H0z"/>
			<g id="RADIO-BUTTONS---DESKTOP" transform="translate(5840 143)">
				<g id="Radio-Buttons-X" transform="translate(0 113)">
					<g id="Radio-/-:disabled" transform="translate(192 224)">
						<text id="Label" fill="#7D8389" font-family="HelveticaNeue, Helvetica Neue, sans-serif" font-size="16" font-weight="normal">
							<tspan x="32" y="22">Neutral point</tspan>
						</text>
						<circle id="Oval-112" cx="12" cy="16" r="11.5" fill="#C8CCD1" fill-rule="evenodd" stroke="#C8CCD1" stroke-width="1"/>
					</g>
					<g id="Radio-/-:hover" transform="translate(192 56)">
						<text id="Label" fill="#222" font-family="HelveticaNeue, Helvetica Neue, sans-serif" font-size="16" font-weight="normal">
							<tspan x="32" y="22">Neutral point</tspan>
						</text>
						<circle id="Oval-112" cx="12" cy="16" r="11.5" stroke="#447FF5" stroke-width="1"/>
					</g>
					<g id="Radio-/-:active" transform="translate(192 112)">
						<text id="Label" fill="#222" font-family="HelveticaNeue, Helvetica Neue, sans-serif" font-size="16" font-weight="normal">
							<tspan x="32" y="22">Neutral point</tspan>
						</text>
						<g id="Oval-112" stroke="#2A4B8D" stroke-linejoin="square">
							<circle cx="12" cy="16" r="11" fill="#2A4B8D" stroke-width="2"/>
							<circle cx="12" cy="16" r="11.5"/>
						</g>
					</g>
					<text id="Normal-Hover-Active" fill="#72777D" font-family="Lato-Regular, Lato, sans-serif" font-size="14" font-weight="normal">
						<tspan x="0" y="21">Normal</tspan> <tspan x="0" y="77.1">Hover</tspan> <tspan x="0" y="133.2">Active</tspan> <tspan x="0" y="189.3">Focus</tspan> <tspan x="0" y="245.4">Disabled</tspan>
					</text>
					<g id="Radio-/-:checked-/-:disabled" transform="translate(480 224)">
						<text id="Label" fill="#7D8389" font-family="HelveticaNeue, Helvetica Neue, sans-serif" font-size="16" font-weight="normal">
							<tspan x="32" y="22">Neutral point</tspan>
						</text>
						<g id="Oval-112-Copy-+-Oval-59-Copy" fill-rule="evenodd" stroke-width="1" transform="translate(0 4)">
							<circle id="Oval-112-Copy" cx="12" cy="12" r="11.5" fill="#C8CCD1" stroke="#C8CCD1"/>
							<path id="Oval-59-Copy" fill="#FFF" d="M12 17a5 5 0 100-10 5 5 0 000 10z"/>
						</g>
					</g>
					<g id="Radio-/-!default" transform="translate(192)">
						<text id="Label" fill="#222" font-family="HelveticaNeue, Helvetica Neue, sans-serif" font-size="16" font-weight="normal">
							<tspan x="32" y="22">Neutral point</tspan>
						</text>
						<path id="Oval-112-Copy-2" fill="#FFF" fill-rule="evenodd" stroke="#72777D" stroke-width="1" d="M12 4.5c-3.176 0-6.05 1.287-8.132 3.368A11.464 11.464 0 00.5 16c0 3.176 1.287 6.05 3.368 8.132A11.464 11.464 0 0012 27.5c3.176 0 6.05-1.287 8.132-3.368A11.464 11.464 0 0023.5 16c0-3.176-1.287-6.05-3.368-8.132A11.464 11.464 0 0012 4.5z"/>
					</g>
					<g id="_Spec-/-16-sp-(1-em)-+-2-*-4-sp-(0.25-em)" stroke-width="4" transform="rotate(-90 215.5 36)">
						<g id="_Spec-/-16-sp-(1-em)" stroke="#D0021B" transform="translate(4)">
							<path id="16-sp-(1-em)" d="M0 1.5h16"/>
						</g>
						<g id="_Spec-/-4-sp-(0.25-em)" stroke="#F5A623" transform="translate(20)">
							<path id="4-sp-(0.25-em)" d="M0 1.5h4"/>
						</g>
						<g id="_Spec-/-4-sp-(0.25-em)" stroke="#F5A623">
							<path id="4-sp-(0.25-em)" d="M0 1.5h4"/>
						</g>
					</g>
					<g id="Radio-/-:focus" transform="translate(192 168)">
						<text id="Label" fill="#222" font-family="HelveticaNeue, Helvetica Neue, sans-serif" font-size="16" font-weight="normal">
							<tspan x="32" y="22">Neutral point</tspan>
						</text>
						<g id="Oval-112-Copy-4" stroke="#36C" stroke-linejoin="square">
							<circle cx="12" cy="16" r="11" stroke-width="2"/>
							<circle cx="12" cy="16" r="11.5"/>
						</g>
					</g>
					<g id="Radio-/-:checked-/-:focus" transform="translate(480 168)">
						<text id="Label" fill="#222" font-family="HelveticaNeue, Helvetica Neue, sans-serif" font-size="16" font-weight="normal">
							<tspan x="32" y="22">Neutral point</tspan>
						</text>
						<g id="Oval-112-Copy-5-+-Oval-78" fill-rule="evenodd" stroke-width="1" transform="translate(0 4)">
							<g id="Oval-112-Copy-5" stroke-linejoin="square">
								<circle cx="12" cy="12" r="10" fill="#36C" stroke="#FFF" stroke-width="4"/>
								<circle cx="12" cy="12" r="10.5" stroke="#36C" stroke-width="3"/>
								<circle cx="12" cy="12" r="11.5" stroke="#36C"/>
							</g>
							<path id="Oval-78" fill="#FFF" d="M12 17a5 5 0 100-10 5 5 0 000 10z"/>
						</g>
					</g>
					<g id="Radio-/-:checked-/-:active" transform="translate(480 112)">
						<text id="Label" fill="#222" font-family="HelveticaNeue, Helvetica Neue, sans-serif" font-size="16" font-weight="normal">
							<tspan x="32" y="22">Neutral point</tspan>
						</text>
						<g id="Oval-112-Copy-6-+-Oval-59-Copy-3" fill-rule="evenodd" stroke-width="1" transform="translate(0 4)">
							<path id="Oval-112-Copy-6" fill="#2A4B8D" stroke="#2A4B8D" d="M12 .5C8.824.5 5.95 1.787 3.868 3.868A11.464 11.464 0 00.5 12c0 3.176 1.287 6.05 3.368 8.132A11.464 11.464 0 0012 23.5c3.176 0 6.05-1.287 8.132-3.368A11.464 11.464 0 0023.5 12c0-3.176-1.287-6.05-3.368-8.132A11.464 11.464 0 0012 .5z"/>
							<circle id="Oval-59-Copy-3" cx="12" cy="12" r="5" fill="#FFF"/>
						</g>
					</g>
					<g id="Radio-/-:checked-/-:hover" transform="translate(480 56)">
						<text id="Label" fill="#222" font-family="HelveticaNeue, Helvetica Neue, sans-serif" font-size="16" font-weight="normal">
							<tspan x="32" y="22">Neutral point</tspan>
						</text>
						<g id="Oval-112-+-Oval-59" fill-rule="evenodd" stroke-width="1" transform="translate(0 4)">
							<circle id="Oval-112" cx="12" cy="12" r="11.5" fill="#447FF5" stroke="#447FF5"/>
							<path id="Oval-59" fill="#FFF" d="M12 17a5 5 0 100-10 5 5 0 000 10z"/>
						</g>
					</g>
					<g id="Radio-/-:checked-/-!default" transform="translate(480)">
						<text id="Label" fill="#222" font-family="HelveticaNeue, Helvetica Neue, sans-serif" font-size="16" font-weight="normal">
							<tspan x="32" y="22">Neutral point</tspan>
						</text>
						<g id="Oval-112-Copy-3-+-Oval-59-Copy-2" fill-rule="evenodd" stroke-width="1" transform="translate(0 4)">
							<path id="Oval-112-Copy-3" fill="#36C" stroke="#36C" d="M12 .5C8.824.5 5.95 1.787 3.868 3.868A11.464 11.464 0 00.5 12c0 3.176 1.287 6.05 3.368 8.132A11.464 11.464 0 0012 23.5c3.176 0 6.05-1.287 8.132-3.368A11.464 11.464 0 0023.5 12c0-3.176-1.287-6.05-3.368-8.132A11.464 11.464 0 0012 .5z"/>
							<path id="Oval-59-Copy-2" fill="#FFF" d="M12 17a5 5 0 100-10 5 5 0 000 10z"/>
						</g>
					</g>
					<g id="Cursor-/-Pointer" transform="translate(497 76)">
						<g id="Cursor-Pointer">
							<use fill="#000" filter="url(#filter-5)" xlink:href="#path-4"/>
							<path fill="#FFF" stroke="#000" d="M12.439 9.845a2.038 2.038 0 00-.561-.95 2.138 2.138 0 00-2.571-.298V1.425A1.925 1.925 0 007.397-.5c-.526 0-1.002.216-1.346.567-.34.348-.552.828-.552 1.358V15l-2.69-3.478a1.729 1.729 0 00-1.063-.768 1.83 1.83 0 00-1.338.184 1.778 1.778 0 00-.84 1.053c-.126.435-.08.912.176 1.345 0 0 2.82 4.373 3.971 6.1.345.517.755 1.07 1.161 1.617.868 1.17 1.793 2.306 1.793 2.948 0 .144-.047.312-.128.5h9.221c-.352-.755.25-1.803.875-2.996.704-1.343 1.464-2.841 1.464-4.302v-3.24l-.006-1.585c0-.464-.19-.885-.499-1.19a1.7 1.7 0 00-1.198-.491 1.7 1.7 0 00-.805.201 2.043 2.043 0 00-.514-.805 2.127 2.127 0 00-1.483-.594c-.43 0-.826.124-1.157.347z"/>
						</g>
					</g>
					<g id="Cursor-/-Pointer" transform="translate(497 131)">
						<g id="Cursor-Pointer">
							<use fill="#000" filter="url(#filter-7)" xlink:href="#path-6"/>
							<path fill="#FFF" stroke="#000" d="M12.439 9.845a2.038 2.038 0 00-.561-.95 2.138 2.138 0 00-2.571-.298V1.425A1.925 1.925 0 007.397-.5c-.526 0-1.002.216-1.346.567-.34.348-.552.828-.552 1.358V15l-2.69-3.478a1.729 1.729 0 00-1.063-.768 1.83 1.83 0 00-1.338.184 1.778 1.778 0 00-.84 1.053c-.126.435-.08.912.176 1.345 0 0 2.82 4.373 3.971 6.1.345.517.755 1.07 1.161 1.617.868 1.17 1.793 2.306 1.793 2.948 0 .144-.047.312-.128.5h9.221c-.352-.755.25-1.803.875-2.996.704-1.343 1.464-2.841 1.464-4.302v-3.24l-.006-1.585c0-.464-.19-.885-.499-1.19a1.7 1.7 0 00-1.198-.491 1.7 1.7 0 00-.805.201 2.043 2.043 0 00-.514-.805 2.127 2.127 0 00-1.483-.594c-.43 0-.826.124-1.157.347z"/>
						</g>
					</g>
					<g id="Cursor-/-!default" transform="translate(504 243)">
						<g id="Cursor" fill="#000">
							<use filter="url(#filter-9)" xlink:href="#path-8"/>
							<path stroke="#FFF" d="M3.936 12.924L6.614 19.7c.137.34.408.59.741.713.31.116.677.12 1.025-.02.346-.14.606-.398.75-.697a1.26 1.26 0 00.039-1.024l-2.72-6.886 4.404.244c.279-.025.501-.098.67-.195a.977.977 0 00.445-.514.97.97 0 00-.011-.68 1.584 1.584 0 00-.366-.554L.943-.055C.7-.303.478-.353-.217.204c-.07.246-.131.76-.17 1.734-.078 1.911-.1 5.713.008 13.687a.971.971 0 00.465.498c.192.093.42.124.678.06.191-.048.405-.153.627-.333l2.545-2.926z"/>
						</g>
					</g>
					<g id="Cursor-/-Pointer" transform="translate(209 131)">
						<g id="Cursor-Pointer">
							<use fill="#000" filter="url(#filter-11)" xlink:href="#path-10"/>
							<path fill="#FFF" stroke="#000" d="M12.439 9.845a2.038 2.038 0 00-.561-.95 2.138 2.138 0 00-2.571-.298V1.425A1.925 1.925 0 007.397-.5c-.526 0-1.002.216-1.346.567-.34.348-.552.828-.552 1.358V15l-2.69-3.478a1.729 1.729 0 00-1.063-.768 1.83 1.83 0 00-1.338.184 1.778 1.778 0 00-.84 1.053c-.126.435-.08.912.176 1.345 0 0 2.82 4.373 3.971 6.1.345.517.755 1.07 1.161 1.617.868 1.17 1.793 2.306 1.793 2.948 0 .144-.047.312-.128.5h9.221c-.352-.755.25-1.803.875-2.996.704-1.343 1.464-2.841 1.464-4.302v-3.24l-.006-1.585c0-.464-.19-.885-.499-1.19a1.7 1.7 0 00-1.198-.491 1.7 1.7 0 00-.805.201 2.043 2.043 0 00-.514-.805 2.127 2.127 0 00-1.483-.594c-.43 0-.826.124-1.157.347z"/>
						</g>
					</g>
					<g id="Cursor-/-Pointer" transform="translate(209 76)">
						<g id="Cursor-Pointer">
							<use fill="#000" filter="url(#filter-13)" xlink:href="#path-12"/>
							<path fill="#FFF" stroke="#000" d="M12.439 9.845a2.038 2.038 0 00-.561-.95 2.138 2.138 0 00-2.571-.298V1.425A1.925 1.925 0 007.397-.5c-.526 0-1.002.216-1.346.567-.34.348-.552.828-.552 1.358V15l-2.69-3.478a1.729 1.729 0 00-1.063-.768 1.83 1.83 0 00-1.338.184 1.778 1.778 0 00-.84 1.053c-.126.435-.08.912.176 1.345 0 0 2.82 4.373 3.971 6.1.345.517.755 1.07 1.161 1.617.868 1.17 1.793 2.306 1.793 2.948 0 .144-.047.312-.128.5h9.221c-.352-.755.25-1.803.875-2.996.704-1.343 1.464-2.841 1.464-4.302v-3.24l-.006-1.585c0-.464-.19-.885-.499-1.19a1.7 1.7 0 00-1.198-.491 1.7 1.7 0 00-.805.201 2.043 2.043 0 00-.514-.805 2.127 2.127 0 00-1.483-.594c-.43 0-.826.124-1.157.347z"/>
						</g>
					</g>
					<g id="Cursor-/-!default" transform="translate(216 243)">
						<g id="Cursor" fill="#000">
							<use filter="url(#filter-15)" xlink:href="#path-14"/>
							<path stroke="#FFF" d="M3.936 12.924L6.614 19.7c.137.34.408.59.741.713.31.116.677.12 1.025-.02.346-.14.606-.398.75-.697a1.26 1.26 0 00.039-1.024l-2.72-6.886 4.404.244c.279-.025.501-.098.67-.195a.977.977 0 00.445-.514.97.97 0 00-.011-.68 1.584 1.584 0 00-.366-.554L.943-.055C.7-.303.478-.353-.217.204c-.07.246-.131.76-.17 1.734-.078 1.911-.1 5.713.008 13.687a.971.971 0 00.465.498c.192.093.42.124.678.06.191-.048.405-.153.627-.333l2.545-2.926z"/>
						</g>
					</g>
				</g>
			</g>
		</g>
	</g>
</svg>
