<?xml version="1.0" encoding="UTF-8"?>
<svg xmlns="http://www.w3.org/2000/svg" xmlns:xlink="http://www.w3.org/1999/xlink" width="617" height="271" viewBox="0 0 617 271">
	<title>
		Radio_Buttons_states
	</title>
	<desc>
		Created with Sketch.
	</desc>
	<defs>
		<filter id="filter-15" width="220.2%" height="165%" x="-56.2%" y="-22.5%" filterUnits="objectBoundingBox">
			<feMorphology in="SourceAlpha" operator="dilate" radius="1" result="shadowSpreadOuter1"/>
			<feOffset dy="1" in="shadowSpreadOuter1" result="shadowOffsetOuter1"/>
			<feGaussianBlur in="shadowOffsetOuter1" result="shadowBlurOuter1" stdDeviation=".5"/>
			<feComposite in="shadowBlurOuter1" in2="SourceAlpha" operator="out" result="shadowBlurOuter1"/>
			<feColorMatrix in="shadowBlurOuter1" result="shadowMatrixOuter1" values="0 0 0 0 0 0 0 0 0 0 0 0 0 0 0 0 0 0 0.582908741 0"/>
			<feMorphology in="SourceAlpha" operator="dilate" radius="1" result="shadowSpreadOuter2"/>
			<feOffset dy="2" in="shadowSpreadOuter2" result="shadowOffsetOuter2"/>
			<feGaussianBlur in="shadowOffsetOuter2" result="shadowBlurOuter2" stdDeviation="1.5"/>
			<feComposite in="shadowBlurOuter2" in2="SourceAlpha" operator="out" result="shadowBlurOuter2"/>
			<feColorMatrix in="shadowBlurOuter2" result="shadowMatrixOuter2" values="0 0 0 0 0 0 0 0 0 0 0 0 0 0 0 0 0 0 0.179347826 0"/>
			<feMerge>
				<feMergeNode in="shadowMatrixOuter1"/>
				<feMergeNode in="shadowMatrixOuter2"/>
			</feMerge>
		</filter>
		<filter id="filter-5" width="173.9%" height="154.2%" x="-36.9%" y="-18.8%" filterUnits="objectBoundingBox">
			<feMorphology in="SourceAlpha" operator="dilate" radius="1" result="shadowSpreadOuter1"/>
			<feOffset dy="1" in="shadowSpreadOuter1" result="shadowOffsetOuter1"/>
			<feGaussianBlur in="shadowOffsetOuter1" result="shadowBlurOuter1" stdDeviation=".5"/>
			<feComposite in="shadowBlurOuter1" in2="SourceAlpha" operator="out" result="shadowBlurOuter1"/>
			<feColorMatrix in="shadowBlurOuter1" result="shadowMatrixOuter1" values="0 0 0 0 0 0 0 0 0 0 0 0 0 0 0 0 0 0 0.582908741 0"/>
			<feMorphology in="SourceAlpha" operator="dilate" radius="1" result="shadowSpreadOuter2"/>
			<feOffset dy="2" in="shadowSpreadOuter2" result="shadowOffsetOuter2"/>
			<feGaussianBlur in="shadowOffsetOuter2" result="shadowBlurOuter2" stdDeviation="1.5"/>
			<feComposite in="shadowBlurOuter2" in2="SourceAlpha" operator="out" result="shadowBlurOuter2"/>
			<feColorMatrix in="shadowBlurOuter2" result="shadowMatrixOuter2" values="0 0 0 0 0 0 0 0 0 0 0 0 0 0 0 0 0 0 0.179347826 0"/>
			<feMerge>
				<feMergeNode in="shadowMatrixOuter1"/>
				<feMergeNode in="shadowMatrixOuter2"/>
			</feMerge>
		</filter>
		<filter id="filter-7" width="173.9%" height="154.2%" x="-36.9%" y="-18.8%" filterUnits="objectBoundingBox">
			<feMorphology in="SourceAlpha" operator="dilate" radius="1" result="shadowSpreadOuter1"/>
			<feOffset dy="1" in="shadowSpreadOuter1" result="shadowOffsetOuter1"/>
			<feGaussianBlur in="shadowOffsetOuter1" result="shadowBlurOuter1" stdDeviation=".5"/>
			<feComposite in="shadowBlurOuter1" in2="SourceAlpha" operator="out" result="shadowBlurOuter1"/>
			<feColorMatrix in="shadowBlurOuter1" result="shadowMatrixOuter1" values="0 0 0 0 0 0 0 0 0 0 0 0 0 0 0 0 0 0 0.582908741 0"/>
			<feMorphology in="SourceAlpha" operator="dilate" radius="1" result="shadowSpreadOuter2"/>
			<feOffset dy="2" in="shadowSpreadOuter2" result="shadowOffsetOuter2"/>
			<feGaussianBlur in="shadowOffsetOuter2" result="shadowBlurOuter2" stdDeviation="1.5"/>
			<feComposite in="shadowBlurOuter2" in2="SourceAlpha" operator="out" result="shadowBlurOuter2"/>
			<feColorMatrix in="shadowBlurOuter2" result="shadowMatrixOuter2" values="0 0 0 0 0 0 0 0 0 0 0 0 0 0 0 0 0 0 0.179347826 0"/>
			<feMerge>
				<feMergeNode in="shadowMatrixOuter1"/>
				<feMergeNode in="shadowMatrixOuter2"/>
			</feMerge>
		</filter>
		<filter id="filter-13" width="173.9%" height="154.2%" x="-36.9%" y="-18.8%" filterUnits="objectBoundingBox">
			<feMorphology in="SourceAlpha" operator="dilate" radius="1" result="shadowSpreadOuter1"/>
			<feOffset dy="1" in="shadowSpreadOuter1" result="shadowOffsetOuter1"/>
			<feGaussianBlur in="shadowOffsetOuter1" result="shadowBlurOuter1" stdDeviation=".5"/>
			<feComposite in="shadowBlurOuter1" in2="SourceAlpha" operator="out" result="shadowBlurOuter1"/>
			<feColorMatrix in="shadowBlurOuter1" result="shadowMatrixOuter1" values="0 0 0 0 0 0 0 0 0 0 0 0 0 0 0 0 0 0 0.582908741 0"/>
			<feMorphology in="SourceAlpha" operator="dilate" radius="1" result="shadowSpreadOuter2"/>
			<feOffset dy="2" in="shadowSpreadOuter2" result="shadowOffsetOuter2"/>
			<feGaussianBlur in="shadowOffsetOuter2" result="shadowBlurOuter2" stdDeviation="1.5"/>
			<feComposite in="shadowBlurOuter2" in2="SourceAlpha" operator="out" result="shadowBlurOuter2"/>
			<feColorMatrix in="shadowBlurOuter2" result="shadowMatrixOuter2" values="0 0 0 0 0 0 0 0 0 0 0 0 0 0 0 0 0 0 0.179347826 0"/>
			<feMerge>
				<feMergeNode in="shadowMatrixOuter1"/>
				<feMergeNode in="shadowMatrixOuter2"/>
			</feMerge>
		</filter>
		<filter id="filter-9" width="220.2%" height="165%" x="-56.2%" y="-22.5%" filterUnits="objectBoundingBox">
			<feMorphology in="SourceAlpha" operator="dilate" radius="1" result="shadowSpreadOuter1"/>
			<feOffset dy="1" in="shadowSpreadOuter1" result="shadowOffsetOuter1"/>
			<feGaussianBlur in="shadowOffsetOuter1" result="shadowBlurOuter1" stdDeviation=".5"/>
			<feComposite in="shadowBlurOuter1" in2="SourceAlpha" operator="out" result="shadowBlurOuter1"/>
			<feColorMatrix in="shadowBlurOuter1" result="shadowMatrixOuter1" values="0 0 0 0 0 0 0 0 0 0 0 0 0 0 0 0 0 0 0.582908741 0"/>
			<feMorphology in="SourceAlpha" operator="dilate" radius="1" result="shadowSpreadOuter2"/>
			<feOffset dy="2" in="shadowSpreadOuter2" result="shadowOffsetOuter2"/>
			<feGaussianBlur in="shadowOffsetOuter2" result="shadowBlurOuter2" stdDeviation="1.5"/>
			<feComposite in="shadowBlurOuter2" in2="SourceAlpha" operator="out" result="shadowBlurOuter2"/>
			<feColorMatrix in="shadowBlurOuter2" result="shadowMatrixOuter2" values="0 0 0 0 0 0 0 0 0 0 0 0 0 0 0 0 0 0 0.179347826 0"/>
			<feMerge>
				<feMergeNode in="shadowMatrixOuter1"/>
				<feMergeNode in="shadowMatrixOuter2"/>
			</feMerge>
		</filter>
		<filter id="filter-11" width="173.9%" height="154.2%" x="-36.9%" y="-18.8%" filterUnits="objectBoundingBox">
			<feMorphology in="SourceAlpha" operator="dilate" radius="1" result="shadowSpreadOuter1"/>
			<feOffset dy="1" in="shadowSpreadOuter1" result="shadowOffsetOuter1"/>
			<feGaussianBlur in="shadowOffsetOuter1" result="shadowBlurOuter1" stdDeviation=".5"/>
			<feComposite in="shadowBlurOuter1" in2="SourceAlpha" operator="out" result="shadowBlurOuter1"/>
			<feColorMatrix in="shadowBlurOuter1" result="shadowMatrixOuter1" values="0 0 0 0 0 0 0 0 0 0 0 0 0 0 0 0 0 0 0.582908741 0"/>
			<feMorphology in="SourceAlpha" operator="dilate" radius="1" result="shadowSpreadOuter2"/>
			<feOffset dy="2" in="shadowSpreadOuter2" result="shadowOffsetOuter2"/>
			<feGaussianBlur in="shadowOffsetOuter2" result="shadowBlurOuter2" stdDeviation="1.5"/>
			<feComposite in="shadowBlurOuter2" in2="SourceAlpha" operator="out" result="shadowBlurOuter2"/>
			<feColorMatrix in="shadowBlurOuter2" result="shadowMatrixOuter2" values="0 0 0 0 0 0 0 0 0 0 0 0 0 0 0 0 0 0 0.179347826 0"/>
			<feMerge>
				<feMergeNode in="shadowMatrixOuter1"/>
				<feMergeNode in="shadowMatrixOuter2"/>
			</feMerge>
		</filter>
		<path id="path-14" d="M6.132 11.269l4.71.26c.72-.08.899-.568.397-1.085L.592.3C.09-.216.027-.049.026.671L0 14.984c-.001.72.467.947 1.04.505l2.742-3.272c.095-.074.208-.146.327-.218l2.97 7.517c.165.41.664.595 1.113.413.449-.18.68-.66.514-1.07l-2.972-7.518.398-.073z"/>
		<path id="path-4" d="M17.595 12.379a1.19 1.19 0 00-1.197-1.183 1.19 1.19 0 00-1.196 1.179v-.826c0-.857-.719-1.551-1.606-1.551-.886 0-1.592.694-1.592 1.55V10.35c0-.856-.728-1.55-1.611-1.55s-1.586.694-1.586 1.55V1.425C8.807.638 8.168 0 7.397 0c-.772 0-1.398.638-1.398 1.425v15.038l-3.603-4.659c-.346-.586-1.126-.779-1.742-.431-.617.348-.836 1.105-.49 1.691 0 0 2.817 4.369 3.967 6.093C5.281 20.882 7.17 23.01 7.17 24h7.989c0-1.672 2.443-4.283 2.443-6.798v-3.24l-.006-1.583z"/>
		<path id="path-8" d="M6.132 11.269l4.71.26c.72-.08.899-.568.397-1.085L.592.3C.09-.216.027-.049.026.671L0 14.984c-.001.72.467.947 1.04.505l2.742-3.272c.095-.074.208-.146.327-.218l2.97 7.517c.165.41.664.595 1.113.413.449-.18.68-.66.514-1.07l-2.972-7.518.398-.073z"/>
		<path id="path-10" d="M17.595 12.379a1.19 1.19 0 00-1.197-1.183 1.19 1.19 0 00-1.196 1.179v-.826c0-.857-.719-1.551-1.606-1.551-.886 0-1.592.694-1.592 1.55V10.35c0-.856-.728-1.55-1.611-1.55s-1.586.694-1.586 1.55V1.425C8.807.638 8.168 0 7.397 0c-.772 0-1.398.638-1.398 1.425v15.038l-3.603-4.659c-.346-.586-1.126-.779-1.742-.431-.617.348-.836 1.105-.49 1.691 0 0 2.817 4.369 3.967 6.093C5.281 20.882 7.17 23.01 7.17 24h7.989c0-1.672 2.443-4.283 2.443-6.798v-3.24l-.006-1.583z"/>
		<path id="path-6" d="M17.595 12.379a1.19 1.19 0 00-1.197-1.183 1.19 1.19 0 00-1.196 1.179v-.826c0-.857-.719-1.551-1.606-1.551-.886 0-1.592.694-1.592 1.55V10.35c0-.856-.728-1.55-1.611-1.55s-1.586.694-1.586 1.55V1.425C8.807.638 8.168 0 7.397 0c-.772 0-1.398.638-1.398 1.425v15.038l-3.603-4.659c-.346-.586-1.126-.779-1.742-.431-.617.348-.836 1.105-.49 1.691 0 0 2.817 4.369 3.967 6.093C5.281 20.882 7.17 23.01 7.17 24h7.989c0-1.672 2.443-4.283 2.443-6.798v-3.24l-.006-1.583z"/>
		<path id="path-12" d="M17.595 12.379a1.19 1.19 0 00-1.197-1.183 1.19 1.19 0 00-1.196 1.179v-.826c0-.857-.719-1.551-1.606-1.551-.886 0-1.592.694-1.592 1.55V10.35c0-.856-.728-1.55-1.611-1.55s-1.586.694-1.586 1.55V1.425C8.807.638 8.168 0 7.397 0c-.772 0-1.398.638-1.398 1.425v15.038l-3.603-4.659c-.346-.586-1.126-.779-1.742-.431-.617.348-.836 1.105-.49 1.691 0 0 2.817 4.369 3.967 6.093C5.281 20.882 7.17 23.01 7.17 24h7.989c0-1.672 2.443-4.283 2.443-6.798v-3.24l-.006-1.583z"/>
		<circle id="path-2" cx="12" cy="16" r="12"/>
		<circle id="path-3" cx="12" cy="12" r="12"/>
		<circle id="path-1" cx="12" cy="16" r="12"/>
	</defs>
	<g id="Artboard-page" fill="none" fill-rule="evenodd" stroke="none" stroke-width="1">
		<g id="WikimediaUI-components_overview" transform="translate(-5841 -255)">
			<path fill="#FFF" d="M0 0h14720v3264H0z"/>
			<g id="RADIO-BUTTONS---DESKTOP" transform="translate(5840 143)">
				<g id="Radio-Button-X" transform="translate(0 113)">
					<g id="Radio-/-:disabled" transform="translate(192 224)">
						<circle id="Oval-112" cx="12" cy="16" r="12.5" fill="#C8CCD1" fill-rule="evenodd" stroke="#C8CCD1" stroke-width="1"/>
						<text id="8:16:8:16-copy-27" fill="#7D8389" font-family="HelveticaNeue, Helvetica Neue" font-size="16" font-weight="normal">
							<tspan x="33" y="22">Neutral point</tspan>
						</text>
					</g>
					<g id="Radio-/-:hover" transform="translate(192 56)">
						<circle id="Oval-112" cx="12" cy="16" r="12.5" stroke="#2962CC" stroke-width="1"/>
						<text id="8:16:8:16-copy-16" fill="#222" font-family="HelveticaNeue, Helvetica Neue" font-size="16" font-weight="normal">
							<tspan x="33" y="22">Neutral point</tspan>
						</text>
					</g>
					<g id="Radio-/-:active" transform="translate(192 112)">
						<g id="Oval-112">
							<use fill="#2A4B8D" xlink:href="#path-1"/>
							<circle cx="12" cy="16" r="12.5" stroke="#2A4B8D"/>
							<circle cx="12" cy="16" r="11.5" stroke="#2A4B8D" stroke-linejoin="square"/>
						</g>
						<text id="8:16:8:16-copy-16" fill="#222" font-family="HelveticaNeue, Helvetica Neue" font-size="16" font-weight="normal">
							<tspan x="33" y="22">Neutral point</tspan>
						</text>
					</g>
					<text id="Normal-Hover-Active" fill="#72777D" font-family="Lato-Regular, Lato" font-size="14" font-weight="normal">
						<tspan x="0" y="21"> Normal</tspan>   <tspan x="0" y="77.1"> Hover</tspan>   <tspan x="0" y="133.2"> Active</tspan>   <tspan x="0" y="189.3"> Focus</tspan>   <tspan x="0" y="245.4">Disabled</tspan>
					</text>
					<g id="Radio-/-:checked-/-:disabled" transform="translate(480 224)">
						<text id="8:16:8:16-copy-24" fill="#7D8389" font-family="HelveticaNeue, Helvetica Neue" font-size="16" font-weight="normal">
							<tspan x="33" y="22">Neutral point</tspan>
						</text>
						<g id="Oval-112-Copy-+-Oval-59-Copy" fill-rule="evenodd" stroke-width="1" transform="translate(0 4)">
							<circle id="Oval-112-Copy" cx="12" cy="12" r="12.5" fill="#C8CCD1" stroke="#C8CCD1"/>
							<path id="Oval-59-Copy" fill="#FFF" d="M12 18a6 6 0 100-12 6 6 0 000 12z"/>
						</g>
					</g>
					<g id="Radio-/-!default" transform="translate(192)">
						<text id="8:16:8:16-copy-22" fill="#222" font-family="HelveticaNeue, Helvetica Neue" font-size="16" font-weight="normal">
							<tspan x="33" y="22">Neutral point</tspan>
						</text>
						<path id="Oval-112-Copy-2" fill="#FFF" fill-rule="evenodd" stroke="#72777D" stroke-width="1" d="M12 28.5C5.096 28.5-.5 22.904-.5 16S5.096 3.5 12 3.5 24.5 9.096 24.5 16 18.904 28.5 12 28.5z"/>
					</g>
					<g id="_Spec-101-/-16-sp-(1-em)-+-2-*-4-sp-(0.25-em)" stroke-width="4" transform="rotate(-90 215.5 36)">
						<g id="_Spec-101-/-16-sp-(1-em)" stroke="#D0021B" transform="translate(4)">
							<path id="16-sp-(1-em)" d="M0 1.5h16"/>
						</g>
						<g id="_Spec-101-/-4-sp-(0.25-em)" stroke="#F5A623" transform="translate(20)">
							<path id="4-sp-(0.25-em)" d="M0 1.5h4"/>
						</g>
						<g id="_Spec-101-/-4-sp-(0.25-em)" stroke="#F5A623">
							<path id="4-sp-(0.25-em)" d="M0 1.5h4"/>
						</g>
					</g>
					<g id="Radio-/-:focus" transform="translate(192 168)">
						<text id="8:16:8:16-copy-23" fill="#222" font-family="HelveticaNeue, Helvetica Neue" font-size="16" font-weight="normal">
							<tspan x="33" y="22">Neutral point</tspan>
						</text>
						<g id="Oval-112-Copy-4" stroke="#36C" stroke-width="1">
							<circle cx="12" cy="16" r="11.5" stroke-linejoin="square"/>
							<circle cx="12" cy="16" r="12.5"/>
						</g>
					</g>
					<g id="Radio-/-:checked-/-:focus" transform="translate(480 168)">
						<text id="8:16:8:16-copy-26" fill="#222" font-family="HelveticaNeue, Helvetica Neue" font-size="16" font-weight="normal">
							<tspan x="33" y="22">Neutral point</tspan>
						</text>
						<g id="Oval-112-Copy-5-+-Oval-78" fill-rule="evenodd" stroke-width="1" transform="translate(0 4)">
							<g id="Oval-112-Copy-5">
								<circle cx="12" cy="12" r="11" fill="#36C" stroke="#FFF" stroke-linejoin="square" stroke-width="2"/>
								<circle cx="12" cy="12" r="12.5" stroke="#36C"/>
								<circle cx="12" cy="12" r="11.5" stroke="#36C" stroke-linejoin="square"/>
							</g>
							<path id="Oval-78" fill="#FFF" d="M12 18a6 6 0 100-12 6 6 0 000 12z"/>
						</g>
					</g>
					<g id="Radio-/-:checked-/-:active" transform="translate(480 112)">
						<text id="8:16:8:16-copy-16" fill="#222" font-family="HelveticaNeue, Helvetica Neue" font-size="16" font-weight="normal">
							<tspan x="33" y="22">Neutral point</tspan>
						</text>
						<g id="Oval-112-Copy-6-+-Oval-59-Copy-3" fill-rule="evenodd" stroke-width="1" transform="translate(0 4)">
							<path id="Oval-112-Copy-6" fill="#2A4B8D" stroke="#2A4B8D" d="M12 24.5C5.096 24.5-.5 18.904-.5 12S5.096-.5 12-.5 24.5 5.096 24.5 12 18.904 24.5 12 24.5z"/>
							<circle id="Oval-59-Copy-3" cx="12" cy="12" r="6" fill="#FFF"/>
						</g>
					</g>
					<g id="Radio-/-:checked-/-:hover" transform="translate(480 56)">
						<text id="8:16:8:16-copy-16" fill="#222" font-family="HelveticaNeue, Helvetica Neue" font-size="16" font-weight="normal">
							<tspan x="33" y="22">Neutral point</tspan>
						</text>
						<g id="Oval-112-+-Oval-59" fill-rule="evenodd" stroke-width="1" transform="translate(0 4)">
							<circle id="Oval-112" cx="12" cy="12" r="12.5" fill="#447FF5" stroke="#447FF5"/>
							<path id="Oval-59" fill="#FFF" d="M12 18a6 6 0 100-12 6 6 0 000 12z"/>
						</g>
					</g>
					<g id="Radio-/-:checked-/-!default" transform="translate(480)">
						<text id="8:16:8:16-copy-25" fill="#222" font-family="HelveticaNeue, Helvetica Neue" font-size="16" font-weight="normal">
							<tspan x="33" y="22">Neutral point</tspan>
						</text>
						<g id="Oval-112-Copy-3-+-Oval-59-Copy-2" fill-rule="evenodd" stroke-width="1" transform="translate(0 4)">
							<path id="Oval-112-Copy-3" fill="#36C" stroke="#36C" d="M12 24.5C5.096 24.5-.5 18.904-.5 12S5.096-.5 12-.5 24.5 5.096 24.5 12 18.904 24.5 12 24.5z"/>
							<path id="Oval-59-Copy-2" fill="#FFF" d="M12 18a6 6 0 100-12 6 6 0 000 12z"/>
						</g>
					</g>
					<g id="Cursor-/-Pointer" transform="translate(497 76)">
						<g id="Cursor-Pointer">
							<use fill="#000" filter="url(#filter-5)" xlink:href="#path-4"/>
							<path fill="#FFF" stroke="#000" d="M5.499 15V1.424C5.499.365 6.346-.5 7.396-.5c1.052 0 1.91.865 1.91 1.925v7.172c.317-.189.689-.298 1.087-.298.977 0 1.809.653 2.044 1.54.332-.216.73-.341 1.16-.341.926 0 1.716.584 1.996 1.399a1.7 1.7 0 01.805-.201 1.69 1.69 0 011.697 1.683v-.002l.006 1.586v3.239c0 .257-.022.519-.066.787-.155.942-.512 1.811-1.212 3.158-1.01 1.946-1.165 2.297-1.165 2.853v.5h-8.99V24c0-.421-.472-1.169-1.853-3.03l-.079-.106a34.473 34.473 0 01-1.02-1.43c-.39-.583-.991-1.5-1.748-2.664l-.027-.043a1115.225 1115.225 0 01-2.009-3.1l-.199-.309c-.49-.83-.181-1.897.675-2.38.85-.48 1.932-.212 2.383.56L5.5 15z"/>
						</g>
					</g>
					<g id="Cursor-/-Pointer" transform="translate(497 131)">
						<g id="Cursor-Pointer">
							<use fill="#000" filter="url(#filter-7)" xlink:href="#path-6"/>
							<path fill="#FFF" stroke="#000" d="M5.499 15V1.424C5.499.365 6.346-.5 7.396-.5c1.052 0 1.91.865 1.91 1.925v7.172c.317-.189.689-.298 1.087-.298.977 0 1.809.653 2.044 1.54.332-.216.73-.341 1.16-.341.926 0 1.716.584 1.996 1.399a1.7 1.7 0 01.805-.201 1.69 1.69 0 011.697 1.683v-.002l.006 1.586v3.239c0 .257-.022.519-.066.787-.155.942-.512 1.811-1.212 3.158-1.01 1.946-1.165 2.297-1.165 2.853v.5h-8.99V24c0-.421-.472-1.169-1.853-3.03l-.079-.106a34.473 34.473 0 01-1.02-1.43c-.39-.583-.991-1.5-1.748-2.664l-.027-.043a1115.225 1115.225 0 01-2.009-3.1l-.199-.309c-.49-.83-.181-1.897.675-2.38.85-.48 1.932-.212 2.383.56L5.5 15z"/>
						</g>
					</g>
					<g id="Cursor-/-!default" transform="translate(504 243)">
						<g id="cursor" fill="#000">
							<use filter="url(#filter-9)" xlink:href="#path-8"/>
							<path stroke="#FFF" d="M6.448 11.787l2.721 6.886c.273.675-.094 1.44-.79 1.72-.696.283-1.491-.013-1.765-.692l-2.708-6.853-2.483 2.963-.077.075c-.901.695-1.848.236-1.846-.902L-.474.669c0-.618.027-.82.271-1.028.4-.34.694-.163 1.14.298l10.66 10.157c.793.817.432 1.805-.782 1.933l-4.367-.242z"/>
						</g>
					</g>
					<g id="Cursor-/-Pointer" transform="translate(209 131)">
						<g id="Cursor-Pointer">
							<use fill="#000" filter="url(#filter-11)" xlink:href="#path-10"/>
							<path fill="#FFF" stroke="#000" d="M5.499 15V1.424C5.499.365 6.346-.5 7.396-.5c1.052 0 1.91.865 1.91 1.925v7.172c.317-.189.689-.298 1.087-.298.977 0 1.809.653 2.044 1.54.332-.216.73-.341 1.16-.341.926 0 1.716.584 1.996 1.399a1.7 1.7 0 01.805-.201 1.69 1.69 0 011.697 1.683v-.002l.006 1.586v3.239c0 .257-.022.519-.066.787-.155.942-.512 1.811-1.212 3.158-1.01 1.946-1.165 2.297-1.165 2.853v.5h-8.99V24c0-.421-.472-1.169-1.853-3.03l-.079-.106a34.473 34.473 0 01-1.02-1.43c-.39-.583-.991-1.5-1.748-2.664l-.027-.043a1115.225 1115.225 0 01-2.009-3.1l-.199-.309c-.49-.83-.181-1.897.675-2.38.85-.48 1.932-.212 2.383.56L5.5 15z"/>
						</g>
					</g>
					<g id="Cursor-/-Pointer" transform="translate(209 76)">
						<g id="Cursor-Pointer">
							<use fill="#000" filter="url(#filter-13)" xlink:href="#path-12"/>
							<path fill="#FFF" stroke="#000" d="M5.499 15V1.424C5.499.365 6.346-.5 7.396-.5c1.052 0 1.91.865 1.91 1.925v7.172c.317-.189.689-.298 1.087-.298.977 0 1.809.653 2.044 1.54.332-.216.73-.341 1.16-.341.926 0 1.716.584 1.996 1.399a1.7 1.7 0 01.805-.201 1.69 1.69 0 011.697 1.683v-.002l.006 1.586v3.239c0 .257-.022.519-.066.787-.155.942-.512 1.811-1.212 3.158-1.01 1.946-1.165 2.297-1.165 2.853v.5h-8.99V24c0-.421-.472-1.169-1.853-3.03l-.079-.106a34.473 34.473 0 01-1.02-1.43c-.39-.583-.991-1.5-1.748-2.664l-.027-.043a1115.225 1115.225 0 01-2.009-3.1l-.199-.309c-.49-.83-.181-1.897.675-2.38.85-.48 1.932-.212 2.383.56L5.5 15z"/>
						</g>
					</g>
					<g id="Cursor-/-!default" transform="translate(216 243)">
						<g id="cursor" fill="#000">
							<use filter="url(#filter-15)" xlink:href="#path-14"/>
							<path stroke="#FFF" d="M6.448 11.787l2.721 6.886c.273.675-.094 1.44-.79 1.72-.696.283-1.491-.013-1.765-.692l-2.708-6.853-2.483 2.963-.077.075c-.901.695-1.848.236-1.846-.902L-.474.669c0-.618.027-.82.271-1.028.4-.34.694-.163 1.14.298l10.66 10.157c.793.817.432 1.805-.782 1.933l-4.367-.242z"/>
						</g>
					</g>
				</g>
			</g>
		</g>
	</g>
</svg>
