<?xml version="1.0" encoding="UTF-8"?>
<svg xmlns="http://www.w3.org/2000/svg" xmlns:xlink="http://www.w3.org/1999/xlink" width="617" height="683" viewBox="0 0 617 683">
	<defs>
		<path id="m" d="M12 28c6.627 0 12-5.373 12-12S18.627 4 12 4 0 9.373 0 16s5.373 12 12 12z"/>
		<path id="a" d="M12 28c6.627 0 12-5.373 12-12S18.627 4 12 4 0 9.373 0 16s5.373 12 12 12z"/>
		<path id="c" d="M12 28c6.627 0 12-5.373 12-12S18.627 4 12 4 0 9.373 0 16s5.373 12 12 12z"/>
		<path id="y" d="M6.132 11.269l4.71.26c.72-.08.899-.568.397-1.085L.592.3C.09-.216.027-.049.026.671L0 14.984c-.001.72.467.947 1.04.505l2.742-3.272c.095-.074.208-.146.327-.218l2.97 7.517c.165.41.664.595 1.113.413.449-.18.68-.66.514-1.07l-2.972-7.518.398-.073z"/>
		<path id="w" d="M17.595 12.379a1.19 1.19 0 00-1.197-1.183 1.19 1.19 0 00-1.196 1.179v-.826c0-.857-.719-1.551-1.606-1.551-.886 0-1.592.694-1.592 1.55V10.35c0-.856-.728-1.55-1.611-1.55s-1.586.694-1.586 1.55V1.425C8.807.638 8.168 0 7.397 0c-.772 0-1.398.638-1.398 1.425v15.038l-3.603-4.659c-.346-.586-1.126-.779-1.742-.431-.617.348-.836 1.105-.49 1.691 0 0 2.817 4.369 3.967 6.093C5.281 20.882 7.17 23.01 7.17 24h7.989c0-1.672 2.443-4.283 2.443-6.798v-3.24l-.006-1.583z"/>
		<path id="u" d="M17.595 12.379a1.19 1.19 0 00-1.197-1.183 1.19 1.19 0 00-1.196 1.179v-.826c0-.857-.719-1.551-1.606-1.551-.886 0-1.592.694-1.592 1.55V10.35c0-.856-.728-1.55-1.611-1.55s-1.586.694-1.586 1.55V1.425C8.807.638 8.168 0 7.397 0c-.772 0-1.398.638-1.398 1.425v15.038l-3.603-4.659c-.346-.586-1.126-.779-1.742-.431-.617.348-.836 1.105-.49 1.691 0 0 2.817 4.369 3.967 6.093C5.281 20.882 7.17 23.01 7.17 24h7.989c0-1.672 2.443-4.283 2.443-6.798v-3.24l-.006-1.583z"/>
		<path id="s" d="M6.132 11.269l4.71.26c.72-.08.899-.568.397-1.085L.592.3C.09-.216.027-.049.026.671L0 14.984c-.001.72.467.947 1.04.505l2.742-3.272c.095-.074.208-.146.327-.218l2.97 7.517c.165.41.664.595 1.113.413.449-.18.68-.66.514-1.07l-2.972-7.518.398-.073z"/>
		<path id="h" d="M12 28c6.627 0 12-5.373 12-12S18.627 4 12 4 0 9.373 0 16s5.373 12 12 12z"/>
		<path id="i" d="M12 28c6.627 0 12-5.373 12-12S18.627 4 12 4 0 9.373 0 16s5.373 12 12 12z"/>
		<path id="j" d="M12 24c6.627 0 12-5.373 12-12S18.627 0 12 0 0 5.373 0 12s5.373 12 12 12z"/>
		<path id="k" d="M12 24c6.627 0 12-5.373 12-12S18.627 0 12 0 0 5.373 0 12s5.373 12 12 12z"/>
		<path id="q" d="M17.595 12.379a1.19 1.19 0 00-1.197-1.183 1.19 1.19 0 00-1.196 1.179v-.826c0-.857-.719-1.551-1.606-1.551-.886 0-1.592.694-1.592 1.55V10.35c0-.856-.728-1.55-1.611-1.55s-1.586.694-1.586 1.55V1.425C8.807.638 8.168 0 7.397 0c-.772 0-1.398.638-1.398 1.425v15.038l-3.603-4.659c-.346-.586-1.126-.779-1.742-.431-.617.348-.836 1.105-.49 1.691 0 0 2.817 4.369 3.967 6.093C5.281 20.882 7.17 23.01 7.17 24h7.989c0-1.672 2.443-4.283 2.443-6.798v-3.24l-.006-1.583z"/>
		<path id="b" d="M12 28c6.627 0 12-5.373 12-12S18.627 4 12 4 0 9.373 0 16s5.373 12 12 12z"/>
		<path id="o" d="M17.595 12.379a1.19 1.19 0 00-1.197-1.183 1.19 1.19 0 00-1.196 1.179v-.826c0-.857-.719-1.551-1.606-1.551-.886 0-1.592.694-1.592 1.55V10.35c0-.856-.728-1.55-1.611-1.55s-1.586.694-1.586 1.55V1.425C8.807.638 8.168 0 7.397 0c-.772 0-1.398.638-1.398 1.425v15.038l-3.603-4.659c-.346-.586-1.126-.779-1.742-.431-.617.348-.836 1.105-.49 1.691 0 0 2.817 4.369 3.967 6.093C5.281 20.882 7.17 23.01 7.17 24h7.989c0-1.672 2.443-4.283 2.443-6.798v-3.24l-.006-1.583z"/>
		<filter id="n" width="185.2%" height="162.5%" x="-42.6%" y="-18.8%" filterUnits="objectBoundingBox">
			<feMorphology in="SourceAlpha" operator="dilate" radius="1" result="shadowSpreadOuter1"/>
			<feOffset dy="1" in="shadowSpreadOuter1" result="shadowOffsetOuter1"/>
			<feGaussianBlur in="shadowOffsetOuter1" result="shadowBlurOuter1" stdDeviation=".5"/>
			<feComposite in="shadowBlurOuter1" in2="SourceAlpha" operator="out" result="shadowBlurOuter1"/>
			<feColorMatrix in="shadowBlurOuter1" result="shadowMatrixOuter1" values="0 0 0 0 0 0 0 0 0 0 0 0 0 0 0 0 0 0 0.582908741 0"/>
			<feMorphology in="SourceAlpha" operator="dilate" radius="1" result="shadowSpreadOuter2"/>
			<feOffset dy="2" in="shadowSpreadOuter2" result="shadowOffsetOuter2"/>
			<feGaussianBlur in="shadowOffsetOuter2" result="shadowBlurOuter2" stdDeviation="1.5"/>
			<feComposite in="shadowBlurOuter2" in2="SourceAlpha" operator="out" result="shadowBlurOuter2"/>
			<feColorMatrix in="shadowBlurOuter2" result="shadowMatrixOuter2" values="0 0 0 0 0 0 0 0 0 0 0 0 0 0 0 0 0 0 0.179347826 0"/>
			<feMerge>
				<feMergeNode in="shadowMatrixOuter1"/>
				<feMergeNode in="shadowMatrixOuter2"/>
			</feMerge>
		</filter>
		<filter id="x" width="230.2%" height="175%" x="-65.1%" y="-22.5%" filterUnits="objectBoundingBox">
			<feMorphology in="SourceAlpha" operator="dilate" radius="1" result="shadowSpreadOuter1"/>
			<feOffset dy="1" in="shadowSpreadOuter1" result="shadowOffsetOuter1"/>
			<feGaussianBlur in="shadowOffsetOuter1" result="shadowBlurOuter1" stdDeviation=".5"/>
			<feComposite in="shadowBlurOuter1" in2="SourceAlpha" operator="out" result="shadowBlurOuter1"/>
			<feColorMatrix in="shadowBlurOuter1" result="shadowMatrixOuter1" values="0 0 0 0 0 0 0 0 0 0 0 0 0 0 0 0 0 0 0.582908741 0"/>
			<feMorphology in="SourceAlpha" operator="dilate" radius="1" result="shadowSpreadOuter2"/>
			<feOffset dy="2" in="shadowSpreadOuter2" result="shadowOffsetOuter2"/>
			<feGaussianBlur in="shadowOffsetOuter2" result="shadowBlurOuter2" stdDeviation="1.5"/>
			<feComposite in="shadowBlurOuter2" in2="SourceAlpha" operator="out" result="shadowBlurOuter2"/>
			<feColorMatrix in="shadowBlurOuter2" result="shadowMatrixOuter2" values="0 0 0 0 0 0 0 0 0 0 0 0 0 0 0 0 0 0 0.179347826 0"/>
			<feMerge>
				<feMergeNode in="shadowMatrixOuter1"/>
				<feMergeNode in="shadowMatrixOuter2"/>
			</feMerge>
		</filter>
		<filter id="p" width="185.2%" height="162.5%" x="-42.6%" y="-18.8%" filterUnits="objectBoundingBox">
			<feMorphology in="SourceAlpha" operator="dilate" radius="1" result="shadowSpreadOuter1"/>
			<feOffset dy="1" in="shadowSpreadOuter1" result="shadowOffsetOuter1"/>
			<feGaussianBlur in="shadowOffsetOuter1" result="shadowBlurOuter1" stdDeviation=".5"/>
			<feComposite in="shadowBlurOuter1" in2="SourceAlpha" operator="out" result="shadowBlurOuter1"/>
			<feColorMatrix in="shadowBlurOuter1" result="shadowMatrixOuter1" values="0 0 0 0 0 0 0 0 0 0 0 0 0 0 0 0 0 0 0.582908741 0"/>
			<feMorphology in="SourceAlpha" operator="dilate" radius="1" result="shadowSpreadOuter2"/>
			<feOffset dy="2" in="shadowSpreadOuter2" result="shadowOffsetOuter2"/>
			<feGaussianBlur in="shadowOffsetOuter2" result="shadowBlurOuter2" stdDeviation="1.5"/>
			<feComposite in="shadowBlurOuter2" in2="SourceAlpha" operator="out" result="shadowBlurOuter2"/>
			<feColorMatrix in="shadowBlurOuter2" result="shadowMatrixOuter2" values="0 0 0 0 0 0 0 0 0 0 0 0 0 0 0 0 0 0 0.179347826 0"/>
			<feMerge>
				<feMergeNode in="shadowMatrixOuter1"/>
				<feMergeNode in="shadowMatrixOuter2"/>
			</feMerge>
		</filter>
		<filter id="v" width="185.2%" height="162.5%" x="-42.6%" y="-18.8%" filterUnits="objectBoundingBox">
			<feMorphology in="SourceAlpha" operator="dilate" radius="1" result="shadowSpreadOuter1"/>
			<feOffset dy="1" in="shadowSpreadOuter1" result="shadowOffsetOuter1"/>
			<feGaussianBlur in="shadowOffsetOuter1" result="shadowBlurOuter1" stdDeviation=".5"/>
			<feComposite in="shadowBlurOuter1" in2="SourceAlpha" operator="out" result="shadowBlurOuter1"/>
			<feColorMatrix in="shadowBlurOuter1" result="shadowMatrixOuter1" values="0 0 0 0 0 0 0 0 0 0 0 0 0 0 0 0 0 0 0.582908741 0"/>
			<feMorphology in="SourceAlpha" operator="dilate" radius="1" result="shadowSpreadOuter2"/>
			<feOffset dy="2" in="shadowSpreadOuter2" result="shadowOffsetOuter2"/>
			<feGaussianBlur in="shadowOffsetOuter2" result="shadowBlurOuter2" stdDeviation="1.5"/>
			<feComposite in="shadowBlurOuter2" in2="SourceAlpha" operator="out" result="shadowBlurOuter2"/>
			<feColorMatrix in="shadowBlurOuter2" result="shadowMatrixOuter2" values="0 0 0 0 0 0 0 0 0 0 0 0 0 0 0 0 0 0 0.179347826 0"/>
			<feMerge>
				<feMergeNode in="shadowMatrixOuter1"/>
				<feMergeNode in="shadowMatrixOuter2"/>
			</feMerge>
		</filter>
		<filter id="r" width="230.2%" height="175%" x="-65.1%" y="-22.5%" filterUnits="objectBoundingBox">
			<feMorphology in="SourceAlpha" operator="dilate" radius="1" result="shadowSpreadOuter1"/>
			<feOffset dy="1" in="shadowSpreadOuter1" result="shadowOffsetOuter1"/>
			<feGaussianBlur in="shadowOffsetOuter1" result="shadowBlurOuter1" stdDeviation=".5"/>
			<feComposite in="shadowBlurOuter1" in2="SourceAlpha" operator="out" result="shadowBlurOuter1"/>
			<feColorMatrix in="shadowBlurOuter1" result="shadowMatrixOuter1" values="0 0 0 0 0 0 0 0 0 0 0 0 0 0 0 0 0 0 0.582908741 0"/>
			<feMorphology in="SourceAlpha" operator="dilate" radius="1" result="shadowSpreadOuter2"/>
			<feOffset dy="2" in="shadowSpreadOuter2" result="shadowOffsetOuter2"/>
			<feGaussianBlur in="shadowOffsetOuter2" result="shadowBlurOuter2" stdDeviation="1.5"/>
			<feComposite in="shadowBlurOuter2" in2="SourceAlpha" operator="out" result="shadowBlurOuter2"/>
			<feColorMatrix in="shadowBlurOuter2" result="shadowMatrixOuter2" values="0 0 0 0 0 0 0 0 0 0 0 0 0 0 0 0 0 0 0.179347826 0"/>
			<feMerge>
				<feMergeNode in="shadowMatrixOuter1"/>
				<feMergeNode in="shadowMatrixOuter2"/>
			</feMerge>
		</filter>
		<filter id="t" width="185.2%" height="162.5%" x="-42.6%" y="-18.8%" filterUnits="objectBoundingBox">
			<feMorphology in="SourceAlpha" operator="dilate" radius="1" result="shadowSpreadOuter1"/>
			<feOffset dy="1" in="shadowSpreadOuter1" result="shadowOffsetOuter1"/>
			<feGaussianBlur in="shadowOffsetOuter1" result="shadowBlurOuter1" stdDeviation=".5"/>
			<feComposite in="shadowBlurOuter1" in2="SourceAlpha" operator="out" result="shadowBlurOuter1"/>
			<feColorMatrix in="shadowBlurOuter1" result="shadowMatrixOuter1" values="0 0 0 0 0 0 0 0 0 0 0 0 0 0 0 0 0 0 0.582908741 0"/>
			<feMorphology in="SourceAlpha" operator="dilate" radius="1" result="shadowSpreadOuter2"/>
			<feOffset dy="2" in="shadowSpreadOuter2" result="shadowOffsetOuter2"/>
			<feGaussianBlur in="shadowOffsetOuter2" result="shadowBlurOuter2" stdDeviation="1.5"/>
			<feComposite in="shadowBlurOuter2" in2="SourceAlpha" operator="out" result="shadowBlurOuter2"/>
			<feColorMatrix in="shadowBlurOuter2" result="shadowMatrixOuter2" values="0 0 0 0 0 0 0 0 0 0 0 0 0 0 0 0 0 0 0.179347826 0"/>
			<feMerge>
				<feMergeNode in="shadowMatrixOuter1"/>
				<feMergeNode in="shadowMatrixOuter2"/>
			</feMerge>
		</filter>
		<circle id="l" cx="12" cy="12" r="12"/>
		<circle id="e" cx="12" cy="16" r="12"/>
		<circle id="g" cx="12" cy="12" r="12"/>
		<circle id="d" cx="12" cy="16" r="12"/>
		<circle id="f" cx="12" cy="12" r="12"/>
	</defs>
	<g fill="none" fill-rule="evenodd">
		<text fill="#222" font-family="HelveticaNeue, Helvetica Neue" font-size="16" transform="translate(191 387)">
			<tspan x="33" y="22">Option 2</tspan>
		</text>
		<g transform="translate(191 387)">
			<use fill="#FFF" xlink:href="#a"/>
			<path stroke="#72777D" d="M12 28.5c6.904 0 12.5-5.596 12.5-12.5S18.904 3.5 12 3.5-.5 9.096-.5 16 5.096 28.5 12 28.5z"/>
		</g>
		<text fill="#222" font-family="HelveticaNeue, Helvetica Neue" font-size="16" transform="translate(191 345)">
			<tspan x="33" y="22">Option 1</tspan>
		</text>
		<g transform="translate(191 345)">
			<use fill="#FFF" xlink:href="#b"/>
			<path stroke="#72777D" d="M12 28.5c6.904 0 12.5-5.596 12.5-12.5S18.904 3.5 12 3.5-.5 9.096-.5 16 5.096 28.5 12 28.5z"/>
		</g>
		<path stroke="#50E3C2" stroke-linecap="square" d="M216.5 360.5h7m-7-1h7m-7 3h7m-7-1h7"/>
		<text fill="#222" font-family="HelveticaNeue, Helvetica Neue" font-size="16" transform="translate(192 553)">
			<tspan x="33" y="22">Neutral point</tspan>
		</text>
		<g transform="translate(192 553)">
			<use fill="#FFF" xlink:href="#c"/>
			<path stroke="#72777D" d="M12 28.5c6.904 0 12.5-5.596 12.5-12.5S18.904 3.5 12 3.5-.5 9.096-.5 16 5.096 28.5 12 28.5z"/>
		</g>
		<path fill="#FFF" d="M224 548h169v60H224z"/>
		<text fill="#222" font-family="HelveticaNeue, Helvetica Neue" font-size="14" transform="translate(191 548)">
			<tspan x="33" y="34">Option with a really long</tspan> <tspan x="33" y="54.392">label today</tspan>
		</text>
		<text fill="#222" font-family="HelveticaNeue, Helvetica Neue" font-size="16" transform="translate(191 548)">
			<tspan x="33" y="15">Option title</tspan>
		</text>
		<g transform="translate(191 9)">
			<use fill="#C8CCD1" xlink:href="#d"/>
			<circle cx="12" cy="16" r="12.5" stroke="#C8CCD1"/>
		</g>
		<text fill="#7D8389" font-family="HelveticaNeue, Helvetica Neue" font-size="16" transform="translate(191 9)">
			<tspan x="33" y="22">Neutral point</tspan>
		</text>
		<g transform="translate(191 121)">
			<circle cx="12" cy="16" r="12.5" stroke="#2962CC"/>
			<text fill="#222" font-family="HelveticaNeue, Helvetica Neue" font-size="16">
				<tspan x="33" y="22">Neutral point</tspan>
			</text>
		</g>
		<g transform="translate(191 177)">
			<use fill="#2A4B8D" xlink:href="#e"/>
			<circle cx="12" cy="16" r="12.5" stroke="#2A4B8D"/>
			<circle cx="12" cy="16" r="11.5" stroke="#2A4B8D"/>
		</g>
		<text fill="#222" font-family="HelveticaNeue, Helvetica Neue" font-size="16" transform="translate(191 177)">
			<tspan x="33" y="22">Neutral point</tspan>
		</text>
		<text fill="#222" font-family="HelveticaNeue, Helvetica Neue" font-size="16" transform="translate(479 121)">
			<tspan x="33" y="22">Neutral point</tspan>
		</text>
		<g transform="translate(479 125)">
			<use fill="#447FF5" xlink:href="#f"/>
			<circle cx="12" cy="12" r="12.5" stroke="#447FF5"/>
		</g>
		<path fill="#FFF" d="M491 143a6 6 0 100-12 6 6 0 000 12z"/>
		<text fill="#72777D" font-family="Lato-Regular, Lato, sans-serif" font-size="14" transform="translate(-1 -32)">
			<tspan x="0" y="62">DISABLED</tspan> <tspan x="0" y="118.4"> NORMAL</tspan> <tspan x="0" y="174.8">:HOVER</tspan> <tspan x="0" y="231.2">:ACTIVE</tspan> <tspan x="0" y="287.6">:FOCUS</tspan>
		</text>
		<text fill="#7D8389" font-family="HelveticaNeue, Helvetica Neue" font-size="16" transform="translate(479 9)">
			<tspan x="33" y="22">Neutral point</tspan>
		</text>
		<g transform="translate(479 13)">
			<use fill="#C8CCD1" xlink:href="#g"/>
			<circle cx="12" cy="12" r="12.5" stroke="#C8CCD1"/>
		</g>
		<path fill="#FFF" d="M491 31a6 6 0 100-12 6 6 0 000 12z"/>
		<text fill="#222" font-family="HelveticaNeue, Helvetica Neue" font-size="16" transform="translate(191 65)">
			<tspan x="33" y="22">Neutral point</tspan>
		</text>
		<g transform="translate(191 65)">
			<use fill="#FFF" xlink:href="#h"/>
			<path stroke="#72777D" d="M12 28.5c6.904 0 12.5-5.596 12.5-12.5S18.904 3.5 12 3.5-.5 9.096-.5 16 5.096 28.5 12 28.5z"/>
		</g>
		<text fill="#222" font-family="HelveticaNeue, Helvetica Neue" font-size="16" transform="translate(191 651)">
			<tspan x="33" y="22">Radio label</tspan>
		</text>
		<g transform="translate(191 651)">
			<use fill="#FFF" xlink:href="#i"/>
			<path stroke="#72777D" d="M12 28.5c6.904 0 12.5-5.596 12.5-12.5S18.904 3.5 12 3.5-.5 9.096-.5 16 5.096 28.5 12 28.5z"/>
		</g>
		<text fill="#D0011B" font-family="Lato-Regular, Lato, sans-serif" font-size="12" transform="translate(-1 -32)">
			<tspan x="384" y="706">touch area features `width: 2em;` `height: 2em;`</tspan>
		</text>
		<path style="mix-blend-mode:multiply" fill="#FFB60D" fill-opacity=".4" d="M190 651h32v32h-32z"/>
		<text fill="#222" font-family="HelveticaNeue, Helvetica Neue" font-size="16" transform="translate(479 65)">
			<tspan x="33" y="22">Neutral point</tspan>
		</text>
		<g transform="translate(479 69)">
			<use fill="#36C" xlink:href="#j"/>
			<path stroke="#36C" d="M12 24.5c6.904 0 12.5-5.596 12.5-12.5S18.904-.5 12-.5-.5 5.096-.5 12 5.096 24.5 12 24.5z"/>
		</g>
		<path fill="#FFF" d="M491 87a6 6 0 100-12 6 6 0 000 12z"/>
		<g stroke-linecap="square">
			<path stroke="#D0011B" d="M178.875 32V17m.75 15V17m.75 15V17m.75 15V17"/>
			<path stroke="#F6A623" d="M178.875 16v-3m.75 3v-3m.75 3v-3m.75 3v-3m-2.25 23v-3m.75 3v-3m.75 3v-3m.75 3v-3"/>
		</g>
		<text fill="#222" font-family="HelveticaNeue, Helvetica Neue" font-size="16" transform="translate(191 233)">
			<tspan x="33" y="22">Neutral point</tspan>
		</text>
		<g stroke="#36C" transform="translate(191 233)">
			<circle cx="12" cy="16" r="11.5"/>
			<circle cx="12" cy="16" r="12.5"/>
		</g>
		<text fill="#222" font-family="HelveticaNeue, Helvetica Neue" font-size="16" transform="translate(479 177)">
			<tspan x="33" y="22">Neutral point</tspan>
		</text>
		<g transform="translate(479 181)">
			<use fill="#2A4B8D" xlink:href="#k"/>
			<path stroke="#2A4B8D" d="M12 24.5c6.904 0 12.5-5.596 12.5-12.5S18.904-.5 12-.5-.5 5.096-.5 12 5.096 24.5 12 24.5z"/>
			<circle cx="12" cy="12" r="6" fill="#FFF"/>
		</g>
		<text fill="#222" font-family="HelveticaNeue, Helvetica Neue" font-size="16" transform="translate(479 233)">
			<tspan x="33" y="22">Neutral point</tspan>
		</text>
		<g transform="translate(479 237)">
			<use fill="#36C" xlink:href="#l"/>
			<circle cx="12" cy="12" r="11" stroke="#FFF" stroke-width="2"/>
			<circle cx="12" cy="12" r="12.5" stroke="#36C"/>
			<circle cx="12" cy="12" r="11.5" stroke="#36C"/>
		</g>
		<path fill="#FFF" d="M491 255a6 6 0 100-12 6 6 0 000 12z"/>
		<path stroke="#50E3C2" stroke-dasharray="1,3" stroke-linecap="square" d="M174 343.5h202m-202 208h202m-202-74h202m-202-99h202"/>
		<path stroke="#D0011B" stroke-width="4" d="M203 374.237v16"/>
		<text fill="#222" font-family="HelveticaNeue, Helvetica Neue" font-size="16" transform="translate(192 479)">
			<tspan x="33" y="22">Neutral point</tspan>
		</text>
		<g transform="translate(192 479)">
			<use fill="#FFF" xlink:href="#m"/>
			<path stroke="#72777D" d="M12 28.5c6.904 0 12.5-5.596 12.5-12.5S18.904 3.5 12 3.5-.5 9.096-.5 16 5.096 28.5 12 28.5z"/>
		</g>
		<path fill="#FFF" d="M224 474h169v60H224z"/>
		<text fill="#222" font-family="HelveticaNeue, Helvetica Neue" font-size="14" transform="translate(191 474)">
			<tspan x="33" y="34">Option with a really long</tspan> <tspan x="33" y="54.392">label today</tspan>
		</text>
		<text fill="#222" font-family="HelveticaNeue, Helvetica Neue" font-size="16" transform="translate(191 474)">
			<tspan x="33" y="15">Option title</tspan>
		</text>
		<path stroke="#979797" stroke-linecap="square" d="M376.5 343.5v35.014m3-35.014h-6m6 35.014h-6"/>
		<text fill="#D0011B" font-family="Lato-Regular, Lato, sans-serif" font-size="12" transform="translate(-1 -32)">
			<tspan x="383" y="399">`vertical-align: middle` one-liner text</tspan>
		</text>
		<text fill="#D0011B" font-family="Lato-Regular, Lato, sans-serif" font-size="12" transform="translate(-1 -32)">
			<tspan x="383" y="519">`vertical-align: top` 2 lines or more text</tspan>
		</text>
		<path stroke="#D0011B" stroke-linecap="square" d="M285.5 550.5v-15m1 15v-15m1 15v-15m1 15v-15"/>
		<g transform="translate(496 141)">
			<use fill="#000" filter="url(#n)" xlink:href="#o"/>
			<use fill="#FFF" xlink:href="#o"/>
			<path stroke="#000" d="M18.095 12.378a1.69 1.69 0 00-1.697-1.682 1.7 1.7 0 00-.805.201 2.102 2.102 0 00-1.997-1.4c-.429 0-.827.126-1.159.342-.235-.887-1.067-1.54-2.044-1.54-.398 0-.77.11-1.086.298V1.425c0-1.06-.86-1.925-1.91-1.925-1.05 0-1.898.864-1.898 1.925V15L2.79 11.5c-.451-.773-1.533-1.041-2.383-.562-.856.484-1.165 1.55-.675 2.381l.199.309a1248.604 1248.604 0 002.036 3.143 341.137 341.137 0 001.747 2.665c.264.396.545.785 1.021 1.429l.08.106c1.38 1.861 1.853 2.609 1.853 3.03v.5h8.989V24c0-.556.155-.907 1.165-2.853.7-1.347 1.057-2.216 1.212-3.158a4.86 4.86 0 00.066-.787v-3.24l-.006-1.584z"/>
		</g>
		<g transform="translate(496 196)">
			<use fill="#000" filter="url(#p)" xlink:href="#q"/>
			<use fill="#FFF" xlink:href="#q"/>
			<path stroke="#000" d="M18.095 12.378a1.69 1.69 0 00-1.697-1.682 1.7 1.7 0 00-.805.201 2.102 2.102 0 00-1.997-1.4c-.429 0-.827.126-1.159.342-.235-.887-1.067-1.54-2.044-1.54-.398 0-.77.11-1.086.298V1.425c0-1.06-.86-1.925-1.91-1.925-1.05 0-1.898.864-1.898 1.925V15L2.79 11.5c-.451-.773-1.533-1.041-2.383-.562-.856.484-1.165 1.55-.675 2.381l.199.309a1248.604 1248.604 0 002.036 3.143 341.137 341.137 0 001.747 2.665c.264.396.545.785 1.021 1.429l.08.106c1.38 1.861 1.853 2.609 1.853 3.03v.5h8.989V24c0-.556.155-.907 1.165-2.853.7-1.347 1.057-2.216 1.212-3.158a4.86 4.86 0 00.066-.787v-3.24l-.006-1.584z"/>
		</g>
		<g transform="translate(503 28)">
			<use fill="#000" filter="url(#r)" xlink:href="#s"/>
			<use fill="#000" xlink:href="#s"/>
			<path stroke="#FFF" d="M6.448 11.787l4.367.242c1.214-.128 1.575-1.116.783-1.933L.937-.061C.49-.52.197-.699-.203-.359c-.244.208-.27.41-.271 1.028L-.5 14.984c-.002 1.138.945 1.597 1.846.902l.077-.075 2.483-2.963L6.614 19.7c.274.68 1.07.975 1.766.692.695-.28 1.062-1.045.789-1.72l-2.72-6.886z"/>
		</g>
		<g transform="translate(208 196)">
			<use fill="#000" filter="url(#t)" xlink:href="#u"/>
			<use fill="#FFF" xlink:href="#u"/>
			<path stroke="#000" d="M18.095 12.378a1.69 1.69 0 00-1.697-1.682 1.7 1.7 0 00-.805.201 2.102 2.102 0 00-1.997-1.4c-.429 0-.827.126-1.159.342-.235-.887-1.067-1.54-2.044-1.54-.398 0-.77.11-1.086.298V1.425c0-1.06-.86-1.925-1.91-1.925-1.05 0-1.898.864-1.898 1.925V15L2.79 11.5c-.451-.773-1.533-1.041-2.383-.562-.856.484-1.165 1.55-.675 2.381l.199.309a1248.604 1248.604 0 002.036 3.143 341.137 341.137 0 001.747 2.665c.264.396.545.785 1.021 1.429l.08.106c1.38 1.861 1.853 2.609 1.853 3.03v.5h8.989V24c0-.556.155-.907 1.165-2.853.7-1.347 1.057-2.216 1.212-3.158a4.86 4.86 0 00.066-.787v-3.24l-.006-1.584z"/>
		</g>
		<g transform="translate(208 141)">
			<use fill="#000" filter="url(#v)" xlink:href="#w"/>
			<use fill="#FFF" xlink:href="#w"/>
			<path stroke="#000" d="M18.095 12.378a1.69 1.69 0 00-1.697-1.682 1.7 1.7 0 00-.805.201 2.102 2.102 0 00-1.997-1.4c-.429 0-.827.126-1.159.342-.235-.887-1.067-1.54-2.044-1.54-.398 0-.77.11-1.086.298V1.425c0-1.06-.86-1.925-1.91-1.925-1.05 0-1.898.864-1.898 1.925V15L2.79 11.5c-.451-.773-1.533-1.041-2.383-.562-.856.484-1.165 1.55-.675 2.381l.199.309a1248.604 1248.604 0 002.036 3.143 341.137 341.137 0 001.747 2.665c.264.396.545.785 1.021 1.429l.08.106c1.38 1.861 1.853 2.609 1.853 3.03v.5h8.989V24c0-.556.155-.907 1.165-2.853.7-1.347 1.057-2.216 1.212-3.158a4.86 4.86 0 00.066-.787v-3.24l-.006-1.584z"/>
		</g>
		<g transform="translate(215 28)">
			<use fill="#000" filter="url(#x)" xlink:href="#y"/>
			<use fill="#000" xlink:href="#y"/>
			<path stroke="#FFF" d="M6.448 11.787l4.367.242c1.214-.128 1.575-1.116.783-1.933L.937-.061C.49-.52.197-.699-.203-.359c-.244.208-.27.41-.271 1.028L-.5 14.984c-.002 1.138.945 1.597 1.846.902l.077-.075 2.483-2.963L6.614 19.7c.274.68 1.07.975 1.766.692.695-.28 1.062-1.045.789-1.72l-2.72-6.886z"/>
		</g>
	</g>
</svg>
