<svg xmlns="http://www.w3.org/2000/svg" width="274" height="34" viewBox="0 0 274 34">
	<g fill="none" fill-rule="evenodd">
		<path fill="#FFF" d="M-7552-589H7168v3264H-7552z"/>
		<path fill="#FFF" stroke="#9AA0A7" d="M2.995 1.5c-.828 0-1.495.668-1.495 1.502v27.996c0 .83.67 1.502 1.495 1.502h268.01c.828 0 1.495-.668 1.495-1.502V3.002c0-.83-.67-1.502-1.495-1.502H2.995z"/>
		<text fill="#72777D" font-family="HelveticaNeue, Helvetica Neue" font-size="16" transform="translate(-192 -38)">
			<tspan x="225" y="61">Search</tspan>
		</text>
		<path fill="#222" fill-rule="nonzero" d="M15.5 20c3.04 0 5.5-2.46 5.5-5.5S18.54 9 15.5 9 10 11.46 10 14.5s2.46 5.5 5.5 5.5zm4.55.46A7.432 7.432 0 0115.5 22C11.36 22 8 18.64 8 14.5 8 10.36 11.36 7 15.5 7c4.14 0 7.5 3.36 7.5 7.5 0 1.71-.57 3.29-1.54 4.55l6.49 6.49-1.41 1.41-6.49-6.49z"/>
	</g>
</svg>
