<?xml version="1.0" encoding="UTF-8"?>
<svg xmlns="http://www.w3.org/2000/svg" xmlns:xlink="http://www.w3.org/1999/xlink" width="467" height="555" viewBox="0 0 467 555">
	<defs>
		<path id="text_input-b" d="M6.132 11.269l4.71.26c.72-.08.899-.568.397-1.085L.592.3C.09-.216.027-.049.026.671L0 14.984c-.001.72.467.947 1.04.505l2.742-3.272c.095-.074.208-.146.327-.218l2.97 7.517c.165.41.664.595 1.113.413.449-.18.68-.66.514-1.07l-2.972-7.518.398-.073z"/>
		<filter id="text_input-a" width="230.2%" height="175%" x="-65.1%" y="-22.5%" filterUnits="objectBoundingBox">
			<feMorphology in="SourceAlpha" operator="dilate" radius="1" result="shadowSpreadOuter1"/>
			<feOffset dy="1" in="shadowSpreadOuter1" result="shadowOffsetOuter1"/>
			<feGaussianBlur in="shadowOffsetOuter1" result="shadowBlurOuter1" stdDeviation=".5"/>
			<feComposite in="shadowBlurOuter1" in2="SourceAlpha" operator="out" result="shadowBlurOuter1"/>
			<feColorMatrix in="shadowBlurOuter1" result="shadowMatrixOuter1" values="0 0 0 0 0 0 0 0 0 0 0 0 0 0 0 0 0 0 0.582908741 0"/>
			<feMorphology in="SourceAlpha" operator="dilate" radius="1" result="shadowSpreadOuter2"/>
			<feOffset dy="2" in="shadowSpreadOuter2" result="shadowOffsetOuter2"/>
			<feGaussianBlur in="shadowOffsetOuter2" result="shadowBlurOuter2" stdDeviation="1.5"/>
			<feComposite in="shadowBlurOuter2" in2="SourceAlpha" operator="out" result="shadowBlurOuter2"/>
			<feColorMatrix in="shadowBlurOuter2" result="shadowMatrixOuter2" values="0 0 0 0 0 0 0 0 0 0 0 0 0 0 0 0 0 0 0.179347826 0"/>
			<feMerge>
				<feMergeNode in="shadowMatrixOuter1"/>
				<feMergeNode in="shadowMatrixOuter2"/>
			</feMerge>
		</filter>
	</defs>
	<g fill="none" fill-rule="evenodd">
		<path fill="#FFF" d="M-7359-255H7361v3264H-7359z"/>
		<text fill="#72777D" font-family="Lato-Regular, Lato" font-size="14" transform="translate(-1 305)">
			<tspan x="0" y="60"> DISABLED</tspan> <tspan x="0" y="116.4"> NORMAL</tspan> <tspan x="0" y="172.8">:HOVER</tspan> <tspan x="0" y="229.2">:FOCUS &amp;</tspan> <tspan x="0" y="248">:ACTIVE</tspan>
		</text>
		<g transform="translate(194 457)">
			<rect width="273" height="33" x="-.5" y="-.5" fill="#FFF" stroke="#72777D" rx="2"/>
			<text fill="#72777D" font-family="HelveticaNeue, Helvetica Neue" font-size="16">
				<tspan x="32" y="22">Re-enter password</tspan>
			</text>
			<path fill="#000" d="M158.584 17.052v7.911c-.009.632-.455 1.335-1.203 2.047a9.12 9.12 0 0 1-1.222.975l-.026.017a.284.284 0 0 0-.086.396.295.295 0 0 0 .403.085 9.725 9.725 0 0 0 .42-.294 9.78 9.78 0 0 0 .917-.767c.479-.456.853-.915 1.09-1.373.238.461.61.919 1.088 1.373a9.776 9.776 0 0 0 1.337 1.061.295.295 0 0 0 .403-.085.284.284 0 0 0-.086-.396l-.026-.017a8.2 8.2 0 0 1-.361-.254 9.168 9.168 0 0 1-.861-.72c-.748-.713-1.194-1.416-1.203-2.03v-7.93h1.343a.29.29 0 0 0 .291-.286.29.29 0 0 0-.291-.287h-1.343V8.567c0-.627.447-1.338 1.203-2.055a9.048 9.048 0 0 1 1.22-.967l.026-.016a.284.284 0 0 0 .089-.397.294.294 0 0 0-.403-.087 9.3 9.3 0 0 0-.421.292 9.667 9.667 0 0 0-.917.762c-.478.454-.852.912-1.09 1.37-.236-.458-.61-.916-1.089-1.37a9.52 9.52 0 0 0-1.337-1.054.295.295 0 0 0-.403.087.284.284 0 0 0 .089.397l.025.016c.023.014.049.032.078.052a9.048 9.048 0 0 1 1.144.916c.755.716 1.202 1.427 1.202 2.054v7.91h-1.5a.29.29 0 0 0-.292.288c0 .158.13.287.292.287h1.5"/>
			<path fill="#222" d="M25.998 22.998l-5.15-5.15a7 7 0 1 0-2 2l5.15 5.15 2-2zm-15.5-9a4.5 4.5 0 1 1 9 0 4.5 4.5 0 0 1-9 0z"/>
		</g>
		<g stroke="#36C" transform="translate(-1 305)">
			<rect width="271" height="31" x="195.5" y="208.5" fill="#FFF" stroke-linejoin="square" rx="2"/>
			<rect width="273" height="33" x="194.5" y="207.5" rx="2"/>
		</g>
		<text fill="#222" font-family="HelveticaNeue, Helvetica Neue" font-size="16" transform="translate(-1 305)">
			<tspan x="226" y="231">******</tspan>
		</text>
		<path stroke="#000" stroke-linecap="square" d="M260.5 520.5v17.938"/>
		<path fill="#222" d="M449 521c-4.4 0-8 3.6-8 8s3.6 8 8 8 8-3.6 8-8-3.6-8-8-8zm4 11l-1 1-3-3-3 3-1-1 3-3-3-3 1-1 3 3 3-3 1 1-3 3 3 3z"/>
		<path fill="#000" d="M219.998 535.998l-5.15-5.15a7 7 0 1 0-2 2l5.15 5.15 2-2zm-15.5-9a4.5 4.5 0 1 1 9 0 4.5 4.5 0 0 1-9 0z"/>
		<path stroke="#50E3C2" stroke-linecap="square" d="M457.5 528.5h7m-7-1h7m-7 3h7m-7-1h7"/>
		<path fill="#FFF" stroke="#9AA0A7" d="M195.995 400.5h268.01a2.498 2.498 0 0 1 2.495 2.502v27.996a2.494 2.494 0 0 1-2.495 2.502h-268.01a2.498 2.498 0 0 1-2.495-2.502v-27.996a2.494 2.494 0 0 1 2.495-2.502z"/>
		<text fill="#72777D" font-family="HelveticaNeue, Helvetica Neue" font-size="16" transform="translate(-1 305)">
			<tspan x="227" y="118">Re-enter password</tspan>
		</text>
		<path fill="#222" d="M219.998 423.998l-5.15-5.15a7 7 0 1 0-2 2l5.15 5.15 2-2zm-15.5-9a4.5 4.5 0 1 1 9 0 4.5 4.5 0 0 1-9 0z"/>
		<g transform="translate(193 345)">
			<rect width="273" height="33" x="-.5" y="-.5" stroke="#949494" rx="2"/>
			<text fill="#949494" font-family="HelveticaNeue, Helvetica Neue" font-size="16.364">
				<tspan x="33" y="22">Re-enter password</tspan>
			</text>
			<path fill="#949494" d="M26.998 22.998l-5.15-5.15a7 7 0 1 0-2 2l5.15 5.15 2-2zm-15.5-9a4.5 4.5 0 1 1 9 0 4.5 4.5 0 0 1-9 0z"/>
		</g>
		<path stroke="#50E3C2" stroke-linecap="square" d="M433.5 528.5h7m-7-1h7m-7 3h7m-7-1h7m-247-169h7m-7-1h7m-7 3h7m-7-1h7m17-1h7m-7-1h7m-7 3h7m-7-1h7"/>
		<text fill="#222" font-family="Lato-Bold, Lato" font-size="14" font-weight="bold" transform="translate(1 305)">
			<tspan x="0" y="13">SEARCH INPUT FIELD + ICON</tspan>
		</text>
		<path stroke="#222" stroke-linecap="square" d="M190.484 328.5H1.516"/>
		<g transform="translate(193 9)">
			<rect width="273" height="33" x="-.5" y="-.5" fill="#EAECF0" stroke="#C8CCD1" rx="2"/>
			<text fill="#72777D" font-family="HelveticaNeue, Helvetica Neue" font-size="16">
				<tspan x="16" y="22">Placeholder text</tspan>
			</text>
		</g>
		<g transform="translate(193 121)">
			<rect width="273" height="33" x="-.5" y="-.5" fill="#FFF" stroke="#72777D" rx="2"/>
			<text fill="#72777D" font-family="HelveticaNeue, Helvetica Neue" font-size="16">
				<tspan x="15" y="22">Re-enter password</tspan>
			</text>
			<path fill="#000" d="M216.584 28.052v7.911c-.009.632-.455 1.335-1.203 2.047a9.12 9.12 0 0 1-1.222.975l-.026.017a.284.284 0 0 0-.086.396.295.295 0 0 0 .403.085 9.725 9.725 0 0 0 .42-.294 9.78 9.78 0 0 0 .917-.767c.479-.456.853-.915 1.09-1.373.238.461.61.919 1.088 1.373a9.776 9.776 0 0 0 1.337 1.061.295.295 0 0 0 .403-.085.284.284 0 0 0-.086-.396l-.026-.017a8.2 8.2 0 0 1-.361-.254 9.168 9.168 0 0 1-.861-.72c-.748-.713-1.194-1.416-1.203-2.03v-7.93h1.343a.29.29 0 0 0 .291-.286.29.29 0 0 0-.291-.287h-1.343v-7.911c0-.627.447-1.338 1.203-2.055a9.048 9.048 0 0 1 1.22-.967l.026-.016a.284.284 0 0 0 .089-.397.294.294 0 0 0-.403-.087 9.3 9.3 0 0 0-.421.292 9.667 9.667 0 0 0-.917.762c-.478.454-.852.912-1.09 1.37-.236-.458-.61-.916-1.089-1.37a9.52 9.52 0 0 0-1.337-1.054.295.295 0 0 0-.403.087.284.284 0 0 0 .089.397l.025.016c.023.014.049.032.078.052a9.048 9.048 0 0 1 1.144.916c.755.716 1.202 1.427 1.202 2.054v7.91h-1.5a.29.29 0 0 0-.292.288c0 .158.13.287.292.287h1.5"/>
		</g>
		<g stroke="#36C" transform="translate(193 177)">
			<rect width="273" height="33" x="-.5" y="-.5" rx="2"/>
			<rect width="271" height="31" x=".5" y=".5" stroke-linejoin="square" rx="2"/>
		</g>
		<text fill="#222" font-family="HelveticaNeue, Helvetica Neue" font-size="16" transform="translate(193 177)">
			<tspan x="15" y="21">******</tspan>
		</text>
		<path stroke="#000" stroke-linecap="square" d="M242.5 183.5v17.938"/>
		<path fill="#222" d="M447 185c-4.4 0-8 3.6-8 8s3.6 8 8 8 8-3.6 8-8-3.6-8-8-8zm4 11l-1 1-3-3-3 3-1-1 3-3-3-3 1-1 3 3 3-3 1 1-3 3 3 3z"/>
		<path fill="#000" d="M409.584 205.052v7.911c-.009.632-.455 1.335-1.203 2.047a9.12 9.12 0 0 1-1.222.975l-.026.017a.284.284 0 0 0-.086.396.295.295 0 0 0 .403.085 9.725 9.725 0 0 0 .42-.294 9.78 9.78 0 0 0 .917-.767c.479-.456.853-.915 1.09-1.373.238.461.61.919 1.088 1.373a9.776 9.776 0 0 0 1.337 1.061.295.295 0 0 0 .403-.085.284.284 0 0 0-.086-.396l-.026-.017a8.2 8.2 0 0 1-.361-.254 9.168 9.168 0 0 1-.861-.72c-.748-.713-1.194-1.416-1.203-2.03v-7.93h1.343a.29.29 0 0 0 .291-.286.29.29 0 0 0-.291-.287h-1.343v-7.911c0-.627.447-1.338 1.203-2.055a9.048 9.048 0 0 1 1.22-.967l.026-.016a.284.284 0 0 0 .089-.397.294.294 0 0 0-.403-.087 9.3 9.3 0 0 0-.421.292 9.667 9.667 0 0 0-.917.762c-.478.454-.852.912-1.09 1.37-.236-.458-.61-.916-1.089-1.37a9.52 9.52 0 0 0-1.337-1.054.295.295 0 0 0-.403.087.284.284 0 0 0 .089.397l.025.016c.023.014.049.032.078.052a9.048 9.048 0 0 1 1.144.916c.755.716 1.202 1.427 1.202 2.054v7.91h-1.5a.29.29 0 0 0-.292.288c0 .158.13.287.292.287h1.5"/>
		<g transform="translate(193 65)">
			<rect width="273" height="33" x="-.5" y="-.5" fill="#FFF" stroke="#9AA0A7" rx="2"/>
			<text fill="#72777D" font-family="HelveticaNeue, Helvetica Neue" font-size="16">
				<tspan x="15" y="22">Re-enter password</tspan>
			</text>
		</g>
		<g stroke-linecap="square">
			<path stroke="#D0021B" d="M179.5 32.5v-15m1 15v-15m1 15v-15m1 15v-15"/>
			<path stroke="#50E3C2" d="M180.5 40.5v-7m-1 7v-7m3 7v-7m-1 7v-7m-1-17v-7m-1 7v-7m3 7v-7m-1 7v-7"/>
		</g>
		<path stroke="#D0021B" stroke-linecap="square" d="M193.5 23.5h15m-15 1h15m-15 1h15m-15 1h15"/>
		<g fill="#000" transform="translate(403 32)">
			<use filter="url(#text_input-a)" xlink:href="#text_input-b"/>
			<path stroke="#FFF" d="M6.448 11.787l2.721 6.886c.273.675-.094 1.44-.79 1.72-.696.283-1.491-.013-1.765-.692l-2.708-6.853-2.483 2.963-.077.075c-.901.695-1.848.236-1.846-.902L-.474.669c0-.618.027-.82.271-1.028.4-.34.694-.163 1.14.298l10.66 10.157c.793.817.432 1.805-.782 1.933l-4.367-.242z"/>
		</g>
		<text fill="#72777D" font-family="Lato-Regular, Lato" font-size="14" transform="translate(-1 9)">
			<tspan x="0" y="23"> DISABLED</tspan> <tspan x="0" y="79.4"> NORMAL</tspan> <tspan x="0" y="135.8">:HOVER</tspan> <tspan x="0" y="192.2">:FOCUS &amp;</tspan> <tspan x="0" y="211">:ACTIVE</tspan>
		</text>
	</g>
</svg>
