<?xml version="1.0" encoding="UTF-8" standalone="no"?>
<svg width="467px" height="555px" viewBox="0 0 467 555" version="1.1" xmlns="http://www.w3.org/2000/svg" xmlns:xlink="http://www.w3.org/1999/xlink">
    <defs>
        <rect id="path-1" x="0" y="0" width="272" height="32" rx="2"></rect>
        <rect id="path-2" x="195" y="208" width="272" height="32" rx="2"></rect>
        <path d="M196.994774,96 C195.893091,96 195,96.8892617 195,98.0017433 L195,125.998257 C195,127.103789 195.89252,128 196.994774,128 L465.005226,128 C466.106909,128 467,127.110738 467,125.998257 L467,98.0017433 C467,96.896211 466.10748,96 465.005226,96 L196.994774,96 Z" id="path-3"></path>
        <rect id="path-4" x="0" y="0" width="272" height="32" rx="2"></rect>
        <rect id="path-5" x="0" y="0" width="272" height="32" rx="2"></rect>
        <rect id="path-6" x="0" y="0" width="272" height="32" rx="2"></rect>
        <rect id="path-7" x="0" y="0" width="272" height="32" rx="2"></rect>
        <path d="M6.13211402,11.2688979 L10.8422354,11.5297995 C11.562075,11.4497464 11.7406967,10.9613193 11.2389527,10.443935 L0.591868541,0.301190754 C0.0905803995,-0.216377736 0.0269163636,-0.0499300062 0.0256689588,0.670145757 L2.29782166e-06,14.9845005 C-0.00119676849,15.7053522 0.467038737,15.932432 1.04000173,15.490159 L3.78168123,12.217739 C3.87724299,12.1438668 3.98988305,12.0715788 4.10864258,12 L7.07900942,19.5168621 C7.24412875,19.9268592 7.74262137,20.1120195 8.19190947,19.929965 C8.64097423,19.7493265 8.87107252,19.2695313 8.70554568,18.8604942 L5.73444213,11.3418087 L6.13211402,11.2688979 Z" id="path-8"></path>
        <filter x="-65.1%" y="-22.5%" width="230.2%" height="175.0%" filterUnits="objectBoundingBox" id="filter-9">
            <feMorphology radius="1" operator="dilate" in="SourceAlpha" result="shadowSpreadOuter1"></feMorphology>
            <feOffset dx="0" dy="1" in="shadowSpreadOuter1" result="shadowOffsetOuter1"></feOffset>
            <feGaussianBlur stdDeviation="0.5" in="shadowOffsetOuter1" result="shadowBlurOuter1"></feGaussianBlur>
            <feComposite in="shadowBlurOuter1" in2="SourceAlpha" operator="out" result="shadowBlurOuter1"></feComposite>
            <feColorMatrix values="0 0 0 0 0   0 0 0 0 0   0 0 0 0 0  0 0 0 0.582908741 0" type="matrix" in="shadowBlurOuter1" result="shadowMatrixOuter1"></feColorMatrix>
            <feMorphology radius="1" operator="dilate" in="SourceAlpha" result="shadowSpreadOuter2"></feMorphology>
            <feOffset dx="0" dy="2" in="shadowSpreadOuter2" result="shadowOffsetOuter2"></feOffset>
            <feGaussianBlur stdDeviation="1.5" in="shadowOffsetOuter2" result="shadowBlurOuter2"></feGaussianBlur>
            <feComposite in="shadowBlurOuter2" in2="SourceAlpha" operator="out" result="shadowBlurOuter2"></feComposite>
            <feColorMatrix values="0 0 0 0 0   0 0 0 0 0   0 0 0 0 0  0 0 0 0.179347826 0" type="matrix" in="shadowBlurOuter2" result="shadowMatrixOuter2"></feColorMatrix>
            <feMerge>
                <feMergeNode in="shadowMatrixOuter1"></feMergeNode>
                <feMergeNode in="shadowMatrixOuter2"></feMergeNode>
            </feMerge>
        </filter>
    </defs>
    <g id="Artboard-page" stroke="none" stroke-width="1" fill="none" fill-rule="evenodd">
        <g id="WikimediaUI-Overview" transform="translate(-7359.000000, -255.000000)">
            <g id="TEXT-INPUT-FIELDS" transform="translate(7358.000000, 142.000000)">
                <g id="Text-Input-X" transform="translate(0.000000, 122.000000)">
                    <g id="Icon-+-Text-Field" transform="translate(0.000000, 296.000000)">
                        <text id="-DISABLED" font-family="Lato-Regular, Lato" font-size="14" font-weight="normal" line-spacing="18.7999992" fill="#72777D">
                            <tspan x="0" y="60"> DISABLED</tspan>
                            <tspan x="0" y="78.7999992"></tspan>
                            <tspan x="0" y="97.5999985"></tspan>
                            <tspan x="0" y="116.399998"> NORMAL</tspan>
                            <tspan x="0" y="135.199997"></tspan>
                            <tspan x="0" y="153.999996"></tspan>
                            <tspan x="0" y="172.799995">:HOVER</tspan>
                            <tspan x="0" y="191.599995"></tspan>
                            <tspan x="0" y="210.399994"></tspan>
                            <tspan x="0" y="229.199993">:FOCUS &amp;</tspan>
                            <tspan x="0" y="247.999992">:ACTIVE</tspan>
                        </text>
                        <g id="Text-field-w/-icon---hover-/-active" transform="translate(195.000000, 152.000000)">
                            <g id="Mediawiki.Neutral.Hover-14-Copy">
                                <use fill="#FFFFFF" fill-rule="evenodd" xlink:href="#path-1"></use>
                                <rect stroke="#72777D" stroke-width="1" x="-0.5" y="-0.5" width="273" height="33" rx="2"></rect>
                            </g>
                            <text id="Re-enter-password-3-Copy" font-family="HelveticaNeue, Helvetica Neue" font-size="16" font-weight="normal" fill="#72777D">
                                <tspan x="32" y="23">Re-enter password</tspan>
                            </text>
                            <path d="M158.584293,17.0515747 L158.584293,24.9631041 C158.575116,25.5952218 158.128646,26.2979277 157.380763,27.010163 C157.107587,27.2706336 156.81394,27.5131041 156.51994,27.7308689 C156.417234,27.8071041 156.32194,27.8748689 156.236881,27.9327512 C156.207234,27.9528689 156.181116,27.9705159 156.158881,27.9849865 C156.145822,27.9934571 156.137352,27.9991041 156.133469,28.0015747 C155.998293,28.0876924 155.959469,28.2652218 156.046999,28.3982806 C156.134528,28.5313394 156.314881,28.5694571 156.450411,28.4833394 C156.472999,28.4688689 156.513587,28.4423983 156.568999,28.4046336 C156.660411,28.342163 156.762058,28.270163 156.871116,28.1893394 C157.183116,27.958163 157.494763,27.7005159 157.786999,27.4223983 C158.26594,26.9660453 158.639705,26.5072218 158.877234,26.0491041 C159.114763,26.5103983 159.487822,26.96781 159.964999,27.4223983 C160.256881,27.7005159 160.568881,27.958163 160.880528,28.1893394 C160.98994,28.270163 161.091587,28.342163 161.182999,28.4046336 C161.238411,28.4423983 161.278999,28.4688689 161.301587,28.4833394 C161.436763,28.5694571 161.617469,28.5313394 161.704999,28.3982806 C161.792528,28.2652218 161.753705,28.0876924 161.618528,28.0015747 C161.614646,27.9991041 161.606175,27.9934571 161.593116,27.9849865 C161.570881,27.9705159 161.544763,27.9528689 161.515116,27.9327512 C161.429705,27.8748689 161.334763,27.8071041 161.232058,27.7308689 C160.938058,27.5131041 160.644411,27.2706336 160.370881,27.010163 C159.623352,26.2979277 159.176881,25.5952218 159.167705,24.98181 L159.167705,17.0515747 L160.510646,17.0515747 C160.671587,17.0515747 160.802175,16.9231041 160.802175,16.7646336 C160.802175,16.606163 160.671587,16.4776924 160.510646,16.4776924 L159.167705,16.4776924 L159.167705,8.56651591 C159.167705,7.93969238 159.614881,7.22886885 160.370528,6.51204532 C160.643705,6.2529865 160.937352,6.01228062 161.230999,5.79628062 C161.333705,5.7207512 161.428646,5.65404532 161.514058,5.59651591 C161.543352,5.5767512 161.569469,5.55945709 161.591705,5.5449865 C161.604763,5.53651591 161.613234,5.53122179 161.617116,5.5287512 C161.752646,5.44369238 161.792528,5.26616297 161.705705,5.13239826 C161.619234,4.9989865 161.438881,4.95981003 161.302999,5.04522179 C161.280058,5.05933944 161.239822,5.08581003 161.184058,5.12322179 C161.092646,5.1849865 160.990999,5.25628062 160.881587,5.3367512 C160.569587,5.56581003 160.257587,5.82204532 159.965352,6.09910415 C159.487116,6.55263356 159.113352,7.01110415 158.875822,7.46992767 C158.638646,7.01110415 158.264881,6.55263356 157.786293,6.09910415 C157.494411,5.82204532 157.182411,5.56581003 156.870411,5.3367512 C156.760999,5.25628062 156.659352,5.1849865 156.56794,5.12322179 C156.512175,5.08581003 156.471587,5.05933944 156.448999,5.04522179 C156.313116,4.95981003 156.132763,4.9989865 156.04594,5.13239826 C155.959116,5.26616297 155.998999,5.44369238 156.134881,5.5287512 C156.138763,5.53122179 156.147234,5.53651591 156.15994,5.5449865 C156.182528,5.55945709 156.208646,5.5767512 156.23794,5.59651591 C156.322999,5.65404532 156.418293,5.7207512 156.520999,5.79628062 C156.814646,6.01228062 157.108293,6.2529865 157.381469,6.51204532 C158.137116,7.22886885 158.584293,7.93969238 158.584293,8.56651591 L158.584293,16.4776924 L157.083587,16.4776924 C156.922646,16.4776924 156.792058,16.606163 156.792058,16.7646336 C156.792058,16.9231041 156.922646,17.0515747 157.083587,17.0515747 L158.584293,17.0515747" id="Imported-Layers-50-Copy" fill="#000000"></path>
                            <path d="M19.4,18.4 C20.4,17.2 21,15.7 21,14 C21,10.1 17.9,7 14,7 C10.1,7 7,10.1 7,14 C7,17.9 10.1,21 14,21 C15.2,21 16.3,20.7 17.2,20.2 L20,23 C21.4,24.4 22.5,24.5 24,23 L19.4,18.4 L19.4,18.4 Z M9,14 C9,11.2 11.2,9 14,9 C16.8,9 19,11.2 19,14 C19,16.8 16.8,19 14,19 C11.2,19 9,16.7 9,14 L9,14 Z" id="Shape-Copy-9" fill="#000000"></path>
                        </g>
                        <g id="Mediawiki.Neutral.Hover-32-Copy">
                            <use fill="#FFFFFF" fill-rule="evenodd" xlink:href="#path-2"></use>
                            <rect stroke="#3366CC" stroke-width="1" x="195.5" y="208.5" width="271" height="31" rx="2"></rect>
                            <rect stroke="#3366CC" stroke-width="1" x="194.5" y="207.5" width="273" height="33" rx="2"></rect>
                        </g>
                        <text id="******-copy-2" font-family="HelveticaNeue, Helvetica Neue" font-size="16" font-weight="normal" fill="#222222">
                            <tspan x="226" y="231">******</tspan>
                        </text>
                        <path d="M261.5,215.5 L261.5,233.437716" id="Line-172-Copy" stroke="#000000" stroke-linecap="square"></path>
                        <path d="M450,216 C445.6,216 442,219.6 442,224 C442,228.4 445.6,232 450,232 C454.4,232 458,228.4 458,224 C458,219.6 454.4,216 450,216 L450,216 Z M454,227 L453,228 L450,225 L447,228 L446,227 L449,224 L446,221 L447,220 L450,223 L453,220 L454,221 L451,224 L454,227 L454,227 Z" id="Shape-Copy-8" fill="#222222"></path>
                        <path d="M214.4,226.4 C215.4,225.2 216,223.7 216,222 C216,218.1 212.9,215 209,215 C205.1,215 202,218.1 202,222 C202,225.9 205.1,229 209,229 C210.2,229 211.3,228.7 212.2,228.2 L215,231 C216.4,232.4 217.5,232.5 219,231 L214.4,226.4 L214.4,226.4 Z M204,222 C204,219.2 206.2,217 209,217 C211.8,217 214,219.2 214,222 C214,224.8 211.8,227 209,227 C206.2,227 204,224.7 204,222 L204,222 Z" id="Shape-Copy-11" fill="#000000"></path>
                        <g id="101-/-0.5em" transform="translate(458.000000, 222.000000)" stroke="#50E3C2" stroke-linecap="square">
                            <path d="M0.5,1.5 L7.5,1.5" id="0.5em"></path>
                            <path d="M0.5,0.5 L7.5,0.5" id="0.5em-copy"></path>
                            <path d="M0.5,3.5 L7.5,3.5" id="0.5em-copy-2"></path>
                            <path d="M0.5,2.5 L7.5,2.5" id="0.5em-copy-3"></path>
                        </g>
                        <g id="Mediawiki.Neutral.Hover-35-Copy-2">
                            <use fill="#FFFFFF" fill-rule="evenodd" xlink:href="#path-3"></use>
                            <path stroke="#9AA0A7" stroke-width="1" d="M196.994774,95.5 C195.614429,95.5 194.5,96.615641 194.5,98.0017433 L194.5,125.998257 C194.5,127.379718 195.616161,128.5 196.994774,128.5 L465.005226,128.5 C466.385571,128.5 467.5,127.384359 467.5,125.998257 L467.5,98.0017433 C467.5,96.6202824 466.383839,95.5 465.005226,95.5 L196.994774,95.5 Z"></path>
                        </g>
                        <text id="Re-enter-password-2-Copy" font-family="HelveticaNeue, Helvetica Neue" font-size="16" font-weight="normal" fill="#72777D">
                            <tspan x="227" y="120">Re-enter password</tspan>
                        </text>
                        <path d="M214.4,116.4 C215.4,115.2 216,113.7 216,112 C216,108.1 212.9,105 209,105 C205.1,105 202,108.1 202,112 C202,115.9 205.1,119 209,119 C210.2,119 211.3,118.7 212.2,118.2 L215,121 C216.4,122.4 217.5,122.5 219,121 L214.4,116.4 L214.4,116.4 Z M204,112 C204,109.2 206.2,107 209,107 C211.8,107 214,109.2 214,112 C214,114.8 211.8,117 209,117 C206.2,117 204,114.7 204,112 L204,112 Z" id="Shape" fill="#222222"></path>
                        <g id="Text-input-+-icon-/-:disabled" transform="translate(194.000000, 40.000000)">
                            <rect id="Mediawiki.Neutral.Hover-33-Copy" stroke="#949494" stroke-width="1" x="-0.5" y="-0.5" width="273" height="33" rx="2"></rect>
                            <text id="Re-enter-password-5-Copy" font-family="HelveticaNeue, Helvetica Neue" font-size="16.3636364" font-weight="normal" fill="#949494">
                                <tspan x="33" y="22">Re-enter password</tspan>
                            </text>
                            <path d="M20.4,18.4 C21.4,17.2 22,15.7 22,14 C22,10.1 18.9,7 15,7 C11.1,7 8,10.1 8,14 C8,17.9 11.1,21 15,21 C16.2,21 17.3,20.7 18.2,20.2 L21,23 C22.4,24.4 23.5,24.5 25,23 L20.4,18.4 L20.4,18.4 Z M10,14 C10,11.2 12.2,9 15,9 C17.8,9 20,11.2 20,14 C20,16.8 17.8,19 15,19 C12.2,19 10,16.7 10,14 L10,14 Z" id="Shape-Copy-12" fill="#888888" fill-rule="evenodd"></path>
                        </g>
                        <g id="101-/-0.5em" transform="translate(434.000000, 222.000000)" stroke="#50E3C2" stroke-linecap="square">
                            <path d="M0.5,1.5 L7.5,1.5" id="0.5em"></path>
                            <path d="M0.5,0.5 L7.5,0.5" id="0.5em-copy"></path>
                            <path d="M0.5,3.5 L7.5,3.5" id="0.5em-copy-2"></path>
                            <path d="M0.5,2.5 L7.5,2.5" id="0.5em-copy-3"></path>
                        </g>
                        <g id="101-/-0.5em" transform="translate(194.000000, 54.000000)" stroke="#50E3C2" stroke-linecap="square">
                            <path d="M0.5,1.5 L7.5,1.5" id="0.5em"></path>
                            <path d="M0.5,0.5 L7.5,0.5" id="0.5em-copy"></path>
                            <path d="M0.5,3.5 L7.5,3.5" id="0.5em-copy-2"></path>
                            <path d="M0.5,2.5 L7.5,2.5" id="0.5em-copy-3"></path>
                        </g>
                        <g id="101-/-0.5em" transform="translate(218.000000, 54.000000)" stroke="#50E3C2" stroke-linecap="square">
                            <path d="M0.5,1.5 L7.5,1.5" id="0.5em"></path>
                            <path d="M0.5,0.5 L7.5,0.5" id="0.5em-copy"></path>
                            <path d="M0.5,3.5 L7.5,3.5" id="0.5em-copy-2"></path>
                            <path d="M0.5,2.5 L7.5,2.5" id="0.5em-copy-3"></path>
                        </g>
                        <g id="101-/-Headline--Sub" transform="translate(2.000000, 0.000000)">
                            <text id="SUBHEADLINE" font-family="Lato-Bold, Lato" font-size="14" font-weight="bold" line-spacing="14" fill="#222222">
                                <tspan x="0" y="13">ICON + TEXT FIELD</tspan>
                            </text>
                            <g id="101-/-Headline__line" transform="translate(0.000000, 22.000000)" stroke="#222222" stroke-width="1" stroke-linecap="square">
                                <path d="M189.483696,1.5 L0.516304348,1.5" id="Line"></path>
                            </g>
                        </g>
                    </g>
                    <g id="Text-input-/-:disabled" transform="translate(194.000000, 0.000000)">
                        <g id="Mediawiki.Neutral.Hover-33">
                            <use fill="#EAECF0" fill-rule="evenodd" xlink:href="#path-4"></use>
                            <rect stroke="#C8CCD1" stroke-width="1" x="-0.5" y="-0.5" width="273" height="33" rx="2"></rect>
                        </g>
                        <text id="Placeholder-text" font-family="HelveticaNeue, Helvetica Neue" font-size="16" font-weight="normal" fill="#72777D">
                            <tspan x="16" y="22">Placeholder text</tspan>
                        </text>
                    </g>
                    <g id="Textfield_active" transform="translate(194.000000, 112.000000)">
                        <g id="Mediawiki.Neutral.Hover-14">
                            <use fill="#FFFFFF" fill-rule="evenodd" xlink:href="#path-5"></use>
                            <rect stroke="#72777D" stroke-width="1" x="-0.5" y="-0.5" width="273" height="33" rx="2"></rect>
                        </g>
                        <text id="Re-enter-password-3" font-family="HelveticaNeue, Helvetica Neue" font-size="16" font-weight="normal" fill="#72777D">
                            <tspan x="15" y="22">Re-enter password</tspan>
                        </text>
                        <path d="M216.584293,28.0515747 L216.584293,35.9631041 C216.575116,36.5952218 216.128646,37.2979277 215.380763,38.010163 C215.107587,38.2706336 214.81394,38.5131041 214.51994,38.7308689 C214.417234,38.8071041 214.32194,38.8748689 214.236881,38.9327512 C214.207234,38.9528689 214.181116,38.9705159 214.158881,38.9849865 C214.145822,38.9934571 214.137352,38.9991041 214.133469,39.0015747 C213.998293,39.0876924 213.959469,39.2652218 214.046999,39.3982806 C214.134528,39.5313394 214.314881,39.5694571 214.450411,39.4833394 C214.472999,39.4688689 214.513587,39.4423983 214.568999,39.4046336 C214.660411,39.342163 214.762058,39.270163 214.871116,39.1893394 C215.183116,38.958163 215.494763,38.7005159 215.786999,38.4223983 C216.26594,37.9660453 216.639705,37.5072218 216.877234,37.0491041 C217.114763,37.5103983 217.487822,37.96781 217.964999,38.4223983 C218.256881,38.7005159 218.568881,38.958163 218.880528,39.1893394 C218.98994,39.270163 219.091587,39.342163 219.182999,39.4046336 C219.238411,39.4423983 219.278999,39.4688689 219.301587,39.4833394 C219.436763,39.5694571 219.617469,39.5313394 219.704999,39.3982806 C219.792528,39.2652218 219.753705,39.0876924 219.618528,39.0015747 C219.614646,38.9991041 219.606175,38.9934571 219.593116,38.9849865 C219.570881,38.9705159 219.544763,38.9528689 219.515116,38.9327512 C219.429705,38.8748689 219.334763,38.8071041 219.232058,38.7308689 C218.938058,38.5131041 218.644411,38.2706336 218.370881,38.010163 C217.623352,37.2979277 217.176881,36.5952218 217.167705,35.98181 L217.167705,28.0515747 L218.510646,28.0515747 C218.671587,28.0515747 218.802175,27.9231041 218.802175,27.7646336 C218.802175,27.606163 218.671587,27.4776924 218.510646,27.4776924 L217.167705,27.4776924 L217.167705,19.5665159 C217.167705,18.9396924 217.614881,18.2288689 218.370528,17.5120453 C218.643705,17.2529865 218.937352,17.0122806 219.230999,16.7962806 C219.333705,16.7207512 219.428646,16.6540453 219.514058,16.5965159 C219.543352,16.5767512 219.569469,16.5594571 219.591705,16.5449865 C219.604763,16.5365159 219.613234,16.5312218 219.617116,16.5287512 C219.752646,16.4436924 219.792528,16.266163 219.705705,16.1323983 C219.619234,15.9989865 219.438881,15.95981 219.302999,16.0452218 C219.280058,16.0593394 219.239822,16.08581 219.184058,16.1232218 C219.092646,16.1849865 218.990999,16.2562806 218.881587,16.3367512 C218.569587,16.56581 218.257587,16.8220453 217.965352,17.0991041 C217.487116,17.5526336 217.113352,18.0111041 216.875822,18.4699277 C216.638646,18.0111041 216.264881,17.5526336 215.786293,17.0991041 C215.494411,16.8220453 215.182411,16.56581 214.870411,16.3367512 C214.760999,16.2562806 214.659352,16.1849865 214.56794,16.1232218 C214.512175,16.08581 214.471587,16.0593394 214.448999,16.0452218 C214.313116,15.95981 214.132763,15.9989865 214.04594,16.1323983 C213.959116,16.266163 213.998999,16.4436924 214.134881,16.5287512 C214.138763,16.5312218 214.147234,16.5365159 214.15994,16.5449865 C214.182528,16.5594571 214.208646,16.5767512 214.23794,16.5965159 C214.322999,16.6540453 214.418293,16.7207512 214.520999,16.7962806 C214.814646,17.0122806 215.108293,17.2529865 215.381469,17.5120453 C216.137116,18.2288689 216.584293,18.9396924 216.584293,19.5665159 L216.584293,27.4776924 L215.083587,27.4776924 C214.922646,27.4776924 214.792058,27.606163 214.792058,27.7646336 C214.792058,27.9231041 214.922646,28.0515747 215.083587,28.0515747 L216.584293,28.0515747" id="Imported-Layers-50" fill="#000000"></path>
                    </g>
                    <g id="Text-input-/-:focus" transform="translate(194.000000, 168.000000)">
                        <g id="Mediawiki.Neutral.Hover-32" stroke="#3366CC" stroke-width="1">
                            <rect x="-0.5" y="-0.5" width="273" height="33" rx="2"></rect>
                            <rect x="0.5" y="0.5" width="271" height="31" rx="2"></rect>
                        </g>
                        <text id="******" font-family="HelveticaNeue, Helvetica Neue" font-size="16" font-weight="normal" fill="#222222">
                            <tspan x="15" y="21">******</tspan>
                        </text>
                        <path d="M49.5,6.5 L49.5,24.4377163" id="Line-172" stroke="#000000" stroke-width="1" stroke-linecap="square"></path>
                        <path d="M254,8 C249.6,8 246,11.6 246,16 C246,20.4 249.6,24 254,24 C258.4,24 262,20.4 262,16 C262,11.6 258.4,8 254,8 L254,8 Z M258,19 L257,20 L254,17 L251,20 L250,19 L253,16 L250,13 L251,12 L254,15 L257,12 L258,13 L255,16 L258,19 L258,19 Z" id="Shape-Copy-4" fill="#222222" fill-rule="evenodd"></path>
                        <path d="M216.584293,28.0515747 L216.584293,35.9631041 C216.575116,36.5952218 216.128646,37.2979277 215.380763,38.010163 C215.107587,38.2706336 214.81394,38.5131041 214.51994,38.7308689 C214.417234,38.8071041 214.32194,38.8748689 214.236881,38.9327512 C214.207234,38.9528689 214.181116,38.9705159 214.158881,38.9849865 C214.145822,38.9934571 214.137352,38.9991041 214.133469,39.0015747 C213.998293,39.0876924 213.959469,39.2652218 214.046999,39.3982806 C214.134528,39.5313394 214.314881,39.5694571 214.450411,39.4833394 C214.472999,39.4688689 214.513587,39.4423983 214.568999,39.4046336 C214.660411,39.342163 214.762058,39.270163 214.871116,39.1893394 C215.183116,38.958163 215.494763,38.7005159 215.786999,38.4223983 C216.26594,37.9660453 216.639705,37.5072218 216.877234,37.0491041 C217.114763,37.5103983 217.487822,37.96781 217.964999,38.4223983 C218.256881,38.7005159 218.568881,38.958163 218.880528,39.1893394 C218.98994,39.270163 219.091587,39.342163 219.182999,39.4046336 C219.238411,39.4423983 219.278999,39.4688689 219.301587,39.4833394 C219.436763,39.5694571 219.617469,39.5313394 219.704999,39.3982806 C219.792528,39.2652218 219.753705,39.0876924 219.618528,39.0015747 C219.614646,38.9991041 219.606175,38.9934571 219.593116,38.9849865 C219.570881,38.9705159 219.544763,38.9528689 219.515116,38.9327512 C219.429705,38.8748689 219.334763,38.8071041 219.232058,38.7308689 C218.938058,38.5131041 218.644411,38.2706336 218.370881,38.010163 C217.623352,37.2979277 217.176881,36.5952218 217.167705,35.98181 L217.167705,28.0515747 L218.510646,28.0515747 C218.671587,28.0515747 218.802175,27.9231041 218.802175,27.7646336 C218.802175,27.606163 218.671587,27.4776924 218.510646,27.4776924 L217.167705,27.4776924 L217.167705,19.5665159 C217.167705,18.9396924 217.614881,18.2288689 218.370528,17.5120453 C218.643705,17.2529865 218.937352,17.0122806 219.230999,16.7962806 C219.333705,16.7207512 219.428646,16.6540453 219.514058,16.5965159 C219.543352,16.5767512 219.569469,16.5594571 219.591705,16.5449865 C219.604763,16.5365159 219.613234,16.5312218 219.617116,16.5287512 C219.752646,16.4436924 219.792528,16.266163 219.705705,16.1323983 C219.619234,15.9989865 219.438881,15.95981 219.302999,16.0452218 C219.280058,16.0593394 219.239822,16.08581 219.184058,16.1232218 C219.092646,16.1849865 218.990999,16.2562806 218.881587,16.3367512 C218.569587,16.56581 218.257587,16.8220453 217.965352,17.0991041 C217.487116,17.5526336 217.113352,18.0111041 216.875822,18.4699277 C216.638646,18.0111041 216.264881,17.5526336 215.786293,17.0991041 C215.494411,16.8220453 215.182411,16.56581 214.870411,16.3367512 C214.760999,16.2562806 214.659352,16.1849865 214.56794,16.1232218 C214.512175,16.08581 214.471587,16.0593394 214.448999,16.0452218 C214.313116,15.95981 214.132763,15.9989865 214.04594,16.1323983 C213.959116,16.266163 213.998999,16.4436924 214.134881,16.5287512 C214.138763,16.5312218 214.147234,16.5365159 214.15994,16.5449865 C214.182528,16.5594571 214.208646,16.5767512 214.23794,16.5965159 C214.322999,16.6540453 214.418293,16.7207512 214.520999,16.7962806 C214.814646,17.0122806 215.108293,17.2529865 215.381469,17.5120453 C216.137116,18.2288689 216.584293,18.9396924 216.584293,19.5665159 L216.584293,27.4776924 L215.083587,27.4776924 C214.922646,27.4776924 214.792058,27.606163 214.792058,27.7646336 C214.792058,27.9231041 214.922646,28.0515747 215.083587,28.0515747 L216.584293,28.0515747" id="Imported-Layers-50" fill="#000000" fill-rule="evenodd"></path>
                    </g>
                    <g id="Text-input-/-!default" transform="translate(194.000000, 56.000000)">
                        <g id="Mediawiki.Neutral.Hover-35">
                            <use fill="#FFFFFF" fill-rule="evenodd" xlink:href="#path-7"></use>
                            <rect stroke="#9AA0A7" stroke-width="1" x="-0.5" y="-0.5" width="273" height="33" rx="2"></rect>
                        </g>
                        <text id="Placeholder-text" font-family="HelveticaNeue, Helvetica Neue" font-size="16" font-weight="normal" fill="#72777D">
                            <tspan x="15" y="22">Re-enter password</tspan>
                        </text>
                    </g>
                    <g id="-101-/-1em-+-2*0,5em" transform="translate(182.000000, 16.000000) rotate(270.000000) translate(-182.000000, -16.000000) translate(166.000000, 14.000000)" stroke-linecap="square">
                        <g id="101-/-1em" transform="translate(8.000000, 0.000000)" stroke="#D0011B">
                            <path d="M0.5,0.5 L15.5,0.5" id="1em"></path>
                            <path d="M0.5,1.5 L15.5,1.5" id="1em-copy"></path>
                            <path d="M0.5,2.5 L15.5,2.5" id="1em-copy-2"></path>
                            <path d="M0.5,3.5 L15.5,3.5" id="1em-copy-3"></path>
                        </g>
                        <g id="101-/-0.5em" stroke="#50E3C2">
                            <path d="M0.5,1.5 L7.5,1.5" id="0.5em"></path>
                            <path d="M0.5,0.5 L7.5,0.5" id="0.5em-copy"></path>
                            <path d="M0.5,3.5 L7.5,3.5" id="0.5em-copy-2"></path>
                            <path d="M0.5,2.5 L7.5,2.5" id="0.5em-copy-3"></path>
                        </g>
                        <g id="101-/-0.5em" transform="translate(24.000000, 0.000000)" stroke="#50E3C2">
                            <path d="M0.5,1.5 L7.5,1.5" id="0.5em"></path>
                            <path d="M0.5,0.5 L7.5,0.5" id="0.5em-copy"></path>
                            <path d="M0.5,3.5 L7.5,3.5" id="0.5em-copy-2"></path>
                            <path d="M0.5,2.5 L7.5,2.5" id="0.5em-copy-3"></path>
                        </g>
                    </g>
                    <g id="101-/-1em" transform="translate(194.000000, 14.000000)" stroke="#D0011B" stroke-linecap="square">
                        <path d="M0.5,0.5 L15.5,0.5" id="1em"></path>
                        <path d="M0.5,1.5 L15.5,1.5" id="1em-copy"></path>
                        <path d="M0.5,2.5 L15.5,2.5" id="1em-copy-2"></path>
                        <path d="M0.5,3.5 L15.5,3.5" id="1em-copy-3"></path>
                    </g>
                    <g id="Cursor-/-!default" transform="translate(404.000000, 23.000000)">
                        <g id="cursor">
                            <use fill="black" fill-opacity="1" filter="url(#filter-9)" xlink:href="#path-8"></use>
                            <use fill="#000000" fill-rule="evenodd" xlink:href="#path-8"></use>
                            <path stroke="#FFFFFF" stroke-width="1" d="M6.44805157,11.7871647 L10.8145819,12.0290342 C12.0289467,11.9009082 12.390083,10.912736 11.5978897,10.0958485 L0.936743625,-0.0608329699 C0.490703685,-0.521940513 0.196479729,-0.698622715 -0.202577288,-0.35941243 C-0.447188468,-0.15148568 -0.473259969,0.051426302 -0.474330291,0.669279596 L-0.499996898,14.983604 C-0.501889691,16.1215055 0.444640548,16.5813536 1.34552169,15.8859589 L1.42326646,15.8112636 L3.90605662,12.8478493 L6.61399912,19.7006158 C6.8877013,20.3802565 7.68317947,20.6755944 8.37968284,20.3933668 C9.07500287,20.1136726 9.44237709,19.3483989 9.16903318,18.6729326 L6.44805157,11.7871647 Z"></path>
                        </g>
                    </g>
                    <text id="-DISABLED" font-family="Lato-Regular, Lato" font-size="14" font-weight="normal" line-spacing="18.7999992" fill="#72777D">
                        <tspan x="0" y="23"> DISABLED</tspan>
                        <tspan x="0" y="41.7999992"></tspan>
                        <tspan x="0" y="60.5999985"></tspan>
                        <tspan x="0" y="79.3999977"> NORMAL</tspan>
                        <tspan x="0" y="98.1999969"></tspan>
                        <tspan x="0" y="116.999996"></tspan>
                        <tspan x="0" y="135.799995">:HOVER</tspan>
                        <tspan x="0" y="154.599995"></tspan>
                        <tspan x="0" y="173.399994"></tspan>
                        <tspan x="0" y="192.199993">:FOCUS &amp;</tspan>
                        <tspan x="0" y="210.999992">:ACTIVE</tspan>
                    </text>
                </g>
            </g>
        </g>
    </g>
</svg>