<?xml version="1.0" encoding="UTF-8"?>
<svg xmlns="http://www.w3.org/2000/svg" xmlns:xlink="http://www.w3.org/1999/xlink" width="288" height="58" viewBox="0 0 288 58">
	<title>
		text_inputs_designing
	</title>
	<defs>
		<circle id="path-1" cx="10" cy="10" r="10"/>
		<circle id="path-3" cx="6" cy="6" r="6"/>
		<path id="path-5" d="M6.13211402,11.2688979 L10.8422354,11.5297995 C11.562075,11.4497464 11.7406967,10.9613193 11.2389527,10.443935 L0.591868541,0.301190754 C0.0905803995,-0.216377736 0.0269163636,-0.0499300062 0.0256689588,0.670145757 L2.29782166e-06,14.9845005 C-0.00119676849,15.7053522 0.467038737,15.932432 1.04000173,15.490159 L3.78168123,12.217739 C3.87724299,12.1438668 3.98988305,12.0715788 4.10864258,12 L7.07900942,19.5168621 C7.24412875,19.9268592 7.74262137,20.1120195 8.19190947,19.929965 C8.64097423,19.7493265 8.87107252,19.2695313 8.70554568,18.8604942 L5.73444213,11.3418087 L6.13211402,11.2688979 Z"/>
		<filter id="filter-6" width="220.2%" height="165%" x="-56.2%" y="-22.5%" filterUnits="objectBoundingBox">
			<feMorphology in="SourceAlpha" operator="dilate" radius="1" result="shadowSpreadOuter1"/>
			<feOffset dy="1" in="shadowSpreadOuter1" result="shadowOffsetOuter1"/>
			<feGaussianBlur in="shadowOffsetOuter1" result="shadowBlurOuter1" stdDeviation=".5"/>
			<feComposite in="shadowBlurOuter1" in2="SourceAlpha" operator="out" result="shadowBlurOuter1"/>
			<feColorMatrix in="shadowBlurOuter1" result="shadowMatrixOuter1" values="0 0 0 0 0   0 0 0 0 0   0 0 0 0 0  0 0 0 0.582908741 0"/>
			<feMorphology in="SourceAlpha" operator="dilate" radius="1" result="shadowSpreadOuter2"/>
			<feOffset dy="2" in="shadowSpreadOuter2" result="shadowOffsetOuter2"/>
			<feGaussianBlur in="shadowOffsetOuter2" result="shadowBlurOuter2" stdDeviation="1.5"/>
			<feComposite in="shadowBlurOuter2" in2="SourceAlpha" operator="out" result="shadowBlurOuter2"/>
			<feColorMatrix in="shadowBlurOuter2" result="shadowMatrixOuter2" values="0 0 0 0 0   0 0 0 0 0   0 0 0 0 0  0 0 0 0.179347826 0"/>
			<feMerge>
				<feMergeNode in="shadowMatrixOuter1"/>
				<feMergeNode in="shadowMatrixOuter2"/>
			</feMerge>
		</filter>
	</defs>
	<g id="Artboard-page" fill="none" fill-rule="evenodd" stroke="none" stroke-width="1">
		<g id="WikimediaUI-components_overview" transform="translate(-7537 -470)">
			<rect width="14720" height="3264" fill="#FFF"/>
			<g id="TEXT-INPUT-FIELDS" transform="translate(7359 142)">
				<g id="Text-Input-X" transform="translate(1 114)">
					<g id="Text-input-+-icon-/-!default" transform="translate(192 239)">
						<path id="Input" fill="#FFF" fill-rule="evenodd" stroke="#A2A9B1" stroke-width="1" d="M1.99477396,0.5 C1.16695734,0.5 0.5,1.16768261 0.5,2.00174332 L0.5,29.9982567 C0.5,30.8282562 1.16927265,31.5 1.99477396,31.5 L270.005226,31.5 C270.833043,31.5 271.5,30.8323174 271.5,29.9982567 L271.5,2.00174332 C271.5,1.17174378 270.830727,0.5 270.005226,0.5 L1.99477396,0.5 Z"/>
						<text id="Placeholder" fill="#72777D" font-family="HelveticaNeue, Helvetica Neue, sans-serif" font-size="16" font-weight="normal">
							<tspan x="37" y="22">Placeholder</tspan>
						</text>
						<g id="🔣-Icon/20x20-sp-placeholder" transform="translate(9 6)">
							<mask id="mask-2" fill="#fff">
								<use xlink:href="#path-1"/>
							</mask>
							<use id="shape-2" fill="#000" fill-rule="evenodd" xlink:href="#path-1"/>
							<g id="🎨-Color/Base10-(#222)" fill="#222" fill-rule="evenodd" mask="url(#mask-2)">
								<rect id="Rectangle-1" width="20" height="20" x="0" y="0"/>
							</g>
						</g>
						<g id="🔣-Icon/20x20-sp-placeholder" transform="translate(251 10)">
							<mask id="mask-4" fill="#fff">
								<use xlink:href="#path-3"/>
							</mask>
							<use id="shape-2" fill="#000" fill-rule="evenodd" xlink:href="#path-3"/>
							<g id="🎨-Color/Base10-(#222)" fill="#222" fill-rule="evenodd" mask="url(#mask-4)">
								<rect id="Rectangle-1" width="12" height="12" x="0" y="0"/>
							</g>
						</g>
					</g>
					<text id="Label" fill="#222" font-family="HelveticaNeue, Helvetica Neue, sans-serif" font-size="16" font-weight="normal" transform="translate(192 215)">
						<tspan x="0" y="15">Label</tspan>
					</text>
					<g id="_Spec-/-16-sp-(1-em)-+-2-*-8-sp-(0.5-em)" stroke-width="4" transform="rotate(-90 224.5 46.5)">
						<g id="_Spec-/-16-sp-(1-em)" stroke="#D0021B" transform="translate(8)">
							<line id="16-sp-(1-em)" x1="0" x2="16" y1="2" y2="2"/>
						</g>
						<g id="_Spec-/-8-sp-(0.5-em)" stroke="#50E3C2" transform="translate(0 1)">
							<line id="8-sp-(0.5-em)" x1="0" x2="8" y1="1" y2="1"/>
						</g>
						<g id="_Spec-/-8-sp-(0.5-em)" stroke="#50E3C2" transform="translate(24)">
							<line id="8-sp-(0.5-em)" x1="0" x2="8" y1="2" y2="2"/>
						</g>
					</g>
					<g id="_Spec-/-8-sp-(0.5-em)" stroke="#50E3C2" stroke-width="4" transform="translate(193 253)">
						<line id="8-sp-(0.5-em)" x1="0" x2="8" y1="2" y2="2"/>
					</g>
					<g id="_Spec-/-8-sp-(0.5-em)" stroke="#50E3C2" stroke-width="4" transform="translate(221 253)">
						<line id="8-sp-(0.5-em)" x1="0" x2="8" y1="2" y2="2"/>
					</g>
					<g id="_Spec-/-8-sp-(0.5-em)" stroke="#50E3C2" stroke-width="4" transform="translate(455 253)">
						<line id="8-sp-(0.5-em)" x1="0" x2="8" y1="2" y2="2"/>
					</g>
					<g id="Cursor-/-!default" transform="translate(402 191)">
						<g id="Cursor">
							<use fill="#000" filter="url(#filter-6)" xlink:href="#path-5"/>
							<path fill="#000" stroke="#FFF" d="M6.44805157,11.7871647 L9.16903318,18.6729326 C9.44237709,19.3483989 9.07500287,20.1136726 8.37968284,20.3933668 C7.68317947,20.6755944 6.8877013,20.3802565 6.61399912,19.7006158 L3.90605662,12.8478493 L1.42326646,15.8112636 L1.34552169,15.8859589 C0.444640548,16.5813536 -0.501889691,16.1215055 -0.499996898,14.983604 L-0.474330291,0.669279596 C-0.473259969,0.051426302 -0.447188468,-0.15148568 -0.202577288,-0.35941243 C0.196479729,-0.698622715 0.490703685,-0.521940513 0.936743625,-0.0608329699 L11.5978897,10.0958485 C12.390083,10.912736 12.0289467,11.9009082 10.8145819,12.0290342 L6.44805157,11.7871647 Z"/>
						</g>
					</g>
				</g>
			</g>
		</g>
	</g>
</svg>
