<?xml version="1.0" encoding="UTF-8" standalone="no"?>
<svg xmlns="http://www.w3.org/2000/svg" xmlns:xlink="http://www.w3.org/1999/xlink" width="467" height="555" viewBox="0 0 467 555">
    <defs>
        <rect id="a" width="272" height="32" rx="2"/>
        <rect id="b" width="272" height="32" x="195" y="208" rx="2"/>
        <path id="c" d="M196.995 96c-1.102 0-1.995.89-1.995 2.002v27.996c0 1.106.893 2.002 1.995 2.002h268.01c1.102 0 1.995-.89 1.995-2.002V98.002A1.998 1.998 0 0 0 465.005 96h-268.01z"/>
        <rect id="d" width="272" height="32" rx="2"/>
        <rect id="e" width="272" height="32" rx="2"/>
        <rect id="f" width="272" height="32" rx="2"/>
        <path id="h" d="M6.132 11.269l4.71.26c.72-.08.899-.568.397-1.085L.592.3C.09-.216.027-.049.026.671L0 14.984c-.001.72.467.947 1.04.505l2.742-3.272c.095-.074.208-.146.327-.218l2.97 7.517c.165.41.664.595 1.113.413.449-.18.68-.66.514-1.07l-2.972-7.518.398-.073z"/>
        <filter id="g" width="230.2%" height="175%" x="-65.1%" y="-22.5%" filterUnits="objectBoundingBox">
            <feMorphology in="SourceAlpha" operator="dilate" radius="1" result="shadowSpreadOuter1"/>
            <feOffset dy="1" in="shadowSpreadOuter1" result="shadowOffsetOuter1"/>
            <feGaussianBlur in="shadowOffsetOuter1" result="shadowBlurOuter1" stdDeviation=".5"/>
            <feComposite in="shadowBlurOuter1" in2="SourceAlpha" operator="out" result="shadowBlurOuter1"/>
            <feColorMatrix in="shadowBlurOuter1" result="shadowMatrixOuter1" values="0 0 0 0 0 0 0 0 0 0 0 0 0 0 0 0 0 0 0.582908741 0"/>
            <feMorphology in="SourceAlpha" operator="dilate" radius="1" result="shadowSpreadOuter2"/>
            <feOffset dy="2" in="shadowSpreadOuter2" result="shadowOffsetOuter2"/>
            <feGaussianBlur in="shadowOffsetOuter2" result="shadowBlurOuter2" stdDeviation="1.5"/>
            <feComposite in="shadowBlurOuter2" in2="SourceAlpha" operator="out" result="shadowBlurOuter2"/>
            <feColorMatrix in="shadowBlurOuter2" result="shadowMatrixOuter2" values="0 0 0 0 0 0 0 0 0 0 0 0 0 0 0 0 0 0 0.179347826 0"/>
            <feMerge>
                <feMergeNode in="shadowMatrixOuter1"/>
                <feMergeNode in="shadowMatrixOuter2"/>
            </feMerge>
        </filter>
    </defs>
    <g fill="none" fill-rule="evenodd">
        <text fill="#72777D" font-family="Lato-Regular, Lato" font-size="14" transform="translate(-1 305)">
            <tspan x="0" y="60">DISABLED</tspan> <tspan x="0" y="116.4"> NORMAL</tspan> <tspan x="0" y="172.8">:HOVER</tspan> <tspan x="0" y="229.2">:FOCUS &amp;</tspan> <tspan x="0" y="248">:ACTIVE</tspan>
        </text>
        <g transform="translate(194 457)">
            <use fill="#FFF" xlink:href="#a"/>
            <rect width="273" height="33" x="-.5" y="-.5" stroke="#72777D" rx="2"/>
        </g>
        <text fill="#72777D" font-family="HelveticaNeue, Helvetica Neue" font-size="16" transform="translate(194 457)">
            <tspan x="32" y="23">Re-enter password</tspan>
        </text>
        <path fill="#000" d="M352.584 474.052v7.911c-.009.632-.455 1.335-1.203 2.047a9.12 9.12 0 0 1-1.222.975l-.026.017a.284.284 0 0 0-.086.396.295.295 0 0 0 .403.085 9.725 9.725 0 0 0 .42-.294 9.78 9.78 0 0 0 .917-.767c.479-.456.853-.915 1.09-1.373.238.461.61.919 1.088 1.373a9.776 9.776 0 0 0 1.337 1.061.295.295 0 0 0 .403-.085.284.284 0 0 0-.086-.396l-.026-.017a8.2 8.2 0 0 1-.361-.254 9.168 9.168 0 0 1-.861-.72c-.748-.713-1.194-1.416-1.203-2.03v-7.93h1.343a.29.29 0 0 0 .291-.286.29.29 0 0 0-.291-.287h-1.343v-7.911c0-.627.447-1.338 1.203-2.055a9.048 9.048 0 0 1 1.22-.967l.026-.016a.284.284 0 0 0 .089-.397.294.294 0 0 0-.403-.087 9.3 9.3 0 0 0-.421.292 9.667 9.667 0 0 0-.917.762c-.478.454-.852.912-1.09 1.37-.236-.458-.61-.916-1.089-1.37a9.52 9.52 0 0 0-1.337-1.054.295.295 0 0 0-.403.087.284.284 0 0 0 .089.397l.025.016c.023.014.049.032.078.052a9.048 9.048 0 0 1 1.144.916c.755.716 1.202 1.427 1.202 2.054v7.91h-1.5a.29.29 0 0 0-.292.288c0 .158.13.287.292.287h1.5M213.4 475.4c1-1.2 1.6-2.7 1.6-4.4 0-3.9-3.1-7-7-7s-7 3.1-7 7 3.1 7 7 7c1.2 0 2.3-.3 3.2-.8l2.8 2.8c1.4 1.4 2.5 1.5 4 0l-4.6-4.6zM203 471c0-2.8 2.2-5 5-5s5 2.2 5 5-2.2 5-5 5-5-2.3-5-5z"/>
        <g transform="translate(-1 305)">
            <use fill="#FFF" xlink:href="#b"/>
            <rect width="271" height="31" x="195.5" y="208.5" stroke="#36C" rx="2"/>
            <rect width="273" height="33" x="194.5" y="207.5" stroke="#36C" rx="2"/>
        </g>
        <text fill="#222" font-family="HelveticaNeue, Helvetica Neue" font-size="16" transform="translate(-1 305)">
            <tspan x="226" y="231">******</tspan>
        </text>
        <path stroke="#000" stroke-linecap="square" d="M260.5 520.5v17.938"/>
        <path fill="#222" d="M449 521c-4.4 0-8 3.6-8 8s3.6 8 8 8 8-3.6 8-8-3.6-8-8-8zm4 11l-1 1-3-3-3 3-1-1 3-3-3-3 1-1 3 3 3-3 1 1-3 3 3 3z"/>
        <path fill="#000" d="M213.4 531.4c1-1.2 1.6-2.7 1.6-4.4 0-3.9-3.1-7-7-7s-7 3.1-7 7 3.1 7 7 7c1.2 0 2.3-.3 3.2-.8l2.8 2.8c1.4 1.4 2.5 1.5 4 0l-4.6-4.6zM203 527c0-2.8 2.2-5 5-5s5 2.2 5 5-2.2 5-5 5-5-2.3-5-5z"/>
        <path stroke="#50E3C2" stroke-linecap="square" d="M457.5 528.5h7m-7-1h7m-7 3h7m-7-1h7"/>
        <g transform="translate(-1 305)">
            <use fill="#FFF" xlink:href="#c"/>
            <path stroke="#9AA0A7" d="M196.995 95.5a2.494 2.494 0 0 0-2.495 2.502v27.996a2.498 2.498 0 0 0 2.495 2.502h268.01a2.494 2.494 0 0 0 2.495-2.502V98.002a2.498 2.498 0 0 0-2.495-2.502h-268.01z"/>
        </g>
        <text fill="#72777D" font-family="HelveticaNeue, Helvetica Neue" font-size="16" transform="translate(-1 305)">
            <tspan x="227" y="120">Re-enter password</tspan>
        </text>
        <path fill="#222" d="M213.4 421.4c1-1.2 1.6-2.7 1.6-4.4 0-3.9-3.1-7-7-7s-7 3.1-7 7 3.1 7 7 7c1.2 0 2.3-.3 3.2-.8l2.8 2.8c1.4 1.4 2.5 1.5 4 0l-4.6-4.6zM203 417c0-2.8 2.2-5 5-5s5 2.2 5 5-2.2 5-5 5-5-2.3-5-5z"/>
        <g transform="translate(193 345)">
            <rect width="273" height="33" x="-.5" y="-.5" stroke="#949494" rx="2"/>
            <text fill="#949494" font-family="HelveticaNeue, Helvetica Neue" font-size="16.364">
                <tspan x="33" y="22">Re-enter password</tspan>
            </text>
            <path fill="#888" d="M20.4 18.4c1-1.2 1.6-2.7 1.6-4.4 0-3.9-3.1-7-7-7s-7 3.1-7 7 3.1 7 7 7c1.2 0 2.3-.3 3.2-.8L21 23c1.4 1.4 2.5 1.5 4 0l-4.6-4.6zM10 14c0-2.8 2.2-5 5-5s5 2.2 5 5-2.2 5-5 5-5-2.3-5-5z"/>
        </g>
        <path stroke="#50E3C2" stroke-linecap="square" d="M433.5 528.5h7m-7-1h7m-7 3h7m-7-1h7m-247-169h7m-7-1h7m-7 3h7m-7-1h7m17-1h7m-7-1h7m-7 3h7m-7-1h7"/>
        <text fill="#222" font-family="Lato-Bold, Lato" font-size="14" font-weight="bold" transform="translate(1 305)">
            <tspan x="0" y="13">ICON + TEXT FIELD</tspan>
        </text>
        <path stroke="#222" stroke-linecap="square" d="M190.484 328.5H1.516"/>
        <g transform="translate(193 9)">
            <use fill="#EAECF0" xlink:href="#d"/>
            <rect width="273" height="33" x="-.5" y="-.5" stroke="#C8CCD1" rx="2"/>
        </g>
        <text fill="#72777D" font-family="HelveticaNeue, Helvetica Neue" font-size="16" transform="translate(193 9)">
            <tspan x="16" y="22">Placeholder text</tspan>
        </text>
        <g transform="translate(193 121)">
            <use fill="#FFF" xlink:href="#e"/>
            <rect width="273" height="33" x="-.5" y="-.5" stroke="#72777D" rx="2"/>
        </g>
        <text fill="#72777D" font-family="HelveticaNeue, Helvetica Neue" font-size="16" transform="translate(193 121)">
            <tspan x="15" y="22">Re-enter password</tspan>
        </text>
        <path fill="#000" d="M409.584 149.052v7.911c-.009.632-.455 1.335-1.203 2.047a9.12 9.12 0 0 1-1.222.975l-.026.017a.284.284 0 0 0-.086.396.295.295 0 0 0 .403.085 9.725 9.725 0 0 0 .42-.294 9.78 9.78 0 0 0 .917-.767c.479-.456.853-.915 1.09-1.373.238.461.61.919 1.088 1.373a9.776 9.776 0 0 0 1.337 1.061.295.295 0 0 0 .403-.085.284.284 0 0 0-.086-.396l-.026-.017a8.2 8.2 0 0 1-.361-.254 9.168 9.168 0 0 1-.861-.72c-.748-.713-1.194-1.416-1.203-2.03v-7.93h1.343a.29.29 0 0 0 .291-.286.29.29 0 0 0-.291-.287h-1.343v-7.911c0-.627.447-1.338 1.203-2.055a9.048 9.048 0 0 1 1.22-.967l.026-.016a.284.284 0 0 0 .089-.397.294.294 0 0 0-.403-.087 9.3 9.3 0 0 0-.421.292 9.667 9.667 0 0 0-.917.762c-.478.454-.852.912-1.09 1.37-.236-.458-.61-.916-1.089-1.37a9.52 9.52 0 0 0-1.337-1.054.295.295 0 0 0-.403.087.284.284 0 0 0 .089.397l.025.016c.023.014.049.032.078.052a9.048 9.048 0 0 1 1.144.916c.755.716 1.202 1.427 1.202 2.054v7.91h-1.5a.29.29 0 0 0-.292.288c0 .158.13.287.292.287h1.5"/>
        <g stroke="#36C" transform="translate(193 177)">
            <rect width="273" height="33" x="-.5" y="-.5" rx="2"/>
            <rect width="271" height="31" x=".5" y=".5" rx="2"/>
        </g>
        <text fill="#222" font-family="HelveticaNeue, Helvetica Neue" font-size="16" transform="translate(193 177)">
            <tspan x="15" y="21">******</tspan>
        </text>
        <path stroke="#000" stroke-linecap="square" d="M242.5 183.5v17.938"/>
        <path fill="#222" d="M447 185c-4.4 0-8 3.6-8 8s3.6 8 8 8 8-3.6 8-8-3.6-8-8-8zm4 11l-1 1-3-3-3 3-1-1 3-3-3-3 1-1 3 3 3-3 1 1-3 3 3 3z"/>
        <path fill="#000" d="M409.584 205.052v7.911c-.009.632-.455 1.335-1.203 2.047a9.12 9.12 0 0 1-1.222.975l-.026.017a.284.284 0 0 0-.086.396.295.295 0 0 0 .403.085 9.725 9.725 0 0 0 .42-.294 9.78 9.78 0 0 0 .917-.767c.479-.456.853-.915 1.09-1.373.238.461.61.919 1.088 1.373a9.776 9.776 0 0 0 1.337 1.061.295.295 0 0 0 .403-.085.284.284 0 0 0-.086-.396l-.026-.017a8.2 8.2 0 0 1-.361-.254 9.168 9.168 0 0 1-.861-.72c-.748-.713-1.194-1.416-1.203-2.03v-7.93h1.343a.29.29 0 0 0 .291-.286.29.29 0 0 0-.291-.287h-1.343v-7.911c0-.627.447-1.338 1.203-2.055a9.048 9.048 0 0 1 1.22-.967l.026-.016a.284.284 0 0 0 .089-.397.294.294 0 0 0-.403-.087 9.3 9.3 0 0 0-.421.292 9.667 9.667 0 0 0-.917.762c-.478.454-.852.912-1.09 1.37-.236-.458-.61-.916-1.089-1.37a9.52 9.52 0 0 0-1.337-1.054.295.295 0 0 0-.403.087.284.284 0 0 0 .089.397l.025.016c.023.014.049.032.078.052a9.048 9.048 0 0 1 1.144.916c.755.716 1.202 1.427 1.202 2.054v7.91h-1.5a.29.29 0 0 0-.292.288c0 .158.13.287.292.287h1.5"/>
        <g transform="translate(193 65)">
            <use fill="#FFF" xlink:href="#f"/>
            <rect width="273" height="33" x="-.5" y="-.5" stroke="#9AA0A7" rx="2"/>
        </g>
        <text fill="#72777D" font-family="HelveticaNeue, Helvetica Neue" font-size="16" transform="translate(193 65)">
            <tspan x="15" y="22">Re-enter password</tspan>
        </text>
        <g stroke-linecap="square">
            <path stroke="#D0011B" d="M179.5 32.5v-15m1 15v-15m1 15v-15m1 15v-15"/>
            <path stroke="#50E3C2" d="M180.5 40.5v-7m-1 7v-7m3 7v-7m-1 7v-7m-1-17v-7m-1 7v-7m3 7v-7m-1 7v-7"/>
        </g>
        <path stroke="#D0011B" stroke-linecap="square" d="M193.5 23.5h15m-15 1h15m-15 1h15m-15 1h15"/>
        <g transform="translate(403 32)">
            <use fill="#000" filter="url(#g)" xlink:href="#h"/>
            <use fill="#000" xlink:href="#h"/>
            <path stroke="#FFF" d="M6.448 11.787l4.367.242c1.214-.128 1.575-1.116.783-1.933L.937-.061C.49-.52.197-.699-.203-.359c-.244.208-.27.41-.271 1.028L-.5 14.984c-.002 1.138.945 1.597 1.846.902l.077-.075 2.483-2.963L6.614 19.7c.274.68 1.07.975 1.766.692.695-.28 1.062-1.045.789-1.72l-2.72-6.886z"/>
        </g>
        <text fill="#72777D" font-family="Lato-Regular, Lato" font-size="14" transform="translate(-1 9)">
            <tspan x="0" y="23">DISABLED</tspan> <tspan x="0" y="79.4"> NORMAL</tspan> <tspan x="0" y="135.8">:HOVER</tspan> <tspan x="0" y="192.2">:FOCUS &amp;</tspan> <tspan x="0" y="211">:ACTIVE</tspan>
        </text>
    </g>
</svg>
