<?xml version="1.0" encoding="UTF-8"?>
<svg xmlns="http://www.w3.org/2000/svg" xmlns:xlink="http://www.w3.org/1999/xlink" width="467" height="222" viewBox="0 0 467 222">
	<title>
		Text_Inputs states
	</title>
	<desc>
		Created with Sketch.
	</desc>
	<defs>
		<filter id="filter-3" width="220.2%" height="165%" x="-56.2%" y="-22.5%" filterUnits="objectBoundingBox">
			<feMorphology in="SourceAlpha" operator="dilate" radius="1" result="shadowSpreadOuter1"/>
			<feOffset dy="1" in="shadowSpreadOuter1" result="shadowOffsetOuter1"/>
			<feGaussianBlur in="shadowOffsetOuter1" result="shadowBlurOuter1" stdDeviation=".5"/>
			<feComposite in="shadowBlurOuter1" in2="SourceAlpha" operator="out" result="shadowBlurOuter1"/>
			<feColorMatrix in="shadowBlurOuter1" result="shadowMatrixOuter1" values="0 0 0 0 0 0 0 0 0 0 0 0 0 0 0 0 0 0 0.582908741 0"/>
			<feMorphology in="SourceAlpha" operator="dilate" radius="1" result="shadowSpreadOuter2"/>
			<feOffset dy="2" in="shadowSpreadOuter2" result="shadowOffsetOuter2"/>
			<feGaussianBlur in="shadowOffsetOuter2" result="shadowBlurOuter2" stdDeviation="1.5"/>
			<feComposite in="shadowBlurOuter2" in2="SourceAlpha" operator="out" result="shadowBlurOuter2"/>
			<feColorMatrix in="shadowBlurOuter2" result="shadowMatrixOuter2" values="0 0 0 0 0 0 0 0 0 0 0 0 0 0 0 0 0 0 0.179347826 0"/>
			<feMerge>
				<feMergeNode in="shadowMatrixOuter1"/>
				<feMergeNode in="shadowMatrixOuter2"/>
			</feMerge>
		</filter>
		<rect id="path-1" width="272" height="32" x="0" y="0" rx="2"/>
		<path id="path-2" d="M6.132 11.269l4.71.26c.72-.08.899-.568.397-1.085L.592.3C.09-.216.027-.049.026.671L0 14.984c-.001.72.467.947 1.04.505l2.742-3.272c.095-.074.208-.146.327-.218l2.97 7.517c.165.41.664.595 1.113.413.449-.18.68-.66.514-1.07l-2.972-7.518.398-.073z"/>
	</defs>
	<g id="Artboard-page" fill="none" fill-rule="evenodd" stroke="none" stroke-width="1">
		<g id="WikimediaUI-components_overview" transform="translate(-7359 -255)">
			<path fill="#FFF" d="M0 0h14720v3264H0z"/>
			<g id="TEXT-INPUT-FIELDS" transform="translate(7359 142)">
				<g id="Text-Input-X" transform="translate(1 114)">
					<g id="Text-input-/-:disabled" transform="translate(192 168)">
						<rect id="Mediawiki.Neutral.Hover-33" width="273" height="33" x="-.5" y="-.5" fill="#EAECF0" fill-rule="evenodd" stroke="#C8CCD1" stroke-width="1" rx="2"/>
						<text id="Placeholder-text" fill="#72777D" font-family="HelveticaNeue, Helvetica Neue" font-size="16" font-weight="normal">
							<tspan x="16" y="22">Placeholder text</tspan>
						</text>
					</g>
					<g id="Textfield_active" transform="translate(192 56)">
						<rect id="Mediawiki.Neutral.Hover-14" width="273" height="33" x="-.5" y="-.5" fill="#FFF" stroke="#72777D" rx="2"/>
						<text id="Re-enter-password-3" fill="#72777D" font-family="HelveticaNeue, Helvetica Neue" font-size="16" font-weight="normal">
							<tspan x="15" y="22">Re-enter password</tspan>
						</text>
						<path id="Imported-Layers-50" fill="#000" d="M216.584 28.052v7.911c-.009.632-.455 1.335-1.203 2.047a9.12 9.12 0 01-1.222.975l-.026.017a.284.284 0 00-.086.396.295.295 0 00.403.085 9.725 9.725 0 00.42-.294 9.78 9.78 0 00.917-.767c.479-.456.853-.915 1.09-1.373.238.461.61.919 1.088 1.373a9.776 9.776 0 001.337 1.061.295.295 0 00.403-.085.284.284 0 00-.086-.396l-.026-.017a8.2 8.2 0 01-.361-.254 9.168 9.168 0 01-.861-.72c-.748-.713-1.194-1.416-1.203-2.03v-7.93h1.343a.29.29 0 00.291-.286.29.29 0 00-.291-.287h-1.343v-7.911c0-.627.447-1.338 1.203-2.055a9.048 9.048 0 011.22-.967l.026-.016a.284.284 0 00.089-.397.294.294 0 00-.403-.087 9.3 9.3 0 00-.421.292 9.667 9.667 0 00-.917.762c-.478.454-.852.912-1.09 1.37-.236-.458-.61-.916-1.089-1.37a9.52 9.52 0 00-1.337-1.054.295.295 0 00-.403.087.284.284 0 00.089.397l.025.016c.023.014.049.032.078.052a9.048 9.048 0 011.144.916c.755.716 1.202 1.427 1.202 2.054v7.91h-1.5a.29.29 0 00-.292.288c0 .158.13.287.292.287h1.5"/>
					</g>
					<g id="Text-input-/-:focus" transform="translate(192 112)">
						<g id="Mediawiki.Neutral.Hover-32" stroke="#36C" stroke-width="1">
							<rect width="273" height="33" x="-.5" y="-.5" rx="2"/>
							<rect width="271" height="31" x=".5" y=".5" stroke-linejoin="square" rx="2"/>
						</g>
						<text id="******" fill="#222" font-family="HelveticaNeue, Helvetica Neue" font-size="16" font-weight="normal">
							<tspan x="15" y="21">******</tspan>
						</text>
						<path id="Line-172" stroke="#000" stroke-linecap="square" stroke-width="1" d="M49.5 6.5v17.938"/>
						<path id="Shape-Copy-4" fill="#222" fill-rule="evenodd" d="M254 8c-4.4 0-8 3.6-8 8s3.6 8 8 8 8-3.6 8-8-3.6-8-8-8zm4 11l-1 1-3-3-3 3-1-1 3-3-3-3 1-1 3 3 3-3 1 1-3 3 3 3z"/>
						<path id="Imported-Layers-50" fill="#000" fill-rule="evenodd" d="M216.584 28.052v7.911c-.009.632-.455 1.335-1.203 2.047a9.12 9.12 0 01-1.222.975l-.026.017a.284.284 0 00-.086.396.295.295 0 00.403.085 9.725 9.725 0 00.42-.294 9.78 9.78 0 00.917-.767c.479-.456.853-.915 1.09-1.373.238.461.61.919 1.088 1.373a9.776 9.776 0 001.337 1.061.295.295 0 00.403-.085.284.284 0 00-.086-.396l-.026-.017a8.2 8.2 0 01-.361-.254 9.168 9.168 0 01-.861-.72c-.748-.713-1.194-1.416-1.203-2.03v-7.93h1.343a.29.29 0 00.291-.286.29.29 0 00-.291-.287h-1.343v-7.911c0-.627.447-1.338 1.203-2.055a9.048 9.048 0 011.22-.967l.026-.016a.284.284 0 00.089-.397.294.294 0 00-.403-.087 9.3 9.3 0 00-.421.292 9.667 9.667 0 00-.917.762c-.478.454-.852.912-1.09 1.37-.236-.458-.61-.916-1.089-1.37a9.52 9.52 0 00-1.337-1.054.295.295 0 00-.403.087.284.284 0 00.089.397l.025.016c.023.014.049.032.078.052a9.048 9.048 0 011.144.916c.755.716 1.202 1.427 1.202 2.054v7.91h-1.5a.29.29 0 00-.292.288c0 .158.13.287.292.287h1.5"/>
					</g>
					<g id="Text-input-/-!default" transform="translate(192)">
						<rect id="Mediawiki.Neutral.Hover-35" width="273" height="33" x="-.5" y="-.5" fill="#FFF" fill-rule="evenodd" stroke="#9AA0A7" stroke-width="1" rx="2"/>
						<text id="Placeholder-text" fill="#72777D" font-family="HelveticaNeue, Helvetica Neue" font-size="16" font-weight="normal">
							<tspan x="15" y="22">Re-enter password</tspan>
						</text>
					</g>
					<g id="-101-/-16-sp-(1-em)-+-2-*-8-sp-(0.5-em)" stroke-width="4" transform="rotate(-90 189 11)">
						<g id="101-/-16-sp-(1-em)" stroke="#D0021B" transform="translate(8)">
							<path id="16-sp-(1-em)" d="M0 2h16"/>
						</g>
						<g id="101-/-8-sp-(0.5-em)" stroke="#50E3C2" transform="translate(0 1)">
							<path id="8-sp-(0.5-em)" d="M0 1h8"/>
						</g>
						<g id="101-/-8-sp-(0.5-em)" stroke="#50E3C2" transform="translate(24)">
							<path id="8-sp-(0.5-em)" d="M0 2h8"/>
						</g>
					</g>
					<g id="101-/-16-sp-(1-em)" stroke="#D0021B" stroke-width="4" transform="translate(192 183)">
						<path id="16-sp-(1-em)" d="M0 1h16"/>
					</g>
					<g id="Cursor-/-!default" transform="translate(402 191)">
						<g id="cursor" fill="#000">
							<use filter="url(#filter-3)" xlink:href="#path-2"/>
							<path stroke="#FFF" d="M6.448 11.787l2.721 6.886c.273.675-.094 1.44-.79 1.72-.696.283-1.491-.013-1.765-.692l-2.708-6.853-2.483 2.963-.077.075c-.901.695-1.848.236-1.846-.902L-.474.669c0-.618.027-.82.271-1.028.4-.34.694-.163 1.14.298l10.66 10.157c.793.817.432 1.805-.782 1.933l-4.367-.242z"/>
						</g>
					</g>
					<text id="Normal-Hover-Focus-&amp;" fill="#72777D" font-family="Lato-Regular, Lato" font-size="14" font-weight="normal">
						<tspan x="0" y="22">Normal</tspan> <tspan x="0" y="78.1">Hover</tspan> <tspan x="0" y="134.2">Focus &amp;</tspan> <tspan x="0" y="152.9">Active</tspan> <tspan x="0" y="190.3">Disabled</tspan>
					</text>
				</g>
			</g>
		</g>
	</g>
</svg>
