<?xml version="1.0" encoding="UTF-8"?>
<svg xmlns="http://www.w3.org/2000/svg" xmlns:xlink="http://www.w3.org/1999/xlink" width="288" height="58" viewBox="0 0 288 58">
	<title>
		text_inputs_designing
	</title>
	<defs>
		<circle id="path-1" cx="10" cy="10" r="10"/>
		<circle id="path-3" cx="6" cy="6" r="6"/>
	</defs>
	<g id="Artboard-page" fill="none" fill-rule="evenodd" stroke="none" stroke-width="1">
		<g id="WikimediaUI-components_overview" transform="translate(-7537 -475)">
			<path fill="#FFF" d="M0 0h14720v3264H0z"/>
			<g id="TEXT-INPUT-FIELDS" transform="translate(7359 142)">
				<g id="Text-Input-X" transform="translate(1 114)">
					<g id="Text-input-+-icon-/-!default" transform="translate(192 244)">
						<path id="Input" fill="#FFF" fill-rule="evenodd" stroke="#A2A9B1" stroke-width="1" d="M1.995.5A1.49 1.49 0 00.937.938 1.5 1.5 0 00.5 2.002v27.996A1.5 1.5 0 001.995 31.5h268.01a1.49 1.49 0 001.058-.438 1.5 1.5 0 00.437-1.064l-.35-27.95c-.242-.047-.57-.093-1.016-.14-1.32-.138-3.608-.27-7.569-.393-6.987-.218-19.159-.411-40.361-.568C184.518.667 118.311.5 1.994.5z"/>
						<text id="Placeholder" fill="#72777D" font-family="HelveticaNeue, Helvetica Neue, sans-serif" font-size="16" font-weight="normal">
							<tspan x="37" y="22">Placeholder</tspan>
						</text>
						<g id="🔣-Icon/20x20-sp-placeholder" transform="translate(9 6)">
							<mask id="mask-2" fill="#fff">
								<use xlink:href="#path-1"/>
							</mask>
							<use id="shape" fill="#000" fill-rule="evenodd" xlink:href="#path-1"/>
							<g id="🎨-Color/Base10-#202122" fill="#202122" fill-rule="evenodd" mask="url(#mask-2)">
								<path id="Color" d="M0 0h20v20H0z"/>
							</g>
						</g>
						<g id="🔣-Icon/20x20-sp-placeholder" transform="translate(251 10)">
							<mask id="mask-4" fill="#fff">
								<use xlink:href="#path-3"/>
							</mask>
							<use id="shape" fill="#000" fill-rule="evenodd" xlink:href="#path-3"/>
							<g id="🎨-Color/Base10-#202122" fill="#202122" fill-rule="evenodd" mask="url(#mask-4)">
								<path id="Color" d="M0 0h12v12H0z"/>
							</g>
						</g>
					</g>
					<text id="Label" fill="#202122" font-family="HelveticaNeue, Helvetica Neue, sans-serif" font-size="16" font-weight="normal" transform="translate(192 220)">
						<tspan x="0" y="15">Label</tspan>
					</text>
					<g id="_Spec-/-16-sp-(1-em)-+-2-*-8-sp-(0.5-em)" stroke-width="4" transform="rotate(-90 227 49)">
						<g id="_Spec-/-16-sp-(1-em)" stroke="#D0021B" transform="translate(8)">
							<path id="16-sp-(1-em)" d="M0 2h16"/>
						</g>
						<g id="_Spec-/-8-sp-(0.5-em)" stroke="#50E3C2" transform="translate(0 1)">
							<path id="8-sp-(0.5-em)" d="M0 1h8"/>
						</g>
						<g id="_Spec-/-8-sp-(0.5-em)" stroke="#50E3C2" transform="translate(24)">
							<path id="8-sp-(0.5-em)" d="M0 2h8"/>
						</g>
					</g>
					<g id="_Spec-/-8-sp-(0.5-em)" stroke="#50E3C2" stroke-width="4" transform="translate(193 258)">
						<path id="8-sp-(0.5-em)" d="M0 2h8"/>
					</g>
					<g id="_Spec-/-8-sp-(0.5-em)" stroke="#50E3C2" stroke-width="4" transform="translate(221 258)">
						<path id="8-sp-(0.5-em)" d="M0 2h8"/>
					</g>
					<g id="_Spec-/-8-sp-(0.5-em)" stroke="#50E3C2" stroke-width="4" transform="translate(455 258)">
						<path id="8-sp-(0.5-em)" d="M0 2h8"/>
					</g>
				</g>
			</g>
		</g>
	</g>
</svg>
