<?xml version="1.0" encoding="UTF-8"?>
<svg xmlns="http://www.w3.org/2000/svg" width="272" height="54" viewBox="0 0 272 54">
	<title>
		toggle_switches_designing
	</title>
	<g id="Artboard-page" fill="none" fill-rule="evenodd" stroke="none" stroke-width="1">
		<g id="WikimediaUI-components_overview" transform="translate(-6941 -876)">
			<path fill="#FFF" d="M0 0h14720v3264H0z"/>
			<g id="TOGGLE-SWITCH" transform="translate(6640 143)">
				<g id="Toggle-Switch-X" transform="translate(0 113)">
					<g id="Toggle-switch-/-!default" fill="#FFF" stroke="#72777D" transform="translate(500 641)">
						<path id="Mediawiki.Neutral.Hover-copy-28" d="M16-.5h28c9.113 0 16.5 7.387 16.5 16.5 0 9.114-7.387 16.5-16.5 16.5H16C6.887 32.5-.5 25.113-.5 16-.5 6.886 6.887-.5 16-.5z"/>
						<circle id="Oval-45-Copy-13" cx="17" cy="16" r="10.5"/>
					</g>
					<g id="_Spec-/-8-sp-(0.5-em)" stroke="#50E3C2" stroke-width="4" transform="translate(499 637)">
						<path id="8-sp-(0.5-em)" d="M0 2h8"/>
					</g>
					<g id="_Spec-/-16-sp-(1-em)" stroke="#D0021B" stroke-width="4" transform="translate(483 655)">
						<path id="16-sp-(1-em)" d="M0 2h16"/>
					</g>
					<g id="_Spec-/-16-sp-(1-em)-+-2-*-8-sp-(0.5-em)" stroke-width="4" transform="rotate(-90 620.5 52.5)">
						<g id="_Spec-/-16-sp-(1-em)" stroke="#D0021B" transform="translate(8)">
							<path id="16-sp-(1-em)" d="M0 2h16"/>
						</g>
						<g id="_Spec-/-8-sp-(0.5-em)" stroke="#50E3C2" transform="translate(0 1)">
							<path id="8-sp-(0.5-em)" d="M0 1h8"/>
						</g>
						<g id="_Spec-/-8-sp-(0.5-em)" stroke="#50E3C2" transform="translate(24)">
							<path id="8-sp-(0.5-em)" d="M0 2h8"/>
						</g>
					</g>
					<text id="Label-for-binary-sel" fill="#222" font-family="HelveticaNeue, Helvetica Neue, sans-serif" font-size="16" font-weight="normal">
						<tspan x="303" y="662">Label for binary selection</tspan>
					</text>
					<path id="Line" stroke="#50E3C2" stroke-dasharray="1 3" stroke-linecap="square" d="M499.5 665.5v-45.011"/>
					<path id="Line-Copy-5" stroke="#50E3C2" stroke-dasharray="1 3" stroke-linecap="square" d="M506.5 665.5v-45.011"/>
				</g>
			</g>
		</g>
	</g>
</svg>
