<?xml version="1.0" encoding="UTF-8"?>
<svg xmlns="http://www.w3.org/2000/svg" xmlns:xlink="http://www.w3.org/1999/xlink" width="484" height="310" viewBox="0 0 484 310">
	<title>
		toggle_switches_states
	</title>
	<defs>
		<rect id="path-1" width="61" height="36" x=".5" y="0" rx="18"/>
		<circle id="path-2" cx="43.5" cy="18" r="10"/>
		<filter id="filter-3" width="105%" height="110%" x="-2.5%" y="-2.5%" filterUnits="objectBoundingBox">
			<feOffset dy="1" in="SourceAlpha" result="shadowOffsetOuter1"/>
			<feComposite in="shadowOffsetOuter1" in2="SourceAlpha" operator="out" result="shadowOffsetOuter1"/>
			<feColorMatrix in="shadowOffsetOuter1" values="0 0 0 0 0   0 0 0 0 0   0 0 0 0 0  0 0 0 0.1 0"/>
		</filter>
		<circle id="path-4" cx="44" cy="16" r="10"/>
		<filter id="filter-5" width="105%" height="110%" x="-2.5%" y="-2.5%" filterUnits="objectBoundingBox">
			<feOffset dy="1" in="SourceAlpha" result="shadowOffsetOuter1"/>
			<feComposite in="shadowOffsetOuter1" in2="SourceAlpha" operator="out" result="shadowOffsetOuter1"/>
			<feColorMatrix in="shadowOffsetOuter1" values="0 0 0 0 0   0 0 0 0 0   0 0 0 0 0  0 0 0 0.1 0"/>
		</filter>
		<path id="path-6" d="M43,26 C48.5228475,26 53,21.5228475 53,16 C53,10.4771525 48.5228475,6 43,6 C37.4771525,6 33,10.4771525 33,16 C33,21.5228475 37.4771525,26 43,26 Z"/>
		<filter id="filter-7" width="105%" height="110%" x="-2.5%" y="-2.5%" filterUnits="objectBoundingBox">
			<feOffset dy="1" in="SourceAlpha" result="shadowOffsetOuter1"/>
			<feComposite in="shadowOffsetOuter1" in2="SourceAlpha" operator="out" result="shadowOffsetOuter1"/>
			<feColorMatrix in="shadowOffsetOuter1" values="0 0 0 0 0   0 0 0 0 0   0 0 0 0 0  0 0 0 0.1 0"/>
		</filter>
		<circle id="path-8" cx="43" cy="16" r="10"/>
		<filter id="filter-9" width="105%" height="110%" x="-2.5%" y="-2.5%" filterUnits="objectBoundingBox">
			<feOffset dy="1" in="SourceAlpha" result="shadowOffsetOuter1"/>
			<feComposite in="shadowOffsetOuter1" in2="SourceAlpha" operator="out" result="shadowOffsetOuter1"/>
			<feColorMatrix in="shadowOffsetOuter1" values="0 0 0 0 0   0 0 0 0 0   0 0 0 0 0  0 0 0 0.1 0"/>
		</filter>
		<rect id="path-10" width="60" height="32" x="0" y="0" rx="16"/>
		<rect id="path-11" width="60" height="32" x="0" y="0" rx="16"/>
		<path id="path-12" d="M17.5954523,12.3787874 C17.5954523,11.7256091 17.0590701,11.1960268 16.3978922,11.1960268 C15.7383142,11.1960268 15.203532,11.7232092 15.2015321,12.3747875 L15.2015321,11.548815 C15.2015321,10.6920436 14.483156,9.99766674 13.5963856,9.99766674 C12.7096151,9.99766674 12.0036387,10.6920436 12.0036387,11.548815 L12.0036387,10.350455 C12.0036387,9.49368354 11.2756629,8.79930669 10.3928923,8.79930669 C9.51012177,8.79930669 8.80654522,9.49408353 8.80654522,10.350455 L8.80654522,1.42515249 C8.80654522,0.637978734 8.1681665,-2.3109992e-14 7.39619224,-2.3109992e-14 C6.62461796,-2.3109992e-14 5.99863882,0.638378721 5.99863882,1.42515249 L5.99863882,16.4630512 L2.39595891,11.8040065 C2.04997044,11.2180261 1.26999644,11.0252325 0.653616989,11.3728209 C0.0372375346,11.7208093 -0.181955159,12.4779841 0.164033308,13.0639645 C0.164033308,13.0639645 2.9811394,17.4326189 4.13110107,19.1573614 C5.28106274,20.8821039 7.16859982,23.009633 7.16859982,24 L15.1579335,24 C15.1579335,22.3280557 17.6014521,19.7165428 17.6014521,17.2018266 L17.6014521,13.9627346 L17.5954523,12.3787874 Z"/>
		<filter id="filter-13" width="173.9%" height="154.2%" x="-36.9%" y="-18.8%" filterUnits="objectBoundingBox">
			<feMorphology in="SourceAlpha" operator="dilate" radius="1" result="shadowSpreadOuter1"/>
			<feOffset dy="1" in="shadowSpreadOuter1" result="shadowOffsetOuter1"/>
			<feGaussianBlur in="shadowOffsetOuter1" result="shadowBlurOuter1" stdDeviation=".5"/>
			<feComposite in="shadowBlurOuter1" in2="SourceAlpha" operator="out" result="shadowBlurOuter1"/>
			<feColorMatrix in="shadowBlurOuter1" result="shadowMatrixOuter1" values="0 0 0 0 0   0 0 0 0 0   0 0 0 0 0  0 0 0 0.582908741 0"/>
			<feMorphology in="SourceAlpha" operator="dilate" radius="1" result="shadowSpreadOuter2"/>
			<feOffset dy="2" in="shadowSpreadOuter2" result="shadowOffsetOuter2"/>
			<feGaussianBlur in="shadowOffsetOuter2" result="shadowBlurOuter2" stdDeviation="1.5"/>
			<feComposite in="shadowBlurOuter2" in2="SourceAlpha" operator="out" result="shadowBlurOuter2"/>
			<feColorMatrix in="shadowBlurOuter2" result="shadowMatrixOuter2" values="0 0 0 0 0   0 0 0 0 0   0 0 0 0 0  0 0 0 0.179347826 0"/>
			<feMerge>
				<feMergeNode in="shadowMatrixOuter1"/>
				<feMergeNode in="shadowMatrixOuter2"/>
			</feMerge>
		</filter>
		<path id="path-14" d="M17.5954523,12.3787874 C17.5954523,11.7256091 17.0590701,11.1960268 16.3978922,11.1960268 C15.7383142,11.1960268 15.203532,11.7232092 15.2015321,12.3747875 L15.2015321,11.548815 C15.2015321,10.6920436 14.483156,9.99766674 13.5963856,9.99766674 C12.7096151,9.99766674 12.0036387,10.6920436 12.0036387,11.548815 L12.0036387,10.350455 C12.0036387,9.49368354 11.2756629,8.79930669 10.3928923,8.79930669 C9.51012177,8.79930669 8.80654522,9.49408353 8.80654522,10.350455 L8.80654522,1.42515249 C8.80654522,0.637978734 8.1681665,-2.3109992e-14 7.39619224,-2.3109992e-14 C6.62461796,-2.3109992e-14 5.99863882,0.638378721 5.99863882,1.42515249 L5.99863882,16.4630512 L2.39595891,11.8040065 C2.04997044,11.2180261 1.26999644,11.0252325 0.653616989,11.3728209 C0.0372375346,11.7208093 -0.181955159,12.4779841 0.164033308,13.0639645 C0.164033308,13.0639645 2.9811394,17.4326189 4.13110107,19.1573614 C5.28106274,20.8821039 7.16859982,23.009633 7.16859982,24 L15.1579335,24 C15.1579335,22.3280557 17.6014521,19.7165428 17.6014521,17.2018266 L17.6014521,13.9627346 L17.5954523,12.3787874 Z"/>
		<filter id="filter-15" width="173.9%" height="154.2%" x="-36.9%" y="-18.8%" filterUnits="objectBoundingBox">
			<feMorphology in="SourceAlpha" operator="dilate" radius="1" result="shadowSpreadOuter1"/>
			<feOffset dy="1" in="shadowSpreadOuter1" result="shadowOffsetOuter1"/>
			<feGaussianBlur in="shadowOffsetOuter1" result="shadowBlurOuter1" stdDeviation=".5"/>
			<feComposite in="shadowBlurOuter1" in2="SourceAlpha" operator="out" result="shadowBlurOuter1"/>
			<feColorMatrix in="shadowBlurOuter1" result="shadowMatrixOuter1" values="0 0 0 0 0   0 0 0 0 0   0 0 0 0 0  0 0 0 0.582908741 0"/>
			<feMorphology in="SourceAlpha" operator="dilate" radius="1" result="shadowSpreadOuter2"/>
			<feOffset dy="2" in="shadowSpreadOuter2" result="shadowOffsetOuter2"/>
			<feGaussianBlur in="shadowOffsetOuter2" result="shadowBlurOuter2" stdDeviation="1.5"/>
			<feComposite in="shadowBlurOuter2" in2="SourceAlpha" operator="out" result="shadowBlurOuter2"/>
			<feColorMatrix in="shadowBlurOuter2" result="shadowMatrixOuter2" values="0 0 0 0 0   0 0 0 0 0   0 0 0 0 0  0 0 0 0.179347826 0"/>
			<feMerge>
				<feMergeNode in="shadowMatrixOuter1"/>
				<feMergeNode in="shadowMatrixOuter2"/>
			</feMerge>
		</filter>
		<path id="path-16" d="M6.13211402,11.2688979 L10.8422354,11.5297995 C11.562075,11.4497464 11.7406967,10.9613193 11.2389527,10.443935 L0.591868541,0.301190754 C0.0905803995,-0.216377736 0.0269163636,-0.0499300062 0.0256689588,0.670145757 L2.29782166e-06,14.9845005 C-0.00119676849,15.7053522 0.467038737,15.932432 1.04000173,15.490159 L3.78168123,12.217739 C3.87724299,12.1438668 3.98988305,12.0715788 4.10864258,12 L7.07900942,19.5168621 C7.24412875,19.9268592 7.74262137,20.1120195 8.19190947,19.929965 C8.64097423,19.7493265 8.87107252,19.2695313 8.70554568,18.8604942 L5.73444213,11.3418087 L6.13211402,11.2688979 Z"/>
		<filter id="filter-17" width="220.2%" height="165%" x="-56.2%" y="-22.5%" filterUnits="objectBoundingBox">
			<feMorphology in="SourceAlpha" operator="dilate" radius="1" result="shadowSpreadOuter1"/>
			<feOffset dy="1" in="shadowSpreadOuter1" result="shadowOffsetOuter1"/>
			<feGaussianBlur in="shadowOffsetOuter1" result="shadowBlurOuter1" stdDeviation=".5"/>
			<feComposite in="shadowBlurOuter1" in2="SourceAlpha" operator="out" result="shadowBlurOuter1"/>
			<feColorMatrix in="shadowBlurOuter1" result="shadowMatrixOuter1" values="0 0 0 0 0   0 0 0 0 0   0 0 0 0 0  0 0 0 0.582908741 0"/>
			<feMorphology in="SourceAlpha" operator="dilate" radius="1" result="shadowSpreadOuter2"/>
			<feOffset dy="2" in="shadowSpreadOuter2" result="shadowOffsetOuter2"/>
			<feGaussianBlur in="shadowOffsetOuter2" result="shadowBlurOuter2" stdDeviation="1.5"/>
			<feComposite in="shadowBlurOuter2" in2="SourceAlpha" operator="out" result="shadowBlurOuter2"/>
			<feColorMatrix in="shadowBlurOuter2" result="shadowMatrixOuter2" values="0 0 0 0 0   0 0 0 0 0   0 0 0 0 0  0 0 0 0.179347826 0"/>
			<feMerge>
				<feMergeNode in="shadowMatrixOuter1"/>
				<feMergeNode in="shadowMatrixOuter2"/>
			</feMerge>
		</filter>
		<path id="path-18" d="M17.5954523,12.3787874 C17.5954523,11.7256091 17.0590701,11.1960268 16.3978922,11.1960268 C15.7383142,11.1960268 15.203532,11.7232092 15.2015321,12.3747875 L15.2015321,11.548815 C15.2015321,10.6920436 14.483156,9.99766674 13.5963856,9.99766674 C12.7096151,9.99766674 12.0036387,10.6920436 12.0036387,11.548815 L12.0036387,10.350455 C12.0036387,9.49368354 11.2756629,8.79930669 10.3928923,8.79930669 C9.51012177,8.79930669 8.80654522,9.49408353 8.80654522,10.350455 L8.80654522,1.42515249 C8.80654522,0.637978734 8.1681665,-2.3109992e-14 7.39619224,-2.3109992e-14 C6.62461796,-2.3109992e-14 5.99863882,0.638378721 5.99863882,1.42515249 L5.99863882,16.4630512 L2.39595891,11.8040065 C2.04997044,11.2180261 1.26999644,11.0252325 0.653616989,11.3728209 C0.0372375346,11.7208093 -0.181955159,12.4779841 0.164033308,13.0639645 C0.164033308,13.0639645 2.9811394,17.4326189 4.13110107,19.1573614 C5.28106274,20.8821039 7.16859982,23.009633 7.16859982,24 L15.1579335,24 C15.1579335,22.3280557 17.6014521,19.7165428 17.6014521,17.2018266 L17.6014521,13.9627346 L17.5954523,12.3787874 Z"/>
		<filter id="filter-19" width="173.9%" height="154.2%" x="-36.9%" y="-18.8%" filterUnits="objectBoundingBox">
			<feMorphology in="SourceAlpha" operator="dilate" radius="1" result="shadowSpreadOuter1"/>
			<feOffset dy="1" in="shadowSpreadOuter1" result="shadowOffsetOuter1"/>
			<feGaussianBlur in="shadowOffsetOuter1" result="shadowBlurOuter1" stdDeviation=".5"/>
			<feComposite in="shadowBlurOuter1" in2="SourceAlpha" operator="out" result="shadowBlurOuter1"/>
			<feColorMatrix in="shadowBlurOuter1" result="shadowMatrixOuter1" values="0 0 0 0 0   0 0 0 0 0   0 0 0 0 0  0 0 0 0.582908741 0"/>
			<feMorphology in="SourceAlpha" operator="dilate" radius="1" result="shadowSpreadOuter2"/>
			<feOffset dy="2" in="shadowSpreadOuter2" result="shadowOffsetOuter2"/>
			<feGaussianBlur in="shadowOffsetOuter2" result="shadowBlurOuter2" stdDeviation="1.5"/>
			<feComposite in="shadowBlurOuter2" in2="SourceAlpha" operator="out" result="shadowBlurOuter2"/>
			<feColorMatrix in="shadowBlurOuter2" result="shadowMatrixOuter2" values="0 0 0 0 0   0 0 0 0 0   0 0 0 0 0  0 0 0 0.179347826 0"/>
			<feMerge>
				<feMergeNode in="shadowMatrixOuter1"/>
				<feMergeNode in="shadowMatrixOuter2"/>
			</feMerge>
		</filter>
		<path id="path-20" d="M17.5954523,12.3787874 C17.5954523,11.7256091 17.0590701,11.1960268 16.3978922,11.1960268 C15.7383142,11.1960268 15.203532,11.7232092 15.2015321,12.3747875 L15.2015321,11.548815 C15.2015321,10.6920436 14.483156,9.99766674 13.5963856,9.99766674 C12.7096151,9.99766674 12.0036387,10.6920436 12.0036387,11.548815 L12.0036387,10.350455 C12.0036387,9.49368354 11.2756629,8.79930669 10.3928923,8.79930669 C9.51012177,8.79930669 8.80654522,9.49408353 8.80654522,10.350455 L8.80654522,1.42515249 C8.80654522,0.637978734 8.1681665,-2.3109992e-14 7.39619224,-2.3109992e-14 C6.62461796,-2.3109992e-14 5.99863882,0.638378721 5.99863882,1.42515249 L5.99863882,16.4630512 L2.39595891,11.8040065 C2.04997044,11.2180261 1.26999644,11.0252325 0.653616989,11.3728209 C0.0372375346,11.7208093 -0.181955159,12.4779841 0.164033308,13.0639645 C0.164033308,13.0639645 2.9811394,17.4326189 4.13110107,19.1573614 C5.28106274,20.8821039 7.16859982,23.009633 7.16859982,24 L15.1579335,24 C15.1579335,22.3280557 17.6014521,19.7165428 17.6014521,17.2018266 L17.6014521,13.9627346 L17.5954523,12.3787874 Z"/>
		<filter id="filter-21" width="173.9%" height="154.2%" x="-36.9%" y="-18.8%" filterUnits="objectBoundingBox">
			<feMorphology in="SourceAlpha" operator="dilate" radius="1" result="shadowSpreadOuter1"/>
			<feOffset dy="1" in="shadowSpreadOuter1" result="shadowOffsetOuter1"/>
			<feGaussianBlur in="shadowOffsetOuter1" result="shadowBlurOuter1" stdDeviation=".5"/>
			<feComposite in="shadowBlurOuter1" in2="SourceAlpha" operator="out" result="shadowBlurOuter1"/>
			<feColorMatrix in="shadowBlurOuter1" result="shadowMatrixOuter1" values="0 0 0 0 0   0 0 0 0 0   0 0 0 0 0  0 0 0 0.582908741 0"/>
			<feMorphology in="SourceAlpha" operator="dilate" radius="1" result="shadowSpreadOuter2"/>
			<feOffset dy="2" in="shadowSpreadOuter2" result="shadowOffsetOuter2"/>
			<feGaussianBlur in="shadowOffsetOuter2" result="shadowBlurOuter2" stdDeviation="1.5"/>
			<feComposite in="shadowBlurOuter2" in2="SourceAlpha" operator="out" result="shadowBlurOuter2"/>
			<feColorMatrix in="shadowBlurOuter2" result="shadowMatrixOuter2" values="0 0 0 0 0   0 0 0 0 0   0 0 0 0 0  0 0 0 0.179347826 0"/>
			<feMerge>
				<feMergeNode in="shadowMatrixOuter1"/>
				<feMergeNode in="shadowMatrixOuter2"/>
			</feMerge>
		</filter>
		<path id="path-22" d="M6.13211402,11.2688979 L10.8422354,11.5297995 C11.562075,11.4497464 11.7406967,10.9613193 11.2389527,10.443935 L0.591868541,0.301190754 C0.0905803995,-0.216377736 0.0269163636,-0.0499300062 0.0256689588,0.670145757 L2.29782166e-06,14.9845005 C-0.00119676849,15.7053522 0.467038737,15.932432 1.04000173,15.490159 L3.78168123,12.217739 C3.87724299,12.1438668 3.98988305,12.0715788 4.10864258,12 L7.07900942,19.5168621 C7.24412875,19.9268592 7.74262137,20.1120195 8.19190947,19.929965 C8.64097423,19.7493265 8.87107252,19.2695313 8.70554568,18.8604942 L5.73444213,11.3418087 L6.13211402,11.2688979 Z"/>
		<filter id="filter-23" width="220.2%" height="165%" x="-56.2%" y="-22.5%" filterUnits="objectBoundingBox">
			<feMorphology in="SourceAlpha" operator="dilate" radius="1" result="shadowSpreadOuter1"/>
			<feOffset dy="1" in="shadowSpreadOuter1" result="shadowOffsetOuter1"/>
			<feGaussianBlur in="shadowOffsetOuter1" result="shadowBlurOuter1" stdDeviation=".5"/>
			<feComposite in="shadowBlurOuter1" in2="SourceAlpha" operator="out" result="shadowBlurOuter1"/>
			<feColorMatrix in="shadowBlurOuter1" result="shadowMatrixOuter1" values="0 0 0 0 0   0 0 0 0 0   0 0 0 0 0  0 0 0 0.582908741 0"/>
			<feMorphology in="SourceAlpha" operator="dilate" radius="1" result="shadowSpreadOuter2"/>
			<feOffset dy="2" in="shadowSpreadOuter2" result="shadowOffsetOuter2"/>
			<feGaussianBlur in="shadowOffsetOuter2" result="shadowBlurOuter2" stdDeviation="1.5"/>
			<feComposite in="shadowBlurOuter2" in2="SourceAlpha" operator="out" result="shadowBlurOuter2"/>
			<feColorMatrix in="shadowBlurOuter2" result="shadowMatrixOuter2" values="0 0 0 0 0   0 0 0 0 0   0 0 0 0 0  0 0 0 0.179347826 0"/>
			<feMerge>
				<feMergeNode in="shadowMatrixOuter1"/>
				<feMergeNode in="shadowMatrixOuter2"/>
			</feMerge>
		</filter>
	</defs>
	<g id="Artboard-page" fill="none" fill-rule="evenodd" stroke="none" stroke-width="1">
		<g id="WikimediaUI-components_overview" transform="translate(-6640 -254)">
			<rect width="14720" height="3264" fill="#FFF"/>
			<g id="TOGGLE-SWITCH" transform="translate(6640 143)">
				<g id="Toggle-Switch-X" transform="translate(0 113)">
					<text id="Normal-Hover-Active" fill="#72777D" font-family="Lato-Regular, Lato, sans-serif" font-size="14" font-weight="normal">
						<tspan x="0" y="21">Normal</tspan> <tspan x="0" y="77.1">Hover</tspan> <tspan x="0" y="133.2">Active</tspan> <tspan x="0" y="189.3">Focus</tspan> <tspan x="0" y="245.4">Disabled</tspan>
					</text>
					<g id="Toggle-switch-/-:on-/-:disabled" transform="translate(400 228)">
						<rect id="Mediawiki.Neutral.Hover-copy-34" width="59" height="31" x=".5" y=".5" fill="#C8CCD1" stroke="#C8CCD1" stroke-width="1" rx="15.5"/>
						<path id="Oval-45-Copy-18" fill="#FFF" d="M43,26 C48.5228475,26 53,21.5228475 53,16 C53,10.4771525 48.5228475,6 43,6 C37.4771525,6 33,10.4771525 33,16 C33,21.5228475 37.4771525,26 43,26 Z"/>
					</g>
					<g id="Toggle-switch-/-:on-/-:focus" transform="translate(400 168)">
						<g id="Mediawiki.Neutral.Hover-copy-20">
							<rect width="59" height="34" x="1.5" y="1" fill="#36C" stroke="#FFF" stroke-linejoin="square" stroke-width="2" rx="17"/>
							<rect width="62" height="37" y="-.5" stroke="#36C" rx="18.5"/>
							<rect width="60" height="35" x="1" y=".5" stroke="#36C" stroke-linejoin="square" rx="17.5"/>
						</g>
						<g id="Oval-45-Copy-4">
							<use fill="#000" filter="url(#filter-3)" xlink:href="#path-2"/>
							<circle cx="43.5" cy="18" r="9.5" fill="#FFF" stroke="#FFF" stroke-linejoin="square"/>
						</g>
					</g>
					<g id="Toggle-switch-/-:on-/-:active" transform="translate(400 112)">
						<rect id="Mediawiki.Neutral.Hover-copy-23" width="59" height="31" x=".5" y=".5" fill="#2A4B8D" fill-rule="evenodd" stroke="#2A4B8D" stroke-width="1" rx="15.5"/>
						<g id="Oval-45-Copy-7">
							<use fill="#000" filter="url(#filter-5)" xlink:href="#path-4"/>
							<circle cx="44" cy="16" r="9.5" fill="#FFF" stroke="#FFF" stroke-linejoin="square"/>
						</g>
					</g>
					<g id="Toggle-switch-/-:on-/-:hover" transform="translate(400 56)">
						<rect id="Mediawiki.Neutral.Hover-copy-21" width="59" height="31" x=".5" y=".5" fill="#447FF5" fill-rule="evenodd" stroke="#447FF5" stroke-width="1" rx="15.5"/>
						<g id="Oval-45-Copy-5">
							<use fill="#000" filter="url(#filter-7)" xlink:href="#path-6"/>
							<path fill="#FFF" stroke="#FFF" stroke-linejoin="square" d="M43,25.5 C48.2467051,25.5 52.5,21.2467051 52.5,16 C52.5,10.7532949 48.2467051,6.5 43,6.5 C37.7532949,6.5 33.5,10.7532949 33.5,16 C33.5,21.2467051 37.7532949,25.5 43,25.5 Z"/>
						</g>
					</g>
					<g id="Toggle-switch-/-:on-/-!default" transform="translate(400)">
						<rect id="Mediawiki.Neutral.Hover-copy-33" width="59" height="31" x=".5" y=".5" fill="#36C" fill-rule="evenodd" stroke="#36C" stroke-width="1" rx="15.5"/>
						<g id="Oval-45-Copy-17">
							<use fill="#000" filter="url(#filter-9)" xlink:href="#path-8"/>
							<circle cx="43" cy="16" r="9.5" fill="#FFF" stroke="#FFF" stroke-linejoin="square"/>
						</g>
					</g>
					<line id="Line-Copy-17" x1="483.5" x2="483.5" y1="306.5" y2="608.5" stroke="#50E3C2" stroke-dasharray="1 3" stroke-linecap="square"/>
					<g id="Toggle-switch-/-:disabled" transform="translate(192 227)">
						<path id="Mediawiki.Neutral.Hover-copy-30" fill="#C8CCD1" fill-rule="evenodd" stroke="#C8CCD1" d="M16.000081,0.5 C7.43894158,0.5 0.5,7.43832445 0.5,16 C0.5,24.5606034 7.43926884,31.5 16.000081,31.5 L43.999919,31.5 C52.5610584,31.5 59.5,24.5616756 59.5,16 C59.5,7.43939657 52.5607312,0.5 43.999919,0.5 L16.000081,0.5 Z"/>
						<circle id="Oval-45-Copy-15" cx="17" cy="16" r="9.5" stroke="#FFF"/>
					</g>
					<g id="Toggle-switch-/-:active" transform="translate(193 113)">
						<g id="Mediawiki.Neutral.Hover-copy-31">
							<use fill="#2A4B8D" xlink:href="#path-10"/>
							<rect width="61" height="33" x="-.5" y="-.5" stroke="#2A4B8D" rx="16.5"/>
							<rect width="59" height="31" x=".5" y=".5" stroke="#2A4B8D" stroke-linejoin="square" rx="15.5"/>
						</g>
						<path id="Oval-45-Copy-16" fill="#FFF" fill-rule="evenodd" stroke="#36C" stroke-width="1" d="M17,25.5 C22.2467051,25.5 26.5,21.2467051 26.5,16 C26.5,10.7532949 22.2467051,6.5 17,6.5 C11.7532949,6.5 7.5,10.7532949 7.5,16 C7.5,21.2467051 11.7532949,25.5 17,25.5 Z"/>
					</g>
					<g id="Toggle-switch-/-:focus" stroke="#36C" transform="translate(192 168)">
						<g id="Mediawiki.Neutral.Hover-copy-35">
							<rect width="59" height="31" x=".5" y=".5" stroke-linejoin="square" rx="15.5"/>
							<rect width="61" height="33" x="-.5" y="-.5" rx="16"/>
						</g>
						<circle id="Oval-45-Copy-19" cx="17" cy="16" r="9.5"/>
					</g>
					<g id="Toggle-switch-/-:hover" stroke="#36C" transform="translate(192 56)">
						<path id="Mediawiki.Neutral.Hover-copy-29" d="M16.000081,-0.5 L43.999919,-0.5 C53.11302,-0.5 60.5,6.88711595 60.5,16 C60.5,25.1139802 53.1133233,32.5 43.999919,32.5 L16.000081,32.5 C6.88697997,32.5 -0.5,25.1128841 -0.5,16 C-0.5,6.88601978 6.88667674,-0.5 16.000081,-0.5 Z"/>
						<path id="Oval-45-Copy-14" d="M17,25.5 C22.2467051,25.5 26.5,21.2467051 26.5,16 C26.5,10.7532949 22.2467051,6.5 17,6.5 C11.7532949,6.5 7.5,10.7532949 7.5,16 C7.5,21.2467051 11.7532949,25.5 17,25.5 Z"/>
					</g>
					<g id="Toggle-switch-/-!default" fill="#FFF" stroke="#72777D" transform="translate(192)">
						<path id="Mediawiki.Neutral.Hover-copy-28" d="M16.000081,-0.5 L43.999919,-0.5 C53.11302,-0.5 60.5,6.88711595 60.5,16 C60.5,25.1139802 53.1133233,32.5 43.999919,32.5 L16.000081,32.5 C6.88697997,32.5 -0.5,25.1128841 -0.5,16 C-0.5,6.88601978 6.88667674,-0.5 16.000081,-0.5 Z"/>
						<circle id="Oval-45-Copy-13" cx="17" cy="16" r="10.5"/>
					</g>
					<g id="Cursor-/-Pointer" transform="translate(406 130)">
						<g id="Cursor-Pointer">
							<use fill="#000" filter="url(#filter-13)" xlink:href="#path-12"/>
							<path fill="#FFF" stroke="#000" d="M5.49863882,14.9990679 L5.49863882,1.42515249 C5.49863882,0.364390213 6.34627404,-0.5 7.39619224,-0.5 C8.4475222,-0.5 9.30654522,0.365060667 9.30654522,1.42515249 L9.30654522,8.59739976 C9.62275187,8.40813447 9.99458465,8.29930669 10.3928923,8.29930669 C11.3696842,8.29930669 12.2017759,8.95226109 12.4371411,9.83891321 C12.7687636,9.62309774 13.1672561,9.49766674 13.5963856,9.49766674 C14.5229268,9.49766674 15.3133259,10.0818718 15.5931989,10.8969793 C15.8327664,10.7687518 16.10688,10.6960268 16.3978922,10.6960268 C17.3338791,10.6960268 18.0954523,11.4481132 18.0954523,12.3787874 L18.0954487,12.3768934 L18.1014521,13.9627346 L18.1014521,17.2018266 C18.1014521,17.45899 18.0788416,17.7210344 18.0348962,17.9890448 C17.8804952,18.9306924 17.5230199,19.8003644 16.8234169,21.1474064 C15.8127426,23.093397 15.6579335,23.4442918 15.6579335,24 L15.6579335,24.5 L6.66859982,24.5 L6.66859982,24 C6.66859982,23.5786103 6.19563371,22.8309976 4.81529743,20.9702918 C4.77572637,20.916944 4.77572637,20.916944 4.73613542,20.8635322 C4.25954481,20.2204113 3.97897576,19.8305154 3.71509077,19.4347338 C3.32594411,18.8510815 2.72477886,17.9332706 1.96848974,16.7703263 C1.95455156,16.7488931 1.95455156,16.7488931 1.94061413,16.727459 C1.45803808,15.9852984 0.942759518,15.1902097 0.428630429,14.3951327 C0.248691135,14.1168648 0.137397398,13.944607 -0.0679723281,13.6265707 C-0.221942375,13.3880215 -0.221942375,13.3880215 -0.266517693,13.3181807 C-0.757186346,12.4871638 -0.448495824,11.4208575 0.408016869,10.9372976 C1.25796465,10.4579954 2.33990048,10.7256484 2.79149833,11.4981494 L5.49863882,14.9990679 Z"/>
						</g>
					</g>
					<g id="Cursor-/-Pointer" transform="translate(406 72)">
						<g id="Cursor-Pointer">
							<use fill="#000" filter="url(#filter-15)" xlink:href="#path-14"/>
							<path fill="#FFF" stroke="#000" d="M5.49863882,14.9990679 L5.49863882,1.42515249 C5.49863882,0.364390213 6.34627404,-0.5 7.39619224,-0.5 C8.4475222,-0.5 9.30654522,0.365060667 9.30654522,1.42515249 L9.30654522,8.59739976 C9.62275187,8.40813447 9.99458465,8.29930669 10.3928923,8.29930669 C11.3696842,8.29930669 12.2017759,8.95226109 12.4371411,9.83891321 C12.7687636,9.62309774 13.1672561,9.49766674 13.5963856,9.49766674 C14.5229268,9.49766674 15.3133259,10.0818718 15.5931989,10.8969793 C15.8327664,10.7687518 16.10688,10.6960268 16.3978922,10.6960268 C17.3338791,10.6960268 18.0954523,11.4481132 18.0954523,12.3787874 L18.0954487,12.3768934 L18.1014521,13.9627346 L18.1014521,17.2018266 C18.1014521,17.45899 18.0788416,17.7210344 18.0348962,17.9890448 C17.8804952,18.9306924 17.5230199,19.8003644 16.8234169,21.1474064 C15.8127426,23.093397 15.6579335,23.4442918 15.6579335,24 L15.6579335,24.5 L6.66859982,24.5 L6.66859982,24 C6.66859982,23.5786103 6.19563371,22.8309976 4.81529743,20.9702918 C4.77572637,20.916944 4.77572637,20.916944 4.73613542,20.8635322 C4.25954481,20.2204113 3.97897576,19.8305154 3.71509077,19.4347338 C3.32594411,18.8510815 2.72477886,17.9332706 1.96848974,16.7703263 C1.95455156,16.7488931 1.95455156,16.7488931 1.94061413,16.727459 C1.45803808,15.9852984 0.942759518,15.1902097 0.428630429,14.3951327 C0.248691135,14.1168648 0.137397398,13.944607 -0.0679723281,13.6265707 C-0.221942375,13.3880215 -0.221942375,13.3880215 -0.266517693,13.3181807 C-0.757186346,12.4871638 -0.448495824,11.4208575 0.408016869,10.9372976 C1.25796465,10.4579954 2.33990048,10.7256484 2.79149833,11.4981494 L5.49863882,14.9990679 Z"/>
						</g>
					</g>
					<g id="Cursor-/-!default" transform="translate(446 256)">
						<g id="Cursor">
							<use fill="#000" filter="url(#filter-17)" xlink:href="#path-16"/>
							<path fill="#000" stroke="#FFF" d="M6.44805157,11.7871647 L9.16903318,18.6729326 C9.44237709,19.3483989 9.07500287,20.1136726 8.37968284,20.3933668 C7.68317947,20.6755944 6.8877013,20.3802565 6.61399912,19.7006158 L3.90605662,12.8478493 L1.42326646,15.8112636 L1.34552169,15.8859589 C0.444640548,16.5813536 -0.501889691,16.1215055 -0.499996898,14.983604 L-0.474330291,0.669279596 C-0.473259969,0.051426302 -0.447188468,-0.15148568 -0.202577288,-0.35941243 C0.196479729,-0.698622715 0.490703685,-0.521940513 0.936743625,-0.0608329699 L11.5978897,10.0958485 C12.390083,10.912736 12.0289467,11.9009082 10.8145819,12.0290342 L6.44805157,11.7871647 Z"/>
						</g>
					</g>
					<g id="Cursor-/-Pointer" transform="translate(238 129)">
						<g id="Cursor-Pointer">
							<use fill="#000" filter="url(#filter-19)" xlink:href="#path-18"/>
							<path fill="#FFF" stroke="#000" d="M5.49863882,14.9990679 L5.49863882,1.42515249 C5.49863882,0.364390213 6.34627404,-0.5 7.39619224,-0.5 C8.4475222,-0.5 9.30654522,0.365060667 9.30654522,1.42515249 L9.30654522,8.59739976 C9.62275187,8.40813447 9.99458465,8.29930669 10.3928923,8.29930669 C11.3696842,8.29930669 12.2017759,8.95226109 12.4371411,9.83891321 C12.7687636,9.62309774 13.1672561,9.49766674 13.5963856,9.49766674 C14.5229268,9.49766674 15.3133259,10.0818718 15.5931989,10.8969793 C15.8327664,10.7687518 16.10688,10.6960268 16.3978922,10.6960268 C17.3338791,10.6960268 18.0954523,11.4481132 18.0954523,12.3787874 L18.0954487,12.3768934 L18.1014521,13.9627346 L18.1014521,17.2018266 C18.1014521,17.45899 18.0788416,17.7210344 18.0348962,17.9890448 C17.8804952,18.9306924 17.5230199,19.8003644 16.8234169,21.1474064 C15.8127426,23.093397 15.6579335,23.4442918 15.6579335,24 L15.6579335,24.5 L6.66859982,24.5 L6.66859982,24 C6.66859982,23.5786103 6.19563371,22.8309976 4.81529743,20.9702918 C4.77572637,20.916944 4.77572637,20.916944 4.73613542,20.8635322 C4.25954481,20.2204113 3.97897576,19.8305154 3.71509077,19.4347338 C3.32594411,18.8510815 2.72477886,17.9332706 1.96848974,16.7703263 C1.95455156,16.7488931 1.95455156,16.7488931 1.94061413,16.727459 C1.45803808,15.9852984 0.942759518,15.1902097 0.428630429,14.3951327 C0.248691135,14.1168648 0.137397398,13.944607 -0.0679723281,13.6265707 C-0.221942375,13.3880215 -0.221942375,13.3880215 -0.266517693,13.3181807 C-0.757186346,12.4871638 -0.448495824,11.4208575 0.408016869,10.9372976 C1.25796465,10.4579954 2.33990048,10.7256484 2.79149833,11.4981494 L5.49863882,14.9990679 Z"/>
						</g>
					</g>
					<g id="Cursor-/-Pointer" transform="translate(238 72)">
						<g id="Cursor-Pointer">
							<use fill="#000" filter="url(#filter-21)" xlink:href="#path-20"/>
							<path fill="#FFF" stroke="#000" d="M5.49863882,14.9990679 L5.49863882,1.42515249 C5.49863882,0.364390213 6.34627404,-0.5 7.39619224,-0.5 C8.4475222,-0.5 9.30654522,0.365060667 9.30654522,1.42515249 L9.30654522,8.59739976 C9.62275187,8.40813447 9.99458465,8.29930669 10.3928923,8.29930669 C11.3696842,8.29930669 12.2017759,8.95226109 12.4371411,9.83891321 C12.7687636,9.62309774 13.1672561,9.49766674 13.5963856,9.49766674 C14.5229268,9.49766674 15.3133259,10.0818718 15.5931989,10.8969793 C15.8327664,10.7687518 16.10688,10.6960268 16.3978922,10.6960268 C17.3338791,10.6960268 18.0954523,11.4481132 18.0954523,12.3787874 L18.0954487,12.3768934 L18.1014521,13.9627346 L18.1014521,17.2018266 C18.1014521,17.45899 18.0788416,17.7210344 18.0348962,17.9890448 C17.8804952,18.9306924 17.5230199,19.8003644 16.8234169,21.1474064 C15.8127426,23.093397 15.6579335,23.4442918 15.6579335,24 L15.6579335,24.5 L6.66859982,24.5 L6.66859982,24 C6.66859982,23.5786103 6.19563371,22.8309976 4.81529743,20.9702918 C4.77572637,20.916944 4.77572637,20.916944 4.73613542,20.8635322 C4.25954481,20.2204113 3.97897576,19.8305154 3.71509077,19.4347338 C3.32594411,18.8510815 2.72477886,17.9332706 1.96848974,16.7703263 C1.95455156,16.7488931 1.95455156,16.7488931 1.94061413,16.727459 C1.45803808,15.9852984 0.942759518,15.1902097 0.428630429,14.3951327 C0.248691135,14.1168648 0.137397398,13.944607 -0.0679723281,13.6265707 C-0.221942375,13.3880215 -0.221942375,13.3880215 -0.266517693,13.3181807 C-0.757186346,12.4871638 -0.448495824,11.4208575 0.408016869,10.9372976 C1.25796465,10.4579954 2.33990048,10.7256484 2.79149833,11.4981494 L5.49863882,14.9990679 Z"/>
						</g>
					</g>
					<g id="Cursor-/-!default" transform="translate(244 253)">
						<g id="Cursor">
							<use fill="#000" filter="url(#filter-23)" xlink:href="#path-22"/>
							<path fill="#000" stroke="#FFF" d="M6.44805157,11.7871647 L9.16903318,18.6729326 C9.44237709,19.3483989 9.07500287,20.1136726 8.37968284,20.3933668 C7.68317947,20.6755944 6.8877013,20.3802565 6.61399912,19.7006158 L3.90605662,12.8478493 L1.42326646,15.8112636 L1.34552169,15.8859589 C0.444640548,16.5813536 -0.501889691,16.1215055 -0.499996898,14.983604 L-0.474330291,0.669279596 C-0.473259969,0.051426302 -0.447188468,-0.15148568 -0.202577288,-0.35941243 C0.196479729,-0.698622715 0.490703685,-0.521940513 0.936743625,-0.0608329699 L11.5978897,10.0958485 C12.390083,10.912736 12.0289467,11.9009082 10.8145819,12.0290342 L6.44805157,11.7871647 Z"/>
						</g>
					</g>
				</g>
				<text id="Switched-on" fill="#72777D" font-family="Lato-Regular, Lato, sans-serif" font-size="14" font-weight="normal">
					<tspan x="393" y="417">Switched on</tspan>
				</text>
			</g>
		</g>
	</g>
</svg>
