<?xml version="1.0" encoding="UTF-8" standalone="no"?>
<svg width="617px" height="620px" viewBox="0 0 617 620" version="1.1" xmlns="http://www.w3.org/2000/svg" xmlns:xlink="http://www.w3.org/1999/xlink">
    <defs>
        <rect id="path-1" x="0" y="0" width="60" height="32" rx="16"></rect>
        <circle id="path-2" cx="17" cy="16" r="10"></circle>
        <rect id="path-3" x="0.5" y="0" width="61" height="36" rx="18"></rect>
        <circle id="path-4" cx="43.5" cy="18" r="10"></circle>
        <filter x="-2.5%" y="-2.5%" width="105.0%" height="110.0%" filterUnits="objectBoundingBox" id="filter-5">
            <feOffset dx="0" dy="1" in="SourceAlpha" result="shadowOffsetOuter1"></feOffset>
            <feComposite in="shadowOffsetOuter1" in2="SourceAlpha" operator="out" result="shadowOffsetOuter1"></feComposite>
            <feColorMatrix values="0 0 0 0 0   0 0 0 0 0   0 0 0 0 0  0 0 0 0.1 0" type="matrix" in="shadowOffsetOuter1"></feColorMatrix>
        </filter>
        <rect id="path-6" x="0" y="0" width="60" height="32" rx="16"></rect>
        <circle id="path-7" cx="43" cy="16" r="10"></circle>
        <filter x="-2.5%" y="-2.5%" width="105.0%" height="110.0%" filterUnits="objectBoundingBox" id="filter-8">
            <feOffset dx="0" dy="1" in="SourceAlpha" result="shadowOffsetOuter1"></feOffset>
            <feComposite in="shadowOffsetOuter1" in2="SourceAlpha" operator="out" result="shadowOffsetOuter1"></feComposite>
            <feColorMatrix values="0 0 0 0 0   0 0 0 0 0   0 0 0 0 0  0 0 0 0.1 0" type="matrix" in="shadowOffsetOuter1"></feColorMatrix>
        </filter>
        <rect id="path-9" x="0" y="0" width="60" height="32" rx="16"></rect>
        <path d="M43,26 C48.5228475,26 53,21.5228475 53,16 C53,10.4771525 48.5228475,6 43,6 C37.4771525,6 33,10.4771525 33,16 C33,21.5228475 37.4771525,26 43,26 Z" id="path-10"></path>
        <filter x="-2.5%" y="-2.5%" width="105.0%" height="110.0%" filterUnits="objectBoundingBox" id="filter-11">
            <feOffset dx="0" dy="1" in="SourceAlpha" result="shadowOffsetOuter1"></feOffset>
            <feComposite in="shadowOffsetOuter1" in2="SourceAlpha" operator="out" result="shadowOffsetOuter1"></feComposite>
            <feColorMatrix values="0 0 0 0 0   0 0 0 0 0   0 0 0 0 0  0 0 0 0.1 0" type="matrix" in="shadowOffsetOuter1"></feColorMatrix>
        </filter>
        <rect id="path-12" x="0" y="0" width="60" height="32" rx="16"></rect>
        <circle id="path-13" cx="44" cy="16" r="10"></circle>
        <filter x="-2.5%" y="-2.5%" width="105.0%" height="110.0%" filterUnits="objectBoundingBox" id="filter-14">
            <feOffset dx="0" dy="1" in="SourceAlpha" result="shadowOffsetOuter1"></feOffset>
            <feComposite in="shadowOffsetOuter1" in2="SourceAlpha" operator="out" result="shadowOffsetOuter1"></feComposite>
            <feColorMatrix values="0 0 0 0 0   0 0 0 0 0   0 0 0 0 0  0 0 0 0.1 0" type="matrix" in="shadowOffsetOuter1"></feColorMatrix>
        </filter>
        <rect id="path-15" x="0" y="0" width="60" height="32" rx="16"></rect>
        <circle id="path-16" cx="17" cy="16" r="10"></circle>
        <rect id="path-17" x="0" y="0" width="60" height="32" rx="16"></rect>
        <rect id="path-18" x="0" y="0" width="60" height="32" rx="16"></rect>
        <rect id="path-19" x="0" y="0" width="60" height="32" rx="16"></rect>
        <path d="M17,26 C22.5228475,26 27,21.5228475 27,16 C27,10.4771525 22.5228475,6 17,6 C11.4771525,6 7,10.4771525 7,16 C7,21.5228475 11.4771525,26 17,26 Z" id="path-20"></path>
        <rect id="path-21" x="0" y="0" width="60" height="32" rx="16"></rect>
        <rect id="path-22" x="0" y="0" width="60" height="32" rx="16"></rect>
        <circle id="path-23" cx="17" cy="16" r="10"></circle>
        <path d="M17.5954523,12.3787874 C17.5954523,11.7256091 17.0590701,11.1960268 16.3978922,11.1960268 C15.7383142,11.1960268 15.203532,11.7232092 15.2015321,12.3747875 L15.2015321,11.548815 C15.2015321,10.6920436 14.483156,9.99766674 13.5963856,9.99766674 C12.7096151,9.99766674 12.0036387,10.6920436 12.0036387,11.548815 L12.0036387,10.350455 C12.0036387,9.49368354 11.2756629,8.79930669 10.3928923,8.79930669 C9.51012177,8.79930669 8.80654522,9.49408353 8.80654522,10.350455 L8.80654522,1.42515249 C8.80654522,0.637978734 8.1681665,-2.30926389e-14 7.39619224,-2.30926389e-14 C6.62461796,-2.30926389e-14 5.99863882,0.638378721 5.99863882,1.42515249 L5.99863882,16.4630512 L2.39595891,11.8040065 C2.04997044,11.2180261 1.26999644,11.0252325 0.653616989,11.3728209 C0.0372375346,11.7208093 -0.181955159,12.4779841 0.164033308,13.0639645 C0.164033308,13.0639645 2.9811394,17.4326189 4.13110107,19.1573614 C5.28106274,20.8821039 7.16859982,23.009633 7.16859982,24 L15.1579335,24 C15.1579335,22.3280557 17.6014521,19.7165428 17.6014521,17.2018266 L17.6014521,13.9627346 L17.5954523,12.3787874 Z" id="path-24"></path>
        <filter x="-42.6%" y="-18.8%" width="185.2%" height="162.5%" filterUnits="objectBoundingBox" id="filter-25">
            <feMorphology radius="1" operator="dilate" in="SourceAlpha" result="shadowSpreadOuter1"></feMorphology>
            <feOffset dx="0" dy="1" in="shadowSpreadOuter1" result="shadowOffsetOuter1"></feOffset>
            <feGaussianBlur stdDeviation="0.5" in="shadowOffsetOuter1" result="shadowBlurOuter1"></feGaussianBlur>
            <feComposite in="shadowBlurOuter1" in2="SourceAlpha" operator="out" result="shadowBlurOuter1"></feComposite>
            <feColorMatrix values="0 0 0 0 0   0 0 0 0 0   0 0 0 0 0  0 0 0 0.582908741 0" type="matrix" in="shadowBlurOuter1" result="shadowMatrixOuter1"></feColorMatrix>
            <feMorphology radius="1" operator="dilate" in="SourceAlpha" result="shadowSpreadOuter2"></feMorphology>
            <feOffset dx="0" dy="2" in="shadowSpreadOuter2" result="shadowOffsetOuter2"></feOffset>
            <feGaussianBlur stdDeviation="1.5" in="shadowOffsetOuter2" result="shadowBlurOuter2"></feGaussianBlur>
            <feComposite in="shadowBlurOuter2" in2="SourceAlpha" operator="out" result="shadowBlurOuter2"></feComposite>
            <feColorMatrix values="0 0 0 0 0   0 0 0 0 0   0 0 0 0 0  0 0 0 0.179347826 0" type="matrix" in="shadowBlurOuter2" result="shadowMatrixOuter2"></feColorMatrix>
            <feMerge>
                <feMergeNode in="shadowMatrixOuter1"></feMergeNode>
                <feMergeNode in="shadowMatrixOuter2"></feMergeNode>
            </feMerge>
        </filter>
        <path d="M17.5954523,12.3787874 C17.5954523,11.7256091 17.0590701,11.1960268 16.3978922,11.1960268 C15.7383142,11.1960268 15.203532,11.7232092 15.2015321,12.3747875 L15.2015321,11.548815 C15.2015321,10.6920436 14.483156,9.99766674 13.5963856,9.99766674 C12.7096151,9.99766674 12.0036387,10.6920436 12.0036387,11.548815 L12.0036387,10.350455 C12.0036387,9.49368354 11.2756629,8.79930669 10.3928923,8.79930669 C9.51012177,8.79930669 8.80654522,9.49408353 8.80654522,10.350455 L8.80654522,1.42515249 C8.80654522,0.637978734 8.1681665,-2.30926389e-14 7.39619224,-2.30926389e-14 C6.62461796,-2.30926389e-14 5.99863882,0.638378721 5.99863882,1.42515249 L5.99863882,16.4630512 L2.39595891,11.8040065 C2.04997044,11.2180261 1.26999644,11.0252325 0.653616989,11.3728209 C0.0372375346,11.7208093 -0.181955159,12.4779841 0.164033308,13.0639645 C0.164033308,13.0639645 2.9811394,17.4326189 4.13110107,19.1573614 C5.28106274,20.8821039 7.16859982,23.009633 7.16859982,24 L15.1579335,24 C15.1579335,22.3280557 17.6014521,19.7165428 17.6014521,17.2018266 L17.6014521,13.9627346 L17.5954523,12.3787874 Z" id="path-26"></path>
        <filter x="-42.6%" y="-18.8%" width="185.2%" height="162.5%" filterUnits="objectBoundingBox" id="filter-27">
            <feMorphology radius="1" operator="dilate" in="SourceAlpha" result="shadowSpreadOuter1"></feMorphology>
            <feOffset dx="0" dy="1" in="shadowSpreadOuter1" result="shadowOffsetOuter1"></feOffset>
            <feGaussianBlur stdDeviation="0.5" in="shadowOffsetOuter1" result="shadowBlurOuter1"></feGaussianBlur>
            <feComposite in="shadowBlurOuter1" in2="SourceAlpha" operator="out" result="shadowBlurOuter1"></feComposite>
            <feColorMatrix values="0 0 0 0 0   0 0 0 0 0   0 0 0 0 0  0 0 0 0.582908741 0" type="matrix" in="shadowBlurOuter1" result="shadowMatrixOuter1"></feColorMatrix>
            <feMorphology radius="1" operator="dilate" in="SourceAlpha" result="shadowSpreadOuter2"></feMorphology>
            <feOffset dx="0" dy="2" in="shadowSpreadOuter2" result="shadowOffsetOuter2"></feOffset>
            <feGaussianBlur stdDeviation="1.5" in="shadowOffsetOuter2" result="shadowBlurOuter2"></feGaussianBlur>
            <feComposite in="shadowBlurOuter2" in2="SourceAlpha" operator="out" result="shadowBlurOuter2"></feComposite>
            <feColorMatrix values="0 0 0 0 0   0 0 0 0 0   0 0 0 0 0  0 0 0 0.179347826 0" type="matrix" in="shadowBlurOuter2" result="shadowMatrixOuter2"></feColorMatrix>
            <feMerge>
                <feMergeNode in="shadowMatrixOuter1"></feMergeNode>
                <feMergeNode in="shadowMatrixOuter2"></feMergeNode>
            </feMerge>
        </filter>
        <path d="M6.13211402,11.2688979 L10.8422354,11.5297995 C11.562075,11.4497464 11.7406967,10.9613193 11.2389527,10.443935 L0.591868541,0.301190754 C0.0905803995,-0.216377736 0.0269163636,-0.0499300062 0.0256689588,0.670145757 L2.29782166e-06,14.9845005 C-0.00119676849,15.7053522 0.467038737,15.932432 1.04000173,15.490159 L3.78168123,12.217739 C3.87724299,12.1438668 3.98988305,12.0715788 4.10864258,12 L7.07900942,19.5168621 C7.24412875,19.9268592 7.74262137,20.1120195 8.19190947,19.929965 C8.64097423,19.7493265 8.87107252,19.2695313 8.70554568,18.8604942 L5.73444213,11.3418087 L6.13211402,11.2688979 Z" id="path-28"></path>
        <filter x="-65.1%" y="-22.5%" width="230.2%" height="175.0%" filterUnits="objectBoundingBox" id="filter-29">
            <feMorphology radius="1" operator="dilate" in="SourceAlpha" result="shadowSpreadOuter1"></feMorphology>
            <feOffset dx="0" dy="1" in="shadowSpreadOuter1" result="shadowOffsetOuter1"></feOffset>
            <feGaussianBlur stdDeviation="0.5" in="shadowOffsetOuter1" result="shadowBlurOuter1"></feGaussianBlur>
            <feComposite in="shadowBlurOuter1" in2="SourceAlpha" operator="out" result="shadowBlurOuter1"></feComposite>
            <feColorMatrix values="0 0 0 0 0   0 0 0 0 0   0 0 0 0 0  0 0 0 0.582908741 0" type="matrix" in="shadowBlurOuter1" result="shadowMatrixOuter1"></feColorMatrix>
            <feMorphology radius="1" operator="dilate" in="SourceAlpha" result="shadowSpreadOuter2"></feMorphology>
            <feOffset dx="0" dy="2" in="shadowSpreadOuter2" result="shadowOffsetOuter2"></feOffset>
            <feGaussianBlur stdDeviation="1.5" in="shadowOffsetOuter2" result="shadowBlurOuter2"></feGaussianBlur>
            <feComposite in="shadowBlurOuter2" in2="SourceAlpha" operator="out" result="shadowBlurOuter2"></feComposite>
            <feColorMatrix values="0 0 0 0 0   0 0 0 0 0   0 0 0 0 0  0 0 0 0.179347826 0" type="matrix" in="shadowBlurOuter2" result="shadowMatrixOuter2"></feColorMatrix>
            <feMerge>
                <feMergeNode in="shadowMatrixOuter1"></feMergeNode>
                <feMergeNode in="shadowMatrixOuter2"></feMergeNode>
            </feMerge>
        </filter>
        <path d="M17.5954523,12.3787874 C17.5954523,11.7256091 17.0590701,11.1960268 16.3978922,11.1960268 C15.7383142,11.1960268 15.203532,11.7232092 15.2015321,12.3747875 L15.2015321,11.548815 C15.2015321,10.6920436 14.483156,9.99766674 13.5963856,9.99766674 C12.7096151,9.99766674 12.0036387,10.6920436 12.0036387,11.548815 L12.0036387,10.350455 C12.0036387,9.49368354 11.2756629,8.79930669 10.3928923,8.79930669 C9.51012177,8.79930669 8.80654522,9.49408353 8.80654522,10.350455 L8.80654522,1.42515249 C8.80654522,0.637978734 8.1681665,-2.30926389e-14 7.39619224,-2.30926389e-14 C6.62461796,-2.30926389e-14 5.99863882,0.638378721 5.99863882,1.42515249 L5.99863882,16.4630512 L2.39595891,11.8040065 C2.04997044,11.2180261 1.26999644,11.0252325 0.653616989,11.3728209 C0.0372375346,11.7208093 -0.181955159,12.4779841 0.164033308,13.0639645 C0.164033308,13.0639645 2.9811394,17.4326189 4.13110107,19.1573614 C5.28106274,20.8821039 7.16859982,23.009633 7.16859982,24 L15.1579335,24 C15.1579335,22.3280557 17.6014521,19.7165428 17.6014521,17.2018266 L17.6014521,13.9627346 L17.5954523,12.3787874 Z" id="path-30"></path>
        <filter x="-42.6%" y="-18.8%" width="185.2%" height="162.5%" filterUnits="objectBoundingBox" id="filter-31">
            <feMorphology radius="1" operator="dilate" in="SourceAlpha" result="shadowSpreadOuter1"></feMorphology>
            <feOffset dx="0" dy="1" in="shadowSpreadOuter1" result="shadowOffsetOuter1"></feOffset>
            <feGaussianBlur stdDeviation="0.5" in="shadowOffsetOuter1" result="shadowBlurOuter1"></feGaussianBlur>
            <feComposite in="shadowBlurOuter1" in2="SourceAlpha" operator="out" result="shadowBlurOuter1"></feComposite>
            <feColorMatrix values="0 0 0 0 0   0 0 0 0 0   0 0 0 0 0  0 0 0 0.582908741 0" type="matrix" in="shadowBlurOuter1" result="shadowMatrixOuter1"></feColorMatrix>
            <feMorphology radius="1" operator="dilate" in="SourceAlpha" result="shadowSpreadOuter2"></feMorphology>
            <feOffset dx="0" dy="2" in="shadowSpreadOuter2" result="shadowOffsetOuter2"></feOffset>
            <feGaussianBlur stdDeviation="1.5" in="shadowOffsetOuter2" result="shadowBlurOuter2"></feGaussianBlur>
            <feComposite in="shadowBlurOuter2" in2="SourceAlpha" operator="out" result="shadowBlurOuter2"></feComposite>
            <feColorMatrix values="0 0 0 0 0   0 0 0 0 0   0 0 0 0 0  0 0 0 0.179347826 0" type="matrix" in="shadowBlurOuter2" result="shadowMatrixOuter2"></feColorMatrix>
            <feMerge>
                <feMergeNode in="shadowMatrixOuter1"></feMergeNode>
                <feMergeNode in="shadowMatrixOuter2"></feMergeNode>
            </feMerge>
        </filter>
        <path d="M17.5954523,12.3787874 C17.5954523,11.7256091 17.0590701,11.1960268 16.3978922,11.1960268 C15.7383142,11.1960268 15.203532,11.7232092 15.2015321,12.3747875 L15.2015321,11.548815 C15.2015321,10.6920436 14.483156,9.99766674 13.5963856,9.99766674 C12.7096151,9.99766674 12.0036387,10.6920436 12.0036387,11.548815 L12.0036387,10.350455 C12.0036387,9.49368354 11.2756629,8.79930669 10.3928923,8.79930669 C9.51012177,8.79930669 8.80654522,9.49408353 8.80654522,10.350455 L8.80654522,1.42515249 C8.80654522,0.637978734 8.1681665,-2.30926389e-14 7.39619224,-2.30926389e-14 C6.62461796,-2.30926389e-14 5.99863882,0.638378721 5.99863882,1.42515249 L5.99863882,16.4630512 L2.39595891,11.8040065 C2.04997044,11.2180261 1.26999644,11.0252325 0.653616989,11.3728209 C0.0372375346,11.7208093 -0.181955159,12.4779841 0.164033308,13.0639645 C0.164033308,13.0639645 2.9811394,17.4326189 4.13110107,19.1573614 C5.28106274,20.8821039 7.16859982,23.009633 7.16859982,24 L15.1579335,24 C15.1579335,22.3280557 17.6014521,19.7165428 17.6014521,17.2018266 L17.6014521,13.9627346 L17.5954523,12.3787874 Z" id="path-32"></path>
        <filter x="-42.6%" y="-18.8%" width="185.2%" height="162.5%" filterUnits="objectBoundingBox" id="filter-33">
            <feMorphology radius="1" operator="dilate" in="SourceAlpha" result="shadowSpreadOuter1"></feMorphology>
            <feOffset dx="0" dy="1" in="shadowSpreadOuter1" result="shadowOffsetOuter1"></feOffset>
            <feGaussianBlur stdDeviation="0.5" in="shadowOffsetOuter1" result="shadowBlurOuter1"></feGaussianBlur>
            <feComposite in="shadowBlurOuter1" in2="SourceAlpha" operator="out" result="shadowBlurOuter1"></feComposite>
            <feColorMatrix values="0 0 0 0 0   0 0 0 0 0   0 0 0 0 0  0 0 0 0.582908741 0" type="matrix" in="shadowBlurOuter1" result="shadowMatrixOuter1"></feColorMatrix>
            <feMorphology radius="1" operator="dilate" in="SourceAlpha" result="shadowSpreadOuter2"></feMorphology>
            <feOffset dx="0" dy="2" in="shadowSpreadOuter2" result="shadowOffsetOuter2"></feOffset>
            <feGaussianBlur stdDeviation="1.5" in="shadowOffsetOuter2" result="shadowBlurOuter2"></feGaussianBlur>
            <feComposite in="shadowBlurOuter2" in2="SourceAlpha" operator="out" result="shadowBlurOuter2"></feComposite>
            <feColorMatrix values="0 0 0 0 0   0 0 0 0 0   0 0 0 0 0  0 0 0 0.179347826 0" type="matrix" in="shadowBlurOuter2" result="shadowMatrixOuter2"></feColorMatrix>
            <feMerge>
                <feMergeNode in="shadowMatrixOuter1"></feMergeNode>
                <feMergeNode in="shadowMatrixOuter2"></feMergeNode>
            </feMerge>
        </filter>
        <path d="M6.13211402,11.2688979 L10.8422354,11.5297995 C11.562075,11.4497464 11.7406967,10.9613193 11.2389527,10.443935 L0.591868541,0.301190754 C0.0905803995,-0.216377736 0.0269163636,-0.0499300062 0.0256689588,0.670145757 L2.29782166e-06,14.9845005 C-0.00119676849,15.7053522 0.467038737,15.932432 1.04000173,15.490159 L3.78168123,12.217739 C3.87724299,12.1438668 3.98988305,12.0715788 4.10864258,12 L7.07900942,19.5168621 C7.24412875,19.9268592 7.74262137,20.1120195 8.19190947,19.929965 C8.64097423,19.7493265 8.87107252,19.2695313 8.70554568,18.8604942 L5.73444213,11.3418087 L6.13211402,11.2688979 Z" id="path-34"></path>
        <filter x="-65.1%" y="-22.5%" width="230.2%" height="175.0%" filterUnits="objectBoundingBox" id="filter-35">
            <feMorphology radius="1" operator="dilate" in="SourceAlpha" result="shadowSpreadOuter1"></feMorphology>
            <feOffset dx="0" dy="1" in="shadowSpreadOuter1" result="shadowOffsetOuter1"></feOffset>
            <feGaussianBlur stdDeviation="0.5" in="shadowOffsetOuter1" result="shadowBlurOuter1"></feGaussianBlur>
            <feComposite in="shadowBlurOuter1" in2="SourceAlpha" operator="out" result="shadowBlurOuter1"></feComposite>
            <feColorMatrix values="0 0 0 0 0   0 0 0 0 0   0 0 0 0 0  0 0 0 0.582908741 0" type="matrix" in="shadowBlurOuter1" result="shadowMatrixOuter1"></feColorMatrix>
            <feMorphology radius="1" operator="dilate" in="SourceAlpha" result="shadowSpreadOuter2"></feMorphology>
            <feOffset dx="0" dy="2" in="shadowSpreadOuter2" result="shadowOffsetOuter2"></feOffset>
            <feGaussianBlur stdDeviation="1.5" in="shadowOffsetOuter2" result="shadowBlurOuter2"></feGaussianBlur>
            <feComposite in="shadowBlurOuter2" in2="SourceAlpha" operator="out" result="shadowBlurOuter2"></feComposite>
            <feColorMatrix values="0 0 0 0 0   0 0 0 0 0   0 0 0 0 0  0 0 0 0.179347826 0" type="matrix" in="shadowBlurOuter2" result="shadowMatrixOuter2"></feColorMatrix>
            <feMerge>
                <feMergeNode in="shadowMatrixOuter1"></feMergeNode>
                <feMergeNode in="shadowMatrixOuter2"></feMergeNode>
            </feMerge>
        </filter>
        <rect id="path-36" x="0" y="0" width="60" height="32" rx="16"></rect>
        <circle id="path-37" cx="43" cy="16" r="10"></circle>
        <filter x="-2.5%" y="-2.5%" width="105.0%" height="110.0%" filterUnits="objectBoundingBox" id="filter-38">
            <feOffset dx="0" dy="1" in="SourceAlpha" result="shadowOffsetOuter1"></feOffset>
            <feComposite in="shadowOffsetOuter1" in2="SourceAlpha" operator="out" result="shadowOffsetOuter1"></feComposite>
            <feColorMatrix values="0 0 0 0 0   0 0 0 0 0   0 0 0 0 0  0 0 0 0.1 0" type="matrix" in="shadowOffsetOuter1"></feColorMatrix>
        </filter>
        <rect id="path-39" x="0" y="0" width="60" height="32" rx="16"></rect>
        <circle id="path-40" cx="17" cy="16" r="10"></circle>
    </defs>
    <g id="Artboard-page" stroke="none" stroke-width="1" fill="none" fill-rule="evenodd">
        <g id="WikimediaUI-Overview" transform="translate(-6643.000000, -255.000000)">
            <g id="TOGGLE-SWITCH" transform="translate(6640.000000, 143.000000)">
                <g id="Toggle-Switch-X" transform="translate(3.000000, 101.000000)">
                    <g id="Toggle-switch-/-multiliner" transform="translate(330.000000, 488.000000)">
                        <g id="Toggle-switch-/-!default" transform="translate(168.000000, 1.000000)">
                            <g id="Mediawiki.Neutral.Hover-copy-28">
                                <use fill="#FFFFFF" fill-rule="evenodd" xlink:href="#path-1"></use>
                                <rect stroke="#72777D" stroke-width="1" x="-0.5" y="-0.5" width="61" height="33" rx="16.5"></rect>
                            </g>
                            <g id="Oval-45-Copy-13">
                                <use fill="#FFFFFF" fill-rule="evenodd" xlink:href="#path-2"></use>
                                <circle stroke="#72777D" stroke-width="1" cx="17" cy="16" r="10.5"></circle>
                            </g>
                        </g>
                        <text id="Option-title-Copy-4" font-family="HelveticaNeue, Helvetica Neue" font-size="14" font-weight="normal" line-spacing="20" fill="#222222">
                            <tspan x="0" y="33">Option with a really long</tspan>
                            <tspan x="0" y="53.3919983">label today</tspan>
                        </text>
                        <text id="Option-title-Copy-6" font-family="HelveticaNeue, Helvetica Neue" font-size="14" font-weight="normal" line-spacing="20" fill="#222222">
                            <tspan x="0" y="109">Second option</tspan>
                        </text>
                        <text id="Option-title-Copy-5" font-family="HelveticaNeue, Helvetica Neue" font-size="16" font-weight="normal" fill="#222222">
                            <tspan x="0" y="15">Option 1</tspan>
                        </text>
                        <text id="Option-title-Copy-7" font-family="HelveticaNeue, Helvetica Neue" font-size="16" font-weight="normal" fill="#222222">
                            <tspan x="0" y="91">Option 2</tspan>
                        </text>
                    </g>
                    <text id="DISABLED-NORMAL-:HOV" font-family="Lato-Regular, Lato" font-size="14" font-weight="normal" line-spacing="18.7999992" fill="#72777D">
                        <tspan x="0" y="41"> DISABLED</tspan>
                        <tspan x="0" y="59.7999992"></tspan>
                        <tspan x="0" y="78.5999985"></tspan>
                        <tspan x="0" y="97.3999977"> NORMAL</tspan>
                        <tspan x="0" y="116.199997"></tspan>
                        <tspan x="0" y="134.999996"></tspan>
                        <tspan x="0" y="153.799995">:HOVER</tspan>
                        <tspan x="0" y="172.599995"></tspan>
                        <tspan x="0" y="191.399994"></tspan>
                        <tspan x="0" y="210.199993">:ACTIVE</tspan>
                        <tspan x="0" y="228.999992"></tspan>
                        <tspan x="0" y="247.799992"></tspan>
                        <tspan x="0" y="266.599991">:FOCUS</tspan>
                    </text>
                    <path d="M497,505 L481,505" id="Line-236-Copy" stroke="#D0011B" stroke-width="4"></path>
                    <path d="M392,549 L392,565" id="1em" stroke="#D0011B" stroke-width="4"></path>
                    <path d="M528,395 L528,411" id="1em" stroke="#D0011B" stroke-width="4"></path>
                    <g id="-101-/-1em-+-2*0,5em" transform="translate(177.000000, 36.000000) rotate(270.000000) translate(-177.000000, -36.000000) translate(161.000000, 34.000000)" stroke-linecap="square">
                        <g id="101-/-1em" transform="translate(8.000000, 0.000000)" stroke="#D0011B">
                            <path d="M0.5,0.5 L15.5,0.5" id="1em"></path>
                            <path d="M0.5,1.5 L15.5,1.5" id="1em-copy"></path>
                            <path d="M0.5,2.5 L15.5,2.5" id="1em-copy-2"></path>
                            <path d="M0.5,3.5 L15.5,3.5" id="1em-copy-3"></path>
                        </g>
                        <g id="101-/-0.5em" stroke="#50E3C2">
                            <path d="M0.5,1.5 L7.5,1.5" id="0.5em"></path>
                            <path d="M0.5,0.5 L7.5,0.5" id="0.5em-copy"></path>
                            <path d="M0.5,3.5 L7.5,3.5" id="0.5em-copy-2"></path>
                            <path d="M0.5,2.5 L7.5,2.5" id="0.5em-copy-3"></path>
                        </g>
                        <g id="101-/-0.5em" transform="translate(24.000000, 0.000000)" stroke="#50E3C2">
                            <path d="M0.5,1.5 L7.5,1.5" id="0.5em"></path>
                            <path d="M0.5,0.5 L7.5,0.5" id="0.5em-copy"></path>
                            <path d="M0.5,3.5 L7.5,3.5" id="0.5em-copy-2"></path>
                            <path d="M0.5,2.5 L7.5,2.5" id="0.5em-copy-3"></path>
                        </g>
                    </g>
                    <g id="101-/-0.5em" transform="translate(189.000000, 17.000000)" stroke="#50E3C2" stroke-linecap="square">
                        <path d="M0.5,1.5 L7.5,1.5" id="0.5em"></path>
                        <path d="M0.5,0.5 L7.5,0.5" id="0.5em-copy"></path>
                        <path d="M0.5,3.5 L7.5,3.5" id="0.5em-copy-2"></path>
                        <path d="M0.5,2.5 L7.5,2.5" id="0.5em-copy-3"></path>
                    </g>
                    <text id="Minimum-1em-margin" font-family="Lato-Regular, Lato" font-size="12" font-weight="normal" fill="#D0011B">
                        <tspan x="503" y="481.381">Minimum 1em margin</tspan>
                    </text>
                    <g id="Toggle-switch-/-:on-/-:focus" transform="translate(397.000000, 244.000000)">
                        <g id="Mediawiki.Neutral.Hover-copy-20">
                            <use fill="#3366CC" fill-rule="evenodd" xlink:href="#path-3"></use>
                            <rect stroke="#FFFFFF" stroke-width="2" x="1.5" y="1" width="59" height="34" rx="17"></rect>
                            <rect stroke="#3366CC" stroke-width="1" x="0" y="-0.5" width="62" height="37" rx="18.5"></rect>
                            <rect stroke="#3366CC" stroke-width="1" x="1" y="0.5" width="60" height="35" rx="17.5"></rect>
                        </g>
                        <g id="Oval-45-Copy-4">
                            <use fill="black" fill-opacity="1" filter="url(#filter-5)" xlink:href="#path-4"></use>
                            <use fill="#FFFFFF" fill-rule="evenodd" xlink:href="#path-4"></use>
                            <circle stroke="#FFFFFF" stroke-width="1" cx="43.5" cy="18" r="9.5"></circle>
                        </g>
                    </g>
                    <g id="Toggle-switch-/-:on-/-!default" transform="translate(397.000000, 76.000000)">
                        <g id="Mediawiki.Neutral.Hover-copy-33">
                            <use fill="#3366CC" fill-rule="evenodd" xlink:href="#path-6"></use>
                            <rect stroke="#3366CC" stroke-width="1" x="-0.5" y="-0.5" width="61" height="33" rx="16.5"></rect>
                        </g>
                        <g id="Oval-45-Copy-17">
                            <use fill="black" fill-opacity="1" filter="url(#filter-8)" xlink:href="#path-7"></use>
                            <use fill="#FFFFFF" fill-rule="evenodd" xlink:href="#path-7"></use>
                            <circle stroke="#FFFFFF" stroke-width="1" cx="43" cy="16" r="9.5"></circle>
                        </g>
                    </g>
                    <g id="Toggle-switch-/-:on-/-:hover" transform="translate(397.000000, 132.000000)">
                        <g id="Mediawiki.Neutral.Hover-copy-21">
                            <use fill="#447FF5" fill-rule="evenodd" xlink:href="#path-9"></use>
                            <rect stroke="#447FF5" stroke-width="1" x="-0.5" y="-0.5" width="61" height="33" rx="16.5"></rect>
                        </g>
                        <g id="Oval-45-Copy-5">
                            <use fill="black" fill-opacity="1" filter="url(#filter-11)" xlink:href="#path-10"></use>
                            <use fill="#FFFFFF" fill-rule="evenodd" xlink:href="#path-10"></use>
                            <path stroke="#FFFFFF" stroke-width="1" d="M43,25.5 C37.7532949,25.5 33.5,21.2467051 33.5,16 C33.5,10.7532949 37.7532949,6.5 43,6.5 C48.2467051,6.5 52.5,10.7532949 52.5,16 C52.5,21.2467051 48.2467051,25.5 43,25.5 Z"></path>
                        </g>
                    </g>
                    <g id="Toggle-switch-/-:on-/-:active" transform="translate(397.000000, 188.000000)">
                        <g id="Mediawiki.Neutral.Hover-copy-23">
                            <use fill="#2A4B8D" fill-rule="evenodd" xlink:href="#path-12"></use>
                            <rect stroke="#2A4B8D" stroke-width="1" x="-0.5" y="-0.5" width="61" height="33" rx="16.5"></rect>
                        </g>
                        <g id="Oval-45-Copy-7">
                            <use fill="black" fill-opacity="1" filter="url(#filter-14)" xlink:href="#path-13"></use>
                            <use fill="#FFFFFF" fill-rule="evenodd" xlink:href="#path-13"></use>
                            <circle stroke="#FFFFFF" stroke-width="1" cx="44" cy="16" r="9.5"></circle>
                        </g>
                    </g>
                    <g id="Toggle-switch-/-!default" transform="translate(497.000000, 412.000000)">
                        <g id="Mediawiki.Neutral.Hover-copy-28">
                            <use fill="#FFFFFF" fill-rule="evenodd" xlink:href="#path-15"></use>
                            <rect stroke="#72777D" stroke-width="1" x="-0.5" y="-0.5" width="61" height="33" rx="16.5"></rect>
                        </g>
                        <g id="Oval-45-Copy-13">
                            <use fill="#FFFFFF" fill-rule="evenodd" xlink:href="#path-16"></use>
                            <circle stroke="#72777D" stroke-width="1" cx="17" cy="16" r="10.5"></circle>
                        </g>
                    </g>
                    <g id="Toggle-switch-/-:hover" transform="translate(189.000000, 132.000000)" stroke="#3366CC">
                        <rect id="Mediawiki.Neutral.Hover-copy-29" x="-0.5" y="-0.5" width="61" height="33" rx="16.5"></rect>
                        <path d="M17,25.5 C11.7532949,25.5 7.5,21.2467051 7.5,16 C7.5,10.7532949 11.7532949,6.5 17,6.5 C22.2467051,6.5 26.5,10.7532949 26.5,16 C26.5,21.2467051 22.2467051,25.5 17,25.5 Z" id="Oval-45-Copy-14"></path>
                    </g>
                    <g id="Toggle-switch-/-:disabled" transform="translate(189.000000, 20.000000)">
                        <g id="Mediawiki.Neutral.Hover-copy-30">
                            <use fill="#C8CCD1" fill-rule="evenodd" xlink:href="#path-17"></use>
                            <rect stroke="#C8CCD1" stroke-width="1" x="-0.5" y="-0.5" width="61" height="33" rx="16.5"></rect>
                        </g>
                        <ellipse id="Oval-45-Copy-15" stroke="#FFFFFF" stroke-width="1" cx="17" cy="16" rx="9.5" ry="9.5"></ellipse>
                    </g>
                    <g id="Toggle-switch-/-:on-/-:disabled" transform="translate(397.000000, 20.000000)">
                        <g id="Mediawiki.Neutral.Hover-copy-34">
                            <use fill="#C8CCD1" fill-rule="evenodd" xlink:href="#path-18"></use>
                            <rect stroke="#C8CCD1" stroke-width="1" x="-0.5" y="-0.5" width="61" height="33" rx="16.5"></rect>
                        </g>
                        <path d="M43,26 C48.5228475,26 53,21.5228475 53,16 C53,10.4771525 48.5228475,6 43,6 C37.4771525,6 33,10.4771525 33,16 C33,21.5228475 37.4771525,26 43,26 Z" id="Oval-45-Copy-18" fill="#FFFFFF" fill-rule="evenodd"></path>
                    </g>
                    <g id="Toggle-switch-/-:active" transform="translate(190.000000, 189.000000)">
                        <g id="Mediawiki.Neutral.Hover-copy-31">
                            <use fill="#2A4B8D" fill-rule="evenodd" xlink:href="#path-19"></use>
                            <rect stroke="#2A4B8D" stroke-width="1" x="-0.5" y="-0.5" width="61" height="33" rx="16.5"></rect>
                            <rect stroke="#2A4B8D" stroke-width="1" x="0.5" y="0.5" width="59" height="31" rx="15.5"></rect>
                        </g>
                        <g id="Oval-45-Copy-16">
                            <use fill="#FFFFFF" fill-rule="evenodd" xlink:href="#path-20"></use>
                            <path stroke="#3366CC" stroke-width="1" d="M17,25.5 C11.7532949,25.5 7.5,21.2467051 7.5,16 C7.5,10.7532949 11.7532949,6.5 17,6.5 C22.2467051,6.5 26.5,10.7532949 26.5,16 C26.5,21.2467051 22.2467051,25.5 17,25.5 Z"></path>
                        </g>
                    </g>
                    <path d="M189.5,45.5 L189.5,0.48889029" id="Line" stroke="#50E3C2" stroke-linecap="square" stroke-dasharray="1,3"></path>
                    <path d="M196.5,45.5 L196.5,0.48889029" id="Line-Copy-5" stroke="#50E3C2" stroke-linecap="square" stroke-dasharray="1,3"></path>
                    <path d="M480.725845,326.462266 L480.725845,628.5" id="Line-Copy-17" stroke="#50E3C2" stroke-linecap="square" stroke-dasharray="1,3"></path>
                    <path d="M497.725845,467.5 L497.725845,545.886459" id="Line-Copy-99" stroke="#50E3C2" stroke-linecap="square" stroke-dasharray="1,3"></path>
                    <g id="Toggle-switch-/-:focus" transform="translate(189.000000, 244.000000)" stroke="#3366CC">
                        <g id="Mediawiki.Neutral.Hover-copy-35">
                            <rect x="0.5" y="0.5" width="59" height="31" rx="15.5"></rect>
                            <rect x="-0.5" y="-0.5" width="61" height="33" rx="16"></rect>
                        </g>
                        <circle id="Oval-45-Copy-19" cx="17" cy="16" r="9.5"></circle>
                    </g>
                    <path d="M332,360.5 L534,360.5" id="Line-Copy-94" stroke="#50E3C2" stroke-linecap="square" stroke-dasharray="1,3"></path>
                    <path d="M332,566.5 L534,566.5" id="Line-Copy-95" stroke="#50E3C2" stroke-linecap="square" stroke-dasharray="1,3"></path>
                    <path d="M332,487.5 L534,487.5" id="Line-Copy-96" stroke="#50E3C2" stroke-linecap="square" stroke-dasharray="1,3"></path>
                    <path d="M332,395.5 L534,395.5" id="Line-Copy-97" stroke="#50E3C2" stroke-linecap="square" stroke-dasharray="1,3"></path>
                    <g id="Toggle-switch-/-!default" transform="translate(497.000000, 362.000000)">
                        <g id="Mediawiki.Neutral.Hover-copy-28">
                            <use fill="#FFFFFF" fill-rule="evenodd" xlink:href="#path-22"></use>
                            <rect stroke="#72777D" stroke-width="1" x="-0.5" y="-0.5" width="61" height="33" rx="16.5"></rect>
                        </g>
                        <g id="Oval-45-Copy-13">
                            <use fill="#FFFFFF" fill-rule="evenodd" xlink:href="#path-23"></use>
                            <circle stroke="#72777D" stroke-width="1" cx="17" cy="16" r="10.5"></circle>
                        </g>
                    </g>
                    <text id="Option-5-Copy-2" font-family="HelveticaNeue, Helvetica Neue" font-size="16" font-weight="normal" fill="#222222">
                        <tspan x="330" y="433">Option 2</tspan>
                    </text>
                    <path d="M324.5,360.5 L324.5,395.514282" id="Line-Copy-98" stroke="#979797" stroke-linecap="square"></path>
                    <path id="Line-Copy-98-decoration-1" d="M327.5,360.5 L321.5,360.5" stroke="#979797" stroke-linecap="square"></path>
                    <path id="Line-Copy-98-decoration-2" d="M327.5,395.514282 L321.5,395.514282" stroke="#979797" stroke-linecap="square"></path>
                    <text id="`vertical-align:-mid" font-family="Lato-Regular, Lato" font-size="12" font-weight="normal" fill="#D0011B">
                        <tspan x="121" y="383">`vertical-align: middle` one-liner text</tspan>
                    </text>
                    <text id="top-align-2-lines-or-copy-2" font-family="Lato-Regular, Lato" font-size="12" font-weight="normal" fill="#D0011B">
                        <tspan x="160" y="503">top align 2 lines or more text </tspan>
                    </text>
                    <g id="Cursor-/-Pointer" transform="translate(403.000000, 206.000000)">
                        <g id="Cursor-Pointer">
                            <use fill="black" fill-opacity="1" filter="url(#filter-25)" xlink:href="#path-24"></use>
                            <use fill="#FFFFFF" fill-rule="evenodd" xlink:href="#path-24"></use>
                            <path stroke="#000000" stroke-width="1" d="M18.095452,12.3777591 C18.0948912,11.4475593 17.3335344,10.6960268 16.3978922,10.6960268 C16.10688,10.6960268 15.8327664,10.7687518 15.5931989,10.8969793 C15.3133259,10.0818718 14.5229268,9.49766674 13.5963856,9.49766674 C13.1672561,9.49766674 12.7687636,9.62309774 12.4371411,9.83891321 C12.2017759,8.95226109 11.3696842,8.29930669 10.3928923,8.29930669 C9.99458465,8.29930669 9.62275187,8.40813447 9.30654522,8.59739976 L9.30654522,1.42515249 C9.30654522,0.365060667 8.4475222,-0.5 7.39619224,-0.5 C6.34627404,-0.5 5.49863882,0.364390213 5.49863882,1.42515249 L5.49863882,14.9990679 L2.79149833,11.4981494 C2.33990048,10.7256484 1.25796465,10.4579954 0.408016869,10.9372976 C-0.448495824,11.4208575 -0.757186346,12.4871638 -0.266517693,13.3181807 C-0.221942375,13.3880215 -0.221942375,13.3880215 -0.0679723281,13.6265707 C0.137397398,13.944607 0.248691135,14.1168648 0.428630429,14.3951327 C0.942759518,15.1902097 1.45803808,15.9852984 1.94061413,16.727459 C1.95455156,16.7488931 1.95455156,16.7488931 1.96848974,16.7703263 C2.72477886,17.9332706 3.32594411,18.8510815 3.71509077,19.4347338 C3.97897576,19.8305154 4.25954481,20.2204113 4.73613542,20.8635322 C4.77572637,20.916944 4.77572637,20.916944 4.81529743,20.9702918 C6.19563371,22.8309976 6.66859982,23.5786103 6.66859982,24 L6.66859982,24.5 L7.16859982,24.5 L15.1579335,24.5 L15.6579335,24.5 L15.6579335,24 C15.6579335,23.4442918 15.8127426,23.093397 16.8234169,21.1474064 C17.5230199,19.8003644 17.8804952,18.9306924 18.0348962,17.9890448 C18.0788416,17.7210344 18.1014521,17.45899 18.1014521,17.2018266 L18.1014521,13.9627346 L18.095452,12.3777591 L18.095452,12.3777591 Z"></path>
                        </g>
                    </g>
                    <g id="Cursor-/-Pointer" transform="translate(403.000000, 148.000000)">
                        <g id="Cursor-Pointer">
                            <use fill="black" fill-opacity="1" filter="url(#filter-27)" xlink:href="#path-26"></use>
                            <use fill="#FFFFFF" fill-rule="evenodd" xlink:href="#path-26"></use>
                            <path stroke="#000000" stroke-width="1" d="M18.095452,12.3777591 C18.0948912,11.4475593 17.3335344,10.6960268 16.3978922,10.6960268 C16.10688,10.6960268 15.8327664,10.7687518 15.5931989,10.8969793 C15.3133259,10.0818718 14.5229268,9.49766674 13.5963856,9.49766674 C13.1672561,9.49766674 12.7687636,9.62309774 12.4371411,9.83891321 C12.2017759,8.95226109 11.3696842,8.29930669 10.3928923,8.29930669 C9.99458465,8.29930669 9.62275187,8.40813447 9.30654522,8.59739976 L9.30654522,1.42515249 C9.30654522,0.365060667 8.4475222,-0.5 7.39619224,-0.5 C6.34627404,-0.5 5.49863882,0.364390213 5.49863882,1.42515249 L5.49863882,14.9990679 L2.79149833,11.4981494 C2.33990048,10.7256484 1.25796465,10.4579954 0.408016869,10.9372976 C-0.448495824,11.4208575 -0.757186346,12.4871638 -0.266517693,13.3181807 C-0.221942375,13.3880215 -0.221942375,13.3880215 -0.0679723281,13.6265707 C0.137397398,13.944607 0.248691135,14.1168648 0.428630429,14.3951327 C0.942759518,15.1902097 1.45803808,15.9852984 1.94061413,16.727459 C1.95455156,16.7488931 1.95455156,16.7488931 1.96848974,16.7703263 C2.72477886,17.9332706 3.32594411,18.8510815 3.71509077,19.4347338 C3.97897576,19.8305154 4.25954481,20.2204113 4.73613542,20.8635322 C4.77572637,20.916944 4.77572637,20.916944 4.81529743,20.9702918 C6.19563371,22.8309976 6.66859982,23.5786103 6.66859982,24 L6.66859982,24.5 L7.16859982,24.5 L15.1579335,24.5 L15.6579335,24.5 L15.6579335,24 C15.6579335,23.4442918 15.8127426,23.093397 16.8234169,21.1474064 C17.5230199,19.8003644 17.8804952,18.9306924 18.0348962,17.9890448 C18.0788416,17.7210344 18.1014521,17.45899 18.1014521,17.2018266 L18.1014521,13.9627346 L18.095452,12.3777591 L18.095452,12.3777591 Z"></path>
                        </g>
                    </g>
                    <g id="Cursor-/-!default" transform="translate(443.000000, 49.000000)">
                        <g id="cursor">
                            <use fill="black" fill-opacity="1" filter="url(#filter-29)" xlink:href="#path-28"></use>
                            <use fill="#000000" fill-rule="evenodd" xlink:href="#path-28"></use>
                            <path stroke="#FFFFFF" stroke-width="1" d="M6.44805157,11.7871647 L10.8145819,12.0290342 C12.0289467,11.9009082 12.390083,10.912736 11.5978897,10.0958485 L0.936743625,-0.0608329699 C0.490703685,-0.521940513 0.196479729,-0.698622715 -0.202577288,-0.35941243 C-0.447188468,-0.15148568 -0.473259969,0.051426302 -0.474330291,0.669279596 L-0.499996898,14.983604 C-0.501889691,16.1215055 0.444640548,16.5813536 1.34552169,15.8859589 L1.42326646,15.8112636 L3.90605662,12.8478493 L6.61399912,19.7006158 C6.8877013,20.3802565 7.68317947,20.6755944 8.37968284,20.3933668 C9.07500287,20.1136726 9.44237709,19.3483989 9.16903318,18.6729326 L6.44805157,11.7871647 Z"></path>
                        </g>
                    </g>
                    <g id="Cursor-/-Pointer" transform="translate(235.000000, 205.000000)">
                        <g id="Cursor-Pointer">
                            <use fill="black" fill-opacity="1" filter="url(#filter-31)" xlink:href="#path-30"></use>
                            <use fill="#FFFFFF" fill-rule="evenodd" xlink:href="#path-30"></use>
                            <path stroke="#000000" stroke-width="1" d="M18.095452,12.3777591 C18.0948912,11.4475593 17.3335344,10.6960268 16.3978922,10.6960268 C16.10688,10.6960268 15.8327664,10.7687518 15.5931989,10.8969793 C15.3133259,10.0818718 14.5229268,9.49766674 13.5963856,9.49766674 C13.1672561,9.49766674 12.7687636,9.62309774 12.4371411,9.83891321 C12.2017759,8.95226109 11.3696842,8.29930669 10.3928923,8.29930669 C9.99458465,8.29930669 9.62275187,8.40813447 9.30654522,8.59739976 L9.30654522,1.42515249 C9.30654522,0.365060667 8.4475222,-0.5 7.39619224,-0.5 C6.34627404,-0.5 5.49863882,0.364390213 5.49863882,1.42515249 L5.49863882,14.9990679 L2.79149833,11.4981494 C2.33990048,10.7256484 1.25796465,10.4579954 0.408016869,10.9372976 C-0.448495824,11.4208575 -0.757186346,12.4871638 -0.266517693,13.3181807 C-0.221942375,13.3880215 -0.221942375,13.3880215 -0.0679723281,13.6265707 C0.137397398,13.944607 0.248691135,14.1168648 0.428630429,14.3951327 C0.942759518,15.1902097 1.45803808,15.9852984 1.94061413,16.727459 C1.95455156,16.7488931 1.95455156,16.7488931 1.96848974,16.7703263 C2.72477886,17.9332706 3.32594411,18.8510815 3.71509077,19.4347338 C3.97897576,19.8305154 4.25954481,20.2204113 4.73613542,20.8635322 C4.77572637,20.916944 4.77572637,20.916944 4.81529743,20.9702918 C6.19563371,22.8309976 6.66859982,23.5786103 6.66859982,24 L6.66859982,24.5 L7.16859982,24.5 L15.1579335,24.5 L15.6579335,24.5 L15.6579335,24 C15.6579335,23.4442918 15.8127426,23.093397 16.8234169,21.1474064 C17.5230199,19.8003644 17.8804952,18.9306924 18.0348962,17.9890448 C18.0788416,17.7210344 18.1014521,17.45899 18.1014521,17.2018266 L18.1014521,13.9627346 L18.095452,12.3777591 L18.095452,12.3777591 Z"></path>
                        </g>
                    </g>
                    <g id="Cursor-/-Pointer" transform="translate(235.000000, 148.000000)">
                        <g id="Cursor-Pointer">
                            <use fill="black" fill-opacity="1" filter="url(#filter-33)" xlink:href="#path-32"></use>
                            <use fill="#FFFFFF" fill-rule="evenodd" xlink:href="#path-32"></use>
                            <path stroke="#000000" stroke-width="1" d="M18.095452,12.3777591 C18.0948912,11.4475593 17.3335344,10.6960268 16.3978922,10.6960268 C16.10688,10.6960268 15.8327664,10.7687518 15.5931989,10.8969793 C15.3133259,10.0818718 14.5229268,9.49766674 13.5963856,9.49766674 C13.1672561,9.49766674 12.7687636,9.62309774 12.4371411,9.83891321 C12.2017759,8.95226109 11.3696842,8.29930669 10.3928923,8.29930669 C9.99458465,8.29930669 9.62275187,8.40813447 9.30654522,8.59739976 L9.30654522,1.42515249 C9.30654522,0.365060667 8.4475222,-0.5 7.39619224,-0.5 C6.34627404,-0.5 5.49863882,0.364390213 5.49863882,1.42515249 L5.49863882,14.9990679 L2.79149833,11.4981494 C2.33990048,10.7256484 1.25796465,10.4579954 0.408016869,10.9372976 C-0.448495824,11.4208575 -0.757186346,12.4871638 -0.266517693,13.3181807 C-0.221942375,13.3880215 -0.221942375,13.3880215 -0.0679723281,13.6265707 C0.137397398,13.944607 0.248691135,14.1168648 0.428630429,14.3951327 C0.942759518,15.1902097 1.45803808,15.9852984 1.94061413,16.727459 C1.95455156,16.7488931 1.95455156,16.7488931 1.96848974,16.7703263 C2.72477886,17.9332706 3.32594411,18.8510815 3.71509077,19.4347338 C3.97897576,19.8305154 4.25954481,20.2204113 4.73613542,20.8635322 C4.77572637,20.916944 4.77572637,20.916944 4.81529743,20.9702918 C6.19563371,22.8309976 6.66859982,23.5786103 6.66859982,24 L6.66859982,24.5 L7.16859982,24.5 L15.1579335,24.5 L15.6579335,24.5 L15.6579335,24 C15.6579335,23.4442918 15.8127426,23.093397 16.8234169,21.1474064 C17.5230199,19.8003644 17.8804952,18.9306924 18.0348962,17.9890448 C18.0788416,17.7210344 18.1014521,17.45899 18.1014521,17.2018266 L18.1014521,13.9627346 L18.095452,12.3777591 L18.095452,12.3777591 Z"></path>
                        </g>
                    </g>
                    <g id="Cursor-/-!default" transform="translate(241.000000, 46.000000)">
                        <g id="cursor">
                            <use fill="black" fill-opacity="1" filter="url(#filter-35)" xlink:href="#path-34"></use>
                            <use fill="#000000" fill-rule="evenodd" xlink:href="#path-34"></use>
                            <path stroke="#FFFFFF" stroke-width="1" d="M6.44805157,11.7871647 L10.8145819,12.0290342 C12.0289467,11.9009082 12.390083,10.912736 11.5978897,10.0958485 L0.936743625,-0.0608329699 C0.490703685,-0.521940513 0.196479729,-0.698622715 -0.202577288,-0.35941243 C-0.447188468,-0.15148568 -0.473259969,0.051426302 -0.474330291,0.669279596 L-0.499996898,14.983604 C-0.501889691,16.1215055 0.444640548,16.5813536 1.34552169,15.8859589 L1.42326646,15.8112636 L3.90605662,12.8478493 L6.61399912,19.7006158 C6.8877013,20.3802565 7.68317947,20.6755944 8.37968284,20.3933668 C9.07500287,20.1136726 9.44237709,19.3483989 9.16903318,18.6729326 L6.44805157,11.7871647 Z"></path>
                        </g>
                    </g>
                    <g id="Toggle-switch-/-:on-/-!default" transform="translate(499.000000, 568.000000)">
                        <g id="Mediawiki.Neutral.Hover-copy-33">
                            <use fill="#3366CC" fill-rule="evenodd" xlink:href="#path-36"></use>
                            <rect stroke="#3366CC" stroke-width="1" x="-0.5" y="-0.5" width="61" height="33" rx="16.5"></rect>
                        </g>
                        <g id="Oval-45-Copy-17">
                            <use fill="black" fill-opacity="1" filter="url(#filter-38)" xlink:href="#path-37"></use>
                            <use fill="#FFFFFF" fill-rule="evenodd" xlink:href="#path-37"></use>
                            <circle stroke="#FFFFFF" stroke-width="1" cx="43" cy="16" r="9.5"></circle>
                        </g>
                    </g>
                    <g id="Toggle-switch-/-!default" transform="translate(189.000000, 76.000000)">
                        <g id="Mediawiki.Neutral.Hover-copy-28">
                            <use fill="#FFFFFF" fill-rule="evenodd" xlink:href="#path-39"></use>
                            <rect stroke="#72777D" stroke-width="1" x="-0.5" y="-0.5" width="61" height="33" rx="16.5"></rect>
                        </g>
                        <g id="Oval-45-Copy-13">
                            <use fill="#FFFFFF" fill-rule="evenodd" xlink:href="#path-40"></use>
                            <circle stroke="#72777D" stroke-width="1" cx="17" cy="16" r="10.5"></circle>
                        </g>
                    </g>
                </g>
            </g>
        </g>
    </g>
</svg>