<?xml version="1.0" encoding="UTF-8"?>
<svg xmlns="http://www.w3.org/2000/svg" xmlns:xlink="http://www.w3.org/1999/xlink" width="617" height="620" viewBox="0 0 617 620">
	<defs>
		<circle id="toggle_switch-b" cx="43.5" cy="18" r="10"/>
		<filter id="toggle_switch-a" width="105%" height="110%" x="-2.5%" y="-2.5%" filterUnits="objectBoundingBox">
			<feOffset dy="1" in="SourceAlpha" result="shadowOffsetOuter1"/>
			<feComposite in="shadowOffsetOuter1" in2="SourceAlpha" operator="out" result="shadowOffsetOuter1"/>
			<feColorMatrix in="shadowOffsetOuter1" values="0 0 0 0 0 0 0 0 0 0 0 0 0 0 0 0 0 0 0.1 0"/>
		</filter>
		<circle id="toggle_switch-d" cx="43" cy="16" r="10"/>
		<filter id="toggle_switch-c" width="105%" height="110%" x="-2.5%" y="-2.5%" filterUnits="objectBoundingBox">
			<feOffset dy="1" in="SourceAlpha" result="shadowOffsetOuter1"/>
			<feComposite in="shadowOffsetOuter1" in2="SourceAlpha" operator="out" result="shadowOffsetOuter1"/>
			<feColorMatrix in="shadowOffsetOuter1" values="0 0 0 0 0 0 0 0 0 0 0 0 0 0 0 0 0 0 0.1 0"/>
		</filter>
		<path id="toggle_switch-f" d="M43 26c5.523 0 10-4.477 10-10S48.523 6 43 6s-10 4.477-10 10 4.477 10 10 10z"/>
		<filter id="toggle_switch-e" width="105%" height="110%" x="-2.5%" y="-2.5%" filterUnits="objectBoundingBox">
			<feOffset dy="1" in="SourceAlpha" result="shadowOffsetOuter1"/>
			<feComposite in="shadowOffsetOuter1" in2="SourceAlpha" operator="out" result="shadowOffsetOuter1"/>
			<feColorMatrix in="shadowOffsetOuter1" values="0 0 0 0 0 0 0 0 0 0 0 0 0 0 0 0 0 0 0.1 0"/>
		</filter>
		<circle id="toggle_switch-h" cx="44" cy="16" r="10"/>
		<filter id="toggle_switch-g" width="105%" height="110%" x="-2.5%" y="-2.5%" filterUnits="objectBoundingBox">
			<feOffset dy="1" in="SourceAlpha" result="shadowOffsetOuter1"/>
			<feComposite in="shadowOffsetOuter1" in2="SourceAlpha" operator="out" result="shadowOffsetOuter1"/>
			<feColorMatrix in="shadowOffsetOuter1" values="0 0 0 0 0 0 0 0 0 0 0 0 0 0 0 0 0 0 0.1 0"/>
		</filter>
		<rect id="toggle_switch-i" width="60" height="32" rx="16"/>
		<path id="toggle_switch-k" d="M17.595 12.379a1.19 1.19 0 0 0-1.197-1.183 1.19 1.19 0 0 0-1.196 1.179v-.826c0-.857-.719-1.551-1.606-1.551-.886 0-1.592.694-1.592 1.55V10.35c0-.856-.728-1.55-1.611-1.55s-1.586.694-1.586 1.55V1.425C8.807.638 8.168 0 7.397 0c-.772 0-1.398.638-1.398 1.425v15.038l-3.603-4.659c-.346-.586-1.126-.779-1.742-.431-.617.348-.836 1.105-.49 1.691 0 0 2.817 4.369 3.967 6.093C5.281 20.882 7.17 23.01 7.17 24h7.989c0-1.672 2.443-4.283 2.443-6.798v-3.24l-.006-1.583z"/>
		<filter id="toggle_switch-j" width="185.2%" height="162.5%" x="-42.6%" y="-18.8%" filterUnits="objectBoundingBox">
			<feMorphology in="SourceAlpha" operator="dilate" radius="1" result="shadowSpreadOuter1"/>
			<feOffset dy="1" in="shadowSpreadOuter1" result="shadowOffsetOuter1"/>
			<feGaussianBlur in="shadowOffsetOuter1" result="shadowBlurOuter1" stdDeviation=".5"/>
			<feComposite in="shadowBlurOuter1" in2="SourceAlpha" operator="out" result="shadowBlurOuter1"/>
			<feColorMatrix in="shadowBlurOuter1" result="shadowMatrixOuter1" values="0 0 0 0 0 0 0 0 0 0 0 0 0 0 0 0 0 0 0.582908741 0"/>
			<feMorphology in="SourceAlpha" operator="dilate" radius="1" result="shadowSpreadOuter2"/>
			<feOffset dy="2" in="shadowSpreadOuter2" result="shadowOffsetOuter2"/>
			<feGaussianBlur in="shadowOffsetOuter2" result="shadowBlurOuter2" stdDeviation="1.5"/>
			<feComposite in="shadowBlurOuter2" in2="SourceAlpha" operator="out" result="shadowBlurOuter2"/>
			<feColorMatrix in="shadowBlurOuter2" result="shadowMatrixOuter2" values="0 0 0 0 0 0 0 0 0 0 0 0 0 0 0 0 0 0 0.179347826 0"/>
			<feMerge>
				<feMergeNode in="shadowMatrixOuter1"/>
				<feMergeNode in="shadowMatrixOuter2"/>
			</feMerge>
		</filter>
		<path id="toggle_switch-m" d="M17.595 12.379a1.19 1.19 0 0 0-1.197-1.183 1.19 1.19 0 0 0-1.196 1.179v-.826c0-.857-.719-1.551-1.606-1.551-.886 0-1.592.694-1.592 1.55V10.35c0-.856-.728-1.55-1.611-1.55s-1.586.694-1.586 1.55V1.425C8.807.638 8.168 0 7.397 0c-.772 0-1.398.638-1.398 1.425v15.038l-3.603-4.659c-.346-.586-1.126-.779-1.742-.431-.617.348-.836 1.105-.49 1.691 0 0 2.817 4.369 3.967 6.093C5.281 20.882 7.17 23.01 7.17 24h7.989c0-1.672 2.443-4.283 2.443-6.798v-3.24l-.006-1.583z"/>
		<filter id="toggle_switch-l" width="185.2%" height="162.5%" x="-42.6%" y="-18.8%" filterUnits="objectBoundingBox">
			<feMorphology in="SourceAlpha" operator="dilate" radius="1" result="shadowSpreadOuter1"/>
			<feOffset dy="1" in="shadowSpreadOuter1" result="shadowOffsetOuter1"/>
			<feGaussianBlur in="shadowOffsetOuter1" result="shadowBlurOuter1" stdDeviation=".5"/>
			<feComposite in="shadowBlurOuter1" in2="SourceAlpha" operator="out" result="shadowBlurOuter1"/>
			<feColorMatrix in="shadowBlurOuter1" result="shadowMatrixOuter1" values="0 0 0 0 0 0 0 0 0 0 0 0 0 0 0 0 0 0 0.582908741 0"/>
			<feMorphology in="SourceAlpha" operator="dilate" radius="1" result="shadowSpreadOuter2"/>
			<feOffset dy="2" in="shadowSpreadOuter2" result="shadowOffsetOuter2"/>
			<feGaussianBlur in="shadowOffsetOuter2" result="shadowBlurOuter2" stdDeviation="1.5"/>
			<feComposite in="shadowBlurOuter2" in2="SourceAlpha" operator="out" result="shadowBlurOuter2"/>
			<feColorMatrix in="shadowBlurOuter2" result="shadowMatrixOuter2" values="0 0 0 0 0 0 0 0 0 0 0 0 0 0 0 0 0 0 0.179347826 0"/>
			<feMerge>
				<feMergeNode in="shadowMatrixOuter1"/>
				<feMergeNode in="shadowMatrixOuter2"/>
			</feMerge>
		</filter>
		<path id="toggle_switch-o" d="M6.132 11.269l4.71.26c.72-.08.899-.568.397-1.085L.592.3C.09-.216.027-.049.026.671L0 14.984c-.001.72.467.947 1.04.505l2.742-3.272c.095-.074.208-.146.327-.218l2.97 7.517c.165.41.664.595 1.113.413.449-.18.68-.66.514-1.07l-2.972-7.518.398-.073z"/>
		<filter id="toggle_switch-n" width="230.2%" height="175%" x="-65.1%" y="-22.5%" filterUnits="objectBoundingBox">
			<feMorphology in="SourceAlpha" operator="dilate" radius="1" result="shadowSpreadOuter1"/>
			<feOffset dy="1" in="shadowSpreadOuter1" result="shadowOffsetOuter1"/>
			<feGaussianBlur in="shadowOffsetOuter1" result="shadowBlurOuter1" stdDeviation=".5"/>
			<feComposite in="shadowBlurOuter1" in2="SourceAlpha" operator="out" result="shadowBlurOuter1"/>
			<feColorMatrix in="shadowBlurOuter1" result="shadowMatrixOuter1" values="0 0 0 0 0 0 0 0 0 0 0 0 0 0 0 0 0 0 0.582908741 0"/>
			<feMorphology in="SourceAlpha" operator="dilate" radius="1" result="shadowSpreadOuter2"/>
			<feOffset dy="2" in="shadowSpreadOuter2" result="shadowOffsetOuter2"/>
			<feGaussianBlur in="shadowOffsetOuter2" result="shadowBlurOuter2" stdDeviation="1.5"/>
			<feComposite in="shadowBlurOuter2" in2="SourceAlpha" operator="out" result="shadowBlurOuter2"/>
			<feColorMatrix in="shadowBlurOuter2" result="shadowMatrixOuter2" values="0 0 0 0 0 0 0 0 0 0 0 0 0 0 0 0 0 0 0.179347826 0"/>
			<feMerge>
				<feMergeNode in="shadowMatrixOuter1"/>
				<feMergeNode in="shadowMatrixOuter2"/>
			</feMerge>
		</filter>
		<path id="toggle_switch-q" d="M17.595 12.379a1.19 1.19 0 0 0-1.197-1.183 1.19 1.19 0 0 0-1.196 1.179v-.826c0-.857-.719-1.551-1.606-1.551-.886 0-1.592.694-1.592 1.55V10.35c0-.856-.728-1.55-1.611-1.55s-1.586.694-1.586 1.55V1.425C8.807.638 8.168 0 7.397 0c-.772 0-1.398.638-1.398 1.425v15.038l-3.603-4.659c-.346-.586-1.126-.779-1.742-.431-.617.348-.836 1.105-.49 1.691 0 0 2.817 4.369 3.967 6.093C5.281 20.882 7.17 23.01 7.17 24h7.989c0-1.672 2.443-4.283 2.443-6.798v-3.24l-.006-1.583z"/>
		<filter id="toggle_switch-p" width="185.2%" height="162.5%" x="-42.6%" y="-18.8%" filterUnits="objectBoundingBox">
			<feMorphology in="SourceAlpha" operator="dilate" radius="1" result="shadowSpreadOuter1"/>
			<feOffset dy="1" in="shadowSpreadOuter1" result="shadowOffsetOuter1"/>
			<feGaussianBlur in="shadowOffsetOuter1" result="shadowBlurOuter1" stdDeviation=".5"/>
			<feComposite in="shadowBlurOuter1" in2="SourceAlpha" operator="out" result="shadowBlurOuter1"/>
			<feColorMatrix in="shadowBlurOuter1" result="shadowMatrixOuter1" values="0 0 0 0 0 0 0 0 0 0 0 0 0 0 0 0 0 0 0.582908741 0"/>
			<feMorphology in="SourceAlpha" operator="dilate" radius="1" result="shadowSpreadOuter2"/>
			<feOffset dy="2" in="shadowSpreadOuter2" result="shadowOffsetOuter2"/>
			<feGaussianBlur in="shadowOffsetOuter2" result="shadowBlurOuter2" stdDeviation="1.5"/>
			<feComposite in="shadowBlurOuter2" in2="SourceAlpha" operator="out" result="shadowBlurOuter2"/>
			<feColorMatrix in="shadowBlurOuter2" result="shadowMatrixOuter2" values="0 0 0 0 0 0 0 0 0 0 0 0 0 0 0 0 0 0 0.179347826 0"/>
			<feMerge>
				<feMergeNode in="shadowMatrixOuter1"/>
				<feMergeNode in="shadowMatrixOuter2"/>
			</feMerge>
		</filter>
		<path id="toggle_switch-s" d="M17.595 12.379a1.19 1.19 0 0 0-1.197-1.183 1.19 1.19 0 0 0-1.196 1.179v-.826c0-.857-.719-1.551-1.606-1.551-.886 0-1.592.694-1.592 1.55V10.35c0-.856-.728-1.55-1.611-1.55s-1.586.694-1.586 1.55V1.425C8.807.638 8.168 0 7.397 0c-.772 0-1.398.638-1.398 1.425v15.038l-3.603-4.659c-.346-.586-1.126-.779-1.742-.431-.617.348-.836 1.105-.49 1.691 0 0 2.817 4.369 3.967 6.093C5.281 20.882 7.17 23.01 7.17 24h7.989c0-1.672 2.443-4.283 2.443-6.798v-3.24l-.006-1.583z"/>
		<filter id="toggle_switch-r" width="185.2%" height="162.5%" x="-42.6%" y="-18.8%" filterUnits="objectBoundingBox">
			<feMorphology in="SourceAlpha" operator="dilate" radius="1" result="shadowSpreadOuter1"/>
			<feOffset dy="1" in="shadowSpreadOuter1" result="shadowOffsetOuter1"/>
			<feGaussianBlur in="shadowOffsetOuter1" result="shadowBlurOuter1" stdDeviation=".5"/>
			<feComposite in="shadowBlurOuter1" in2="SourceAlpha" operator="out" result="shadowBlurOuter1"/>
			<feColorMatrix in="shadowBlurOuter1" result="shadowMatrixOuter1" values="0 0 0 0 0 0 0 0 0 0 0 0 0 0 0 0 0 0 0.582908741 0"/>
			<feMorphology in="SourceAlpha" operator="dilate" radius="1" result="shadowSpreadOuter2"/>
			<feOffset dy="2" in="shadowSpreadOuter2" result="shadowOffsetOuter2"/>
			<feGaussianBlur in="shadowOffsetOuter2" result="shadowBlurOuter2" stdDeviation="1.5"/>
			<feComposite in="shadowBlurOuter2" in2="SourceAlpha" operator="out" result="shadowBlurOuter2"/>
			<feColorMatrix in="shadowBlurOuter2" result="shadowMatrixOuter2" values="0 0 0 0 0 0 0 0 0 0 0 0 0 0 0 0 0 0 0.179347826 0"/>
			<feMerge>
				<feMergeNode in="shadowMatrixOuter1"/>
				<feMergeNode in="shadowMatrixOuter2"/>
			</feMerge>
		</filter>
		<path id="toggle_switch-u" d="M6.132 11.269l4.71.26c.72-.08.899-.568.397-1.085L.592.3C.09-.216.027-.049.026.671L0 14.984c-.001.72.467.947 1.04.505l2.742-3.272c.095-.074.208-.146.327-.218l2.97 7.517c.165.41.664.595 1.113.413.449-.18.68-.66.514-1.07l-2.972-7.518.398-.073z"/>
		<filter id="toggle_switch-t" width="230.2%" height="175%" x="-65.1%" y="-22.5%" filterUnits="objectBoundingBox">
			<feMorphology in="SourceAlpha" operator="dilate" radius="1" result="shadowSpreadOuter1"/>
			<feOffset dy="1" in="shadowSpreadOuter1" result="shadowOffsetOuter1"/>
			<feGaussianBlur in="shadowOffsetOuter1" result="shadowBlurOuter1" stdDeviation=".5"/>
			<feComposite in="shadowBlurOuter1" in2="SourceAlpha" operator="out" result="shadowBlurOuter1"/>
			<feColorMatrix in="shadowBlurOuter1" result="shadowMatrixOuter1" values="0 0 0 0 0 0 0 0 0 0 0 0 0 0 0 0 0 0 0.582908741 0"/>
			<feMorphology in="SourceAlpha" operator="dilate" radius="1" result="shadowSpreadOuter2"/>
			<feOffset dy="2" in="shadowSpreadOuter2" result="shadowOffsetOuter2"/>
			<feGaussianBlur in="shadowOffsetOuter2" result="shadowBlurOuter2" stdDeviation="1.5"/>
			<feComposite in="shadowBlurOuter2" in2="SourceAlpha" operator="out" result="shadowBlurOuter2"/>
			<feColorMatrix in="shadowBlurOuter2" result="shadowMatrixOuter2" values="0 0 0 0 0 0 0 0 0 0 0 0 0 0 0 0 0 0 0.179347826 0"/>
			<feMerge>
				<feMergeNode in="shadowMatrixOuter1"/>
				<feMergeNode in="shadowMatrixOuter2"/>
			</feMerge>
		</filter>
		<circle id="toggle_switch-w" cx="43" cy="16" r="10"/>
		<filter id="toggle_switch-v" width="105%" height="110%" x="-2.5%" y="-2.5%" filterUnits="objectBoundingBox">
			<feOffset dy="1" in="SourceAlpha" result="shadowOffsetOuter1"/>
			<feComposite in="shadowOffsetOuter1" in2="SourceAlpha" operator="out" result="shadowOffsetOuter1"/>
			<feColorMatrix in="shadowOffsetOuter1" values="0 0 0 0 0 0 0 0 0 0 0 0 0 0 0 0 0 0 0.1 0"/>
		</filter>
	</defs>
	<g fill="none" fill-rule="evenodd">
		<path fill="#FFF" d="M-6643-255H8077v3264H-6643z"/>
		<g fill="#FFF" stroke="#72777D" transform="translate(498 478)">
			<rect width="61" height="33" x="-.5" y="-.5" rx="16.5"/>
			<circle cx="17" cy="16" r="10.5"/>
		</g>
		<text fill="#222" font-family="HelveticaNeue, Helvetica Neue" font-size="14" transform="translate(330 477)">
			<tspan x="0" y="33">Option with a really long</tspan> <tspan x="0" y="53.392">label today</tspan>
		</text>
		<text fill="#222" font-family="HelveticaNeue, Helvetica Neue" font-size="14" transform="translate(330 477)">
			<tspan x="0" y="109">Second option</tspan>
		</text>
		<text fill="#222" font-family="HelveticaNeue, Helvetica Neue" font-size="16" transform="translate(330 477)">
			<tspan x="0" y="15">Option 1</tspan>
		</text>
		<text fill="#222" font-family="HelveticaNeue, Helvetica Neue" font-size="16" transform="translate(330 477)">
			<tspan x="0" y="91">Option 2</tspan>
		</text>
		<text fill="#72777D" font-family="Lato-Regular, Lato, sans-serif" font-size="14" transform="translate(0 -11)">
			<tspan x="0" y="41"> DISABLED</tspan> <tspan x="0" y="97.4"> NORMAL</tspan> <tspan x="0" y="153.8">:HOVER</tspan> <tspan x="0" y="210.2">:ACTIVE</tspan> <tspan x="0" y="266.6">:FOCUS</tspan>
		</text>
		<path stroke="#D0021B" stroke-width="4" d="M497 494h-16m-89 44v16m136-170v16"/>
		<g stroke-linecap="square">
			<path stroke="#D0021B" d="M175.5 32.5v-15m1 15v-15m1 15v-15m1 15v-15"/>
			<path stroke="#50E3C2" d="M176.5 40.5v-7m-1 7v-7m3 7v-7m-1 7v-7m-1-17v-7m-1 7v-7m3 7v-7m-1 7v-7"/>
		</g>
		<path stroke="#50E3C2" stroke-linecap="square" d="M189.5 7.5h7m-7-1h7m-7 3h7m-7-1h7"/>
		<text fill="#D0021B" font-family="Lato-Regular, Lato, sans-serif" font-size="12" transform="translate(0 -11)">
			<tspan x="503" y="481.381">Minimum 1em margin</tspan>
		</text>
		<g transform="translate(397 233)">
			<rect width="59" height="34" x="1.5" y="1" fill="#36C" stroke="#FFF" stroke-linejoin="square" stroke-width="2" rx="17"/>
			<rect width="62" height="37" y="-.5" stroke="#36C" rx="18.5"/>
			<rect width="60" height="35" x="1" y=".5" stroke="#36C" stroke-linejoin="square" rx="17.5"/>
			<use fill="#000" filter="url(#toggle_switch-a)" xlink:href="#toggle_switch-b"/>
			<circle cx="43.5" cy="18" r="9.5" fill="#FFF" stroke="#FFF" stroke-linejoin="square"/>
		</g>
		<g transform="translate(397 65)">
			<rect width="61" height="33" x="-.5" y="-.5" fill="#36C" stroke="#36C" rx="16.5"/>
			<use fill="#000" filter="url(#toggle_switch-c)" xlink:href="#toggle_switch-d"/>
			<circle cx="43" cy="16" r="9.5" fill="#FFF" stroke="#FFF" stroke-linejoin="square"/>
		</g>
		<g transform="translate(397 121)">
			<rect width="61" height="33" x="-.5" y="-.5" fill="#447FF5" stroke="#447FF5" rx="16.5"/>
			<use fill="#000" filter="url(#toggle_switch-e)" xlink:href="#toggle_switch-f"/>
			<path fill="#FFF" stroke="#FFF" stroke-linejoin="square" d="M43 25.5a9.5 9.5 0 1 0 0-19 9.5 9.5 0 0 0 0 19z"/>
		</g>
		<g transform="translate(397 177)">
			<rect width="61" height="33" x="-.5" y="-.5" fill="#2A4B8D" stroke="#2A4B8D" rx="16.5"/>
			<use fill="#000" filter="url(#toggle_switch-g)" xlink:href="#toggle_switch-h"/>
			<circle cx="44" cy="16" r="9.5" fill="#FFF" stroke="#FFF" stroke-linejoin="square"/>
		</g>
		<g fill="#FFF" stroke="#72777D" transform="translate(497 401)">
			<rect width="61" height="33" x="-.5" y="-.5" rx="16.5"/>
			<circle cx="17" cy="16" r="10.5"/>
		</g>
		<g stroke="#36C" transform="translate(189 121)">
			<rect width="61" height="33" x="-.5" y="-.5" rx="16.5"/>
			<path d="M17 25.5a9.5 9.5 0 1 0 0-19 9.5 9.5 0 0 0 0 19z"/>
		</g>
		<g transform="translate(189 9)">
			<rect width="61" height="33" x="-.5" y="-.5" fill="#C8CCD1" stroke="#C8CCD1" rx="16.5"/>
			<circle cx="17" cy="16" r="9.5" stroke="#FFF"/>
		</g>
		<g transform="translate(397 9)">
			<rect width="61" height="33" x="-.5" y="-.5" fill="#C8CCD1" stroke="#C8CCD1" rx="16.5"/>
			<path fill="#FFF" d="M43 26c5.523 0 10-4.477 10-10S48.523 6 43 6s-10 4.477-10 10 4.477 10 10 10z"/>
		</g>
		<g transform="translate(190 178)">
			<use fill="#2A4B8D" xlink:href="#toggle_switch-i"/>
			<rect width="61" height="33" x="-.5" y="-.5" stroke="#2A4B8D" rx="16.5"/>
			<rect width="59" height="31" x=".5" y=".5" stroke="#2A4B8D" stroke-linejoin="square" rx="15.5"/>
			<path fill="#FFF" stroke="#36C" d="M17 25.5a9.5 9.5 0 1 0 0-19 9.5 9.5 0 0 0 0 19z"/>
		</g>
		<path stroke="#50E3C2" stroke-dasharray="1 3" stroke-linecap="square" d="M189.5 34.5v-45.011m7 45.011v-45.011m284.226 325.973V617.5m17-161v78.386"/>
		<g stroke="#36C" transform="translate(189 233)">
			<rect width="59" height="31" x=".5" y=".5" stroke-linejoin="square" rx="15.5"/>
			<rect width="61" height="33" x="-.5" y="-.5" rx="16"/>
			<circle cx="17" cy="16" r="9.5"/>
		</g>
		<path stroke="#50E3C2" stroke-dasharray="1 3" stroke-linecap="square" d="M332 349.5h202m-202 206h202m-202-79h202m-202-92h202"/>
		<g fill="#FFF" stroke="#72777D" transform="translate(497 351)">
			<rect width="61" height="33" x="-.5" y="-.5" rx="16.5"/>
			<circle cx="17" cy="16" r="10.5"/>
		</g>
		<text fill="#222" font-family="HelveticaNeue, Helvetica Neue" font-size="16" transform="translate(0 -11)">
			<tspan x="330" y="433">Option 2</tspan>
		</text>
		<path fill="#979797" fill-rule="nonzero" d="M328.5 349H320v1h9v-1h-.5zm-8 36.014h8.5v-1h-9v1h.5zM324 349.5v35.514h1V349h-1v.5z"/>
		<text fill="#D0021B" font-family="Lato-Regular, Lato, sans-serif" font-size="12" transform="translate(0 -11)">
			<tspan x="121" y="383">`vertical-align: middle` one-liner text</tspan>
		</text>
		<text fill="#D0021B" font-family="Lato-Regular, Lato, sans-serif" font-size="12" transform="translate(0 -11)">
			<tspan x="160" y="503">top align 2 lines or more text </tspan>
		</text>
		<g transform="translate(403 195)">
			<use fill="#000" filter="url(#toggle_switch-j)" xlink:href="#toggle_switch-k"/>
			<path fill="#FFF" stroke="#000" d="M18.095 12.378l.006 1.585v3.239c0 .257-.022.519-.066.787-.155.942-.512 1.811-1.212 3.158-1.01 1.946-1.165 2.297-1.165 2.853v.5h-8.99V24c0-.421-.472-1.169-1.853-3.03l-.079-.106a34.473 34.473 0 0 1-1.02-1.43c-.39-.583-.991-1.5-1.748-2.664l-.027-.043a1115.225 1115.225 0 0 1-2.009-3.1l-.199-.309c-.49-.83-.181-1.897.675-2.38.85-.48 1.932-.212 2.383.56L5.5 15V1.425C5.499.365 6.346-.5 7.396-.5c1.052 0 1.91.865 1.91 1.925v7.172a2.116 2.116 0 0 1 1.087-.298c.977 0 1.809.653 2.044 1.54.332-.216.73-.341 1.16-.341.926 0 1.716.584 1.996 1.399a1.7 1.7 0 0 1 .805-.201 1.69 1.69 0 0 1 1.697 1.682z"/>
		</g>
		<g transform="translate(403 137)">
			<use fill="#000" filter="url(#toggle_switch-l)" xlink:href="#toggle_switch-m"/>
			<path fill="#FFF" stroke="#000" d="M18.095 12.378l.006 1.585v3.239c0 .257-.022.519-.066.787-.155.942-.512 1.811-1.212 3.158-1.01 1.946-1.165 2.297-1.165 2.853v.5h-8.99V24c0-.421-.472-1.169-1.853-3.03l-.079-.106a34.473 34.473 0 0 1-1.02-1.43c-.39-.583-.991-1.5-1.748-2.664l-.027-.043a1115.225 1115.225 0 0 1-2.009-3.1l-.199-.309c-.49-.83-.181-1.897.675-2.38.85-.48 1.932-.212 2.383.56L5.5 15V1.425C5.499.365 6.346-.5 7.396-.5c1.052 0 1.91.865 1.91 1.925v7.172a2.116 2.116 0 0 1 1.087-.298c.977 0 1.809.653 2.044 1.54.332-.216.73-.341 1.16-.341.926 0 1.716.584 1.996 1.399a1.7 1.7 0 0 1 .805-.201 1.69 1.69 0 0 1 1.697 1.682z"/>
		</g>
		<g fill="#000" transform="translate(443 38)">
			<use filter="url(#toggle_switch-n)" xlink:href="#toggle_switch-o"/>
			<path stroke="#FFF" d="M6.448 11.787l2.721 6.886c.273.675-.094 1.44-.79 1.72-.696.283-1.491-.013-1.765-.692l-2.708-6.853-2.483 2.963-.077.075c-.901.695-1.848.236-1.846-.902L-.474.669c0-.618.027-.82.271-1.028.4-.34.694-.163 1.14.298l10.66 10.157c.793.817.432 1.805-.782 1.933l-4.367-.242z"/>
		</g>
		<g transform="translate(235 194)">
			<use fill="#000" filter="url(#toggle_switch-p)" xlink:href="#toggle_switch-q"/>
			<path fill="#FFF" stroke="#000" d="M18.095 12.378l.006 1.585v3.239c0 .257-.022.519-.066.787-.155.942-.512 1.811-1.212 3.158-1.01 1.946-1.165 2.297-1.165 2.853v.5h-8.99V24c0-.421-.472-1.169-1.853-3.03l-.079-.106a34.473 34.473 0 0 1-1.02-1.43c-.39-.583-.991-1.5-1.748-2.664l-.027-.043a1115.225 1115.225 0 0 1-2.009-3.1l-.199-.309c-.49-.83-.181-1.897.675-2.38.85-.48 1.932-.212 2.383.56L5.5 15V1.425C5.499.365 6.346-.5 7.396-.5c1.052 0 1.91.865 1.91 1.925v7.172a2.116 2.116 0 0 1 1.087-.298c.977 0 1.809.653 2.044 1.54.332-.216.73-.341 1.16-.341.926 0 1.716.584 1.996 1.399a1.7 1.7 0 0 1 .805-.201 1.69 1.69 0 0 1 1.697 1.682z"/>
		</g>
		<g transform="translate(235 137)">
			<use fill="#000" filter="url(#toggle_switch-r)" xlink:href="#toggle_switch-s"/>
			<path fill="#FFF" stroke="#000" d="M18.095 12.378l.006 1.585v3.239c0 .257-.022.519-.066.787-.155.942-.512 1.811-1.212 3.158-1.01 1.946-1.165 2.297-1.165 2.853v.5h-8.99V24c0-.421-.472-1.169-1.853-3.03l-.079-.106a34.473 34.473 0 0 1-1.02-1.43c-.39-.583-.991-1.5-1.748-2.664l-.027-.043a1115.225 1115.225 0 0 1-2.009-3.1l-.199-.309c-.49-.83-.181-1.897.675-2.38.85-.48 1.932-.212 2.383.56L5.5 15V1.425C5.499.365 6.346-.5 7.396-.5c1.052 0 1.91.865 1.91 1.925v7.172a2.116 2.116 0 0 1 1.087-.298c.977 0 1.809.653 2.044 1.54.332-.216.73-.341 1.16-.341.926 0 1.716.584 1.996 1.399a1.7 1.7 0 0 1 .805-.201 1.69 1.69 0 0 1 1.697 1.682z"/>
		</g>
		<g fill="#000" transform="translate(241 35)">
			<use filter="url(#toggle_switch-t)" xlink:href="#toggle_switch-u"/>
			<path stroke="#FFF" d="M6.448 11.787l2.721 6.886c.273.675-.094 1.44-.79 1.72-.696.283-1.491-.013-1.765-.692l-2.708-6.853-2.483 2.963-.077.075c-.901.695-1.848.236-1.846-.902L-.474.669c0-.618.027-.82.271-1.028.4-.34.694-.163 1.14.298l10.66 10.157c.793.817.432 1.805-.782 1.933l-4.367-.242z"/>
		</g>
		<g transform="translate(499 557)">
			<rect width="61" height="33" x="-.5" y="-.5" fill="#36C" stroke="#36C" rx="16.5"/>
			<use fill="#000" filter="url(#toggle_switch-v)" xlink:href="#toggle_switch-w"/>
			<circle cx="43" cy="16" r="9.5" fill="#FFF" stroke="#FFF" stroke-linejoin="square"/>
		</g>
		<g fill="#FFF" stroke="#72777D" transform="translate(189 65)">
			<rect width="61" height="33" x="-.5" y="-.5" rx="16.5"/>
			<circle cx="17" cy="16" r="10.5"/>
		</g>
	</g>
</svg>
