<?xml version="1.0" encoding="UTF-8"?>
<svg xmlns="http://www.w3.org/2000/svg" width="64" height="34" viewBox="0 0 64 34">
	<title>
		toggle_switches_intro_off
	</title>
	<g id="Artboard-page" fill="none" fill-rule="evenodd" stroke="none" stroke-width="1">
		<g id="WikimediaUI-components_overview" fill="#FFF" transform="translate(-6830 -255)">
			<path d="M0 0h14720v3264H0z"/>
			<g id="TOGGLE-SWITCH" stroke="#72777D" transform="translate(6640 143)">
				<g id="Toggle-Switch-X" transform="translate(0 113)">
					<g id="Toggle-switch-/-!default" transform="translate(192)">
						<path id="bg" d="M15.997.613a15.34 15.34 0 0 0-10.85 4.354C2.344 7.695.584 11.488.5 16.009c0 4.271 1.735 8.146 4.54 10.951A15.451 15.451 0 0 0 16 31.5h28c4.226 0 8.056-1.69 10.852-4.431 2.804-2.748 4.564-6.554 4.648-11.078 0-4.154-1.734-7.935-4.536-10.682a15.785 15.785 0 0 0-10.968-4.5l-28-.196z"/>
						<circle id="grip" cx="17" cy="16" r="9.5"/>
					</g>
				</g>
			</g>
		</g>
	</g>
</svg>
