<?xml version="1.0" encoding="UTF-8"?>
<svg xmlns="http://www.w3.org/2000/svg" xmlns:xlink="http://www.w3.org/1999/xlink" width="617" height="620" viewBox="0 0 617 620">
    <defs>
        <rect id="a" width="60" height="32" rx="16"/>
        <circle id="b" cx="17" cy="16" r="10"/>
        <rect id="c" width="61" height="36" x=".5" rx="18"/>
        <circle id="e" cx="43.5" cy="18" r="10"/>
        <filter id="d" width="105%" height="110%" x="-2.5%" y="-2.5%" filterUnits="objectBoundingBox">
            <feOffset dy="1" in="SourceAlpha" result="shadowOffsetOuter1"/>
            <feComposite in="shadowOffsetOuter1" in2="SourceAlpha" operator="out" result="shadowOffsetOuter1"/>
            <feColorMatrix in="shadowOffsetOuter1" values="0 0 0 0 0 0 0 0 0 0 0 0 0 0 0 0 0 0 0.1 0"/>
        </filter>
        <rect id="f" width="60" height="32" rx="16"/>
        <circle id="h" cx="43" cy="16" r="10"/>
        <filter id="g" width="105%" height="110%" x="-2.5%" y="-2.5%" filterUnits="objectBoundingBox">
            <feOffset dy="1" in="SourceAlpha" result="shadowOffsetOuter1"/>
            <feComposite in="shadowOffsetOuter1" in2="SourceAlpha" operator="out" result="shadowOffsetOuter1"/>
            <feColorMatrix in="shadowOffsetOuter1" values="0 0 0 0 0 0 0 0 0 0 0 0 0 0 0 0 0 0 0.1 0"/>
        </filter>
        <rect id="i" width="60" height="32" rx="16"/>
        <path id="k" d="M43 26c5.523 0 10-4.477 10-10S48.523 6 43 6s-10 4.477-10 10 4.477 10 10 10z"/>
        <filter id="j" width="105%" height="110%" x="-2.5%" y="-2.5%" filterUnits="objectBoundingBox">
            <feOffset dy="1" in="SourceAlpha" result="shadowOffsetOuter1"/>
            <feComposite in="shadowOffsetOuter1" in2="SourceAlpha" operator="out" result="shadowOffsetOuter1"/>
            <feColorMatrix in="shadowOffsetOuter1" values="0 0 0 0 0 0 0 0 0 0 0 0 0 0 0 0 0 0 0.1 0"/>
        </filter>
        <rect id="l" width="60" height="32" rx="16"/>
        <circle id="n" cx="44" cy="16" r="10"/>
        <filter id="m" width="105%" height="110%" x="-2.5%" y="-2.5%" filterUnits="objectBoundingBox">
            <feOffset dy="1" in="SourceAlpha" result="shadowOffsetOuter1"/>
            <feComposite in="shadowOffsetOuter1" in2="SourceAlpha" operator="out" result="shadowOffsetOuter1"/>
            <feColorMatrix in="shadowOffsetOuter1" values="0 0 0 0 0 0 0 0 0 0 0 0 0 0 0 0 0 0 0.1 0"/>
        </filter>
        <rect id="o" width="60" height="32" rx="16"/>
        <circle id="p" cx="17" cy="16" r="10"/>
        <rect id="q" width="60" height="32" rx="16"/>
        <rect id="r" width="60" height="32" rx="16"/>
        <rect id="s" width="60" height="32" rx="16"/>
        <path id="t" d="M17 26c5.523 0 10-4.477 10-10S22.523 6 17 6 7 10.477 7 16s4.477 10 10 10z"/>
        <rect id="u" width="60" height="32" rx="16"/>
        <circle id="v" cx="17" cy="16" r="10"/>
        <path id="x" d="M17.595 12.379a1.19 1.19 0 0 0-1.197-1.183 1.19 1.19 0 0 0-1.196 1.179v-.826c0-.857-.719-1.551-1.606-1.551-.886 0-1.592.694-1.592 1.55V10.35c0-.856-.728-1.55-1.611-1.55s-1.586.694-1.586 1.55V1.425C8.807.638 8.168 0 7.397 0c-.772 0-1.398.638-1.398 1.425v15.038l-3.603-4.659c-.346-.586-1.126-.779-1.742-.431-.617.348-.836 1.105-.49 1.691 0 0 2.817 4.369 3.967 6.093C5.281 20.882 7.17 23.01 7.17 24h7.989c0-1.672 2.443-4.283 2.443-6.798v-3.24l-.006-1.583z"/>
        <filter id="w" width="185.2%" height="162.5%" x="-42.6%" y="-18.8%" filterUnits="objectBoundingBox">
            <feMorphology in="SourceAlpha" operator="dilate" radius="1" result="shadowSpreadOuter1"/>
            <feOffset dy="1" in="shadowSpreadOuter1" result="shadowOffsetOuter1"/>
            <feGaussianBlur in="shadowOffsetOuter1" result="shadowBlurOuter1" stdDeviation=".5"/>
            <feComposite in="shadowBlurOuter1" in2="SourceAlpha" operator="out" result="shadowBlurOuter1"/>
            <feColorMatrix in="shadowBlurOuter1" result="shadowMatrixOuter1" values="0 0 0 0 0 0 0 0 0 0 0 0 0 0 0 0 0 0 0.582908741 0"/>
            <feMorphology in="SourceAlpha" operator="dilate" radius="1" result="shadowSpreadOuter2"/>
            <feOffset dy="2" in="shadowSpreadOuter2" result="shadowOffsetOuter2"/>
            <feGaussianBlur in="shadowOffsetOuter2" result="shadowBlurOuter2" stdDeviation="1.5"/>
            <feComposite in="shadowBlurOuter2" in2="SourceAlpha" operator="out" result="shadowBlurOuter2"/>
            <feColorMatrix in="shadowBlurOuter2" result="shadowMatrixOuter2" values="0 0 0 0 0 0 0 0 0 0 0 0 0 0 0 0 0 0 0.179347826 0"/>
            <feMerge>
                <feMergeNode in="shadowMatrixOuter1"/>
                <feMergeNode in="shadowMatrixOuter2"/>
            </feMerge>
        </filter>
        <path id="z" d="M17.595 12.379a1.19 1.19 0 0 0-1.197-1.183 1.19 1.19 0 0 0-1.196 1.179v-.826c0-.857-.719-1.551-1.606-1.551-.886 0-1.592.694-1.592 1.55V10.35c0-.856-.728-1.55-1.611-1.55s-1.586.694-1.586 1.55V1.425C8.807.638 8.168 0 7.397 0c-.772 0-1.398.638-1.398 1.425v15.038l-3.603-4.659c-.346-.586-1.126-.779-1.742-.431-.617.348-.836 1.105-.49 1.691 0 0 2.817 4.369 3.967 6.093C5.281 20.882 7.17 23.01 7.17 24h7.989c0-1.672 2.443-4.283 2.443-6.798v-3.24l-.006-1.583z"/>
        <filter id="y" width="185.2%" height="162.5%" x="-42.6%" y="-18.8%" filterUnits="objectBoundingBox">
            <feMorphology in="SourceAlpha" operator="dilate" radius="1" result="shadowSpreadOuter1"/>
            <feOffset dy="1" in="shadowSpreadOuter1" result="shadowOffsetOuter1"/>
            <feGaussianBlur in="shadowOffsetOuter1" result="shadowBlurOuter1" stdDeviation=".5"/>
            <feComposite in="shadowBlurOuter1" in2="SourceAlpha" operator="out" result="shadowBlurOuter1"/>
            <feColorMatrix in="shadowBlurOuter1" result="shadowMatrixOuter1" values="0 0 0 0 0 0 0 0 0 0 0 0 0 0 0 0 0 0 0.582908741 0"/>
            <feMorphology in="SourceAlpha" operator="dilate" radius="1" result="shadowSpreadOuter2"/>
            <feOffset dy="2" in="shadowSpreadOuter2" result="shadowOffsetOuter2"/>
            <feGaussianBlur in="shadowOffsetOuter2" result="shadowBlurOuter2" stdDeviation="1.5"/>
            <feComposite in="shadowBlurOuter2" in2="SourceAlpha" operator="out" result="shadowBlurOuter2"/>
            <feColorMatrix in="shadowBlurOuter2" result="shadowMatrixOuter2" values="0 0 0 0 0 0 0 0 0 0 0 0 0 0 0 0 0 0 0.179347826 0"/>
            <feMerge>
                <feMergeNode in="shadowMatrixOuter1"/>
                <feMergeNode in="shadowMatrixOuter2"/>
            </feMerge>
        </filter>
        <path id="B" d="M6.132 11.269l4.71.26c.72-.08.899-.568.397-1.085L.592.3C.09-.216.027-.049.026.671L0 14.984c-.001.72.467.947 1.04.505l2.742-3.272c.095-.074.208-.146.327-.218l2.97 7.517c.165.41.664.595 1.113.413.449-.18.68-.66.514-1.07l-2.972-7.518.398-.073z"/>
        <filter id="A" width="230.2%" height="175%" x="-65.1%" y="-22.5%" filterUnits="objectBoundingBox">
            <feMorphology in="SourceAlpha" operator="dilate" radius="1" result="shadowSpreadOuter1"/>
            <feOffset dy="1" in="shadowSpreadOuter1" result="shadowOffsetOuter1"/>
            <feGaussianBlur in="shadowOffsetOuter1" result="shadowBlurOuter1" stdDeviation=".5"/>
            <feComposite in="shadowBlurOuter1" in2="SourceAlpha" operator="out" result="shadowBlurOuter1"/>
            <feColorMatrix in="shadowBlurOuter1" result="shadowMatrixOuter1" values="0 0 0 0 0 0 0 0 0 0 0 0 0 0 0 0 0 0 0.582908741 0"/>
            <feMorphology in="SourceAlpha" operator="dilate" radius="1" result="shadowSpreadOuter2"/>
            <feOffset dy="2" in="shadowSpreadOuter2" result="shadowOffsetOuter2"/>
            <feGaussianBlur in="shadowOffsetOuter2" result="shadowBlurOuter2" stdDeviation="1.5"/>
            <feComposite in="shadowBlurOuter2" in2="SourceAlpha" operator="out" result="shadowBlurOuter2"/>
            <feColorMatrix in="shadowBlurOuter2" result="shadowMatrixOuter2" values="0 0 0 0 0 0 0 0 0 0 0 0 0 0 0 0 0 0 0.179347826 0"/>
            <feMerge>
                <feMergeNode in="shadowMatrixOuter1"/>
                <feMergeNode in="shadowMatrixOuter2"/>
            </feMerge>
        </filter>
        <path id="D" d="M17.595 12.379a1.19 1.19 0 0 0-1.197-1.183 1.19 1.19 0 0 0-1.196 1.179v-.826c0-.857-.719-1.551-1.606-1.551-.886 0-1.592.694-1.592 1.55V10.35c0-.856-.728-1.55-1.611-1.55s-1.586.694-1.586 1.55V1.425C8.807.638 8.168 0 7.397 0c-.772 0-1.398.638-1.398 1.425v15.038l-3.603-4.659c-.346-.586-1.126-.779-1.742-.431-.617.348-.836 1.105-.49 1.691 0 0 2.817 4.369 3.967 6.093C5.281 20.882 7.17 23.01 7.17 24h7.989c0-1.672 2.443-4.283 2.443-6.798v-3.24l-.006-1.583z"/>
        <filter id="C" width="185.2%" height="162.5%" x="-42.6%" y="-18.8%" filterUnits="objectBoundingBox">
            <feMorphology in="SourceAlpha" operator="dilate" radius="1" result="shadowSpreadOuter1"/>
            <feOffset dy="1" in="shadowSpreadOuter1" result="shadowOffsetOuter1"/>
            <feGaussianBlur in="shadowOffsetOuter1" result="shadowBlurOuter1" stdDeviation=".5"/>
            <feComposite in="shadowBlurOuter1" in2="SourceAlpha" operator="out" result="shadowBlurOuter1"/>
            <feColorMatrix in="shadowBlurOuter1" result="shadowMatrixOuter1" values="0 0 0 0 0 0 0 0 0 0 0 0 0 0 0 0 0 0 0.582908741 0"/>
            <feMorphology in="SourceAlpha" operator="dilate" radius="1" result="shadowSpreadOuter2"/>
            <feOffset dy="2" in="shadowSpreadOuter2" result="shadowOffsetOuter2"/>
            <feGaussianBlur in="shadowOffsetOuter2" result="shadowBlurOuter2" stdDeviation="1.5"/>
            <feComposite in="shadowBlurOuter2" in2="SourceAlpha" operator="out" result="shadowBlurOuter2"/>
            <feColorMatrix in="shadowBlurOuter2" result="shadowMatrixOuter2" values="0 0 0 0 0 0 0 0 0 0 0 0 0 0 0 0 0 0 0.179347826 0"/>
            <feMerge>
                <feMergeNode in="shadowMatrixOuter1"/>
                <feMergeNode in="shadowMatrixOuter2"/>
            </feMerge>
        </filter>
        <path id="F" d="M17.595 12.379a1.19 1.19 0 0 0-1.197-1.183 1.19 1.19 0 0 0-1.196 1.179v-.826c0-.857-.719-1.551-1.606-1.551-.886 0-1.592.694-1.592 1.55V10.35c0-.856-.728-1.55-1.611-1.55s-1.586.694-1.586 1.55V1.425C8.807.638 8.168 0 7.397 0c-.772 0-1.398.638-1.398 1.425v15.038l-3.603-4.659c-.346-.586-1.126-.779-1.742-.431-.617.348-.836 1.105-.49 1.691 0 0 2.817 4.369 3.967 6.093C5.281 20.882 7.17 23.01 7.17 24h7.989c0-1.672 2.443-4.283 2.443-6.798v-3.24l-.006-1.583z"/>
        <filter id="E" width="185.2%" height="162.5%" x="-42.6%" y="-18.8%" filterUnits="objectBoundingBox">
            <feMorphology in="SourceAlpha" operator="dilate" radius="1" result="shadowSpreadOuter1"/>
            <feOffset dy="1" in="shadowSpreadOuter1" result="shadowOffsetOuter1"/>
            <feGaussianBlur in="shadowOffsetOuter1" result="shadowBlurOuter1" stdDeviation=".5"/>
            <feComposite in="shadowBlurOuter1" in2="SourceAlpha" operator="out" result="shadowBlurOuter1"/>
            <feColorMatrix in="shadowBlurOuter1" result="shadowMatrixOuter1" values="0 0 0 0 0 0 0 0 0 0 0 0 0 0 0 0 0 0 0.582908741 0"/>
            <feMorphology in="SourceAlpha" operator="dilate" radius="1" result="shadowSpreadOuter2"/>
            <feOffset dy="2" in="shadowSpreadOuter2" result="shadowOffsetOuter2"/>
            <feGaussianBlur in="shadowOffsetOuter2" result="shadowBlurOuter2" stdDeviation="1.5"/>
            <feComposite in="shadowBlurOuter2" in2="SourceAlpha" operator="out" result="shadowBlurOuter2"/>
            <feColorMatrix in="shadowBlurOuter2" result="shadowMatrixOuter2" values="0 0 0 0 0 0 0 0 0 0 0 0 0 0 0 0 0 0 0.179347826 0"/>
            <feMerge>
                <feMergeNode in="shadowMatrixOuter1"/>
                <feMergeNode in="shadowMatrixOuter2"/>
            </feMerge>
        </filter>
        <path id="H" d="M6.132 11.269l4.71.26c.72-.08.899-.568.397-1.085L.592.3C.09-.216.027-.049.026.671L0 14.984c-.001.72.467.947 1.04.505l2.742-3.272c.095-.074.208-.146.327-.218l2.97 7.517c.165.41.664.595 1.113.413.449-.18.68-.66.514-1.07l-2.972-7.518.398-.073z"/>
        <filter id="G" width="230.2%" height="175%" x="-65.1%" y="-22.5%" filterUnits="objectBoundingBox">
            <feMorphology in="SourceAlpha" operator="dilate" radius="1" result="shadowSpreadOuter1"/>
            <feOffset dy="1" in="shadowSpreadOuter1" result="shadowOffsetOuter1"/>
            <feGaussianBlur in="shadowOffsetOuter1" result="shadowBlurOuter1" stdDeviation=".5"/>
            <feComposite in="shadowBlurOuter1" in2="SourceAlpha" operator="out" result="shadowBlurOuter1"/>
            <feColorMatrix in="shadowBlurOuter1" result="shadowMatrixOuter1" values="0 0 0 0 0 0 0 0 0 0 0 0 0 0 0 0 0 0 0.582908741 0"/>
            <feMorphology in="SourceAlpha" operator="dilate" radius="1" result="shadowSpreadOuter2"/>
            <feOffset dy="2" in="shadowSpreadOuter2" result="shadowOffsetOuter2"/>
            <feGaussianBlur in="shadowOffsetOuter2" result="shadowBlurOuter2" stdDeviation="1.5"/>
            <feComposite in="shadowBlurOuter2" in2="SourceAlpha" operator="out" result="shadowBlurOuter2"/>
            <feColorMatrix in="shadowBlurOuter2" result="shadowMatrixOuter2" values="0 0 0 0 0 0 0 0 0 0 0 0 0 0 0 0 0 0 0.179347826 0"/>
            <feMerge>
                <feMergeNode in="shadowMatrixOuter1"/>
                <feMergeNode in="shadowMatrixOuter2"/>
            </feMerge>
        </filter>
        <rect id="I" width="60" height="32" rx="16"/>
        <circle id="K" cx="43" cy="16" r="10"/>
        <filter id="J" width="105%" height="110%" x="-2.5%" y="-2.5%" filterUnits="objectBoundingBox">
            <feOffset dy="1" in="SourceAlpha" result="shadowOffsetOuter1"/>
            <feComposite in="shadowOffsetOuter1" in2="SourceAlpha" operator="out" result="shadowOffsetOuter1"/>
            <feColorMatrix in="shadowOffsetOuter1" values="0 0 0 0 0 0 0 0 0 0 0 0 0 0 0 0 0 0 0.1 0"/>
        </filter>
        <rect id="L" width="60" height="32" rx="16"/>
        <circle id="M" cx="17" cy="16" r="10"/>
    </defs>
    <g fill="none" fill-rule="evenodd">
        <g transform="translate(498 478)">
            <use fill="#FFF" xlink:href="#a"/>
            <rect width="61" height="33" x="-.5" y="-.5" stroke="#72777D" rx="16.5"/>
        </g>
        <g transform="translate(498 478)">
            <use fill="#FFF" xlink:href="#b"/>
            <circle cx="17" cy="16" r="10.5" stroke="#72777D"/>
        </g>
        <text fill="#222" font-family="HelveticaNeue, Helvetica Neue" font-size="14" transform="translate(330 477)">
            <tspan x="0" y="33">Option with a really long</tspan> <tspan x="0" y="53.392">label today</tspan>
        </text>
        <text fill="#222" font-family="HelveticaNeue, Helvetica Neue" font-size="14" transform="translate(330 477)">
            <tspan x="0" y="109">Second option</tspan>
        </text>
        <text fill="#222" font-family="HelveticaNeue, Helvetica Neue" font-size="16" transform="translate(330 477)">
            <tspan x="0" y="15">Option 1</tspan>
        </text>
        <text fill="#222" font-family="HelveticaNeue, Helvetica Neue" font-size="16" transform="translate(330 477)">
            <tspan x="0" y="91">Option 2</tspan>
        </text>
        <text fill="#72777D" font-family="Lato-Regular, Lato" font-size="14" transform="translate(0 -11)">
            <tspan x="0" y="41">DISABLED</tspan> <tspan x="0" y="97.4"> NORMAL</tspan> <tspan x="0" y="153.8">:HOVER</tspan> <tspan x="0" y="210.2">:ACTIVE</tspan> <tspan x="0" y="266.6">:FOCUS</tspan>
        </text>
        <path stroke="#D0011B" stroke-width="4" d="M497 494h-16m-89 44v16m136-170v16"/>
        <g stroke-linecap="square">
            <path stroke="#D0011B" d="M175.5 32.5v-15m1 15v-15m1 15v-15m1 15v-15"/>
            <path stroke="#50E3C2" d="M176.5 40.5v-7m-1 7v-7m3 7v-7m-1 7v-7m-1-17v-7m-1 7v-7m3 7v-7m-1 7v-7"/>
        </g>
        <path stroke="#50E3C2" stroke-linecap="square" d="M189.5 7.5h7m-7-1h7m-7 3h7m-7-1h7"/>
        <text fill="#D0011B" font-family="Lato-Regular, Lato" font-size="12" transform="translate(0 -11)">
            <tspan x="503" y="481.381">Minimum 1em margin</tspan>
        </text>
        <g transform="translate(397 233)">
            <use fill="#36C" xlink:href="#c"/>
            <rect width="59" height="34" x="1.5" y="1" stroke="#FFF" stroke-width="2" rx="17"/>
            <rect width="62" height="37" y="-.5" stroke="#36C" rx="18.5"/>
            <rect width="60" height="35" x="1" y=".5" stroke="#36C" rx="17.5"/>
        </g>
        <g transform="translate(397 233)">
            <use fill="#000" filter="url(#d)" xlink:href="#e"/>
            <use fill="#FFF" xlink:href="#e"/>
            <circle cx="43.5" cy="18" r="9.5" stroke="#FFF"/>
        </g>
        <g transform="translate(397 65)">
            <use fill="#36C" xlink:href="#f"/>
            <rect width="61" height="33" x="-.5" y="-.5" stroke="#36C" rx="16.5"/>
        </g>
        <g transform="translate(397 65)">
            <use fill="#000" filter="url(#g)" xlink:href="#h"/>
            <use fill="#FFF" xlink:href="#h"/>
            <circle cx="43" cy="16" r="9.5" stroke="#FFF"/>
        </g>
        <g transform="translate(397 121)">
            <use fill="#447FF5" xlink:href="#i"/>
            <rect width="61" height="33" x="-.5" y="-.5" stroke="#447FF5" rx="16.5"/>
        </g>
        <g transform="translate(397 121)">
            <use fill="#000" filter="url(#j)" xlink:href="#k"/>
            <use fill="#FFF" xlink:href="#k"/>
            <path stroke="#FFF" d="M43 25.5a9.5 9.5 0 1 1 0-19 9.5 9.5 0 0 1 0 19z"/>
        </g>
        <g transform="translate(397 177)">
            <use fill="#2A4B8D" xlink:href="#l"/>
            <rect width="61" height="33" x="-.5" y="-.5" stroke="#2A4B8D" rx="16.5"/>
        </g>
        <g transform="translate(397 177)">
            <use fill="#000" filter="url(#m)" xlink:href="#n"/>
            <use fill="#FFF" xlink:href="#n"/>
            <circle cx="44" cy="16" r="9.5" stroke="#FFF"/>
        </g>
        <g transform="translate(497 401)">
            <use fill="#FFF" xlink:href="#o"/>
            <rect width="61" height="33" x="-.5" y="-.5" stroke="#72777D" rx="16.5"/>
        </g>
        <g transform="translate(497 401)">
            <use fill="#FFF" xlink:href="#p"/>
            <circle cx="17" cy="16" r="10.5" stroke="#72777D"/>
        </g>
        <g stroke="#36C" transform="translate(189 121)">
            <rect width="61" height="33" x="-.5" y="-.5" rx="16.5"/>
            <path d="M17 25.5a9.5 9.5 0 1 1 0-19 9.5 9.5 0 0 1 0 19z"/>
        </g>
        <g transform="translate(189 9)">
            <use fill="#C8CCD1" xlink:href="#q"/>
            <rect width="61" height="33" x="-.5" y="-.5" stroke="#C8CCD1" rx="16.5"/>
            <ellipse cx="17" cy="16" stroke="#FFF" rx="9.5" ry="9.5"/>
        </g>
        <g transform="translate(397 9)">
            <use fill="#C8CCD1" xlink:href="#r"/>
            <rect width="61" height="33" x="-.5" y="-.5" stroke="#C8CCD1" rx="16.5"/>
        </g>
        <path fill="#FFF" d="M440 35c5.523 0 10-4.477 10-10s-4.477-10-10-10-10 4.477-10 10 4.477 10 10 10z"/>
        <g transform="translate(190 178)">
            <use fill="#2A4B8D" xlink:href="#s"/>
            <rect width="61" height="33" x="-.5" y="-.5" stroke="#2A4B8D" rx="16.5"/>
            <rect width="59" height="31" x=".5" y=".5" stroke="#2A4B8D" rx="15.5"/>
        </g>
        <g transform="translate(190 178)">
            <use fill="#FFF" xlink:href="#t"/>
            <path stroke="#36C" d="M17 25.5a9.5 9.5 0 1 1 0-19 9.5 9.5 0 0 1 0 19z"/>
        </g>
        <path stroke="#50E3C2" stroke-dasharray="1,3" stroke-linecap="square" d="M189.5 34.5v-45.011m7 45.011v-45.011m284.226 325.973V617.5m17-161v78.386"/>
        <g stroke="#36C" transform="translate(189 233)">
            <rect width="59" height="31" x=".5" y=".5" rx="15.5"/>
            <rect width="61" height="33" x="-.5" y="-.5" rx="16"/>
            <circle cx="17" cy="16" r="9.5"/>
        </g>
        <path stroke="#50E3C2" stroke-dasharray="1,3" stroke-linecap="square" d="M332 349.5h202m-202 206h202m-202-79h202m-202-92h202"/>
        <g transform="translate(497 351)">
            <use fill="#FFF" xlink:href="#u"/>
            <rect width="61" height="33" x="-.5" y="-.5" stroke="#72777D" rx="16.5"/>
        </g>
        <g transform="translate(497 351)">
            <use fill="#FFF" xlink:href="#v"/>
            <circle cx="17" cy="16" r="10.5" stroke="#72777D"/>
        </g>
        <text fill="#222" font-family="HelveticaNeue, Helvetica Neue" font-size="16" transform="translate(0 -11)">
            <tspan x="330" y="433">Option 2</tspan>
        </text>
        <path stroke="#979797" stroke-linecap="square" d="M324.5 349.5v35.014m3-35.014h-6m6 35.014h-6"/>
        <text fill="#D0011B" font-family="Lato-Regular, Lato" font-size="12" transform="translate(0 -11)">
            <tspan x="121" y="383">`vertical-align: middle` one-liner text</tspan>
        </text>
        <text fill="#D0011B" font-family="Lato-Regular, Lato" font-size="12" transform="translate(0 -11)">
            <tspan x="160" y="503">top align 2 lines or more text</tspan>
        </text>
        <g transform="translate(403 195)">
            <use fill="#000" filter="url(#w)" xlink:href="#x"/>
            <use fill="#FFF" xlink:href="#x"/>
            <path stroke="#000" d="M18.095 12.378a1.69 1.69 0 0 0-1.697-1.682 1.7 1.7 0 0 0-.805.201 2.102 2.102 0 0 0-1.997-1.4c-.429 0-.827.126-1.159.342-.235-.887-1.067-1.54-2.044-1.54-.398 0-.77.11-1.086.298V1.425c0-1.06-.86-1.925-1.91-1.925-1.05 0-1.898.864-1.898 1.925V15L2.79 11.5c-.451-.773-1.533-1.041-2.383-.562-.856.484-1.165 1.55-.675 2.381l.199.309a1248.604 1248.604 0 0 0 2.036 3.143 341.137 341.137 0 0 0 1.747 2.665c.264.396.545.785 1.021 1.429l.08.106c1.38 1.861 1.853 2.609 1.853 3.03v.5h8.989V24c0-.556.155-.907 1.165-2.853.7-1.347 1.057-2.216 1.212-3.158a4.86 4.86 0 0 0 .066-.787v-3.24l-.006-1.584z"/>
        </g>
        <g transform="translate(403 137)">
            <use fill="#000" filter="url(#y)" xlink:href="#z"/>
            <use fill="#FFF" xlink:href="#z"/>
            <path stroke="#000" d="M18.095 12.378a1.69 1.69 0 0 0-1.697-1.682 1.7 1.7 0 0 0-.805.201 2.102 2.102 0 0 0-1.997-1.4c-.429 0-.827.126-1.159.342-.235-.887-1.067-1.54-2.044-1.54-.398 0-.77.11-1.086.298V1.425c0-1.06-.86-1.925-1.91-1.925-1.05 0-1.898.864-1.898 1.925V15L2.79 11.5c-.451-.773-1.533-1.041-2.383-.562-.856.484-1.165 1.55-.675 2.381l.199.309a1248.604 1248.604 0 0 0 2.036 3.143 341.137 341.137 0 0 0 1.747 2.665c.264.396.545.785 1.021 1.429l.08.106c1.38 1.861 1.853 2.609 1.853 3.03v.5h8.989V24c0-.556.155-.907 1.165-2.853.7-1.347 1.057-2.216 1.212-3.158a4.86 4.86 0 0 0 .066-.787v-3.24l-.006-1.584z"/>
        </g>
        <g transform="translate(443 38)">
            <use fill="#000" filter="url(#A)" xlink:href="#B"/>
            <use fill="#000" xlink:href="#B"/>
            <path stroke="#FFF" d="M6.448 11.787l4.367.242c1.214-.128 1.575-1.116.783-1.933L.937-.061C.49-.52.197-.699-.203-.359c-.244.208-.27.41-.271 1.028L-.5 14.984c-.002 1.138.945 1.597 1.846.902l.077-.075 2.483-2.963L6.614 19.7c.274.68 1.07.975 1.766.692.695-.28 1.062-1.045.789-1.72l-2.72-6.886z"/>
        </g>
        <g transform="translate(235 194)">
            <use fill="#000" filter="url(#C)" xlink:href="#D"/>
            <use fill="#FFF" xlink:href="#D"/>
            <path stroke="#000" d="M18.095 12.378a1.69 1.69 0 0 0-1.697-1.682 1.7 1.7 0 0 0-.805.201 2.102 2.102 0 0 0-1.997-1.4c-.429 0-.827.126-1.159.342-.235-.887-1.067-1.54-2.044-1.54-.398 0-.77.11-1.086.298V1.425c0-1.06-.86-1.925-1.91-1.925-1.05 0-1.898.864-1.898 1.925V15L2.79 11.5c-.451-.773-1.533-1.041-2.383-.562-.856.484-1.165 1.55-.675 2.381l.199.309a1248.604 1248.604 0 0 0 2.036 3.143 341.137 341.137 0 0 0 1.747 2.665c.264.396.545.785 1.021 1.429l.08.106c1.38 1.861 1.853 2.609 1.853 3.03v.5h8.989V24c0-.556.155-.907 1.165-2.853.7-1.347 1.057-2.216 1.212-3.158a4.86 4.86 0 0 0 .066-.787v-3.24l-.006-1.584z"/>
        </g>
        <g transform="translate(235 137)">
            <use fill="#000" filter="url(#E)" xlink:href="#F"/>
            <use fill="#FFF" xlink:href="#F"/>
            <path stroke="#000" d="M18.095 12.378a1.69 1.69 0 0 0-1.697-1.682 1.7 1.7 0 0 0-.805.201 2.102 2.102 0 0 0-1.997-1.4c-.429 0-.827.126-1.159.342-.235-.887-1.067-1.54-2.044-1.54-.398 0-.77.11-1.086.298V1.425c0-1.06-.86-1.925-1.91-1.925-1.05 0-1.898.864-1.898 1.925V15L2.79 11.5c-.451-.773-1.533-1.041-2.383-.562-.856.484-1.165 1.55-.675 2.381l.199.309a1248.604 1248.604 0 0 0 2.036 3.143 341.137 341.137 0 0 0 1.747 2.665c.264.396.545.785 1.021 1.429l.08.106c1.38 1.861 1.853 2.609 1.853 3.03v.5h8.989V24c0-.556.155-.907 1.165-2.853.7-1.347 1.057-2.216 1.212-3.158a4.86 4.86 0 0 0 .066-.787v-3.24l-.006-1.584z"/>
        </g>
        <g transform="translate(241 35)">
            <use fill="#000" filter="url(#G)" xlink:href="#H"/>
            <use fill="#000" xlink:href="#H"/>
            <path stroke="#FFF" d="M6.448 11.787l4.367.242c1.214-.128 1.575-1.116.783-1.933L.937-.061C.49-.52.197-.699-.203-.359c-.244.208-.27.41-.271 1.028L-.5 14.984c-.002 1.138.945 1.597 1.846.902l.077-.075 2.483-2.963L6.614 19.7c.274.68 1.07.975 1.766.692.695-.28 1.062-1.045.789-1.72l-2.72-6.886z"/>
        </g>
        <g transform="translate(499 557)">
            <use fill="#36C" xlink:href="#I"/>
            <rect width="61" height="33" x="-.5" y="-.5" stroke="#36C" rx="16.5"/>
        </g>
        <g transform="translate(499 557)">
            <use fill="#000" filter="url(#J)" xlink:href="#K"/>
            <use fill="#FFF" xlink:href="#K"/>
            <circle cx="43" cy="16" r="9.5" stroke="#FFF"/>
        </g>
        <g transform="translate(189 65)">
            <use fill="#FFF" xlink:href="#L"/>
            <rect width="61" height="33" x="-.5" y="-.5" stroke="#72777D" rx="16.5"/>
        </g>
        <g transform="translate(189 65)">
            <use fill="#FFF" xlink:href="#M"/>
            <circle cx="17" cy="16" r="10.5" stroke="#72777D"/>
        </g>
    </g>
</svg>
