<?xml version="1.0" encoding="UTF-8"?>
<svg xmlns="http://www.w3.org/2000/svg" xmlns:xlink="http://www.w3.org/1999/xlink" width="484" height="310" viewBox="0 0 484 310">
	<title>
		toggle_switches_states
	</title>
	<defs>
		<filter id="filter-12" width="173.9%" height="154.2%" x="-36.9%" y="-18.8%" filterUnits="objectBoundingBox">
			<feMorphology in="SourceAlpha" operator="dilate" radius="1" result="shadowSpreadOuter1"/>
			<feOffset dy="1" in="shadowSpreadOuter1" result="shadowOffsetOuter1"/>
			<feGaussianBlur in="shadowOffsetOuter1" result="shadowBlurOuter1" stdDeviation=".5"/>
			<feComposite in="shadowBlurOuter1" in2="SourceAlpha" operator="out" result="shadowBlurOuter1"/>
			<feColorMatrix in="shadowBlurOuter1" result="shadowMatrixOuter1" values="0 0 0 0 0 0 0 0 0 0 0 0 0 0 0 0 0 0 0.582908741 0"/>
			<feMorphology in="SourceAlpha" operator="dilate" radius="1" result="shadowSpreadOuter2"/>
			<feOffset dy="2" in="shadowSpreadOuter2" result="shadowOffsetOuter2"/>
			<feGaussianBlur in="shadowOffsetOuter2" result="shadowBlurOuter2" stdDeviation="1.5"/>
			<feComposite in="shadowBlurOuter2" in2="SourceAlpha" operator="out" result="shadowBlurOuter2"/>
			<feColorMatrix in="shadowBlurOuter2" result="shadowMatrixOuter2" values="0 0 0 0 0 0 0 0 0 0 0 0 0 0 0 0 0 0 0.25 0"/>
			<feMerge>
				<feMergeNode in="shadowMatrixOuter1"/>
				<feMergeNode in="shadowMatrixOuter2"/>
			</feMerge>
		</filter>
		<filter id="filter-3" width="105%" height="110%" x="-2.5%" y="-2.5%" filterUnits="objectBoundingBox">
			<feOffset dy="1" in="SourceAlpha" result="shadowOffsetOuter1"/>
			<feComposite in="shadowOffsetOuter1" in2="SourceAlpha" operator="out" result="shadowOffsetOuter1"/>
			<feColorMatrix in="shadowOffsetOuter1" values="0 0 0 0 0 0 0 0 0 0 0 0 0 0 0 0 0 0 0.1 0"/>
		</filter>
		<filter id="filter-20" width="173.9%" height="154.2%" x="-36.9%" y="-18.8%" filterUnits="objectBoundingBox">
			<feMorphology in="SourceAlpha" operator="dilate" radius="1" result="shadowSpreadOuter1"/>
			<feOffset dy="1" in="shadowSpreadOuter1" result="shadowOffsetOuter1"/>
			<feGaussianBlur in="shadowOffsetOuter1" result="shadowBlurOuter1" stdDeviation=".5"/>
			<feComposite in="shadowBlurOuter1" in2="SourceAlpha" operator="out" result="shadowBlurOuter1"/>
			<feColorMatrix in="shadowBlurOuter1" result="shadowMatrixOuter1" values="0 0 0 0 0 0 0 0 0 0 0 0 0 0 0 0 0 0 0.582908741 0"/>
			<feMorphology in="SourceAlpha" operator="dilate" radius="1" result="shadowSpreadOuter2"/>
			<feOffset dy="2" in="shadowSpreadOuter2" result="shadowOffsetOuter2"/>
			<feGaussianBlur in="shadowOffsetOuter2" result="shadowBlurOuter2" stdDeviation="1.5"/>
			<feComposite in="shadowBlurOuter2" in2="SourceAlpha" operator="out" result="shadowBlurOuter2"/>
			<feColorMatrix in="shadowBlurOuter2" result="shadowMatrixOuter2" values="0 0 0 0 0 0 0 0 0 0 0 0 0 0 0 0 0 0 0.25 0"/>
			<feMerge>
				<feMergeNode in="shadowMatrixOuter1"/>
				<feMergeNode in="shadowMatrixOuter2"/>
			</feMerge>
		</filter>
		<filter id="filter-5" width="105%" height="110%" x="-2.5%" y="-2.5%" filterUnits="objectBoundingBox">
			<feOffset dy="1" in="SourceAlpha" result="shadowOffsetOuter1"/>
			<feComposite in="shadowOffsetOuter1" in2="SourceAlpha" operator="out" result="shadowOffsetOuter1"/>
			<feColorMatrix in="shadowOffsetOuter1" values="0 0 0 0 0 0 0 0 0 0 0 0 0 0 0 0 0 0 0.1 0"/>
		</filter>
		<filter id="filter-18" width="173.9%" height="154.2%" x="-36.9%" y="-18.8%" filterUnits="objectBoundingBox">
			<feMorphology in="SourceAlpha" operator="dilate" radius="1" result="shadowSpreadOuter1"/>
			<feOffset dy="1" in="shadowSpreadOuter1" result="shadowOffsetOuter1"/>
			<feGaussianBlur in="shadowOffsetOuter1" result="shadowBlurOuter1" stdDeviation=".5"/>
			<feComposite in="shadowBlurOuter1" in2="SourceAlpha" operator="out" result="shadowBlurOuter1"/>
			<feColorMatrix in="shadowBlurOuter1" result="shadowMatrixOuter1" values="0 0 0 0 0 0 0 0 0 0 0 0 0 0 0 0 0 0 0.582908741 0"/>
			<feMorphology in="SourceAlpha" operator="dilate" radius="1" result="shadowSpreadOuter2"/>
			<feOffset dy="2" in="shadowSpreadOuter2" result="shadowOffsetOuter2"/>
			<feGaussianBlur in="shadowOffsetOuter2" result="shadowBlurOuter2" stdDeviation="1.5"/>
			<feComposite in="shadowBlurOuter2" in2="SourceAlpha" operator="out" result="shadowBlurOuter2"/>
			<feColorMatrix in="shadowBlurOuter2" result="shadowMatrixOuter2" values="0 0 0 0 0 0 0 0 0 0 0 0 0 0 0 0 0 0 0.25 0"/>
			<feMerge>
				<feMergeNode in="shadowMatrixOuter1"/>
				<feMergeNode in="shadowMatrixOuter2"/>
			</feMerge>
		</filter>
		<filter id="filter-7" width="105%" height="110%" x="-2.5%" y="-2.5%" filterUnits="objectBoundingBox">
			<feOffset dy="1" in="SourceAlpha" result="shadowOffsetOuter1"/>
			<feComposite in="shadowOffsetOuter1" in2="SourceAlpha" operator="out" result="shadowOffsetOuter1"/>
			<feColorMatrix in="shadowOffsetOuter1" values="0 0 0 0 0 0 0 0 0 0 0 0 0 0 0 0 0 0 0.1 0"/>
		</filter>
		<filter id="filter-16" width="212.4%" height="164.2%" x="-56%" y="-21.7%" filterUnits="objectBoundingBox">
			<feMorphology in="SourceAlpha" operator="dilate" radius="1" result="shadowSpreadOuter1"/>
			<feOffset dy="1" in="shadowSpreadOuter1" result="shadowOffsetOuter1"/>
			<feGaussianBlur in="shadowOffsetOuter1" result="shadowBlurOuter1" stdDeviation=".5"/>
			<feComposite in="shadowBlurOuter1" in2="SourceAlpha" operator="out" result="shadowBlurOuter1"/>
			<feColorMatrix in="shadowBlurOuter1" result="shadowMatrixOuter1" values="0 0 0 0 0 0 0 0 0 0 0 0 0 0 0 0 0 0 0.582908741 0"/>
			<feMorphology in="SourceAlpha" operator="dilate" radius="1" result="shadowSpreadOuter2"/>
			<feOffset dy="2" in="shadowSpreadOuter2" result="shadowOffsetOuter2"/>
			<feGaussianBlur in="shadowOffsetOuter2" result="shadowBlurOuter2" stdDeviation="1.5"/>
			<feComposite in="shadowBlurOuter2" in2="SourceAlpha" operator="out" result="shadowBlurOuter2"/>
			<feColorMatrix in="shadowBlurOuter2" result="shadowMatrixOuter2" values="0 0 0 0 0 0 0 0 0 0 0 0 0 0 0 0 0 0 0.25 0"/>
			<feMerge>
				<feMergeNode in="shadowMatrixOuter1"/>
				<feMergeNode in="shadowMatrixOuter2"/>
			</feMerge>
		</filter>
		<filter id="filter-9" width="105%" height="110%" x="-2.5%" y="-2.5%" filterUnits="objectBoundingBox">
			<feOffset dy="1" in="SourceAlpha" result="shadowOffsetOuter1"/>
			<feComposite in="shadowOffsetOuter1" in2="SourceAlpha" operator="out" result="shadowOffsetOuter1"/>
			<feColorMatrix in="shadowOffsetOuter1" values="0 0 0 0 0 0 0 0 0 0 0 0 0 0 0 0 0 0 0.1 0"/>
		</filter>
		<filter id="filter-14" width="173.9%" height="154.2%" x="-36.9%" y="-18.8%" filterUnits="objectBoundingBox">
			<feMorphology in="SourceAlpha" operator="dilate" radius="1" result="shadowSpreadOuter1"/>
			<feOffset dy="1" in="shadowSpreadOuter1" result="shadowOffsetOuter1"/>
			<feGaussianBlur in="shadowOffsetOuter1" result="shadowBlurOuter1" stdDeviation=".5"/>
			<feComposite in="shadowBlurOuter1" in2="SourceAlpha" operator="out" result="shadowBlurOuter1"/>
			<feColorMatrix in="shadowBlurOuter1" result="shadowMatrixOuter1" values="0 0 0 0 0 0 0 0 0 0 0 0 0 0 0 0 0 0 0.582908741 0"/>
			<feMorphology in="SourceAlpha" operator="dilate" radius="1" result="shadowSpreadOuter2"/>
			<feOffset dy="2" in="shadowSpreadOuter2" result="shadowOffsetOuter2"/>
			<feGaussianBlur in="shadowOffsetOuter2" result="shadowBlurOuter2" stdDeviation="1.5"/>
			<feComposite in="shadowBlurOuter2" in2="SourceAlpha" operator="out" result="shadowBlurOuter2"/>
			<feColorMatrix in="shadowBlurOuter2" result="shadowMatrixOuter2" values="0 0 0 0 0 0 0 0 0 0 0 0 0 0 0 0 0 0 0.25 0"/>
			<feMerge>
				<feMergeNode in="shadowMatrixOuter1"/>
				<feMergeNode in="shadowMatrixOuter2"/>
			</feMerge>
		</filter>
		<filter id="filter-22" width="212.4%" height="164.2%" x="-56%" y="-21.7%" filterUnits="objectBoundingBox">
			<feMorphology in="SourceAlpha" operator="dilate" radius="1" result="shadowSpreadOuter1"/>
			<feOffset dy="1" in="shadowSpreadOuter1" result="shadowOffsetOuter1"/>
			<feGaussianBlur in="shadowOffsetOuter1" result="shadowBlurOuter1" stdDeviation=".5"/>
			<feComposite in="shadowBlurOuter1" in2="SourceAlpha" operator="out" result="shadowBlurOuter1"/>
			<feColorMatrix in="shadowBlurOuter1" result="shadowMatrixOuter1" values="0 0 0 0 0 0 0 0 0 0 0 0 0 0 0 0 0 0 0.582908741 0"/>
			<feMorphology in="SourceAlpha" operator="dilate" radius="1" result="shadowSpreadOuter2"/>
			<feOffset dy="2" in="shadowSpreadOuter2" result="shadowOffsetOuter2"/>
			<feGaussianBlur in="shadowOffsetOuter2" result="shadowBlurOuter2" stdDeviation="1.5"/>
			<feComposite in="shadowBlurOuter2" in2="SourceAlpha" operator="out" result="shadowBlurOuter2"/>
			<feColorMatrix in="shadowBlurOuter2" result="shadowMatrixOuter2" values="0 0 0 0 0 0 0 0 0 0 0 0 0 0 0 0 0 0 0.25 0"/>
			<feMerge>
				<feMergeNode in="shadowMatrixOuter1"/>
				<feMergeNode in="shadowMatrixOuter2"/>
			</feMerge>
		</filter>
		<path id="path-17" d="M17.595 12.379a1.19 1.19 0 00-1.197-1.183 1.19 1.19 0 00-1.196 1.179v-.826c0-.857-.719-1.551-1.606-1.551-.886 0-1.592.694-1.592 1.55V10.35c0-.856-.728-1.55-1.611-1.55s-1.586.694-1.586 1.55V1.425C8.807.638 8.168 0 7.397 0c-.772 0-1.398.638-1.398 1.425v15.038l-3.603-4.659c-.346-.586-1.126-.779-1.742-.431-.617.348-.836 1.105-.49 1.691 0 0 2.817 4.369 3.967 6.093C5.281 20.882 7.17 23.01 7.17 24h7.989c0-1.672 2.443-4.283 2.443-6.798v-3.24l-.006-1.583z"/>
		<path id="path-11" d="M17.595 12.379a1.19 1.19 0 00-1.197-1.183 1.19 1.19 0 00-1.196 1.179v-.826c0-.857-.719-1.551-1.606-1.551-.886 0-1.592.694-1.592 1.55V10.35c0-.856-.728-1.55-1.611-1.55s-1.586.694-1.586 1.55V1.425C8.807.638 8.168 0 7.397 0c-.772 0-1.398.638-1.398 1.425v15.038l-3.603-4.659c-.346-.586-1.126-.779-1.742-.431-.617.348-.836 1.105-.49 1.691 0 0 2.817 4.369 3.967 6.093C5.281 20.882 7.17 23.01 7.17 24h7.989c0-1.672 2.443-4.283 2.443-6.798v-3.24l-.006-1.583z"/>
		<path id="path-13" d="M17.595 12.379a1.19 1.19 0 00-1.197-1.183 1.19 1.19 0 00-1.196 1.179v-.826c0-.857-.719-1.551-1.606-1.551-.886 0-1.592.694-1.592 1.55V10.35c0-.856-.728-1.55-1.611-1.55s-1.586.694-1.586 1.55V1.425C8.807.638 8.168 0 7.397 0c-.772 0-1.398.638-1.398 1.425v15.038l-3.603-4.659c-.346-.586-1.126-.779-1.742-.431-.617.348-.836 1.105-.49 1.691 0 0 2.817 4.369 3.967 6.093C5.281 20.882 7.17 23.01 7.17 24h7.989c0-1.672 2.443-4.283 2.443-6.798v-3.24l-.006-1.583z"/>
		<path id="path-21" d="M6.132 11.269l4.71.26c.72-.08.899-.568.397-1.085L.592.3C.09-.216.027-.049.026.671L0 14.984c-.001.72.467.947 1.04.505l2.742-3.272c.095-.074.208-.146.327-.218l2.97 7.517c.165.41.664.595 1.113.413.449-.18.68-.66.514-1.07l-2.972-7.518.398-.073z"/>
		<path id="path-15" d="M6.132 11.269l4.71.26c.72-.08.899-.568.397-1.085L.592.3C.09-.216.027-.049.026.671L0 14.984c-.001.72.467.947 1.04.505l2.742-3.272c.095-.074.208-.146.327-.218l2.97 7.517c.165.41.664.595 1.113.413.449-.18.68-.66.514-1.07l-2.972-7.518.398-.073z"/>
		<path id="path-19" d="M17.595 12.379a1.19 1.19 0 00-1.197-1.183 1.19 1.19 0 00-1.196 1.179v-.826c0-.857-.719-1.551-1.606-1.551-.886 0-1.592.694-1.592 1.55V10.35c0-.856-.728-1.55-1.611-1.55s-1.586.694-1.586 1.55V1.425C8.807.638 8.168 0 7.397 0c-.772 0-1.398.638-1.398 1.425v15.038l-3.603-4.659c-.346-.586-1.126-.779-1.742-.431-.617.348-.836 1.105-.49 1.691 0 0 2.817 4.369 3.967 6.093C5.281 20.882 7.17 23.01 7.17 24h7.989c0-1.672 2.443-4.283 2.443-6.798v-3.24l-.006-1.583z"/>
		<path id="path-6" d="M43 26c5.523 0 10-4.477 10-10S48.523 6 43 6s-10 4.477-10 10 4.477 10 10 10z"/>
		<circle id="path-2" cx="43.5" cy="18" r="10"/>
		<circle id="path-8" cx="43" cy="16" r="10"/>
		<circle id="path-4" cx="44" cy="16" r="10"/>
		<rect id="path-10" width="60" height="32" x="0" y="0" rx="16"/>
		<rect id="path-1" width="61" height="36" x=".5" y="0" rx="18"/>
	</defs>
	<g id="Artboard-page" fill="none" fill-rule="evenodd" stroke="none" stroke-width="1">
		<g id="WikimediaUI-components_overview" transform="translate(-6640 -254)">
			<path fill="#FFF" d="M0 0h14720v3264H0z"/>
			<g id="TOGGLE-SWITCH" transform="translate(6640 143)">
				<g id="Toggle-Switch-X" transform="translate(0 113)">
					<text id="Normal-Hover-Active" fill="#72777D" font-family="Lato-Regular, Lato, sans-serif" font-size="14" font-weight="normal">
						<tspan x="0" y="21">Normal</tspan> <tspan x="0" y="77.1">Hover</tspan> <tspan x="0" y="133.2">Active</tspan> <tspan x="0" y="189.3">Focus</tspan> <tspan x="0" y="245.4">Disabled</tspan>
					</text>
					<g id="Toggle-switch-/-:on-/-:disabled" transform="translate(400 228)">
						<rect id="bg" width="59" height="31" x=".5" y=".5" fill="#C8CCD1" stroke="#C8CCD1" stroke-width="1" rx="15.5"/>
						<path id="grip" fill="#FFF" d="M43 26c5.523 0 10-4.477 10-10S48.523 6 43 6s-10 4.477-10 10 4.477 10 10 10z"/>
					</g>
					<g id="Toggle-switch-/-:on-/-:focus" transform="translate(400 168)">
						<g id="bg">
							<rect width="59" height="34" x="1.5" y="1" fill="#36C" stroke="#FFF" stroke-linejoin="square" stroke-width="2" rx="17"/>
							<rect width="62" height="37" y="-.5" stroke="#36C" rx="18.5"/>
							<rect width="60" height="35" x="1" y=".5" stroke="#36C" stroke-linejoin="square" rx="17.5"/>
						</g>
						<g id="grip">
							<use fill="#000" filter="url(#filter-3)" xlink:href="#path-2"/>
							<circle cx="43.5" cy="18" r="9.5" fill="#FFF" stroke="#FFF" stroke-linejoin="square"/>
						</g>
					</g>
					<g id="Toggle-switch-/-:on-/-:active" transform="translate(400 112)">
						<rect id="bg" width="59" height="31" x=".5" y=".5" fill="#2A4B8D" fill-rule="evenodd" stroke="#2A4B8D" stroke-width="1" rx="15.5"/>
						<g id="grip">
							<use fill="#000" filter="url(#filter-5)" xlink:href="#path-4"/>
							<circle cx="44" cy="16" r="9.5" fill="#FFF" stroke="#FFF" stroke-linejoin="square"/>
						</g>
					</g>
					<g id="Toggle-switch-/-:on-/-:hover" transform="translate(400 56)">
						<rect id="bg" width="59" height="31" x=".5" y=".5" fill="#447FF5" fill-rule="evenodd" stroke="#447FF5" stroke-width="1" rx="15.5"/>
						<g id="grip">
							<use fill="#000" filter="url(#filter-7)" xlink:href="#path-6"/>
							<path fill="#FFF" stroke="#FFF" stroke-linejoin="square" d="M43 6.5a9.47 9.47 0 00-6.718 2.782A9.47 9.47 0 0033.5 16a9.47 9.47 0 002.782 6.718A9.47 9.47 0 0043 25.5a9.47 9.47 0 006.718-2.782A9.47 9.47 0 0052.5 16a9.47 9.47 0 00-2.782-6.718A9.47 9.47 0 0043 6.5z"/>
						</g>
					</g>
					<g id="Toggle-switch-/-:on-/-!default" transform="translate(400)">
						<rect id="bg" width="59" height="31" x=".5" y=".5" fill="#36C" fill-rule="evenodd" stroke="#36C" stroke-width="1" rx="15.5"/>
						<g id="grip">
							<use fill="#000" filter="url(#filter-9)" xlink:href="#path-8"/>
							<circle cx="43" cy="16" r="9.5" fill="#FFF" stroke="#FFF" stroke-linejoin="square"/>
						</g>
					</g>
					<path id="Line-Copy-17" stroke="#50E3C2" stroke-dasharray="1 3" stroke-linecap="square" d="M483.5 306.5v302"/>
					<g id="Toggle-switch-/-:disabled" transform="translate(192 227)">
						<path id="bg" fill="#C8CCD1" fill-rule="evenodd" stroke="#C8CCD1" d="M16 0C7.163 0 0 7.162 0 16h0c0 8.837 7.163 16 16 16h28c8.837 0 16-7.162 16-16h0c0-8.837-7.163-16-16-16H16z"/>
						<circle id="grip" cx="17" cy="16" r="9.5" stroke="#FFF"/>
					</g>
					<g id="Toggle-switch-/-:active" transform="translate(193 113)">
						<rect id="bg" width="59" height="31" x=".5" y=".5" fill="#2A4B8D" stroke="#2A4B8D" rx="15.5"/>
						<path id="grip" fill="#FFF" stroke="#FFF" d="M17 6.5a9.47 9.47 0 00-6.718 2.782A9.47 9.47 0 007.5 16a9.47 9.47 0 002.782 6.718A9.47 9.47 0 0017 25.5a9.47 9.47 0 006.718-2.782A9.47 9.47 0 0026.5 16a9.47 9.47 0 00-2.782-6.718A9.47 9.47 0 0017 6.5z"/>
					</g>
					<g id="Toggle-switch-/-:focus" stroke="#36C" transform="translate(192 168)">
						<g id="bg">
							<rect width="59" height="31" x=".5" y=".5" stroke-linejoin="square" rx="15.5"/>
							<rect width="61" height="33" x="-.5" y="-.5" rx="16"/>
						</g>
						<circle id="grip" cx="17" cy="16" r="9.5"/>
					</g>
					<g id="Toggle-switch-/-:hover" stroke="#447FF5" transform="translate(192 56)">
						<path id="bg-NOTE-SKETCH-EXPORT-FAILS-IF-NOT-CENTER" d="M16 0C7.163 0 0 7.162 0 16h0c0 8.837 7.163 16 16 16h28c8.837 0 16-7.162 16-16h0c0-8.837-7.163-16-16-16H16z"/>
						<path id="grip" d="M17 6.5a9.47 9.47 0 00-6.718 2.782A9.47 9.47 0 007.5 16a9.47 9.47 0 002.782 6.718A9.47 9.47 0 0017 25.5a9.47 9.47 0 006.718-2.782A9.47 9.47 0 0026.5 16a9.47 9.47 0 00-2.782-6.718A9.47 9.47 0 0017 6.5z"/>
					</g>
					<g id="Toggle-switch-/-!default" fill="#FFF" stroke="#72777D" transform="translate(192)">
						<path id="bg" d="M15.997.613a15.34 15.34 0 00-10.85 4.354C2.344 7.695.584 11.488.5 16.009c0 4.271 1.735 8.146 4.54 10.951A15.451 15.451 0 0016 31.5h28c4.226 0 8.056-1.69 10.852-4.431 2.804-2.748 4.564-6.554 4.648-11.078 0-4.154-1.734-7.935-4.536-10.682a15.785 15.785 0 00-10.968-4.5l-28-.196z"/>
						<circle id="grip" cx="17" cy="16" r="9.5"/>
					</g>
					<g id="Cursor-/-Pointer" transform="translate(406 130)">
						<g id="Cursor-Pointer">
							<use fill="#000" filter="url(#filter-12)" xlink:href="#path-11"/>
							<path fill="#FFF" stroke="#000" d="M12.439 9.845a2.038 2.038 0 00-.561-.95 2.138 2.138 0 00-2.571-.298V1.425A1.925 1.925 0 007.397-.5c-.526 0-1.002.216-1.346.567-.34.348-.552.828-.552 1.358V15l-2.69-3.478a1.729 1.729 0 00-1.063-.768 1.83 1.83 0 00-1.338.184 1.778 1.778 0 00-.84 1.053c-.126.435-.08.912.176 1.345 0 0 2.82 4.373 3.971 6.1.345.517.755 1.07 1.161 1.617.868 1.17 1.793 2.306 1.793 2.948 0 .144-.047.312-.128.5h9.221c-.352-.755.25-1.803.875-2.996.704-1.343 1.464-2.841 1.464-4.302v-3.24l-.006-1.585c0-.464-.19-.885-.499-1.19a1.7 1.7 0 00-1.198-.491 1.7 1.7 0 00-.805.201 2.043 2.043 0 00-.514-.805 2.127 2.127 0 00-1.483-.594c-.43 0-.826.124-1.157.347z"/>
						</g>
					</g>
					<g id="Cursor-/-Pointer" transform="translate(406 72)">
						<g id="Cursor-Pointer">
							<use fill="#000" filter="url(#filter-14)" xlink:href="#path-13"/>
							<path fill="#FFF" stroke="#000" d="M12.439 9.845a2.038 2.038 0 00-.561-.95 2.138 2.138 0 00-2.571-.298V1.425A1.925 1.925 0 007.397-.5c-.526 0-1.002.216-1.346.567-.34.348-.552.828-.552 1.358V15l-2.69-3.478a1.729 1.729 0 00-1.063-.768 1.83 1.83 0 00-1.338.184 1.778 1.778 0 00-.84 1.053c-.126.435-.08.912.176 1.345 0 0 2.82 4.373 3.971 6.1.345.517.755 1.07 1.161 1.617.868 1.17 1.793 2.306 1.793 2.948 0 .144-.047.312-.128.5h9.221c-.352-.755.25-1.803.875-2.996.704-1.343 1.464-2.841 1.464-4.302v-3.24l-.006-1.585c0-.464-.19-.885-.499-1.19a1.7 1.7 0 00-1.198-.491 1.7 1.7 0 00-.805.201 2.043 2.043 0 00-.514-.805 2.127 2.127 0 00-1.483-.594c-.43 0-.826.124-1.157.347z"/>
						</g>
					</g>
					<g id="Cursor-/-!default" transform="translate(446 256)">
						<g id="Cursor" fill="#000">
							<use filter="url(#filter-16)" xlink:href="#path-15"/>
							<path stroke="#FFF" d="M3.936 12.924L6.614 19.7c.137.34.408.59.741.713.31.116.677.12 1.025-.02.346-.14.606-.398.75-.697a1.26 1.26 0 00.039-1.024l-2.72-6.886 4.404.244a1.63 1.63 0 00.67-.195.977.977 0 00.445-.514.97.97 0 00-.011-.68 1.584 1.584 0 00-.366-.554L.943-.055C.7-.303.478-.353-.217.204c-.07.246-.131.76-.17 1.734-.078 1.911-.1 5.713.008 13.687a.971.971 0 00.465.498.98.98 0 00.678.06c.191-.048.405-.153.627-.333l2.545-2.926z"/>
						</g>
					</g>
					<g id="Cursor-/-Pointer" transform="translate(238 129)">
						<g id="Cursor-Pointer">
							<use fill="#000" filter="url(#filter-18)" xlink:href="#path-17"/>
							<path fill="#FFF" stroke="#000" d="M12.439 9.845a2.038 2.038 0 00-.561-.95 2.138 2.138 0 00-2.571-.298V1.425A1.925 1.925 0 007.397-.5c-.526 0-1.002.216-1.346.567-.34.348-.552.828-.552 1.358V15l-2.69-3.478a1.729 1.729 0 00-1.063-.768 1.83 1.83 0 00-1.338.184 1.778 1.778 0 00-.84 1.053c-.126.435-.08.912.176 1.345 0 0 2.82 4.373 3.971 6.1.345.517.755 1.07 1.161 1.617.868 1.17 1.793 2.306 1.793 2.948 0 .144-.047.312-.128.5h9.221c-.352-.755.25-1.803.875-2.996.704-1.343 1.464-2.841 1.464-4.302v-3.24l-.006-1.585c0-.464-.19-.885-.499-1.19a1.7 1.7 0 00-1.198-.491 1.7 1.7 0 00-.805.201 2.043 2.043 0 00-.514-.805 2.127 2.127 0 00-1.483-.594c-.43 0-.826.124-1.157.347z"/>
						</g>
					</g>
					<g id="Cursor-/-Pointer" transform="translate(238 72)">
						<g id="Cursor-Pointer">
							<use fill="#000" filter="url(#filter-20)" xlink:href="#path-19"/>
							<path fill="#FFF" stroke="#000" d="M12.439 9.845a2.038 2.038 0 00-.561-.95 2.138 2.138 0 00-2.571-.298V1.425A1.925 1.925 0 007.397-.5c-.526 0-1.002.216-1.346.567-.34.348-.552.828-.552 1.358V15l-2.69-3.478a1.729 1.729 0 00-1.063-.768 1.83 1.83 0 00-1.338.184 1.778 1.778 0 00-.84 1.053c-.126.435-.08.912.176 1.345 0 0 2.82 4.373 3.971 6.1.345.517.755 1.07 1.161 1.617.868 1.17 1.793 2.306 1.793 2.948 0 .144-.047.312-.128.5h9.221c-.352-.755.25-1.803.875-2.996.704-1.343 1.464-2.841 1.464-4.302v-3.24l-.006-1.585c0-.464-.19-.885-.499-1.19a1.7 1.7 0 00-1.198-.491 1.7 1.7 0 00-.805.201 2.043 2.043 0 00-.514-.805 2.127 2.127 0 00-1.483-.594c-.43 0-.826.124-1.157.347z"/>
						</g>
					</g>
					<g id="Cursor-/-!default" transform="translate(244 253)">
						<g id="Cursor" fill="#000">
							<use filter="url(#filter-22)" xlink:href="#path-21"/>
							<path stroke="#FFF" d="M3.936 12.924L6.614 19.7c.137.34.408.59.741.713.31.116.677.12 1.025-.02.346-.14.606-.398.75-.697a1.26 1.26 0 00.039-1.024l-2.72-6.886 4.404.244a1.63 1.63 0 00.67-.195.977.977 0 00.445-.514.97.97 0 00-.011-.68 1.584 1.584 0 00-.366-.554L.943-.055C.7-.303.478-.353-.217.204c-.07.246-.131.76-.17 1.734-.078 1.911-.1 5.713.008 13.687a.971.971 0 00.465.498.98.98 0 00.678.06c.191-.048.405-.153.627-.333l2.545-2.926z"/>
						</g>
					</g>
				</g>
				<text id="Selected" fill="#72777D" font-family="Lato-Regular, Lato, sans-serif" font-size="14" font-weight="normal">
					<tspan x="400" y="416">Selected</tspan>
				</text>
			</g>
		</g>
	</g>
</svg>
