<?xml version="1.0" encoding="UTF-8"?><svg width="242px" height="242px" viewBox="0 0 242 242" xmlns="http://www.w3.org/2000/svg"><title>Wikimedia Foundation logo</title><g fill="#222" fill-rule="evenodd"><path d="M131.3 195c35.9-5.1 63.5-35.9 63.5-73.3 0-22.7-10.2-43-26.3-56.5l-37.3 37.3V195h.1zm-20.9 0v-92.5L73.1 65.2C57 78.8 46.8 99.1 46.8 121.7c.1 37.3 27.7 68.2 63.6 73.3z"/><path d="M185.2 57.4c17.2 17.2 26.6 40 26.6 64.3 0 24.3-9.5 47.1-26.6 64.3-17.2 17.2-40 26.6-64.3 26.6-24.3 0-47.1-9.5-64.3-26.6C39.4 168.9 30 146 30 121.7c0-24.3 9.5-47.1 26.6-64.3 1.5-1.5 3-2.9 4.5-4.2L40.3 32.4c-1.5 1.4-3 2.8-4.5 4.3-11 11-19.7 23.9-25.8 38.2C3.7 89.7.5 105.5.5 121.7c0 16.2 3.2 32 9.5 46.8 6.1 14.3 14.7 27.2 25.8 38.2 11 11 23.9 19.7 38.2 25.8 14.8 6.3 30.6 9.5 46.8 9.5 16.2 0 32-3.2 46.8-9.5 14.3-6.1 27.2-14.7 38.2-25.8 11-11 19.7-23.9 25.8-38.2 6.3-14.8 9.5-30.6 9.5-46.8 0-16.2-3.2-32-9.5-46.8-6.1-14.3-14.7-27.2-25.8-38.2-1.5-1.5-3-2.9-4.5-4.3l-20.8 20.8c1.7 1.3 3.2 2.7 4.7 4.2z"/><circle cx="120.9" cy="38.3" r="37.5"/></g></svg>